G75*
%MOIN*%
%OFA0B0*%
%FSLAX24Y24*%
%IPPOS*%
%LPD*%
%AMOC8*
5,1,8,0,0,1.08239X$1,22.5*
%
%ADD10R,0.0630X0.0118*%
%ADD11R,0.0118X0.0630*%
%ADD12R,0.0394X0.0394*%
%ADD13R,0.0610X0.0768*%
%ADD14C,0.0009*%
%ADD15C,0.0012*%
%ADD16R,0.0236X0.0098*%
%ADD17R,0.0098X0.0236*%
%ADD18R,0.1024X0.1024*%
%ADD19R,0.0197X0.0197*%
%ADD20R,0.0177X0.0591*%
%ADD21R,0.0110X0.0169*%
%ADD22R,0.0276X0.0354*%
%ADD23R,0.0394X0.1083*%
%ADD24R,0.0433X0.0394*%
%ADD25R,0.0276X0.0138*%
%ADD26R,0.0138X0.0276*%
%ADD27C,0.0059*%
%ADD28R,0.0551X0.0157*%
%ADD29R,0.0748X0.0906*%
%ADD30R,0.0748X0.0709*%
%ADD31R,0.0169X0.0110*%
%ADD32R,0.0669X0.0551*%
%ADD33R,0.0157X0.0531*%
%ADD34R,0.0177X0.0433*%
%ADD35R,0.0236X0.0433*%
%ADD36R,0.0394X0.0433*%
%ADD37R,0.0512X0.0591*%
%ADD38R,0.0591X0.0512*%
%ADD39R,0.1900X0.0900*%
%ADD40R,0.0590X0.0170*%
%ADD41R,0.1150X0.0500*%
%ADD42R,0.0650X0.1350*%
%ADD43R,0.0276X0.0256*%
%ADD44R,0.1102X0.0945*%
%ADD45R,0.0256X0.0276*%
%ADD46R,0.0315X0.0315*%
%ADD47R,0.0470X0.0390*%
%ADD48R,0.0276X0.0098*%
%ADD49R,0.0252X0.0941*%
%ADD50R,0.0500X0.1450*%
%ADD51R,0.1250X0.1250*%
D10*
X011477Y010597D03*
X011477Y010794D03*
X011477Y010990D03*
X011477Y011187D03*
X011477Y011384D03*
X011477Y011581D03*
X011477Y011778D03*
X011477Y011975D03*
X011477Y012172D03*
X011477Y012368D03*
X011477Y012565D03*
X011477Y012762D03*
X011477Y012959D03*
X011477Y013156D03*
X011477Y013353D03*
X011477Y013549D03*
X011477Y013746D03*
X011477Y013943D03*
X011477Y014140D03*
X011477Y014337D03*
X011477Y014534D03*
X011477Y014731D03*
X011477Y014927D03*
X011477Y015124D03*
X011477Y015321D03*
X011477Y015518D03*
X011477Y015715D03*
X011477Y015912D03*
X011477Y016109D03*
X011477Y016305D03*
X011477Y016502D03*
X011477Y016699D03*
X019824Y016699D03*
X019824Y016502D03*
X019824Y016305D03*
X019824Y016109D03*
X019824Y015912D03*
X019824Y015715D03*
X019824Y015518D03*
X019824Y015321D03*
X019824Y015124D03*
X019824Y014927D03*
X019824Y014731D03*
X019824Y014534D03*
X019824Y014337D03*
X019824Y014140D03*
X019824Y013943D03*
X019824Y013746D03*
X019824Y013549D03*
X019824Y013353D03*
X019824Y013156D03*
X019824Y012959D03*
X019824Y012762D03*
X019824Y012565D03*
X019824Y012368D03*
X019824Y012172D03*
X019824Y011975D03*
X019824Y011778D03*
X019824Y011581D03*
X019824Y011384D03*
X019824Y011187D03*
X019824Y010990D03*
X019824Y010794D03*
X019824Y010597D03*
X024838Y010603D03*
X024838Y010800D03*
X024838Y010997D03*
X024838Y011194D03*
X024838Y011390D03*
X024838Y011587D03*
X024838Y011784D03*
X024838Y011981D03*
X024838Y012178D03*
X024838Y012375D03*
X024838Y012572D03*
X024838Y012768D03*
X024838Y012965D03*
X024838Y013162D03*
X024838Y013359D03*
X024838Y013556D03*
X024838Y013753D03*
X024838Y013949D03*
X024838Y014146D03*
X024838Y014343D03*
X024838Y014540D03*
X024838Y014737D03*
X024838Y014934D03*
X024838Y015131D03*
X024838Y015327D03*
X024838Y015524D03*
X024838Y015721D03*
X024838Y015918D03*
X024838Y016115D03*
X024838Y016312D03*
X024838Y016509D03*
X024838Y016705D03*
X024838Y016902D03*
X024838Y017099D03*
X024838Y017296D03*
X024838Y017493D03*
X033263Y017493D03*
X033263Y017296D03*
X033263Y017099D03*
X033263Y016902D03*
X033263Y016705D03*
X033263Y016509D03*
X033263Y016312D03*
X033263Y016115D03*
X033263Y015918D03*
X033263Y015721D03*
X033263Y015524D03*
X033263Y015327D03*
X033263Y015131D03*
X033263Y014934D03*
X033263Y014737D03*
X033263Y014540D03*
X033263Y014343D03*
X033263Y014146D03*
X033263Y013949D03*
X033263Y013753D03*
X033263Y013556D03*
X033263Y013359D03*
X033263Y013162D03*
X033263Y012965D03*
X033263Y012768D03*
X033263Y012572D03*
X033263Y012375D03*
X033263Y012178D03*
X033263Y011981D03*
X033263Y011784D03*
X033263Y011587D03*
X033263Y011390D03*
X033263Y011194D03*
X033263Y010997D03*
X033263Y010800D03*
X033263Y010603D03*
D11*
X032496Y009835D03*
X032299Y009835D03*
X032102Y009835D03*
X031905Y009835D03*
X031708Y009835D03*
X031511Y009835D03*
X031314Y009835D03*
X031118Y009835D03*
X030921Y009835D03*
X030724Y009835D03*
X030527Y009835D03*
X030330Y009835D03*
X030133Y009835D03*
X029936Y009835D03*
X029740Y009835D03*
X029543Y009835D03*
X029346Y009835D03*
X029149Y009835D03*
X028952Y009835D03*
X028755Y009835D03*
X028559Y009835D03*
X028362Y009835D03*
X028165Y009835D03*
X027968Y009835D03*
X027771Y009835D03*
X027574Y009835D03*
X027377Y009835D03*
X027181Y009835D03*
X026984Y009835D03*
X026787Y009835D03*
X026590Y009835D03*
X026393Y009835D03*
X026196Y009835D03*
X025999Y009835D03*
X025803Y009835D03*
X025606Y009835D03*
X018702Y009475D03*
X018505Y009475D03*
X018308Y009475D03*
X018111Y009475D03*
X017914Y009475D03*
X017718Y009475D03*
X017521Y009475D03*
X017324Y009475D03*
X017127Y009475D03*
X016930Y009475D03*
X016733Y009475D03*
X016536Y009475D03*
X016340Y009475D03*
X016143Y009475D03*
X015946Y009475D03*
X015749Y009475D03*
X015552Y009475D03*
X015355Y009475D03*
X015159Y009475D03*
X014962Y009475D03*
X014765Y009475D03*
X014568Y009475D03*
X014371Y009475D03*
X014174Y009475D03*
X013977Y009475D03*
X013781Y009475D03*
X013584Y009475D03*
X013387Y009475D03*
X013190Y009475D03*
X012993Y009475D03*
X012796Y009475D03*
X012599Y009475D03*
X012599Y017821D03*
X012796Y017821D03*
X012993Y017821D03*
X013190Y017821D03*
X013387Y017821D03*
X013584Y017821D03*
X013781Y017821D03*
X013977Y017821D03*
X014174Y017821D03*
X014371Y017821D03*
X014568Y017821D03*
X014765Y017821D03*
X014962Y017821D03*
X015159Y017821D03*
X015355Y017821D03*
X015552Y017821D03*
X015749Y017821D03*
X015946Y017821D03*
X016143Y017821D03*
X016340Y017821D03*
X016536Y017821D03*
X016733Y017821D03*
X016930Y017821D03*
X017127Y017821D03*
X017324Y017821D03*
X017521Y017821D03*
X017718Y017821D03*
X017914Y017821D03*
X018111Y017821D03*
X018308Y017821D03*
X018505Y017821D03*
X018702Y017821D03*
X025606Y018261D03*
X025803Y018261D03*
X025999Y018261D03*
X026196Y018261D03*
X026393Y018261D03*
X026590Y018261D03*
X026787Y018261D03*
X026984Y018261D03*
X027181Y018261D03*
X027377Y018261D03*
X027574Y018261D03*
X027771Y018261D03*
X027968Y018261D03*
X028165Y018261D03*
X028362Y018261D03*
X028559Y018261D03*
X028755Y018261D03*
X028952Y018261D03*
X029149Y018261D03*
X029346Y018261D03*
X029543Y018261D03*
X029740Y018261D03*
X029936Y018261D03*
X030133Y018261D03*
X030330Y018261D03*
X030527Y018261D03*
X030724Y018261D03*
X030921Y018261D03*
X031118Y018261D03*
X031314Y018261D03*
X031511Y018261D03*
X031708Y018261D03*
X031905Y018261D03*
X032102Y018261D03*
X032299Y018261D03*
X032496Y018261D03*
D12*
X044951Y017898D03*
X016359Y014357D03*
X015887Y014357D03*
X015414Y014357D03*
X014942Y014357D03*
X014942Y013884D03*
X015414Y013884D03*
X015887Y013884D03*
X016359Y013884D03*
X016359Y013412D03*
X015887Y013412D03*
X015414Y013412D03*
X014942Y013412D03*
X014942Y012939D03*
X015414Y012939D03*
X015887Y012939D03*
X016359Y012939D03*
D13*
X009651Y011975D03*
X008651Y011975D03*
X007651Y011975D03*
X007651Y010321D03*
X008651Y010321D03*
X009651Y010321D03*
D14*
X010994Y011384D02*
X010994Y011454D01*
X010994Y011384D02*
X010608Y011384D01*
X010608Y011454D01*
X010994Y011454D01*
X010994Y011392D02*
X010608Y011392D01*
X010608Y011400D02*
X010994Y011400D01*
X010994Y011408D02*
X010608Y011408D01*
X010608Y011416D02*
X010994Y011416D01*
X010994Y011424D02*
X010608Y011424D01*
X010608Y011432D02*
X010994Y011432D01*
X010994Y011440D02*
X010608Y011440D01*
X010608Y011448D02*
X010994Y011448D01*
X010994Y011542D02*
X010994Y011612D01*
X010994Y011542D02*
X010608Y011542D01*
X010608Y011612D01*
X010994Y011612D01*
X010994Y011550D02*
X010608Y011550D01*
X010608Y011558D02*
X010994Y011558D01*
X010994Y011566D02*
X010608Y011566D01*
X010608Y011574D02*
X010994Y011574D01*
X010994Y011582D02*
X010608Y011582D01*
X010608Y011590D02*
X010994Y011590D01*
X010994Y011598D02*
X010608Y011598D01*
X010608Y011606D02*
X010994Y011606D01*
X010994Y011984D02*
X010994Y012054D01*
X010994Y011984D02*
X010608Y011984D01*
X010608Y012054D01*
X010994Y012054D01*
X010994Y011992D02*
X010608Y011992D01*
X010608Y012000D02*
X010994Y012000D01*
X010994Y012008D02*
X010608Y012008D01*
X010608Y012016D02*
X010994Y012016D01*
X010994Y012024D02*
X010608Y012024D01*
X010608Y012032D02*
X010994Y012032D01*
X010994Y012040D02*
X010608Y012040D01*
X010608Y012048D02*
X010994Y012048D01*
X010994Y012142D02*
X010994Y012212D01*
X010994Y012142D02*
X010608Y012142D01*
X010608Y012212D01*
X010994Y012212D01*
X010994Y012150D02*
X010608Y012150D01*
X010608Y012158D02*
X010994Y012158D01*
X010994Y012166D02*
X010608Y012166D01*
X010608Y012174D02*
X010994Y012174D01*
X010994Y012182D02*
X010608Y012182D01*
X010608Y012190D02*
X010994Y012190D01*
X010994Y012198D02*
X010608Y012198D01*
X010608Y012206D02*
X010994Y012206D01*
X007764Y012755D02*
X007694Y012755D01*
X007694Y013141D01*
X007764Y013141D01*
X007764Y012755D01*
X007764Y012763D02*
X007694Y012763D01*
X007694Y012771D02*
X007764Y012771D01*
X007764Y012779D02*
X007694Y012779D01*
X007694Y012787D02*
X007764Y012787D01*
X007764Y012795D02*
X007694Y012795D01*
X007694Y012803D02*
X007764Y012803D01*
X007764Y012811D02*
X007694Y012811D01*
X007694Y012819D02*
X007764Y012819D01*
X007764Y012827D02*
X007694Y012827D01*
X007694Y012835D02*
X007764Y012835D01*
X007764Y012843D02*
X007694Y012843D01*
X007694Y012851D02*
X007764Y012851D01*
X007764Y012859D02*
X007694Y012859D01*
X007694Y012867D02*
X007764Y012867D01*
X007764Y012875D02*
X007694Y012875D01*
X007694Y012883D02*
X007764Y012883D01*
X007764Y012891D02*
X007694Y012891D01*
X007694Y012899D02*
X007764Y012899D01*
X007764Y012907D02*
X007694Y012907D01*
X007694Y012915D02*
X007764Y012915D01*
X007764Y012923D02*
X007694Y012923D01*
X007694Y012931D02*
X007764Y012931D01*
X007764Y012939D02*
X007694Y012939D01*
X007694Y012947D02*
X007764Y012947D01*
X007764Y012955D02*
X007694Y012955D01*
X007694Y012963D02*
X007764Y012963D01*
X007764Y012971D02*
X007694Y012971D01*
X007694Y012979D02*
X007764Y012979D01*
X007764Y012987D02*
X007694Y012987D01*
X007694Y012995D02*
X007764Y012995D01*
X007764Y013003D02*
X007694Y013003D01*
X007694Y013011D02*
X007764Y013011D01*
X007764Y013019D02*
X007694Y013019D01*
X007694Y013027D02*
X007764Y013027D01*
X007764Y013035D02*
X007694Y013035D01*
X007694Y013043D02*
X007764Y013043D01*
X007764Y013051D02*
X007694Y013051D01*
X007694Y013059D02*
X007764Y013059D01*
X007764Y013067D02*
X007694Y013067D01*
X007694Y013075D02*
X007764Y013075D01*
X007764Y013083D02*
X007694Y013083D01*
X007694Y013091D02*
X007764Y013091D01*
X007764Y013099D02*
X007694Y013099D01*
X007694Y013107D02*
X007764Y013107D01*
X007764Y013115D02*
X007694Y013115D01*
X007694Y013123D02*
X007764Y013123D01*
X007764Y013131D02*
X007694Y013131D01*
X007694Y013139D02*
X007764Y013139D01*
X007607Y012755D02*
X007537Y012755D01*
X007537Y013141D01*
X007607Y013141D01*
X007607Y012755D01*
X007607Y012763D02*
X007537Y012763D01*
X007537Y012771D02*
X007607Y012771D01*
X007607Y012779D02*
X007537Y012779D01*
X007537Y012787D02*
X007607Y012787D01*
X007607Y012795D02*
X007537Y012795D01*
X007537Y012803D02*
X007607Y012803D01*
X007607Y012811D02*
X007537Y012811D01*
X007537Y012819D02*
X007607Y012819D01*
X007607Y012827D02*
X007537Y012827D01*
X007537Y012835D02*
X007607Y012835D01*
X007607Y012843D02*
X007537Y012843D01*
X007537Y012851D02*
X007607Y012851D01*
X007607Y012859D02*
X007537Y012859D01*
X007537Y012867D02*
X007607Y012867D01*
X007607Y012875D02*
X007537Y012875D01*
X007537Y012883D02*
X007607Y012883D01*
X007607Y012891D02*
X007537Y012891D01*
X007537Y012899D02*
X007607Y012899D01*
X007607Y012907D02*
X007537Y012907D01*
X007537Y012915D02*
X007607Y012915D01*
X007607Y012923D02*
X007537Y012923D01*
X007537Y012931D02*
X007607Y012931D01*
X007607Y012939D02*
X007537Y012939D01*
X007537Y012947D02*
X007607Y012947D01*
X007607Y012955D02*
X007537Y012955D01*
X007537Y012963D02*
X007607Y012963D01*
X007607Y012971D02*
X007537Y012971D01*
X007537Y012979D02*
X007607Y012979D01*
X007607Y012987D02*
X007537Y012987D01*
X007537Y012995D02*
X007607Y012995D01*
X007607Y013003D02*
X007537Y013003D01*
X007537Y013011D02*
X007607Y013011D01*
X007607Y013019D02*
X007537Y013019D01*
X007537Y013027D02*
X007607Y013027D01*
X007607Y013035D02*
X007537Y013035D01*
X007537Y013043D02*
X007607Y013043D01*
X007607Y013051D02*
X007537Y013051D01*
X007537Y013059D02*
X007607Y013059D01*
X007607Y013067D02*
X007537Y013067D01*
X007537Y013075D02*
X007607Y013075D01*
X007607Y013083D02*
X007537Y013083D01*
X007537Y013091D02*
X007607Y013091D01*
X007607Y013099D02*
X007537Y013099D01*
X007537Y013107D02*
X007607Y013107D01*
X007607Y013115D02*
X007537Y013115D01*
X007537Y013123D02*
X007607Y013123D01*
X007607Y013131D02*
X007537Y013131D01*
X007537Y013139D02*
X007607Y013139D01*
X009444Y014284D02*
X009444Y014354D01*
X009444Y014284D02*
X009058Y014284D01*
X009058Y014354D01*
X009444Y014354D01*
X009444Y014292D02*
X009058Y014292D01*
X009058Y014300D02*
X009444Y014300D01*
X009444Y014308D02*
X009058Y014308D01*
X009058Y014316D02*
X009444Y014316D01*
X009444Y014324D02*
X009058Y014324D01*
X009058Y014332D02*
X009444Y014332D01*
X009444Y014340D02*
X009058Y014340D01*
X009058Y014348D02*
X009444Y014348D01*
X009444Y014442D02*
X009444Y014512D01*
X009444Y014442D02*
X009058Y014442D01*
X009058Y014512D01*
X009444Y014512D01*
X009444Y014450D02*
X009058Y014450D01*
X009058Y014458D02*
X009444Y014458D01*
X009444Y014466D02*
X009058Y014466D01*
X009058Y014474D02*
X009444Y014474D01*
X009444Y014482D02*
X009058Y014482D01*
X009058Y014490D02*
X009444Y014490D01*
X009444Y014498D02*
X009058Y014498D01*
X009058Y014506D02*
X009444Y014506D01*
X009058Y014984D02*
X009058Y015054D01*
X009444Y015054D01*
X009444Y014984D01*
X009058Y014984D01*
X009058Y014992D02*
X009444Y014992D01*
X009444Y015000D02*
X009058Y015000D01*
X009058Y015008D02*
X009444Y015008D01*
X009444Y015016D02*
X009058Y015016D01*
X009058Y015024D02*
X009444Y015024D01*
X009444Y015032D02*
X009058Y015032D01*
X009058Y015040D02*
X009444Y015040D01*
X009444Y015048D02*
X009058Y015048D01*
X009058Y015142D02*
X009058Y015212D01*
X009444Y015212D01*
X009444Y015142D01*
X009058Y015142D01*
X009058Y015150D02*
X009444Y015150D01*
X009444Y015158D02*
X009058Y015158D01*
X009058Y015166D02*
X009444Y015166D01*
X009444Y015174D02*
X009058Y015174D01*
X009058Y015182D02*
X009444Y015182D01*
X009444Y015190D02*
X009058Y015190D01*
X009058Y015198D02*
X009444Y015198D01*
X009444Y015206D02*
X009058Y015206D01*
X010994Y015684D02*
X010994Y015754D01*
X010994Y015684D02*
X010608Y015684D01*
X010608Y015754D01*
X010994Y015754D01*
X010994Y015692D02*
X010608Y015692D01*
X010608Y015700D02*
X010994Y015700D01*
X010994Y015708D02*
X010608Y015708D01*
X010608Y015716D02*
X010994Y015716D01*
X010994Y015724D02*
X010608Y015724D01*
X010608Y015732D02*
X010994Y015732D01*
X010994Y015740D02*
X010608Y015740D01*
X010608Y015748D02*
X010994Y015748D01*
X010994Y015842D02*
X010994Y015912D01*
X010994Y015842D02*
X010608Y015842D01*
X010608Y015912D01*
X010994Y015912D01*
X010994Y015850D02*
X010608Y015850D01*
X010608Y015858D02*
X010994Y015858D01*
X010994Y015866D02*
X010608Y015866D01*
X010608Y015874D02*
X010994Y015874D01*
X010994Y015882D02*
X010608Y015882D01*
X010608Y015890D02*
X010994Y015890D01*
X010994Y015898D02*
X010608Y015898D01*
X010608Y015906D02*
X010994Y015906D01*
X010994Y016484D02*
X010994Y016554D01*
X010994Y016484D02*
X010608Y016484D01*
X010608Y016554D01*
X010994Y016554D01*
X010994Y016492D02*
X010608Y016492D01*
X010608Y016500D02*
X010994Y016500D01*
X010994Y016508D02*
X010608Y016508D01*
X010608Y016516D02*
X010994Y016516D01*
X010994Y016524D02*
X010608Y016524D01*
X010608Y016532D02*
X010994Y016532D01*
X010994Y016540D02*
X010608Y016540D01*
X010608Y016548D02*
X010994Y016548D01*
X010994Y016642D02*
X010994Y016712D01*
X010994Y016642D02*
X010608Y016642D01*
X010608Y016712D01*
X010994Y016712D01*
X010994Y016650D02*
X010608Y016650D01*
X010608Y016658D02*
X010994Y016658D01*
X010994Y016666D02*
X010608Y016666D01*
X010608Y016674D02*
X010994Y016674D01*
X010994Y016682D02*
X010608Y016682D01*
X010608Y016690D02*
X010994Y016690D01*
X010994Y016698D02*
X010608Y016698D01*
X010608Y016706D02*
X010994Y016706D01*
X012387Y018691D02*
X012457Y018691D01*
X012457Y018305D01*
X012387Y018305D01*
X012387Y018691D01*
X012387Y018313D02*
X012457Y018313D01*
X012457Y018321D02*
X012387Y018321D01*
X012387Y018329D02*
X012457Y018329D01*
X012457Y018337D02*
X012387Y018337D01*
X012387Y018345D02*
X012457Y018345D01*
X012457Y018353D02*
X012387Y018353D01*
X012387Y018361D02*
X012457Y018361D01*
X012457Y018369D02*
X012387Y018369D01*
X012387Y018377D02*
X012457Y018377D01*
X012457Y018385D02*
X012387Y018385D01*
X012387Y018393D02*
X012457Y018393D01*
X012457Y018401D02*
X012387Y018401D01*
X012387Y018409D02*
X012457Y018409D01*
X012457Y018417D02*
X012387Y018417D01*
X012387Y018425D02*
X012457Y018425D01*
X012457Y018433D02*
X012387Y018433D01*
X012387Y018441D02*
X012457Y018441D01*
X012457Y018449D02*
X012387Y018449D01*
X012387Y018457D02*
X012457Y018457D01*
X012457Y018465D02*
X012387Y018465D01*
X012387Y018473D02*
X012457Y018473D01*
X012457Y018481D02*
X012387Y018481D01*
X012387Y018489D02*
X012457Y018489D01*
X012457Y018497D02*
X012387Y018497D01*
X012387Y018505D02*
X012457Y018505D01*
X012457Y018513D02*
X012387Y018513D01*
X012387Y018521D02*
X012457Y018521D01*
X012457Y018529D02*
X012387Y018529D01*
X012387Y018537D02*
X012457Y018537D01*
X012457Y018545D02*
X012387Y018545D01*
X012387Y018553D02*
X012457Y018553D01*
X012457Y018561D02*
X012387Y018561D01*
X012387Y018569D02*
X012457Y018569D01*
X012457Y018577D02*
X012387Y018577D01*
X012387Y018585D02*
X012457Y018585D01*
X012457Y018593D02*
X012387Y018593D01*
X012387Y018601D02*
X012457Y018601D01*
X012457Y018609D02*
X012387Y018609D01*
X012387Y018617D02*
X012457Y018617D01*
X012457Y018625D02*
X012387Y018625D01*
X012387Y018633D02*
X012457Y018633D01*
X012457Y018641D02*
X012387Y018641D01*
X012387Y018649D02*
X012457Y018649D01*
X012457Y018657D02*
X012387Y018657D01*
X012387Y018665D02*
X012457Y018665D01*
X012457Y018673D02*
X012387Y018673D01*
X012387Y018681D02*
X012457Y018681D01*
X012457Y018689D02*
X012387Y018689D01*
X012544Y018691D02*
X012614Y018691D01*
X012614Y018305D01*
X012544Y018305D01*
X012544Y018691D01*
X012544Y018313D02*
X012614Y018313D01*
X012614Y018321D02*
X012544Y018321D01*
X012544Y018329D02*
X012614Y018329D01*
X012614Y018337D02*
X012544Y018337D01*
X012544Y018345D02*
X012614Y018345D01*
X012614Y018353D02*
X012544Y018353D01*
X012544Y018361D02*
X012614Y018361D01*
X012614Y018369D02*
X012544Y018369D01*
X012544Y018377D02*
X012614Y018377D01*
X012614Y018385D02*
X012544Y018385D01*
X012544Y018393D02*
X012614Y018393D01*
X012614Y018401D02*
X012544Y018401D01*
X012544Y018409D02*
X012614Y018409D01*
X012614Y018417D02*
X012544Y018417D01*
X012544Y018425D02*
X012614Y018425D01*
X012614Y018433D02*
X012544Y018433D01*
X012544Y018441D02*
X012614Y018441D01*
X012614Y018449D02*
X012544Y018449D01*
X012544Y018457D02*
X012614Y018457D01*
X012614Y018465D02*
X012544Y018465D01*
X012544Y018473D02*
X012614Y018473D01*
X012614Y018481D02*
X012544Y018481D01*
X012544Y018489D02*
X012614Y018489D01*
X012614Y018497D02*
X012544Y018497D01*
X012544Y018505D02*
X012614Y018505D01*
X012614Y018513D02*
X012544Y018513D01*
X012544Y018521D02*
X012614Y018521D01*
X012614Y018529D02*
X012544Y018529D01*
X012544Y018537D02*
X012614Y018537D01*
X012614Y018545D02*
X012544Y018545D01*
X012544Y018553D02*
X012614Y018553D01*
X012614Y018561D02*
X012544Y018561D01*
X012544Y018569D02*
X012614Y018569D01*
X012614Y018577D02*
X012544Y018577D01*
X012544Y018585D02*
X012614Y018585D01*
X012614Y018593D02*
X012544Y018593D01*
X012544Y018601D02*
X012614Y018601D01*
X012614Y018609D02*
X012544Y018609D01*
X012544Y018617D02*
X012614Y018617D01*
X012614Y018625D02*
X012544Y018625D01*
X012544Y018633D02*
X012614Y018633D01*
X012614Y018641D02*
X012544Y018641D01*
X012544Y018649D02*
X012614Y018649D01*
X012614Y018657D02*
X012544Y018657D01*
X012544Y018665D02*
X012614Y018665D01*
X012614Y018673D02*
X012544Y018673D01*
X012544Y018681D02*
X012614Y018681D01*
X012614Y018689D02*
X012544Y018689D01*
X013987Y018305D02*
X014057Y018305D01*
X013987Y018305D02*
X013987Y018691D01*
X014057Y018691D01*
X014057Y018305D01*
X014057Y018313D02*
X013987Y018313D01*
X013987Y018321D02*
X014057Y018321D01*
X014057Y018329D02*
X013987Y018329D01*
X013987Y018337D02*
X014057Y018337D01*
X014057Y018345D02*
X013987Y018345D01*
X013987Y018353D02*
X014057Y018353D01*
X014057Y018361D02*
X013987Y018361D01*
X013987Y018369D02*
X014057Y018369D01*
X014057Y018377D02*
X013987Y018377D01*
X013987Y018385D02*
X014057Y018385D01*
X014057Y018393D02*
X013987Y018393D01*
X013987Y018401D02*
X014057Y018401D01*
X014057Y018409D02*
X013987Y018409D01*
X013987Y018417D02*
X014057Y018417D01*
X014057Y018425D02*
X013987Y018425D01*
X013987Y018433D02*
X014057Y018433D01*
X014057Y018441D02*
X013987Y018441D01*
X013987Y018449D02*
X014057Y018449D01*
X014057Y018457D02*
X013987Y018457D01*
X013987Y018465D02*
X014057Y018465D01*
X014057Y018473D02*
X013987Y018473D01*
X013987Y018481D02*
X014057Y018481D01*
X014057Y018489D02*
X013987Y018489D01*
X013987Y018497D02*
X014057Y018497D01*
X014057Y018505D02*
X013987Y018505D01*
X013987Y018513D02*
X014057Y018513D01*
X014057Y018521D02*
X013987Y018521D01*
X013987Y018529D02*
X014057Y018529D01*
X014057Y018537D02*
X013987Y018537D01*
X013987Y018545D02*
X014057Y018545D01*
X014057Y018553D02*
X013987Y018553D01*
X013987Y018561D02*
X014057Y018561D01*
X014057Y018569D02*
X013987Y018569D01*
X013987Y018577D02*
X014057Y018577D01*
X014057Y018585D02*
X013987Y018585D01*
X013987Y018593D02*
X014057Y018593D01*
X014057Y018601D02*
X013987Y018601D01*
X013987Y018609D02*
X014057Y018609D01*
X014057Y018617D02*
X013987Y018617D01*
X013987Y018625D02*
X014057Y018625D01*
X014057Y018633D02*
X013987Y018633D01*
X013987Y018641D02*
X014057Y018641D01*
X014057Y018649D02*
X013987Y018649D01*
X013987Y018657D02*
X014057Y018657D01*
X014057Y018665D02*
X013987Y018665D01*
X013987Y018673D02*
X014057Y018673D01*
X014057Y018681D02*
X013987Y018681D01*
X013987Y018689D02*
X014057Y018689D01*
X014144Y018305D02*
X014214Y018305D01*
X014144Y018305D02*
X014144Y018691D01*
X014214Y018691D01*
X014214Y018305D01*
X014214Y018313D02*
X014144Y018313D01*
X014144Y018321D02*
X014214Y018321D01*
X014214Y018329D02*
X014144Y018329D01*
X014144Y018337D02*
X014214Y018337D01*
X014214Y018345D02*
X014144Y018345D01*
X014144Y018353D02*
X014214Y018353D01*
X014214Y018361D02*
X014144Y018361D01*
X014144Y018369D02*
X014214Y018369D01*
X014214Y018377D02*
X014144Y018377D01*
X014144Y018385D02*
X014214Y018385D01*
X014214Y018393D02*
X014144Y018393D01*
X014144Y018401D02*
X014214Y018401D01*
X014214Y018409D02*
X014144Y018409D01*
X014144Y018417D02*
X014214Y018417D01*
X014214Y018425D02*
X014144Y018425D01*
X014144Y018433D02*
X014214Y018433D01*
X014214Y018441D02*
X014144Y018441D01*
X014144Y018449D02*
X014214Y018449D01*
X014214Y018457D02*
X014144Y018457D01*
X014144Y018465D02*
X014214Y018465D01*
X014214Y018473D02*
X014144Y018473D01*
X014144Y018481D02*
X014214Y018481D01*
X014214Y018489D02*
X014144Y018489D01*
X014144Y018497D02*
X014214Y018497D01*
X014214Y018505D02*
X014144Y018505D01*
X014144Y018513D02*
X014214Y018513D01*
X014214Y018521D02*
X014144Y018521D01*
X014144Y018529D02*
X014214Y018529D01*
X014214Y018537D02*
X014144Y018537D01*
X014144Y018545D02*
X014214Y018545D01*
X014214Y018553D02*
X014144Y018553D01*
X014144Y018561D02*
X014214Y018561D01*
X014214Y018569D02*
X014144Y018569D01*
X014144Y018577D02*
X014214Y018577D01*
X014214Y018585D02*
X014144Y018585D01*
X014144Y018593D02*
X014214Y018593D01*
X014214Y018601D02*
X014144Y018601D01*
X014144Y018609D02*
X014214Y018609D01*
X014214Y018617D02*
X014144Y018617D01*
X014144Y018625D02*
X014214Y018625D01*
X014214Y018633D02*
X014144Y018633D01*
X014144Y018641D02*
X014214Y018641D01*
X014214Y018649D02*
X014144Y018649D01*
X014144Y018657D02*
X014214Y018657D01*
X014214Y018665D02*
X014144Y018665D01*
X014144Y018673D02*
X014214Y018673D01*
X014214Y018681D02*
X014144Y018681D01*
X014144Y018689D02*
X014214Y018689D01*
X016137Y018305D02*
X016207Y018305D01*
X016137Y018305D02*
X016137Y018691D01*
X016207Y018691D01*
X016207Y018305D01*
X016207Y018313D02*
X016137Y018313D01*
X016137Y018321D02*
X016207Y018321D01*
X016207Y018329D02*
X016137Y018329D01*
X016137Y018337D02*
X016207Y018337D01*
X016207Y018345D02*
X016137Y018345D01*
X016137Y018353D02*
X016207Y018353D01*
X016207Y018361D02*
X016137Y018361D01*
X016137Y018369D02*
X016207Y018369D01*
X016207Y018377D02*
X016137Y018377D01*
X016137Y018385D02*
X016207Y018385D01*
X016207Y018393D02*
X016137Y018393D01*
X016137Y018401D02*
X016207Y018401D01*
X016207Y018409D02*
X016137Y018409D01*
X016137Y018417D02*
X016207Y018417D01*
X016207Y018425D02*
X016137Y018425D01*
X016137Y018433D02*
X016207Y018433D01*
X016207Y018441D02*
X016137Y018441D01*
X016137Y018449D02*
X016207Y018449D01*
X016207Y018457D02*
X016137Y018457D01*
X016137Y018465D02*
X016207Y018465D01*
X016207Y018473D02*
X016137Y018473D01*
X016137Y018481D02*
X016207Y018481D01*
X016207Y018489D02*
X016137Y018489D01*
X016137Y018497D02*
X016207Y018497D01*
X016207Y018505D02*
X016137Y018505D01*
X016137Y018513D02*
X016207Y018513D01*
X016207Y018521D02*
X016137Y018521D01*
X016137Y018529D02*
X016207Y018529D01*
X016207Y018537D02*
X016137Y018537D01*
X016137Y018545D02*
X016207Y018545D01*
X016207Y018553D02*
X016137Y018553D01*
X016137Y018561D02*
X016207Y018561D01*
X016207Y018569D02*
X016137Y018569D01*
X016137Y018577D02*
X016207Y018577D01*
X016207Y018585D02*
X016137Y018585D01*
X016137Y018593D02*
X016207Y018593D01*
X016207Y018601D02*
X016137Y018601D01*
X016137Y018609D02*
X016207Y018609D01*
X016207Y018617D02*
X016137Y018617D01*
X016137Y018625D02*
X016207Y018625D01*
X016207Y018633D02*
X016137Y018633D01*
X016137Y018641D02*
X016207Y018641D01*
X016207Y018649D02*
X016137Y018649D01*
X016137Y018657D02*
X016207Y018657D01*
X016207Y018665D02*
X016137Y018665D01*
X016137Y018673D02*
X016207Y018673D01*
X016207Y018681D02*
X016137Y018681D01*
X016137Y018689D02*
X016207Y018689D01*
X016294Y018305D02*
X016364Y018305D01*
X016294Y018305D02*
X016294Y018691D01*
X016364Y018691D01*
X016364Y018305D01*
X016364Y018313D02*
X016294Y018313D01*
X016294Y018321D02*
X016364Y018321D01*
X016364Y018329D02*
X016294Y018329D01*
X016294Y018337D02*
X016364Y018337D01*
X016364Y018345D02*
X016294Y018345D01*
X016294Y018353D02*
X016364Y018353D01*
X016364Y018361D02*
X016294Y018361D01*
X016294Y018369D02*
X016364Y018369D01*
X016364Y018377D02*
X016294Y018377D01*
X016294Y018385D02*
X016364Y018385D01*
X016364Y018393D02*
X016294Y018393D01*
X016294Y018401D02*
X016364Y018401D01*
X016364Y018409D02*
X016294Y018409D01*
X016294Y018417D02*
X016364Y018417D01*
X016364Y018425D02*
X016294Y018425D01*
X016294Y018433D02*
X016364Y018433D01*
X016364Y018441D02*
X016294Y018441D01*
X016294Y018449D02*
X016364Y018449D01*
X016364Y018457D02*
X016294Y018457D01*
X016294Y018465D02*
X016364Y018465D01*
X016364Y018473D02*
X016294Y018473D01*
X016294Y018481D02*
X016364Y018481D01*
X016364Y018489D02*
X016294Y018489D01*
X016294Y018497D02*
X016364Y018497D01*
X016364Y018505D02*
X016294Y018505D01*
X016294Y018513D02*
X016364Y018513D01*
X016364Y018521D02*
X016294Y018521D01*
X016294Y018529D02*
X016364Y018529D01*
X016364Y018537D02*
X016294Y018537D01*
X016294Y018545D02*
X016364Y018545D01*
X016364Y018553D02*
X016294Y018553D01*
X016294Y018561D02*
X016364Y018561D01*
X016364Y018569D02*
X016294Y018569D01*
X016294Y018577D02*
X016364Y018577D01*
X016364Y018585D02*
X016294Y018585D01*
X016294Y018593D02*
X016364Y018593D01*
X016364Y018601D02*
X016294Y018601D01*
X016294Y018609D02*
X016364Y018609D01*
X016364Y018617D02*
X016294Y018617D01*
X016294Y018625D02*
X016364Y018625D01*
X016364Y018633D02*
X016294Y018633D01*
X016294Y018641D02*
X016364Y018641D01*
X016364Y018649D02*
X016294Y018649D01*
X016294Y018657D02*
X016364Y018657D01*
X016364Y018665D02*
X016294Y018665D01*
X016294Y018673D02*
X016364Y018673D01*
X016364Y018681D02*
X016294Y018681D01*
X016294Y018689D02*
X016364Y018689D01*
X018287Y018205D02*
X018357Y018205D01*
X018287Y018205D02*
X018287Y018591D01*
X018357Y018591D01*
X018357Y018205D01*
X018357Y018213D02*
X018287Y018213D01*
X018287Y018221D02*
X018357Y018221D01*
X018357Y018229D02*
X018287Y018229D01*
X018287Y018237D02*
X018357Y018237D01*
X018357Y018245D02*
X018287Y018245D01*
X018287Y018253D02*
X018357Y018253D01*
X018357Y018261D02*
X018287Y018261D01*
X018287Y018269D02*
X018357Y018269D01*
X018357Y018277D02*
X018287Y018277D01*
X018287Y018285D02*
X018357Y018285D01*
X018357Y018293D02*
X018287Y018293D01*
X018287Y018301D02*
X018357Y018301D01*
X018357Y018309D02*
X018287Y018309D01*
X018287Y018317D02*
X018357Y018317D01*
X018357Y018325D02*
X018287Y018325D01*
X018287Y018333D02*
X018357Y018333D01*
X018357Y018341D02*
X018287Y018341D01*
X018287Y018349D02*
X018357Y018349D01*
X018357Y018357D02*
X018287Y018357D01*
X018287Y018365D02*
X018357Y018365D01*
X018357Y018373D02*
X018287Y018373D01*
X018287Y018381D02*
X018357Y018381D01*
X018357Y018389D02*
X018287Y018389D01*
X018287Y018397D02*
X018357Y018397D01*
X018357Y018405D02*
X018287Y018405D01*
X018287Y018413D02*
X018357Y018413D01*
X018357Y018421D02*
X018287Y018421D01*
X018287Y018429D02*
X018357Y018429D01*
X018357Y018437D02*
X018287Y018437D01*
X018287Y018445D02*
X018357Y018445D01*
X018357Y018453D02*
X018287Y018453D01*
X018287Y018461D02*
X018357Y018461D01*
X018357Y018469D02*
X018287Y018469D01*
X018287Y018477D02*
X018357Y018477D01*
X018357Y018485D02*
X018287Y018485D01*
X018287Y018493D02*
X018357Y018493D01*
X018357Y018501D02*
X018287Y018501D01*
X018287Y018509D02*
X018357Y018509D01*
X018357Y018517D02*
X018287Y018517D01*
X018287Y018525D02*
X018357Y018525D01*
X018357Y018533D02*
X018287Y018533D01*
X018287Y018541D02*
X018357Y018541D01*
X018357Y018549D02*
X018287Y018549D01*
X018287Y018557D02*
X018357Y018557D01*
X018357Y018565D02*
X018287Y018565D01*
X018287Y018573D02*
X018357Y018573D01*
X018357Y018581D02*
X018287Y018581D01*
X018287Y018589D02*
X018357Y018589D01*
X018444Y018205D02*
X018514Y018205D01*
X018444Y018205D02*
X018444Y018591D01*
X018514Y018591D01*
X018514Y018205D01*
X018514Y018213D02*
X018444Y018213D01*
X018444Y018221D02*
X018514Y018221D01*
X018514Y018229D02*
X018444Y018229D01*
X018444Y018237D02*
X018514Y018237D01*
X018514Y018245D02*
X018444Y018245D01*
X018444Y018253D02*
X018514Y018253D01*
X018514Y018261D02*
X018444Y018261D01*
X018444Y018269D02*
X018514Y018269D01*
X018514Y018277D02*
X018444Y018277D01*
X018444Y018285D02*
X018514Y018285D01*
X018514Y018293D02*
X018444Y018293D01*
X018444Y018301D02*
X018514Y018301D01*
X018514Y018309D02*
X018444Y018309D01*
X018444Y018317D02*
X018514Y018317D01*
X018514Y018325D02*
X018444Y018325D01*
X018444Y018333D02*
X018514Y018333D01*
X018514Y018341D02*
X018444Y018341D01*
X018444Y018349D02*
X018514Y018349D01*
X018514Y018357D02*
X018444Y018357D01*
X018444Y018365D02*
X018514Y018365D01*
X018514Y018373D02*
X018444Y018373D01*
X018444Y018381D02*
X018514Y018381D01*
X018514Y018389D02*
X018444Y018389D01*
X018444Y018397D02*
X018514Y018397D01*
X018514Y018405D02*
X018444Y018405D01*
X018444Y018413D02*
X018514Y018413D01*
X018514Y018421D02*
X018444Y018421D01*
X018444Y018429D02*
X018514Y018429D01*
X018514Y018437D02*
X018444Y018437D01*
X018444Y018445D02*
X018514Y018445D01*
X018514Y018453D02*
X018444Y018453D01*
X018444Y018461D02*
X018514Y018461D01*
X018514Y018469D02*
X018444Y018469D01*
X018444Y018477D02*
X018514Y018477D01*
X018514Y018485D02*
X018444Y018485D01*
X018444Y018493D02*
X018514Y018493D01*
X018514Y018501D02*
X018444Y018501D01*
X018444Y018509D02*
X018514Y018509D01*
X018514Y018517D02*
X018444Y018517D01*
X018444Y018525D02*
X018514Y018525D01*
X018514Y018533D02*
X018444Y018533D01*
X018444Y018541D02*
X018514Y018541D01*
X018514Y018549D02*
X018444Y018549D01*
X018444Y018557D02*
X018514Y018557D01*
X018514Y018565D02*
X018444Y018565D01*
X018444Y018573D02*
X018514Y018573D01*
X018514Y018581D02*
X018444Y018581D01*
X018444Y018589D02*
X018514Y018589D01*
X020318Y015142D02*
X020318Y015072D01*
X020318Y015142D02*
X020704Y015142D01*
X020704Y015072D01*
X020318Y015072D01*
X020318Y015080D02*
X020704Y015080D01*
X020704Y015088D02*
X020318Y015088D01*
X020318Y015096D02*
X020704Y015096D01*
X020704Y015104D02*
X020318Y015104D01*
X020318Y015112D02*
X020704Y015112D01*
X020704Y015120D02*
X020318Y015120D01*
X020318Y015128D02*
X020704Y015128D01*
X020704Y015136D02*
X020318Y015136D01*
X020318Y014984D02*
X020318Y014914D01*
X020318Y014984D02*
X020704Y014984D01*
X020704Y014914D01*
X020318Y014914D01*
X020318Y014922D02*
X020704Y014922D01*
X020704Y014930D02*
X020318Y014930D01*
X020318Y014938D02*
X020704Y014938D01*
X020704Y014946D02*
X020318Y014946D01*
X020318Y014954D02*
X020704Y014954D01*
X020704Y014962D02*
X020318Y014962D01*
X020318Y014970D02*
X020704Y014970D01*
X020704Y014978D02*
X020318Y014978D01*
X020644Y012362D02*
X020644Y012292D01*
X020258Y012292D01*
X020258Y012362D01*
X020644Y012362D01*
X020644Y012300D02*
X020258Y012300D01*
X020258Y012308D02*
X020644Y012308D01*
X020644Y012316D02*
X020258Y012316D01*
X020258Y012324D02*
X020644Y012324D01*
X020644Y012332D02*
X020258Y012332D01*
X020258Y012340D02*
X020644Y012340D01*
X020644Y012348D02*
X020258Y012348D01*
X020258Y012356D02*
X020644Y012356D01*
X020644Y012204D02*
X020644Y012134D01*
X020258Y012134D01*
X020258Y012204D01*
X020644Y012204D01*
X020644Y012142D02*
X020258Y012142D01*
X020258Y012150D02*
X020644Y012150D01*
X020644Y012158D02*
X020258Y012158D01*
X020258Y012166D02*
X020644Y012166D01*
X020644Y012174D02*
X020258Y012174D01*
X020258Y012182D02*
X020644Y012182D01*
X020644Y012190D02*
X020258Y012190D01*
X020258Y012198D02*
X020644Y012198D01*
X018514Y008605D02*
X018444Y008605D01*
X018444Y008991D01*
X018514Y008991D01*
X018514Y008605D01*
X018514Y008613D02*
X018444Y008613D01*
X018444Y008621D02*
X018514Y008621D01*
X018514Y008629D02*
X018444Y008629D01*
X018444Y008637D02*
X018514Y008637D01*
X018514Y008645D02*
X018444Y008645D01*
X018444Y008653D02*
X018514Y008653D01*
X018514Y008661D02*
X018444Y008661D01*
X018444Y008669D02*
X018514Y008669D01*
X018514Y008677D02*
X018444Y008677D01*
X018444Y008685D02*
X018514Y008685D01*
X018514Y008693D02*
X018444Y008693D01*
X018444Y008701D02*
X018514Y008701D01*
X018514Y008709D02*
X018444Y008709D01*
X018444Y008717D02*
X018514Y008717D01*
X018514Y008725D02*
X018444Y008725D01*
X018444Y008733D02*
X018514Y008733D01*
X018514Y008741D02*
X018444Y008741D01*
X018444Y008749D02*
X018514Y008749D01*
X018514Y008757D02*
X018444Y008757D01*
X018444Y008765D02*
X018514Y008765D01*
X018514Y008773D02*
X018444Y008773D01*
X018444Y008781D02*
X018514Y008781D01*
X018514Y008789D02*
X018444Y008789D01*
X018444Y008797D02*
X018514Y008797D01*
X018514Y008805D02*
X018444Y008805D01*
X018444Y008813D02*
X018514Y008813D01*
X018514Y008821D02*
X018444Y008821D01*
X018444Y008829D02*
X018514Y008829D01*
X018514Y008837D02*
X018444Y008837D01*
X018444Y008845D02*
X018514Y008845D01*
X018514Y008853D02*
X018444Y008853D01*
X018444Y008861D02*
X018514Y008861D01*
X018514Y008869D02*
X018444Y008869D01*
X018444Y008877D02*
X018514Y008877D01*
X018514Y008885D02*
X018444Y008885D01*
X018444Y008893D02*
X018514Y008893D01*
X018514Y008901D02*
X018444Y008901D01*
X018444Y008909D02*
X018514Y008909D01*
X018514Y008917D02*
X018444Y008917D01*
X018444Y008925D02*
X018514Y008925D01*
X018514Y008933D02*
X018444Y008933D01*
X018444Y008941D02*
X018514Y008941D01*
X018514Y008949D02*
X018444Y008949D01*
X018444Y008957D02*
X018514Y008957D01*
X018514Y008965D02*
X018444Y008965D01*
X018444Y008973D02*
X018514Y008973D01*
X018514Y008981D02*
X018444Y008981D01*
X018444Y008989D02*
X018514Y008989D01*
X018357Y008605D02*
X018287Y008605D01*
X018287Y008991D01*
X018357Y008991D01*
X018357Y008605D01*
X018357Y008613D02*
X018287Y008613D01*
X018287Y008621D02*
X018357Y008621D01*
X018357Y008629D02*
X018287Y008629D01*
X018287Y008637D02*
X018357Y008637D01*
X018357Y008645D02*
X018287Y008645D01*
X018287Y008653D02*
X018357Y008653D01*
X018357Y008661D02*
X018287Y008661D01*
X018287Y008669D02*
X018357Y008669D01*
X018357Y008677D02*
X018287Y008677D01*
X018287Y008685D02*
X018357Y008685D01*
X018357Y008693D02*
X018287Y008693D01*
X018287Y008701D02*
X018357Y008701D01*
X018357Y008709D02*
X018287Y008709D01*
X018287Y008717D02*
X018357Y008717D01*
X018357Y008725D02*
X018287Y008725D01*
X018287Y008733D02*
X018357Y008733D01*
X018357Y008741D02*
X018287Y008741D01*
X018287Y008749D02*
X018357Y008749D01*
X018357Y008757D02*
X018287Y008757D01*
X018287Y008765D02*
X018357Y008765D01*
X018357Y008773D02*
X018287Y008773D01*
X018287Y008781D02*
X018357Y008781D01*
X018357Y008789D02*
X018287Y008789D01*
X018287Y008797D02*
X018357Y008797D01*
X018357Y008805D02*
X018287Y008805D01*
X018287Y008813D02*
X018357Y008813D01*
X018357Y008821D02*
X018287Y008821D01*
X018287Y008829D02*
X018357Y008829D01*
X018357Y008837D02*
X018287Y008837D01*
X018287Y008845D02*
X018357Y008845D01*
X018357Y008853D02*
X018287Y008853D01*
X018287Y008861D02*
X018357Y008861D01*
X018357Y008869D02*
X018287Y008869D01*
X018287Y008877D02*
X018357Y008877D01*
X018357Y008885D02*
X018287Y008885D01*
X018287Y008893D02*
X018357Y008893D01*
X018357Y008901D02*
X018287Y008901D01*
X018287Y008909D02*
X018357Y008909D01*
X018357Y008917D02*
X018287Y008917D01*
X018287Y008925D02*
X018357Y008925D01*
X018357Y008933D02*
X018287Y008933D01*
X018287Y008941D02*
X018357Y008941D01*
X018357Y008949D02*
X018287Y008949D01*
X018287Y008957D02*
X018357Y008957D01*
X018357Y008965D02*
X018287Y008965D01*
X018287Y008973D02*
X018357Y008973D01*
X018357Y008981D02*
X018287Y008981D01*
X018287Y008989D02*
X018357Y008989D01*
X016364Y008605D02*
X016294Y008605D01*
X016294Y008991D01*
X016364Y008991D01*
X016364Y008605D01*
X016364Y008613D02*
X016294Y008613D01*
X016294Y008621D02*
X016364Y008621D01*
X016364Y008629D02*
X016294Y008629D01*
X016294Y008637D02*
X016364Y008637D01*
X016364Y008645D02*
X016294Y008645D01*
X016294Y008653D02*
X016364Y008653D01*
X016364Y008661D02*
X016294Y008661D01*
X016294Y008669D02*
X016364Y008669D01*
X016364Y008677D02*
X016294Y008677D01*
X016294Y008685D02*
X016364Y008685D01*
X016364Y008693D02*
X016294Y008693D01*
X016294Y008701D02*
X016364Y008701D01*
X016364Y008709D02*
X016294Y008709D01*
X016294Y008717D02*
X016364Y008717D01*
X016364Y008725D02*
X016294Y008725D01*
X016294Y008733D02*
X016364Y008733D01*
X016364Y008741D02*
X016294Y008741D01*
X016294Y008749D02*
X016364Y008749D01*
X016364Y008757D02*
X016294Y008757D01*
X016294Y008765D02*
X016364Y008765D01*
X016364Y008773D02*
X016294Y008773D01*
X016294Y008781D02*
X016364Y008781D01*
X016364Y008789D02*
X016294Y008789D01*
X016294Y008797D02*
X016364Y008797D01*
X016364Y008805D02*
X016294Y008805D01*
X016294Y008813D02*
X016364Y008813D01*
X016364Y008821D02*
X016294Y008821D01*
X016294Y008829D02*
X016364Y008829D01*
X016364Y008837D02*
X016294Y008837D01*
X016294Y008845D02*
X016364Y008845D01*
X016364Y008853D02*
X016294Y008853D01*
X016294Y008861D02*
X016364Y008861D01*
X016364Y008869D02*
X016294Y008869D01*
X016294Y008877D02*
X016364Y008877D01*
X016364Y008885D02*
X016294Y008885D01*
X016294Y008893D02*
X016364Y008893D01*
X016364Y008901D02*
X016294Y008901D01*
X016294Y008909D02*
X016364Y008909D01*
X016364Y008917D02*
X016294Y008917D01*
X016294Y008925D02*
X016364Y008925D01*
X016364Y008933D02*
X016294Y008933D01*
X016294Y008941D02*
X016364Y008941D01*
X016364Y008949D02*
X016294Y008949D01*
X016294Y008957D02*
X016364Y008957D01*
X016364Y008965D02*
X016294Y008965D01*
X016294Y008973D02*
X016364Y008973D01*
X016364Y008981D02*
X016294Y008981D01*
X016294Y008989D02*
X016364Y008989D01*
X016207Y008605D02*
X016137Y008605D01*
X016137Y008991D01*
X016207Y008991D01*
X016207Y008605D01*
X016207Y008613D02*
X016137Y008613D01*
X016137Y008621D02*
X016207Y008621D01*
X016207Y008629D02*
X016137Y008629D01*
X016137Y008637D02*
X016207Y008637D01*
X016207Y008645D02*
X016137Y008645D01*
X016137Y008653D02*
X016207Y008653D01*
X016207Y008661D02*
X016137Y008661D01*
X016137Y008669D02*
X016207Y008669D01*
X016207Y008677D02*
X016137Y008677D01*
X016137Y008685D02*
X016207Y008685D01*
X016207Y008693D02*
X016137Y008693D01*
X016137Y008701D02*
X016207Y008701D01*
X016207Y008709D02*
X016137Y008709D01*
X016137Y008717D02*
X016207Y008717D01*
X016207Y008725D02*
X016137Y008725D01*
X016137Y008733D02*
X016207Y008733D01*
X016207Y008741D02*
X016137Y008741D01*
X016137Y008749D02*
X016207Y008749D01*
X016207Y008757D02*
X016137Y008757D01*
X016137Y008765D02*
X016207Y008765D01*
X016207Y008773D02*
X016137Y008773D01*
X016137Y008781D02*
X016207Y008781D01*
X016207Y008789D02*
X016137Y008789D01*
X016137Y008797D02*
X016207Y008797D01*
X016207Y008805D02*
X016137Y008805D01*
X016137Y008813D02*
X016207Y008813D01*
X016207Y008821D02*
X016137Y008821D01*
X016137Y008829D02*
X016207Y008829D01*
X016207Y008837D02*
X016137Y008837D01*
X016137Y008845D02*
X016207Y008845D01*
X016207Y008853D02*
X016137Y008853D01*
X016137Y008861D02*
X016207Y008861D01*
X016207Y008869D02*
X016137Y008869D01*
X016137Y008877D02*
X016207Y008877D01*
X016207Y008885D02*
X016137Y008885D01*
X016137Y008893D02*
X016207Y008893D01*
X016207Y008901D02*
X016137Y008901D01*
X016137Y008909D02*
X016207Y008909D01*
X016207Y008917D02*
X016137Y008917D01*
X016137Y008925D02*
X016207Y008925D01*
X016207Y008933D02*
X016137Y008933D01*
X016137Y008941D02*
X016207Y008941D01*
X016207Y008949D02*
X016137Y008949D01*
X016137Y008957D02*
X016207Y008957D01*
X016207Y008965D02*
X016137Y008965D01*
X016137Y008973D02*
X016207Y008973D01*
X016207Y008981D02*
X016137Y008981D01*
X016137Y008989D02*
X016207Y008989D01*
X014214Y008605D02*
X014144Y008605D01*
X014144Y008991D01*
X014214Y008991D01*
X014214Y008605D01*
X014214Y008613D02*
X014144Y008613D01*
X014144Y008621D02*
X014214Y008621D01*
X014214Y008629D02*
X014144Y008629D01*
X014144Y008637D02*
X014214Y008637D01*
X014214Y008645D02*
X014144Y008645D01*
X014144Y008653D02*
X014214Y008653D01*
X014214Y008661D02*
X014144Y008661D01*
X014144Y008669D02*
X014214Y008669D01*
X014214Y008677D02*
X014144Y008677D01*
X014144Y008685D02*
X014214Y008685D01*
X014214Y008693D02*
X014144Y008693D01*
X014144Y008701D02*
X014214Y008701D01*
X014214Y008709D02*
X014144Y008709D01*
X014144Y008717D02*
X014214Y008717D01*
X014214Y008725D02*
X014144Y008725D01*
X014144Y008733D02*
X014214Y008733D01*
X014214Y008741D02*
X014144Y008741D01*
X014144Y008749D02*
X014214Y008749D01*
X014214Y008757D02*
X014144Y008757D01*
X014144Y008765D02*
X014214Y008765D01*
X014214Y008773D02*
X014144Y008773D01*
X014144Y008781D02*
X014214Y008781D01*
X014214Y008789D02*
X014144Y008789D01*
X014144Y008797D02*
X014214Y008797D01*
X014214Y008805D02*
X014144Y008805D01*
X014144Y008813D02*
X014214Y008813D01*
X014214Y008821D02*
X014144Y008821D01*
X014144Y008829D02*
X014214Y008829D01*
X014214Y008837D02*
X014144Y008837D01*
X014144Y008845D02*
X014214Y008845D01*
X014214Y008853D02*
X014144Y008853D01*
X014144Y008861D02*
X014214Y008861D01*
X014214Y008869D02*
X014144Y008869D01*
X014144Y008877D02*
X014214Y008877D01*
X014214Y008885D02*
X014144Y008885D01*
X014144Y008893D02*
X014214Y008893D01*
X014214Y008901D02*
X014144Y008901D01*
X014144Y008909D02*
X014214Y008909D01*
X014214Y008917D02*
X014144Y008917D01*
X014144Y008925D02*
X014214Y008925D01*
X014214Y008933D02*
X014144Y008933D01*
X014144Y008941D02*
X014214Y008941D01*
X014214Y008949D02*
X014144Y008949D01*
X014144Y008957D02*
X014214Y008957D01*
X014214Y008965D02*
X014144Y008965D01*
X014144Y008973D02*
X014214Y008973D01*
X014214Y008981D02*
X014144Y008981D01*
X014144Y008989D02*
X014214Y008989D01*
X014057Y008605D02*
X013987Y008605D01*
X013987Y008991D01*
X014057Y008991D01*
X014057Y008605D01*
X014057Y008613D02*
X013987Y008613D01*
X013987Y008621D02*
X014057Y008621D01*
X014057Y008629D02*
X013987Y008629D01*
X013987Y008637D02*
X014057Y008637D01*
X014057Y008645D02*
X013987Y008645D01*
X013987Y008653D02*
X014057Y008653D01*
X014057Y008661D02*
X013987Y008661D01*
X013987Y008669D02*
X014057Y008669D01*
X014057Y008677D02*
X013987Y008677D01*
X013987Y008685D02*
X014057Y008685D01*
X014057Y008693D02*
X013987Y008693D01*
X013987Y008701D02*
X014057Y008701D01*
X014057Y008709D02*
X013987Y008709D01*
X013987Y008717D02*
X014057Y008717D01*
X014057Y008725D02*
X013987Y008725D01*
X013987Y008733D02*
X014057Y008733D01*
X014057Y008741D02*
X013987Y008741D01*
X013987Y008749D02*
X014057Y008749D01*
X014057Y008757D02*
X013987Y008757D01*
X013987Y008765D02*
X014057Y008765D01*
X014057Y008773D02*
X013987Y008773D01*
X013987Y008781D02*
X014057Y008781D01*
X014057Y008789D02*
X013987Y008789D01*
X013987Y008797D02*
X014057Y008797D01*
X014057Y008805D02*
X013987Y008805D01*
X013987Y008813D02*
X014057Y008813D01*
X014057Y008821D02*
X013987Y008821D01*
X013987Y008829D02*
X014057Y008829D01*
X014057Y008837D02*
X013987Y008837D01*
X013987Y008845D02*
X014057Y008845D01*
X014057Y008853D02*
X013987Y008853D01*
X013987Y008861D02*
X014057Y008861D01*
X014057Y008869D02*
X013987Y008869D01*
X013987Y008877D02*
X014057Y008877D01*
X014057Y008885D02*
X013987Y008885D01*
X013987Y008893D02*
X014057Y008893D01*
X014057Y008901D02*
X013987Y008901D01*
X013987Y008909D02*
X014057Y008909D01*
X014057Y008917D02*
X013987Y008917D01*
X013987Y008925D02*
X014057Y008925D01*
X014057Y008933D02*
X013987Y008933D01*
X013987Y008941D02*
X014057Y008941D01*
X014057Y008949D02*
X013987Y008949D01*
X013987Y008957D02*
X014057Y008957D01*
X014057Y008965D02*
X013987Y008965D01*
X013987Y008973D02*
X014057Y008973D01*
X014057Y008981D02*
X013987Y008981D01*
X013987Y008989D02*
X014057Y008989D01*
X012614Y008605D02*
X012544Y008605D01*
X012544Y008991D01*
X012614Y008991D01*
X012614Y008605D01*
X012614Y008613D02*
X012544Y008613D01*
X012544Y008621D02*
X012614Y008621D01*
X012614Y008629D02*
X012544Y008629D01*
X012544Y008637D02*
X012614Y008637D01*
X012614Y008645D02*
X012544Y008645D01*
X012544Y008653D02*
X012614Y008653D01*
X012614Y008661D02*
X012544Y008661D01*
X012544Y008669D02*
X012614Y008669D01*
X012614Y008677D02*
X012544Y008677D01*
X012544Y008685D02*
X012614Y008685D01*
X012614Y008693D02*
X012544Y008693D01*
X012544Y008701D02*
X012614Y008701D01*
X012614Y008709D02*
X012544Y008709D01*
X012544Y008717D02*
X012614Y008717D01*
X012614Y008725D02*
X012544Y008725D01*
X012544Y008733D02*
X012614Y008733D01*
X012614Y008741D02*
X012544Y008741D01*
X012544Y008749D02*
X012614Y008749D01*
X012614Y008757D02*
X012544Y008757D01*
X012544Y008765D02*
X012614Y008765D01*
X012614Y008773D02*
X012544Y008773D01*
X012544Y008781D02*
X012614Y008781D01*
X012614Y008789D02*
X012544Y008789D01*
X012544Y008797D02*
X012614Y008797D01*
X012614Y008805D02*
X012544Y008805D01*
X012544Y008813D02*
X012614Y008813D01*
X012614Y008821D02*
X012544Y008821D01*
X012544Y008829D02*
X012614Y008829D01*
X012614Y008837D02*
X012544Y008837D01*
X012544Y008845D02*
X012614Y008845D01*
X012614Y008853D02*
X012544Y008853D01*
X012544Y008861D02*
X012614Y008861D01*
X012614Y008869D02*
X012544Y008869D01*
X012544Y008877D02*
X012614Y008877D01*
X012614Y008885D02*
X012544Y008885D01*
X012544Y008893D02*
X012614Y008893D01*
X012614Y008901D02*
X012544Y008901D01*
X012544Y008909D02*
X012614Y008909D01*
X012614Y008917D02*
X012544Y008917D01*
X012544Y008925D02*
X012614Y008925D01*
X012614Y008933D02*
X012544Y008933D01*
X012544Y008941D02*
X012614Y008941D01*
X012614Y008949D02*
X012544Y008949D01*
X012544Y008957D02*
X012614Y008957D01*
X012614Y008965D02*
X012544Y008965D01*
X012544Y008973D02*
X012614Y008973D01*
X012614Y008981D02*
X012544Y008981D01*
X012544Y008989D02*
X012614Y008989D01*
X012457Y008605D02*
X012387Y008605D01*
X012387Y008991D01*
X012457Y008991D01*
X012457Y008605D01*
X012457Y008613D02*
X012387Y008613D01*
X012387Y008621D02*
X012457Y008621D01*
X012457Y008629D02*
X012387Y008629D01*
X012387Y008637D02*
X012457Y008637D01*
X012457Y008645D02*
X012387Y008645D01*
X012387Y008653D02*
X012457Y008653D01*
X012457Y008661D02*
X012387Y008661D01*
X012387Y008669D02*
X012457Y008669D01*
X012457Y008677D02*
X012387Y008677D01*
X012387Y008685D02*
X012457Y008685D01*
X012457Y008693D02*
X012387Y008693D01*
X012387Y008701D02*
X012457Y008701D01*
X012457Y008709D02*
X012387Y008709D01*
X012387Y008717D02*
X012457Y008717D01*
X012457Y008725D02*
X012387Y008725D01*
X012387Y008733D02*
X012457Y008733D01*
X012457Y008741D02*
X012387Y008741D01*
X012387Y008749D02*
X012457Y008749D01*
X012457Y008757D02*
X012387Y008757D01*
X012387Y008765D02*
X012457Y008765D01*
X012457Y008773D02*
X012387Y008773D01*
X012387Y008781D02*
X012457Y008781D01*
X012457Y008789D02*
X012387Y008789D01*
X012387Y008797D02*
X012457Y008797D01*
X012457Y008805D02*
X012387Y008805D01*
X012387Y008813D02*
X012457Y008813D01*
X012457Y008821D02*
X012387Y008821D01*
X012387Y008829D02*
X012457Y008829D01*
X012457Y008837D02*
X012387Y008837D01*
X012387Y008845D02*
X012457Y008845D01*
X012457Y008853D02*
X012387Y008853D01*
X012387Y008861D02*
X012457Y008861D01*
X012457Y008869D02*
X012387Y008869D01*
X012387Y008877D02*
X012457Y008877D01*
X012457Y008885D02*
X012387Y008885D01*
X012387Y008893D02*
X012457Y008893D01*
X012457Y008901D02*
X012387Y008901D01*
X012387Y008909D02*
X012457Y008909D01*
X012457Y008917D02*
X012387Y008917D01*
X012387Y008925D02*
X012457Y008925D01*
X012457Y008933D02*
X012387Y008933D01*
X012387Y008941D02*
X012457Y008941D01*
X012457Y008949D02*
X012387Y008949D01*
X012387Y008957D02*
X012457Y008957D01*
X012457Y008965D02*
X012387Y008965D01*
X012387Y008973D02*
X012457Y008973D01*
X012457Y008981D02*
X012387Y008981D01*
X012387Y008989D02*
X012457Y008989D01*
X010594Y008012D02*
X010594Y007942D01*
X010208Y007942D01*
X010208Y008012D01*
X010594Y008012D01*
X010594Y007950D02*
X010208Y007950D01*
X010208Y007958D02*
X010594Y007958D01*
X010594Y007966D02*
X010208Y007966D01*
X010208Y007974D02*
X010594Y007974D01*
X010594Y007982D02*
X010208Y007982D01*
X010208Y007990D02*
X010594Y007990D01*
X010594Y007998D02*
X010208Y007998D01*
X010208Y008006D02*
X010594Y008006D01*
X010594Y007854D02*
X010594Y007784D01*
X010208Y007784D01*
X010208Y007854D01*
X010594Y007854D01*
X010594Y007792D02*
X010208Y007792D01*
X010208Y007800D02*
X010594Y007800D01*
X010594Y007808D02*
X010208Y007808D01*
X010208Y007816D02*
X010594Y007816D01*
X010594Y007824D02*
X010208Y007824D01*
X010208Y007832D02*
X010594Y007832D01*
X010594Y007840D02*
X010208Y007840D01*
X010208Y007848D02*
X010594Y007848D01*
X012487Y005605D02*
X012557Y005605D01*
X012487Y005605D02*
X012487Y005991D01*
X012557Y005991D01*
X012557Y005605D01*
X012557Y005613D02*
X012487Y005613D01*
X012487Y005621D02*
X012557Y005621D01*
X012557Y005629D02*
X012487Y005629D01*
X012487Y005637D02*
X012557Y005637D01*
X012557Y005645D02*
X012487Y005645D01*
X012487Y005653D02*
X012557Y005653D01*
X012557Y005661D02*
X012487Y005661D01*
X012487Y005669D02*
X012557Y005669D01*
X012557Y005677D02*
X012487Y005677D01*
X012487Y005685D02*
X012557Y005685D01*
X012557Y005693D02*
X012487Y005693D01*
X012487Y005701D02*
X012557Y005701D01*
X012557Y005709D02*
X012487Y005709D01*
X012487Y005717D02*
X012557Y005717D01*
X012557Y005725D02*
X012487Y005725D01*
X012487Y005733D02*
X012557Y005733D01*
X012557Y005741D02*
X012487Y005741D01*
X012487Y005749D02*
X012557Y005749D01*
X012557Y005757D02*
X012487Y005757D01*
X012487Y005765D02*
X012557Y005765D01*
X012557Y005773D02*
X012487Y005773D01*
X012487Y005781D02*
X012557Y005781D01*
X012557Y005789D02*
X012487Y005789D01*
X012487Y005797D02*
X012557Y005797D01*
X012557Y005805D02*
X012487Y005805D01*
X012487Y005813D02*
X012557Y005813D01*
X012557Y005821D02*
X012487Y005821D01*
X012487Y005829D02*
X012557Y005829D01*
X012557Y005837D02*
X012487Y005837D01*
X012487Y005845D02*
X012557Y005845D01*
X012557Y005853D02*
X012487Y005853D01*
X012487Y005861D02*
X012557Y005861D01*
X012557Y005869D02*
X012487Y005869D01*
X012487Y005877D02*
X012557Y005877D01*
X012557Y005885D02*
X012487Y005885D01*
X012487Y005893D02*
X012557Y005893D01*
X012557Y005901D02*
X012487Y005901D01*
X012487Y005909D02*
X012557Y005909D01*
X012557Y005917D02*
X012487Y005917D01*
X012487Y005925D02*
X012557Y005925D01*
X012557Y005933D02*
X012487Y005933D01*
X012487Y005941D02*
X012557Y005941D01*
X012557Y005949D02*
X012487Y005949D01*
X012487Y005957D02*
X012557Y005957D01*
X012557Y005965D02*
X012487Y005965D01*
X012487Y005973D02*
X012557Y005973D01*
X012557Y005981D02*
X012487Y005981D01*
X012487Y005989D02*
X012557Y005989D01*
X012644Y005605D02*
X012714Y005605D01*
X012644Y005605D02*
X012644Y005991D01*
X012714Y005991D01*
X012714Y005605D01*
X012714Y005613D02*
X012644Y005613D01*
X012644Y005621D02*
X012714Y005621D01*
X012714Y005629D02*
X012644Y005629D01*
X012644Y005637D02*
X012714Y005637D01*
X012714Y005645D02*
X012644Y005645D01*
X012644Y005653D02*
X012714Y005653D01*
X012714Y005661D02*
X012644Y005661D01*
X012644Y005669D02*
X012714Y005669D01*
X012714Y005677D02*
X012644Y005677D01*
X012644Y005685D02*
X012714Y005685D01*
X012714Y005693D02*
X012644Y005693D01*
X012644Y005701D02*
X012714Y005701D01*
X012714Y005709D02*
X012644Y005709D01*
X012644Y005717D02*
X012714Y005717D01*
X012714Y005725D02*
X012644Y005725D01*
X012644Y005733D02*
X012714Y005733D01*
X012714Y005741D02*
X012644Y005741D01*
X012644Y005749D02*
X012714Y005749D01*
X012714Y005757D02*
X012644Y005757D01*
X012644Y005765D02*
X012714Y005765D01*
X012714Y005773D02*
X012644Y005773D01*
X012644Y005781D02*
X012714Y005781D01*
X012714Y005789D02*
X012644Y005789D01*
X012644Y005797D02*
X012714Y005797D01*
X012714Y005805D02*
X012644Y005805D01*
X012644Y005813D02*
X012714Y005813D01*
X012714Y005821D02*
X012644Y005821D01*
X012644Y005829D02*
X012714Y005829D01*
X012714Y005837D02*
X012644Y005837D01*
X012644Y005845D02*
X012714Y005845D01*
X012714Y005853D02*
X012644Y005853D01*
X012644Y005861D02*
X012714Y005861D01*
X012714Y005869D02*
X012644Y005869D01*
X012644Y005877D02*
X012714Y005877D01*
X012714Y005885D02*
X012644Y005885D01*
X012644Y005893D02*
X012714Y005893D01*
X012714Y005901D02*
X012644Y005901D01*
X012644Y005909D02*
X012714Y005909D01*
X012714Y005917D02*
X012644Y005917D01*
X012644Y005925D02*
X012714Y005925D01*
X012714Y005933D02*
X012644Y005933D01*
X012644Y005941D02*
X012714Y005941D01*
X012714Y005949D02*
X012644Y005949D01*
X012644Y005957D02*
X012714Y005957D01*
X012714Y005965D02*
X012644Y005965D01*
X012644Y005973D02*
X012714Y005973D01*
X012714Y005981D02*
X012644Y005981D01*
X012644Y005989D02*
X012714Y005989D01*
X008964Y004255D02*
X008894Y004255D01*
X008894Y004641D01*
X008964Y004641D01*
X008964Y004255D01*
X008964Y004263D02*
X008894Y004263D01*
X008894Y004271D02*
X008964Y004271D01*
X008964Y004279D02*
X008894Y004279D01*
X008894Y004287D02*
X008964Y004287D01*
X008964Y004295D02*
X008894Y004295D01*
X008894Y004303D02*
X008964Y004303D01*
X008964Y004311D02*
X008894Y004311D01*
X008894Y004319D02*
X008964Y004319D01*
X008964Y004327D02*
X008894Y004327D01*
X008894Y004335D02*
X008964Y004335D01*
X008964Y004343D02*
X008894Y004343D01*
X008894Y004351D02*
X008964Y004351D01*
X008964Y004359D02*
X008894Y004359D01*
X008894Y004367D02*
X008964Y004367D01*
X008964Y004375D02*
X008894Y004375D01*
X008894Y004383D02*
X008964Y004383D01*
X008964Y004391D02*
X008894Y004391D01*
X008894Y004399D02*
X008964Y004399D01*
X008964Y004407D02*
X008894Y004407D01*
X008894Y004415D02*
X008964Y004415D01*
X008964Y004423D02*
X008894Y004423D01*
X008894Y004431D02*
X008964Y004431D01*
X008964Y004439D02*
X008894Y004439D01*
X008894Y004447D02*
X008964Y004447D01*
X008964Y004455D02*
X008894Y004455D01*
X008894Y004463D02*
X008964Y004463D01*
X008964Y004471D02*
X008894Y004471D01*
X008894Y004479D02*
X008964Y004479D01*
X008964Y004487D02*
X008894Y004487D01*
X008894Y004495D02*
X008964Y004495D01*
X008964Y004503D02*
X008894Y004503D01*
X008894Y004511D02*
X008964Y004511D01*
X008964Y004519D02*
X008894Y004519D01*
X008894Y004527D02*
X008964Y004527D01*
X008964Y004535D02*
X008894Y004535D01*
X008894Y004543D02*
X008964Y004543D01*
X008964Y004551D02*
X008894Y004551D01*
X008894Y004559D02*
X008964Y004559D01*
X008964Y004567D02*
X008894Y004567D01*
X008894Y004575D02*
X008964Y004575D01*
X008964Y004583D02*
X008894Y004583D01*
X008894Y004591D02*
X008964Y004591D01*
X008964Y004599D02*
X008894Y004599D01*
X008894Y004607D02*
X008964Y004607D01*
X008964Y004615D02*
X008894Y004615D01*
X008894Y004623D02*
X008964Y004623D01*
X008964Y004631D02*
X008894Y004631D01*
X008894Y004639D02*
X008964Y004639D01*
X008807Y004255D02*
X008737Y004255D01*
X008737Y004641D01*
X008807Y004641D01*
X008807Y004255D01*
X008807Y004263D02*
X008737Y004263D01*
X008737Y004271D02*
X008807Y004271D01*
X008807Y004279D02*
X008737Y004279D01*
X008737Y004287D02*
X008807Y004287D01*
X008807Y004295D02*
X008737Y004295D01*
X008737Y004303D02*
X008807Y004303D01*
X008807Y004311D02*
X008737Y004311D01*
X008737Y004319D02*
X008807Y004319D01*
X008807Y004327D02*
X008737Y004327D01*
X008737Y004335D02*
X008807Y004335D01*
X008807Y004343D02*
X008737Y004343D01*
X008737Y004351D02*
X008807Y004351D01*
X008807Y004359D02*
X008737Y004359D01*
X008737Y004367D02*
X008807Y004367D01*
X008807Y004375D02*
X008737Y004375D01*
X008737Y004383D02*
X008807Y004383D01*
X008807Y004391D02*
X008737Y004391D01*
X008737Y004399D02*
X008807Y004399D01*
X008807Y004407D02*
X008737Y004407D01*
X008737Y004415D02*
X008807Y004415D01*
X008807Y004423D02*
X008737Y004423D01*
X008737Y004431D02*
X008807Y004431D01*
X008807Y004439D02*
X008737Y004439D01*
X008737Y004447D02*
X008807Y004447D01*
X008807Y004455D02*
X008737Y004455D01*
X008737Y004463D02*
X008807Y004463D01*
X008807Y004471D02*
X008737Y004471D01*
X008737Y004479D02*
X008807Y004479D01*
X008807Y004487D02*
X008737Y004487D01*
X008737Y004495D02*
X008807Y004495D01*
X008807Y004503D02*
X008737Y004503D01*
X008737Y004511D02*
X008807Y004511D01*
X008807Y004519D02*
X008737Y004519D01*
X008737Y004527D02*
X008807Y004527D01*
X008807Y004535D02*
X008737Y004535D01*
X008737Y004543D02*
X008807Y004543D01*
X008807Y004551D02*
X008737Y004551D01*
X008737Y004559D02*
X008807Y004559D01*
X008807Y004567D02*
X008737Y004567D01*
X008737Y004575D02*
X008807Y004575D01*
X008807Y004583D02*
X008737Y004583D01*
X008737Y004591D02*
X008807Y004591D01*
X008807Y004599D02*
X008737Y004599D01*
X008737Y004607D02*
X008807Y004607D01*
X008807Y004615D02*
X008737Y004615D01*
X008737Y004623D02*
X008807Y004623D01*
X008807Y004631D02*
X008737Y004631D01*
X008737Y004639D02*
X008807Y004639D01*
X025987Y009091D02*
X026057Y009091D01*
X026057Y008705D01*
X025987Y008705D01*
X025987Y009091D01*
X025987Y008713D02*
X026057Y008713D01*
X026057Y008721D02*
X025987Y008721D01*
X025987Y008729D02*
X026057Y008729D01*
X026057Y008737D02*
X025987Y008737D01*
X025987Y008745D02*
X026057Y008745D01*
X026057Y008753D02*
X025987Y008753D01*
X025987Y008761D02*
X026057Y008761D01*
X026057Y008769D02*
X025987Y008769D01*
X025987Y008777D02*
X026057Y008777D01*
X026057Y008785D02*
X025987Y008785D01*
X025987Y008793D02*
X026057Y008793D01*
X026057Y008801D02*
X025987Y008801D01*
X025987Y008809D02*
X026057Y008809D01*
X026057Y008817D02*
X025987Y008817D01*
X025987Y008825D02*
X026057Y008825D01*
X026057Y008833D02*
X025987Y008833D01*
X025987Y008841D02*
X026057Y008841D01*
X026057Y008849D02*
X025987Y008849D01*
X025987Y008857D02*
X026057Y008857D01*
X026057Y008865D02*
X025987Y008865D01*
X025987Y008873D02*
X026057Y008873D01*
X026057Y008881D02*
X025987Y008881D01*
X025987Y008889D02*
X026057Y008889D01*
X026057Y008897D02*
X025987Y008897D01*
X025987Y008905D02*
X026057Y008905D01*
X026057Y008913D02*
X025987Y008913D01*
X025987Y008921D02*
X026057Y008921D01*
X026057Y008929D02*
X025987Y008929D01*
X025987Y008937D02*
X026057Y008937D01*
X026057Y008945D02*
X025987Y008945D01*
X025987Y008953D02*
X026057Y008953D01*
X026057Y008961D02*
X025987Y008961D01*
X025987Y008969D02*
X026057Y008969D01*
X026057Y008977D02*
X025987Y008977D01*
X025987Y008985D02*
X026057Y008985D01*
X026057Y008993D02*
X025987Y008993D01*
X025987Y009001D02*
X026057Y009001D01*
X026057Y009009D02*
X025987Y009009D01*
X025987Y009017D02*
X026057Y009017D01*
X026057Y009025D02*
X025987Y009025D01*
X025987Y009033D02*
X026057Y009033D01*
X026057Y009041D02*
X025987Y009041D01*
X025987Y009049D02*
X026057Y009049D01*
X026057Y009057D02*
X025987Y009057D01*
X025987Y009065D02*
X026057Y009065D01*
X026057Y009073D02*
X025987Y009073D01*
X025987Y009081D02*
X026057Y009081D01*
X026057Y009089D02*
X025987Y009089D01*
X026144Y009091D02*
X026214Y009091D01*
X026214Y008705D01*
X026144Y008705D01*
X026144Y009091D01*
X026144Y008713D02*
X026214Y008713D01*
X026214Y008721D02*
X026144Y008721D01*
X026144Y008729D02*
X026214Y008729D01*
X026214Y008737D02*
X026144Y008737D01*
X026144Y008745D02*
X026214Y008745D01*
X026214Y008753D02*
X026144Y008753D01*
X026144Y008761D02*
X026214Y008761D01*
X026214Y008769D02*
X026144Y008769D01*
X026144Y008777D02*
X026214Y008777D01*
X026214Y008785D02*
X026144Y008785D01*
X026144Y008793D02*
X026214Y008793D01*
X026214Y008801D02*
X026144Y008801D01*
X026144Y008809D02*
X026214Y008809D01*
X026214Y008817D02*
X026144Y008817D01*
X026144Y008825D02*
X026214Y008825D01*
X026214Y008833D02*
X026144Y008833D01*
X026144Y008841D02*
X026214Y008841D01*
X026214Y008849D02*
X026144Y008849D01*
X026144Y008857D02*
X026214Y008857D01*
X026214Y008865D02*
X026144Y008865D01*
X026144Y008873D02*
X026214Y008873D01*
X026214Y008881D02*
X026144Y008881D01*
X026144Y008889D02*
X026214Y008889D01*
X026214Y008897D02*
X026144Y008897D01*
X026144Y008905D02*
X026214Y008905D01*
X026214Y008913D02*
X026144Y008913D01*
X026144Y008921D02*
X026214Y008921D01*
X026214Y008929D02*
X026144Y008929D01*
X026144Y008937D02*
X026214Y008937D01*
X026214Y008945D02*
X026144Y008945D01*
X026144Y008953D02*
X026214Y008953D01*
X026214Y008961D02*
X026144Y008961D01*
X026144Y008969D02*
X026214Y008969D01*
X026214Y008977D02*
X026144Y008977D01*
X026144Y008985D02*
X026214Y008985D01*
X026214Y008993D02*
X026144Y008993D01*
X026144Y009001D02*
X026214Y009001D01*
X026214Y009009D02*
X026144Y009009D01*
X026144Y009017D02*
X026214Y009017D01*
X026214Y009025D02*
X026144Y009025D01*
X026144Y009033D02*
X026214Y009033D01*
X026214Y009041D02*
X026144Y009041D01*
X026144Y009049D02*
X026214Y009049D01*
X026214Y009057D02*
X026144Y009057D01*
X026144Y009065D02*
X026214Y009065D01*
X026214Y009073D02*
X026144Y009073D01*
X026144Y009081D02*
X026214Y009081D01*
X026214Y009089D02*
X026144Y009089D01*
X038844Y014334D02*
X038844Y014404D01*
X038844Y014334D02*
X038458Y014334D01*
X038458Y014404D01*
X038844Y014404D01*
X038844Y014342D02*
X038458Y014342D01*
X038458Y014350D02*
X038844Y014350D01*
X038844Y014358D02*
X038458Y014358D01*
X038458Y014366D02*
X038844Y014366D01*
X038844Y014374D02*
X038458Y014374D01*
X038458Y014382D02*
X038844Y014382D01*
X038844Y014390D02*
X038458Y014390D01*
X038458Y014398D02*
X038844Y014398D01*
X038844Y014492D02*
X038844Y014562D01*
X038844Y014492D02*
X038458Y014492D01*
X038458Y014562D01*
X038844Y014562D01*
X038844Y014500D02*
X038458Y014500D01*
X038458Y014508D02*
X038844Y014508D01*
X038844Y014516D02*
X038458Y014516D01*
X038458Y014524D02*
X038844Y014524D01*
X038844Y014532D02*
X038458Y014532D01*
X038458Y014540D02*
X038844Y014540D01*
X038844Y014548D02*
X038458Y014548D01*
X038458Y014556D02*
X038844Y014556D01*
X043844Y017834D02*
X043844Y017904D01*
X043844Y017834D02*
X043458Y017834D01*
X043458Y017904D01*
X043844Y017904D01*
X043844Y017842D02*
X043458Y017842D01*
X043458Y017850D02*
X043844Y017850D01*
X043844Y017858D02*
X043458Y017858D01*
X043458Y017866D02*
X043844Y017866D01*
X043844Y017874D02*
X043458Y017874D01*
X043458Y017882D02*
X043844Y017882D01*
X043844Y017890D02*
X043458Y017890D01*
X043458Y017898D02*
X043844Y017898D01*
X043844Y017992D02*
X043844Y018062D01*
X043844Y017992D02*
X043458Y017992D01*
X043458Y018062D01*
X043844Y018062D01*
X043844Y018000D02*
X043458Y018000D01*
X043458Y018008D02*
X043844Y018008D01*
X043844Y018016D02*
X043458Y018016D01*
X043458Y018024D02*
X043844Y018024D01*
X043844Y018032D02*
X043458Y018032D01*
X043458Y018040D02*
X043844Y018040D01*
X043844Y018048D02*
X043458Y018048D01*
X043458Y018056D02*
X043844Y018056D01*
X043807Y018855D02*
X043737Y018855D01*
X043737Y019241D01*
X043807Y019241D01*
X043807Y018855D01*
X043807Y018863D02*
X043737Y018863D01*
X043737Y018871D02*
X043807Y018871D01*
X043807Y018879D02*
X043737Y018879D01*
X043737Y018887D02*
X043807Y018887D01*
X043807Y018895D02*
X043737Y018895D01*
X043737Y018903D02*
X043807Y018903D01*
X043807Y018911D02*
X043737Y018911D01*
X043737Y018919D02*
X043807Y018919D01*
X043807Y018927D02*
X043737Y018927D01*
X043737Y018935D02*
X043807Y018935D01*
X043807Y018943D02*
X043737Y018943D01*
X043737Y018951D02*
X043807Y018951D01*
X043807Y018959D02*
X043737Y018959D01*
X043737Y018967D02*
X043807Y018967D01*
X043807Y018975D02*
X043737Y018975D01*
X043737Y018983D02*
X043807Y018983D01*
X043807Y018991D02*
X043737Y018991D01*
X043737Y018999D02*
X043807Y018999D01*
X043807Y019007D02*
X043737Y019007D01*
X043737Y019015D02*
X043807Y019015D01*
X043807Y019023D02*
X043737Y019023D01*
X043737Y019031D02*
X043807Y019031D01*
X043807Y019039D02*
X043737Y019039D01*
X043737Y019047D02*
X043807Y019047D01*
X043807Y019055D02*
X043737Y019055D01*
X043737Y019063D02*
X043807Y019063D01*
X043807Y019071D02*
X043737Y019071D01*
X043737Y019079D02*
X043807Y019079D01*
X043807Y019087D02*
X043737Y019087D01*
X043737Y019095D02*
X043807Y019095D01*
X043807Y019103D02*
X043737Y019103D01*
X043737Y019111D02*
X043807Y019111D01*
X043807Y019119D02*
X043737Y019119D01*
X043737Y019127D02*
X043807Y019127D01*
X043807Y019135D02*
X043737Y019135D01*
X043737Y019143D02*
X043807Y019143D01*
X043807Y019151D02*
X043737Y019151D01*
X043737Y019159D02*
X043807Y019159D01*
X043807Y019167D02*
X043737Y019167D01*
X043737Y019175D02*
X043807Y019175D01*
X043807Y019183D02*
X043737Y019183D01*
X043737Y019191D02*
X043807Y019191D01*
X043807Y019199D02*
X043737Y019199D01*
X043737Y019207D02*
X043807Y019207D01*
X043807Y019215D02*
X043737Y019215D01*
X043737Y019223D02*
X043807Y019223D01*
X043807Y019231D02*
X043737Y019231D01*
X043737Y019239D02*
X043807Y019239D01*
X043894Y018855D02*
X043964Y018855D01*
X043894Y018855D02*
X043894Y019241D01*
X043964Y019241D01*
X043964Y018855D01*
X043964Y018863D02*
X043894Y018863D01*
X043894Y018871D02*
X043964Y018871D01*
X043964Y018879D02*
X043894Y018879D01*
X043894Y018887D02*
X043964Y018887D01*
X043964Y018895D02*
X043894Y018895D01*
X043894Y018903D02*
X043964Y018903D01*
X043964Y018911D02*
X043894Y018911D01*
X043894Y018919D02*
X043964Y018919D01*
X043964Y018927D02*
X043894Y018927D01*
X043894Y018935D02*
X043964Y018935D01*
X043964Y018943D02*
X043894Y018943D01*
X043894Y018951D02*
X043964Y018951D01*
X043964Y018959D02*
X043894Y018959D01*
X043894Y018967D02*
X043964Y018967D01*
X043964Y018975D02*
X043894Y018975D01*
X043894Y018983D02*
X043964Y018983D01*
X043964Y018991D02*
X043894Y018991D01*
X043894Y018999D02*
X043964Y018999D01*
X043964Y019007D02*
X043894Y019007D01*
X043894Y019015D02*
X043964Y019015D01*
X043964Y019023D02*
X043894Y019023D01*
X043894Y019031D02*
X043964Y019031D01*
X043964Y019039D02*
X043894Y019039D01*
X043894Y019047D02*
X043964Y019047D01*
X043964Y019055D02*
X043894Y019055D01*
X043894Y019063D02*
X043964Y019063D01*
X043964Y019071D02*
X043894Y019071D01*
X043894Y019079D02*
X043964Y019079D01*
X043964Y019087D02*
X043894Y019087D01*
X043894Y019095D02*
X043964Y019095D01*
X043964Y019103D02*
X043894Y019103D01*
X043894Y019111D02*
X043964Y019111D01*
X043964Y019119D02*
X043894Y019119D01*
X043894Y019127D02*
X043964Y019127D01*
X043964Y019135D02*
X043894Y019135D01*
X043894Y019143D02*
X043964Y019143D01*
X043964Y019151D02*
X043894Y019151D01*
X043894Y019159D02*
X043964Y019159D01*
X043964Y019167D02*
X043894Y019167D01*
X043894Y019175D02*
X043964Y019175D01*
X043964Y019183D02*
X043894Y019183D01*
X043894Y019191D02*
X043964Y019191D01*
X043964Y019199D02*
X043894Y019199D01*
X043894Y019207D02*
X043964Y019207D01*
X043964Y019215D02*
X043894Y019215D01*
X043894Y019223D02*
X043964Y019223D01*
X043964Y019231D02*
X043894Y019231D01*
X043894Y019239D02*
X043964Y019239D01*
X034208Y019884D02*
X034208Y019954D01*
X034594Y019954D01*
X034594Y019884D01*
X034208Y019884D01*
X034208Y019892D02*
X034594Y019892D01*
X034594Y019900D02*
X034208Y019900D01*
X034208Y019908D02*
X034594Y019908D01*
X034594Y019916D02*
X034208Y019916D01*
X034208Y019924D02*
X034594Y019924D01*
X034594Y019932D02*
X034208Y019932D01*
X034208Y019940D02*
X034594Y019940D01*
X034594Y019948D02*
X034208Y019948D01*
X034208Y020042D02*
X034208Y020112D01*
X034594Y020112D01*
X034594Y020042D01*
X034208Y020042D01*
X034208Y020050D02*
X034594Y020050D01*
X034594Y020058D02*
X034208Y020058D01*
X034208Y020066D02*
X034594Y020066D01*
X034594Y020074D02*
X034208Y020074D01*
X034208Y020082D02*
X034594Y020082D01*
X034594Y020090D02*
X034208Y020090D01*
X034208Y020098D02*
X034594Y020098D01*
X034594Y020106D02*
X034208Y020106D01*
X029314Y019141D02*
X029244Y019141D01*
X029314Y019141D02*
X029314Y018755D01*
X029244Y018755D01*
X029244Y019141D01*
X029244Y018763D02*
X029314Y018763D01*
X029314Y018771D02*
X029244Y018771D01*
X029244Y018779D02*
X029314Y018779D01*
X029314Y018787D02*
X029244Y018787D01*
X029244Y018795D02*
X029314Y018795D01*
X029314Y018803D02*
X029244Y018803D01*
X029244Y018811D02*
X029314Y018811D01*
X029314Y018819D02*
X029244Y018819D01*
X029244Y018827D02*
X029314Y018827D01*
X029314Y018835D02*
X029244Y018835D01*
X029244Y018843D02*
X029314Y018843D01*
X029314Y018851D02*
X029244Y018851D01*
X029244Y018859D02*
X029314Y018859D01*
X029314Y018867D02*
X029244Y018867D01*
X029244Y018875D02*
X029314Y018875D01*
X029314Y018883D02*
X029244Y018883D01*
X029244Y018891D02*
X029314Y018891D01*
X029314Y018899D02*
X029244Y018899D01*
X029244Y018907D02*
X029314Y018907D01*
X029314Y018915D02*
X029244Y018915D01*
X029244Y018923D02*
X029314Y018923D01*
X029314Y018931D02*
X029244Y018931D01*
X029244Y018939D02*
X029314Y018939D01*
X029314Y018947D02*
X029244Y018947D01*
X029244Y018955D02*
X029314Y018955D01*
X029314Y018963D02*
X029244Y018963D01*
X029244Y018971D02*
X029314Y018971D01*
X029314Y018979D02*
X029244Y018979D01*
X029244Y018987D02*
X029314Y018987D01*
X029314Y018995D02*
X029244Y018995D01*
X029244Y019003D02*
X029314Y019003D01*
X029314Y019011D02*
X029244Y019011D01*
X029244Y019019D02*
X029314Y019019D01*
X029314Y019027D02*
X029244Y019027D01*
X029244Y019035D02*
X029314Y019035D01*
X029314Y019043D02*
X029244Y019043D01*
X029244Y019051D02*
X029314Y019051D01*
X029314Y019059D02*
X029244Y019059D01*
X029244Y019067D02*
X029314Y019067D01*
X029314Y019075D02*
X029244Y019075D01*
X029244Y019083D02*
X029314Y019083D01*
X029314Y019091D02*
X029244Y019091D01*
X029244Y019099D02*
X029314Y019099D01*
X029314Y019107D02*
X029244Y019107D01*
X029244Y019115D02*
X029314Y019115D01*
X029314Y019123D02*
X029244Y019123D01*
X029244Y019131D02*
X029314Y019131D01*
X029314Y019139D02*
X029244Y019139D01*
X029157Y019141D02*
X029087Y019141D01*
X029157Y019141D02*
X029157Y018755D01*
X029087Y018755D01*
X029087Y019141D01*
X029087Y018763D02*
X029157Y018763D01*
X029157Y018771D02*
X029087Y018771D01*
X029087Y018779D02*
X029157Y018779D01*
X029157Y018787D02*
X029087Y018787D01*
X029087Y018795D02*
X029157Y018795D01*
X029157Y018803D02*
X029087Y018803D01*
X029087Y018811D02*
X029157Y018811D01*
X029157Y018819D02*
X029087Y018819D01*
X029087Y018827D02*
X029157Y018827D01*
X029157Y018835D02*
X029087Y018835D01*
X029087Y018843D02*
X029157Y018843D01*
X029157Y018851D02*
X029087Y018851D01*
X029087Y018859D02*
X029157Y018859D01*
X029157Y018867D02*
X029087Y018867D01*
X029087Y018875D02*
X029157Y018875D01*
X029157Y018883D02*
X029087Y018883D01*
X029087Y018891D02*
X029157Y018891D01*
X029157Y018899D02*
X029087Y018899D01*
X029087Y018907D02*
X029157Y018907D01*
X029157Y018915D02*
X029087Y018915D01*
X029087Y018923D02*
X029157Y018923D01*
X029157Y018931D02*
X029087Y018931D01*
X029087Y018939D02*
X029157Y018939D01*
X029157Y018947D02*
X029087Y018947D01*
X029087Y018955D02*
X029157Y018955D01*
X029157Y018963D02*
X029087Y018963D01*
X029087Y018971D02*
X029157Y018971D01*
X029157Y018979D02*
X029087Y018979D01*
X029087Y018987D02*
X029157Y018987D01*
X029157Y018995D02*
X029087Y018995D01*
X029087Y019003D02*
X029157Y019003D01*
X029157Y019011D02*
X029087Y019011D01*
X029087Y019019D02*
X029157Y019019D01*
X029157Y019027D02*
X029087Y019027D01*
X029087Y019035D02*
X029157Y019035D01*
X029157Y019043D02*
X029087Y019043D01*
X029087Y019051D02*
X029157Y019051D01*
X029157Y019059D02*
X029087Y019059D01*
X029087Y019067D02*
X029157Y019067D01*
X029157Y019075D02*
X029087Y019075D01*
X029087Y019083D02*
X029157Y019083D01*
X029157Y019091D02*
X029087Y019091D01*
X029087Y019099D02*
X029157Y019099D01*
X029157Y019107D02*
X029087Y019107D01*
X029087Y019115D02*
X029157Y019115D01*
X029157Y019123D02*
X029087Y019123D01*
X029087Y019131D02*
X029157Y019131D01*
X029157Y019139D02*
X029087Y019139D01*
X045337Y006755D02*
X045407Y006755D01*
X045337Y006755D02*
X045337Y007141D01*
X045407Y007141D01*
X045407Y006755D01*
X045407Y006763D02*
X045337Y006763D01*
X045337Y006771D02*
X045407Y006771D01*
X045407Y006779D02*
X045337Y006779D01*
X045337Y006787D02*
X045407Y006787D01*
X045407Y006795D02*
X045337Y006795D01*
X045337Y006803D02*
X045407Y006803D01*
X045407Y006811D02*
X045337Y006811D01*
X045337Y006819D02*
X045407Y006819D01*
X045407Y006827D02*
X045337Y006827D01*
X045337Y006835D02*
X045407Y006835D01*
X045407Y006843D02*
X045337Y006843D01*
X045337Y006851D02*
X045407Y006851D01*
X045407Y006859D02*
X045337Y006859D01*
X045337Y006867D02*
X045407Y006867D01*
X045407Y006875D02*
X045337Y006875D01*
X045337Y006883D02*
X045407Y006883D01*
X045407Y006891D02*
X045337Y006891D01*
X045337Y006899D02*
X045407Y006899D01*
X045407Y006907D02*
X045337Y006907D01*
X045337Y006915D02*
X045407Y006915D01*
X045407Y006923D02*
X045337Y006923D01*
X045337Y006931D02*
X045407Y006931D01*
X045407Y006939D02*
X045337Y006939D01*
X045337Y006947D02*
X045407Y006947D01*
X045407Y006955D02*
X045337Y006955D01*
X045337Y006963D02*
X045407Y006963D01*
X045407Y006971D02*
X045337Y006971D01*
X045337Y006979D02*
X045407Y006979D01*
X045407Y006987D02*
X045337Y006987D01*
X045337Y006995D02*
X045407Y006995D01*
X045407Y007003D02*
X045337Y007003D01*
X045337Y007011D02*
X045407Y007011D01*
X045407Y007019D02*
X045337Y007019D01*
X045337Y007027D02*
X045407Y007027D01*
X045407Y007035D02*
X045337Y007035D01*
X045337Y007043D02*
X045407Y007043D01*
X045407Y007051D02*
X045337Y007051D01*
X045337Y007059D02*
X045407Y007059D01*
X045407Y007067D02*
X045337Y007067D01*
X045337Y007075D02*
X045407Y007075D01*
X045407Y007083D02*
X045337Y007083D01*
X045337Y007091D02*
X045407Y007091D01*
X045407Y007099D02*
X045337Y007099D01*
X045337Y007107D02*
X045407Y007107D01*
X045407Y007115D02*
X045337Y007115D01*
X045337Y007123D02*
X045407Y007123D01*
X045407Y007131D02*
X045337Y007131D01*
X045337Y007139D02*
X045407Y007139D01*
X045494Y006755D02*
X045564Y006755D01*
X045494Y006755D02*
X045494Y007141D01*
X045564Y007141D01*
X045564Y006755D01*
X045564Y006763D02*
X045494Y006763D01*
X045494Y006771D02*
X045564Y006771D01*
X045564Y006779D02*
X045494Y006779D01*
X045494Y006787D02*
X045564Y006787D01*
X045564Y006795D02*
X045494Y006795D01*
X045494Y006803D02*
X045564Y006803D01*
X045564Y006811D02*
X045494Y006811D01*
X045494Y006819D02*
X045564Y006819D01*
X045564Y006827D02*
X045494Y006827D01*
X045494Y006835D02*
X045564Y006835D01*
X045564Y006843D02*
X045494Y006843D01*
X045494Y006851D02*
X045564Y006851D01*
X045564Y006859D02*
X045494Y006859D01*
X045494Y006867D02*
X045564Y006867D01*
X045564Y006875D02*
X045494Y006875D01*
X045494Y006883D02*
X045564Y006883D01*
X045564Y006891D02*
X045494Y006891D01*
X045494Y006899D02*
X045564Y006899D01*
X045564Y006907D02*
X045494Y006907D01*
X045494Y006915D02*
X045564Y006915D01*
X045564Y006923D02*
X045494Y006923D01*
X045494Y006931D02*
X045564Y006931D01*
X045564Y006939D02*
X045494Y006939D01*
X045494Y006947D02*
X045564Y006947D01*
X045564Y006955D02*
X045494Y006955D01*
X045494Y006963D02*
X045564Y006963D01*
X045564Y006971D02*
X045494Y006971D01*
X045494Y006979D02*
X045564Y006979D01*
X045564Y006987D02*
X045494Y006987D01*
X045494Y006995D02*
X045564Y006995D01*
X045564Y007003D02*
X045494Y007003D01*
X045494Y007011D02*
X045564Y007011D01*
X045564Y007019D02*
X045494Y007019D01*
X045494Y007027D02*
X045564Y007027D01*
X045564Y007035D02*
X045494Y007035D01*
X045494Y007043D02*
X045564Y007043D01*
X045564Y007051D02*
X045494Y007051D01*
X045494Y007059D02*
X045564Y007059D01*
X045564Y007067D02*
X045494Y007067D01*
X045494Y007075D02*
X045564Y007075D01*
X045564Y007083D02*
X045494Y007083D01*
X045494Y007091D02*
X045564Y007091D01*
X045564Y007099D02*
X045494Y007099D01*
X045494Y007107D02*
X045564Y007107D01*
X045564Y007115D02*
X045494Y007115D01*
X045494Y007123D02*
X045564Y007123D01*
X045564Y007131D02*
X045494Y007131D01*
X045494Y007139D02*
X045564Y007139D01*
D15*
X043642Y005961D02*
X043556Y005961D01*
X043642Y005961D02*
X043642Y005835D01*
X043556Y005835D01*
X043556Y005961D01*
X043556Y005846D02*
X043642Y005846D01*
X043642Y005857D02*
X043556Y005857D01*
X043556Y005868D02*
X043642Y005868D01*
X043642Y005879D02*
X043556Y005879D01*
X043556Y005890D02*
X043642Y005890D01*
X043642Y005901D02*
X043556Y005901D01*
X043556Y005912D02*
X043642Y005912D01*
X043642Y005923D02*
X043556Y005923D01*
X043556Y005934D02*
X043642Y005934D01*
X043642Y005945D02*
X043556Y005945D01*
X043556Y005956D02*
X043642Y005956D01*
X043445Y005961D02*
X043359Y005961D01*
X043445Y005961D02*
X043445Y005835D01*
X043359Y005835D01*
X043359Y005961D01*
X043359Y005846D02*
X043445Y005846D01*
X043445Y005857D02*
X043359Y005857D01*
X043359Y005868D02*
X043445Y005868D01*
X043445Y005879D02*
X043359Y005879D01*
X043359Y005890D02*
X043445Y005890D01*
X043445Y005901D02*
X043359Y005901D01*
X043359Y005912D02*
X043445Y005912D01*
X043445Y005923D02*
X043359Y005923D01*
X043359Y005934D02*
X043445Y005934D01*
X043445Y005945D02*
X043359Y005945D01*
X043359Y005956D02*
X043445Y005956D01*
X041964Y005539D02*
X041964Y005453D01*
X041838Y005453D01*
X041838Y005539D01*
X041964Y005539D01*
X041964Y005464D02*
X041838Y005464D01*
X041838Y005475D02*
X041964Y005475D01*
X041964Y005486D02*
X041838Y005486D01*
X041838Y005497D02*
X041964Y005497D01*
X041964Y005508D02*
X041838Y005508D01*
X041838Y005519D02*
X041964Y005519D01*
X041964Y005530D02*
X041838Y005530D01*
X041964Y005342D02*
X041964Y005256D01*
X041838Y005256D01*
X041838Y005342D01*
X041964Y005342D01*
X041964Y005267D02*
X041838Y005267D01*
X041838Y005278D02*
X041964Y005278D01*
X041964Y005289D02*
X041838Y005289D01*
X041838Y005300D02*
X041964Y005300D01*
X041964Y005311D02*
X041838Y005311D01*
X041838Y005322D02*
X041964Y005322D01*
X041964Y005333D02*
X041838Y005333D01*
X039964Y005342D02*
X039964Y005256D01*
X039838Y005256D01*
X039838Y005342D01*
X039964Y005342D01*
X039964Y005267D02*
X039838Y005267D01*
X039838Y005278D02*
X039964Y005278D01*
X039964Y005289D02*
X039838Y005289D01*
X039838Y005300D02*
X039964Y005300D01*
X039964Y005311D02*
X039838Y005311D01*
X039838Y005322D02*
X039964Y005322D01*
X039964Y005333D02*
X039838Y005333D01*
X039964Y005453D02*
X039964Y005539D01*
X039964Y005453D02*
X039838Y005453D01*
X039838Y005539D01*
X039964Y005539D01*
X039964Y005464D02*
X039838Y005464D01*
X039838Y005475D02*
X039964Y005475D01*
X039964Y005486D02*
X039838Y005486D01*
X039838Y005497D02*
X039964Y005497D01*
X039964Y005508D02*
X039838Y005508D01*
X039838Y005519D02*
X039964Y005519D01*
X039964Y005530D02*
X039838Y005530D01*
X038342Y008535D02*
X038256Y008535D01*
X038256Y008661D01*
X038342Y008661D01*
X038342Y008535D01*
X038342Y008546D02*
X038256Y008546D01*
X038256Y008557D02*
X038342Y008557D01*
X038342Y008568D02*
X038256Y008568D01*
X038256Y008579D02*
X038342Y008579D01*
X038342Y008590D02*
X038256Y008590D01*
X038256Y008601D02*
X038342Y008601D01*
X038342Y008612D02*
X038256Y008612D01*
X038256Y008623D02*
X038342Y008623D01*
X038342Y008634D02*
X038256Y008634D01*
X038256Y008645D02*
X038342Y008645D01*
X038342Y008656D02*
X038256Y008656D01*
X038145Y008535D02*
X038059Y008535D01*
X038059Y008661D01*
X038145Y008661D01*
X038145Y008535D01*
X038145Y008546D02*
X038059Y008546D01*
X038059Y008557D02*
X038145Y008557D01*
X038145Y008568D02*
X038059Y008568D01*
X038059Y008579D02*
X038145Y008579D01*
X038145Y008590D02*
X038059Y008590D01*
X038059Y008601D02*
X038145Y008601D01*
X038145Y008612D02*
X038059Y008612D01*
X038059Y008623D02*
X038145Y008623D01*
X038145Y008634D02*
X038059Y008634D01*
X038059Y008645D02*
X038145Y008645D01*
X038145Y008656D02*
X038059Y008656D01*
X039738Y009056D02*
X039738Y009142D01*
X039864Y009142D01*
X039864Y009056D01*
X039738Y009056D01*
X039738Y009067D02*
X039864Y009067D01*
X039864Y009078D02*
X039738Y009078D01*
X039738Y009089D02*
X039864Y009089D01*
X039864Y009100D02*
X039738Y009100D01*
X039738Y009111D02*
X039864Y009111D01*
X039864Y009122D02*
X039738Y009122D01*
X039738Y009133D02*
X039864Y009133D01*
X039738Y009253D02*
X039738Y009339D01*
X039864Y009339D01*
X039864Y009253D01*
X039738Y009253D01*
X039738Y009264D02*
X039864Y009264D01*
X039864Y009275D02*
X039738Y009275D01*
X039738Y009286D02*
X039864Y009286D01*
X039864Y009297D02*
X039738Y009297D01*
X039738Y009308D02*
X039864Y009308D01*
X039864Y009319D02*
X039738Y009319D01*
X039738Y009330D02*
X039864Y009330D01*
X041838Y009342D02*
X041838Y009256D01*
X041838Y009342D02*
X041964Y009342D01*
X041964Y009256D01*
X041838Y009256D01*
X041838Y009267D02*
X041964Y009267D01*
X041964Y009278D02*
X041838Y009278D01*
X041838Y009289D02*
X041964Y009289D01*
X041964Y009300D02*
X041838Y009300D01*
X041838Y009311D02*
X041964Y009311D01*
X041964Y009322D02*
X041838Y009322D01*
X041838Y009333D02*
X041964Y009333D01*
X041838Y009453D02*
X041838Y009539D01*
X041964Y009539D01*
X041964Y009453D01*
X041838Y009453D01*
X041838Y009464D02*
X041964Y009464D01*
X041964Y009475D02*
X041838Y009475D01*
X041838Y009486D02*
X041964Y009486D01*
X041964Y009497D02*
X041838Y009497D01*
X041838Y009508D02*
X041964Y009508D01*
X041964Y009519D02*
X041838Y009519D01*
X041838Y009530D02*
X041964Y009530D01*
X035342Y013585D02*
X035256Y013585D01*
X035256Y013711D01*
X035342Y013711D01*
X035342Y013585D01*
X035342Y013596D02*
X035256Y013596D01*
X035256Y013607D02*
X035342Y013607D01*
X035342Y013618D02*
X035256Y013618D01*
X035256Y013629D02*
X035342Y013629D01*
X035342Y013640D02*
X035256Y013640D01*
X035256Y013651D02*
X035342Y013651D01*
X035342Y013662D02*
X035256Y013662D01*
X035256Y013673D02*
X035342Y013673D01*
X035342Y013684D02*
X035256Y013684D01*
X035256Y013695D02*
X035342Y013695D01*
X035342Y013706D02*
X035256Y013706D01*
X035145Y013585D02*
X035059Y013585D01*
X035059Y013711D01*
X035145Y013711D01*
X035145Y013585D01*
X035145Y013596D02*
X035059Y013596D01*
X035059Y013607D02*
X035145Y013607D01*
X035145Y013618D02*
X035059Y013618D01*
X035059Y013629D02*
X035145Y013629D01*
X035145Y013640D02*
X035059Y013640D01*
X035059Y013651D02*
X035145Y013651D01*
X035145Y013662D02*
X035059Y013662D01*
X035059Y013673D02*
X035145Y013673D01*
X035145Y013684D02*
X035059Y013684D01*
X035059Y013695D02*
X035145Y013695D01*
X035145Y013706D02*
X035059Y013706D01*
X038314Y014306D02*
X038314Y014392D01*
X038314Y014306D02*
X038188Y014306D01*
X038188Y014392D01*
X038314Y014392D01*
X038314Y014317D02*
X038188Y014317D01*
X038188Y014328D02*
X038314Y014328D01*
X038314Y014339D02*
X038188Y014339D01*
X038188Y014350D02*
X038314Y014350D01*
X038314Y014361D02*
X038188Y014361D01*
X038188Y014372D02*
X038314Y014372D01*
X038314Y014383D02*
X038188Y014383D01*
X038314Y014503D02*
X038314Y014589D01*
X038314Y014503D02*
X038188Y014503D01*
X038188Y014589D01*
X038314Y014589D01*
X038314Y014514D02*
X038188Y014514D01*
X038188Y014525D02*
X038314Y014525D01*
X038314Y014536D02*
X038188Y014536D01*
X038188Y014547D02*
X038314Y014547D01*
X038314Y014558D02*
X038188Y014558D01*
X038188Y014569D02*
X038314Y014569D01*
X038314Y014580D02*
X038188Y014580D01*
X046659Y017111D02*
X046745Y017111D01*
X046745Y016985D01*
X046659Y016985D01*
X046659Y017111D01*
X046659Y016996D02*
X046745Y016996D01*
X046745Y017007D02*
X046659Y017007D01*
X046659Y017018D02*
X046745Y017018D01*
X046745Y017029D02*
X046659Y017029D01*
X046659Y017040D02*
X046745Y017040D01*
X046745Y017051D02*
X046659Y017051D01*
X046659Y017062D02*
X046745Y017062D01*
X046745Y017073D02*
X046659Y017073D01*
X046659Y017084D02*
X046745Y017084D01*
X046745Y017095D02*
X046659Y017095D01*
X046659Y017106D02*
X046745Y017106D01*
X046856Y017111D02*
X046942Y017111D01*
X046942Y016985D01*
X046856Y016985D01*
X046856Y017111D01*
X046856Y016996D02*
X046942Y016996D01*
X046942Y017007D02*
X046856Y017007D01*
X046856Y017018D02*
X046942Y017018D01*
X046942Y017029D02*
X046856Y017029D01*
X046856Y017040D02*
X046942Y017040D01*
X046942Y017051D02*
X046856Y017051D01*
X046856Y017062D02*
X046942Y017062D01*
X046942Y017073D02*
X046856Y017073D01*
X046856Y017084D02*
X046942Y017084D01*
X046942Y017095D02*
X046856Y017095D01*
X046856Y017106D02*
X046942Y017106D01*
X045338Y019156D02*
X045338Y019242D01*
X045464Y019242D01*
X045464Y019156D01*
X045338Y019156D01*
X045338Y019167D02*
X045464Y019167D01*
X045464Y019178D02*
X045338Y019178D01*
X045338Y019189D02*
X045464Y019189D01*
X045464Y019200D02*
X045338Y019200D01*
X045338Y019211D02*
X045464Y019211D01*
X045464Y019222D02*
X045338Y019222D01*
X045338Y019233D02*
X045464Y019233D01*
X045338Y019353D02*
X045338Y019439D01*
X045464Y019439D01*
X045464Y019353D01*
X045338Y019353D01*
X045338Y019364D02*
X045464Y019364D01*
X045464Y019375D02*
X045338Y019375D01*
X045338Y019386D02*
X045464Y019386D01*
X045464Y019397D02*
X045338Y019397D01*
X045338Y019408D02*
X045464Y019408D01*
X045464Y019419D02*
X045338Y019419D01*
X045338Y019430D02*
X045464Y019430D01*
X044488Y019439D02*
X044488Y019353D01*
X044488Y019439D02*
X044614Y019439D01*
X044614Y019353D01*
X044488Y019353D01*
X044488Y019364D02*
X044614Y019364D01*
X044614Y019375D02*
X044488Y019375D01*
X044488Y019386D02*
X044614Y019386D01*
X044614Y019397D02*
X044488Y019397D01*
X044488Y019408D02*
X044614Y019408D01*
X044614Y019419D02*
X044488Y019419D01*
X044488Y019430D02*
X044614Y019430D01*
X044488Y019242D02*
X044488Y019156D01*
X044488Y019242D02*
X044614Y019242D01*
X044614Y019156D01*
X044488Y019156D01*
X044488Y019167D02*
X044614Y019167D01*
X044614Y019178D02*
X044488Y019178D01*
X044488Y019189D02*
X044614Y019189D01*
X044614Y019200D02*
X044488Y019200D01*
X044488Y019211D02*
X044614Y019211D01*
X044614Y019222D02*
X044488Y019222D01*
X044488Y019233D02*
X044614Y019233D01*
X012492Y007961D02*
X012406Y007961D01*
X012492Y007961D02*
X012492Y007835D01*
X012406Y007835D01*
X012406Y007961D01*
X012406Y007846D02*
X012492Y007846D01*
X012492Y007857D02*
X012406Y007857D01*
X012406Y007868D02*
X012492Y007868D01*
X012492Y007879D02*
X012406Y007879D01*
X012406Y007890D02*
X012492Y007890D01*
X012492Y007901D02*
X012406Y007901D01*
X012406Y007912D02*
X012492Y007912D01*
X012492Y007923D02*
X012406Y007923D01*
X012406Y007934D02*
X012492Y007934D01*
X012492Y007945D02*
X012406Y007945D01*
X012406Y007956D02*
X012492Y007956D01*
X012295Y007961D02*
X012209Y007961D01*
X012295Y007961D02*
X012295Y007835D01*
X012209Y007835D01*
X012209Y007961D01*
X012209Y007846D02*
X012295Y007846D01*
X012295Y007857D02*
X012209Y007857D01*
X012209Y007868D02*
X012295Y007868D01*
X012295Y007879D02*
X012209Y007879D01*
X012209Y007890D02*
X012295Y007890D01*
X012295Y007901D02*
X012209Y007901D01*
X012209Y007912D02*
X012295Y007912D01*
X012295Y007923D02*
X012209Y007923D01*
X012209Y007934D02*
X012295Y007934D01*
X012295Y007945D02*
X012209Y007945D01*
X012209Y007956D02*
X012295Y007956D01*
X010014Y007953D02*
X010014Y008039D01*
X010014Y007953D02*
X009888Y007953D01*
X009888Y008039D01*
X010014Y008039D01*
X010014Y007964D02*
X009888Y007964D01*
X009888Y007975D02*
X010014Y007975D01*
X010014Y007986D02*
X009888Y007986D01*
X009888Y007997D02*
X010014Y007997D01*
X010014Y008008D02*
X009888Y008008D01*
X009888Y008019D02*
X010014Y008019D01*
X010014Y008030D02*
X009888Y008030D01*
X010014Y007842D02*
X010014Y007756D01*
X009888Y007756D01*
X009888Y007842D01*
X010014Y007842D01*
X010014Y007767D02*
X009888Y007767D01*
X009888Y007778D02*
X010014Y007778D01*
X010014Y007789D02*
X009888Y007789D01*
X009888Y007800D02*
X010014Y007800D01*
X010014Y007811D02*
X009888Y007811D01*
X009888Y007822D02*
X010014Y007822D01*
X010014Y007833D02*
X009888Y007833D01*
X008992Y004785D02*
X008906Y004785D01*
X008906Y004911D01*
X008992Y004911D01*
X008992Y004785D01*
X008992Y004796D02*
X008906Y004796D01*
X008906Y004807D02*
X008992Y004807D01*
X008992Y004818D02*
X008906Y004818D01*
X008906Y004829D02*
X008992Y004829D01*
X008992Y004840D02*
X008906Y004840D01*
X008906Y004851D02*
X008992Y004851D01*
X008992Y004862D02*
X008906Y004862D01*
X008906Y004873D02*
X008992Y004873D01*
X008992Y004884D02*
X008906Y004884D01*
X008906Y004895D02*
X008992Y004895D01*
X008992Y004906D02*
X008906Y004906D01*
X008795Y004785D02*
X008709Y004785D01*
X008709Y004911D01*
X008795Y004911D01*
X008795Y004785D01*
X008795Y004796D02*
X008709Y004796D01*
X008709Y004807D02*
X008795Y004807D01*
X008795Y004818D02*
X008709Y004818D01*
X008709Y004829D02*
X008795Y004829D01*
X008795Y004840D02*
X008709Y004840D01*
X008709Y004851D02*
X008795Y004851D01*
X008795Y004862D02*
X008709Y004862D01*
X008709Y004873D02*
X008795Y004873D01*
X008795Y004884D02*
X008709Y004884D01*
X008709Y004895D02*
X008795Y004895D01*
X008795Y004906D02*
X008709Y004906D01*
X007792Y012485D02*
X007706Y012485D01*
X007706Y012611D01*
X007792Y012611D01*
X007792Y012485D01*
X007792Y012496D02*
X007706Y012496D01*
X007706Y012507D02*
X007792Y012507D01*
X007792Y012518D02*
X007706Y012518D01*
X007706Y012529D02*
X007792Y012529D01*
X007792Y012540D02*
X007706Y012540D01*
X007706Y012551D02*
X007792Y012551D01*
X007792Y012562D02*
X007706Y012562D01*
X007706Y012573D02*
X007792Y012573D01*
X007792Y012584D02*
X007706Y012584D01*
X007706Y012595D02*
X007792Y012595D01*
X007792Y012606D02*
X007706Y012606D01*
X007595Y012485D02*
X007509Y012485D01*
X007509Y012611D01*
X007595Y012611D01*
X007595Y012485D01*
X007595Y012496D02*
X007509Y012496D01*
X007509Y012507D02*
X007595Y012507D01*
X007595Y012518D02*
X007509Y012518D01*
X007509Y012529D02*
X007595Y012529D01*
X007595Y012540D02*
X007509Y012540D01*
X007509Y012551D02*
X007595Y012551D01*
X007595Y012562D02*
X007509Y012562D01*
X007509Y012573D02*
X007595Y012573D01*
X007595Y012584D02*
X007509Y012584D01*
X007509Y012595D02*
X007595Y012595D01*
X007595Y012606D02*
X007509Y012606D01*
X010209Y013035D02*
X010295Y013035D01*
X010209Y013035D02*
X010209Y013161D01*
X010295Y013161D01*
X010295Y013035D01*
X010295Y013046D02*
X010209Y013046D01*
X010209Y013057D02*
X010295Y013057D01*
X010295Y013068D02*
X010209Y013068D01*
X010209Y013079D02*
X010295Y013079D01*
X010295Y013090D02*
X010209Y013090D01*
X010209Y013101D02*
X010295Y013101D01*
X010295Y013112D02*
X010209Y013112D01*
X010209Y013123D02*
X010295Y013123D01*
X010295Y013134D02*
X010209Y013134D01*
X010209Y013145D02*
X010295Y013145D01*
X010295Y013156D02*
X010209Y013156D01*
X010209Y013335D02*
X010295Y013335D01*
X010209Y013335D02*
X010209Y013461D01*
X010295Y013461D01*
X010295Y013335D01*
X010295Y013346D02*
X010209Y013346D01*
X010209Y013357D02*
X010295Y013357D01*
X010295Y013368D02*
X010209Y013368D01*
X010209Y013379D02*
X010295Y013379D01*
X010295Y013390D02*
X010209Y013390D01*
X010209Y013401D02*
X010295Y013401D01*
X010295Y013412D02*
X010209Y013412D01*
X010209Y013423D02*
X010295Y013423D01*
X010295Y013434D02*
X010209Y013434D01*
X010209Y013445D02*
X010295Y013445D01*
X010295Y013456D02*
X010209Y013456D01*
X010406Y013335D02*
X010492Y013335D01*
X010406Y013335D02*
X010406Y013461D01*
X010492Y013461D01*
X010492Y013335D01*
X010492Y013346D02*
X010406Y013346D01*
X010406Y013357D02*
X010492Y013357D01*
X010492Y013368D02*
X010406Y013368D01*
X010406Y013379D02*
X010492Y013379D01*
X010492Y013390D02*
X010406Y013390D01*
X010406Y013401D02*
X010492Y013401D01*
X010492Y013412D02*
X010406Y013412D01*
X010406Y013423D02*
X010492Y013423D01*
X010492Y013434D02*
X010406Y013434D01*
X010406Y013445D02*
X010492Y013445D01*
X010492Y013456D02*
X010406Y013456D01*
X010406Y013035D02*
X010492Y013035D01*
X010406Y013035D02*
X010406Y013161D01*
X010492Y013161D01*
X010492Y013035D01*
X010492Y013046D02*
X010406Y013046D01*
X010406Y013057D02*
X010492Y013057D01*
X010492Y013068D02*
X010406Y013068D01*
X010406Y013079D02*
X010492Y013079D01*
X010492Y013090D02*
X010406Y013090D01*
X010406Y013101D02*
X010492Y013101D01*
X010492Y013112D02*
X010406Y013112D01*
X010406Y013123D02*
X010492Y013123D01*
X010492Y013134D02*
X010406Y013134D01*
X010406Y013145D02*
X010492Y013145D01*
X010492Y013156D02*
X010406Y013156D01*
D16*
X008699Y014553D03*
X008699Y014749D03*
X008699Y014946D03*
X008699Y015143D03*
X007203Y015143D03*
X007203Y014946D03*
X007203Y014749D03*
X007203Y014553D03*
D17*
X007655Y014100D03*
X007852Y014100D03*
X008049Y014100D03*
X008246Y014100D03*
X008246Y015596D03*
X008049Y015596D03*
X007852Y015596D03*
X007655Y015596D03*
D18*
X007951Y014848D03*
D19*
X024151Y013745D03*
X024151Y013351D03*
X029004Y009148D03*
X029397Y009148D03*
X032404Y009098D03*
X032797Y009098D03*
X034001Y013451D03*
X034001Y013845D03*
X043001Y017751D03*
X043001Y018145D03*
D20*
X037324Y017963D03*
X037068Y017963D03*
X036812Y017963D03*
X036556Y017963D03*
X036300Y017963D03*
X036044Y017963D03*
X035789Y017963D03*
X035533Y017963D03*
X035277Y017963D03*
X035021Y017963D03*
X035021Y020247D03*
X035277Y020247D03*
X035533Y020247D03*
X035789Y020247D03*
X036044Y020247D03*
X036300Y020247D03*
X036556Y020247D03*
X036812Y020247D03*
X037068Y020247D03*
X037324Y020247D03*
D21*
X039250Y019948D03*
X039451Y019948D03*
X039451Y021348D03*
X039250Y021348D03*
X039250Y022448D03*
X039451Y022448D03*
X037351Y017198D03*
X037150Y017198D03*
X036951Y017198D03*
X036750Y017198D03*
X042400Y017048D03*
X042601Y017048D03*
X044450Y016548D03*
X044651Y016548D03*
X035651Y013098D03*
X035450Y013098D03*
X035251Y013248D03*
X035050Y013248D03*
X035050Y012948D03*
X035251Y012948D03*
X038100Y008198D03*
X038301Y008198D03*
X038900Y008198D03*
X039101Y008198D03*
X042900Y006298D03*
X043101Y006298D03*
X043400Y006298D03*
X043601Y006298D03*
X043101Y005898D03*
X042900Y005898D03*
X046550Y008348D03*
X046751Y008348D03*
X046751Y008698D03*
X046550Y008698D03*
X046401Y009648D03*
X046200Y009648D03*
X011251Y008348D03*
X011050Y008348D03*
X007851Y013648D03*
X007650Y013648D03*
D22*
X035745Y016798D03*
X036257Y016798D03*
X036257Y017248D03*
X035745Y017248D03*
D23*
X035588Y022001D03*
X034801Y022001D03*
X034013Y022001D03*
X033226Y022001D03*
X032438Y022001D03*
X032438Y023694D03*
X033226Y023694D03*
X034013Y023694D03*
X034801Y023694D03*
X035588Y023694D03*
X036375Y023694D03*
X037163Y023694D03*
X037163Y022001D03*
X036375Y022001D03*
D24*
X040216Y010348D03*
X040885Y010348D03*
X037751Y006233D03*
X037751Y005563D03*
X010801Y009763D03*
X010801Y010433D03*
D25*
X044271Y017514D03*
X044271Y017770D03*
X044271Y018026D03*
X044271Y018282D03*
X045630Y018282D03*
X045630Y018026D03*
X045630Y017770D03*
X045630Y017514D03*
D26*
X045334Y017219D03*
X045079Y017219D03*
X044823Y017219D03*
X044567Y017219D03*
X044567Y018577D03*
X044823Y018577D03*
X045079Y018577D03*
X045334Y018577D03*
D27*
X045326Y018273D02*
X044576Y018273D01*
X044576Y017523D01*
X045201Y017523D01*
X045326Y017648D01*
X045326Y018273D01*
X045326Y018245D02*
X044576Y018245D01*
X044576Y018187D02*
X045326Y018187D01*
X045326Y018130D02*
X044576Y018130D01*
X044576Y018072D02*
X045326Y018072D01*
X045326Y018015D02*
X044576Y018015D01*
X044576Y017957D02*
X045326Y017957D01*
X045326Y017899D02*
X044576Y017899D01*
X044576Y017842D02*
X045326Y017842D01*
X045326Y017784D02*
X044576Y017784D01*
X044576Y017727D02*
X045326Y017727D01*
X045326Y017669D02*
X044576Y017669D01*
X044576Y017612D02*
X045289Y017612D01*
X045232Y017554D02*
X044576Y017554D01*
D28*
X047158Y018636D03*
X047158Y018892D03*
X047158Y019148D03*
X047158Y019404D03*
X047158Y019660D03*
D29*
X048280Y020624D03*
X048280Y017672D03*
D30*
X048280Y018695D03*
X048280Y019601D03*
D31*
X045151Y019198D03*
X045151Y018998D03*
X044801Y018998D03*
X044801Y019198D03*
X041651Y020198D03*
X041651Y020398D03*
X045051Y016748D03*
X045051Y016548D03*
X045951Y016548D03*
X045951Y016748D03*
X039551Y013748D03*
X039551Y013548D03*
X039151Y013548D03*
X039151Y013748D03*
X034951Y010998D03*
X034951Y010798D03*
X034714Y009743D03*
X034714Y009542D03*
X039501Y009298D03*
X039501Y009098D03*
X040301Y009548D03*
X040301Y009748D03*
X040601Y009748D03*
X040601Y009548D03*
X039901Y008648D03*
X039901Y008448D03*
X041801Y008448D03*
X041801Y008648D03*
X042201Y009298D03*
X042201Y009498D03*
X041901Y010648D03*
X041901Y010848D03*
X041801Y006048D03*
X041801Y005848D03*
X042201Y005498D03*
X042201Y005298D03*
X042601Y005898D03*
X042601Y006098D03*
X039901Y006048D03*
X039901Y005848D03*
X039501Y005498D03*
X039501Y005298D03*
X041751Y004248D03*
X041751Y004048D03*
X011201Y005148D03*
X011201Y005348D03*
X010751Y005348D03*
X010751Y005148D03*
X007251Y007298D03*
X007251Y007498D03*
D32*
X036459Y014346D03*
X037600Y014346D03*
X037600Y015291D03*
X036459Y015291D03*
D33*
X035334Y015794D03*
X035079Y015794D03*
X034823Y015794D03*
X034567Y015794D03*
X034567Y014101D03*
X034823Y014101D03*
X035079Y014101D03*
X035334Y014101D03*
D34*
X012484Y007410D03*
X012229Y007410D03*
X011973Y007410D03*
X011717Y007410D03*
X011717Y006386D03*
X011973Y006386D03*
X012229Y006386D03*
X012484Y006386D03*
D35*
X009025Y006379D03*
X008651Y006379D03*
X008277Y006379D03*
X008277Y005316D03*
X008651Y005316D03*
X009025Y005316D03*
D36*
X035566Y011098D03*
X036235Y011098D03*
X040151Y004883D03*
X040151Y004213D03*
X040951Y004213D03*
X040951Y004883D03*
D37*
X039075Y017148D03*
X038327Y017148D03*
D38*
X035051Y005522D03*
X035051Y004774D03*
X043201Y002322D03*
X043201Y001574D03*
D39*
X004911Y005708D03*
X004911Y007448D03*
X004911Y009188D03*
X004911Y013858D03*
X004911Y015598D03*
X004911Y017338D03*
D40*
X007841Y008032D03*
X007841Y007776D03*
X007841Y007520D03*
X007841Y007264D03*
X009461Y007264D03*
X009461Y007520D03*
X009461Y007776D03*
X009461Y008032D03*
D41*
X044856Y012557D03*
X044856Y013738D03*
D42*
X047009Y015268D03*
X047009Y011028D03*
D43*
X039851Y011382D03*
X039851Y011914D03*
D44*
X042551Y012488D03*
X042551Y015008D03*
D45*
X046635Y016548D03*
X047166Y016548D03*
D46*
X044096Y016548D03*
X043505Y016548D03*
X043046Y016548D03*
X042455Y016548D03*
X045555Y020648D03*
X046146Y020648D03*
X046146Y021248D03*
X045555Y021248D03*
X045555Y021848D03*
X046146Y021848D03*
X046855Y009648D03*
X047446Y009648D03*
D47*
X047221Y008628D03*
X047221Y007648D03*
X047221Y006668D03*
D48*
X046115Y007454D03*
X046115Y007651D03*
X046115Y007848D03*
X046115Y008045D03*
X046115Y008242D03*
X045386Y008242D03*
X045386Y008045D03*
X045386Y007848D03*
X045386Y007651D03*
X045386Y007454D03*
D49*
X045751Y007848D03*
D50*
X043651Y021973D03*
X042651Y021973D03*
X041651Y021973D03*
X040651Y021973D03*
X040651Y023723D03*
X041651Y023723D03*
X042651Y023723D03*
X043651Y023723D03*
D51*
X005351Y004148D03*
X005351Y022348D03*
X045451Y024648D03*
X047951Y004148D03*
M02*
