G75*
%MOIN*%
%OFA0B0*%
%FSLAX24Y24*%
%IPPOS*%
%LPD*%
%AMOC8*
5,1,8,0,0,1.08239X$1,22.5*
%
%ADD10C,0.0220*%
%ADD11C,0.0413*%
%ADD12C,0.0100*%
D10*
X006551Y004148D03*
X008451Y004548D03*
X009251Y004548D03*
X011001Y005548D03*
X011701Y005998D03*
X010801Y006648D03*
X010051Y006948D03*
X010251Y007248D03*
X010451Y007598D03*
X010801Y007598D03*
X010451Y008198D03*
X011001Y008648D03*
X011551Y008348D03*
X011801Y008748D03*
X012301Y008398D03*
X012701Y008398D03*
X013951Y008448D03*
X014251Y008448D03*
X016101Y008448D03*
X016401Y008448D03*
X018251Y008448D03*
X018551Y008448D03*
X013351Y010648D03*
X012751Y010248D03*
X012001Y010798D03*
X010401Y011348D03*
X010401Y011648D03*
X010401Y011948D03*
X010401Y012248D03*
X010851Y012648D03*
X012051Y012698D03*
X012051Y012998D03*
X012051Y013498D03*
X012051Y013798D03*
X012051Y014298D03*
X012051Y014598D03*
X012051Y015098D03*
X012051Y015398D03*
X012551Y015498D03*
X013851Y016148D03*
X010951Y015448D03*
X010401Y015648D03*
X010401Y015948D03*
X010401Y016448D03*
X010401Y016748D03*
X009401Y016898D03*
X009351Y018248D03*
X009751Y018248D03*
X012341Y018848D03*
X012651Y018848D03*
X013951Y018848D03*
X014251Y018848D03*
X012801Y019648D03*
X012351Y019998D03*
X012051Y019998D03*
X011751Y019998D03*
X010951Y020048D03*
X010651Y020048D03*
X010351Y020048D03*
X010331Y021048D03*
X010641Y021048D03*
X010951Y021048D03*
X011751Y021048D03*
X012051Y021048D03*
X012351Y021048D03*
X012601Y022148D03*
X011201Y024048D03*
X011451Y024448D03*
X006151Y022348D03*
X006051Y017548D03*
X006051Y017148D03*
X007651Y015148D03*
X008251Y015148D03*
X009051Y014748D03*
X009351Y014748D03*
X009651Y015098D03*
X008251Y014548D03*
X007651Y014548D03*
X006051Y014048D03*
X006051Y013648D03*
X007351Y012948D03*
X007951Y012948D03*
X005851Y011898D03*
X005451Y011898D03*
X005451Y010848D03*
X005851Y010848D03*
X006451Y010048D03*
X006851Y010048D03*
X006001Y009398D03*
X006451Y009048D03*
X006851Y009048D03*
X006001Y008998D03*
X007101Y008248D03*
X007151Y007748D03*
X007251Y007048D03*
X008301Y006798D03*
X006001Y005898D03*
X006001Y005498D03*
X011951Y004848D03*
X012251Y004548D03*
X012451Y005348D03*
X012851Y005348D03*
X010801Y009448D03*
X009851Y009748D03*
X009451Y009748D03*
X012351Y011948D03*
X012801Y012998D03*
X013101Y012998D03*
X014951Y012948D03*
X015401Y012948D03*
X015401Y013398D03*
X014951Y013398D03*
X014951Y013898D03*
X015401Y013898D03*
X015901Y013898D03*
X016351Y013898D03*
X016351Y014348D03*
X015901Y014348D03*
X015401Y014348D03*
X014951Y014348D03*
X015901Y013398D03*
X016351Y013398D03*
X016351Y012948D03*
X015901Y012948D03*
X018701Y012998D03*
X019001Y012998D03*
X020851Y012408D03*
X020851Y012128D03*
X023951Y013398D03*
X023951Y013698D03*
X025551Y013698D03*
X025601Y013998D03*
X025601Y014348D03*
X025451Y014798D03*
X025451Y015348D03*
X025451Y016698D03*
X025351Y017448D03*
X025601Y017648D03*
X026351Y017648D03*
X026951Y017648D03*
X027951Y017648D03*
X028551Y017648D03*
X029351Y017648D03*
X029951Y017648D03*
X030751Y017648D03*
X031501Y017648D03*
X032101Y017648D03*
X032501Y017648D03*
X032651Y016948D03*
X032651Y016398D03*
X032651Y015798D03*
X032651Y015148D03*
X032051Y014748D03*
X032351Y014248D03*
X032651Y014148D03*
X032651Y013548D03*
X032351Y013448D03*
X031851Y013248D03*
X031301Y013248D03*
X031151Y012648D03*
X031151Y012298D03*
X031551Y012248D03*
X031951Y012248D03*
X032101Y011898D03*
X032451Y011798D03*
X032451Y011198D03*
X032101Y011098D03*
X031901Y010448D03*
X031301Y010448D03*
X030901Y010548D03*
X030351Y010548D03*
X029851Y010548D03*
X029451Y010548D03*
X029101Y010548D03*
X028701Y010548D03*
X028001Y010548D03*
X025451Y010948D03*
X025451Y011948D03*
X025451Y012548D03*
X025451Y012898D03*
X020861Y014878D03*
X020861Y015178D03*
X019001Y014298D03*
X018701Y014298D03*
X013101Y014298D03*
X012801Y014298D03*
X010901Y013998D03*
X009651Y014398D03*
X016101Y018848D03*
X016401Y018848D03*
X018251Y018748D03*
X018551Y018748D03*
X024251Y017448D03*
X025651Y018748D03*
X026001Y018748D03*
X029001Y019348D03*
X029401Y019348D03*
X031401Y020698D03*
X031651Y021248D03*
X031951Y021648D03*
X032601Y021148D03*
X033001Y020848D03*
X033051Y020048D03*
X032851Y019748D03*
X032601Y019348D03*
X032351Y018998D03*
X033251Y019248D03*
X033851Y018848D03*
X034151Y017898D03*
X033851Y017448D03*
X035951Y018548D03*
X036301Y018598D03*
X036601Y018448D03*
X036901Y018598D03*
X037801Y018648D03*
X036551Y019548D03*
X035951Y019548D03*
X035251Y019748D03*
X034401Y019698D03*
X034401Y020298D03*
X034801Y020698D03*
X035501Y021298D03*
X036551Y021298D03*
X037151Y021298D03*
X038251Y021948D03*
X038251Y022448D03*
X038751Y022448D03*
X038751Y022948D03*
X038251Y022948D03*
X038251Y023548D03*
X038751Y023548D03*
X037551Y023648D03*
X034751Y022698D03*
X032051Y023648D03*
X037551Y020298D03*
X038851Y019798D03*
X039351Y020498D03*
X039051Y020748D03*
X039701Y020748D03*
X040151Y020498D03*
X040501Y020798D03*
X042651Y021048D03*
X042951Y020448D03*
X044551Y019598D03*
X044851Y019398D03*
X045401Y019598D03*
X045801Y018898D03*
X046051Y018548D03*
X045151Y018098D03*
X044751Y018098D03*
X044751Y017698D03*
X043851Y017148D03*
X044651Y016848D03*
X045651Y016948D03*
X046451Y017048D03*
X046451Y016548D03*
X047851Y016248D03*
X045151Y014148D03*
X045551Y013948D03*
X045951Y013948D03*
X045951Y013548D03*
X045551Y013548D03*
X044551Y014148D03*
X043651Y015348D03*
X042951Y015648D03*
X042551Y015648D03*
X042151Y015648D03*
X041751Y015348D03*
X039851Y015048D03*
X038651Y014748D03*
X038651Y014148D03*
X039351Y013948D03*
X041351Y013898D03*
X041701Y013898D03*
X041701Y013548D03*
X041351Y013548D03*
X041351Y012748D03*
X041651Y012748D03*
X041651Y012348D03*
X041351Y012348D03*
X042401Y011598D03*
X042701Y011598D03*
X043751Y011348D03*
X044151Y011348D03*
X044551Y011348D03*
X044551Y010948D03*
X044151Y010948D03*
X043751Y010948D03*
X042701Y010798D03*
X042401Y010798D03*
X041301Y010698D03*
X040051Y011148D03*
X040251Y011448D03*
X039651Y011148D03*
X039451Y011448D03*
X039851Y010448D03*
X039101Y009998D03*
X038801Y009998D03*
X038351Y010148D03*
X036851Y010448D03*
X036451Y010448D03*
X035901Y010498D03*
X035501Y010348D03*
X035501Y010048D03*
X035651Y009698D03*
X035951Y009698D03*
X036451Y009748D03*
X036851Y009748D03*
X038751Y009148D03*
X038751Y008848D03*
X039501Y008798D03*
X040601Y009298D03*
X040701Y008948D03*
X041051Y008898D03*
X041251Y009348D03*
X040851Y009748D03*
X041901Y009748D03*
X042551Y009998D03*
X042851Y009998D03*
X042951Y009148D03*
X042951Y008858D03*
X042201Y008788D03*
X042351Y008148D03*
X041251Y008048D03*
X040851Y008048D03*
X040451Y008048D03*
X040451Y007448D03*
X040851Y007448D03*
X041251Y007448D03*
X041251Y007048D03*
X040851Y007048D03*
X040451Y007048D03*
X040451Y006548D03*
X040851Y006548D03*
X041251Y006548D03*
X042101Y005998D03*
X042201Y005698D03*
X042951Y005598D03*
X042951Y005298D03*
X042001Y004998D03*
X041451Y005348D03*
X040851Y005298D03*
X040261Y005248D03*
X039501Y005098D03*
X039751Y004548D03*
X039101Y004498D03*
X038801Y004498D03*
X039501Y003948D03*
X039201Y003848D03*
X038801Y003498D03*
X038501Y003498D03*
X037751Y003548D03*
X037351Y003548D03*
X036951Y003548D03*
X035551Y003848D03*
X035151Y003848D03*
X034751Y003848D03*
X033851Y003848D03*
X033451Y003848D03*
X033051Y003848D03*
X033051Y003348D03*
X033451Y003348D03*
X033851Y003348D03*
X034751Y004248D03*
X035151Y004248D03*
X035551Y004248D03*
X035551Y005398D03*
X035551Y005798D03*
X034451Y006548D03*
X033251Y006348D03*
X033251Y005998D03*
X032851Y006348D03*
X032451Y006348D03*
X033251Y005598D03*
X033251Y005198D03*
X033251Y004848D03*
X032851Y004848D03*
X032451Y004848D03*
X036851Y006648D03*
X037151Y006648D03*
X037551Y006648D03*
X036851Y007248D03*
X036851Y007848D03*
X037151Y007848D03*
X037551Y007848D03*
X037851Y007848D03*
X038301Y007346D03*
X036351Y007848D03*
X032801Y008848D03*
X032401Y008848D03*
X032051Y008848D03*
X031651Y008848D03*
X031551Y009248D03*
X031851Y008348D03*
X031851Y007948D03*
X029401Y008898D03*
X029001Y008898D03*
X026201Y008448D03*
X025801Y008748D03*
X031551Y012648D03*
X031951Y012648D03*
X032751Y012948D03*
X034251Y013498D03*
X034251Y013798D03*
X034901Y013648D03*
X034851Y013248D03*
X034851Y012948D03*
X034301Y012698D03*
X034951Y012448D03*
X035701Y012198D03*
X036351Y011948D03*
X036851Y011448D03*
X036601Y011098D03*
X034701Y011448D03*
X034701Y010698D03*
X034701Y010348D03*
X034701Y010048D03*
X035851Y013098D03*
X035951Y013548D03*
X036201Y013848D03*
X035501Y013648D03*
X033851Y015048D03*
X034051Y015348D03*
X033801Y015698D03*
X034051Y016248D03*
X035051Y015298D03*
X035451Y015298D03*
X036051Y015348D03*
X036401Y016798D03*
X037101Y016948D03*
X036401Y017248D03*
X037851Y017148D03*
X037851Y016848D03*
X038951Y016648D03*
X039251Y016648D03*
X039551Y016648D03*
X039551Y016948D03*
X039551Y017248D03*
X040101Y017148D03*
X039551Y016348D03*
X039251Y016348D03*
X038951Y016348D03*
X041551Y018348D03*
X041951Y018348D03*
X041951Y018748D03*
X041551Y018748D03*
X041551Y019148D03*
X041951Y019148D03*
X043551Y019048D03*
X044251Y018948D03*
X043001Y018348D03*
X042951Y017548D03*
X042751Y017048D03*
X047351Y019898D03*
X046451Y020648D03*
X046451Y021248D03*
X046451Y021848D03*
X045101Y021548D03*
X043051Y023148D03*
X043251Y023648D03*
X045451Y023848D03*
X045551Y012748D03*
X045951Y012748D03*
X045951Y012348D03*
X045551Y012348D03*
X045151Y012148D03*
X044651Y012148D03*
X046051Y011698D03*
X046451Y010148D03*
X046751Y008948D03*
X046451Y008048D03*
X046551Y007648D03*
X047201Y006998D03*
X045751Y006948D03*
X045151Y007398D03*
X044851Y007848D03*
X044551Y007848D03*
X044151Y007848D03*
X043851Y007848D03*
X043401Y007150D03*
X043851Y006648D03*
X044151Y006648D03*
X044551Y006648D03*
X044851Y006648D03*
X044751Y005698D03*
X045401Y005298D03*
X045701Y005298D03*
X046751Y005148D03*
X047051Y005148D03*
X047051Y004748D03*
X046751Y004748D03*
X045701Y004498D03*
X045401Y004498D03*
X045401Y003998D03*
X045701Y003998D03*
X045701Y003198D03*
X045401Y003198D03*
X043651Y004448D03*
X042901Y004498D03*
X042601Y004498D03*
X042001Y003898D03*
X042351Y003648D03*
X041351Y003648D03*
X040951Y003898D03*
X040601Y003898D03*
X041401Y004448D03*
X041351Y003198D03*
X040951Y003198D03*
X040551Y003198D03*
X039201Y002798D03*
X038801Y002698D03*
X038501Y002698D03*
X040551Y001598D03*
X040951Y001598D03*
X041351Y001598D03*
X042651Y002198D03*
X042651Y002598D03*
X043651Y001748D03*
X043951Y001748D03*
X044251Y001748D03*
X044251Y001348D03*
X043951Y001348D03*
X043651Y001348D03*
X038751Y005348D03*
X038751Y005638D03*
X039501Y005708D03*
X045051Y008198D03*
D11*
X046951Y004148D03*
X045251Y001548D03*
X037051Y003048D03*
X032351Y008148D03*
X041651Y017648D03*
X010351Y023748D03*
X008851Y023748D03*
X008851Y021748D03*
X007351Y021748D03*
X007351Y020248D03*
X008851Y020248D03*
X005851Y020248D03*
D12*
X004001Y025598D02*
X004001Y000898D01*
X048701Y000898D01*
X048701Y025598D01*
X004001Y025598D01*
X004001Y025570D02*
X048701Y025570D01*
X048701Y025471D02*
X004001Y025471D01*
X004001Y025373D02*
X048701Y025373D01*
X048701Y025274D02*
X004001Y025274D01*
X004001Y025176D02*
X048701Y025176D01*
X048701Y025077D02*
X004001Y025077D01*
X004001Y024979D02*
X048701Y024979D01*
X048701Y024880D02*
X047501Y024880D01*
X047478Y024890D02*
X047223Y024890D01*
X046987Y024792D01*
X046806Y024612D01*
X046709Y024376D01*
X046709Y024120D01*
X046806Y023884D01*
X046987Y023704D01*
X047223Y023606D01*
X047478Y023606D01*
X047714Y023704D01*
X047895Y023884D01*
X047993Y024120D01*
X047993Y024376D01*
X047895Y024612D01*
X047714Y024792D01*
X047478Y024890D01*
X047725Y024782D02*
X048701Y024782D01*
X048701Y024683D02*
X047823Y024683D01*
X047906Y024585D02*
X048701Y024585D01*
X048701Y024486D02*
X047947Y024486D01*
X047988Y024388D02*
X048701Y024388D01*
X048701Y024289D02*
X047993Y024289D01*
X047993Y024191D02*
X048701Y024191D01*
X048701Y024092D02*
X047981Y024092D01*
X047940Y023994D02*
X048701Y023994D01*
X048701Y023895D02*
X047900Y023895D01*
X047808Y023797D02*
X048701Y023797D01*
X048701Y023698D02*
X047702Y023698D01*
X046999Y023698D02*
X010667Y023698D01*
X010667Y023685D02*
X010619Y023569D01*
X010530Y023480D01*
X010414Y023432D01*
X010288Y023432D01*
X010171Y023480D01*
X010083Y023569D01*
X010034Y023685D01*
X010034Y023811D01*
X010083Y023927D01*
X010171Y024016D01*
X010288Y024064D01*
X010414Y024064D01*
X010530Y024016D01*
X010619Y023927D01*
X010667Y023811D01*
X010667Y023685D01*
X010632Y023600D02*
X048701Y023600D01*
X048701Y023501D02*
X010551Y023501D01*
X010150Y023501D02*
X009051Y023501D01*
X009030Y023480D02*
X009119Y023569D01*
X009167Y023685D01*
X009167Y023811D01*
X009119Y023927D01*
X009030Y024016D01*
X008914Y024064D01*
X008788Y024064D01*
X008671Y024016D01*
X008583Y023927D01*
X008534Y023811D01*
X008534Y023685D01*
X008583Y023569D01*
X008671Y023480D01*
X008788Y023432D01*
X008914Y023432D01*
X009030Y023480D01*
X009132Y023600D02*
X010070Y023600D01*
X010034Y023698D02*
X009167Y023698D01*
X009167Y023797D02*
X010034Y023797D01*
X010069Y023895D02*
X009132Y023895D01*
X009052Y023994D02*
X010149Y023994D01*
X010552Y023994D02*
X010981Y023994D01*
X010981Y023957D02*
X011110Y023828D01*
X011292Y023828D01*
X011421Y023957D01*
X011421Y024139D01*
X011292Y024268D01*
X011110Y024268D01*
X010981Y024139D01*
X010981Y023957D01*
X011042Y023895D02*
X010632Y023895D01*
X010667Y023797D02*
X046893Y023797D01*
X046802Y023895D02*
X011359Y023895D01*
X011421Y023994D02*
X046761Y023994D01*
X046720Y024092D02*
X011421Y024092D01*
X011369Y024191D02*
X046709Y024191D01*
X046709Y024289D02*
X011603Y024289D01*
X011542Y024228D02*
X011671Y024357D01*
X011671Y024539D01*
X011542Y024668D01*
X011360Y024668D01*
X011231Y024539D01*
X011231Y024357D01*
X011360Y024228D01*
X011542Y024228D01*
X011671Y024388D02*
X046714Y024388D01*
X046754Y024486D02*
X011671Y024486D01*
X011625Y024585D02*
X046795Y024585D01*
X046878Y024683D02*
X005823Y024683D01*
X005895Y024612D02*
X005714Y024792D01*
X005478Y024890D01*
X005223Y024890D01*
X004987Y024792D01*
X004806Y024612D01*
X004709Y024376D01*
X004709Y024120D01*
X004806Y023884D01*
X004987Y023704D01*
X005223Y023606D01*
X005478Y023606D01*
X005714Y023704D01*
X005895Y023884D01*
X005993Y024120D01*
X005993Y024376D01*
X005895Y024612D01*
X005906Y024585D02*
X011277Y024585D01*
X011231Y024486D02*
X005947Y024486D01*
X005988Y024388D02*
X011231Y024388D01*
X011298Y024289D02*
X005993Y024289D01*
X005993Y024191D02*
X011033Y024191D01*
X010981Y024092D02*
X005981Y024092D01*
X005940Y023994D02*
X008649Y023994D01*
X008569Y023895D02*
X005900Y023895D01*
X005808Y023797D02*
X008534Y023797D01*
X008534Y023698D02*
X005702Y023698D01*
X004999Y023698D02*
X004001Y023698D01*
X004001Y023600D02*
X008570Y023600D01*
X008650Y023501D02*
X004001Y023501D01*
X004001Y023403D02*
X048701Y023403D01*
X048701Y023304D02*
X043205Y023304D01*
X043142Y023368D02*
X042960Y023368D01*
X042831Y023239D01*
X042831Y023057D01*
X042960Y022928D01*
X043142Y022928D01*
X043271Y023057D01*
X043271Y023239D01*
X043142Y023368D01*
X043271Y023206D02*
X048701Y023206D01*
X048701Y023107D02*
X043271Y023107D01*
X043223Y023009D02*
X048701Y023009D01*
X048701Y022910D02*
X037116Y022910D01*
X037116Y022917D02*
X037063Y023044D01*
X036966Y023142D01*
X036838Y023195D01*
X036700Y023195D01*
X036573Y023142D01*
X036475Y023044D01*
X036422Y022917D01*
X036422Y022779D01*
X036475Y022651D01*
X036573Y022554D01*
X036700Y022501D01*
X036838Y022501D01*
X036966Y022554D01*
X037063Y022651D01*
X037116Y022779D01*
X037116Y022917D01*
X037078Y023009D02*
X042878Y023009D01*
X042831Y023107D02*
X037000Y023107D01*
X037116Y022812D02*
X048701Y022812D01*
X048701Y022713D02*
X037089Y022713D01*
X037027Y022615D02*
X048701Y022615D01*
X048701Y022516D02*
X036875Y022516D01*
X036663Y022516D02*
X034880Y022516D01*
X034842Y022478D02*
X034971Y022607D01*
X034971Y022789D01*
X034842Y022918D01*
X034660Y022918D01*
X034531Y022789D01*
X034531Y022607D01*
X034660Y022478D01*
X034842Y022478D01*
X034971Y022615D02*
X036512Y022615D01*
X036449Y022713D02*
X034971Y022713D01*
X034948Y022812D02*
X036422Y022812D01*
X036422Y022910D02*
X034849Y022910D01*
X034652Y022910D02*
X033179Y022910D01*
X033179Y022917D02*
X033126Y023044D01*
X033029Y023142D01*
X032901Y023195D01*
X032763Y023195D01*
X032636Y023142D01*
X032538Y023044D01*
X032485Y022917D01*
X032485Y022779D01*
X032538Y022651D01*
X032636Y022554D01*
X032763Y022501D01*
X032901Y022501D01*
X033029Y022554D01*
X033126Y022651D01*
X033179Y022779D01*
X033179Y022917D01*
X033141Y023009D02*
X036460Y023009D01*
X036538Y023107D02*
X033063Y023107D01*
X033179Y022812D02*
X034554Y022812D01*
X034531Y022713D02*
X033152Y022713D01*
X033090Y022615D02*
X034531Y022615D01*
X034621Y022516D02*
X032938Y022516D01*
X032726Y022516D02*
X004001Y022516D01*
X004001Y022418D02*
X048701Y022418D01*
X048701Y022319D02*
X012740Y022319D01*
X012692Y022368D02*
X012510Y022368D01*
X012381Y022239D01*
X012381Y022057D01*
X012510Y021928D01*
X012692Y021928D01*
X012821Y022057D01*
X012821Y022239D01*
X012692Y022368D01*
X012821Y022221D02*
X048701Y022221D01*
X048701Y022122D02*
X012821Y022122D01*
X012788Y022024D02*
X046316Y022024D01*
X046360Y022068D02*
X046231Y021939D01*
X046231Y021757D01*
X046360Y021628D01*
X046542Y021628D01*
X046671Y021757D01*
X046671Y021939D01*
X046542Y022068D01*
X046360Y022068D01*
X046231Y021925D02*
X007619Y021925D01*
X007619Y021927D02*
X007530Y022016D01*
X007414Y022064D01*
X007288Y022064D01*
X007171Y022016D01*
X007083Y021927D01*
X007034Y021811D01*
X007034Y021685D01*
X007083Y021569D01*
X007171Y021480D01*
X007288Y021432D01*
X007414Y021432D01*
X007530Y021480D01*
X007619Y021569D01*
X007667Y021685D01*
X007667Y021811D01*
X007619Y021927D01*
X007660Y021827D02*
X031819Y021827D01*
X031860Y021868D02*
X031731Y021739D01*
X031731Y021557D01*
X031860Y021428D01*
X032042Y021428D01*
X032171Y021557D01*
X032171Y021739D01*
X032042Y021868D01*
X031860Y021868D01*
X031731Y021728D02*
X007667Y021728D01*
X007644Y021630D02*
X031731Y021630D01*
X031756Y021531D02*
X007581Y021531D01*
X007417Y021433D02*
X031525Y021433D01*
X031560Y021468D02*
X031431Y021339D01*
X031431Y021157D01*
X031560Y021028D01*
X031742Y021028D01*
X031871Y021157D01*
X031871Y021339D01*
X031742Y021468D01*
X031560Y021468D01*
X031431Y021334D02*
X004001Y021334D01*
X004001Y021236D02*
X010208Y021236D01*
X010240Y021268D02*
X010111Y021139D01*
X010111Y020957D01*
X010240Y020828D01*
X010422Y020828D01*
X010486Y020892D01*
X010550Y020828D01*
X010732Y020828D01*
X010796Y020892D01*
X010860Y020828D01*
X011042Y020828D01*
X011171Y020957D01*
X011171Y021139D01*
X011042Y021268D01*
X010860Y021268D01*
X010796Y021204D01*
X010732Y021268D01*
X010550Y021268D01*
X010486Y021204D01*
X010422Y021268D01*
X010240Y021268D01*
X010111Y021137D02*
X004001Y021137D01*
X004001Y021039D02*
X010111Y021039D01*
X010127Y020940D02*
X004001Y020940D01*
X004001Y020842D02*
X010225Y020842D01*
X010436Y020842D02*
X010535Y020842D01*
X010746Y020842D02*
X010845Y020842D01*
X011056Y020842D02*
X011645Y020842D01*
X011660Y020828D02*
X011842Y020828D01*
X011901Y020887D01*
X011960Y020828D01*
X012142Y020828D01*
X012201Y020887D01*
X012260Y020828D01*
X012442Y020828D01*
X012571Y020957D01*
X012571Y021139D01*
X012442Y021268D01*
X012260Y021268D01*
X012201Y021209D01*
X012142Y021268D01*
X011960Y021268D01*
X011901Y021209D01*
X011842Y021268D01*
X011660Y021268D01*
X011531Y021139D01*
X011531Y020957D01*
X011660Y020828D01*
X011547Y020940D02*
X011154Y020940D01*
X011171Y021039D02*
X011531Y021039D01*
X011531Y021137D02*
X011171Y021137D01*
X011074Y021236D02*
X011628Y021236D01*
X011874Y021236D02*
X011928Y021236D01*
X012174Y021236D02*
X012228Y021236D01*
X012474Y021236D02*
X031431Y021236D01*
X031450Y021137D02*
X012571Y021137D01*
X012571Y021039D02*
X031548Y021039D01*
X031492Y020918D02*
X031310Y020918D01*
X031181Y020789D01*
X031181Y020607D01*
X031310Y020478D01*
X031492Y020478D01*
X031621Y020607D01*
X031621Y020789D01*
X031492Y020918D01*
X031568Y020842D02*
X032781Y020842D01*
X032781Y020757D02*
X032910Y020628D01*
X033092Y020628D01*
X033221Y020757D01*
X033221Y020939D01*
X033092Y021068D01*
X032910Y021068D01*
X032781Y020939D01*
X032781Y020757D01*
X032794Y020743D02*
X031621Y020743D01*
X031621Y020645D02*
X032892Y020645D01*
X033109Y020645D02*
X034581Y020645D01*
X034581Y020607D02*
X034710Y020478D01*
X034892Y020478D01*
X035021Y020607D01*
X035021Y020789D01*
X034892Y020918D01*
X034710Y020918D01*
X034581Y020789D01*
X034581Y020607D01*
X034641Y020546D02*
X031560Y020546D01*
X031241Y020546D02*
X008956Y020546D01*
X008914Y020564D02*
X008788Y020564D01*
X008671Y020516D01*
X008583Y020427D01*
X008534Y020311D01*
X008534Y020185D01*
X008583Y020069D01*
X008671Y019980D01*
X008788Y019932D01*
X008914Y019932D01*
X009030Y019980D01*
X009119Y020069D01*
X009167Y020185D01*
X009167Y020311D01*
X009119Y020427D01*
X009030Y020516D01*
X008914Y020564D01*
X008745Y020546D02*
X007456Y020546D01*
X007414Y020564D02*
X007288Y020564D01*
X007171Y020516D01*
X007083Y020427D01*
X007034Y020311D01*
X007034Y020185D01*
X007083Y020069D01*
X007171Y019980D01*
X007288Y019932D01*
X007414Y019932D01*
X007530Y019980D01*
X007619Y020069D01*
X007667Y020185D01*
X007667Y020311D01*
X007619Y020427D01*
X007530Y020516D01*
X007414Y020564D01*
X007245Y020546D02*
X005956Y020546D01*
X005914Y020564D02*
X005788Y020564D01*
X005671Y020516D01*
X005583Y020427D01*
X005534Y020311D01*
X005534Y020185D01*
X005583Y020069D01*
X005671Y019980D01*
X005788Y019932D01*
X005914Y019932D01*
X006030Y019980D01*
X006119Y020069D01*
X006167Y020185D01*
X006167Y020311D01*
X006119Y020427D01*
X006030Y020516D01*
X005914Y020564D01*
X005745Y020546D02*
X004001Y020546D01*
X004001Y020448D02*
X005603Y020448D01*
X005550Y020349D02*
X004001Y020349D01*
X004001Y020251D02*
X005534Y020251D01*
X005548Y020152D02*
X004001Y020152D01*
X004001Y020054D02*
X005597Y020054D01*
X005730Y019955D02*
X004001Y019955D01*
X004001Y019857D02*
X010230Y019857D01*
X010260Y019828D02*
X010442Y019828D01*
X010501Y019887D01*
X010560Y019828D01*
X010742Y019828D01*
X010801Y019887D01*
X010860Y019828D01*
X011042Y019828D01*
X011171Y019957D01*
X011171Y020139D01*
X011042Y020268D01*
X010860Y020268D01*
X010801Y020209D01*
X010742Y020268D01*
X010560Y020268D01*
X010501Y020209D01*
X010442Y020268D01*
X010260Y020268D01*
X010131Y020139D01*
X010131Y019957D01*
X010260Y019828D01*
X010132Y019955D02*
X008971Y019955D01*
X009104Y020054D02*
X010131Y020054D01*
X010144Y020152D02*
X009153Y020152D01*
X009167Y020251D02*
X010243Y020251D01*
X010459Y020251D02*
X010543Y020251D01*
X010759Y020251D02*
X010843Y020251D01*
X011059Y020251D02*
X032943Y020251D01*
X032960Y020268D02*
X032831Y020139D01*
X032831Y019968D01*
X032760Y019968D01*
X032631Y019839D01*
X032631Y019657D01*
X032760Y019528D01*
X032942Y019528D01*
X033071Y019657D01*
X033071Y019828D01*
X033142Y019828D01*
X033271Y019957D01*
X033271Y020139D01*
X033142Y020268D01*
X032960Y020268D01*
X032844Y020152D02*
X012507Y020152D01*
X012571Y020089D02*
X012442Y020218D01*
X012260Y020218D01*
X012201Y020159D01*
X012142Y020218D01*
X011960Y020218D01*
X011901Y020159D01*
X011842Y020218D01*
X011660Y020218D01*
X011531Y020089D01*
X011531Y019907D01*
X011660Y019778D01*
X011842Y019778D01*
X011901Y019837D01*
X011960Y019778D01*
X012142Y019778D01*
X012201Y019837D01*
X012260Y019778D01*
X012442Y019778D01*
X012571Y019907D01*
X012571Y020089D01*
X012571Y020054D02*
X032831Y020054D01*
X032747Y019955D02*
X012571Y019955D01*
X012521Y019857D02*
X012699Y019857D01*
X012710Y019868D02*
X012581Y019739D01*
X012581Y019557D01*
X012710Y019428D01*
X012892Y019428D01*
X013021Y019557D01*
X013021Y019739D01*
X012892Y019868D01*
X012710Y019868D01*
X012600Y019758D02*
X004001Y019758D01*
X004001Y019660D02*
X012581Y019660D01*
X012581Y019561D02*
X004001Y019561D01*
X004001Y019463D02*
X012674Y019463D01*
X012927Y019463D02*
X029205Y019463D01*
X029181Y019439D02*
X029181Y019257D01*
X029310Y019128D01*
X029492Y019128D01*
X029621Y019257D01*
X029621Y019439D01*
X029492Y019568D01*
X029310Y019568D01*
X029181Y019439D01*
X029181Y019364D02*
X004001Y019364D01*
X004001Y019266D02*
X029181Y019266D01*
X029270Y019167D02*
X004001Y019167D01*
X004001Y019069D02*
X032131Y019069D01*
X032131Y019089D02*
X032131Y018907D01*
X032260Y018778D01*
X032442Y018778D01*
X032571Y018907D01*
X032571Y019089D01*
X032532Y019128D01*
X032692Y019128D01*
X032821Y019257D01*
X032821Y019439D01*
X032692Y019568D01*
X032510Y019568D01*
X032381Y019439D01*
X032381Y019257D01*
X032420Y019218D01*
X032260Y019218D01*
X032131Y019089D01*
X032209Y019167D02*
X029531Y019167D01*
X029621Y019266D02*
X032381Y019266D01*
X032381Y019364D02*
X029621Y019364D01*
X029597Y019463D02*
X032405Y019463D01*
X032503Y019561D02*
X029498Y019561D01*
X029303Y019561D02*
X013021Y019561D01*
X013021Y019660D02*
X032631Y019660D01*
X032631Y019758D02*
X013001Y019758D01*
X012903Y019857D02*
X032649Y019857D01*
X032698Y019561D02*
X032726Y019561D01*
X032797Y019463D02*
X033155Y019463D01*
X033160Y019468D02*
X033031Y019339D01*
X033031Y019157D01*
X033160Y019028D01*
X033342Y019028D01*
X033471Y019157D01*
X033471Y019339D01*
X033342Y019468D01*
X033160Y019468D01*
X033056Y019364D02*
X032821Y019364D01*
X032821Y019266D02*
X033031Y019266D01*
X033031Y019167D02*
X032731Y019167D01*
X032571Y019069D02*
X033118Y019069D01*
X033383Y019069D02*
X041331Y019069D01*
X041331Y019057D02*
X041440Y018948D01*
X041331Y018839D01*
X041331Y018657D01*
X041440Y018548D01*
X041331Y018439D01*
X041331Y018257D01*
X041460Y018128D01*
X041642Y018128D01*
X041751Y018237D01*
X041860Y018128D01*
X042042Y018128D01*
X042171Y018257D01*
X042171Y018439D01*
X042062Y018548D01*
X042171Y018657D01*
X042171Y018839D01*
X042062Y018948D01*
X042171Y019057D01*
X042171Y019239D01*
X042042Y019368D01*
X041860Y019368D01*
X041751Y019259D01*
X041642Y019368D01*
X041460Y019368D01*
X041331Y019239D01*
X041331Y019057D01*
X041331Y019167D02*
X033471Y019167D01*
X033471Y019266D02*
X041358Y019266D01*
X041456Y019364D02*
X036678Y019364D01*
X036642Y019328D02*
X036771Y019457D01*
X036771Y019639D01*
X036642Y019768D01*
X036460Y019768D01*
X036331Y019639D01*
X036331Y019457D01*
X036460Y019328D01*
X036642Y019328D01*
X036771Y019463D02*
X044631Y019463D01*
X044631Y019489D02*
X044631Y019307D01*
X044760Y019178D01*
X044942Y019178D01*
X045071Y019307D01*
X045071Y019489D01*
X044942Y019618D01*
X044760Y019618D01*
X044631Y019489D01*
X044703Y019561D02*
X036771Y019561D01*
X036750Y019660D02*
X038677Y019660D01*
X038631Y019707D02*
X038760Y019578D01*
X038942Y019578D01*
X039071Y019707D01*
X039071Y019889D01*
X038942Y020018D01*
X038760Y020018D01*
X038631Y019889D01*
X038631Y019707D01*
X038631Y019758D02*
X036651Y019758D01*
X036450Y019758D02*
X036051Y019758D01*
X036042Y019768D02*
X035860Y019768D01*
X035731Y019639D01*
X035731Y019457D01*
X035860Y019328D01*
X036042Y019328D01*
X036171Y019457D01*
X036171Y019639D01*
X036042Y019768D01*
X036150Y019660D02*
X036352Y019660D01*
X036331Y019561D02*
X036171Y019561D01*
X036171Y019463D02*
X036331Y019463D01*
X036423Y019364D02*
X036078Y019364D01*
X035823Y019364D02*
X033445Y019364D01*
X033347Y019463D02*
X035731Y019463D01*
X035731Y019561D02*
X035375Y019561D01*
X035342Y019528D02*
X035471Y019657D01*
X035471Y019839D01*
X035342Y019968D01*
X035160Y019968D01*
X035031Y019839D01*
X035031Y019657D01*
X035160Y019528D01*
X035342Y019528D01*
X035471Y019660D02*
X035752Y019660D01*
X035850Y019758D02*
X035471Y019758D01*
X035453Y019857D02*
X038631Y019857D01*
X038697Y019955D02*
X035354Y019955D01*
X035147Y019955D02*
X033269Y019955D01*
X033271Y020054D02*
X048701Y020054D01*
X048701Y020152D02*
X034566Y020152D01*
X034621Y020207D02*
X034492Y020078D01*
X034310Y020078D01*
X034181Y020207D01*
X034181Y020389D01*
X034310Y020518D01*
X034492Y020518D01*
X034621Y020389D01*
X034621Y020207D01*
X034621Y020251D02*
X042836Y020251D01*
X042860Y020228D02*
X043042Y020228D01*
X043171Y020357D01*
X043171Y020539D01*
X043042Y020668D01*
X042860Y020668D01*
X042731Y020539D01*
X042731Y020357D01*
X042860Y020228D01*
X042738Y020349D02*
X034621Y020349D01*
X034562Y020448D02*
X042731Y020448D01*
X042738Y020546D02*
X034960Y020546D01*
X035021Y020645D02*
X042837Y020645D01*
X042742Y020828D02*
X042871Y020957D01*
X042871Y021139D01*
X042742Y021268D01*
X042560Y021268D01*
X042431Y021139D01*
X042431Y020957D01*
X042560Y020828D01*
X042742Y020828D01*
X042756Y020842D02*
X046334Y020842D01*
X046360Y020868D02*
X046231Y020739D01*
X046231Y020557D01*
X046360Y020428D01*
X046542Y020428D01*
X046671Y020557D01*
X046671Y020739D01*
X046542Y020868D01*
X046360Y020868D01*
X046360Y021028D02*
X046542Y021028D01*
X046671Y021157D01*
X046671Y021339D01*
X046542Y021468D01*
X046360Y021468D01*
X046231Y021339D01*
X046231Y021157D01*
X046360Y021028D01*
X046348Y021039D02*
X042871Y021039D01*
X042871Y021137D02*
X046250Y021137D01*
X046231Y021236D02*
X042774Y021236D01*
X042528Y021236D02*
X037371Y021236D01*
X037371Y021207D02*
X037242Y021078D01*
X037060Y021078D01*
X036931Y021207D01*
X036931Y021389D01*
X037060Y021518D01*
X037242Y021518D01*
X037371Y021389D01*
X037371Y021207D01*
X037301Y021137D02*
X042431Y021137D01*
X042431Y021039D02*
X033121Y021039D01*
X033219Y020940D02*
X042447Y020940D01*
X042545Y020842D02*
X034968Y020842D01*
X035021Y020743D02*
X046235Y020743D01*
X046231Y020645D02*
X043065Y020645D01*
X043163Y020546D02*
X046241Y020546D01*
X046339Y020448D02*
X043171Y020448D01*
X043163Y020349D02*
X048701Y020349D01*
X048701Y020251D02*
X043065Y020251D01*
X042854Y020940D02*
X048701Y020940D01*
X048701Y020842D02*
X046568Y020842D01*
X046666Y020743D02*
X048701Y020743D01*
X048701Y020645D02*
X046671Y020645D01*
X046660Y020546D02*
X048701Y020546D01*
X048701Y020448D02*
X046562Y020448D01*
X046553Y021039D02*
X048701Y021039D01*
X048701Y021137D02*
X046651Y021137D01*
X046671Y021236D02*
X048701Y021236D01*
X048701Y021334D02*
X046671Y021334D01*
X046577Y021433D02*
X048701Y021433D01*
X048701Y021531D02*
X045321Y021531D01*
X045321Y021457D02*
X045192Y021328D01*
X045010Y021328D01*
X044881Y021457D01*
X044881Y021639D01*
X045010Y021768D01*
X045192Y021768D01*
X045321Y021639D01*
X045321Y021457D01*
X045297Y021433D02*
X046325Y021433D01*
X046231Y021334D02*
X045198Y021334D01*
X045003Y021334D02*
X037371Y021334D01*
X037327Y021433D02*
X044904Y021433D01*
X044881Y021531D02*
X032145Y021531D01*
X032171Y021630D02*
X044881Y021630D01*
X044970Y021728D02*
X032171Y021728D01*
X032083Y021827D02*
X046231Y021827D01*
X046259Y021728D02*
X045231Y021728D01*
X045321Y021630D02*
X046357Y021630D01*
X046544Y021630D02*
X048701Y021630D01*
X048701Y021728D02*
X046642Y021728D01*
X046671Y021827D02*
X048701Y021827D01*
X048701Y021925D02*
X046671Y021925D01*
X046586Y022024D02*
X048701Y022024D01*
X048701Y019955D02*
X039004Y019955D01*
X039071Y019857D02*
X048701Y019857D01*
X048701Y019758D02*
X039071Y019758D01*
X039024Y019660D02*
X048701Y019660D01*
X048701Y019561D02*
X044998Y019561D01*
X045071Y019463D02*
X048701Y019463D01*
X048701Y019364D02*
X045071Y019364D01*
X045030Y019266D02*
X048701Y019266D01*
X048701Y019167D02*
X044342Y019167D01*
X044342Y019168D02*
X044160Y019168D01*
X044031Y019039D01*
X044031Y018857D01*
X044160Y018728D01*
X044342Y018728D01*
X044471Y018857D01*
X044471Y019039D01*
X044342Y019168D01*
X044441Y019069D02*
X045661Y019069D01*
X045710Y019118D02*
X045581Y018989D01*
X045581Y018807D01*
X045710Y018678D01*
X045870Y018678D01*
X045831Y018639D01*
X045831Y018457D01*
X045960Y018328D01*
X046142Y018328D01*
X046271Y018457D01*
X046271Y018639D01*
X046142Y018768D01*
X045982Y018768D01*
X046021Y018807D01*
X046021Y018989D01*
X045892Y019118D01*
X045710Y019118D01*
X045581Y018970D02*
X044471Y018970D01*
X044471Y018872D02*
X045581Y018872D01*
X045614Y018773D02*
X044387Y018773D01*
X044114Y018773D02*
X042171Y018773D01*
X042171Y018675D02*
X045867Y018675D01*
X045831Y018576D02*
X042090Y018576D01*
X042132Y018478D02*
X042820Y018478D01*
X042781Y018439D02*
X042781Y018257D01*
X042910Y018128D01*
X043092Y018128D01*
X043221Y018257D01*
X043221Y018439D01*
X043092Y018568D01*
X042910Y018568D01*
X042781Y018439D01*
X042781Y018379D02*
X042171Y018379D01*
X042171Y018281D02*
X042781Y018281D01*
X042855Y018182D02*
X042096Y018182D01*
X041805Y018182D02*
X041696Y018182D01*
X041714Y017964D02*
X041588Y017964D01*
X041471Y017916D01*
X041383Y017827D01*
X041334Y017711D01*
X041334Y017585D01*
X041383Y017469D01*
X041471Y017380D01*
X041588Y017332D01*
X041714Y017332D01*
X041830Y017380D01*
X041919Y017469D01*
X041967Y017585D01*
X041967Y017711D01*
X041919Y017827D01*
X041830Y017916D01*
X041714Y017964D01*
X041859Y017887D02*
X048701Y017887D01*
X048701Y017985D02*
X034371Y017985D01*
X034371Y017989D02*
X034242Y018118D01*
X034060Y018118D01*
X033931Y017989D01*
X033931Y017807D01*
X034060Y017678D01*
X034242Y017678D01*
X034371Y017807D01*
X034371Y017989D01*
X034371Y017887D02*
X041442Y017887D01*
X041367Y017788D02*
X034352Y017788D01*
X034254Y017690D02*
X041334Y017690D01*
X041334Y017591D02*
X034018Y017591D01*
X034071Y017539D02*
X033942Y017668D01*
X033760Y017668D01*
X033631Y017539D01*
X033631Y017357D01*
X033760Y017228D01*
X033942Y017228D01*
X034071Y017357D01*
X034071Y017539D01*
X034071Y017493D02*
X041373Y017493D01*
X041457Y017394D02*
X039715Y017394D01*
X039771Y017339D02*
X039642Y017468D01*
X039460Y017468D01*
X039331Y017339D01*
X039331Y017157D01*
X039390Y017098D01*
X039331Y017039D01*
X039331Y016868D01*
X039160Y016868D01*
X039101Y016809D01*
X039042Y016868D01*
X038860Y016868D01*
X038731Y016739D01*
X038731Y016557D01*
X038790Y016498D01*
X038731Y016439D01*
X038731Y016257D01*
X038860Y016128D01*
X039042Y016128D01*
X039101Y016187D01*
X039160Y016128D01*
X039342Y016128D01*
X039401Y016187D01*
X039460Y016128D01*
X039642Y016128D01*
X039771Y016257D01*
X039771Y016439D01*
X039712Y016498D01*
X039771Y016557D01*
X039771Y016739D01*
X039712Y016798D01*
X039771Y016857D01*
X039771Y017039D01*
X039712Y017098D01*
X039771Y017157D01*
X039771Y017339D01*
X039771Y017296D02*
X043688Y017296D01*
X043631Y017239D02*
X043631Y017057D01*
X043760Y016928D01*
X043942Y016928D01*
X044071Y017057D01*
X044071Y017239D01*
X043942Y017368D01*
X043760Y017368D01*
X043631Y017239D01*
X043631Y017197D02*
X042912Y017197D01*
X042971Y017139D02*
X042842Y017268D01*
X042660Y017268D01*
X042531Y017139D01*
X042531Y016957D01*
X042660Y016828D01*
X042842Y016828D01*
X042971Y016957D01*
X042971Y017139D01*
X042971Y017099D02*
X043631Y017099D01*
X043687Y017000D02*
X042971Y017000D01*
X042916Y016902D02*
X044431Y016902D01*
X044431Y016939D02*
X044431Y016757D01*
X044560Y016628D01*
X044742Y016628D01*
X044871Y016757D01*
X044871Y016939D01*
X044742Y017068D01*
X044560Y017068D01*
X044431Y016939D01*
X044492Y017000D02*
X044014Y017000D01*
X044071Y017099D02*
X045491Y017099D01*
X045431Y017039D02*
X045431Y016857D01*
X045560Y016728D01*
X045742Y016728D01*
X045871Y016857D01*
X045871Y017039D01*
X045742Y017168D01*
X045560Y017168D01*
X045431Y017039D01*
X045431Y017000D02*
X044809Y017000D01*
X044871Y016902D02*
X045431Y016902D01*
X045484Y016803D02*
X044871Y016803D01*
X044819Y016705D02*
X046297Y016705D01*
X046360Y016768D02*
X046231Y016639D01*
X046231Y016457D01*
X046360Y016328D01*
X046542Y016328D01*
X046671Y016457D01*
X046671Y016639D01*
X046542Y016768D01*
X046360Y016768D01*
X046231Y016606D02*
X039771Y016606D01*
X039771Y016705D02*
X044482Y016705D01*
X044431Y016803D02*
X039717Y016803D01*
X039771Y016902D02*
X042585Y016902D01*
X042531Y017000D02*
X039771Y017000D01*
X039713Y017099D02*
X042531Y017099D01*
X042589Y017197D02*
X039771Y017197D01*
X039388Y017099D02*
X037261Y017099D01*
X037321Y017039D02*
X037192Y017168D01*
X037010Y017168D01*
X036881Y017039D01*
X036881Y016857D01*
X037010Y016728D01*
X037192Y016728D01*
X037321Y016857D01*
X037321Y017039D01*
X037321Y017000D02*
X039331Y017000D01*
X039331Y016902D02*
X037321Y016902D01*
X037267Y016803D02*
X038795Y016803D01*
X038731Y016705D02*
X004001Y016705D01*
X004001Y016803D02*
X032484Y016803D01*
X032431Y016857D02*
X032560Y016728D01*
X032742Y016728D01*
X032871Y016857D01*
X032871Y017039D01*
X032742Y017168D01*
X032560Y017168D01*
X032431Y017039D01*
X032431Y016857D01*
X032431Y016902D02*
X004001Y016902D01*
X004001Y017000D02*
X032431Y017000D01*
X032491Y017099D02*
X004001Y017099D01*
X004001Y017197D02*
X036181Y017197D01*
X036181Y017157D02*
X036310Y017028D01*
X036492Y017028D01*
X036621Y017157D01*
X036621Y017339D01*
X036492Y017468D01*
X036310Y017468D01*
X036181Y017339D01*
X036181Y017157D01*
X036238Y017099D02*
X032811Y017099D01*
X032871Y017000D02*
X036881Y017000D01*
X036881Y016902D02*
X032871Y016902D01*
X032817Y016803D02*
X036934Y016803D01*
X036941Y017099D02*
X036563Y017099D01*
X036621Y017197D02*
X039331Y017197D01*
X039331Y017296D02*
X036621Y017296D01*
X036565Y017394D02*
X039386Y017394D01*
X038731Y016606D02*
X010553Y016606D01*
X010492Y016668D02*
X010310Y016668D01*
X010181Y016539D01*
X010181Y016357D01*
X010310Y016228D01*
X010492Y016228D01*
X010621Y016357D01*
X010621Y016539D01*
X010492Y016668D01*
X010621Y016508D02*
X038779Y016508D01*
X038731Y016409D02*
X034200Y016409D01*
X034142Y016468D02*
X033960Y016468D01*
X033831Y016339D01*
X033831Y016157D01*
X033960Y016028D01*
X034142Y016028D01*
X034271Y016157D01*
X034271Y016339D01*
X034142Y016468D01*
X034271Y016311D02*
X038731Y016311D01*
X038775Y016212D02*
X034271Y016212D01*
X034228Y016114D02*
X047673Y016114D01*
X047631Y016157D02*
X047760Y016028D01*
X047942Y016028D01*
X048071Y016157D01*
X048071Y016339D01*
X047942Y016468D01*
X047760Y016468D01*
X047631Y016339D01*
X047631Y016157D01*
X047631Y016212D02*
X039726Y016212D01*
X039771Y016311D02*
X047631Y016311D01*
X047701Y016409D02*
X046623Y016409D01*
X046671Y016508D02*
X048701Y016508D01*
X048701Y016606D02*
X046671Y016606D01*
X046605Y016705D02*
X048701Y016705D01*
X048701Y016803D02*
X045817Y016803D01*
X045871Y016902D02*
X048701Y016902D01*
X048701Y017000D02*
X045871Y017000D01*
X045811Y017099D02*
X048701Y017099D01*
X048701Y017197D02*
X044071Y017197D01*
X044014Y017296D02*
X048701Y017296D01*
X048701Y017394D02*
X041844Y017394D01*
X041929Y017493D02*
X048701Y017493D01*
X048701Y017591D02*
X041967Y017591D01*
X041967Y017690D02*
X048701Y017690D01*
X048701Y017788D02*
X041935Y017788D01*
X041405Y018182D02*
X009971Y018182D01*
X009971Y018157D02*
X009842Y018028D01*
X009660Y018028D01*
X009531Y018157D01*
X009531Y018339D01*
X009660Y018468D01*
X009842Y018468D01*
X009971Y018339D01*
X009971Y018157D01*
X009898Y018084D02*
X034026Y018084D01*
X033931Y017985D02*
X004001Y017985D01*
X004001Y017887D02*
X033931Y017887D01*
X033949Y017788D02*
X032271Y017788D01*
X032321Y017739D02*
X032192Y017868D01*
X032010Y017868D01*
X031881Y017739D01*
X031881Y017557D01*
X032010Y017428D01*
X032192Y017428D01*
X032321Y017557D01*
X032321Y017739D01*
X032321Y017690D02*
X034047Y017690D01*
X034071Y017394D02*
X036236Y017394D01*
X036181Y017296D02*
X034010Y017296D01*
X033691Y017296D02*
X025510Y017296D01*
X025571Y017357D02*
X025442Y017228D01*
X025260Y017228D01*
X025131Y017357D01*
X025131Y017539D01*
X025260Y017668D01*
X025442Y017668D01*
X025571Y017539D01*
X025571Y017357D01*
X025571Y017394D02*
X033631Y017394D01*
X033631Y017493D02*
X032257Y017493D01*
X032321Y017591D02*
X033683Y017591D01*
X034276Y018084D02*
X048701Y018084D01*
X048701Y018182D02*
X043146Y018182D01*
X043221Y018281D02*
X048701Y018281D01*
X048701Y018379D02*
X046193Y018379D01*
X046271Y018478D02*
X048701Y018478D01*
X048701Y018576D02*
X046271Y018576D01*
X046235Y018675D02*
X048701Y018675D01*
X048701Y018773D02*
X045987Y018773D01*
X046021Y018872D02*
X048701Y018872D01*
X048701Y018970D02*
X046021Y018970D01*
X045941Y019069D02*
X048701Y019069D01*
X045908Y018379D02*
X043221Y018379D01*
X043182Y018478D02*
X045831Y018478D01*
X044671Y019266D02*
X042144Y019266D01*
X042171Y019167D02*
X044159Y019167D01*
X044061Y019069D02*
X042171Y019069D01*
X042084Y018970D02*
X044031Y018970D01*
X044031Y018872D02*
X042138Y018872D01*
X042045Y019364D02*
X044631Y019364D01*
X041856Y019364D02*
X041645Y019364D01*
X041744Y019266D02*
X041758Y019266D01*
X041417Y018970D02*
X034039Y018970D01*
X034071Y018939D02*
X033942Y019068D01*
X033760Y019068D01*
X033631Y018939D01*
X033631Y018757D01*
X033760Y018628D01*
X033942Y018628D01*
X034071Y018757D01*
X034071Y018939D01*
X034071Y018872D02*
X041364Y018872D01*
X041331Y018773D02*
X037036Y018773D01*
X036992Y018818D02*
X036810Y018818D01*
X036681Y018689D01*
X036681Y018668D01*
X036521Y018668D01*
X036521Y018689D01*
X036392Y018818D01*
X036210Y018818D01*
X036101Y018709D01*
X036042Y018768D01*
X035860Y018768D01*
X035731Y018639D01*
X035731Y018457D01*
X035860Y018328D01*
X036042Y018328D01*
X036151Y018437D01*
X036210Y018378D01*
X036381Y018378D01*
X036381Y018357D01*
X036510Y018228D01*
X036692Y018228D01*
X036821Y018357D01*
X036821Y018378D01*
X036992Y018378D01*
X037121Y018507D01*
X037121Y018689D01*
X036992Y018818D01*
X037121Y018675D02*
X041331Y018675D01*
X041411Y018576D02*
X037121Y018576D01*
X037092Y018478D02*
X041370Y018478D01*
X041331Y018379D02*
X036993Y018379D01*
X036745Y018281D02*
X041331Y018281D01*
X039722Y016508D02*
X046231Y016508D01*
X046278Y016409D02*
X039771Y016409D01*
X039760Y015268D02*
X039631Y015139D01*
X039631Y014957D01*
X039760Y014828D01*
X039942Y014828D01*
X040071Y014957D01*
X040071Y015139D01*
X039942Y015268D01*
X039760Y015268D01*
X039719Y015227D02*
X035271Y015227D01*
X035271Y015207D02*
X035142Y015078D01*
X034960Y015078D01*
X034831Y015207D01*
X034831Y015389D01*
X034960Y015518D01*
X035142Y015518D01*
X035271Y015389D01*
X035271Y015207D01*
X035193Y015129D02*
X039631Y015129D01*
X039631Y015030D02*
X034071Y015030D01*
X034071Y014957D02*
X034071Y015128D01*
X034142Y015128D01*
X034271Y015257D01*
X034271Y015439D01*
X034142Y015568D01*
X033982Y015568D01*
X034021Y015607D01*
X034021Y015789D01*
X033892Y015918D01*
X033710Y015918D01*
X033581Y015789D01*
X033581Y015607D01*
X033710Y015478D01*
X033870Y015478D01*
X033831Y015439D01*
X033831Y015268D01*
X033760Y015268D01*
X033631Y015139D01*
X033631Y014957D01*
X033760Y014828D01*
X033942Y014828D01*
X034071Y014957D01*
X034046Y014932D02*
X039655Y014932D01*
X039754Y014833D02*
X033947Y014833D01*
X033754Y014833D02*
X032271Y014833D01*
X032271Y014839D02*
X032142Y014968D01*
X031960Y014968D01*
X031831Y014839D01*
X031831Y014657D01*
X031960Y014528D01*
X032142Y014528D01*
X032271Y014657D01*
X032271Y014839D01*
X032271Y014735D02*
X048701Y014735D01*
X048701Y014833D02*
X039947Y014833D01*
X040046Y014932D02*
X048701Y014932D01*
X048701Y015030D02*
X040071Y015030D01*
X040071Y015129D02*
X041658Y015129D01*
X041660Y015128D02*
X041842Y015128D01*
X041971Y015257D01*
X041971Y015439D01*
X041842Y015568D01*
X041660Y015568D01*
X041531Y015439D01*
X041531Y015257D01*
X041660Y015128D01*
X041560Y015227D02*
X039982Y015227D01*
X038871Y014239D02*
X038742Y014368D01*
X038560Y014368D01*
X038431Y014239D01*
X038431Y014057D01*
X038560Y013928D01*
X038742Y013928D01*
X038871Y014057D01*
X038871Y014239D01*
X038867Y014242D02*
X044334Y014242D01*
X044331Y014239D02*
X044331Y014057D01*
X044460Y013928D01*
X044642Y013928D01*
X044771Y014057D01*
X044771Y014239D01*
X044642Y014368D01*
X044460Y014368D01*
X044331Y014239D01*
X044331Y014144D02*
X039466Y014144D01*
X039442Y014168D02*
X039260Y014168D01*
X039131Y014039D01*
X039131Y013857D01*
X039260Y013728D01*
X039442Y013728D01*
X039571Y013857D01*
X039571Y014039D01*
X039442Y014168D01*
X039564Y014045D02*
X044342Y014045D01*
X044440Y013947D02*
X039571Y013947D01*
X039562Y013848D02*
X045339Y013848D01*
X045331Y013857D02*
X045440Y013748D01*
X045331Y013639D01*
X045331Y013457D01*
X045460Y013328D01*
X045642Y013328D01*
X045751Y013437D01*
X045860Y013328D01*
X046042Y013328D01*
X046171Y013457D01*
X046171Y013639D01*
X046062Y013748D01*
X046171Y013857D01*
X046171Y014039D01*
X046042Y014168D01*
X045860Y014168D01*
X045751Y014059D01*
X045642Y014168D01*
X045460Y014168D01*
X045371Y014079D01*
X045371Y014239D01*
X045242Y014368D01*
X045060Y014368D01*
X044931Y014239D01*
X044931Y014057D01*
X045060Y013928D01*
X045242Y013928D01*
X045331Y014017D01*
X045331Y013857D01*
X045331Y013947D02*
X045261Y013947D01*
X045040Y013947D02*
X044661Y013947D01*
X044759Y014045D02*
X044942Y014045D01*
X044931Y014144D02*
X044771Y014144D01*
X044767Y014242D02*
X044934Y014242D01*
X045033Y014341D02*
X044669Y014341D01*
X044433Y014341D02*
X038769Y014341D01*
X038871Y014144D02*
X039236Y014144D01*
X039137Y014045D02*
X038859Y014045D01*
X038761Y013947D02*
X039131Y013947D01*
X039139Y013848D02*
X036421Y013848D01*
X036421Y013939D02*
X036292Y014068D01*
X036110Y014068D01*
X035981Y013939D01*
X035981Y013768D01*
X035860Y013768D01*
X035731Y013639D01*
X035731Y013457D01*
X035860Y013328D01*
X036042Y013328D01*
X036171Y013457D01*
X036171Y013628D01*
X036292Y013628D01*
X036421Y013757D01*
X036421Y013939D01*
X036413Y013947D02*
X038540Y013947D01*
X038442Y014045D02*
X036314Y014045D01*
X036087Y014045D02*
X011121Y014045D01*
X011121Y014089D02*
X010992Y014218D01*
X010810Y014218D01*
X010681Y014089D01*
X010681Y013907D01*
X010810Y013778D01*
X010992Y013778D01*
X011121Y013907D01*
X011121Y014089D01*
X011066Y014144D02*
X011893Y014144D01*
X011831Y014207D02*
X011960Y014078D01*
X012142Y014078D01*
X012271Y014207D01*
X012271Y014389D01*
X012142Y014518D01*
X011960Y014518D01*
X011831Y014389D01*
X011831Y014207D01*
X011831Y014242D02*
X009806Y014242D01*
X009742Y014178D02*
X009871Y014307D01*
X009871Y014489D01*
X009742Y014618D01*
X009560Y014618D01*
X009431Y014489D01*
X009431Y014307D01*
X009560Y014178D01*
X009742Y014178D01*
X009871Y014341D02*
X011831Y014341D01*
X011881Y014439D02*
X009871Y014439D01*
X009822Y014538D02*
X025480Y014538D01*
X025510Y014568D02*
X025381Y014439D01*
X025381Y014257D01*
X025510Y014128D01*
X025692Y014128D01*
X025821Y014257D01*
X025821Y014439D01*
X025692Y014568D01*
X025510Y014568D01*
X025542Y014578D02*
X025671Y014707D01*
X025671Y014889D01*
X025542Y015018D01*
X025360Y015018D01*
X025231Y014889D01*
X025231Y014707D01*
X025360Y014578D01*
X025542Y014578D01*
X025600Y014636D02*
X031851Y014636D01*
X031831Y014735D02*
X025671Y014735D01*
X025671Y014833D02*
X031831Y014833D01*
X031924Y014932D02*
X025628Y014932D01*
X025274Y014932D02*
X009796Y014932D01*
X009742Y014878D02*
X009871Y015007D01*
X009871Y015189D01*
X009742Y015318D01*
X009560Y015318D01*
X009431Y015189D01*
X009431Y015007D01*
X009560Y014878D01*
X009742Y014878D01*
X009871Y015030D02*
X020697Y015030D01*
X020641Y015087D02*
X020770Y014958D01*
X020952Y014958D01*
X021081Y015087D01*
X021081Y015269D01*
X020952Y015398D01*
X020770Y015398D01*
X020641Y015269D01*
X020641Y015087D01*
X020641Y015129D02*
X009871Y015129D01*
X009832Y015227D02*
X011910Y015227D01*
X011960Y015178D02*
X012142Y015178D01*
X012271Y015307D01*
X012271Y015489D01*
X012142Y015618D01*
X011960Y015618D01*
X011831Y015489D01*
X011831Y015307D01*
X011960Y015178D01*
X011831Y015326D02*
X011140Y015326D01*
X011171Y015357D02*
X011042Y015228D01*
X010860Y015228D01*
X010731Y015357D01*
X010731Y015539D01*
X010860Y015668D01*
X011042Y015668D01*
X011171Y015539D01*
X011171Y015357D01*
X011171Y015424D02*
X011831Y015424D01*
X011865Y015523D02*
X011171Y015523D01*
X011088Y015621D02*
X012363Y015621D01*
X012331Y015589D02*
X012331Y015407D01*
X012460Y015278D01*
X012642Y015278D01*
X012771Y015407D01*
X012771Y015589D01*
X012642Y015718D01*
X012460Y015718D01*
X012331Y015589D01*
X012331Y015523D02*
X012237Y015523D01*
X012271Y015424D02*
X012331Y015424D01*
X012271Y015326D02*
X012411Y015326D01*
X012191Y015227D02*
X020641Y015227D01*
X020698Y015326D02*
X012690Y015326D01*
X012771Y015424D02*
X033831Y015424D01*
X033831Y015326D02*
X021024Y015326D01*
X021081Y015227D02*
X033719Y015227D01*
X033631Y015129D02*
X021081Y015129D01*
X021024Y015030D02*
X033631Y015030D01*
X033655Y014932D02*
X032178Y014932D01*
X032250Y014636D02*
X048701Y014636D01*
X048701Y014538D02*
X032152Y014538D01*
X031949Y014538D02*
X025722Y014538D01*
X025820Y014439D02*
X048701Y014439D01*
X048701Y014341D02*
X045269Y014341D01*
X045367Y014242D02*
X048701Y014242D01*
X048701Y014144D02*
X046066Y014144D01*
X046164Y014045D02*
X048701Y014045D01*
X048701Y013947D02*
X046171Y013947D01*
X046162Y013848D02*
X048701Y013848D01*
X048701Y013750D02*
X046064Y013750D01*
X046158Y013651D02*
X048701Y013651D01*
X048701Y013553D02*
X046171Y013553D01*
X046168Y013454D02*
X048701Y013454D01*
X048701Y013356D02*
X046070Y013356D01*
X045831Y013356D02*
X045670Y013356D01*
X045431Y013356D02*
X036070Y013356D01*
X036168Y013454D02*
X045333Y013454D01*
X045331Y013553D02*
X036171Y013553D01*
X036315Y013651D02*
X045343Y013651D01*
X045437Y013750D02*
X039464Y013750D01*
X039237Y013750D02*
X036414Y013750D01*
X035981Y013848D02*
X035011Y013848D01*
X034992Y013868D02*
X034810Y013868D01*
X034681Y013739D01*
X034681Y013557D01*
X034770Y013468D01*
X034760Y013468D01*
X034631Y013339D01*
X034631Y013157D01*
X034690Y013098D01*
X034631Y013039D01*
X034631Y012857D01*
X034760Y012728D01*
X034942Y012728D01*
X035071Y012857D01*
X035071Y013039D01*
X035012Y013098D01*
X035071Y013157D01*
X035071Y013339D01*
X034982Y013428D01*
X034992Y013428D01*
X035121Y013557D01*
X035121Y013739D01*
X034992Y013868D01*
X035110Y013750D02*
X035842Y013750D01*
X035743Y013651D02*
X035121Y013651D01*
X035117Y013553D02*
X035731Y013553D01*
X035733Y013454D02*
X035018Y013454D01*
X035054Y013356D02*
X035831Y013356D01*
X035989Y013947D02*
X011121Y013947D01*
X011062Y013848D02*
X023790Y013848D01*
X023731Y013789D02*
X023731Y013607D01*
X023860Y013478D01*
X024042Y013478D01*
X024171Y013607D01*
X024171Y013789D01*
X024042Y013918D01*
X023860Y013918D01*
X023731Y013789D01*
X023731Y013750D02*
X004001Y013750D01*
X004001Y013848D02*
X010739Y013848D01*
X010681Y013947D02*
X004001Y013947D01*
X004001Y014045D02*
X010681Y014045D01*
X010736Y014144D02*
X004001Y014144D01*
X004001Y014242D02*
X009495Y014242D01*
X009431Y014341D02*
X004001Y014341D01*
X004001Y014439D02*
X009431Y014439D01*
X009480Y014538D02*
X009152Y014538D01*
X009142Y014528D02*
X009271Y014657D01*
X009271Y014839D01*
X009142Y014968D01*
X008960Y014968D01*
X008831Y014839D01*
X008831Y014657D01*
X008960Y014528D01*
X009142Y014528D01*
X009250Y014636D02*
X025301Y014636D01*
X025231Y014735D02*
X009271Y014735D01*
X009271Y014833D02*
X025231Y014833D01*
X025381Y014439D02*
X012220Y014439D01*
X012271Y014341D02*
X025381Y014341D01*
X025395Y014242D02*
X012271Y014242D01*
X012208Y014144D02*
X025493Y014144D01*
X025708Y014144D02*
X038431Y014144D01*
X038434Y014242D02*
X025806Y014242D01*
X025821Y014341D02*
X038533Y014341D01*
X041131Y012839D02*
X041260Y012968D01*
X041442Y012968D01*
X041501Y012909D01*
X041560Y012968D01*
X041742Y012968D01*
X041871Y012839D01*
X041871Y012657D01*
X041762Y012548D01*
X041871Y012439D01*
X041871Y012257D01*
X041742Y012128D01*
X041560Y012128D01*
X041501Y012187D01*
X041442Y012128D01*
X041260Y012128D01*
X041131Y012257D01*
X041131Y012439D01*
X041240Y012548D01*
X041131Y012657D01*
X041131Y012839D01*
X041155Y012863D02*
X035071Y012863D01*
X035071Y012962D02*
X041254Y012962D01*
X041448Y012962D02*
X041554Y012962D01*
X041748Y012962D02*
X045454Y012962D01*
X045460Y012968D02*
X045331Y012839D01*
X045331Y012657D01*
X045440Y012548D01*
X045331Y012439D01*
X045331Y012279D01*
X045242Y012368D01*
X045060Y012368D01*
X044931Y012239D01*
X044931Y012057D01*
X045060Y011928D01*
X045242Y011928D01*
X045371Y012057D01*
X045371Y012217D01*
X045460Y012128D01*
X045642Y012128D01*
X045751Y012237D01*
X045860Y012128D01*
X046042Y012128D01*
X046171Y012257D01*
X046171Y012439D01*
X046062Y012548D01*
X046171Y012657D01*
X046171Y012839D01*
X046042Y012968D01*
X045860Y012968D01*
X045751Y012859D01*
X045642Y012968D01*
X045460Y012968D01*
X045355Y012863D02*
X041846Y012863D01*
X041871Y012765D02*
X045331Y012765D01*
X045331Y012666D02*
X041871Y012666D01*
X041782Y012568D02*
X045419Y012568D01*
X045361Y012469D02*
X041840Y012469D01*
X041871Y012371D02*
X045331Y012371D01*
X045371Y012174D02*
X045413Y012174D01*
X045371Y012075D02*
X048701Y012075D01*
X048701Y011977D02*
X045291Y011977D01*
X045010Y011977D02*
X044791Y011977D01*
X044742Y011928D02*
X044871Y012057D01*
X044871Y012239D01*
X044742Y012368D01*
X044560Y012368D01*
X044431Y012239D01*
X044431Y012057D01*
X044560Y011928D01*
X044742Y011928D01*
X044871Y012075D02*
X044931Y012075D01*
X044931Y012174D02*
X044871Y012174D01*
X044837Y012272D02*
X044964Y012272D01*
X044464Y012272D02*
X041871Y012272D01*
X041788Y012174D02*
X044431Y012174D01*
X044431Y012075D02*
X036534Y012075D01*
X036571Y012039D02*
X036442Y012168D01*
X036260Y012168D01*
X036131Y012039D01*
X036131Y011857D01*
X036260Y011728D01*
X036442Y011728D01*
X036571Y011857D01*
X036571Y012039D01*
X036571Y011977D02*
X044510Y011977D01*
X044460Y011568D02*
X044351Y011459D01*
X044242Y011568D01*
X044060Y011568D01*
X043951Y011459D01*
X043842Y011568D01*
X043660Y011568D01*
X043531Y011439D01*
X043531Y011257D01*
X043640Y011148D01*
X043531Y011039D01*
X043531Y010857D01*
X043660Y010728D01*
X043842Y010728D01*
X043951Y010837D01*
X044060Y010728D01*
X044242Y010728D01*
X044351Y010837D01*
X044460Y010728D01*
X044642Y010728D01*
X044771Y010857D01*
X044771Y011039D01*
X044662Y011148D01*
X044771Y011257D01*
X044771Y011439D01*
X044642Y011568D01*
X044460Y011568D01*
X044376Y011484D02*
X044325Y011484D01*
X043976Y011484D02*
X043925Y011484D01*
X043576Y011484D02*
X040471Y011484D01*
X040471Y011539D02*
X040342Y011668D01*
X040160Y011668D01*
X040031Y011539D01*
X040031Y011368D01*
X039960Y011368D01*
X039851Y011259D01*
X039742Y011368D01*
X039671Y011368D01*
X039671Y011539D01*
X039542Y011668D01*
X039360Y011668D01*
X039231Y011539D01*
X039231Y011357D01*
X039360Y011228D01*
X039431Y011228D01*
X039431Y011057D01*
X039560Y010928D01*
X039742Y010928D01*
X039851Y011037D01*
X039960Y010928D01*
X040142Y010928D01*
X040271Y011057D01*
X040271Y011228D01*
X040342Y011228D01*
X040471Y011357D01*
X040471Y011539D01*
X040427Y011583D02*
X045854Y011583D01*
X045831Y011607D02*
X045960Y011478D01*
X046142Y011478D01*
X046271Y011607D01*
X046271Y011789D01*
X046142Y011918D01*
X045960Y011918D01*
X045831Y011789D01*
X045831Y011607D01*
X045831Y011681D02*
X032645Y011681D01*
X032671Y011707D02*
X032542Y011578D01*
X032360Y011578D01*
X032231Y011707D01*
X032231Y011717D01*
X032192Y011678D01*
X032010Y011678D01*
X031881Y011807D01*
X031881Y011989D01*
X031920Y012028D01*
X031860Y012028D01*
X031751Y012137D01*
X031642Y012028D01*
X031460Y012028D01*
X031331Y012157D01*
X031331Y012167D01*
X031242Y012078D01*
X031060Y012078D01*
X030931Y012207D01*
X030931Y012389D01*
X031015Y012473D01*
X030931Y012557D01*
X030931Y012739D01*
X031060Y012868D01*
X031242Y012868D01*
X031351Y012759D01*
X031460Y012868D01*
X031642Y012868D01*
X031751Y012759D01*
X031860Y012868D01*
X032042Y012868D01*
X032171Y012739D01*
X032171Y012557D01*
X032062Y012448D01*
X032171Y012339D01*
X032171Y012157D01*
X032132Y012118D01*
X032192Y012118D01*
X032321Y011989D01*
X032321Y011979D01*
X032360Y012018D01*
X032542Y012018D01*
X032671Y011889D01*
X032671Y011707D01*
X032671Y011780D02*
X036207Y011780D01*
X036131Y011878D02*
X032671Y011878D01*
X032583Y011977D02*
X036131Y011977D01*
X036167Y012075D02*
X035889Y012075D01*
X035921Y012107D02*
X035792Y011978D01*
X035610Y011978D01*
X035481Y012107D01*
X035481Y012289D01*
X035610Y012418D01*
X035792Y012418D01*
X035921Y012289D01*
X035921Y012107D01*
X035921Y012174D02*
X041213Y012174D01*
X041131Y012272D02*
X035921Y012272D01*
X035839Y012371D02*
X041131Y012371D01*
X041161Y012469D02*
X035171Y012469D01*
X035171Y012539D02*
X035042Y012668D01*
X034860Y012668D01*
X034731Y012539D01*
X034731Y012357D01*
X034860Y012228D01*
X035042Y012228D01*
X035171Y012357D01*
X035171Y012539D01*
X035142Y012568D02*
X041219Y012568D01*
X041131Y012666D02*
X035043Y012666D01*
X034979Y012765D02*
X041131Y012765D01*
X041488Y012174D02*
X041513Y012174D01*
X040471Y011386D02*
X043531Y011386D01*
X043531Y011287D02*
X040401Y011287D01*
X040271Y011189D02*
X043598Y011189D01*
X043582Y011090D02*
X040271Y011090D01*
X040206Y010992D02*
X043531Y010992D01*
X043531Y010893D02*
X041416Y010893D01*
X041392Y010918D02*
X041210Y010918D01*
X041081Y010789D01*
X041081Y010607D01*
X041210Y010478D01*
X041392Y010478D01*
X041521Y010607D01*
X041521Y010789D01*
X041392Y010918D01*
X041515Y010795D02*
X043592Y010795D01*
X043909Y010795D02*
X043992Y010795D01*
X044309Y010795D02*
X044392Y010795D01*
X044709Y010795D02*
X048701Y010795D01*
X048701Y010893D02*
X044771Y010893D01*
X044771Y010992D02*
X048701Y010992D01*
X048701Y011090D02*
X044719Y011090D01*
X044703Y011189D02*
X048701Y011189D01*
X048701Y011287D02*
X044771Y011287D01*
X044771Y011386D02*
X048701Y011386D01*
X048701Y011484D02*
X046148Y011484D01*
X046247Y011583D02*
X048701Y011583D01*
X048701Y011681D02*
X046271Y011681D01*
X046271Y011780D02*
X048701Y011780D01*
X048701Y011878D02*
X046181Y011878D01*
X045920Y011878D02*
X036571Y011878D01*
X036494Y011780D02*
X045831Y011780D01*
X045953Y011484D02*
X044725Y011484D01*
X045688Y012174D02*
X045813Y012174D01*
X046088Y012174D02*
X048701Y012174D01*
X048701Y012272D02*
X046171Y012272D01*
X046171Y012371D02*
X048701Y012371D01*
X048701Y012469D02*
X046140Y012469D01*
X046082Y012568D02*
X048701Y012568D01*
X048701Y012666D02*
X046171Y012666D01*
X046171Y012765D02*
X048701Y012765D01*
X048701Y012863D02*
X046146Y012863D01*
X046048Y012962D02*
X048701Y012962D01*
X048701Y013060D02*
X035049Y013060D01*
X035071Y013159D02*
X048701Y013159D01*
X048701Y013257D02*
X035071Y013257D01*
X034746Y013454D02*
X034471Y013454D01*
X034471Y013407D02*
X034471Y013589D01*
X034342Y013718D01*
X034160Y013718D01*
X034031Y013589D01*
X034031Y013407D01*
X034160Y013278D01*
X034342Y013278D01*
X034471Y013407D01*
X034420Y013356D02*
X034648Y013356D01*
X034631Y013257D02*
X032471Y013257D01*
X032442Y013228D02*
X032551Y013337D01*
X032560Y013328D01*
X032742Y013328D01*
X032871Y013457D01*
X032871Y013639D01*
X032742Y013768D01*
X032560Y013768D01*
X032451Y013659D01*
X032442Y013668D01*
X032260Y013668D01*
X032131Y013539D01*
X032131Y013357D01*
X032260Y013228D01*
X032442Y013228D01*
X032230Y013257D02*
X032071Y013257D01*
X032071Y013339D02*
X031942Y013468D01*
X031760Y013468D01*
X031631Y013339D01*
X031631Y013157D01*
X031760Y013028D01*
X031942Y013028D01*
X032071Y013157D01*
X032071Y013339D01*
X032054Y013356D02*
X032131Y013356D01*
X032131Y013454D02*
X031955Y013454D01*
X031746Y013454D02*
X031405Y013454D01*
X031392Y013468D02*
X031210Y013468D01*
X031081Y013339D01*
X031081Y013157D01*
X031210Y013028D01*
X031392Y013028D01*
X031521Y013157D01*
X031521Y013339D01*
X031392Y013468D01*
X031504Y013356D02*
X031648Y013356D01*
X031631Y013257D02*
X031521Y013257D01*
X031521Y013159D02*
X031631Y013159D01*
X031727Y013060D02*
X031424Y013060D01*
X031455Y012863D02*
X031246Y012863D01*
X031345Y012765D02*
X031357Y012765D01*
X031646Y012863D02*
X031855Y012863D01*
X031757Y012765D02*
X031745Y012765D01*
X032046Y012863D02*
X034155Y012863D01*
X034210Y012918D02*
X034081Y012789D01*
X034081Y012607D01*
X034210Y012478D01*
X034392Y012478D01*
X034521Y012607D01*
X034521Y012789D01*
X034392Y012918D01*
X034210Y012918D01*
X034081Y012765D02*
X032145Y012765D01*
X032171Y012666D02*
X034081Y012666D01*
X034119Y012568D02*
X032171Y012568D01*
X032083Y012469D02*
X034731Y012469D01*
X034731Y012371D02*
X032139Y012371D01*
X032171Y012272D02*
X034815Y012272D01*
X035086Y012272D02*
X035481Y012272D01*
X035481Y012174D02*
X032171Y012174D01*
X032234Y012075D02*
X035512Y012075D01*
X035563Y012371D02*
X035171Y012371D01*
X034760Y012568D02*
X034482Y012568D01*
X034521Y012666D02*
X034858Y012666D01*
X034722Y012765D02*
X034521Y012765D01*
X034446Y012863D02*
X034631Y012863D01*
X034631Y012962D02*
X019221Y012962D01*
X019221Y012907D02*
X019221Y013089D01*
X019092Y013218D01*
X018910Y013218D01*
X018851Y013159D01*
X018792Y013218D01*
X018610Y013218D01*
X018481Y013089D01*
X018481Y012907D01*
X018610Y012778D01*
X018792Y012778D01*
X018851Y012837D01*
X018910Y012778D01*
X019092Y012778D01*
X019221Y012907D01*
X019177Y012863D02*
X031055Y012863D01*
X030957Y012765D02*
X025545Y012765D01*
X025542Y012768D02*
X025360Y012768D01*
X025231Y012639D01*
X025231Y012457D01*
X025360Y012328D01*
X025542Y012328D01*
X025671Y012457D01*
X025671Y012639D01*
X025542Y012768D01*
X025643Y012666D02*
X030931Y012666D01*
X030931Y012568D02*
X025671Y012568D01*
X025671Y012469D02*
X031011Y012469D01*
X030931Y012371D02*
X025585Y012371D01*
X025316Y012371D02*
X004001Y012371D01*
X004001Y012469D02*
X010718Y012469D01*
X010760Y012428D02*
X010631Y012557D01*
X010631Y012739D01*
X010760Y012868D01*
X010942Y012868D01*
X011071Y012739D01*
X011071Y012557D01*
X010942Y012428D01*
X010760Y012428D01*
X010631Y012568D02*
X004001Y012568D01*
X004001Y012666D02*
X010631Y012666D01*
X010657Y012765D02*
X007479Y012765D01*
X007442Y012728D02*
X007571Y012857D01*
X007571Y013039D01*
X007442Y013168D01*
X007260Y013168D01*
X007131Y013039D01*
X007131Y012857D01*
X007260Y012728D01*
X007442Y012728D01*
X007571Y012863D02*
X010755Y012863D01*
X010946Y012863D02*
X011874Y012863D01*
X011831Y012907D02*
X011960Y012778D01*
X012142Y012778D01*
X012271Y012907D01*
X012271Y013089D01*
X012142Y013218D01*
X011960Y013218D01*
X011831Y013089D01*
X011831Y012907D01*
X011831Y012962D02*
X007571Y012962D01*
X007549Y013060D02*
X011831Y013060D01*
X011901Y013159D02*
X007451Y013159D01*
X007251Y013159D02*
X004001Y013159D01*
X004001Y013257D02*
X031081Y013257D01*
X031081Y013159D02*
X019151Y013159D01*
X019221Y013060D02*
X031177Y013060D01*
X031098Y013356D02*
X012220Y013356D01*
X012271Y013407D02*
X012142Y013278D01*
X011960Y013278D01*
X011831Y013407D01*
X011831Y013589D01*
X011960Y013718D01*
X012142Y013718D01*
X012271Y013589D01*
X012271Y013407D01*
X012271Y013454D02*
X031196Y013454D01*
X032145Y013553D02*
X025717Y013553D01*
X025771Y013607D02*
X025642Y013478D01*
X025460Y013478D01*
X025331Y013607D01*
X025331Y013789D01*
X025460Y013918D01*
X025642Y013918D01*
X025771Y013789D01*
X025771Y013607D01*
X025771Y013651D02*
X032243Y013651D01*
X032542Y013750D02*
X025771Y013750D01*
X025711Y013848D02*
X034790Y013848D01*
X034692Y013750D02*
X032760Y013750D01*
X032858Y013651D02*
X034093Y013651D01*
X034031Y013553D02*
X032871Y013553D01*
X032868Y013454D02*
X034031Y013454D01*
X034081Y013356D02*
X032770Y013356D01*
X032071Y013159D02*
X034631Y013159D01*
X034652Y013060D02*
X031974Y013060D01*
X030931Y012272D02*
X021017Y012272D01*
X021071Y012219D02*
X020942Y012348D01*
X020760Y012348D01*
X020631Y012219D01*
X020631Y012037D01*
X020760Y011908D01*
X020942Y011908D01*
X021071Y012037D01*
X021071Y012219D01*
X021071Y012174D02*
X030963Y012174D01*
X031412Y012075D02*
X021071Y012075D01*
X021011Y011977D02*
X031881Y011977D01*
X031881Y011878D02*
X012571Y011878D01*
X012571Y011857D02*
X012442Y011728D01*
X012260Y011728D01*
X012131Y011857D01*
X012131Y012039D01*
X012260Y012168D01*
X012442Y012168D01*
X012571Y012039D01*
X012571Y011857D01*
X012494Y011780D02*
X031907Y011780D01*
X032006Y011681D02*
X005945Y011681D01*
X005942Y011678D02*
X006071Y011807D01*
X006071Y011989D01*
X005942Y012118D01*
X005760Y012118D01*
X005651Y012009D01*
X005542Y012118D01*
X005360Y012118D01*
X005231Y011989D01*
X005231Y011807D01*
X005360Y011678D01*
X005542Y011678D01*
X005651Y011787D01*
X005760Y011678D01*
X005942Y011678D01*
X006044Y011780D02*
X010257Y011780D01*
X010310Y011728D02*
X010492Y011728D01*
X010621Y011857D01*
X010621Y012039D01*
X010492Y012168D01*
X010310Y012168D01*
X010181Y012039D01*
X010181Y011857D01*
X010310Y011728D01*
X010310Y011568D02*
X010181Y011439D01*
X010181Y011257D01*
X010310Y011128D01*
X010492Y011128D01*
X010621Y011257D01*
X010621Y011439D01*
X010492Y011568D01*
X010310Y011568D01*
X010226Y011484D02*
X004001Y011484D01*
X004001Y011386D02*
X010181Y011386D01*
X010181Y011287D02*
X004001Y011287D01*
X004001Y011189D02*
X010248Y011189D01*
X010553Y011189D02*
X036381Y011189D01*
X036381Y011007D01*
X036510Y010878D01*
X036692Y010878D01*
X036821Y011007D01*
X036821Y011189D01*
X036782Y011228D01*
X036942Y011228D01*
X037071Y011357D01*
X037071Y011539D01*
X036942Y011668D01*
X036760Y011668D01*
X036631Y011539D01*
X036631Y011357D01*
X036670Y011318D01*
X036510Y011318D01*
X036381Y011189D01*
X036381Y011090D02*
X025619Y011090D01*
X025671Y011039D02*
X025542Y011168D01*
X025360Y011168D01*
X025231Y011039D01*
X025231Y010857D01*
X025360Y010728D01*
X025542Y010728D01*
X025671Y010857D01*
X025671Y011039D01*
X025671Y010992D02*
X036395Y010992D01*
X036494Y010893D02*
X034816Y010893D01*
X034792Y010918D02*
X034610Y010918D01*
X034481Y010789D01*
X034481Y010607D01*
X034610Y010478D01*
X034792Y010478D01*
X034921Y010607D01*
X034921Y010789D01*
X034792Y010918D01*
X034915Y010795D02*
X041087Y010795D01*
X041081Y010696D02*
X034921Y010696D01*
X034912Y010598D02*
X036290Y010598D01*
X036231Y010539D02*
X036231Y010357D01*
X036360Y010228D01*
X036542Y010228D01*
X036651Y010337D01*
X036760Y010228D01*
X036942Y010228D01*
X037071Y010357D01*
X037071Y010539D01*
X036942Y010668D01*
X036760Y010668D01*
X036651Y010559D01*
X036542Y010668D01*
X036360Y010668D01*
X036231Y010539D01*
X036231Y010499D02*
X034813Y010499D01*
X034588Y010499D02*
X031521Y010499D01*
X031521Y010539D02*
X031392Y010668D01*
X031210Y010668D01*
X031121Y010579D01*
X031121Y010639D01*
X030992Y010768D01*
X030810Y010768D01*
X030681Y010639D01*
X030681Y010457D01*
X030810Y010328D01*
X030992Y010328D01*
X031081Y010417D01*
X031081Y010357D01*
X031210Y010228D01*
X031392Y010228D01*
X031521Y010357D01*
X031521Y010539D01*
X031462Y010598D02*
X034489Y010598D01*
X034481Y010696D02*
X031063Y010696D01*
X031121Y010598D02*
X031140Y010598D01*
X031081Y010401D02*
X031065Y010401D01*
X031135Y010302D02*
X012971Y010302D01*
X012971Y010339D02*
X012842Y010468D01*
X012660Y010468D01*
X012531Y010339D01*
X012531Y010157D01*
X012660Y010028D01*
X012842Y010028D01*
X012971Y010157D01*
X012971Y010339D01*
X012909Y010401D02*
X028936Y010401D01*
X028881Y010457D02*
X029010Y010328D01*
X029192Y010328D01*
X029276Y010412D01*
X029360Y010328D01*
X029542Y010328D01*
X029671Y010457D01*
X029671Y010639D01*
X029542Y010768D01*
X029360Y010768D01*
X029276Y010684D01*
X029192Y010768D01*
X029010Y010768D01*
X028881Y010639D01*
X028881Y010457D01*
X028881Y010499D02*
X013513Y010499D01*
X013571Y010557D02*
X013442Y010428D01*
X013260Y010428D01*
X013131Y010557D01*
X013131Y010739D01*
X013260Y010868D01*
X013442Y010868D01*
X013571Y010739D01*
X013571Y010557D01*
X013571Y010598D02*
X028881Y010598D01*
X028938Y010696D02*
X013571Y010696D01*
X013515Y010795D02*
X025292Y010795D01*
X025231Y010893D02*
X012216Y010893D01*
X012221Y010889D02*
X012092Y011018D01*
X011910Y011018D01*
X011781Y010889D01*
X011781Y010707D01*
X011910Y010578D01*
X012092Y010578D01*
X012221Y010707D01*
X012221Y010889D01*
X012221Y010795D02*
X013187Y010795D01*
X013131Y010696D02*
X012210Y010696D01*
X012112Y010598D02*
X013131Y010598D01*
X013188Y010499D02*
X004001Y010499D01*
X004001Y010401D02*
X012593Y010401D01*
X012531Y010302D02*
X004001Y010302D01*
X004001Y010204D02*
X006296Y010204D01*
X006360Y010268D02*
X006231Y010139D01*
X006231Y009957D01*
X006360Y009828D01*
X006542Y009828D01*
X006651Y009937D01*
X006760Y009828D01*
X006942Y009828D01*
X007071Y009957D01*
X007071Y010139D01*
X006942Y010268D01*
X006760Y010268D01*
X006651Y010159D01*
X006542Y010268D01*
X006360Y010268D01*
X006231Y010105D02*
X004001Y010105D01*
X004001Y010007D02*
X006231Y010007D01*
X006279Y009908D02*
X004001Y009908D01*
X004001Y009810D02*
X036231Y009810D01*
X036231Y009839D02*
X036231Y009657D01*
X036360Y009528D01*
X036542Y009528D01*
X036651Y009637D01*
X036760Y009528D01*
X036942Y009528D01*
X037071Y009657D01*
X037071Y009839D01*
X036942Y009968D01*
X036760Y009968D01*
X036651Y009859D01*
X036542Y009968D01*
X036360Y009968D01*
X036231Y009839D01*
X036300Y009908D02*
X007022Y009908D01*
X007071Y010007D02*
X038180Y010007D01*
X038131Y010057D02*
X038260Y009928D01*
X038442Y009928D01*
X038571Y010057D01*
X038571Y010239D01*
X038442Y010368D01*
X038260Y010368D01*
X038131Y010239D01*
X038131Y010057D01*
X038131Y010105D02*
X012919Y010105D01*
X012971Y010204D02*
X038131Y010204D01*
X038194Y010302D02*
X037016Y010302D01*
X037071Y010401D02*
X048701Y010401D01*
X048701Y010499D02*
X041413Y010499D01*
X041512Y010598D02*
X048701Y010598D01*
X048701Y010696D02*
X041521Y010696D01*
X041188Y010499D02*
X037071Y010499D01*
X037012Y010598D02*
X041089Y010598D01*
X041185Y010893D02*
X036707Y010893D01*
X036806Y010992D02*
X039495Y010992D01*
X039431Y011090D02*
X036821Y011090D01*
X036821Y011189D02*
X039431Y011189D01*
X039300Y011287D02*
X037001Y011287D01*
X037071Y011386D02*
X039231Y011386D01*
X039231Y011484D02*
X037071Y011484D01*
X037027Y011583D02*
X039275Y011583D01*
X039627Y011583D02*
X040075Y011583D01*
X040031Y011484D02*
X039671Y011484D01*
X039671Y011386D02*
X040031Y011386D01*
X039879Y011287D02*
X039822Y011287D01*
X039806Y010992D02*
X039895Y010992D01*
X038571Y010204D02*
X046231Y010204D01*
X046231Y010239D02*
X046231Y010057D01*
X046360Y009928D01*
X046542Y009928D01*
X046671Y010057D01*
X046671Y010239D01*
X046542Y010368D01*
X046360Y010368D01*
X046231Y010239D01*
X046294Y010302D02*
X038507Y010302D01*
X038571Y010105D02*
X046231Y010105D01*
X046280Y010007D02*
X038521Y010007D01*
X038660Y009368D02*
X038531Y009239D01*
X038531Y009057D01*
X038590Y008998D01*
X038531Y008939D01*
X038531Y008757D01*
X038660Y008628D01*
X038842Y008628D01*
X039359Y008628D01*
X039410Y008578D02*
X039281Y008707D01*
X039281Y008889D01*
X039410Y009018D01*
X039592Y009018D01*
X039721Y008889D01*
X039721Y008707D01*
X039592Y008578D01*
X039410Y008578D01*
X039281Y008726D02*
X038940Y008726D01*
X038971Y008757D02*
X038842Y008628D01*
X038971Y008757D02*
X038971Y008939D01*
X038912Y008998D01*
X038971Y009057D01*
X038971Y009239D01*
X038842Y009368D01*
X038660Y009368D01*
X038609Y009317D02*
X031771Y009317D01*
X031771Y009339D02*
X031642Y009468D01*
X031460Y009468D01*
X031331Y009339D01*
X031331Y009157D01*
X031460Y009028D01*
X031520Y009028D01*
X031431Y008939D01*
X031431Y008757D01*
X031560Y008628D01*
X031742Y008628D01*
X031959Y008628D01*
X031960Y008628D02*
X032142Y008628D01*
X032309Y008628D01*
X032310Y008628D02*
X032492Y008628D01*
X038659Y008628D01*
X038561Y008726D02*
X032590Y008726D01*
X032621Y008757D02*
X032621Y008939D01*
X032492Y009068D01*
X032310Y009068D01*
X032226Y008984D01*
X032142Y009068D01*
X031960Y009068D01*
X031851Y008959D01*
X031742Y009068D01*
X031682Y009068D01*
X031771Y009157D01*
X031771Y009339D01*
X031694Y009416D02*
X040408Y009416D01*
X040381Y009389D02*
X040510Y009518D01*
X040692Y009518D01*
X040821Y009389D01*
X040821Y009207D01*
X040782Y009168D01*
X040792Y009168D01*
X040901Y009059D01*
X040960Y009118D01*
X041142Y009118D01*
X041271Y008989D01*
X041271Y008807D01*
X041142Y008678D01*
X040960Y008678D01*
X040851Y008787D01*
X040792Y008728D01*
X040610Y008728D01*
X040481Y008857D01*
X040481Y009039D01*
X040520Y009078D01*
X040510Y009078D01*
X040381Y009207D01*
X040381Y009389D01*
X040381Y009317D02*
X038892Y009317D01*
X038971Y009219D02*
X040381Y009219D01*
X040467Y009120D02*
X038971Y009120D01*
X038936Y009022D02*
X040481Y009022D01*
X040481Y008923D02*
X039686Y008923D01*
X039721Y008825D02*
X040512Y008825D01*
X040911Y008726D02*
X039721Y008726D01*
X039642Y008628D02*
X042049Y008628D01*
X042110Y008568D02*
X042292Y008568D01*
X042421Y008697D01*
X042421Y008879D01*
X042292Y009008D01*
X042110Y009008D01*
X041981Y008879D01*
X041981Y008697D01*
X042110Y008568D01*
X041981Y008726D02*
X041190Y008726D01*
X041271Y008825D02*
X041981Y008825D01*
X042025Y008923D02*
X041271Y008923D01*
X041238Y009022D02*
X042765Y009022D01*
X042785Y009003D02*
X042731Y008949D01*
X042731Y008767D01*
X042860Y008638D01*
X043042Y008638D01*
X043171Y008767D01*
X043171Y008949D01*
X043117Y009003D01*
X043171Y009057D01*
X043171Y009239D01*
X043042Y009368D01*
X042860Y009368D01*
X042731Y009239D01*
X042731Y009057D01*
X042785Y009003D01*
X042731Y008923D02*
X042376Y008923D01*
X042421Y008825D02*
X042731Y008825D01*
X042771Y008726D02*
X042421Y008726D01*
X042352Y008628D02*
X048701Y008628D01*
X048701Y008726D02*
X043130Y008726D01*
X043171Y008825D02*
X048701Y008825D01*
X048701Y008923D02*
X043171Y008923D01*
X043136Y009022D02*
X048701Y009022D01*
X048701Y009120D02*
X043171Y009120D01*
X043171Y009219D02*
X048701Y009219D01*
X048701Y009317D02*
X043092Y009317D01*
X042809Y009317D02*
X041471Y009317D01*
X041471Y009257D02*
X041471Y009439D01*
X041342Y009568D01*
X041160Y009568D01*
X041031Y009439D01*
X041031Y009257D01*
X041160Y009128D01*
X041342Y009128D01*
X041471Y009257D01*
X041433Y009219D02*
X042731Y009219D01*
X042731Y009120D02*
X040839Y009120D01*
X040821Y009219D02*
X041068Y009219D01*
X041031Y009317D02*
X040821Y009317D01*
X040794Y009416D02*
X041031Y009416D01*
X041106Y009514D02*
X040695Y009514D01*
X040760Y009528D02*
X040942Y009528D01*
X041071Y009657D01*
X041071Y009839D01*
X040942Y009968D01*
X040760Y009968D01*
X040631Y009839D01*
X040631Y009657D01*
X040760Y009528D01*
X040674Y009613D02*
X037027Y009613D01*
X037071Y009711D02*
X040631Y009711D01*
X040631Y009810D02*
X037071Y009810D01*
X037001Y009908D02*
X040700Y009908D01*
X041001Y009908D02*
X041750Y009908D01*
X041810Y009968D02*
X041681Y009839D01*
X041681Y009657D01*
X041810Y009528D01*
X041992Y009528D01*
X042121Y009657D01*
X042121Y009839D01*
X041992Y009968D01*
X041810Y009968D01*
X041681Y009810D02*
X041071Y009810D01*
X041071Y009711D02*
X041681Y009711D01*
X041724Y009613D02*
X041027Y009613D01*
X041395Y009514D02*
X048701Y009514D01*
X048701Y009416D02*
X041471Y009416D01*
X042077Y009613D02*
X048701Y009613D01*
X048701Y009711D02*
X042121Y009711D01*
X042121Y009810D02*
X048701Y009810D01*
X048701Y009908D02*
X042051Y009908D01*
X040506Y009514D02*
X004001Y009514D01*
X004001Y009416D02*
X031408Y009416D01*
X031331Y009317D02*
X004001Y009317D01*
X004001Y009219D02*
X006311Y009219D01*
X006360Y009268D02*
X006231Y009139D01*
X006231Y008957D01*
X006360Y008828D01*
X006542Y008828D01*
X006651Y008937D01*
X006760Y008828D01*
X006942Y008828D01*
X007071Y008957D01*
X007071Y009139D01*
X006942Y009268D01*
X006760Y009268D01*
X006651Y009159D01*
X006542Y009268D01*
X006360Y009268D01*
X006231Y009120D02*
X004001Y009120D01*
X004001Y009022D02*
X006231Y009022D01*
X006264Y008923D02*
X004001Y008923D01*
X004001Y008825D02*
X010867Y008825D01*
X010910Y008868D02*
X010781Y008739D01*
X010781Y008557D01*
X010910Y008428D01*
X011092Y008428D01*
X011221Y008557D01*
X011221Y008739D01*
X011092Y008868D01*
X010910Y008868D01*
X010781Y008726D02*
X004001Y008726D01*
X004001Y008628D02*
X010781Y008628D01*
X010808Y008529D02*
X004001Y008529D01*
X004001Y008431D02*
X006973Y008431D01*
X007010Y008468D02*
X006881Y008339D01*
X006881Y008157D01*
X007010Y008028D01*
X007192Y008028D01*
X007321Y008157D01*
X007321Y008339D01*
X007192Y008468D01*
X007010Y008468D01*
X006881Y008332D02*
X004001Y008332D01*
X004001Y008234D02*
X006881Y008234D01*
X006902Y008135D02*
X004001Y008135D01*
X004001Y008037D02*
X007000Y008037D01*
X007060Y007968D02*
X006931Y007839D01*
X006931Y007657D01*
X007060Y007528D01*
X007242Y007528D01*
X007371Y007657D01*
X007371Y007839D01*
X007242Y007968D01*
X007060Y007968D01*
X007030Y007938D02*
X004001Y007938D01*
X004001Y007840D02*
X006932Y007840D01*
X006931Y007741D02*
X004001Y007741D01*
X004001Y007643D02*
X006944Y007643D01*
X007043Y007544D02*
X004001Y007544D01*
X004001Y007446D02*
X010138Y007446D01*
X010160Y007468D02*
X010031Y007339D01*
X010031Y007168D01*
X009960Y007168D01*
X009831Y007039D01*
X009831Y006857D01*
X009960Y006728D01*
X010142Y006728D01*
X010271Y006857D01*
X010271Y007028D01*
X010342Y007028D01*
X010471Y007157D01*
X010471Y007339D01*
X010432Y007378D01*
X010542Y007378D01*
X010626Y007462D01*
X010710Y007378D01*
X010892Y007378D01*
X011021Y007507D01*
X011021Y007689D01*
X010892Y007818D01*
X010710Y007818D01*
X010626Y007734D01*
X010542Y007818D01*
X010360Y007818D01*
X010231Y007689D01*
X010231Y007507D01*
X010270Y007468D01*
X010160Y007468D01*
X010231Y007544D02*
X007258Y007544D01*
X007357Y007643D02*
X010231Y007643D01*
X010283Y007741D02*
X007371Y007741D01*
X007370Y007840D02*
X031647Y007840D01*
X031631Y007857D02*
X031760Y007728D01*
X031942Y007728D01*
X032071Y007857D01*
X032071Y007997D01*
X032083Y007969D01*
X032171Y007880D01*
X032288Y007832D01*
X032414Y007832D01*
X032530Y007880D01*
X032619Y007969D01*
X032667Y008085D01*
X032667Y008211D01*
X032619Y008327D01*
X032530Y008416D01*
X032414Y008464D01*
X032288Y008464D01*
X032171Y008416D01*
X032083Y008327D01*
X032071Y008298D01*
X032071Y008439D01*
X031942Y008568D01*
X031760Y008568D01*
X031631Y008439D01*
X031631Y008257D01*
X031740Y008148D01*
X031631Y008039D01*
X031631Y007857D01*
X031631Y007938D02*
X007271Y007938D01*
X007201Y008037D02*
X031631Y008037D01*
X031727Y008135D02*
X011649Y008135D01*
X011642Y008128D02*
X011771Y008257D01*
X011771Y008439D01*
X011642Y008568D01*
X011460Y008568D01*
X011331Y008439D01*
X011331Y008257D01*
X011460Y008128D01*
X011642Y008128D01*
X011748Y008234D02*
X012553Y008234D01*
X012610Y008178D02*
X012792Y008178D01*
X012921Y008307D01*
X012921Y008489D01*
X012792Y008618D01*
X012610Y008618D01*
X012481Y008489D01*
X012481Y008307D01*
X012610Y008178D01*
X012481Y008332D02*
X011771Y008332D01*
X011771Y008431D02*
X012481Y008431D01*
X012521Y008529D02*
X011893Y008529D01*
X011892Y008528D02*
X012021Y008657D01*
X012021Y008839D01*
X011892Y008968D01*
X011710Y008968D01*
X011581Y008839D01*
X011581Y008657D01*
X011710Y008528D01*
X011892Y008528D01*
X011992Y008628D02*
X013820Y008628D01*
X013860Y008668D02*
X013731Y008539D01*
X013731Y008357D01*
X013860Y008228D01*
X014042Y008228D01*
X014171Y008357D01*
X014171Y008539D01*
X014042Y008668D01*
X013860Y008668D01*
X013731Y008529D02*
X012880Y008529D01*
X012921Y008431D02*
X013731Y008431D01*
X013755Y008332D02*
X012921Y008332D01*
X012848Y008234D02*
X013853Y008234D01*
X014048Y008234D02*
X016003Y008234D01*
X016010Y008228D02*
X016192Y008228D01*
X016321Y008357D01*
X016321Y008539D01*
X016192Y008668D01*
X016010Y008668D01*
X015881Y008539D01*
X015881Y008357D01*
X016010Y008228D01*
X015905Y008332D02*
X014146Y008332D01*
X014171Y008431D02*
X015881Y008431D01*
X015881Y008529D02*
X014171Y008529D01*
X014082Y008628D02*
X015970Y008628D01*
X016232Y008628D02*
X018120Y008628D01*
X018160Y008668D02*
X018031Y008539D01*
X018031Y008357D01*
X018160Y008228D01*
X018342Y008228D01*
X018471Y008357D01*
X018471Y008539D01*
X018342Y008668D01*
X018160Y008668D01*
X018031Y008529D02*
X016321Y008529D01*
X016321Y008431D02*
X018031Y008431D01*
X018055Y008332D02*
X016296Y008332D01*
X016198Y008234D02*
X018153Y008234D01*
X018348Y008234D02*
X026103Y008234D01*
X026110Y008228D02*
X026292Y008228D01*
X026421Y008357D01*
X026421Y008539D01*
X026292Y008668D01*
X026110Y008668D01*
X025981Y008539D01*
X025981Y008357D01*
X026110Y008228D01*
X026005Y008332D02*
X018446Y008332D01*
X018471Y008431D02*
X025981Y008431D01*
X025981Y008529D02*
X018471Y008529D01*
X018382Y008628D02*
X026070Y008628D01*
X026332Y008628D02*
X031559Y008628D01*
X031461Y008726D02*
X029140Y008726D01*
X029092Y008678D02*
X029221Y008807D01*
X029221Y008989D01*
X029092Y009118D01*
X028910Y009118D01*
X028781Y008989D01*
X028781Y008807D01*
X028910Y008678D01*
X029092Y008678D01*
X029221Y008825D02*
X031431Y008825D01*
X031431Y008923D02*
X029221Y008923D01*
X029188Y009022D02*
X031514Y009022D01*
X031367Y009120D02*
X007071Y009120D01*
X007071Y009022D02*
X028814Y009022D01*
X028781Y008923D02*
X011936Y008923D01*
X012021Y008825D02*
X028781Y008825D01*
X028861Y008726D02*
X012021Y008726D01*
X011708Y008529D02*
X011680Y008529D01*
X011609Y008628D02*
X011221Y008628D01*
X011221Y008726D02*
X011581Y008726D01*
X011581Y008825D02*
X011135Y008825D01*
X011665Y008923D02*
X007037Y008923D01*
X006991Y009219D02*
X031331Y009219D01*
X031734Y009120D02*
X038531Y009120D01*
X038531Y009219D02*
X031771Y009219D01*
X031788Y009022D02*
X031914Y009022D01*
X032188Y009022D02*
X032264Y009022D01*
X032538Y009022D02*
X038565Y009022D01*
X038531Y008923D02*
X032621Y008923D01*
X032621Y008825D02*
X038531Y008825D01*
X038971Y008825D02*
X039281Y008825D01*
X039315Y008923D02*
X038971Y008923D01*
X038071Y007939D02*
X037942Y008068D01*
X037760Y008068D01*
X037701Y008009D01*
X037642Y008068D01*
X037460Y008068D01*
X037331Y007939D01*
X037331Y007757D01*
X037460Y007628D01*
X037642Y007628D01*
X037701Y007687D01*
X037760Y007628D01*
X037942Y007628D01*
X038071Y007757D01*
X038071Y007939D01*
X038071Y007938D02*
X042249Y007938D01*
X042260Y007928D02*
X042442Y007928D01*
X042571Y008057D01*
X042571Y008239D01*
X042442Y008368D01*
X042260Y008368D01*
X042131Y008239D01*
X042131Y008057D01*
X042260Y007928D01*
X042150Y008037D02*
X037973Y008037D01*
X038071Y007840D02*
X043631Y007840D01*
X043631Y007757D02*
X043760Y007628D01*
X043942Y007628D01*
X044001Y007687D01*
X044060Y007628D01*
X044242Y007628D01*
X044371Y007757D01*
X044371Y007939D01*
X044242Y008068D01*
X044060Y008068D01*
X044001Y008009D01*
X043942Y008068D01*
X043760Y008068D01*
X043631Y007939D01*
X043631Y007757D01*
X043646Y007741D02*
X038055Y007741D01*
X037957Y007643D02*
X043744Y007643D01*
X043957Y007643D02*
X044044Y007643D01*
X044257Y007643D02*
X046331Y007643D01*
X046331Y007557D02*
X046460Y007428D01*
X046642Y007428D01*
X046771Y007557D01*
X046771Y007739D01*
X046642Y007868D01*
X046582Y007868D01*
X046671Y007957D01*
X046671Y008139D01*
X046542Y008268D01*
X046360Y008268D01*
X046231Y008139D01*
X046231Y007957D01*
X046360Y007828D01*
X046420Y007828D01*
X046331Y007739D01*
X046331Y007557D01*
X046343Y007544D02*
X045315Y007544D01*
X045371Y007489D02*
X045242Y007618D01*
X045060Y007618D01*
X044931Y007489D01*
X044931Y007307D01*
X045060Y007178D01*
X045242Y007178D01*
X045371Y007307D01*
X045371Y007489D01*
X045371Y007446D02*
X046441Y007446D01*
X046660Y007446D02*
X048701Y007446D01*
X048701Y007544D02*
X046758Y007544D01*
X046771Y007643D02*
X048701Y007643D01*
X048701Y007741D02*
X046768Y007741D01*
X046670Y007840D02*
X048701Y007840D01*
X048701Y007938D02*
X048364Y007938D01*
X048314Y007918D02*
X048432Y007967D01*
X048522Y008057D01*
X048571Y008174D01*
X048571Y008302D01*
X048522Y008419D01*
X048432Y008509D01*
X048314Y008558D01*
X048187Y008558D01*
X048069Y008509D01*
X047979Y008419D01*
X047931Y008302D01*
X047931Y008174D01*
X047979Y008057D01*
X048069Y007967D01*
X048187Y007918D01*
X048314Y007918D01*
X048137Y007938D02*
X046652Y007938D01*
X046671Y008037D02*
X047999Y008037D01*
X047947Y008135D02*
X046671Y008135D01*
X046576Y008234D02*
X047931Y008234D01*
X047943Y008332D02*
X045227Y008332D01*
X045271Y008289D02*
X045142Y008418D01*
X044960Y008418D01*
X044831Y008289D01*
X044831Y008107D01*
X044960Y007978D01*
X045142Y007978D01*
X045271Y008107D01*
X045271Y008289D01*
X045271Y008234D02*
X046326Y008234D01*
X046231Y008135D02*
X045271Y008135D01*
X045201Y008037D02*
X046231Y008037D01*
X046249Y007938D02*
X044371Y007938D01*
X044371Y007840D02*
X046347Y007840D01*
X046333Y007741D02*
X044355Y007741D01*
X044931Y007446D02*
X038512Y007446D01*
X038521Y007437D02*
X038392Y007566D01*
X038210Y007566D01*
X038081Y007437D01*
X038081Y007255D01*
X038210Y007126D01*
X038392Y007126D01*
X038521Y007255D01*
X038521Y007437D01*
X038521Y007347D02*
X043287Y007347D01*
X043310Y007370D02*
X043181Y007241D01*
X043181Y007058D01*
X043310Y006930D01*
X043492Y006930D01*
X043621Y007058D01*
X043621Y007241D01*
X043492Y007370D01*
X043310Y007370D01*
X043189Y007249D02*
X038514Y007249D01*
X038416Y007150D02*
X043181Y007150D01*
X043187Y007052D02*
X010366Y007052D01*
X010271Y006953D02*
X043286Y006953D01*
X043516Y006953D02*
X047948Y006953D01*
X047931Y006994D02*
X047979Y006877D01*
X048069Y006787D01*
X048187Y006738D01*
X048314Y006738D01*
X048432Y006787D01*
X048522Y006877D01*
X048571Y006994D01*
X048571Y007122D01*
X048522Y007239D01*
X048432Y007329D01*
X048314Y007378D01*
X048187Y007378D01*
X048069Y007329D01*
X047979Y007239D01*
X047931Y007122D01*
X047931Y006994D01*
X047931Y007052D02*
X043614Y007052D01*
X043621Y007150D02*
X047943Y007150D01*
X047989Y007249D02*
X045313Y007249D01*
X045371Y007347D02*
X048113Y007347D01*
X048388Y007347D02*
X048701Y007347D01*
X048701Y007249D02*
X048512Y007249D01*
X048559Y007150D02*
X048701Y007150D01*
X048701Y007052D02*
X048571Y007052D01*
X048554Y006953D02*
X048701Y006953D01*
X048701Y006855D02*
X048500Y006855D01*
X048359Y006756D02*
X048701Y006756D01*
X048701Y006658D02*
X044371Y006658D01*
X044371Y006739D02*
X044371Y006557D01*
X044242Y006428D01*
X044060Y006428D01*
X044001Y006487D01*
X043942Y006428D01*
X043760Y006428D01*
X043631Y006557D01*
X043631Y006739D01*
X043760Y006868D01*
X043942Y006868D01*
X044001Y006809D01*
X044060Y006868D01*
X044242Y006868D01*
X044371Y006739D01*
X044353Y006756D02*
X048142Y006756D01*
X048001Y006855D02*
X044255Y006855D01*
X044047Y006855D02*
X043955Y006855D01*
X043747Y006855D02*
X037655Y006855D01*
X037642Y006868D02*
X037460Y006868D01*
X037331Y006739D01*
X037331Y006557D01*
X037460Y006428D01*
X037642Y006428D01*
X037771Y006557D01*
X037771Y006739D01*
X037642Y006868D01*
X037753Y006756D02*
X043648Y006756D01*
X043631Y006658D02*
X037771Y006658D01*
X037771Y006559D02*
X043631Y006559D01*
X043726Y006461D02*
X037675Y006461D01*
X037426Y006461D02*
X034671Y006461D01*
X034671Y006457D02*
X034542Y006328D01*
X034360Y006328D01*
X034231Y006457D01*
X034231Y006639D01*
X034360Y006768D01*
X034542Y006768D01*
X034671Y006639D01*
X034671Y006457D01*
X034671Y006559D02*
X037331Y006559D01*
X037331Y006658D02*
X034652Y006658D01*
X034553Y006756D02*
X037348Y006756D01*
X037447Y006855D02*
X010905Y006855D01*
X010892Y006868D02*
X010710Y006868D01*
X010581Y006739D01*
X010581Y006557D01*
X010710Y006428D01*
X010892Y006428D01*
X011021Y006557D01*
X011021Y006739D01*
X010892Y006868D01*
X011003Y006756D02*
X034348Y006756D01*
X034250Y006658D02*
X011021Y006658D01*
X011021Y006559D02*
X034231Y006559D01*
X034231Y006461D02*
X010925Y006461D01*
X010676Y006461D02*
X004001Y006461D01*
X004001Y006559D02*
X010581Y006559D01*
X010581Y006658D02*
X004001Y006658D01*
X004001Y006756D02*
X009931Y006756D01*
X009832Y006855D02*
X004001Y006855D01*
X004001Y006953D02*
X009831Y006953D01*
X009844Y007052D02*
X004001Y007052D01*
X004001Y007150D02*
X009942Y007150D01*
X010031Y007249D02*
X004001Y007249D01*
X004001Y007347D02*
X010039Y007347D01*
X010462Y007347D02*
X038081Y007347D01*
X038087Y007249D02*
X010471Y007249D01*
X010464Y007150D02*
X038185Y007150D01*
X038089Y007446D02*
X010960Y007446D01*
X011021Y007544D02*
X038188Y007544D01*
X038414Y007544D02*
X044986Y007544D01*
X044931Y007347D02*
X043514Y007347D01*
X043612Y007249D02*
X044988Y007249D01*
X043631Y007938D02*
X042452Y007938D01*
X042551Y008037D02*
X043729Y008037D01*
X043973Y008037D02*
X044029Y008037D01*
X044273Y008037D02*
X044900Y008037D01*
X044831Y008135D02*
X042571Y008135D01*
X042571Y008234D02*
X044831Y008234D01*
X044874Y008332D02*
X042477Y008332D01*
X042224Y008332D02*
X032613Y008332D01*
X032657Y008234D02*
X042131Y008234D01*
X042131Y008135D02*
X032667Y008135D01*
X032647Y008037D02*
X036229Y008037D01*
X036260Y008068D02*
X036131Y007939D01*
X036131Y007757D01*
X036260Y007628D01*
X036442Y007628D01*
X036571Y007757D01*
X036571Y007939D01*
X036442Y008068D01*
X036260Y008068D01*
X036131Y007938D02*
X032588Y007938D01*
X032433Y007840D02*
X036131Y007840D01*
X036146Y007741D02*
X031955Y007741D01*
X032054Y007840D02*
X032268Y007840D01*
X032113Y007938D02*
X032071Y007938D01*
X031746Y007741D02*
X010968Y007741D01*
X011021Y007643D02*
X036244Y007643D01*
X036457Y007643D02*
X037444Y007643D01*
X037346Y007741D02*
X036555Y007741D01*
X036571Y007840D02*
X037331Y007840D01*
X037331Y007938D02*
X036571Y007938D01*
X036473Y008037D02*
X037429Y008037D01*
X037673Y008037D02*
X037729Y008037D01*
X037744Y007643D02*
X037657Y007643D01*
X034576Y006362D02*
X048701Y006362D01*
X048701Y006264D02*
X004001Y006264D01*
X004001Y006362D02*
X034325Y006362D01*
X034660Y004468D02*
X034531Y004339D01*
X034531Y004157D01*
X034640Y004048D01*
X034531Y003939D01*
X034531Y003757D01*
X034660Y003628D01*
X034842Y003628D01*
X034951Y003737D01*
X035060Y003628D01*
X035242Y003628D01*
X035351Y003737D01*
X035460Y003628D01*
X035642Y003628D01*
X035771Y003757D01*
X035771Y003939D01*
X035662Y004048D01*
X035771Y004157D01*
X035771Y004339D01*
X035642Y004468D01*
X035460Y004468D01*
X035351Y004359D01*
X035242Y004468D01*
X035060Y004468D01*
X034951Y004359D01*
X034842Y004468D01*
X034660Y004468D01*
X034584Y004392D02*
X012406Y004392D01*
X012342Y004328D02*
X012471Y004457D01*
X012471Y004639D01*
X012342Y004768D01*
X012171Y004768D01*
X012171Y004939D01*
X012042Y005068D01*
X011860Y005068D01*
X011731Y004939D01*
X011731Y004757D01*
X011860Y004628D01*
X012031Y004628D01*
X012031Y004457D01*
X012160Y004328D01*
X012342Y004328D01*
X012471Y004491D02*
X039531Y004491D01*
X039531Y004457D02*
X039660Y004328D01*
X039842Y004328D01*
X039971Y004457D01*
X039971Y004639D01*
X039842Y004768D01*
X039660Y004768D01*
X039531Y004639D01*
X039531Y004457D01*
X039595Y004392D02*
X035717Y004392D01*
X035771Y004294D02*
X041243Y004294D01*
X041181Y004357D02*
X041310Y004228D01*
X041492Y004228D01*
X041621Y004357D01*
X041621Y004539D01*
X041492Y004668D01*
X041310Y004668D01*
X041181Y004539D01*
X041181Y004357D01*
X041181Y004392D02*
X039906Y004392D01*
X039971Y004491D02*
X041181Y004491D01*
X041231Y004589D02*
X039971Y004589D01*
X039922Y004688D02*
X046531Y004688D01*
X046531Y004657D02*
X046660Y004528D01*
X046842Y004528D01*
X046901Y004587D01*
X046960Y004528D01*
X047142Y004528D01*
X047271Y004657D01*
X047271Y004839D01*
X047162Y004948D01*
X047271Y005057D01*
X047271Y005239D01*
X047142Y005368D01*
X046960Y005368D01*
X046901Y005309D01*
X046842Y005368D01*
X046660Y005368D01*
X046531Y005239D01*
X046531Y005057D01*
X046640Y004948D01*
X046531Y004839D01*
X046531Y004657D01*
X046598Y004589D02*
X043820Y004589D01*
X043871Y004539D02*
X043742Y004668D01*
X043560Y004668D01*
X043431Y004539D01*
X043431Y004357D01*
X043560Y004228D01*
X043742Y004228D01*
X043871Y004357D01*
X043871Y004539D01*
X043871Y004491D02*
X048701Y004491D01*
X048701Y004589D02*
X047203Y004589D01*
X047271Y004688D02*
X048701Y004688D01*
X048701Y004786D02*
X047271Y004786D01*
X047225Y004885D02*
X048701Y004885D01*
X048701Y004983D02*
X047197Y004983D01*
X047271Y005082D02*
X048701Y005082D01*
X048701Y005180D02*
X047271Y005180D01*
X047231Y005279D02*
X048701Y005279D01*
X048701Y005377D02*
X043171Y005377D01*
X043171Y005389D02*
X043112Y005448D01*
X043171Y005507D01*
X043171Y005689D01*
X043042Y005818D01*
X042860Y005818D01*
X042731Y005689D01*
X042731Y005507D01*
X042790Y005448D01*
X042731Y005389D01*
X042731Y005207D01*
X042860Y005078D01*
X043042Y005078D01*
X043171Y005207D01*
X043171Y005389D01*
X043140Y005476D02*
X048701Y005476D01*
X048701Y005574D02*
X044938Y005574D01*
X044971Y005607D02*
X044842Y005478D01*
X044660Y005478D01*
X044531Y005607D01*
X044531Y005789D01*
X044660Y005918D01*
X044842Y005918D01*
X044971Y005789D01*
X044971Y005607D01*
X044971Y005673D02*
X048701Y005673D01*
X048701Y005771D02*
X044971Y005771D01*
X044890Y005870D02*
X048701Y005870D01*
X048701Y005968D02*
X004001Y005968D01*
X004001Y005870D02*
X039352Y005870D01*
X039410Y005928D02*
X039281Y005799D01*
X039281Y005617D01*
X039410Y005488D01*
X039592Y005488D01*
X039721Y005617D01*
X039721Y005799D01*
X039592Y005928D01*
X039410Y005928D01*
X039281Y005771D02*
X038928Y005771D01*
X038971Y005729D02*
X038842Y005858D01*
X038660Y005858D01*
X038531Y005729D01*
X038531Y005547D01*
X038585Y005493D01*
X038531Y005439D01*
X038531Y005257D01*
X038660Y005128D01*
X038842Y005128D01*
X038971Y005257D01*
X038971Y005439D01*
X038917Y005493D01*
X038971Y005547D01*
X038971Y005729D01*
X038971Y005673D02*
X039281Y005673D01*
X039323Y005574D02*
X038971Y005574D01*
X038934Y005476D02*
X040718Y005476D01*
X040760Y005518D02*
X040631Y005389D01*
X040631Y005207D01*
X040760Y005078D01*
X040942Y005078D01*
X041071Y005207D01*
X041071Y005389D01*
X040942Y005518D01*
X040760Y005518D01*
X040631Y005377D02*
X040442Y005377D01*
X040481Y005339D02*
X040352Y005468D01*
X040170Y005468D01*
X040041Y005339D01*
X040041Y005157D01*
X040170Y005028D01*
X040352Y005028D01*
X040481Y005157D01*
X040481Y005339D01*
X040481Y005279D02*
X040631Y005279D01*
X040657Y005180D02*
X040481Y005180D01*
X040406Y005082D02*
X040755Y005082D01*
X040946Y005082D02*
X041781Y005082D01*
X041781Y005089D02*
X041781Y004907D01*
X041910Y004778D01*
X042092Y004778D01*
X042221Y004907D01*
X042221Y005089D01*
X042092Y005218D01*
X041910Y005218D01*
X041781Y005089D01*
X041781Y004983D02*
X039697Y004983D01*
X039721Y005007D02*
X039592Y004878D01*
X039410Y004878D01*
X039281Y005007D01*
X039281Y005189D01*
X039410Y005318D01*
X039592Y005318D01*
X039721Y005189D01*
X039721Y005007D01*
X039721Y005082D02*
X040115Y005082D01*
X040041Y005180D02*
X039721Y005180D01*
X039631Y005279D02*
X040041Y005279D01*
X040079Y005377D02*
X038971Y005377D01*
X038971Y005279D02*
X039371Y005279D01*
X039281Y005180D02*
X038894Y005180D01*
X038607Y005180D02*
X012594Y005180D01*
X012542Y005128D02*
X012671Y005257D01*
X012671Y005439D01*
X012542Y005568D01*
X012360Y005568D01*
X012231Y005439D01*
X012231Y005257D01*
X012360Y005128D01*
X012542Y005128D01*
X012671Y005279D02*
X038531Y005279D01*
X038531Y005377D02*
X012671Y005377D01*
X012634Y005476D02*
X038568Y005476D01*
X038531Y005574D02*
X011221Y005574D01*
X011221Y005639D02*
X011092Y005768D01*
X010910Y005768D01*
X010781Y005639D01*
X010781Y005457D01*
X010910Y005328D01*
X011092Y005328D01*
X011221Y005457D01*
X011221Y005639D01*
X011187Y005673D02*
X038531Y005673D01*
X038573Y005771D02*
X004001Y005771D01*
X004001Y005673D02*
X010815Y005673D01*
X010781Y005574D02*
X004001Y005574D01*
X004001Y005476D02*
X010781Y005476D01*
X010860Y005377D02*
X004001Y005377D01*
X004001Y005279D02*
X012231Y005279D01*
X012231Y005377D02*
X011141Y005377D01*
X011221Y005476D02*
X012268Y005476D01*
X012307Y005180D02*
X004001Y005180D01*
X004001Y005082D02*
X039281Y005082D01*
X039304Y004983D02*
X012126Y004983D01*
X012171Y004885D02*
X039402Y004885D01*
X039599Y004885D02*
X041802Y004885D01*
X041901Y004786D02*
X012171Y004786D01*
X012031Y004589D02*
X008671Y004589D01*
X008671Y004639D02*
X008542Y004768D01*
X008360Y004768D01*
X008231Y004639D01*
X008231Y004457D01*
X008360Y004328D01*
X008542Y004328D01*
X008671Y004457D01*
X008671Y004639D01*
X008622Y004688D02*
X011799Y004688D01*
X011731Y004786D02*
X004001Y004786D01*
X004001Y004688D02*
X008280Y004688D01*
X008231Y004589D02*
X004001Y004589D01*
X004001Y004491D02*
X008231Y004491D01*
X008295Y004392D02*
X004001Y004392D01*
X004001Y004294D02*
X034531Y004294D01*
X034531Y004195D02*
X004001Y004195D01*
X004001Y004097D02*
X034590Y004097D01*
X034590Y003998D02*
X034011Y003998D01*
X034071Y003939D02*
X033942Y004068D01*
X033760Y004068D01*
X033651Y003959D01*
X033542Y004068D01*
X033360Y004068D01*
X033251Y003959D01*
X033142Y004068D01*
X032960Y004068D01*
X032831Y003939D01*
X032831Y003757D01*
X032960Y003628D01*
X033142Y003628D01*
X033251Y003737D01*
X033360Y003628D01*
X033542Y003628D01*
X033651Y003737D01*
X033760Y003628D01*
X033942Y003628D01*
X034071Y003757D01*
X034071Y003939D01*
X034071Y003900D02*
X034531Y003900D01*
X034531Y003801D02*
X034071Y003801D01*
X034017Y003703D02*
X034584Y003703D01*
X034917Y003703D02*
X034984Y003703D01*
X035317Y003703D02*
X035384Y003703D01*
X035717Y003703D02*
X036795Y003703D01*
X036731Y003639D02*
X036731Y003457D01*
X036860Y003328D01*
X036900Y003328D01*
X036871Y003316D01*
X036783Y003227D01*
X036734Y003111D01*
X036734Y002985D01*
X036783Y002869D01*
X036871Y002780D01*
X036988Y002732D01*
X037114Y002732D01*
X037230Y002780D01*
X037319Y002869D01*
X037367Y002985D01*
X037367Y003111D01*
X037319Y003227D01*
X037230Y003316D01*
X037114Y003364D01*
X037078Y003364D01*
X037151Y003437D01*
X037260Y003328D01*
X037442Y003328D01*
X037551Y003437D01*
X037660Y003328D01*
X037842Y003328D01*
X037971Y003457D01*
X037971Y003639D01*
X037842Y003768D01*
X037660Y003768D01*
X037551Y003659D01*
X037442Y003768D01*
X037260Y003768D01*
X037151Y003659D01*
X037042Y003768D01*
X036860Y003768D01*
X036731Y003639D01*
X036731Y003604D02*
X004001Y003604D01*
X004001Y003506D02*
X032898Y003506D01*
X032960Y003568D02*
X032831Y003439D01*
X032831Y003257D01*
X032960Y003128D01*
X033142Y003128D01*
X033251Y003237D01*
X033360Y003128D01*
X033542Y003128D01*
X033651Y003237D01*
X033760Y003128D01*
X033942Y003128D01*
X034071Y003257D01*
X034071Y003439D01*
X033942Y003568D01*
X033760Y003568D01*
X033651Y003459D01*
X033542Y003568D01*
X033360Y003568D01*
X033251Y003459D01*
X033142Y003568D01*
X032960Y003568D01*
X032884Y003703D02*
X004001Y003703D01*
X004001Y003801D02*
X032831Y003801D01*
X032831Y003900D02*
X004001Y003900D01*
X004001Y003998D02*
X032890Y003998D01*
X033211Y003998D02*
X033290Y003998D01*
X033284Y003703D02*
X033217Y003703D01*
X033204Y003506D02*
X033298Y003506D01*
X033277Y003210D02*
X033224Y003210D01*
X032877Y003210D02*
X004001Y003210D01*
X004001Y003112D02*
X036735Y003112D01*
X036734Y003013D02*
X004001Y003013D01*
X004001Y002915D02*
X036763Y002915D01*
X036835Y002816D02*
X005656Y002816D01*
X005714Y002792D02*
X005478Y002890D01*
X005223Y002890D01*
X004987Y002792D01*
X004806Y002612D01*
X004709Y002376D01*
X004709Y002120D01*
X004806Y001884D01*
X004987Y001704D01*
X005223Y001606D01*
X005478Y001606D01*
X005714Y001704D01*
X005895Y001884D01*
X005993Y002120D01*
X005993Y002376D01*
X005895Y002612D01*
X005714Y002792D01*
X005789Y002718D02*
X038981Y002718D01*
X038981Y002707D02*
X039110Y002578D01*
X039292Y002578D01*
X039421Y002707D01*
X039421Y002889D01*
X039292Y003018D01*
X039110Y003018D01*
X038981Y002889D01*
X038981Y002707D01*
X038981Y002816D02*
X037266Y002816D01*
X037338Y002915D02*
X039007Y002915D01*
X039105Y003013D02*
X037367Y003013D01*
X037366Y003112D02*
X048701Y003112D01*
X048701Y003210D02*
X037326Y003210D01*
X037237Y003309D02*
X048701Y003309D01*
X048701Y003407D02*
X037921Y003407D01*
X037971Y003506D02*
X041181Y003506D01*
X041131Y003557D02*
X041260Y003428D01*
X041442Y003428D01*
X041571Y003557D01*
X041571Y003739D01*
X041442Y003868D01*
X041260Y003868D01*
X041131Y003739D01*
X041131Y003557D01*
X041131Y003604D02*
X037971Y003604D01*
X037907Y003703D02*
X039034Y003703D01*
X038981Y003757D02*
X039110Y003628D01*
X039292Y003628D01*
X039401Y003737D01*
X039410Y003728D01*
X039592Y003728D01*
X039721Y003857D01*
X039721Y004039D01*
X039592Y004168D01*
X039410Y004168D01*
X039301Y004059D01*
X039292Y004068D01*
X039110Y004068D01*
X038981Y003939D01*
X038981Y003757D01*
X038981Y003801D02*
X035771Y003801D01*
X035771Y003900D02*
X038981Y003900D01*
X039040Y003998D02*
X035711Y003998D01*
X035711Y004097D02*
X039339Y004097D01*
X039663Y004097D02*
X041889Y004097D01*
X041910Y004118D02*
X041781Y003989D01*
X041781Y003807D01*
X041910Y003678D01*
X042092Y003678D01*
X042131Y003717D01*
X042131Y003557D01*
X042260Y003428D01*
X042442Y003428D01*
X042571Y003557D01*
X042571Y003739D01*
X042442Y003868D01*
X042260Y003868D01*
X042221Y003829D01*
X042221Y003989D01*
X042092Y004118D01*
X041910Y004118D01*
X041790Y003998D02*
X039721Y003998D01*
X039721Y003900D02*
X041781Y003900D01*
X041786Y003801D02*
X041508Y003801D01*
X041571Y003703D02*
X041884Y003703D01*
X042117Y003703D02*
X042131Y003703D01*
X042131Y003604D02*
X041571Y003604D01*
X041520Y003506D02*
X042181Y003506D01*
X042520Y003506D02*
X048701Y003506D01*
X048701Y003604D02*
X042571Y003604D01*
X042571Y003703D02*
X048701Y003703D01*
X048701Y003801D02*
X042508Y003801D01*
X042221Y003900D02*
X048701Y003900D01*
X048701Y003998D02*
X042211Y003998D01*
X042113Y004097D02*
X048701Y004097D01*
X048701Y004195D02*
X035771Y004195D01*
X035384Y004392D02*
X035317Y004392D01*
X034984Y004392D02*
X034917Y004392D01*
X034004Y003506D02*
X036731Y003506D01*
X036780Y003407D02*
X034071Y003407D01*
X034071Y003309D02*
X036864Y003309D01*
X036776Y003210D02*
X034024Y003210D01*
X033677Y003210D02*
X033624Y003210D01*
X033604Y003506D02*
X033698Y003506D01*
X033684Y003703D02*
X033617Y003703D01*
X033611Y003998D02*
X033690Y003998D01*
X032831Y003407D02*
X004001Y003407D01*
X004001Y003309D02*
X032831Y003309D01*
X037121Y003407D02*
X037180Y003407D01*
X037195Y003703D02*
X037107Y003703D01*
X037507Y003703D02*
X037595Y003703D01*
X037580Y003407D02*
X037521Y003407D01*
X039068Y002619D02*
X005887Y002619D01*
X005933Y002521D02*
X046769Y002521D01*
X046806Y002612D02*
X046709Y002376D01*
X046709Y002120D01*
X046806Y001884D01*
X046987Y001704D01*
X047223Y001606D01*
X047478Y001606D01*
X047714Y001704D01*
X047895Y001884D01*
X047993Y002120D01*
X047993Y002376D01*
X047895Y002612D01*
X047714Y002792D01*
X047478Y002890D01*
X047223Y002890D01*
X046987Y002792D01*
X046806Y002612D01*
X046814Y002619D02*
X039333Y002619D01*
X039421Y002718D02*
X046913Y002718D01*
X047045Y002816D02*
X039421Y002816D01*
X039395Y002915D02*
X048701Y002915D01*
X048701Y003013D02*
X039296Y003013D01*
X039367Y003703D02*
X041131Y003703D01*
X041193Y003801D02*
X039665Y003801D01*
X039531Y004589D02*
X012471Y004589D01*
X012422Y004688D02*
X039580Y004688D01*
X039678Y005574D02*
X042013Y005574D01*
X041981Y005607D02*
X042110Y005478D01*
X042292Y005478D01*
X042421Y005607D01*
X042421Y005789D01*
X042292Y005918D01*
X042110Y005918D01*
X041981Y005789D01*
X041981Y005607D01*
X041981Y005673D02*
X039721Y005673D01*
X039721Y005771D02*
X041981Y005771D01*
X042062Y005870D02*
X039650Y005870D01*
X040984Y005476D02*
X041268Y005476D01*
X041231Y005439D02*
X041231Y005257D01*
X041360Y005128D01*
X041542Y005128D01*
X041671Y005257D01*
X041671Y005439D01*
X041542Y005568D01*
X041360Y005568D01*
X041231Y005439D01*
X041231Y005377D02*
X041071Y005377D01*
X041071Y005279D02*
X041231Y005279D01*
X041307Y005180D02*
X041044Y005180D01*
X041594Y005180D02*
X041872Y005180D01*
X041671Y005279D02*
X042731Y005279D01*
X042731Y005377D02*
X041671Y005377D01*
X041634Y005476D02*
X042761Y005476D01*
X042731Y005574D02*
X042388Y005574D01*
X042421Y005673D02*
X042731Y005673D01*
X042813Y005771D02*
X042421Y005771D01*
X042340Y005870D02*
X044612Y005870D01*
X044531Y005771D02*
X043088Y005771D01*
X043171Y005673D02*
X044531Y005673D01*
X044563Y005574D02*
X043171Y005574D01*
X043171Y005279D02*
X046571Y005279D01*
X046531Y005180D02*
X043144Y005180D01*
X043046Y005082D02*
X046531Y005082D01*
X046604Y004983D02*
X042221Y004983D01*
X042221Y005082D02*
X042855Y005082D01*
X042757Y005180D02*
X042129Y005180D01*
X042199Y004885D02*
X046577Y004885D01*
X046531Y004786D02*
X042100Y004786D01*
X041621Y004491D02*
X043431Y004491D01*
X043431Y004392D02*
X041621Y004392D01*
X041558Y004294D02*
X043493Y004294D01*
X043481Y004589D02*
X041570Y004589D01*
X043808Y004294D02*
X048701Y004294D01*
X048701Y004392D02*
X043871Y004392D01*
X046728Y002422D02*
X005973Y002422D01*
X005993Y002324D02*
X046709Y002324D01*
X046709Y002225D02*
X005993Y002225D01*
X005993Y002127D02*
X046709Y002127D01*
X046747Y002028D02*
X005955Y002028D01*
X005914Y001930D02*
X043522Y001930D01*
X043560Y001968D02*
X043431Y001839D01*
X043431Y001657D01*
X043540Y001548D01*
X043431Y001439D01*
X043431Y001257D01*
X043560Y001128D01*
X043742Y001128D01*
X043801Y001187D01*
X043860Y001128D01*
X044042Y001128D01*
X044101Y001187D01*
X044160Y001128D01*
X044342Y001128D01*
X044471Y001257D01*
X044471Y001439D01*
X044362Y001548D01*
X044471Y001657D01*
X044471Y001839D01*
X044342Y001968D01*
X044160Y001968D01*
X044101Y001909D01*
X044042Y001968D01*
X043860Y001968D01*
X043801Y001909D01*
X043742Y001968D01*
X043560Y001968D01*
X043431Y001831D02*
X005842Y001831D01*
X005744Y001733D02*
X043431Y001733D01*
X043453Y001634D02*
X005547Y001634D01*
X005154Y001634D02*
X004001Y001634D01*
X004001Y001536D02*
X043528Y001536D01*
X043431Y001437D02*
X004001Y001437D01*
X004001Y001339D02*
X043431Y001339D01*
X043447Y001240D02*
X004001Y001240D01*
X004001Y001142D02*
X043546Y001142D01*
X043756Y001142D02*
X043846Y001142D01*
X044056Y001142D02*
X044146Y001142D01*
X044356Y001142D02*
X048701Y001142D01*
X048701Y001240D02*
X045335Y001240D01*
X045314Y001232D02*
X045430Y001280D01*
X045519Y001369D01*
X045567Y001485D01*
X045567Y001611D01*
X045519Y001727D01*
X045430Y001816D01*
X045314Y001864D01*
X045188Y001864D01*
X045071Y001816D01*
X044983Y001727D01*
X044934Y001611D01*
X044934Y001485D01*
X044983Y001369D01*
X045071Y001280D01*
X045188Y001232D01*
X045314Y001232D01*
X045167Y001240D02*
X044454Y001240D01*
X044471Y001339D02*
X045012Y001339D01*
X044954Y001437D02*
X044471Y001437D01*
X044374Y001536D02*
X044934Y001536D01*
X044944Y001634D02*
X044448Y001634D01*
X044471Y001733D02*
X044988Y001733D01*
X045109Y001831D02*
X044471Y001831D01*
X044380Y001930D02*
X046787Y001930D01*
X046859Y001831D02*
X045393Y001831D01*
X045513Y001733D02*
X046958Y001733D01*
X047154Y001634D02*
X045557Y001634D01*
X045567Y001536D02*
X048701Y001536D01*
X048701Y001634D02*
X047547Y001634D01*
X047744Y001733D02*
X048701Y001733D01*
X048701Y001831D02*
X047842Y001831D01*
X047914Y001930D02*
X048701Y001930D01*
X048701Y002028D02*
X047955Y002028D01*
X047993Y002127D02*
X048701Y002127D01*
X048701Y002225D02*
X047993Y002225D01*
X047993Y002324D02*
X048701Y002324D01*
X048701Y002422D02*
X047973Y002422D01*
X047933Y002521D02*
X048701Y002521D01*
X048701Y002619D02*
X047887Y002619D01*
X047789Y002718D02*
X048701Y002718D01*
X048701Y002816D02*
X047656Y002816D01*
X048701Y001437D02*
X045547Y001437D01*
X045489Y001339D02*
X048701Y001339D01*
X048701Y001043D02*
X004001Y001043D01*
X004001Y000945D02*
X048701Y000945D01*
X044122Y001930D02*
X044080Y001930D01*
X043822Y001930D02*
X043780Y001930D01*
X048701Y006067D02*
X004001Y006067D01*
X004001Y006165D02*
X048701Y006165D01*
X048701Y006461D02*
X044275Y006461D01*
X044371Y006559D02*
X048701Y006559D01*
X048701Y008037D02*
X048502Y008037D01*
X048555Y008135D02*
X048701Y008135D01*
X048701Y008234D02*
X048571Y008234D01*
X048558Y008332D02*
X048701Y008332D01*
X048701Y008431D02*
X048510Y008431D01*
X048383Y008529D02*
X048701Y008529D01*
X048118Y008529D02*
X031980Y008529D01*
X031960Y008628D02*
X031851Y008737D01*
X031742Y008628D01*
X031721Y008529D02*
X026421Y008529D01*
X026421Y008431D02*
X031631Y008431D01*
X031631Y008332D02*
X026396Y008332D01*
X026298Y008234D02*
X031653Y008234D01*
X032071Y008332D02*
X032088Y008332D01*
X032071Y008431D02*
X032208Y008431D01*
X032142Y008628D02*
X032226Y008712D01*
X032310Y008628D01*
X032492Y008628D02*
X032621Y008757D01*
X032494Y008431D02*
X047991Y008431D01*
X048701Y010007D02*
X046621Y010007D01*
X046671Y010105D02*
X048701Y010105D01*
X048701Y010204D02*
X046671Y010204D01*
X046607Y010302D02*
X048701Y010302D01*
X045755Y012863D02*
X045746Y012863D01*
X045648Y012962D02*
X045854Y012962D01*
X045836Y014144D02*
X045666Y014144D01*
X045436Y014144D02*
X045371Y014144D01*
X043871Y015257D02*
X043742Y015128D01*
X043560Y015128D01*
X043431Y015257D01*
X043431Y015439D01*
X043560Y015568D01*
X043742Y015568D01*
X043871Y015439D01*
X043871Y015257D01*
X043841Y015227D02*
X048701Y015227D01*
X048701Y015129D02*
X043743Y015129D01*
X043558Y015129D02*
X041843Y015129D01*
X041941Y015227D02*
X043460Y015227D01*
X043431Y015326D02*
X041971Y015326D01*
X041971Y015424D02*
X043431Y015424D01*
X043515Y015523D02*
X041887Y015523D01*
X041615Y015523D02*
X034187Y015523D01*
X034271Y015424D02*
X034866Y015424D01*
X034831Y015326D02*
X034271Y015326D01*
X034241Y015227D02*
X034831Y015227D01*
X034908Y015129D02*
X034143Y015129D01*
X034021Y015621D02*
X048701Y015621D01*
X048701Y015523D02*
X043787Y015523D01*
X043871Y015424D02*
X048701Y015424D01*
X048701Y015326D02*
X043871Y015326D01*
X041531Y015326D02*
X035271Y015326D01*
X035235Y015424D02*
X041531Y015424D01*
X036456Y018281D02*
X009971Y018281D01*
X009930Y018379D02*
X035808Y018379D01*
X035731Y018478D02*
X004001Y018478D01*
X004001Y018576D02*
X018111Y018576D01*
X018160Y018528D02*
X018342Y018528D01*
X018471Y018657D01*
X018471Y018839D01*
X018342Y018968D01*
X018160Y018968D01*
X018031Y018839D01*
X018031Y018657D01*
X018160Y018528D01*
X018031Y018675D02*
X016239Y018675D01*
X016192Y018628D02*
X016321Y018757D01*
X016321Y018939D01*
X016192Y019068D01*
X016010Y019068D01*
X015881Y018939D01*
X015881Y018757D01*
X016010Y018628D01*
X016192Y018628D01*
X016321Y018773D02*
X018031Y018773D01*
X018064Y018872D02*
X016321Y018872D01*
X016289Y018970D02*
X032131Y018970D01*
X032165Y018872D02*
X026188Y018872D01*
X026221Y018839D02*
X026092Y018968D01*
X025910Y018968D01*
X025826Y018884D01*
X025742Y018968D01*
X025560Y018968D01*
X025431Y018839D01*
X025431Y018657D01*
X025560Y018528D01*
X025742Y018528D01*
X025826Y018612D01*
X025910Y018528D01*
X026092Y018528D01*
X026221Y018657D01*
X026221Y018839D01*
X026221Y018773D02*
X033631Y018773D01*
X033631Y018872D02*
X032536Y018872D01*
X032571Y018970D02*
X033662Y018970D01*
X033712Y018675D02*
X026221Y018675D01*
X026140Y018576D02*
X035731Y018576D01*
X035767Y018675D02*
X033989Y018675D01*
X034071Y018773D02*
X036165Y018773D01*
X036436Y018773D02*
X036765Y018773D01*
X036681Y018675D02*
X036521Y018675D01*
X036208Y018379D02*
X036093Y018379D01*
X035126Y019561D02*
X032975Y019561D01*
X033071Y019660D02*
X035031Y019660D01*
X035031Y019758D02*
X033071Y019758D01*
X033171Y019857D02*
X035049Y019857D01*
X034235Y020152D02*
X033257Y020152D01*
X033159Y020251D02*
X034181Y020251D01*
X034181Y020349D02*
X009151Y020349D01*
X009098Y020448D02*
X034240Y020448D01*
X034581Y020743D02*
X033207Y020743D01*
X033221Y020842D02*
X034634Y020842D01*
X035281Y021207D02*
X035410Y021078D01*
X035592Y021078D01*
X035721Y021207D01*
X035721Y021389D01*
X035592Y021518D01*
X035410Y021518D01*
X035281Y021389D01*
X035281Y021207D01*
X035281Y021236D02*
X032821Y021236D01*
X032821Y021239D02*
X032692Y021368D01*
X032510Y021368D01*
X032381Y021239D01*
X032381Y021057D01*
X032510Y020928D01*
X032692Y020928D01*
X032821Y021057D01*
X032821Y021239D01*
X032821Y021137D02*
X035350Y021137D01*
X035281Y021334D02*
X032725Y021334D01*
X032476Y021334D02*
X031871Y021334D01*
X031871Y021236D02*
X032381Y021236D01*
X032381Y021137D02*
X031851Y021137D01*
X031753Y021039D02*
X032398Y021039D01*
X032497Y020940D02*
X012554Y020940D01*
X012456Y020842D02*
X031234Y020842D01*
X031181Y020743D02*
X004001Y020743D01*
X004001Y020645D02*
X031181Y020645D01*
X031777Y021433D02*
X031854Y021433D01*
X032047Y021433D02*
X035325Y021433D01*
X035677Y021433D02*
X036375Y021433D01*
X036331Y021389D02*
X036331Y021207D01*
X036460Y021078D01*
X036642Y021078D01*
X036771Y021207D01*
X036771Y021389D01*
X036642Y021518D01*
X036460Y021518D01*
X036331Y021389D01*
X036331Y021334D02*
X035721Y021334D01*
X035721Y021236D02*
X036331Y021236D01*
X036400Y021137D02*
X035651Y021137D01*
X036701Y021137D02*
X037000Y021137D01*
X036931Y021236D02*
X036771Y021236D01*
X036771Y021334D02*
X036931Y021334D01*
X036975Y021433D02*
X036727Y021433D01*
X032881Y021039D02*
X032803Y021039D01*
X032782Y020940D02*
X032704Y020940D01*
X032575Y022615D02*
X004001Y022615D01*
X004001Y022713D02*
X032512Y022713D01*
X032485Y022812D02*
X004001Y022812D01*
X004001Y022910D02*
X032485Y022910D01*
X032523Y023009D02*
X004001Y023009D01*
X004001Y023107D02*
X032601Y023107D01*
X025464Y018872D02*
X018438Y018872D01*
X018471Y018773D02*
X025431Y018773D01*
X025431Y018675D02*
X018471Y018675D01*
X018390Y018576D02*
X025511Y018576D01*
X025790Y018576D02*
X025861Y018576D01*
X026260Y017868D02*
X026131Y017739D01*
X026131Y017557D01*
X026260Y017428D01*
X026442Y017428D01*
X026571Y017557D01*
X026571Y017739D01*
X026442Y017868D01*
X026260Y017868D01*
X026180Y017788D02*
X004001Y017788D01*
X004001Y017690D02*
X026131Y017690D01*
X026131Y017591D02*
X025518Y017591D01*
X025571Y017493D02*
X026194Y017493D01*
X026507Y017493D02*
X029194Y017493D01*
X029131Y017557D02*
X029260Y017428D01*
X029442Y017428D01*
X029571Y017557D01*
X029571Y017739D01*
X029442Y017868D01*
X029260Y017868D01*
X029131Y017739D01*
X029131Y017557D01*
X029131Y017591D02*
X026571Y017591D01*
X026571Y017690D02*
X029131Y017690D01*
X029180Y017788D02*
X026521Y017788D01*
X025183Y017591D02*
X024418Y017591D01*
X024471Y017539D02*
X024342Y017668D01*
X024160Y017668D01*
X024031Y017539D01*
X024031Y017357D01*
X024160Y017228D01*
X024342Y017228D01*
X024471Y017357D01*
X024471Y017539D01*
X024471Y017493D02*
X025131Y017493D01*
X025131Y017394D02*
X024471Y017394D01*
X024410Y017296D02*
X025191Y017296D01*
X024091Y017296D02*
X004001Y017296D01*
X004001Y017394D02*
X024031Y017394D01*
X024031Y017493D02*
X004001Y017493D01*
X004001Y017591D02*
X024083Y017591D01*
X029507Y017493D02*
X029794Y017493D01*
X029731Y017557D02*
X029860Y017428D01*
X030042Y017428D01*
X030171Y017557D01*
X030171Y017739D01*
X030042Y017868D01*
X029860Y017868D01*
X029731Y017739D01*
X029731Y017557D01*
X029731Y017591D02*
X029571Y017591D01*
X029571Y017690D02*
X029731Y017690D01*
X029780Y017788D02*
X029521Y017788D01*
X030121Y017788D02*
X031930Y017788D01*
X031881Y017690D02*
X030171Y017690D01*
X030171Y017591D02*
X031881Y017591D01*
X031944Y017493D02*
X030107Y017493D01*
X032431Y015889D02*
X032431Y015707D01*
X032560Y015578D01*
X032742Y015578D01*
X032871Y015707D01*
X032871Y015889D01*
X032742Y016018D01*
X032560Y016018D01*
X032431Y015889D01*
X032459Y015917D02*
X010621Y015917D01*
X010621Y015857D02*
X010492Y015728D01*
X010310Y015728D01*
X010181Y015857D01*
X010181Y016039D01*
X010310Y016168D01*
X010492Y016168D01*
X010621Y016039D01*
X010621Y015857D01*
X010582Y015818D02*
X032431Y015818D01*
X032431Y015720D02*
X004001Y015720D01*
X004001Y015818D02*
X010219Y015818D01*
X010181Y015917D02*
X004001Y015917D01*
X004001Y016015D02*
X010181Y016015D01*
X010256Y016114D02*
X004001Y016114D01*
X004001Y016212D02*
X013631Y016212D01*
X013631Y016239D02*
X013631Y016057D01*
X013760Y015928D01*
X013942Y015928D01*
X014071Y016057D01*
X014071Y016239D01*
X013942Y016368D01*
X013760Y016368D01*
X013631Y016239D01*
X013703Y016311D02*
X010575Y016311D01*
X010621Y016409D02*
X033901Y016409D01*
X033831Y016311D02*
X013999Y016311D01*
X014071Y016212D02*
X033831Y016212D01*
X033873Y016114D02*
X014071Y016114D01*
X014029Y016015D02*
X032557Y016015D01*
X032744Y016015D02*
X048701Y016015D01*
X048701Y015917D02*
X033893Y015917D01*
X033991Y015818D02*
X048701Y015818D01*
X048701Y015720D02*
X034021Y015720D01*
X033709Y015917D02*
X032843Y015917D01*
X032871Y015818D02*
X033610Y015818D01*
X033581Y015720D02*
X032871Y015720D01*
X032785Y015621D02*
X033581Y015621D01*
X033664Y015523D02*
X012771Y015523D01*
X012738Y015621D02*
X032516Y015621D01*
X034408Y013651D02*
X034681Y013651D01*
X034684Y013553D02*
X034471Y013553D01*
X031812Y012075D02*
X031689Y012075D01*
X032195Y011681D02*
X032256Y011681D01*
X032354Y011583D02*
X004001Y011583D01*
X004001Y011681D02*
X005356Y011681D01*
X005257Y011780D02*
X004001Y011780D01*
X004001Y011878D02*
X005231Y011878D01*
X005231Y011977D02*
X004001Y011977D01*
X004001Y012075D02*
X005317Y012075D01*
X005584Y012075D02*
X005717Y012075D01*
X005984Y012075D02*
X010217Y012075D01*
X010181Y011977D02*
X006071Y011977D01*
X006071Y011878D02*
X010181Y011878D01*
X010544Y011780D02*
X012207Y011780D01*
X012131Y011878D02*
X010621Y011878D01*
X010621Y011977D02*
X012131Y011977D01*
X012167Y012075D02*
X010584Y012075D01*
X010983Y012469D02*
X025231Y012469D01*
X025231Y012568D02*
X011071Y012568D01*
X011071Y012666D02*
X025258Y012666D01*
X025357Y012765D02*
X011045Y012765D01*
X011881Y013356D02*
X004001Y013356D01*
X004001Y013454D02*
X011831Y013454D01*
X011831Y013553D02*
X004001Y013553D01*
X004001Y013651D02*
X011893Y013651D01*
X012208Y013651D02*
X023731Y013651D01*
X023784Y013553D02*
X012271Y013553D01*
X012710Y013218D02*
X012581Y013089D01*
X012581Y012907D01*
X012710Y012778D01*
X012892Y012778D01*
X012951Y012837D01*
X013010Y012778D01*
X013192Y012778D01*
X013321Y012907D01*
X013321Y013089D01*
X013192Y013218D01*
X013010Y013218D01*
X012951Y013159D01*
X012892Y013218D01*
X012710Y013218D01*
X012651Y013159D02*
X012201Y013159D01*
X012271Y013060D02*
X012581Y013060D01*
X012581Y012962D02*
X012271Y012962D01*
X012227Y012863D02*
X012624Y012863D01*
X013277Y012863D02*
X018524Y012863D01*
X018481Y012962D02*
X013321Y012962D01*
X013321Y013060D02*
X018481Y013060D01*
X018551Y013159D02*
X013251Y013159D01*
X012534Y012075D02*
X020631Y012075D01*
X020631Y012174D02*
X004001Y012174D01*
X004001Y012272D02*
X020684Y012272D01*
X020690Y011977D02*
X012571Y011977D01*
X012118Y010992D02*
X025231Y010992D01*
X025282Y011090D02*
X004001Y011090D01*
X004001Y010992D02*
X005284Y010992D01*
X005231Y010939D02*
X005231Y010757D01*
X005360Y010628D01*
X005542Y010628D01*
X005651Y010737D01*
X005760Y010628D01*
X005942Y010628D01*
X006071Y010757D01*
X006071Y010939D01*
X005942Y011068D01*
X005760Y011068D01*
X005651Y010959D01*
X005542Y011068D01*
X005360Y011068D01*
X005231Y010939D01*
X005231Y010893D02*
X004001Y010893D01*
X004001Y010795D02*
X005231Y010795D01*
X005291Y010696D02*
X004001Y010696D01*
X004001Y010598D02*
X011889Y010598D01*
X011791Y010696D02*
X006010Y010696D01*
X006071Y010795D02*
X011781Y010795D01*
X011785Y010893D02*
X006071Y010893D01*
X006018Y010992D02*
X011884Y010992D01*
X012531Y010204D02*
X007006Y010204D01*
X007071Y010105D02*
X012582Y010105D01*
X010621Y011287D02*
X034550Y011287D01*
X034610Y011228D02*
X034792Y011228D01*
X034921Y011357D01*
X034921Y011539D01*
X034792Y011668D01*
X034610Y011668D01*
X034481Y011539D01*
X034481Y011357D01*
X034610Y011228D01*
X034481Y011386D02*
X010621Y011386D01*
X010575Y011484D02*
X034481Y011484D01*
X034525Y011583D02*
X032547Y011583D01*
X030738Y010696D02*
X029613Y010696D01*
X029671Y010598D02*
X030681Y010598D01*
X030681Y010499D02*
X029671Y010499D01*
X029615Y010401D02*
X030736Y010401D01*
X031466Y010302D02*
X036285Y010302D01*
X036231Y010401D02*
X031521Y010401D01*
X029286Y010401D02*
X029265Y010401D01*
X029263Y010696D02*
X029288Y010696D01*
X025671Y010893D02*
X034585Y010893D01*
X034487Y010795D02*
X025609Y010795D01*
X025384Y013553D02*
X024117Y013553D01*
X024171Y013651D02*
X025331Y013651D01*
X025331Y013750D02*
X024171Y013750D01*
X024111Y013848D02*
X025390Y013848D01*
X034877Y011583D02*
X036675Y011583D01*
X036631Y011484D02*
X034921Y011484D01*
X034921Y011386D02*
X036631Y011386D01*
X036479Y011287D02*
X034851Y011287D01*
X036612Y010598D02*
X036690Y010598D01*
X036685Y010302D02*
X036616Y010302D01*
X036601Y009908D02*
X036700Y009908D01*
X036674Y009613D02*
X036627Y009613D01*
X036274Y009613D02*
X004001Y009613D01*
X004001Y009711D02*
X036231Y009711D01*
X031861Y008726D02*
X031840Y008726D01*
X043975Y006461D02*
X044026Y006461D01*
X048028Y016114D02*
X048701Y016114D01*
X048701Y016212D02*
X048071Y016212D01*
X048071Y016311D02*
X048701Y016311D01*
X048701Y016409D02*
X048000Y016409D01*
X042831Y023206D02*
X004001Y023206D01*
X004001Y023304D02*
X042896Y023304D01*
X046977Y024782D02*
X005725Y024782D01*
X005501Y024880D02*
X047200Y024880D01*
X015912Y018970D02*
X014139Y018970D01*
X014171Y018939D02*
X014042Y019068D01*
X013860Y019068D01*
X013731Y018939D01*
X013731Y018757D01*
X013860Y018628D01*
X014042Y018628D01*
X014171Y018757D01*
X014171Y018939D01*
X014171Y018872D02*
X015881Y018872D01*
X015881Y018773D02*
X014171Y018773D01*
X014089Y018675D02*
X015962Y018675D01*
X013812Y018675D02*
X012789Y018675D01*
X012742Y018628D02*
X012871Y018757D01*
X012871Y018939D01*
X012742Y019068D01*
X012560Y019068D01*
X012431Y018939D01*
X012431Y018757D01*
X012560Y018628D01*
X012742Y018628D01*
X012871Y018773D02*
X013731Y018773D01*
X013731Y018872D02*
X012871Y018872D01*
X012839Y018970D02*
X013762Y018970D01*
X012512Y018675D02*
X004001Y018675D01*
X004001Y018773D02*
X012431Y018773D01*
X012431Y018872D02*
X004001Y018872D01*
X004001Y018970D02*
X012462Y018970D01*
X011580Y019857D02*
X011071Y019857D01*
X011169Y019955D02*
X011531Y019955D01*
X011531Y020054D02*
X011171Y020054D01*
X011157Y020152D02*
X011594Y020152D01*
X010830Y019857D02*
X010771Y019857D01*
X010530Y019857D02*
X010471Y019857D01*
X008730Y019955D02*
X007471Y019955D01*
X007604Y020054D02*
X008597Y020054D01*
X008548Y020152D02*
X007653Y020152D01*
X007667Y020251D02*
X008534Y020251D01*
X008550Y020349D02*
X007651Y020349D01*
X007598Y020448D02*
X008603Y020448D01*
X007230Y019955D02*
X005971Y019955D01*
X006104Y020054D02*
X007097Y020054D01*
X007048Y020152D02*
X006153Y020152D01*
X006167Y020251D02*
X007034Y020251D01*
X007050Y020349D02*
X006151Y020349D01*
X006098Y020448D02*
X007103Y020448D01*
X007285Y021433D02*
X004001Y021433D01*
X004001Y021531D02*
X007120Y021531D01*
X007057Y021630D02*
X004001Y021630D01*
X004001Y021728D02*
X007034Y021728D01*
X007041Y021827D02*
X004001Y021827D01*
X004001Y021925D02*
X007082Y021925D01*
X007191Y022024D02*
X004001Y022024D01*
X004001Y022122D02*
X012381Y022122D01*
X012381Y022221D02*
X004001Y022221D01*
X004001Y022319D02*
X012461Y022319D01*
X012413Y022024D02*
X007511Y022024D01*
X010454Y021236D02*
X010518Y021236D01*
X010764Y021236D02*
X010828Y021236D01*
X011856Y020842D02*
X011945Y020842D01*
X012156Y020842D02*
X012245Y020842D01*
X009571Y018379D02*
X004001Y018379D01*
X004001Y018281D02*
X009531Y018281D01*
X009531Y018182D02*
X004001Y018182D01*
X004001Y018084D02*
X009603Y018084D01*
X010248Y016606D02*
X004001Y016606D01*
X004001Y016508D02*
X010181Y016508D01*
X010181Y016409D02*
X004001Y016409D01*
X004001Y016311D02*
X010226Y016311D01*
X010546Y016114D02*
X013631Y016114D01*
X013672Y016015D02*
X010621Y016015D01*
X010813Y015621D02*
X004001Y015621D01*
X004001Y015523D02*
X010731Y015523D01*
X010731Y015424D02*
X004001Y015424D01*
X004001Y015326D02*
X010761Y015326D01*
X009469Y015227D02*
X004001Y015227D01*
X004001Y015129D02*
X009431Y015129D01*
X009431Y015030D02*
X004001Y015030D01*
X004001Y014932D02*
X008924Y014932D01*
X008831Y014833D02*
X004001Y014833D01*
X004001Y014735D02*
X008831Y014735D01*
X008851Y014636D02*
X004001Y014636D01*
X004001Y014538D02*
X008949Y014538D01*
X009178Y014932D02*
X009505Y014932D01*
X007152Y013060D02*
X004001Y013060D01*
X004001Y012962D02*
X007131Y012962D01*
X007131Y012863D02*
X004001Y012863D01*
X004001Y012765D02*
X007222Y012765D01*
X005756Y011681D02*
X005545Y011681D01*
X005644Y011780D02*
X005657Y011780D01*
X005618Y010992D02*
X005684Y010992D01*
X005691Y010696D02*
X005610Y010696D01*
X006606Y010204D02*
X006696Y010204D01*
X006679Y009908D02*
X006622Y009908D01*
X006591Y009219D02*
X006711Y009219D01*
X006664Y008923D02*
X006637Y008923D01*
X007229Y008431D02*
X010906Y008431D01*
X011095Y008431D02*
X011331Y008431D01*
X011331Y008332D02*
X007321Y008332D01*
X007321Y008234D02*
X011353Y008234D01*
X011452Y008135D02*
X007299Y008135D01*
X010170Y006756D02*
X010598Y006756D01*
X010697Y006855D02*
X010269Y006855D01*
X010610Y007446D02*
X010641Y007446D01*
X010618Y007741D02*
X010633Y007741D01*
X011193Y008529D02*
X011421Y008529D01*
X011775Y004983D02*
X004001Y004983D01*
X004001Y004885D02*
X011731Y004885D01*
X012031Y004491D02*
X008671Y004491D01*
X008606Y004392D02*
X012095Y004392D01*
X005045Y002816D02*
X004001Y002816D01*
X004001Y002718D02*
X004913Y002718D01*
X004814Y002619D02*
X004001Y002619D01*
X004001Y002521D02*
X004769Y002521D01*
X004728Y002422D02*
X004001Y002422D01*
X004001Y002324D02*
X004709Y002324D01*
X004709Y002225D02*
X004001Y002225D01*
X004001Y002127D02*
X004709Y002127D01*
X004747Y002028D02*
X004001Y002028D01*
X004001Y001930D02*
X004787Y001930D01*
X004859Y001831D02*
X004001Y001831D01*
X004001Y001733D02*
X004958Y001733D01*
X004893Y023797D02*
X004001Y023797D01*
X004001Y023895D02*
X004802Y023895D01*
X004761Y023994D02*
X004001Y023994D01*
X004001Y024092D02*
X004720Y024092D01*
X004709Y024191D02*
X004001Y024191D01*
X004001Y024289D02*
X004709Y024289D01*
X004714Y024388D02*
X004001Y024388D01*
X004001Y024486D02*
X004754Y024486D01*
X004795Y024585D02*
X004001Y024585D01*
X004001Y024683D02*
X004878Y024683D01*
X004977Y024782D02*
X004001Y024782D01*
X004001Y024880D02*
X005200Y024880D01*
M02*
