G75*
%MOIN*%
%OFA0B0*%
%FSLAX24Y24*%
%IPPOS*%
%LPD*%
%AMOC8*
5,1,8,0,0,1.08239X$1,22.5*
%
%ADD10R,0.0472X0.0315*%
%ADD11C,0.0009*%
%ADD12R,0.0157X0.0354*%
%ADD13R,0.0315X0.0472*%
%ADD14R,0.0197X0.0197*%
%ADD15R,0.0433X0.0394*%
%ADD16R,0.0394X0.0433*%
%ADD17R,0.0169X0.0110*%
%ADD18R,0.0276X0.0098*%
%ADD19R,0.0098X0.0276*%
%ADD20R,0.1240X0.2028*%
%ADD21R,0.0591X0.0472*%
%ADD22R,0.0472X0.0591*%
%ADD23R,0.1098X0.0754*%
%ADD24R,0.3346X0.3780*%
%ADD25R,0.0394X0.1339*%
%ADD26R,0.0590X0.0390*%
%ADD27R,0.0590X0.1290*%
%ADD28R,0.0110X0.0169*%
%ADD29R,0.1900X0.0900*%
%ADD30R,0.0984X0.0591*%
%ADD31R,0.0276X0.0256*%
D10*
X012951Y013294D03*
X012951Y014002D03*
X018851Y014002D03*
X018851Y013294D03*
X035101Y010102D03*
X035101Y009394D03*
D11*
X031714Y010155D02*
X031644Y010155D01*
X031644Y010541D01*
X031714Y010541D01*
X031714Y010155D01*
X031714Y010163D02*
X031644Y010163D01*
X031644Y010171D02*
X031714Y010171D01*
X031714Y010179D02*
X031644Y010179D01*
X031644Y010187D02*
X031714Y010187D01*
X031714Y010195D02*
X031644Y010195D01*
X031644Y010203D02*
X031714Y010203D01*
X031714Y010211D02*
X031644Y010211D01*
X031644Y010219D02*
X031714Y010219D01*
X031714Y010227D02*
X031644Y010227D01*
X031644Y010235D02*
X031714Y010235D01*
X031714Y010243D02*
X031644Y010243D01*
X031644Y010251D02*
X031714Y010251D01*
X031714Y010259D02*
X031644Y010259D01*
X031644Y010267D02*
X031714Y010267D01*
X031714Y010275D02*
X031644Y010275D01*
X031644Y010283D02*
X031714Y010283D01*
X031714Y010291D02*
X031644Y010291D01*
X031644Y010299D02*
X031714Y010299D01*
X031714Y010307D02*
X031644Y010307D01*
X031644Y010315D02*
X031714Y010315D01*
X031714Y010323D02*
X031644Y010323D01*
X031644Y010331D02*
X031714Y010331D01*
X031714Y010339D02*
X031644Y010339D01*
X031644Y010347D02*
X031714Y010347D01*
X031714Y010355D02*
X031644Y010355D01*
X031644Y010363D02*
X031714Y010363D01*
X031714Y010371D02*
X031644Y010371D01*
X031644Y010379D02*
X031714Y010379D01*
X031714Y010387D02*
X031644Y010387D01*
X031644Y010395D02*
X031714Y010395D01*
X031714Y010403D02*
X031644Y010403D01*
X031644Y010411D02*
X031714Y010411D01*
X031714Y010419D02*
X031644Y010419D01*
X031644Y010427D02*
X031714Y010427D01*
X031714Y010435D02*
X031644Y010435D01*
X031644Y010443D02*
X031714Y010443D01*
X031714Y010451D02*
X031644Y010451D01*
X031644Y010459D02*
X031714Y010459D01*
X031714Y010467D02*
X031644Y010467D01*
X031644Y010475D02*
X031714Y010475D01*
X031714Y010483D02*
X031644Y010483D01*
X031644Y010491D02*
X031714Y010491D01*
X031714Y010499D02*
X031644Y010499D01*
X031644Y010507D02*
X031714Y010507D01*
X031714Y010515D02*
X031644Y010515D01*
X031644Y010523D02*
X031714Y010523D01*
X031714Y010531D02*
X031644Y010531D01*
X031644Y010539D02*
X031714Y010539D01*
X031557Y010155D02*
X031487Y010155D01*
X031487Y010541D01*
X031557Y010541D01*
X031557Y010155D01*
X031557Y010163D02*
X031487Y010163D01*
X031487Y010171D02*
X031557Y010171D01*
X031557Y010179D02*
X031487Y010179D01*
X031487Y010187D02*
X031557Y010187D01*
X031557Y010195D02*
X031487Y010195D01*
X031487Y010203D02*
X031557Y010203D01*
X031557Y010211D02*
X031487Y010211D01*
X031487Y010219D02*
X031557Y010219D01*
X031557Y010227D02*
X031487Y010227D01*
X031487Y010235D02*
X031557Y010235D01*
X031557Y010243D02*
X031487Y010243D01*
X031487Y010251D02*
X031557Y010251D01*
X031557Y010259D02*
X031487Y010259D01*
X031487Y010267D02*
X031557Y010267D01*
X031557Y010275D02*
X031487Y010275D01*
X031487Y010283D02*
X031557Y010283D01*
X031557Y010291D02*
X031487Y010291D01*
X031487Y010299D02*
X031557Y010299D01*
X031557Y010307D02*
X031487Y010307D01*
X031487Y010315D02*
X031557Y010315D01*
X031557Y010323D02*
X031487Y010323D01*
X031487Y010331D02*
X031557Y010331D01*
X031557Y010339D02*
X031487Y010339D01*
X031487Y010347D02*
X031557Y010347D01*
X031557Y010355D02*
X031487Y010355D01*
X031487Y010363D02*
X031557Y010363D01*
X031557Y010371D02*
X031487Y010371D01*
X031487Y010379D02*
X031557Y010379D01*
X031557Y010387D02*
X031487Y010387D01*
X031487Y010395D02*
X031557Y010395D01*
X031557Y010403D02*
X031487Y010403D01*
X031487Y010411D02*
X031557Y010411D01*
X031557Y010419D02*
X031487Y010419D01*
X031487Y010427D02*
X031557Y010427D01*
X031557Y010435D02*
X031487Y010435D01*
X031487Y010443D02*
X031557Y010443D01*
X031557Y010451D02*
X031487Y010451D01*
X031487Y010459D02*
X031557Y010459D01*
X031557Y010467D02*
X031487Y010467D01*
X031487Y010475D02*
X031557Y010475D01*
X031557Y010483D02*
X031487Y010483D01*
X031487Y010491D02*
X031557Y010491D01*
X031557Y010499D02*
X031487Y010499D01*
X031487Y010507D02*
X031557Y010507D01*
X031557Y010515D02*
X031487Y010515D01*
X031487Y010523D02*
X031557Y010523D01*
X031557Y010531D02*
X031487Y010531D01*
X031487Y010539D02*
X031557Y010539D01*
X032358Y011384D02*
X032358Y011454D01*
X032744Y011454D01*
X032744Y011384D01*
X032358Y011384D01*
X032358Y011392D02*
X032744Y011392D01*
X032744Y011400D02*
X032358Y011400D01*
X032358Y011408D02*
X032744Y011408D01*
X032744Y011416D02*
X032358Y011416D01*
X032358Y011424D02*
X032744Y011424D01*
X032744Y011432D02*
X032358Y011432D01*
X032358Y011440D02*
X032744Y011440D01*
X032744Y011448D02*
X032358Y011448D01*
X032358Y011542D02*
X032358Y011612D01*
X032744Y011612D01*
X032744Y011542D01*
X032358Y011542D01*
X032358Y011550D02*
X032744Y011550D01*
X032744Y011558D02*
X032358Y011558D01*
X032358Y011566D02*
X032744Y011566D01*
X032744Y011574D02*
X032358Y011574D01*
X032358Y011582D02*
X032744Y011582D01*
X032744Y011590D02*
X032358Y011590D01*
X032358Y011598D02*
X032744Y011598D01*
X032744Y011606D02*
X032358Y011606D01*
X032944Y013734D02*
X032944Y013804D01*
X032944Y013734D02*
X032558Y013734D01*
X032558Y013804D01*
X032944Y013804D01*
X032944Y013742D02*
X032558Y013742D01*
X032558Y013750D02*
X032944Y013750D01*
X032944Y013758D02*
X032558Y013758D01*
X032558Y013766D02*
X032944Y013766D01*
X032944Y013774D02*
X032558Y013774D01*
X032558Y013782D02*
X032944Y013782D01*
X032944Y013790D02*
X032558Y013790D01*
X032558Y013798D02*
X032944Y013798D01*
X032944Y013892D02*
X032944Y013962D01*
X032944Y013892D02*
X032558Y013892D01*
X032558Y013962D01*
X032944Y013962D01*
X032944Y013900D02*
X032558Y013900D01*
X032558Y013908D02*
X032944Y013908D01*
X032944Y013916D02*
X032558Y013916D01*
X032558Y013924D02*
X032944Y013924D01*
X032944Y013932D02*
X032558Y013932D01*
X032558Y013940D02*
X032944Y013940D01*
X032944Y013948D02*
X032558Y013948D01*
X032558Y013956D02*
X032944Y013956D01*
X035087Y013605D02*
X035157Y013605D01*
X035087Y013605D02*
X035087Y013991D01*
X035157Y013991D01*
X035157Y013605D01*
X035157Y013613D02*
X035087Y013613D01*
X035087Y013621D02*
X035157Y013621D01*
X035157Y013629D02*
X035087Y013629D01*
X035087Y013637D02*
X035157Y013637D01*
X035157Y013645D02*
X035087Y013645D01*
X035087Y013653D02*
X035157Y013653D01*
X035157Y013661D02*
X035087Y013661D01*
X035087Y013669D02*
X035157Y013669D01*
X035157Y013677D02*
X035087Y013677D01*
X035087Y013685D02*
X035157Y013685D01*
X035157Y013693D02*
X035087Y013693D01*
X035087Y013701D02*
X035157Y013701D01*
X035157Y013709D02*
X035087Y013709D01*
X035087Y013717D02*
X035157Y013717D01*
X035157Y013725D02*
X035087Y013725D01*
X035087Y013733D02*
X035157Y013733D01*
X035157Y013741D02*
X035087Y013741D01*
X035087Y013749D02*
X035157Y013749D01*
X035157Y013757D02*
X035087Y013757D01*
X035087Y013765D02*
X035157Y013765D01*
X035157Y013773D02*
X035087Y013773D01*
X035087Y013781D02*
X035157Y013781D01*
X035157Y013789D02*
X035087Y013789D01*
X035087Y013797D02*
X035157Y013797D01*
X035157Y013805D02*
X035087Y013805D01*
X035087Y013813D02*
X035157Y013813D01*
X035157Y013821D02*
X035087Y013821D01*
X035087Y013829D02*
X035157Y013829D01*
X035157Y013837D02*
X035087Y013837D01*
X035087Y013845D02*
X035157Y013845D01*
X035157Y013853D02*
X035087Y013853D01*
X035087Y013861D02*
X035157Y013861D01*
X035157Y013869D02*
X035087Y013869D01*
X035087Y013877D02*
X035157Y013877D01*
X035157Y013885D02*
X035087Y013885D01*
X035087Y013893D02*
X035157Y013893D01*
X035157Y013901D02*
X035087Y013901D01*
X035087Y013909D02*
X035157Y013909D01*
X035157Y013917D02*
X035087Y013917D01*
X035087Y013925D02*
X035157Y013925D01*
X035157Y013933D02*
X035087Y013933D01*
X035087Y013941D02*
X035157Y013941D01*
X035157Y013949D02*
X035087Y013949D01*
X035087Y013957D02*
X035157Y013957D01*
X035157Y013965D02*
X035087Y013965D01*
X035087Y013973D02*
X035157Y013973D01*
X035157Y013981D02*
X035087Y013981D01*
X035087Y013989D02*
X035157Y013989D01*
X035244Y013605D02*
X035314Y013605D01*
X035244Y013605D02*
X035244Y013991D01*
X035314Y013991D01*
X035314Y013605D01*
X035314Y013613D02*
X035244Y013613D01*
X035244Y013621D02*
X035314Y013621D01*
X035314Y013629D02*
X035244Y013629D01*
X035244Y013637D02*
X035314Y013637D01*
X035314Y013645D02*
X035244Y013645D01*
X035244Y013653D02*
X035314Y013653D01*
X035314Y013661D02*
X035244Y013661D01*
X035244Y013669D02*
X035314Y013669D01*
X035314Y013677D02*
X035244Y013677D01*
X035244Y013685D02*
X035314Y013685D01*
X035314Y013693D02*
X035244Y013693D01*
X035244Y013701D02*
X035314Y013701D01*
X035314Y013709D02*
X035244Y013709D01*
X035244Y013717D02*
X035314Y013717D01*
X035314Y013725D02*
X035244Y013725D01*
X035244Y013733D02*
X035314Y013733D01*
X035314Y013741D02*
X035244Y013741D01*
X035244Y013749D02*
X035314Y013749D01*
X035314Y013757D02*
X035244Y013757D01*
X035244Y013765D02*
X035314Y013765D01*
X035314Y013773D02*
X035244Y013773D01*
X035244Y013781D02*
X035314Y013781D01*
X035314Y013789D02*
X035244Y013789D01*
X035244Y013797D02*
X035314Y013797D01*
X035314Y013805D02*
X035244Y013805D01*
X035244Y013813D02*
X035314Y013813D01*
X035314Y013821D02*
X035244Y013821D01*
X035244Y013829D02*
X035314Y013829D01*
X035314Y013837D02*
X035244Y013837D01*
X035244Y013845D02*
X035314Y013845D01*
X035314Y013853D02*
X035244Y013853D01*
X035244Y013861D02*
X035314Y013861D01*
X035314Y013869D02*
X035244Y013869D01*
X035244Y013877D02*
X035314Y013877D01*
X035314Y013885D02*
X035244Y013885D01*
X035244Y013893D02*
X035314Y013893D01*
X035314Y013901D02*
X035244Y013901D01*
X035244Y013909D02*
X035314Y013909D01*
X035314Y013917D02*
X035244Y013917D01*
X035244Y013925D02*
X035314Y013925D01*
X035314Y013933D02*
X035244Y013933D01*
X035244Y013941D02*
X035314Y013941D01*
X035314Y013949D02*
X035244Y013949D01*
X035244Y013957D02*
X035314Y013957D01*
X035314Y013965D02*
X035244Y013965D01*
X035244Y013973D02*
X035314Y013973D01*
X035314Y013981D02*
X035244Y013981D01*
X035244Y013989D02*
X035314Y013989D01*
X032944Y015984D02*
X032944Y016054D01*
X032944Y015984D02*
X032558Y015984D01*
X032558Y016054D01*
X032944Y016054D01*
X032944Y015992D02*
X032558Y015992D01*
X032558Y016000D02*
X032944Y016000D01*
X032944Y016008D02*
X032558Y016008D01*
X032558Y016016D02*
X032944Y016016D01*
X032944Y016024D02*
X032558Y016024D01*
X032558Y016032D02*
X032944Y016032D01*
X032944Y016040D02*
X032558Y016040D01*
X032558Y016048D02*
X032944Y016048D01*
X032944Y016142D02*
X032944Y016212D01*
X032944Y016142D02*
X032558Y016142D01*
X032558Y016212D01*
X032944Y016212D01*
X032944Y016150D02*
X032558Y016150D01*
X032558Y016158D02*
X032944Y016158D01*
X032944Y016166D02*
X032558Y016166D01*
X032558Y016174D02*
X032944Y016174D01*
X032944Y016182D02*
X032558Y016182D01*
X032558Y016190D02*
X032944Y016190D01*
X032944Y016198D02*
X032558Y016198D01*
X032558Y016206D02*
X032944Y016206D01*
X031914Y017941D02*
X031844Y017941D01*
X031914Y017941D02*
X031914Y017555D01*
X031844Y017555D01*
X031844Y017941D01*
X031844Y017563D02*
X031914Y017563D01*
X031914Y017571D02*
X031844Y017571D01*
X031844Y017579D02*
X031914Y017579D01*
X031914Y017587D02*
X031844Y017587D01*
X031844Y017595D02*
X031914Y017595D01*
X031914Y017603D02*
X031844Y017603D01*
X031844Y017611D02*
X031914Y017611D01*
X031914Y017619D02*
X031844Y017619D01*
X031844Y017627D02*
X031914Y017627D01*
X031914Y017635D02*
X031844Y017635D01*
X031844Y017643D02*
X031914Y017643D01*
X031914Y017651D02*
X031844Y017651D01*
X031844Y017659D02*
X031914Y017659D01*
X031914Y017667D02*
X031844Y017667D01*
X031844Y017675D02*
X031914Y017675D01*
X031914Y017683D02*
X031844Y017683D01*
X031844Y017691D02*
X031914Y017691D01*
X031914Y017699D02*
X031844Y017699D01*
X031844Y017707D02*
X031914Y017707D01*
X031914Y017715D02*
X031844Y017715D01*
X031844Y017723D02*
X031914Y017723D01*
X031914Y017731D02*
X031844Y017731D01*
X031844Y017739D02*
X031914Y017739D01*
X031914Y017747D02*
X031844Y017747D01*
X031844Y017755D02*
X031914Y017755D01*
X031914Y017763D02*
X031844Y017763D01*
X031844Y017771D02*
X031914Y017771D01*
X031914Y017779D02*
X031844Y017779D01*
X031844Y017787D02*
X031914Y017787D01*
X031914Y017795D02*
X031844Y017795D01*
X031844Y017803D02*
X031914Y017803D01*
X031914Y017811D02*
X031844Y017811D01*
X031844Y017819D02*
X031914Y017819D01*
X031914Y017827D02*
X031844Y017827D01*
X031844Y017835D02*
X031914Y017835D01*
X031914Y017843D02*
X031844Y017843D01*
X031844Y017851D02*
X031914Y017851D01*
X031914Y017859D02*
X031844Y017859D01*
X031844Y017867D02*
X031914Y017867D01*
X031914Y017875D02*
X031844Y017875D01*
X031844Y017883D02*
X031914Y017883D01*
X031914Y017891D02*
X031844Y017891D01*
X031844Y017899D02*
X031914Y017899D01*
X031914Y017907D02*
X031844Y017907D01*
X031844Y017915D02*
X031914Y017915D01*
X031914Y017923D02*
X031844Y017923D01*
X031844Y017931D02*
X031914Y017931D01*
X031914Y017939D02*
X031844Y017939D01*
X031757Y017941D02*
X031687Y017941D01*
X031757Y017941D02*
X031757Y017555D01*
X031687Y017555D01*
X031687Y017941D01*
X031687Y017563D02*
X031757Y017563D01*
X031757Y017571D02*
X031687Y017571D01*
X031687Y017579D02*
X031757Y017579D01*
X031757Y017587D02*
X031687Y017587D01*
X031687Y017595D02*
X031757Y017595D01*
X031757Y017603D02*
X031687Y017603D01*
X031687Y017611D02*
X031757Y017611D01*
X031757Y017619D02*
X031687Y017619D01*
X031687Y017627D02*
X031757Y017627D01*
X031757Y017635D02*
X031687Y017635D01*
X031687Y017643D02*
X031757Y017643D01*
X031757Y017651D02*
X031687Y017651D01*
X031687Y017659D02*
X031757Y017659D01*
X031757Y017667D02*
X031687Y017667D01*
X031687Y017675D02*
X031757Y017675D01*
X031757Y017683D02*
X031687Y017683D01*
X031687Y017691D02*
X031757Y017691D01*
X031757Y017699D02*
X031687Y017699D01*
X031687Y017707D02*
X031757Y017707D01*
X031757Y017715D02*
X031687Y017715D01*
X031687Y017723D02*
X031757Y017723D01*
X031757Y017731D02*
X031687Y017731D01*
X031687Y017739D02*
X031757Y017739D01*
X031757Y017747D02*
X031687Y017747D01*
X031687Y017755D02*
X031757Y017755D01*
X031757Y017763D02*
X031687Y017763D01*
X031687Y017771D02*
X031757Y017771D01*
X031757Y017779D02*
X031687Y017779D01*
X031687Y017787D02*
X031757Y017787D01*
X031757Y017795D02*
X031687Y017795D01*
X031687Y017803D02*
X031757Y017803D01*
X031757Y017811D02*
X031687Y017811D01*
X031687Y017819D02*
X031757Y017819D01*
X031757Y017827D02*
X031687Y017827D01*
X031687Y017835D02*
X031757Y017835D01*
X031757Y017843D02*
X031687Y017843D01*
X031687Y017851D02*
X031757Y017851D01*
X031757Y017859D02*
X031687Y017859D01*
X031687Y017867D02*
X031757Y017867D01*
X031757Y017875D02*
X031687Y017875D01*
X031687Y017883D02*
X031757Y017883D01*
X031757Y017891D02*
X031687Y017891D01*
X031687Y017899D02*
X031757Y017899D01*
X031757Y017907D02*
X031687Y017907D01*
X031687Y017915D02*
X031757Y017915D01*
X031757Y017923D02*
X031687Y017923D01*
X031687Y017931D02*
X031757Y017931D01*
X031757Y017939D02*
X031687Y017939D01*
X034208Y019884D02*
X034208Y019954D01*
X034594Y019954D01*
X034594Y019884D01*
X034208Y019884D01*
X034208Y019892D02*
X034594Y019892D01*
X034594Y019900D02*
X034208Y019900D01*
X034208Y019908D02*
X034594Y019908D01*
X034594Y019916D02*
X034208Y019916D01*
X034208Y019924D02*
X034594Y019924D01*
X034594Y019932D02*
X034208Y019932D01*
X034208Y019940D02*
X034594Y019940D01*
X034594Y019948D02*
X034208Y019948D01*
X034208Y020042D02*
X034208Y020112D01*
X034594Y020112D01*
X034594Y020042D01*
X034208Y020042D01*
X034208Y020050D02*
X034594Y020050D01*
X034594Y020058D02*
X034208Y020058D01*
X034208Y020066D02*
X034594Y020066D01*
X034594Y020074D02*
X034208Y020074D01*
X034208Y020082D02*
X034594Y020082D01*
X034594Y020090D02*
X034208Y020090D01*
X034208Y020098D02*
X034594Y020098D01*
X034594Y020106D02*
X034208Y020106D01*
X026764Y017555D02*
X026694Y017555D01*
X026694Y017941D01*
X026764Y017941D01*
X026764Y017555D01*
X026764Y017563D02*
X026694Y017563D01*
X026694Y017571D02*
X026764Y017571D01*
X026764Y017579D02*
X026694Y017579D01*
X026694Y017587D02*
X026764Y017587D01*
X026764Y017595D02*
X026694Y017595D01*
X026694Y017603D02*
X026764Y017603D01*
X026764Y017611D02*
X026694Y017611D01*
X026694Y017619D02*
X026764Y017619D01*
X026764Y017627D02*
X026694Y017627D01*
X026694Y017635D02*
X026764Y017635D01*
X026764Y017643D02*
X026694Y017643D01*
X026694Y017651D02*
X026764Y017651D01*
X026764Y017659D02*
X026694Y017659D01*
X026694Y017667D02*
X026764Y017667D01*
X026764Y017675D02*
X026694Y017675D01*
X026694Y017683D02*
X026764Y017683D01*
X026764Y017691D02*
X026694Y017691D01*
X026694Y017699D02*
X026764Y017699D01*
X026764Y017707D02*
X026694Y017707D01*
X026694Y017715D02*
X026764Y017715D01*
X026764Y017723D02*
X026694Y017723D01*
X026694Y017731D02*
X026764Y017731D01*
X026764Y017739D02*
X026694Y017739D01*
X026694Y017747D02*
X026764Y017747D01*
X026764Y017755D02*
X026694Y017755D01*
X026694Y017763D02*
X026764Y017763D01*
X026764Y017771D02*
X026694Y017771D01*
X026694Y017779D02*
X026764Y017779D01*
X026764Y017787D02*
X026694Y017787D01*
X026694Y017795D02*
X026764Y017795D01*
X026764Y017803D02*
X026694Y017803D01*
X026694Y017811D02*
X026764Y017811D01*
X026764Y017819D02*
X026694Y017819D01*
X026694Y017827D02*
X026764Y017827D01*
X026764Y017835D02*
X026694Y017835D01*
X026694Y017843D02*
X026764Y017843D01*
X026764Y017851D02*
X026694Y017851D01*
X026694Y017859D02*
X026764Y017859D01*
X026764Y017867D02*
X026694Y017867D01*
X026694Y017875D02*
X026764Y017875D01*
X026764Y017883D02*
X026694Y017883D01*
X026694Y017891D02*
X026764Y017891D01*
X026764Y017899D02*
X026694Y017899D01*
X026694Y017907D02*
X026764Y017907D01*
X026764Y017915D02*
X026694Y017915D01*
X026694Y017923D02*
X026764Y017923D01*
X026764Y017931D02*
X026694Y017931D01*
X026694Y017939D02*
X026764Y017939D01*
X026607Y017555D02*
X026537Y017555D01*
X026537Y017941D01*
X026607Y017941D01*
X026607Y017555D01*
X026607Y017563D02*
X026537Y017563D01*
X026537Y017571D02*
X026607Y017571D01*
X026607Y017579D02*
X026537Y017579D01*
X026537Y017587D02*
X026607Y017587D01*
X026607Y017595D02*
X026537Y017595D01*
X026537Y017603D02*
X026607Y017603D01*
X026607Y017611D02*
X026537Y017611D01*
X026537Y017619D02*
X026607Y017619D01*
X026607Y017627D02*
X026537Y017627D01*
X026537Y017635D02*
X026607Y017635D01*
X026607Y017643D02*
X026537Y017643D01*
X026537Y017651D02*
X026607Y017651D01*
X026607Y017659D02*
X026537Y017659D01*
X026537Y017667D02*
X026607Y017667D01*
X026607Y017675D02*
X026537Y017675D01*
X026537Y017683D02*
X026607Y017683D01*
X026607Y017691D02*
X026537Y017691D01*
X026537Y017699D02*
X026607Y017699D01*
X026607Y017707D02*
X026537Y017707D01*
X026537Y017715D02*
X026607Y017715D01*
X026607Y017723D02*
X026537Y017723D01*
X026537Y017731D02*
X026607Y017731D01*
X026607Y017739D02*
X026537Y017739D01*
X026537Y017747D02*
X026607Y017747D01*
X026607Y017755D02*
X026537Y017755D01*
X026537Y017763D02*
X026607Y017763D01*
X026607Y017771D02*
X026537Y017771D01*
X026537Y017779D02*
X026607Y017779D01*
X026607Y017787D02*
X026537Y017787D01*
X026537Y017795D02*
X026607Y017795D01*
X026607Y017803D02*
X026537Y017803D01*
X026537Y017811D02*
X026607Y017811D01*
X026607Y017819D02*
X026537Y017819D01*
X026537Y017827D02*
X026607Y017827D01*
X026607Y017835D02*
X026537Y017835D01*
X026537Y017843D02*
X026607Y017843D01*
X026607Y017851D02*
X026537Y017851D01*
X026537Y017859D02*
X026607Y017859D01*
X026607Y017867D02*
X026537Y017867D01*
X026537Y017875D02*
X026607Y017875D01*
X026607Y017883D02*
X026537Y017883D01*
X026537Y017891D02*
X026607Y017891D01*
X026607Y017899D02*
X026537Y017899D01*
X026537Y017907D02*
X026607Y017907D01*
X026607Y017915D02*
X026537Y017915D01*
X026537Y017923D02*
X026607Y017923D01*
X026607Y017931D02*
X026537Y017931D01*
X026537Y017939D02*
X026607Y017939D01*
X025544Y015162D02*
X025544Y015092D01*
X025158Y015092D01*
X025158Y015162D01*
X025544Y015162D01*
X025544Y015100D02*
X025158Y015100D01*
X025158Y015108D02*
X025544Y015108D01*
X025544Y015116D02*
X025158Y015116D01*
X025158Y015124D02*
X025544Y015124D01*
X025544Y015132D02*
X025158Y015132D01*
X025158Y015140D02*
X025544Y015140D01*
X025544Y015148D02*
X025158Y015148D01*
X025158Y015156D02*
X025544Y015156D01*
X025544Y015004D02*
X025544Y014934D01*
X025158Y014934D01*
X025158Y015004D01*
X025544Y015004D01*
X025544Y014942D02*
X025158Y014942D01*
X025158Y014950D02*
X025544Y014950D01*
X025544Y014958D02*
X025158Y014958D01*
X025158Y014966D02*
X025544Y014966D01*
X025544Y014974D02*
X025158Y014974D01*
X025158Y014982D02*
X025544Y014982D01*
X025544Y014990D02*
X025158Y014990D01*
X025158Y014998D02*
X025544Y014998D01*
X025158Y012362D02*
X025158Y012292D01*
X025158Y012362D02*
X025544Y012362D01*
X025544Y012292D01*
X025158Y012292D01*
X025158Y012300D02*
X025544Y012300D01*
X025544Y012308D02*
X025158Y012308D01*
X025158Y012316D02*
X025544Y012316D01*
X025544Y012324D02*
X025158Y012324D01*
X025158Y012332D02*
X025544Y012332D01*
X025544Y012340D02*
X025158Y012340D01*
X025158Y012348D02*
X025544Y012348D01*
X025544Y012356D02*
X025158Y012356D01*
X025158Y012204D02*
X025158Y012134D01*
X025158Y012204D02*
X025544Y012204D01*
X025544Y012134D01*
X025158Y012134D01*
X025158Y012142D02*
X025544Y012142D01*
X025544Y012150D02*
X025158Y012150D01*
X025158Y012158D02*
X025544Y012158D01*
X025544Y012166D02*
X025158Y012166D01*
X025158Y012174D02*
X025544Y012174D01*
X025544Y012182D02*
X025158Y012182D01*
X025158Y012190D02*
X025544Y012190D01*
X025544Y012198D02*
X025158Y012198D01*
X011844Y012734D02*
X011844Y012804D01*
X011844Y012734D02*
X011458Y012734D01*
X011458Y012804D01*
X011844Y012804D01*
X011844Y012742D02*
X011458Y012742D01*
X011458Y012750D02*
X011844Y012750D01*
X011844Y012758D02*
X011458Y012758D01*
X011458Y012766D02*
X011844Y012766D01*
X011844Y012774D02*
X011458Y012774D01*
X011458Y012782D02*
X011844Y012782D01*
X011844Y012790D02*
X011458Y012790D01*
X011458Y012798D02*
X011844Y012798D01*
X011844Y012892D02*
X011844Y012962D01*
X011844Y012892D02*
X011458Y012892D01*
X011458Y012962D01*
X011844Y012962D01*
X011844Y012900D02*
X011458Y012900D01*
X011458Y012908D02*
X011844Y012908D01*
X011844Y012916D02*
X011458Y012916D01*
X011458Y012924D02*
X011844Y012924D01*
X011844Y012932D02*
X011458Y012932D01*
X011458Y012940D02*
X011844Y012940D01*
X011844Y012948D02*
X011458Y012948D01*
X011458Y012956D02*
X011844Y012956D01*
X011844Y013534D02*
X011844Y013604D01*
X011844Y013534D02*
X011458Y013534D01*
X011458Y013604D01*
X011844Y013604D01*
X011844Y013542D02*
X011458Y013542D01*
X011458Y013550D02*
X011844Y013550D01*
X011844Y013558D02*
X011458Y013558D01*
X011458Y013566D02*
X011844Y013566D01*
X011844Y013574D02*
X011458Y013574D01*
X011458Y013582D02*
X011844Y013582D01*
X011844Y013590D02*
X011458Y013590D01*
X011458Y013598D02*
X011844Y013598D01*
X011844Y013692D02*
X011844Y013762D01*
X011844Y013692D02*
X011458Y013692D01*
X011458Y013762D01*
X011844Y013762D01*
X011844Y013700D02*
X011458Y013700D01*
X011458Y013708D02*
X011844Y013708D01*
X011844Y013716D02*
X011458Y013716D01*
X011458Y013724D02*
X011844Y013724D01*
X011844Y013732D02*
X011458Y013732D01*
X011458Y013740D02*
X011844Y013740D01*
X011844Y013748D02*
X011458Y013748D01*
X011458Y013756D02*
X011844Y013756D01*
X011844Y014334D02*
X011844Y014404D01*
X011844Y014334D02*
X011458Y014334D01*
X011458Y014404D01*
X011844Y014404D01*
X011844Y014342D02*
X011458Y014342D01*
X011458Y014350D02*
X011844Y014350D01*
X011844Y014358D02*
X011458Y014358D01*
X011458Y014366D02*
X011844Y014366D01*
X011844Y014374D02*
X011458Y014374D01*
X011458Y014382D02*
X011844Y014382D01*
X011844Y014390D02*
X011458Y014390D01*
X011458Y014398D02*
X011844Y014398D01*
X011844Y014492D02*
X011844Y014562D01*
X011844Y014492D02*
X011458Y014492D01*
X011458Y014562D01*
X011844Y014562D01*
X011844Y014500D02*
X011458Y014500D01*
X011458Y014508D02*
X011844Y014508D01*
X011844Y014516D02*
X011458Y014516D01*
X011458Y014524D02*
X011844Y014524D01*
X011844Y014532D02*
X011458Y014532D01*
X011458Y014540D02*
X011844Y014540D01*
X011844Y014548D02*
X011458Y014548D01*
X011458Y014556D02*
X011844Y014556D01*
X011844Y015084D02*
X011844Y015154D01*
X011844Y015084D02*
X011458Y015084D01*
X011458Y015154D01*
X011844Y015154D01*
X011844Y015092D02*
X011458Y015092D01*
X011458Y015100D02*
X011844Y015100D01*
X011844Y015108D02*
X011458Y015108D01*
X011458Y015116D02*
X011844Y015116D01*
X011844Y015124D02*
X011458Y015124D01*
X011458Y015132D02*
X011844Y015132D01*
X011844Y015140D02*
X011458Y015140D01*
X011458Y015148D02*
X011844Y015148D01*
X011844Y015242D02*
X011844Y015312D01*
X011844Y015242D02*
X011458Y015242D01*
X011458Y015312D01*
X011844Y015312D01*
X011844Y015250D02*
X011458Y015250D01*
X011458Y015258D02*
X011844Y015258D01*
X011844Y015266D02*
X011458Y015266D01*
X011458Y015274D02*
X011844Y015274D01*
X011844Y015282D02*
X011458Y015282D01*
X011458Y015290D02*
X011844Y015290D01*
X011844Y015298D02*
X011458Y015298D01*
X011458Y015306D02*
X011844Y015306D01*
X007764Y012755D02*
X007694Y012755D01*
X007694Y013141D01*
X007764Y013141D01*
X007764Y012755D01*
X007764Y012763D02*
X007694Y012763D01*
X007694Y012771D02*
X007764Y012771D01*
X007764Y012779D02*
X007694Y012779D01*
X007694Y012787D02*
X007764Y012787D01*
X007764Y012795D02*
X007694Y012795D01*
X007694Y012803D02*
X007764Y012803D01*
X007764Y012811D02*
X007694Y012811D01*
X007694Y012819D02*
X007764Y012819D01*
X007764Y012827D02*
X007694Y012827D01*
X007694Y012835D02*
X007764Y012835D01*
X007764Y012843D02*
X007694Y012843D01*
X007694Y012851D02*
X007764Y012851D01*
X007764Y012859D02*
X007694Y012859D01*
X007694Y012867D02*
X007764Y012867D01*
X007764Y012875D02*
X007694Y012875D01*
X007694Y012883D02*
X007764Y012883D01*
X007764Y012891D02*
X007694Y012891D01*
X007694Y012899D02*
X007764Y012899D01*
X007764Y012907D02*
X007694Y012907D01*
X007694Y012915D02*
X007764Y012915D01*
X007764Y012923D02*
X007694Y012923D01*
X007694Y012931D02*
X007764Y012931D01*
X007764Y012939D02*
X007694Y012939D01*
X007694Y012947D02*
X007764Y012947D01*
X007764Y012955D02*
X007694Y012955D01*
X007694Y012963D02*
X007764Y012963D01*
X007764Y012971D02*
X007694Y012971D01*
X007694Y012979D02*
X007764Y012979D01*
X007764Y012987D02*
X007694Y012987D01*
X007694Y012995D02*
X007764Y012995D01*
X007764Y013003D02*
X007694Y013003D01*
X007694Y013011D02*
X007764Y013011D01*
X007764Y013019D02*
X007694Y013019D01*
X007694Y013027D02*
X007764Y013027D01*
X007764Y013035D02*
X007694Y013035D01*
X007694Y013043D02*
X007764Y013043D01*
X007764Y013051D02*
X007694Y013051D01*
X007694Y013059D02*
X007764Y013059D01*
X007764Y013067D02*
X007694Y013067D01*
X007694Y013075D02*
X007764Y013075D01*
X007764Y013083D02*
X007694Y013083D01*
X007694Y013091D02*
X007764Y013091D01*
X007764Y013099D02*
X007694Y013099D01*
X007694Y013107D02*
X007764Y013107D01*
X007764Y013115D02*
X007694Y013115D01*
X007694Y013123D02*
X007764Y013123D01*
X007764Y013131D02*
X007694Y013131D01*
X007694Y013139D02*
X007764Y013139D01*
X007607Y012755D02*
X007537Y012755D01*
X007537Y013141D01*
X007607Y013141D01*
X007607Y012755D01*
X007607Y012763D02*
X007537Y012763D01*
X007537Y012771D02*
X007607Y012771D01*
X007607Y012779D02*
X007537Y012779D01*
X007537Y012787D02*
X007607Y012787D01*
X007607Y012795D02*
X007537Y012795D01*
X007537Y012803D02*
X007607Y012803D01*
X007607Y012811D02*
X007537Y012811D01*
X007537Y012819D02*
X007607Y012819D01*
X007607Y012827D02*
X007537Y012827D01*
X007537Y012835D02*
X007607Y012835D01*
X007607Y012843D02*
X007537Y012843D01*
X007537Y012851D02*
X007607Y012851D01*
X007607Y012859D02*
X007537Y012859D01*
X007537Y012867D02*
X007607Y012867D01*
X007607Y012875D02*
X007537Y012875D01*
X007537Y012883D02*
X007607Y012883D01*
X007607Y012891D02*
X007537Y012891D01*
X007537Y012899D02*
X007607Y012899D01*
X007607Y012907D02*
X007537Y012907D01*
X007537Y012915D02*
X007607Y012915D01*
X007607Y012923D02*
X007537Y012923D01*
X007537Y012931D02*
X007607Y012931D01*
X007607Y012939D02*
X007537Y012939D01*
X007537Y012947D02*
X007607Y012947D01*
X007607Y012955D02*
X007537Y012955D01*
X007537Y012963D02*
X007607Y012963D01*
X007607Y012971D02*
X007537Y012971D01*
X007537Y012979D02*
X007607Y012979D01*
X007607Y012987D02*
X007537Y012987D01*
X007537Y012995D02*
X007607Y012995D01*
X007607Y013003D02*
X007537Y013003D01*
X007537Y013011D02*
X007607Y013011D01*
X007607Y013019D02*
X007537Y013019D01*
X007537Y013027D02*
X007607Y013027D01*
X007607Y013035D02*
X007537Y013035D01*
X007537Y013043D02*
X007607Y013043D01*
X007607Y013051D02*
X007537Y013051D01*
X007537Y013059D02*
X007607Y013059D01*
X007607Y013067D02*
X007537Y013067D01*
X007537Y013075D02*
X007607Y013075D01*
X007607Y013083D02*
X007537Y013083D01*
X007537Y013091D02*
X007607Y013091D01*
X007607Y013099D02*
X007537Y013099D01*
X007537Y013107D02*
X007607Y013107D01*
X007607Y013115D02*
X007537Y013115D01*
X007537Y013123D02*
X007607Y013123D01*
X007607Y013131D02*
X007537Y013131D01*
X007537Y013139D02*
X007607Y013139D01*
X009437Y018041D02*
X009507Y018041D01*
X009507Y017655D01*
X009437Y017655D01*
X009437Y018041D01*
X009437Y017663D02*
X009507Y017663D01*
X009507Y017671D02*
X009437Y017671D01*
X009437Y017679D02*
X009507Y017679D01*
X009507Y017687D02*
X009437Y017687D01*
X009437Y017695D02*
X009507Y017695D01*
X009507Y017703D02*
X009437Y017703D01*
X009437Y017711D02*
X009507Y017711D01*
X009507Y017719D02*
X009437Y017719D01*
X009437Y017727D02*
X009507Y017727D01*
X009507Y017735D02*
X009437Y017735D01*
X009437Y017743D02*
X009507Y017743D01*
X009507Y017751D02*
X009437Y017751D01*
X009437Y017759D02*
X009507Y017759D01*
X009507Y017767D02*
X009437Y017767D01*
X009437Y017775D02*
X009507Y017775D01*
X009507Y017783D02*
X009437Y017783D01*
X009437Y017791D02*
X009507Y017791D01*
X009507Y017799D02*
X009437Y017799D01*
X009437Y017807D02*
X009507Y017807D01*
X009507Y017815D02*
X009437Y017815D01*
X009437Y017823D02*
X009507Y017823D01*
X009507Y017831D02*
X009437Y017831D01*
X009437Y017839D02*
X009507Y017839D01*
X009507Y017847D02*
X009437Y017847D01*
X009437Y017855D02*
X009507Y017855D01*
X009507Y017863D02*
X009437Y017863D01*
X009437Y017871D02*
X009507Y017871D01*
X009507Y017879D02*
X009437Y017879D01*
X009437Y017887D02*
X009507Y017887D01*
X009507Y017895D02*
X009437Y017895D01*
X009437Y017903D02*
X009507Y017903D01*
X009507Y017911D02*
X009437Y017911D01*
X009437Y017919D02*
X009507Y017919D01*
X009507Y017927D02*
X009437Y017927D01*
X009437Y017935D02*
X009507Y017935D01*
X009507Y017943D02*
X009437Y017943D01*
X009437Y017951D02*
X009507Y017951D01*
X009507Y017959D02*
X009437Y017959D01*
X009437Y017967D02*
X009507Y017967D01*
X009507Y017975D02*
X009437Y017975D01*
X009437Y017983D02*
X009507Y017983D01*
X009507Y017991D02*
X009437Y017991D01*
X009437Y017999D02*
X009507Y017999D01*
X009507Y018007D02*
X009437Y018007D01*
X009437Y018015D02*
X009507Y018015D01*
X009507Y018023D02*
X009437Y018023D01*
X009437Y018031D02*
X009507Y018031D01*
X009507Y018039D02*
X009437Y018039D01*
X009594Y018041D02*
X009664Y018041D01*
X009664Y017655D01*
X009594Y017655D01*
X009594Y018041D01*
X009594Y017663D02*
X009664Y017663D01*
X009664Y017671D02*
X009594Y017671D01*
X009594Y017679D02*
X009664Y017679D01*
X009664Y017687D02*
X009594Y017687D01*
X009594Y017695D02*
X009664Y017695D01*
X009664Y017703D02*
X009594Y017703D01*
X009594Y017711D02*
X009664Y017711D01*
X009664Y017719D02*
X009594Y017719D01*
X009594Y017727D02*
X009664Y017727D01*
X009664Y017735D02*
X009594Y017735D01*
X009594Y017743D02*
X009664Y017743D01*
X009664Y017751D02*
X009594Y017751D01*
X009594Y017759D02*
X009664Y017759D01*
X009664Y017767D02*
X009594Y017767D01*
X009594Y017775D02*
X009664Y017775D01*
X009664Y017783D02*
X009594Y017783D01*
X009594Y017791D02*
X009664Y017791D01*
X009664Y017799D02*
X009594Y017799D01*
X009594Y017807D02*
X009664Y017807D01*
X009664Y017815D02*
X009594Y017815D01*
X009594Y017823D02*
X009664Y017823D01*
X009664Y017831D02*
X009594Y017831D01*
X009594Y017839D02*
X009664Y017839D01*
X009664Y017847D02*
X009594Y017847D01*
X009594Y017855D02*
X009664Y017855D01*
X009664Y017863D02*
X009594Y017863D01*
X009594Y017871D02*
X009664Y017871D01*
X009664Y017879D02*
X009594Y017879D01*
X009594Y017887D02*
X009664Y017887D01*
X009664Y017895D02*
X009594Y017895D01*
X009594Y017903D02*
X009664Y017903D01*
X009664Y017911D02*
X009594Y017911D01*
X009594Y017919D02*
X009664Y017919D01*
X009664Y017927D02*
X009594Y017927D01*
X009594Y017935D02*
X009664Y017935D01*
X009664Y017943D02*
X009594Y017943D01*
X009594Y017951D02*
X009664Y017951D01*
X009664Y017959D02*
X009594Y017959D01*
X009594Y017967D02*
X009664Y017967D01*
X009664Y017975D02*
X009594Y017975D01*
X009594Y017983D02*
X009664Y017983D01*
X009664Y017991D02*
X009594Y017991D01*
X009594Y017999D02*
X009664Y017999D01*
X009664Y018007D02*
X009594Y018007D01*
X009594Y018015D02*
X009664Y018015D01*
X009664Y018023D02*
X009594Y018023D01*
X009594Y018031D02*
X009664Y018031D01*
X009664Y018039D02*
X009594Y018039D01*
D12*
X009607Y017381D03*
X009095Y017381D03*
X009095Y016515D03*
X009351Y016515D03*
X009607Y016515D03*
D13*
X008496Y004048D03*
X009205Y004048D03*
X009355Y014248D03*
X008646Y014248D03*
X035846Y010098D03*
X036555Y010098D03*
X042746Y011198D03*
X043455Y011198D03*
X045746Y004898D03*
X046455Y004898D03*
X045355Y003598D03*
X044646Y003598D03*
X038455Y003098D03*
X037746Y003098D03*
D14*
X029847Y010298D03*
X029454Y010298D03*
X029097Y010298D03*
X028704Y010298D03*
X032051Y011301D03*
X032051Y011695D03*
X032251Y013651D03*
X032251Y014045D03*
X030547Y017648D03*
X030154Y017648D03*
X029147Y017648D03*
X028754Y017648D03*
X028754Y018048D03*
X029147Y018048D03*
X025351Y014345D03*
X025351Y013951D03*
X025451Y013495D03*
X025051Y013495D03*
X025051Y013101D03*
X025451Y013101D03*
X009047Y004748D03*
X008654Y004748D03*
D15*
X012451Y010813D03*
X012451Y011483D03*
X035116Y007148D03*
X035785Y007148D03*
X037066Y006948D03*
X037735Y006948D03*
X037735Y007548D03*
X037066Y007548D03*
X043966Y007548D03*
X044635Y007548D03*
X044635Y006948D03*
X043966Y006948D03*
X040785Y017498D03*
X040116Y017498D03*
X037801Y017643D03*
X037801Y018312D03*
D16*
X038466Y017598D03*
X039135Y017598D03*
X039135Y017048D03*
X038466Y017048D03*
X039051Y009683D03*
X039051Y009013D03*
X042651Y009013D03*
X042651Y009683D03*
X047151Y008533D03*
X047151Y007863D03*
X042651Y005483D03*
X042651Y004813D03*
X043951Y003283D03*
X043951Y002613D03*
X039051Y004813D03*
X039051Y005483D03*
X013485Y014848D03*
X012816Y014848D03*
X012816Y015498D03*
X013485Y015498D03*
X013485Y016148D03*
X012816Y016148D03*
X010485Y009048D03*
X009816Y009048D03*
X010440Y006256D03*
X011110Y006256D03*
D17*
X009451Y006698D03*
X009451Y006898D03*
X009401Y008048D03*
X009401Y008248D03*
X013351Y010248D03*
X013351Y010448D03*
X039851Y002948D03*
X039851Y002748D03*
D18*
X039906Y006165D03*
X039906Y006362D03*
X039906Y006559D03*
X039906Y006756D03*
X039906Y006953D03*
X039906Y007149D03*
X039906Y007346D03*
X039906Y007543D03*
X039906Y007740D03*
X039906Y007937D03*
X039906Y008134D03*
X039906Y008331D03*
X041796Y008331D03*
X041796Y008134D03*
X041796Y007937D03*
X041796Y007740D03*
X041796Y007543D03*
X041796Y007346D03*
X041796Y007149D03*
X041796Y006953D03*
X041796Y006756D03*
X041796Y006559D03*
X041796Y006362D03*
X041796Y006165D03*
D19*
X041441Y005909D03*
X041244Y005909D03*
X041047Y005909D03*
X040851Y005909D03*
X040654Y005909D03*
X040457Y005909D03*
X040260Y005909D03*
X040260Y008586D03*
X040457Y008586D03*
X040654Y008586D03*
X040851Y008586D03*
X041047Y008586D03*
X041244Y008586D03*
X041441Y008586D03*
D20*
X040851Y007248D03*
D21*
X036132Y008348D03*
X035069Y008348D03*
X045569Y006148D03*
X046632Y006148D03*
D22*
X044151Y005479D03*
X044151Y004416D03*
X037551Y009016D03*
X037551Y010079D03*
D23*
X044351Y010350D03*
X044351Y008746D03*
X037351Y005750D03*
X037351Y004146D03*
D24*
X039801Y021976D03*
D25*
X039801Y018748D03*
X039131Y018748D03*
X038462Y018748D03*
X040470Y018748D03*
X041139Y018748D03*
D26*
X035091Y006503D03*
X035091Y005598D03*
X035091Y004693D03*
X043191Y003303D03*
X043191Y002398D03*
X043191Y001493D03*
D27*
X040711Y002398D03*
X032611Y005598D03*
D28*
X044950Y020648D03*
X045151Y020648D03*
X045151Y021248D03*
X044950Y021248D03*
X044950Y021848D03*
X045151Y021848D03*
X012151Y021748D03*
X011950Y021748D03*
D29*
X004911Y017338D03*
X004911Y013858D03*
X004911Y009188D03*
X004911Y005708D03*
D30*
X042324Y012569D03*
X042324Y013750D03*
X044883Y013750D03*
X044883Y012569D03*
D31*
X012051Y020282D03*
X012051Y020814D03*
X010651Y020814D03*
X010651Y020282D03*
X005651Y011614D03*
X005651Y011082D03*
X006651Y009814D03*
X006651Y009282D03*
M02*
