%
M48
M72
T01C0.0120
T02C0.0313
T03C0.0340
T04C0.0394
T05C0.0984
%
T01
X46751Y8948
X46451Y8048
X46551Y7648
X45051Y8198
X44851Y7848
X44551Y7848
X44151Y7848
X43851Y7848
X43401Y7150
X43851Y6648
X44151Y6648
X44551Y6648
X44851Y6648
X45151Y7398
X45751Y6948
X44751Y5698
X42951Y5598
X42951Y5298
X42201Y5698
X42101Y5998
X41051Y8898
X40701Y8948
X40601Y9298
X41251Y9348
X40851Y9748
X41901Y9748
X42551Y9998
X42851Y9998
X42951Y9148
X42951Y8858
X42201Y8788
X42351Y8148
X41251Y8048
X40851Y8048
X40451Y8048
X39501Y8798
X38751Y9148
X38751Y8848
X36851Y9748
X36451Y9748
X35951Y9698
X35651Y9698
X35501Y10048
X35501Y10348
X35901Y10498
X36451Y10448
X36851Y10448
X36601Y11098
X36851Y11448
X36351Y11948
X35701Y12198
X34951Y12448
X34301Y12698
X34851Y12948
X34851Y13248
X34901Y13648
X36201Y13848
X35951Y13548
X35501Y13648
X35851Y13098
X34251Y13498
X34251Y13798
X32651Y14148
X32351Y14248
X32351Y13448
X32651Y13548
X31851Y13248
X31301Y13248
X31151Y12648
X31151Y12298
X31551Y12248
X31951Y12248
X32101Y11898
X32451Y11798
X32451Y11198
X32101Y11098
X31901Y10448
X31301Y10448
X30901Y10548
X30351Y10548
X29851Y10548
X29451Y10548
X29101Y10548
X28701Y10548
X28001Y10548
X25451Y10948
X25451Y11948
X25451Y12548
X25451Y12898
X25551Y13698
X25601Y14348
X25601Y13998
X23951Y13398
X23951Y13698
X25451Y14798
X25451Y15348
X25451Y16698
X25351Y17448
X25601Y17648
X26351Y17648
X26951Y17648
X27951Y17648
X28551Y17648
X29351Y17648
X29951Y17648
X30751Y17648
X31501Y17648
X32101Y17648
X32501Y17648
X32651Y16948
X32651Y16398
X32651Y15798
X32651Y15148
X32051Y14748
X33851Y15048
X34051Y15348
X33801Y15698
X34051Y16248
X35051Y15298
X35451Y15298
X36051Y15348
X36401Y16798
X37101Y16948
X36401Y17248
X37801Y18648
X36901Y18598
X36601Y18448
X36301Y18598
X35951Y18548
X35951Y19548
X36551Y19548
X37551Y20298
X38851Y19798
X39351Y20498
X39051Y20748
X39701Y20748
X40151Y20498
X40501Y20798
X42651Y21048
X42951Y20448
X44551Y19598
X44851Y19398
X45401Y19598
X45801Y18898
X46051Y18548
X45151Y18098
X44751Y18098
X44751Y17698
X43851Y17148
X44651Y16848
X45651Y16948
X46451Y17048
X46451Y16548
X47851Y16248
X45151Y14148
X45551Y13948
X45951Y13948
X45951Y13548
X45551Y13548
X44551Y14148
X43651Y15348
X42951Y15648
X42551Y15648
X42151Y15648
X41751Y15348
X39851Y15048
X38651Y14748
X38651Y14148
X39351Y13948
X41351Y13898
X41701Y13898
X41701Y13548
X41351Y13548
X41651Y12748
X41351Y12748
X41351Y12348
X41651Y12348
X42401Y11598
X42701Y11598
X43751Y11348
X44151Y11348
X44551Y11348
X44551Y10948
X44151Y10948
X43751Y10948
X42701Y10798
X42401Y10798
X41301Y10698
X40051Y11148
X40251Y11448
X39651Y11148
X39451Y11448
X39851Y10448
X39101Y9998
X38801Y9998
X38351Y10148
X34701Y10348
X34701Y10698
X34701Y10048
X36351Y7848
X36851Y7848
X37151Y7848
X36851Y7248
X37551Y7848
X37851Y7848
X38301Y7346
X36851Y6648
X37151Y6648
X37551Y6648
X35551Y5798
X35551Y5398
X34751Y4248
X35151Y4248
X35551Y4248
X35551Y3848
X35151Y3848
X34751Y3848
X33851Y3848
X33451Y3848
X33051Y3848
X33051Y3348
X33451Y3348
X33851Y3348
X33251Y4848
X32851Y4848
X32451Y4848
X33251Y5198
X33251Y5598
X33251Y5998
X33251Y6348
X32851Y6348
X32451Y6348
X34451Y6548
X32801Y8848
X32401Y8848
X32051Y8848
X31651Y8848
X31551Y9248
X31851Y8348
X31851Y7948
X29401Y8898
X29001Y8898
X26201Y8448
X25801Y8748
X20851Y12128
X20851Y12408
X19001Y12998
X18701Y12998
X18701Y14298
X19001Y14298
X20861Y14878
X20861Y15178
X24251Y17448
X25651Y18748
X26001Y18748
X29001Y19348
X29401Y19348
X31401Y20698
X31651Y21248
X31951Y21648
X32601Y21148
X33001Y20848
X33051Y20048
X32851Y19748
X32601Y19348
X32351Y18998
X33251Y19248
X33851Y18848
X34151Y17898
X33851Y17448
X37851Y17148
X37851Y16848
X39551Y17248
X39551Y16948
X39551Y16648
X39551Y16348
X39251Y16348
X39251Y16648
X38951Y16648
X38951Y16348
X40101Y17148
X41551Y18348
X41951Y18348
X41951Y18748
X41551Y18748
X41551Y19148
X41951Y19148
X35251Y19748
X34401Y19698
X34401Y20298
X34801Y20698
X35501Y21298
X36551Y21298
X37151Y21298
X38251Y21948
X38251Y22448
X38751Y22448
X38751Y22948
X38251Y22948
X38251Y23548
X38751Y23548
X37551Y23648
X34751Y22698
X32051Y23648
X43051Y23148
X43251Y23648
X45451Y23848
X45101Y21548
X46451Y20648
X46451Y21248
X46451Y21848
X47351Y19898
X44251Y18948
X43551Y19048
X43001Y18348
X42951Y17548
X42751Y17048
X45551Y12748
X45951Y12748
X45951Y12348
X45551Y12348
X45151Y12148
X44651Y12148
X46051Y11698
X46451Y10148
X41251Y7448
X41251Y7048
X40851Y7048
X39501Y5708
X38751Y5638
X38751Y5348
X38801Y4498
X39101Y4498
X39751Y4548
X39501Y5098
X40261Y5248
X40851Y5298
X41451Y5348
X42001Y4998
X42601Y4498
X42901Y4498
X43651Y4448
X45401Y4498
X45701Y4498
X45701Y5298
X45401Y5298
X46751Y5148
X47051Y5148
X47051Y4748
X46751Y4748
X45701Y3998
X45401Y3998
X42351Y3648
X42001Y3898
X41351Y3648
X40951Y3898
X40601Y3898
X41401Y4448
X39501Y3948
X39201Y3848
X38801Y3498
X38501Y3498
X37751Y3548
X37351Y3548
X36951Y3548
X38501Y2698
X38801Y2698
X39201Y2798
X40551Y3198
X40951Y3198
X41351Y3198
X42651Y2598
X42651Y2198
X43651Y1748
X43951Y1748
X44251Y1748
X44251Y1348
X43951Y1348
X43651Y1348
X41351Y1598
X40951Y1598
X40551Y1598
X45401Y3198
X45701Y3198
X40451Y6548
X40851Y6548
X41251Y6548
X40451Y7048
X40451Y7448
X40851Y7448
X47201Y6998
X34701Y11448
X31951Y12648
X31551Y12648
X32751Y12948
X18551Y8448
X18251Y8448
X16401Y8448
X16101Y8448
X14251Y8448
X13951Y8448
X12701Y8398
X12301Y8398
X11801Y8748
X11551Y8348
X11001Y8648
X9451Y9748
X9851Y9748
X10801Y9448
X12751Y10248
X13351Y10648
X12001Y10798
X12351Y11948
X12051Y12698
X12051Y12998
X12801Y12998
X13101Y12998
X12051Y13498
X12051Y13798
X10901Y13998
X12051Y14598
X12051Y14298
X12801Y14298
X13101Y14298
X12551Y15498
X12051Y15398
X12051Y15098
X10951Y15448
X10401Y15648
X10401Y15948
X10401Y16448
X10401Y16748
X9401Y16898
X9351Y18248
X9751Y18248
X12341Y18848
X12651Y18848
X13951Y18848
X14251Y18848
X12801Y19648
X12351Y19998
X12051Y19998
X11751Y19998
X10951Y20048
X10651Y20048
X10351Y20048
X10641Y21048
X10951Y21048
X10331Y21048
X11751Y21048
X12051Y21048
X12351Y21048
X12601Y22148
X11201Y24048
X11451Y24448
X6151Y22348
X6051Y17548
X6051Y17148
X7651Y15148
X8251Y15148
X9051Y14748
X9351Y14748
X9651Y15098
X8251Y14548
X7651Y14548
X6051Y14048
X6051Y13648
X7351Y12948
X7951Y12948
X5851Y11898
X5451Y11898
X5451Y10848
X5851Y10848
X6451Y10048
X6851Y10048
X6001Y9398
X6451Y9048
X6851Y9048
X6001Y8998
X7101Y8248
X7151Y7748
X7251Y7048
X8301Y6798
X10051Y6948
X10251Y7248
X10451Y7598
X10801Y7598
X10451Y8198
X10801Y6648
X11701Y5998
X11001Y5548
X11951Y4848
X12251Y4548
X12451Y5348
X12851Y5348
X9251Y4548
X8451Y4548
X6551Y4148
X6001Y5498
X6001Y5898
X10401Y11348
X10401Y11648
X10401Y11948
X10401Y12248
X10851Y12648
X9651Y14398
X13851Y16148
X14951Y14348
X15401Y14348
X15901Y14348
X16351Y14348
X16351Y13898
X15901Y13898
X15401Y13898
X14951Y13898
X14951Y13398
X15401Y13398
X15401Y12948
X14951Y12948
X15901Y12948
X16351Y12948
X16351Y13398
X15901Y13398
X16101Y18848
X16401Y18848
X18251Y18748
X18551Y18748
T02
X8851Y20248
X7351Y20248
X5851Y20248
X7351Y21748
X8851Y21748
X10351Y23748
X8851Y23748
X32351Y8148
X46951Y4148
X37051Y3048
X45251Y1548
X41651Y17648
T03
X48251Y7058
X48251Y8238
T04
X36769Y22848
X32832Y22848
T05
X5351Y2248
X5351Y24248
X47351Y2248
X47351Y24248
M30
