G75*
%MOIN*%
%OFA0B0*%
%FSLAX24Y24*%
%IPPOS*%
%LPD*%
%AMOC8*
5,1,8,0,0,1.08239X$1,22.5*
%
%ADD10C,0.0040*%
%ADD11C,0.0120*%
%ADD12C,0.0020*%
%ADD13C,0.0160*%
%ADD14C,0.0080*%
%ADD15C,0.0030*%
%ADD16C,0.0080*%
%ADD17C,0.0118*%
%ADD18C,0.0090*%
%ADD19C,0.0060*%
%ADD20C,0.0050*%
D10*
X007447Y001268D02*
X007371Y001345D01*
X007447Y001268D02*
X007601Y001268D01*
X007678Y001345D01*
X007678Y001421D01*
X007601Y001498D01*
X007447Y001498D01*
X007371Y001575D01*
X007371Y001652D01*
X007447Y001728D01*
X007601Y001728D01*
X007678Y001652D01*
X007831Y001345D02*
X007908Y001345D01*
X007908Y001268D01*
X007831Y001268D01*
X007831Y001345D01*
X008522Y001345D02*
X008598Y001268D01*
X008752Y001268D01*
X008829Y001345D01*
X008829Y001421D01*
X008752Y001498D01*
X008598Y001498D01*
X008522Y001575D01*
X008522Y001652D01*
X008598Y001728D01*
X008752Y001728D01*
X008829Y001652D01*
X008982Y001498D02*
X009059Y001575D01*
X009212Y001575D01*
X009289Y001498D01*
X009289Y001421D01*
X008982Y001421D01*
X008982Y001345D02*
X008982Y001498D01*
X008982Y001345D02*
X009059Y001268D01*
X009212Y001268D01*
X009442Y001268D02*
X009442Y001575D01*
X009673Y001575D01*
X009749Y001498D01*
X009749Y001268D01*
X009980Y001268D02*
X009980Y001652D01*
X010056Y001728D01*
X010210Y001575D02*
X010363Y001575D01*
X010286Y001652D02*
X010286Y001345D01*
X010363Y001268D01*
X010517Y001498D02*
X010824Y001498D01*
X010977Y001345D02*
X011054Y001268D01*
X011207Y001268D01*
X011284Y001345D01*
X011284Y001498D01*
X011130Y001498D01*
X010977Y001345D02*
X010977Y001652D01*
X011054Y001728D01*
X011207Y001728D01*
X011284Y001652D01*
X011437Y001575D02*
X011437Y001268D01*
X011437Y001421D02*
X011591Y001575D01*
X011668Y001575D01*
X011821Y001575D02*
X011821Y001345D01*
X011898Y001268D01*
X012128Y001268D01*
X012128Y001575D01*
X012281Y001575D02*
X012512Y001575D01*
X012588Y001498D01*
X012588Y001345D01*
X012512Y001268D01*
X012281Y001268D01*
X012281Y001114D02*
X012281Y001575D01*
X012742Y001575D02*
X012972Y001575D01*
X013049Y001498D01*
X013049Y001345D01*
X012972Y001268D01*
X012742Y001268D01*
X012742Y001114D02*
X012742Y001575D01*
X013663Y001268D02*
X013970Y001728D01*
X014583Y001728D02*
X014737Y001575D01*
X014890Y001728D01*
X014890Y001268D01*
X015044Y001268D02*
X015197Y001268D01*
X015121Y001268D02*
X015121Y001728D01*
X015197Y001728D02*
X015044Y001728D01*
X015351Y001728D02*
X015658Y001728D01*
X015504Y001728D02*
X015504Y001268D01*
X016272Y001268D02*
X016272Y001728D01*
X016272Y001498D02*
X016578Y001498D01*
X016732Y001498D02*
X016809Y001575D01*
X016962Y001575D01*
X017039Y001498D01*
X017039Y001421D01*
X016732Y001421D01*
X016732Y001345D02*
X016732Y001498D01*
X016732Y001345D02*
X016809Y001268D01*
X016962Y001268D01*
X017192Y001268D02*
X017192Y001575D01*
X017269Y001575D01*
X017346Y001498D01*
X017423Y001575D01*
X017499Y001498D01*
X017499Y001268D01*
X017346Y001268D02*
X017346Y001498D01*
X017653Y001498D02*
X017729Y001575D01*
X017883Y001575D01*
X017960Y001498D01*
X017960Y001345D01*
X017883Y001268D01*
X017729Y001268D01*
X017653Y001345D01*
X017653Y001498D01*
X018113Y001575D02*
X018113Y001268D01*
X018420Y001268D02*
X018420Y001498D01*
X018343Y001575D01*
X018113Y001575D01*
X018574Y001498D02*
X018650Y001575D01*
X018880Y001575D01*
X018880Y001728D02*
X018880Y001268D01*
X018650Y001268D01*
X018574Y001345D01*
X018574Y001498D01*
X019494Y001268D02*
X019801Y001268D01*
X019955Y001345D02*
X020031Y001421D01*
X020262Y001421D01*
X020262Y001498D02*
X020262Y001268D01*
X020031Y001268D01*
X019955Y001345D01*
X020031Y001575D02*
X020185Y001575D01*
X020262Y001498D01*
X020415Y001575D02*
X020645Y001575D01*
X020722Y001498D01*
X020722Y001345D01*
X020645Y001268D01*
X020415Y001268D01*
X020415Y001728D01*
X019494Y001728D02*
X019494Y001268D01*
X016578Y001268D02*
X016578Y001728D01*
X014583Y001728D02*
X014583Y001268D01*
X011821Y002095D02*
X011744Y002018D01*
X011591Y002018D01*
X011514Y002095D01*
X011361Y002018D02*
X011054Y002018D01*
X011207Y002018D02*
X011207Y002478D01*
X011054Y002325D01*
X010900Y002402D02*
X010900Y002095D01*
X010824Y002018D01*
X010670Y002018D01*
X010593Y002095D01*
X010900Y002402D01*
X010824Y002478D01*
X010670Y002478D01*
X010593Y002402D01*
X010593Y002095D01*
X010440Y002018D02*
X010133Y002018D01*
X010440Y002325D01*
X010440Y002402D01*
X010363Y002478D01*
X010210Y002478D01*
X010133Y002402D01*
X009980Y002478D02*
X009673Y002018D01*
X009519Y002095D02*
X009442Y002018D01*
X009289Y002018D01*
X009212Y002095D01*
X009212Y002248D02*
X009366Y002325D01*
X009442Y002325D01*
X009519Y002248D01*
X009519Y002095D01*
X009212Y002248D02*
X009212Y002478D01*
X009519Y002478D01*
X009366Y002768D02*
X009519Y003075D01*
X009673Y003075D02*
X009826Y003228D01*
X009826Y002768D01*
X009673Y002768D02*
X009980Y002768D01*
X010133Y002768D02*
X010210Y002768D01*
X010210Y002845D01*
X010133Y002845D01*
X010133Y002768D01*
X010363Y002845D02*
X010670Y003152D01*
X010670Y002845D01*
X010593Y002768D01*
X010440Y002768D01*
X010363Y002845D01*
X010363Y003152D01*
X010440Y003228D01*
X010593Y003228D01*
X010670Y003152D01*
X009366Y002768D02*
X009212Y003075D01*
X008598Y003075D02*
X008598Y002768D01*
X008598Y002998D02*
X008291Y002998D01*
X008291Y003075D02*
X008445Y003228D01*
X008598Y003075D01*
X008291Y003075D02*
X008291Y002768D01*
X008138Y002845D02*
X008138Y003152D01*
X008061Y003228D01*
X007831Y003228D01*
X007831Y002768D01*
X008061Y002768D01*
X008138Y002845D01*
X007678Y003228D02*
X007371Y003228D01*
X007371Y002768D01*
X007371Y002998D02*
X007524Y002998D01*
X007524Y002478D02*
X007524Y002018D01*
X007371Y002018D02*
X007678Y002018D01*
X007831Y002018D02*
X008138Y002018D01*
X008291Y002018D02*
X008598Y002478D01*
X008752Y002325D02*
X008905Y002478D01*
X008905Y002018D01*
X008752Y002018D02*
X009059Y002018D01*
X009903Y001498D02*
X010056Y001498D01*
X011668Y002248D02*
X011744Y002248D01*
X011821Y002171D01*
X011821Y002095D01*
X011744Y002248D02*
X011821Y002325D01*
X011821Y002402D01*
X011744Y002478D01*
X011591Y002478D01*
X011514Y002402D01*
X007984Y002478D02*
X007984Y002018D01*
X007831Y002325D02*
X007984Y002478D01*
X007524Y002478D02*
X007371Y002325D01*
X008178Y008368D02*
X008298Y008368D01*
X008358Y008428D01*
X008358Y008728D01*
X008486Y008608D02*
X008607Y008728D01*
X008607Y008368D01*
X008727Y008368D02*
X008486Y008368D01*
X008178Y008368D02*
X008118Y008428D01*
X008118Y008728D01*
X008855Y008668D02*
X008915Y008728D01*
X009035Y008728D01*
X009095Y008668D01*
X009095Y008608D01*
X008855Y008368D01*
X009095Y008368D01*
X009002Y019218D02*
X008925Y019218D01*
X008925Y019295D01*
X009002Y019295D01*
X009002Y019218D01*
X009156Y019295D02*
X009232Y019218D01*
X009386Y019218D01*
X009462Y019295D01*
X009462Y019602D01*
X009386Y019678D01*
X009232Y019678D01*
X009156Y019602D01*
X009156Y019525D01*
X009232Y019448D01*
X009462Y019448D01*
X009616Y019448D02*
X009923Y019448D01*
X009923Y019525D02*
X009923Y019218D01*
X009923Y019525D02*
X009769Y019678D01*
X009616Y019525D01*
X009616Y019218D01*
X008772Y019218D02*
X008465Y019218D01*
X008618Y019218D02*
X008618Y019678D01*
X008465Y019525D01*
X008023Y019602D02*
X008023Y019295D01*
X007946Y019218D01*
X007716Y019218D01*
X007716Y019678D01*
X007946Y019678D01*
X008023Y019602D01*
X007562Y019602D02*
X007562Y019295D01*
X007486Y019218D01*
X007332Y019218D01*
X007256Y019295D01*
X007102Y019295D02*
X007102Y019218D01*
X007025Y019218D01*
X007025Y019295D01*
X007102Y019295D01*
X006872Y019218D02*
X006565Y019218D01*
X006718Y019218D02*
X006718Y019678D01*
X006565Y019525D01*
X006223Y019602D02*
X006146Y019678D01*
X005993Y019678D01*
X005916Y019602D01*
X005916Y019525D01*
X005993Y019448D01*
X006146Y019448D01*
X006223Y019371D01*
X006223Y019295D01*
X006146Y019218D01*
X005993Y019218D01*
X005916Y019295D01*
X005762Y019295D02*
X005686Y019218D01*
X005532Y019218D01*
X005456Y019295D01*
X005302Y019295D02*
X005302Y019218D01*
X005225Y019218D01*
X005225Y019295D01*
X005302Y019295D01*
X005072Y019295D02*
X004995Y019218D01*
X004842Y019218D01*
X004765Y019295D01*
X004918Y019448D02*
X004995Y019448D01*
X005072Y019371D01*
X005072Y019295D01*
X004995Y019448D02*
X005072Y019525D01*
X005072Y019602D01*
X004995Y019678D01*
X004842Y019678D01*
X004765Y019602D01*
X005456Y019602D02*
X005532Y019678D01*
X005686Y019678D01*
X005762Y019602D01*
X005762Y019525D01*
X005686Y019448D01*
X005762Y019371D01*
X005762Y019295D01*
X005686Y019448D02*
X005609Y019448D01*
X007256Y019525D02*
X007332Y019448D01*
X007562Y019448D01*
X007562Y019602D02*
X007486Y019678D01*
X007332Y019678D01*
X007256Y019602D01*
X007256Y019525D01*
X007362Y022318D02*
X007516Y022318D01*
X007593Y022395D01*
X007593Y022702D01*
X007516Y022778D01*
X007362Y022778D01*
X007286Y022702D01*
X007286Y022625D01*
X007362Y022548D01*
X007593Y022548D01*
X007362Y022318D02*
X007286Y022395D01*
X007132Y022395D02*
X007132Y022318D01*
X007056Y022318D01*
X007056Y022395D01*
X007132Y022395D01*
X006902Y022318D02*
X006595Y022318D01*
X006749Y022318D02*
X006749Y022778D01*
X006595Y022625D01*
X008480Y022702D02*
X008480Y022395D01*
X008557Y022318D01*
X008710Y022318D01*
X008787Y022395D01*
X008787Y022548D01*
X008634Y022548D01*
X008787Y022702D02*
X008710Y022778D01*
X008557Y022778D01*
X008480Y022702D01*
X008940Y022778D02*
X008940Y022318D01*
X009247Y022318D02*
X009247Y022778D01*
X009401Y022778D02*
X009631Y022778D01*
X009708Y022702D01*
X009708Y022395D01*
X009631Y022318D01*
X009401Y022318D01*
X009401Y022778D01*
X008940Y022778D02*
X009247Y022318D01*
X009138Y024318D02*
X009138Y024625D01*
X008984Y024778D01*
X008831Y024625D01*
X008831Y024318D01*
X008831Y024548D02*
X009138Y024548D01*
X008678Y024778D02*
X008371Y024778D01*
X008524Y024778D02*
X008524Y024318D01*
X008217Y024318D02*
X008217Y024625D01*
X008064Y024778D01*
X007910Y024625D01*
X007910Y024318D01*
X007757Y024395D02*
X007757Y024702D01*
X007680Y024778D01*
X007450Y024778D01*
X007450Y024318D01*
X007680Y024318D01*
X007757Y024395D01*
X007910Y024548D02*
X008217Y024548D01*
X009780Y024395D02*
X009857Y024318D01*
X010010Y024318D01*
X010087Y024395D01*
X010240Y024318D02*
X010240Y024778D01*
X010087Y024702D02*
X010010Y024778D01*
X009857Y024778D01*
X009780Y024702D01*
X009780Y024395D01*
X010240Y024318D02*
X010547Y024318D01*
X010701Y024318D02*
X010701Y024778D01*
X010778Y024548D02*
X011008Y024318D01*
X010701Y024471D02*
X011008Y024778D01*
X038352Y024378D02*
X038593Y024018D01*
X038721Y024198D02*
X038961Y024198D01*
X038901Y024018D02*
X038901Y024378D01*
X038721Y024198D01*
X038593Y024378D02*
X038352Y024018D01*
X042736Y019882D02*
X042736Y019498D01*
X042813Y019421D01*
X042966Y019421D01*
X043043Y019498D01*
X043043Y019882D01*
X043196Y019728D02*
X043350Y019882D01*
X043350Y019421D01*
X043503Y019421D02*
X043196Y019421D01*
X043657Y019652D02*
X043964Y019652D01*
X043887Y019882D02*
X043657Y019652D01*
X043887Y019421D02*
X043887Y019882D01*
X041223Y018302D02*
X041146Y018378D01*
X040916Y018378D01*
X040916Y017918D01*
X040916Y018071D02*
X041146Y018071D01*
X041223Y018148D01*
X041223Y018302D01*
X040762Y018302D02*
X040762Y017995D01*
X040686Y017918D01*
X040532Y017918D01*
X040456Y017995D01*
X040302Y017995D02*
X040302Y017918D01*
X040225Y017918D01*
X040225Y017995D01*
X040302Y017995D01*
X040072Y017918D02*
X039765Y017918D01*
X039918Y017918D02*
X039918Y018378D01*
X039765Y018225D01*
X040456Y018225D02*
X040532Y018148D01*
X040762Y018148D01*
X040762Y018302D02*
X040686Y018378D01*
X040532Y018378D01*
X040456Y018302D01*
X040456Y018225D01*
X047970Y010035D02*
X048431Y010035D01*
X047970Y009728D01*
X048431Y009728D01*
X048354Y009575D02*
X048047Y009575D01*
X047970Y009498D01*
X047970Y009345D01*
X048047Y009268D01*
X048354Y009268D01*
X048431Y009345D01*
X048431Y009498D01*
X048354Y009575D01*
X047970Y006064D02*
X047970Y005758D01*
X048431Y005758D01*
X048200Y005758D02*
X048200Y005911D01*
X047970Y005604D02*
X047970Y005297D01*
X048431Y005297D01*
X048354Y005144D02*
X048047Y005144D01*
X047970Y005067D01*
X047970Y004913D01*
X048047Y004837D01*
X048354Y004837D01*
X048431Y004913D01*
X048431Y005067D01*
X048354Y005144D01*
X048200Y005297D02*
X048200Y005451D01*
X047101Y003558D02*
X046871Y003558D01*
X046871Y003098D01*
X047101Y003098D01*
X047178Y003175D01*
X047178Y003482D01*
X047101Y003558D01*
X046717Y003558D02*
X046717Y003098D01*
X046410Y003558D01*
X046410Y003098D01*
X046257Y003175D02*
X046180Y003098D01*
X046027Y003098D01*
X045950Y003175D01*
X045950Y003482D01*
X046027Y003558D01*
X046180Y003558D01*
X046257Y003482D01*
X046257Y003328D02*
X046104Y003328D01*
X046257Y003328D02*
X046257Y003175D01*
X045616Y002578D02*
X045462Y002578D01*
X045386Y002502D01*
X045616Y002578D02*
X045693Y002502D01*
X045693Y002425D01*
X045386Y002118D01*
X045693Y002118D01*
X045232Y002118D02*
X045156Y002118D01*
X045156Y002195D01*
X045232Y002195D01*
X045232Y002118D01*
X045002Y002118D02*
X044695Y002118D01*
X044849Y002118D02*
X044849Y002578D01*
X044695Y002425D01*
X037608Y002402D02*
X037608Y002325D01*
X037531Y002248D01*
X037608Y002171D01*
X037608Y002095D01*
X037531Y002018D01*
X037378Y002018D01*
X037301Y002095D01*
X037147Y002171D02*
X037147Y002478D01*
X037301Y002402D02*
X037378Y002478D01*
X037531Y002478D01*
X037608Y002402D01*
X037531Y002248D02*
X037454Y002248D01*
X037147Y002171D02*
X036994Y002018D01*
X036840Y002171D01*
X036840Y002478D01*
X036687Y002402D02*
X036687Y002325D01*
X036610Y002248D01*
X036687Y002171D01*
X036687Y002095D01*
X036610Y002018D01*
X036457Y002018D01*
X036380Y002095D01*
X036534Y002248D02*
X036610Y002248D01*
X036687Y002402D02*
X036610Y002478D01*
X036457Y002478D01*
X036380Y002402D01*
X032716Y007168D02*
X032562Y007168D01*
X032486Y007245D01*
X032486Y007321D01*
X032562Y007398D01*
X032716Y007398D01*
X032793Y007321D01*
X032793Y007245D01*
X032716Y007168D01*
X032716Y007398D02*
X032793Y007475D01*
X032793Y007552D01*
X032716Y007628D01*
X032562Y007628D01*
X032486Y007552D01*
X032486Y007475D01*
X032562Y007398D01*
X032332Y007245D02*
X032332Y007168D01*
X032256Y007168D01*
X032256Y007245D01*
X032332Y007245D01*
X032102Y007168D02*
X031795Y007168D01*
X031949Y007168D02*
X031949Y007628D01*
X031795Y007475D01*
D11*
X032051Y007798D02*
X032084Y007772D01*
X032119Y007749D01*
X032157Y007730D01*
X032196Y007714D01*
X032236Y007702D01*
X032277Y007693D01*
X032319Y007688D01*
X032361Y007687D01*
X032403Y007690D01*
X032444Y007696D01*
X032485Y007707D01*
X032524Y007721D01*
X032563Y007738D01*
X032599Y007759D01*
X032633Y007784D01*
X032665Y007811D01*
X032695Y007841D01*
X032721Y007873D01*
X032745Y007908D01*
X032765Y007945D01*
X032782Y007984D01*
X032795Y008023D01*
X032804Y008064D01*
X032810Y008106D01*
X032812Y008148D01*
X032810Y008190D01*
X032804Y008232D01*
X032795Y008273D01*
X032782Y008312D01*
X032765Y008351D01*
X032745Y008388D01*
X032721Y008423D01*
X032695Y008455D01*
X032665Y008485D01*
X032633Y008512D01*
X032599Y008537D01*
X032563Y008558D01*
X032524Y008575D01*
X032485Y008589D01*
X032444Y008600D01*
X032403Y008606D01*
X032361Y008609D01*
X032319Y008608D01*
X032277Y008603D01*
X032236Y008594D01*
X032196Y008582D01*
X032157Y008566D01*
X032119Y008547D01*
X032084Y008524D01*
X032051Y008498D01*
X037451Y003249D02*
X037468Y003211D01*
X037481Y003171D01*
X037491Y003131D01*
X037497Y003090D01*
X037499Y003048D01*
X037497Y003007D01*
X037492Y002966D01*
X037482Y002925D01*
X037469Y002886D01*
X037452Y002848D01*
X037432Y002812D01*
X037409Y002777D01*
X037383Y002745D01*
X037353Y002716D01*
X037321Y002689D01*
X037287Y002666D01*
X037251Y002646D01*
X037213Y002629D01*
X037174Y002615D01*
X037133Y002606D01*
X037092Y002600D01*
X037051Y002598D01*
X037050Y002598D02*
X037009Y002600D01*
X036968Y002606D01*
X036927Y002615D01*
X036888Y002629D01*
X036850Y002646D01*
X036814Y002666D01*
X036780Y002689D01*
X036748Y002716D01*
X036718Y002745D01*
X036692Y002777D01*
X036669Y002812D01*
X036649Y002848D01*
X036632Y002886D01*
X036619Y002925D01*
X036609Y002966D01*
X036604Y003007D01*
X036602Y003048D01*
X036604Y003090D01*
X036610Y003131D01*
X036620Y003171D01*
X036633Y003211D01*
X036650Y003249D01*
X044811Y001548D02*
X044813Y001590D01*
X044819Y001631D01*
X044829Y001672D01*
X044843Y001712D01*
X044860Y001750D01*
X044881Y001786D01*
X044905Y001820D01*
X044933Y001852D01*
X044963Y001881D01*
X044996Y001906D01*
X045031Y001929D01*
X045068Y001948D01*
X045107Y001964D01*
X045147Y001976D01*
X045188Y001984D01*
X045230Y001988D01*
X045272Y001988D01*
X045314Y001984D01*
X045355Y001976D01*
X045395Y001964D01*
X045434Y001948D01*
X045471Y001929D01*
X045506Y001906D01*
X045539Y001881D01*
X045569Y001852D01*
X045597Y001820D01*
X045621Y001786D01*
X045642Y001750D01*
X045659Y001712D01*
X045673Y001672D01*
X045683Y001631D01*
X045689Y001590D01*
X045691Y001548D01*
X045689Y001506D01*
X045683Y001465D01*
X045673Y001424D01*
X045659Y001384D01*
X045642Y001346D01*
X045621Y001310D01*
X045597Y001276D01*
X045569Y001244D01*
X045539Y001215D01*
X045506Y001190D01*
X045471Y001167D01*
X045434Y001148D01*
X045395Y001132D01*
X045355Y001120D01*
X045314Y001112D01*
X045272Y001108D01*
X045230Y001108D01*
X045188Y001112D01*
X045147Y001120D01*
X045107Y001132D01*
X045068Y001148D01*
X045031Y001167D01*
X044996Y001190D01*
X044963Y001215D01*
X044933Y001244D01*
X044905Y001276D01*
X044881Y001310D01*
X044860Y001346D01*
X044843Y001384D01*
X044829Y001424D01*
X044819Y001465D01*
X044813Y001506D01*
X044811Y001548D01*
X044813Y001590D01*
X044819Y001631D01*
X044829Y001672D01*
X044843Y001712D01*
X044860Y001750D01*
X044881Y001786D01*
X044905Y001820D01*
X044933Y001852D01*
X044963Y001881D01*
X044996Y001906D01*
X045031Y001929D01*
X045068Y001948D01*
X045107Y001964D01*
X045147Y001976D01*
X045188Y001984D01*
X045230Y001988D01*
X045272Y001988D01*
X045314Y001984D01*
X045355Y001976D01*
X045395Y001964D01*
X045434Y001948D01*
X045471Y001929D01*
X045506Y001906D01*
X045539Y001881D01*
X045569Y001852D01*
X045597Y001820D01*
X045621Y001786D01*
X045642Y001750D01*
X045659Y001712D01*
X045673Y001672D01*
X045683Y001631D01*
X045689Y001590D01*
X045691Y001548D01*
X045689Y001506D01*
X045683Y001465D01*
X045673Y001424D01*
X045659Y001384D01*
X045642Y001346D01*
X045621Y001310D01*
X045597Y001276D01*
X045569Y001244D01*
X045539Y001215D01*
X045506Y001190D01*
X045471Y001167D01*
X045434Y001148D01*
X045395Y001132D01*
X045355Y001120D01*
X045314Y001112D01*
X045272Y001108D01*
X045230Y001108D01*
X045188Y001112D01*
X045147Y001120D01*
X045107Y001132D01*
X045068Y001148D01*
X045031Y001167D01*
X044996Y001190D01*
X044963Y001215D01*
X044933Y001244D01*
X044905Y001276D01*
X044881Y001310D01*
X044860Y001346D01*
X044843Y001384D01*
X044829Y001424D01*
X044819Y001465D01*
X044813Y001506D01*
X044811Y001548D01*
X046951Y003708D02*
X046911Y003710D01*
X046871Y003715D01*
X046831Y003724D01*
X046793Y003737D01*
X046756Y003753D01*
X046720Y003772D01*
X046687Y003795D01*
X046655Y003820D01*
X046627Y003848D01*
X046600Y003879D01*
X046577Y003912D01*
X046557Y003947D01*
X046540Y003984D01*
X046526Y004022D01*
X046516Y004061D01*
X046510Y004101D01*
X046507Y004141D01*
X046508Y004181D01*
X046513Y004222D01*
X046521Y004261D01*
X046533Y004300D01*
X046548Y004337D01*
X046567Y004373D01*
X046588Y004407D01*
X046613Y004439D01*
X046641Y004468D01*
X046961Y003708D02*
X047001Y003711D01*
X047041Y003717D01*
X047081Y003727D01*
X047119Y003741D01*
X047156Y003758D01*
X047191Y003778D01*
X037599Y015803D02*
X037601Y015818D01*
X037606Y015832D01*
X037615Y015844D01*
X037627Y015854D01*
X037640Y015860D01*
X037655Y015863D01*
X037670Y015862D01*
X037685Y015857D01*
X037697Y015849D01*
X037708Y015838D01*
X037715Y015825D01*
X037719Y015811D01*
X037719Y015795D01*
X037715Y015781D01*
X037708Y015768D01*
X037697Y015757D01*
X037685Y015749D01*
X037670Y015744D01*
X037655Y015743D01*
X037640Y015746D01*
X037627Y015752D01*
X037615Y015762D01*
X037606Y015774D01*
X037601Y015788D01*
X037599Y015803D01*
X041211Y017648D02*
X041213Y017690D01*
X041219Y017731D01*
X041229Y017772D01*
X041243Y017812D01*
X041260Y017850D01*
X041281Y017886D01*
X041305Y017920D01*
X041333Y017952D01*
X041363Y017981D01*
X041396Y018006D01*
X041431Y018029D01*
X041468Y018048D01*
X041507Y018064D01*
X041547Y018076D01*
X041588Y018084D01*
X041630Y018088D01*
X041672Y018088D01*
X041714Y018084D01*
X041755Y018076D01*
X041795Y018064D01*
X041834Y018048D01*
X041871Y018029D01*
X041906Y018006D01*
X041939Y017981D01*
X041969Y017952D01*
X041997Y017920D01*
X042021Y017886D01*
X042042Y017850D01*
X042059Y017812D01*
X042073Y017772D01*
X042083Y017731D01*
X042089Y017690D01*
X042091Y017648D01*
X042089Y017606D01*
X042083Y017565D01*
X042073Y017524D01*
X042059Y017484D01*
X042042Y017446D01*
X042021Y017410D01*
X041997Y017376D01*
X041969Y017344D01*
X041939Y017315D01*
X041906Y017290D01*
X041871Y017267D01*
X041834Y017248D01*
X041795Y017232D01*
X041755Y017220D01*
X041714Y017212D01*
X041672Y017208D01*
X041630Y017208D01*
X041588Y017212D01*
X041547Y017220D01*
X041507Y017232D01*
X041468Y017248D01*
X041431Y017267D01*
X041396Y017290D01*
X041363Y017315D01*
X041333Y017344D01*
X041305Y017376D01*
X041281Y017410D01*
X041260Y017446D01*
X041243Y017484D01*
X041229Y017524D01*
X041219Y017565D01*
X041213Y017606D01*
X041211Y017648D01*
X009911Y023748D02*
X009913Y023790D01*
X009919Y023831D01*
X009929Y023872D01*
X009943Y023912D01*
X009960Y023950D01*
X009981Y023986D01*
X010005Y024020D01*
X010033Y024052D01*
X010063Y024081D01*
X010096Y024106D01*
X010131Y024129D01*
X010168Y024148D01*
X010207Y024164D01*
X010247Y024176D01*
X010288Y024184D01*
X010330Y024188D01*
X010372Y024188D01*
X010414Y024184D01*
X010455Y024176D01*
X010495Y024164D01*
X010534Y024148D01*
X010571Y024129D01*
X010606Y024106D01*
X010639Y024081D01*
X010669Y024052D01*
X010697Y024020D01*
X010721Y023986D01*
X010742Y023950D01*
X010759Y023912D01*
X010773Y023872D01*
X010783Y023831D01*
X010789Y023790D01*
X010791Y023748D01*
X010789Y023706D01*
X010783Y023665D01*
X010773Y023624D01*
X010759Y023584D01*
X010742Y023546D01*
X010721Y023510D01*
X010697Y023476D01*
X010669Y023444D01*
X010639Y023415D01*
X010606Y023390D01*
X010571Y023367D01*
X010534Y023348D01*
X010495Y023332D01*
X010455Y023320D01*
X010414Y023312D01*
X010372Y023308D01*
X010330Y023308D01*
X010288Y023312D01*
X010247Y023320D01*
X010207Y023332D01*
X010168Y023348D01*
X010131Y023367D01*
X010096Y023390D01*
X010063Y023415D01*
X010033Y023444D01*
X010005Y023476D01*
X009981Y023510D01*
X009960Y023546D01*
X009943Y023584D01*
X009929Y023624D01*
X009919Y023665D01*
X009913Y023706D01*
X009911Y023748D01*
X008411Y023748D02*
X008413Y023790D01*
X008419Y023831D01*
X008429Y023872D01*
X008443Y023912D01*
X008460Y023950D01*
X008481Y023986D01*
X008505Y024020D01*
X008533Y024052D01*
X008563Y024081D01*
X008596Y024106D01*
X008631Y024129D01*
X008668Y024148D01*
X008707Y024164D01*
X008747Y024176D01*
X008788Y024184D01*
X008830Y024188D01*
X008872Y024188D01*
X008914Y024184D01*
X008955Y024176D01*
X008995Y024164D01*
X009034Y024148D01*
X009071Y024129D01*
X009106Y024106D01*
X009139Y024081D01*
X009169Y024052D01*
X009197Y024020D01*
X009221Y023986D01*
X009242Y023950D01*
X009259Y023912D01*
X009273Y023872D01*
X009283Y023831D01*
X009289Y023790D01*
X009291Y023748D01*
X009289Y023706D01*
X009283Y023665D01*
X009273Y023624D01*
X009259Y023584D01*
X009242Y023546D01*
X009221Y023510D01*
X009197Y023476D01*
X009169Y023444D01*
X009139Y023415D01*
X009106Y023390D01*
X009071Y023367D01*
X009034Y023348D01*
X008995Y023332D01*
X008955Y023320D01*
X008914Y023312D01*
X008872Y023308D01*
X008830Y023308D01*
X008788Y023312D01*
X008747Y023320D01*
X008707Y023332D01*
X008668Y023348D01*
X008631Y023367D01*
X008596Y023390D01*
X008563Y023415D01*
X008533Y023444D01*
X008505Y023476D01*
X008481Y023510D01*
X008460Y023546D01*
X008443Y023584D01*
X008429Y023624D01*
X008419Y023665D01*
X008413Y023706D01*
X008411Y023748D01*
X008411Y021748D02*
X008413Y021790D01*
X008419Y021831D01*
X008429Y021872D01*
X008443Y021912D01*
X008460Y021950D01*
X008481Y021986D01*
X008505Y022020D01*
X008533Y022052D01*
X008563Y022081D01*
X008596Y022106D01*
X008631Y022129D01*
X008668Y022148D01*
X008707Y022164D01*
X008747Y022176D01*
X008788Y022184D01*
X008830Y022188D01*
X008872Y022188D01*
X008914Y022184D01*
X008955Y022176D01*
X008995Y022164D01*
X009034Y022148D01*
X009071Y022129D01*
X009106Y022106D01*
X009139Y022081D01*
X009169Y022052D01*
X009197Y022020D01*
X009221Y021986D01*
X009242Y021950D01*
X009259Y021912D01*
X009273Y021872D01*
X009283Y021831D01*
X009289Y021790D01*
X009291Y021748D01*
X009289Y021706D01*
X009283Y021665D01*
X009273Y021624D01*
X009259Y021584D01*
X009242Y021546D01*
X009221Y021510D01*
X009197Y021476D01*
X009169Y021444D01*
X009139Y021415D01*
X009106Y021390D01*
X009071Y021367D01*
X009034Y021348D01*
X008995Y021332D01*
X008955Y021320D01*
X008914Y021312D01*
X008872Y021308D01*
X008830Y021308D01*
X008788Y021312D01*
X008747Y021320D01*
X008707Y021332D01*
X008668Y021348D01*
X008631Y021367D01*
X008596Y021390D01*
X008563Y021415D01*
X008533Y021444D01*
X008505Y021476D01*
X008481Y021510D01*
X008460Y021546D01*
X008443Y021584D01*
X008429Y021624D01*
X008419Y021665D01*
X008413Y021706D01*
X008411Y021748D01*
X006911Y021748D02*
X006913Y021790D01*
X006919Y021831D01*
X006929Y021872D01*
X006943Y021912D01*
X006960Y021950D01*
X006981Y021986D01*
X007005Y022020D01*
X007033Y022052D01*
X007063Y022081D01*
X007096Y022106D01*
X007131Y022129D01*
X007168Y022148D01*
X007207Y022164D01*
X007247Y022176D01*
X007288Y022184D01*
X007330Y022188D01*
X007372Y022188D01*
X007414Y022184D01*
X007455Y022176D01*
X007495Y022164D01*
X007534Y022148D01*
X007571Y022129D01*
X007606Y022106D01*
X007639Y022081D01*
X007669Y022052D01*
X007697Y022020D01*
X007721Y021986D01*
X007742Y021950D01*
X007759Y021912D01*
X007773Y021872D01*
X007783Y021831D01*
X007789Y021790D01*
X007791Y021748D01*
X007789Y021706D01*
X007783Y021665D01*
X007773Y021624D01*
X007759Y021584D01*
X007742Y021546D01*
X007721Y021510D01*
X007697Y021476D01*
X007669Y021444D01*
X007639Y021415D01*
X007606Y021390D01*
X007571Y021367D01*
X007534Y021348D01*
X007495Y021332D01*
X007455Y021320D01*
X007414Y021312D01*
X007372Y021308D01*
X007330Y021308D01*
X007288Y021312D01*
X007247Y021320D01*
X007207Y021332D01*
X007168Y021348D01*
X007131Y021367D01*
X007096Y021390D01*
X007063Y021415D01*
X007033Y021444D01*
X007005Y021476D01*
X006981Y021510D01*
X006960Y021546D01*
X006943Y021584D01*
X006929Y021624D01*
X006919Y021665D01*
X006913Y021706D01*
X006911Y021748D01*
X006911Y020248D02*
X006913Y020290D01*
X006919Y020331D01*
X006929Y020372D01*
X006943Y020412D01*
X006960Y020450D01*
X006981Y020486D01*
X007005Y020520D01*
X007033Y020552D01*
X007063Y020581D01*
X007096Y020606D01*
X007131Y020629D01*
X007168Y020648D01*
X007207Y020664D01*
X007247Y020676D01*
X007288Y020684D01*
X007330Y020688D01*
X007372Y020688D01*
X007414Y020684D01*
X007455Y020676D01*
X007495Y020664D01*
X007534Y020648D01*
X007571Y020629D01*
X007606Y020606D01*
X007639Y020581D01*
X007669Y020552D01*
X007697Y020520D01*
X007721Y020486D01*
X007742Y020450D01*
X007759Y020412D01*
X007773Y020372D01*
X007783Y020331D01*
X007789Y020290D01*
X007791Y020248D01*
X007789Y020206D01*
X007783Y020165D01*
X007773Y020124D01*
X007759Y020084D01*
X007742Y020046D01*
X007721Y020010D01*
X007697Y019976D01*
X007669Y019944D01*
X007639Y019915D01*
X007606Y019890D01*
X007571Y019867D01*
X007534Y019848D01*
X007495Y019832D01*
X007455Y019820D01*
X007414Y019812D01*
X007372Y019808D01*
X007330Y019808D01*
X007288Y019812D01*
X007247Y019820D01*
X007207Y019832D01*
X007168Y019848D01*
X007131Y019867D01*
X007096Y019890D01*
X007063Y019915D01*
X007033Y019944D01*
X007005Y019976D01*
X006981Y020010D01*
X006960Y020046D01*
X006943Y020084D01*
X006929Y020124D01*
X006919Y020165D01*
X006913Y020206D01*
X006911Y020248D01*
X005411Y020248D02*
X005413Y020290D01*
X005419Y020331D01*
X005429Y020372D01*
X005443Y020412D01*
X005460Y020450D01*
X005481Y020486D01*
X005505Y020520D01*
X005533Y020552D01*
X005563Y020581D01*
X005596Y020606D01*
X005631Y020629D01*
X005668Y020648D01*
X005707Y020664D01*
X005747Y020676D01*
X005788Y020684D01*
X005830Y020688D01*
X005872Y020688D01*
X005914Y020684D01*
X005955Y020676D01*
X005995Y020664D01*
X006034Y020648D01*
X006071Y020629D01*
X006106Y020606D01*
X006139Y020581D01*
X006169Y020552D01*
X006197Y020520D01*
X006221Y020486D01*
X006242Y020450D01*
X006259Y020412D01*
X006273Y020372D01*
X006283Y020331D01*
X006289Y020290D01*
X006291Y020248D01*
X006289Y020206D01*
X006283Y020165D01*
X006273Y020124D01*
X006259Y020084D01*
X006242Y020046D01*
X006221Y020010D01*
X006197Y019976D01*
X006169Y019944D01*
X006139Y019915D01*
X006106Y019890D01*
X006071Y019867D01*
X006034Y019848D01*
X005995Y019832D01*
X005955Y019820D01*
X005914Y019812D01*
X005872Y019808D01*
X005830Y019808D01*
X005788Y019812D01*
X005747Y019820D01*
X005707Y019832D01*
X005668Y019848D01*
X005631Y019867D01*
X005596Y019890D01*
X005563Y019915D01*
X005533Y019944D01*
X005505Y019976D01*
X005481Y020010D01*
X005460Y020046D01*
X005443Y020084D01*
X005429Y020124D01*
X005419Y020165D01*
X005413Y020206D01*
X005411Y020248D01*
X008411Y020248D02*
X008413Y020290D01*
X008419Y020331D01*
X008429Y020372D01*
X008443Y020412D01*
X008460Y020450D01*
X008481Y020486D01*
X008505Y020520D01*
X008533Y020552D01*
X008563Y020581D01*
X008596Y020606D01*
X008631Y020629D01*
X008668Y020648D01*
X008707Y020664D01*
X008747Y020676D01*
X008788Y020684D01*
X008830Y020688D01*
X008872Y020688D01*
X008914Y020684D01*
X008955Y020676D01*
X008995Y020664D01*
X009034Y020648D01*
X009071Y020629D01*
X009106Y020606D01*
X009139Y020581D01*
X009169Y020552D01*
X009197Y020520D01*
X009221Y020486D01*
X009242Y020450D01*
X009259Y020412D01*
X009273Y020372D01*
X009283Y020331D01*
X009289Y020290D01*
X009291Y020248D01*
X009289Y020206D01*
X009283Y020165D01*
X009273Y020124D01*
X009259Y020084D01*
X009242Y020046D01*
X009221Y020010D01*
X009197Y019976D01*
X009169Y019944D01*
X009139Y019915D01*
X009106Y019890D01*
X009071Y019867D01*
X009034Y019848D01*
X008995Y019832D01*
X008955Y019820D01*
X008914Y019812D01*
X008872Y019808D01*
X008830Y019808D01*
X008788Y019812D01*
X008747Y019820D01*
X008707Y019832D01*
X008668Y019848D01*
X008631Y019867D01*
X008596Y019890D01*
X008563Y019915D01*
X008533Y019944D01*
X008505Y019976D01*
X008481Y020010D01*
X008460Y020046D01*
X008443Y020084D01*
X008429Y020124D01*
X008419Y020165D01*
X008413Y020206D01*
X008411Y020248D01*
D12*
X012179Y019221D02*
X012179Y019075D01*
X012216Y019038D01*
X012289Y019038D01*
X012326Y019075D01*
X012400Y019075D02*
X012400Y019038D01*
X012400Y019075D02*
X012547Y019221D01*
X012547Y019258D01*
X012400Y019258D01*
X012326Y019221D02*
X012289Y019258D01*
X012216Y019258D01*
X012179Y019221D01*
X012621Y019258D02*
X012621Y019148D01*
X012695Y019185D01*
X012731Y019185D01*
X012768Y019148D01*
X012768Y019075D01*
X012731Y019038D01*
X012658Y019038D01*
X012621Y019075D01*
X012621Y019258D02*
X012768Y019258D01*
X013779Y019221D02*
X013779Y019075D01*
X013816Y019038D01*
X013889Y019038D01*
X013926Y019075D01*
X014000Y019075D02*
X014000Y019038D01*
X014000Y019075D02*
X014147Y019221D01*
X014147Y019258D01*
X014000Y019258D01*
X013926Y019221D02*
X013889Y019258D01*
X013816Y019258D01*
X013779Y019221D01*
X014221Y019185D02*
X014295Y019258D01*
X014295Y019038D01*
X014368Y019038D02*
X014221Y019038D01*
X015929Y019075D02*
X015966Y019038D01*
X016039Y019038D01*
X016076Y019075D01*
X016150Y019075D02*
X016187Y019038D01*
X016260Y019038D01*
X016297Y019075D01*
X016297Y019111D01*
X016260Y019148D01*
X016150Y019148D01*
X016150Y019075D01*
X016150Y019148D02*
X016224Y019221D01*
X016297Y019258D01*
X016371Y019221D02*
X016371Y019185D01*
X016408Y019148D01*
X016481Y019148D01*
X016518Y019111D01*
X016518Y019075D01*
X016481Y019038D01*
X016408Y019038D01*
X016371Y019075D01*
X016371Y019111D01*
X016408Y019148D01*
X016481Y019148D02*
X016518Y019185D01*
X016518Y019221D01*
X016481Y019258D01*
X016408Y019258D01*
X016371Y019221D01*
X016076Y019221D02*
X016039Y019258D01*
X015966Y019258D01*
X015929Y019221D01*
X015929Y019075D01*
X018079Y019121D02*
X018079Y018975D01*
X018116Y018938D01*
X018189Y018938D01*
X018226Y018975D01*
X018300Y018975D02*
X018337Y018938D01*
X018410Y018938D01*
X018447Y018975D01*
X018447Y019011D01*
X018410Y019048D01*
X018300Y019048D01*
X018300Y018975D01*
X018300Y019048D02*
X018374Y019121D01*
X018447Y019158D01*
X018521Y019158D02*
X018521Y019048D01*
X018595Y019085D01*
X018631Y019085D01*
X018668Y019048D01*
X018668Y018975D01*
X018631Y018938D01*
X018558Y018938D01*
X018521Y018975D01*
X018521Y019158D02*
X018668Y019158D01*
X018226Y019121D02*
X018189Y019158D01*
X018116Y019158D01*
X018079Y019121D01*
X021036Y015518D02*
X020999Y015481D01*
X020999Y015335D01*
X021036Y015298D01*
X021109Y015298D01*
X021146Y015335D01*
X021220Y015335D02*
X021257Y015298D01*
X021330Y015298D01*
X021367Y015335D01*
X021367Y015371D01*
X021330Y015408D01*
X021220Y015408D01*
X021220Y015335D01*
X021220Y015408D02*
X021294Y015481D01*
X021367Y015518D01*
X021441Y015481D02*
X021478Y015518D01*
X021551Y015518D01*
X021588Y015481D01*
X021441Y015335D01*
X021478Y015298D01*
X021551Y015298D01*
X021588Y015335D01*
X021588Y015481D01*
X021441Y015481D02*
X021441Y015335D01*
X021146Y015481D02*
X021109Y015518D01*
X021036Y015518D01*
X023129Y013621D02*
X023129Y013475D01*
X023166Y013438D01*
X023239Y013438D01*
X023276Y013475D01*
X023350Y013475D02*
X023387Y013438D01*
X023460Y013438D01*
X023497Y013475D01*
X023497Y013511D01*
X023460Y013548D01*
X023424Y013548D01*
X023460Y013548D02*
X023497Y013585D01*
X023497Y013621D01*
X023460Y013658D01*
X023387Y013658D01*
X023350Y013621D01*
X023276Y013621D02*
X023239Y013658D01*
X023166Y013658D01*
X023129Y013621D01*
X023571Y013621D02*
X023608Y013658D01*
X023681Y013658D01*
X023718Y013621D01*
X023718Y013585D01*
X023681Y013548D01*
X023718Y013511D01*
X023718Y013475D01*
X023681Y013438D01*
X023608Y013438D01*
X023571Y013475D01*
X023645Y013548D02*
X023681Y013548D01*
X021668Y012358D02*
X021521Y012358D01*
X021521Y012248D01*
X021595Y012285D01*
X021631Y012285D01*
X021668Y012248D01*
X021668Y012175D01*
X021631Y012138D01*
X021558Y012138D01*
X021521Y012175D01*
X021447Y012175D02*
X021410Y012138D01*
X021337Y012138D01*
X021300Y012175D01*
X021300Y012248D02*
X021374Y012285D01*
X021410Y012285D01*
X021447Y012248D01*
X021447Y012175D01*
X021300Y012248D02*
X021300Y012358D01*
X021447Y012358D01*
X021226Y012321D02*
X021189Y012358D01*
X021116Y012358D01*
X021079Y012321D01*
X021079Y012175D01*
X021116Y012138D01*
X021189Y012138D01*
X021226Y012175D01*
X028879Y008671D02*
X028879Y008525D01*
X028916Y008488D01*
X028989Y008488D01*
X029026Y008525D01*
X029100Y008525D02*
X029137Y008488D01*
X029210Y008488D01*
X029247Y008525D01*
X029247Y008598D01*
X029210Y008635D01*
X029174Y008635D01*
X029100Y008598D01*
X029100Y008708D01*
X029247Y008708D01*
X029321Y008671D02*
X029358Y008708D01*
X029431Y008708D01*
X029468Y008671D01*
X029468Y008635D01*
X029321Y008488D01*
X029468Y008488D01*
X029026Y008671D02*
X028989Y008708D01*
X028916Y008708D01*
X028879Y008671D01*
X026268Y008221D02*
X026268Y008185D01*
X026231Y008148D01*
X026158Y008148D01*
X026121Y008185D01*
X026121Y008221D01*
X026158Y008258D01*
X026231Y008258D01*
X026268Y008221D01*
X026231Y008148D02*
X026268Y008111D01*
X026268Y008075D01*
X026231Y008038D01*
X026158Y008038D01*
X026121Y008075D01*
X026121Y008111D01*
X026158Y008148D01*
X026047Y008148D02*
X026047Y008075D01*
X026010Y008038D01*
X025937Y008038D01*
X025900Y008075D01*
X025900Y008148D02*
X025974Y008185D01*
X026010Y008185D01*
X026047Y008148D01*
X026047Y008258D02*
X025900Y008258D01*
X025900Y008148D01*
X025826Y008075D02*
X025789Y008038D01*
X025716Y008038D01*
X025679Y008075D01*
X025679Y008221D01*
X025716Y008258D01*
X025789Y008258D01*
X025826Y008221D01*
X032629Y009325D02*
X032666Y009288D01*
X032739Y009288D01*
X032776Y009325D01*
X032850Y009325D02*
X032887Y009288D01*
X032960Y009288D01*
X032997Y009325D01*
X032997Y009361D01*
X032960Y009398D01*
X032850Y009398D01*
X032850Y009325D01*
X032850Y009398D02*
X032924Y009471D01*
X032997Y009508D01*
X033071Y009435D02*
X033145Y009508D01*
X033145Y009288D01*
X033218Y009288D02*
X033071Y009288D01*
X032776Y009471D02*
X032739Y009508D01*
X032666Y009508D01*
X032629Y009471D01*
X032629Y009325D01*
X033935Y009851D02*
X033935Y010071D01*
X034045Y010071D01*
X034081Y010035D01*
X034081Y009961D01*
X034045Y009925D01*
X033935Y009925D01*
X034008Y009925D02*
X034081Y009851D01*
X034155Y009851D02*
X034302Y009998D01*
X034302Y010035D01*
X034266Y010071D01*
X034192Y010071D01*
X034155Y010035D01*
X034155Y009851D02*
X034302Y009851D01*
X034376Y009851D02*
X034523Y009851D01*
X034450Y009851D02*
X034450Y010071D01*
X034376Y009998D01*
X034840Y011138D02*
X034840Y011358D01*
X034950Y011358D01*
X034986Y011321D01*
X034986Y011248D01*
X034950Y011211D01*
X034840Y011211D01*
X034913Y011211D02*
X034986Y011138D01*
X035061Y011175D02*
X035097Y011138D01*
X035171Y011138D01*
X035207Y011175D01*
X035207Y011321D01*
X035171Y011358D01*
X035097Y011358D01*
X035061Y011321D01*
X035061Y011285D01*
X035097Y011248D01*
X035207Y011248D01*
X035579Y011388D02*
X035579Y011608D01*
X035689Y011608D01*
X035726Y011571D01*
X035726Y011498D01*
X035689Y011461D01*
X035579Y011461D01*
X035653Y011461D02*
X035726Y011388D01*
X035800Y011425D02*
X035837Y011388D01*
X035910Y011388D01*
X035947Y011425D01*
X035947Y011498D01*
X035910Y011535D01*
X035874Y011535D01*
X035800Y011498D01*
X035800Y011608D01*
X035947Y011608D01*
X036021Y011571D02*
X036021Y011535D01*
X036058Y011498D01*
X036131Y011498D01*
X036168Y011461D01*
X036168Y011425D01*
X036131Y011388D01*
X036058Y011388D01*
X036021Y011425D01*
X036021Y011461D01*
X036058Y011498D01*
X036131Y011498D02*
X036168Y011535D01*
X036168Y011571D01*
X036131Y011608D01*
X036058Y011608D01*
X036021Y011571D01*
X036076Y012388D02*
X036003Y012461D01*
X036039Y012461D02*
X035929Y012461D01*
X035929Y012388D02*
X035929Y012608D01*
X036039Y012608D01*
X036076Y012571D01*
X036076Y012498D01*
X036039Y012461D01*
X036150Y012425D02*
X036187Y012388D01*
X036260Y012388D01*
X036297Y012425D01*
X036297Y012498D01*
X036260Y012535D01*
X036224Y012535D01*
X036150Y012498D01*
X036150Y012608D01*
X036297Y012608D01*
X036371Y012571D02*
X036408Y012608D01*
X036481Y012608D01*
X036518Y012571D01*
X036371Y012425D01*
X036408Y012388D01*
X036481Y012388D01*
X036518Y012425D01*
X036518Y012571D01*
X036629Y012538D02*
X036629Y012758D01*
X036739Y012758D01*
X036776Y012721D01*
X036776Y012648D01*
X036739Y012611D01*
X036629Y012611D01*
X036703Y012611D02*
X036776Y012538D01*
X036850Y012575D02*
X036887Y012538D01*
X036960Y012538D01*
X036997Y012575D01*
X036997Y012648D01*
X036960Y012685D01*
X036924Y012685D01*
X036850Y012648D01*
X036850Y012758D01*
X036997Y012758D01*
X037071Y012685D02*
X037145Y012758D01*
X037145Y012538D01*
X037218Y012538D02*
X037071Y012538D01*
X036518Y012688D02*
X036371Y012688D01*
X036518Y012835D01*
X036518Y012871D01*
X036481Y012908D01*
X036408Y012908D01*
X036371Y012871D01*
X036297Y012908D02*
X036150Y012908D01*
X036150Y012798D01*
X036224Y012835D01*
X036260Y012835D01*
X036297Y012798D01*
X036297Y012725D01*
X036260Y012688D01*
X036187Y012688D01*
X036150Y012725D01*
X036076Y012688D02*
X036003Y012761D01*
X036039Y012761D02*
X035929Y012761D01*
X035929Y012688D02*
X035929Y012908D01*
X036039Y012908D01*
X036076Y012871D01*
X036076Y012798D01*
X036039Y012761D01*
X036371Y012571D02*
X036371Y012425D01*
X038529Y013088D02*
X038529Y013308D01*
X038639Y013308D01*
X038676Y013271D01*
X038676Y013198D01*
X038639Y013161D01*
X038529Y013161D01*
X038603Y013161D02*
X038676Y013088D01*
X038750Y013088D02*
X038897Y013235D01*
X038897Y013271D01*
X038860Y013308D01*
X038787Y013308D01*
X038750Y013271D01*
X038750Y013088D02*
X038897Y013088D01*
X038971Y013125D02*
X039008Y013088D01*
X039081Y013088D01*
X039118Y013125D01*
X039118Y013161D01*
X039081Y013198D01*
X039045Y013198D01*
X039081Y013198D02*
X039118Y013235D01*
X039118Y013271D01*
X039081Y013308D01*
X039008Y013308D01*
X038971Y013271D01*
X039429Y013308D02*
X039429Y013088D01*
X039429Y013161D02*
X039539Y013161D01*
X039576Y013198D01*
X039576Y013271D01*
X039539Y013308D01*
X039429Y013308D01*
X039503Y013161D02*
X039576Y013088D01*
X039650Y013088D02*
X039797Y013235D01*
X039797Y013271D01*
X039760Y013308D01*
X039687Y013308D01*
X039650Y013271D01*
X039650Y013088D02*
X039797Y013088D01*
X039871Y013125D02*
X039908Y013088D01*
X039981Y013088D01*
X040018Y013125D01*
X040018Y013198D01*
X039981Y013235D01*
X039945Y013235D01*
X039871Y013198D01*
X039871Y013308D01*
X040018Y013308D01*
X039531Y014338D02*
X039568Y014375D01*
X039568Y014411D01*
X039531Y014448D01*
X039421Y014448D01*
X039421Y014375D01*
X039458Y014338D01*
X039531Y014338D01*
X039421Y014448D02*
X039495Y014521D01*
X039568Y014558D01*
X039347Y014521D02*
X039347Y014375D01*
X039310Y014338D01*
X039237Y014338D01*
X039200Y014375D01*
X039126Y014375D02*
X039089Y014338D01*
X039016Y014338D01*
X038979Y014375D01*
X038979Y014521D01*
X039016Y014558D01*
X039089Y014558D01*
X039126Y014521D01*
X039200Y014521D02*
X039200Y014485D01*
X039237Y014448D01*
X039347Y014448D01*
X039347Y014521D02*
X039310Y014558D01*
X039237Y014558D01*
X039200Y014521D01*
X038618Y015071D02*
X038471Y014925D01*
X038471Y014888D01*
X038397Y014925D02*
X038397Y015071D01*
X038360Y015108D01*
X038287Y015108D01*
X038250Y015071D01*
X038250Y015035D01*
X038287Y014998D01*
X038397Y014998D01*
X038397Y014925D02*
X038360Y014888D01*
X038287Y014888D01*
X038250Y014925D01*
X038176Y014925D02*
X038139Y014888D01*
X038066Y014888D01*
X038029Y014925D01*
X038029Y015071D01*
X038066Y015108D01*
X038139Y015108D01*
X038176Y015071D01*
X038471Y015108D02*
X038618Y015108D01*
X038618Y015071D01*
X037881Y016438D02*
X037808Y016438D01*
X037771Y016475D01*
X037771Y016548D02*
X037845Y016585D01*
X037881Y016585D01*
X037918Y016548D01*
X037918Y016475D01*
X037881Y016438D01*
X037771Y016548D02*
X037771Y016658D01*
X037918Y016658D01*
X037697Y016658D02*
X037550Y016658D01*
X037550Y016548D01*
X037624Y016585D01*
X037660Y016585D01*
X037697Y016548D01*
X037697Y016475D01*
X037660Y016438D01*
X037587Y016438D01*
X037550Y016475D01*
X037476Y016438D02*
X037403Y016511D01*
X037439Y016511D02*
X037329Y016511D01*
X037329Y016438D02*
X037329Y016658D01*
X037439Y016658D01*
X037476Y016621D01*
X037476Y016548D01*
X037439Y016511D01*
X037118Y016475D02*
X037118Y016621D01*
X037081Y016658D01*
X037008Y016658D01*
X036971Y016621D01*
X036971Y016585D01*
X037008Y016548D01*
X037118Y016548D01*
X037118Y016475D02*
X037081Y016438D01*
X037008Y016438D01*
X036971Y016475D01*
X036897Y016475D02*
X036860Y016438D01*
X036787Y016438D01*
X036750Y016475D01*
X036750Y016548D02*
X036824Y016585D01*
X036860Y016585D01*
X036897Y016548D01*
X036897Y016475D01*
X036750Y016548D02*
X036750Y016658D01*
X036897Y016658D01*
X036676Y016621D02*
X036676Y016548D01*
X036639Y016511D01*
X036529Y016511D01*
X036529Y016438D02*
X036529Y016658D01*
X036639Y016658D01*
X036676Y016621D01*
X036603Y016511D02*
X036676Y016438D01*
X035118Y016848D02*
X034971Y016848D01*
X035081Y016958D01*
X035081Y016738D01*
X034897Y016775D02*
X034860Y016738D01*
X034787Y016738D01*
X034750Y016775D01*
X034750Y016848D02*
X034824Y016885D01*
X034860Y016885D01*
X034897Y016848D01*
X034897Y016775D01*
X034750Y016848D02*
X034750Y016958D01*
X034897Y016958D01*
X034676Y016921D02*
X034676Y016848D01*
X034639Y016811D01*
X034529Y016811D01*
X034529Y016738D02*
X034529Y016958D01*
X034639Y016958D01*
X034676Y016921D01*
X034603Y016811D02*
X034676Y016738D01*
X034676Y017188D02*
X034603Y017261D01*
X034639Y017261D02*
X034529Y017261D01*
X034529Y017188D02*
X034529Y017408D01*
X034639Y017408D01*
X034676Y017371D01*
X034676Y017298D01*
X034639Y017261D01*
X034750Y017225D02*
X034787Y017188D01*
X034860Y017188D01*
X034897Y017225D01*
X034897Y017298D01*
X034860Y017335D01*
X034824Y017335D01*
X034750Y017298D01*
X034750Y017408D01*
X034897Y017408D01*
X034971Y017371D02*
X035008Y017408D01*
X035081Y017408D01*
X035118Y017371D01*
X035118Y017335D01*
X035081Y017298D01*
X035118Y017261D01*
X035118Y017225D01*
X035081Y017188D01*
X035008Y017188D01*
X034971Y017225D01*
X035045Y017298D02*
X035081Y017298D01*
X038379Y017625D02*
X038416Y017588D01*
X038489Y017588D01*
X038526Y017625D01*
X038600Y017588D02*
X038747Y017735D01*
X038747Y017771D01*
X038710Y017808D01*
X038637Y017808D01*
X038600Y017771D01*
X038526Y017771D02*
X038489Y017808D01*
X038416Y017808D01*
X038379Y017771D01*
X038379Y017625D01*
X038600Y017588D02*
X038747Y017588D01*
X038821Y017625D02*
X038858Y017588D01*
X038931Y017588D01*
X038968Y017625D01*
X038968Y017661D01*
X038931Y017698D01*
X038821Y017698D01*
X038821Y017625D01*
X038821Y017698D02*
X038895Y017771D01*
X038968Y017808D01*
X041840Y016664D02*
X041840Y016444D01*
X041950Y016444D01*
X041986Y016481D01*
X041986Y016628D01*
X041950Y016664D01*
X041840Y016664D01*
X042061Y016664D02*
X042061Y016554D01*
X042134Y016591D01*
X042171Y016591D01*
X042207Y016554D01*
X042207Y016481D01*
X042171Y016444D01*
X042097Y016444D01*
X042061Y016481D01*
X042061Y016664D02*
X042207Y016664D01*
X042324Y016775D02*
X042324Y016921D01*
X042250Y016848D02*
X042397Y016848D01*
X042387Y017238D02*
X042460Y017238D01*
X042497Y017275D01*
X042497Y017311D01*
X042460Y017348D01*
X042350Y017348D01*
X042350Y017275D01*
X042387Y017238D01*
X042276Y017238D02*
X042203Y017311D01*
X042239Y017311D02*
X042129Y017311D01*
X042129Y017238D02*
X042129Y017458D01*
X042239Y017458D01*
X042276Y017421D01*
X042276Y017348D01*
X042239Y017311D01*
X042350Y017348D02*
X042424Y017421D01*
X042497Y017458D01*
X042571Y017421D02*
X042608Y017458D01*
X042681Y017458D01*
X042718Y017421D01*
X042718Y017385D01*
X042571Y017238D01*
X042718Y017238D01*
X044174Y016321D02*
X044174Y016175D01*
X044100Y016248D02*
X044247Y016248D01*
X044239Y015858D02*
X044276Y015821D01*
X044276Y015748D01*
X044239Y015711D01*
X044129Y015711D01*
X044129Y015638D02*
X044129Y015858D01*
X044239Y015858D01*
X044203Y015711D02*
X044276Y015638D01*
X044350Y015675D02*
X044387Y015638D01*
X044460Y015638D01*
X044497Y015675D01*
X044497Y015711D01*
X044460Y015748D01*
X044350Y015748D01*
X044350Y015675D01*
X044350Y015748D02*
X044424Y015821D01*
X044497Y015858D01*
X044571Y015821D02*
X044608Y015858D01*
X044681Y015858D01*
X044718Y015821D01*
X044718Y015785D01*
X044681Y015748D01*
X044718Y015711D01*
X044718Y015675D01*
X044681Y015638D01*
X044608Y015638D01*
X044571Y015675D01*
X044645Y015748D02*
X044681Y015748D01*
X044929Y015711D02*
X045039Y015711D01*
X045076Y015748D01*
X045076Y015821D01*
X045039Y015858D01*
X044929Y015858D01*
X044929Y015638D01*
X045003Y015711D02*
X045076Y015638D01*
X045150Y015675D02*
X045187Y015638D01*
X045260Y015638D01*
X045297Y015675D01*
X045297Y015748D01*
X045260Y015785D01*
X045224Y015785D01*
X045150Y015748D01*
X045150Y015858D01*
X045297Y015858D01*
X045371Y015748D02*
X045445Y015821D01*
X045518Y015858D01*
X045481Y015748D02*
X045371Y015748D01*
X045371Y015675D01*
X045408Y015638D01*
X045481Y015638D01*
X045518Y015675D01*
X045518Y015711D01*
X045481Y015748D01*
X045467Y016538D02*
X045430Y016575D01*
X045467Y016538D02*
X045540Y016538D01*
X045577Y016575D01*
X045577Y016648D01*
X045540Y016685D01*
X045504Y016685D01*
X045430Y016648D01*
X045430Y016758D01*
X045577Y016758D01*
X045651Y016758D02*
X045798Y016758D01*
X045798Y016721D01*
X045651Y016575D01*
X045651Y016538D01*
X045356Y016538D02*
X045283Y016611D01*
X045319Y016611D02*
X045209Y016611D01*
X045209Y016538D02*
X045209Y016758D01*
X045319Y016758D01*
X045356Y016721D01*
X045356Y016648D01*
X045319Y016611D01*
X043807Y015902D02*
X043734Y015865D01*
X043661Y015792D01*
X043771Y015792D01*
X043807Y015755D01*
X043807Y015718D01*
X043771Y015682D01*
X043697Y015682D01*
X043661Y015718D01*
X043661Y015792D01*
X043586Y015865D02*
X043550Y015902D01*
X043440Y015902D01*
X043440Y015682D01*
X043550Y015682D01*
X043586Y015718D01*
X043586Y015865D01*
X041407Y014658D02*
X041334Y014621D01*
X041261Y014548D01*
X041371Y014548D01*
X041407Y014511D01*
X041407Y014475D01*
X041371Y014438D01*
X041297Y014438D01*
X041261Y014475D01*
X041261Y014548D01*
X041186Y014475D02*
X041150Y014438D01*
X041076Y014438D01*
X041040Y014475D01*
X041040Y014621D01*
X041076Y014658D01*
X041150Y014658D01*
X041186Y014621D01*
X039271Y011908D02*
X039197Y011908D01*
X039161Y011871D01*
X039271Y011908D02*
X039307Y011871D01*
X039307Y011835D01*
X039161Y011688D01*
X039307Y011688D01*
X039086Y011688D02*
X038940Y011688D01*
X038940Y011908D01*
X040340Y010821D02*
X040376Y010858D01*
X040450Y010858D01*
X040486Y010821D01*
X040561Y010858D02*
X040561Y010748D01*
X040634Y010785D01*
X040671Y010785D01*
X040707Y010748D01*
X040707Y010675D01*
X040671Y010638D01*
X040597Y010638D01*
X040561Y010675D01*
X040486Y010675D02*
X040450Y010638D01*
X040376Y010638D01*
X040340Y010675D01*
X040340Y010821D01*
X040561Y010858D02*
X040707Y010858D01*
X041579Y010988D02*
X041579Y011208D01*
X041689Y011208D01*
X041726Y011171D01*
X041726Y011098D01*
X041689Y011061D01*
X041579Y011061D01*
X041653Y011061D02*
X041726Y010988D01*
X041800Y010988D02*
X041947Y010988D01*
X041874Y010988D02*
X041874Y011208D01*
X041800Y011135D01*
X042021Y011098D02*
X042168Y011098D01*
X042131Y010988D02*
X042131Y011208D01*
X042021Y011098D01*
X041545Y009858D02*
X041545Y009638D01*
X041618Y009638D02*
X041471Y009638D01*
X041397Y009638D02*
X041250Y009638D01*
X041324Y009638D02*
X041324Y009858D01*
X041250Y009785D01*
X041176Y009821D02*
X041176Y009748D01*
X041139Y009711D01*
X041029Y009711D01*
X041029Y009638D02*
X041029Y009858D01*
X041139Y009858D01*
X041176Y009821D01*
X041103Y009711D02*
X041176Y009638D01*
X041471Y009785D02*
X041545Y009858D01*
X042379Y009558D02*
X042489Y009558D01*
X042526Y009521D01*
X042526Y009448D01*
X042489Y009411D01*
X042379Y009411D01*
X042379Y009338D02*
X042379Y009558D01*
X042453Y009411D02*
X042526Y009338D01*
X042600Y009338D02*
X042747Y009485D01*
X042747Y009521D01*
X042710Y009558D01*
X042637Y009558D01*
X042600Y009521D01*
X042600Y009338D02*
X042747Y009338D01*
X042821Y009375D02*
X042968Y009521D01*
X042968Y009375D01*
X042931Y009338D01*
X042858Y009338D01*
X042821Y009375D01*
X042821Y009521D01*
X042858Y009558D01*
X042931Y009558D01*
X042968Y009521D01*
X041931Y009158D02*
X041931Y008938D01*
X041968Y009048D02*
X041821Y009048D01*
X041931Y009158D01*
X041674Y009158D02*
X041674Y008938D01*
X041747Y008938D02*
X041600Y008938D01*
X041526Y008975D02*
X041489Y008938D01*
X041416Y008938D01*
X041379Y008975D01*
X041379Y009121D01*
X041416Y009158D01*
X041489Y009158D01*
X041526Y009121D01*
X041600Y009085D02*
X041674Y009158D01*
X041689Y008308D02*
X041726Y008271D01*
X041726Y008198D01*
X041689Y008161D01*
X041579Y008161D01*
X041579Y008088D02*
X041579Y008308D01*
X041689Y008308D01*
X041800Y008271D02*
X041837Y008308D01*
X041910Y008308D01*
X041947Y008271D01*
X041947Y008235D01*
X041800Y008088D01*
X041947Y008088D01*
X042021Y008088D02*
X042168Y008235D01*
X042168Y008271D01*
X042131Y008308D01*
X042058Y008308D01*
X042021Y008271D01*
X042021Y008088D02*
X042168Y008088D01*
X041726Y008088D02*
X041653Y008161D01*
X042046Y007688D02*
X042233Y007688D01*
X042323Y007688D02*
X042463Y007688D01*
X042509Y007641D01*
X042509Y007548D01*
X042463Y007501D01*
X042323Y007501D01*
X042323Y007408D02*
X042323Y007688D01*
X042140Y007688D02*
X042140Y007408D01*
X042599Y007408D02*
X042786Y007595D01*
X042786Y007641D01*
X042739Y007688D01*
X042645Y007688D01*
X042599Y007641D01*
X042599Y007408D02*
X042786Y007408D01*
X042779Y006708D02*
X042889Y006708D01*
X042926Y006671D01*
X042926Y006598D01*
X042889Y006561D01*
X042779Y006561D01*
X042779Y006488D02*
X042779Y006708D01*
X042853Y006561D02*
X042926Y006488D01*
X043000Y006525D02*
X043037Y006488D01*
X043110Y006488D01*
X043147Y006525D01*
X043147Y006561D01*
X043110Y006598D01*
X043074Y006598D01*
X043110Y006598D02*
X043147Y006635D01*
X043147Y006671D01*
X043110Y006708D01*
X043037Y006708D01*
X043000Y006671D01*
X043221Y006598D02*
X043331Y006598D01*
X043368Y006561D01*
X043368Y006525D01*
X043331Y006488D01*
X043258Y006488D01*
X043221Y006525D01*
X043221Y006598D01*
X043295Y006671D01*
X043368Y006708D01*
X043779Y006408D02*
X043889Y006408D01*
X043926Y006371D01*
X043926Y006298D01*
X043889Y006261D01*
X043779Y006261D01*
X043779Y006188D02*
X043779Y006408D01*
X043853Y006261D02*
X043926Y006188D01*
X044000Y006225D02*
X044037Y006188D01*
X044110Y006188D01*
X044147Y006225D01*
X044147Y006261D01*
X044110Y006298D01*
X044074Y006298D01*
X044110Y006298D02*
X044147Y006335D01*
X044147Y006371D01*
X044110Y006408D01*
X044037Y006408D01*
X044000Y006371D01*
X044221Y006371D02*
X044258Y006408D01*
X044331Y006408D01*
X044368Y006371D01*
X044368Y006335D01*
X044331Y006298D01*
X044368Y006261D01*
X044368Y006225D01*
X044331Y006188D01*
X044258Y006188D01*
X044221Y006225D01*
X044295Y006298D02*
X044331Y006298D01*
X044331Y005958D02*
X044368Y005921D01*
X044368Y005885D01*
X044331Y005848D01*
X044258Y005848D01*
X044221Y005885D01*
X044221Y005921D01*
X044258Y005958D01*
X044331Y005958D01*
X044331Y005848D02*
X044368Y005811D01*
X044368Y005775D01*
X044331Y005738D01*
X044258Y005738D01*
X044221Y005775D01*
X044221Y005811D01*
X044258Y005848D01*
X044147Y005885D02*
X044147Y005921D01*
X044110Y005958D01*
X044037Y005958D01*
X044000Y005921D01*
X043926Y005921D02*
X043889Y005958D01*
X043816Y005958D01*
X043779Y005921D01*
X043779Y005775D01*
X043816Y005738D01*
X043889Y005738D01*
X043926Y005775D01*
X044000Y005738D02*
X044147Y005885D01*
X044147Y005738D02*
X044000Y005738D01*
X043718Y005558D02*
X043718Y005521D01*
X043571Y005375D01*
X043571Y005338D01*
X043497Y005338D02*
X043350Y005338D01*
X043497Y005485D01*
X043497Y005521D01*
X043460Y005558D01*
X043387Y005558D01*
X043350Y005521D01*
X043276Y005521D02*
X043276Y005448D01*
X043239Y005411D01*
X043129Y005411D01*
X043129Y005338D02*
X043129Y005558D01*
X043239Y005558D01*
X043276Y005521D01*
X043203Y005411D02*
X043276Y005338D01*
X043571Y005558D02*
X043718Y005558D01*
X042818Y005108D02*
X042745Y005071D01*
X042671Y004998D01*
X042781Y004998D01*
X042818Y004961D01*
X042818Y004925D01*
X042781Y004888D01*
X042708Y004888D01*
X042671Y004925D01*
X042671Y004998D01*
X042597Y004888D02*
X042450Y004888D01*
X042524Y004888D02*
X042524Y005108D01*
X042450Y005035D01*
X042376Y005071D02*
X042376Y004998D01*
X042339Y004961D01*
X042229Y004961D01*
X042229Y004888D02*
X042229Y005108D01*
X042339Y005108D01*
X042376Y005071D01*
X042303Y004961D02*
X042376Y004888D01*
X042181Y004608D02*
X042218Y004571D01*
X042071Y004425D01*
X042108Y004388D01*
X042181Y004388D01*
X042218Y004425D01*
X042218Y004571D01*
X042181Y004608D02*
X042108Y004608D01*
X042071Y004571D01*
X042071Y004425D01*
X041997Y004388D02*
X041850Y004388D01*
X041924Y004388D02*
X041924Y004608D01*
X041850Y004535D01*
X041776Y004571D02*
X041776Y004498D01*
X041739Y004461D01*
X041629Y004461D01*
X041629Y004388D02*
X041629Y004608D01*
X041739Y004608D01*
X041776Y004571D01*
X041703Y004461D02*
X041776Y004388D01*
X041071Y003658D02*
X041107Y003621D01*
X041107Y003585D01*
X041071Y003548D01*
X040997Y003548D01*
X040961Y003585D01*
X040961Y003621D01*
X040997Y003658D01*
X041071Y003658D01*
X041071Y003548D02*
X041107Y003511D01*
X041107Y003475D01*
X041071Y003438D01*
X040997Y003438D01*
X040961Y003475D01*
X040961Y003511D01*
X040997Y003548D01*
X040886Y003475D02*
X040850Y003438D01*
X040776Y003438D01*
X040740Y003475D01*
X040740Y003621D01*
X040776Y003658D01*
X040850Y003658D01*
X040886Y003621D01*
X040418Y003725D02*
X040381Y003688D01*
X040308Y003688D01*
X040271Y003725D01*
X040197Y003688D02*
X040050Y003688D01*
X040197Y003835D01*
X040197Y003871D01*
X040160Y003908D01*
X040087Y003908D01*
X040050Y003871D01*
X039976Y003871D02*
X039939Y003908D01*
X039866Y003908D01*
X039829Y003871D01*
X039829Y003725D01*
X039866Y003688D01*
X039939Y003688D01*
X039976Y003725D01*
X040271Y003871D02*
X040308Y003908D01*
X040381Y003908D01*
X040418Y003871D01*
X040418Y003835D01*
X040381Y003798D01*
X040418Y003761D01*
X040418Y003725D01*
X040381Y003798D02*
X040345Y003798D01*
X039231Y004938D02*
X039158Y004938D01*
X039121Y004975D01*
X039121Y005048D02*
X039195Y005085D01*
X039231Y005085D01*
X039268Y005048D01*
X039268Y004975D01*
X039231Y004938D01*
X039121Y005048D02*
X039121Y005158D01*
X039268Y005158D01*
X039047Y005121D02*
X039047Y005085D01*
X039010Y005048D01*
X039047Y005011D01*
X039047Y004975D01*
X039010Y004938D01*
X038937Y004938D01*
X038900Y004975D01*
X038826Y004938D02*
X038753Y005011D01*
X038789Y005011D02*
X038679Y005011D01*
X038679Y004938D02*
X038679Y005158D01*
X038789Y005158D01*
X038826Y005121D01*
X038826Y005048D01*
X038789Y005011D01*
X038900Y005121D02*
X038937Y005158D01*
X039010Y005158D01*
X039047Y005121D01*
X039010Y005048D02*
X038974Y005048D01*
X040129Y005575D02*
X040166Y005538D01*
X040239Y005538D01*
X040276Y005575D01*
X040350Y005538D02*
X040497Y005685D01*
X040497Y005721D01*
X040460Y005758D01*
X040387Y005758D01*
X040350Y005721D01*
X040276Y005721D02*
X040239Y005758D01*
X040166Y005758D01*
X040129Y005721D01*
X040129Y005575D01*
X040350Y005538D02*
X040497Y005538D01*
X040571Y005575D02*
X040608Y005538D01*
X040681Y005538D01*
X040718Y005575D01*
X040718Y005721D01*
X040681Y005758D01*
X040608Y005758D01*
X040571Y005721D01*
X040571Y005685D01*
X040608Y005648D01*
X040718Y005648D01*
X041079Y005721D02*
X041079Y005575D01*
X041116Y005538D01*
X041189Y005538D01*
X041226Y005575D01*
X041300Y005538D02*
X041447Y005538D01*
X041374Y005538D02*
X041374Y005758D01*
X041300Y005685D01*
X041226Y005721D02*
X041189Y005758D01*
X041116Y005758D01*
X041079Y005721D01*
X041029Y005888D02*
X041029Y006108D01*
X041139Y006108D01*
X041176Y006071D01*
X041176Y005998D01*
X041139Y005961D01*
X041029Y005961D01*
X041103Y005961D02*
X041176Y005888D01*
X041250Y005888D02*
X041397Y005888D01*
X041324Y005888D02*
X041324Y006108D01*
X041250Y006035D01*
X041471Y006035D02*
X041471Y006071D01*
X041508Y006108D01*
X041581Y006108D01*
X041618Y006071D01*
X041618Y006035D01*
X041581Y005998D01*
X041508Y005998D01*
X041471Y006035D01*
X041508Y005998D02*
X041471Y005961D01*
X041471Y005925D01*
X041508Y005888D01*
X041581Y005888D01*
X041618Y005925D01*
X041618Y005961D01*
X041581Y005998D01*
X041558Y005758D02*
X041631Y005758D01*
X041668Y005721D01*
X041521Y005575D01*
X041558Y005538D01*
X041631Y005538D01*
X041668Y005575D01*
X041668Y005721D01*
X041558Y005758D02*
X041521Y005721D01*
X041521Y005575D01*
X042129Y006238D02*
X042129Y006458D01*
X042239Y006458D01*
X042276Y006421D01*
X042276Y006348D01*
X042239Y006311D01*
X042129Y006311D01*
X042203Y006311D02*
X042276Y006238D01*
X042350Y006238D02*
X042497Y006385D01*
X042497Y006421D01*
X042460Y006458D01*
X042387Y006458D01*
X042350Y006421D01*
X042350Y006238D02*
X042497Y006238D01*
X042571Y006275D02*
X042571Y006311D01*
X042608Y006348D01*
X042681Y006348D01*
X042718Y006311D01*
X042718Y006275D01*
X042681Y006238D01*
X042608Y006238D01*
X042571Y006275D01*
X042608Y006348D02*
X042571Y006385D01*
X042571Y006421D01*
X042608Y006458D01*
X042681Y006458D01*
X042718Y006421D01*
X042718Y006385D01*
X042681Y006348D01*
X040118Y006371D02*
X039971Y006225D01*
X039971Y006188D01*
X039897Y006225D02*
X039860Y006188D01*
X039787Y006188D01*
X039750Y006225D01*
X039676Y006188D02*
X039603Y006261D01*
X039639Y006261D02*
X039529Y006261D01*
X039529Y006188D02*
X039529Y006408D01*
X039639Y006408D01*
X039676Y006371D01*
X039676Y006298D01*
X039639Y006261D01*
X039750Y006371D02*
X039787Y006408D01*
X039860Y006408D01*
X039897Y006371D01*
X039897Y006335D01*
X039860Y006298D01*
X039897Y006261D01*
X039897Y006225D01*
X039860Y006298D02*
X039824Y006298D01*
X039971Y006408D02*
X040118Y006408D01*
X040118Y006371D01*
X038368Y006525D02*
X038368Y006561D01*
X038331Y006598D01*
X038221Y006598D01*
X038221Y006525D01*
X038258Y006488D01*
X038331Y006488D01*
X038368Y006525D01*
X038295Y006671D02*
X038368Y006708D01*
X038295Y006671D02*
X038221Y006598D01*
X038147Y006635D02*
X038147Y006671D01*
X038110Y006708D01*
X038037Y006708D01*
X038000Y006671D01*
X037926Y006671D02*
X037926Y006598D01*
X037889Y006561D01*
X037779Y006561D01*
X037779Y006488D02*
X037779Y006708D01*
X037889Y006708D01*
X037926Y006671D01*
X037853Y006561D02*
X037926Y006488D01*
X038000Y006488D02*
X038147Y006635D01*
X038147Y006488D02*
X038000Y006488D01*
X038029Y007788D02*
X038029Y008008D01*
X038139Y008008D01*
X038176Y007971D01*
X038176Y007898D01*
X038139Y007861D01*
X038029Y007861D01*
X038103Y007861D02*
X038176Y007788D01*
X038250Y007788D02*
X038397Y007788D01*
X038324Y007788D02*
X038324Y008008D01*
X038250Y007935D01*
X038471Y008008D02*
X038618Y008008D01*
X038618Y007971D01*
X038471Y007825D01*
X038471Y007788D01*
X038779Y007788D02*
X038779Y008008D01*
X038889Y008008D01*
X038926Y007971D01*
X038926Y007898D01*
X038889Y007861D01*
X038779Y007861D01*
X038853Y007861D02*
X038926Y007788D01*
X039000Y007788D02*
X039147Y007788D01*
X039074Y007788D02*
X039074Y008008D01*
X039000Y007935D01*
X039221Y007935D02*
X039258Y007898D01*
X039368Y007898D01*
X039368Y007825D02*
X039368Y007971D01*
X039331Y008008D01*
X039258Y008008D01*
X039221Y007971D01*
X039221Y007935D01*
X039221Y007825D02*
X039258Y007788D01*
X039331Y007788D01*
X039368Y007825D01*
X039529Y008038D02*
X039529Y008258D01*
X039639Y008258D01*
X039676Y008221D01*
X039676Y008148D01*
X039639Y008111D01*
X039529Y008111D01*
X039603Y008111D02*
X039676Y008038D01*
X039750Y008075D02*
X039787Y008038D01*
X039860Y008038D01*
X039897Y008075D01*
X039897Y008111D01*
X039860Y008148D01*
X039824Y008148D01*
X039860Y008148D02*
X039897Y008185D01*
X039897Y008221D01*
X039860Y008258D01*
X039787Y008258D01*
X039750Y008221D01*
X039971Y008148D02*
X040118Y008148D01*
X040081Y008038D02*
X040081Y008258D01*
X039971Y008148D01*
X038468Y008738D02*
X038321Y008738D01*
X038395Y008738D02*
X038395Y008958D01*
X038321Y008885D01*
X038174Y008958D02*
X038174Y008738D01*
X038247Y008738D02*
X038100Y008738D01*
X038026Y008775D02*
X037989Y008738D01*
X037916Y008738D01*
X037879Y008775D01*
X037879Y008921D01*
X037916Y008958D01*
X037989Y008958D01*
X038026Y008921D01*
X038100Y008885D02*
X038174Y008958D01*
X038779Y009438D02*
X038779Y009658D01*
X038889Y009658D01*
X038926Y009621D01*
X038926Y009548D01*
X038889Y009511D01*
X038779Y009511D01*
X038853Y009511D02*
X038926Y009438D01*
X039000Y009475D02*
X039037Y009438D01*
X039110Y009438D01*
X039147Y009475D01*
X039147Y009511D01*
X039110Y009548D01*
X039074Y009548D01*
X039110Y009548D02*
X039147Y009585D01*
X039147Y009621D01*
X039110Y009658D01*
X039037Y009658D01*
X039000Y009621D01*
X039221Y009621D02*
X039258Y009658D01*
X039331Y009658D01*
X039368Y009621D01*
X039368Y009585D01*
X039221Y009438D01*
X039368Y009438D01*
X039529Y009475D02*
X039529Y009621D01*
X039566Y009658D01*
X039639Y009658D01*
X039676Y009621D01*
X039750Y009621D02*
X039787Y009658D01*
X039860Y009658D01*
X039897Y009621D01*
X039897Y009585D01*
X039750Y009438D01*
X039897Y009438D01*
X039971Y009438D02*
X039971Y009475D01*
X040118Y009621D01*
X040118Y009658D01*
X039971Y009658D01*
X039950Y009868D02*
X040097Y009868D01*
X040024Y009868D02*
X040024Y010088D01*
X039950Y010015D01*
X039876Y010051D02*
X039839Y010088D01*
X039729Y010088D01*
X039729Y009868D01*
X039729Y009941D02*
X039839Y009941D01*
X039876Y009978D01*
X039876Y010051D01*
X039803Y009941D02*
X039876Y009868D01*
X040171Y009868D02*
X040318Y010015D01*
X040318Y010051D01*
X040281Y010088D01*
X040208Y010088D01*
X040171Y010051D01*
X040171Y009868D02*
X040318Y009868D01*
X039676Y009475D02*
X039639Y009438D01*
X039566Y009438D01*
X039529Y009475D01*
X045379Y009538D02*
X045379Y009758D01*
X045489Y009758D01*
X045526Y009721D01*
X045526Y009648D01*
X045489Y009611D01*
X045379Y009611D01*
X045453Y009611D02*
X045526Y009538D01*
X045600Y009575D02*
X045637Y009538D01*
X045710Y009538D01*
X045747Y009575D01*
X045747Y009611D01*
X045710Y009648D01*
X045674Y009648D01*
X045710Y009648D02*
X045747Y009685D01*
X045747Y009721D01*
X045710Y009758D01*
X045637Y009758D01*
X045600Y009721D01*
X045821Y009721D02*
X045821Y009685D01*
X045858Y009648D01*
X045931Y009648D01*
X045968Y009611D01*
X045968Y009575D01*
X045931Y009538D01*
X045858Y009538D01*
X045821Y009575D01*
X045821Y009611D01*
X045858Y009648D01*
X045931Y009648D02*
X045968Y009685D01*
X045968Y009721D01*
X045931Y009758D01*
X045858Y009758D01*
X045821Y009721D01*
X045979Y009058D02*
X046089Y009058D01*
X046126Y009021D01*
X046126Y008948D01*
X046089Y008911D01*
X045979Y008911D01*
X045979Y008838D02*
X045979Y009058D01*
X046053Y008911D02*
X046126Y008838D01*
X046200Y008838D02*
X046347Y008838D01*
X046274Y008838D02*
X046274Y009058D01*
X046200Y008985D01*
X046421Y009021D02*
X046458Y009058D01*
X046531Y009058D01*
X046568Y009021D01*
X046568Y008985D01*
X046531Y008948D01*
X046568Y008911D01*
X046568Y008875D01*
X046531Y008838D01*
X046458Y008838D01*
X046421Y008875D01*
X046495Y008948D02*
X046531Y008948D01*
X046879Y008258D02*
X046989Y008258D01*
X047026Y008221D01*
X047026Y008148D01*
X046989Y008111D01*
X046879Y008111D01*
X046879Y008038D02*
X046879Y008258D01*
X046953Y008111D02*
X047026Y008038D01*
X047100Y008038D02*
X047247Y008038D01*
X047174Y008038D02*
X047174Y008258D01*
X047100Y008185D01*
X047321Y008148D02*
X047395Y008185D01*
X047431Y008185D01*
X047468Y008148D01*
X047468Y008075D01*
X047431Y008038D01*
X047358Y008038D01*
X047321Y008075D01*
X047321Y008148D02*
X047321Y008258D01*
X047468Y008258D01*
X047307Y009894D02*
X047161Y009894D01*
X047234Y009894D02*
X047234Y010114D01*
X047161Y010041D01*
X047086Y010078D02*
X047050Y010114D01*
X046940Y010114D01*
X046940Y009894D01*
X047050Y009894D01*
X047086Y009931D01*
X047086Y010078D01*
X046797Y009948D02*
X046650Y009948D01*
X046724Y010021D02*
X046724Y009875D01*
X045657Y006458D02*
X045657Y006421D01*
X045511Y006275D01*
X045511Y006238D01*
X045436Y006275D02*
X045400Y006238D01*
X045326Y006238D01*
X045290Y006275D01*
X045290Y006421D01*
X045326Y006458D01*
X045400Y006458D01*
X045436Y006421D01*
X045511Y006458D02*
X045657Y006458D01*
X043381Y003008D02*
X043271Y002898D01*
X043418Y002898D01*
X043381Y002788D02*
X043381Y003008D01*
X043197Y002971D02*
X043160Y003008D01*
X043087Y003008D01*
X043050Y002971D01*
X042976Y002971D02*
X042939Y003008D01*
X042866Y003008D01*
X042829Y002971D01*
X042829Y002825D01*
X042866Y002788D01*
X042939Y002788D01*
X042976Y002825D01*
X043050Y002788D02*
X043197Y002935D01*
X043197Y002971D01*
X043197Y002788D02*
X043050Y002788D01*
X035318Y006075D02*
X035281Y006038D01*
X035208Y006038D01*
X035171Y006075D01*
X035171Y006148D02*
X035245Y006185D01*
X035281Y006185D01*
X035318Y006148D01*
X035318Y006075D01*
X035171Y006148D02*
X035171Y006258D01*
X035318Y006258D01*
X035097Y006221D02*
X035097Y006185D01*
X034950Y006038D01*
X035097Y006038D01*
X035097Y006221D02*
X035060Y006258D01*
X034987Y006258D01*
X034950Y006221D01*
X034876Y006221D02*
X034839Y006258D01*
X034766Y006258D01*
X034729Y006221D01*
X034729Y006075D01*
X034766Y006038D01*
X034839Y006038D01*
X034876Y006075D01*
X035516Y013938D02*
X035589Y013938D01*
X035626Y013975D01*
X035700Y013975D02*
X035737Y013938D01*
X035810Y013938D01*
X035847Y013975D01*
X035847Y014121D01*
X035810Y014158D01*
X035737Y014158D01*
X035700Y014121D01*
X035700Y014085D01*
X035737Y014048D01*
X035847Y014048D01*
X035921Y014048D02*
X036068Y014048D01*
X036031Y013938D02*
X036031Y014158D01*
X035921Y014048D01*
X035626Y014121D02*
X035589Y014158D01*
X035516Y014158D01*
X035479Y014121D01*
X035479Y013975D01*
X035516Y013938D01*
X034268Y014038D02*
X034121Y014038D01*
X034195Y014038D02*
X034195Y014258D01*
X034121Y014185D01*
X034047Y014148D02*
X033900Y014148D01*
X034010Y014258D01*
X034010Y014038D01*
X033826Y014075D02*
X033789Y014038D01*
X033716Y014038D01*
X033679Y014075D01*
X033679Y014221D01*
X033716Y014258D01*
X033789Y014258D01*
X033826Y014221D01*
X042319Y018575D02*
X042355Y018538D01*
X042429Y018538D01*
X042465Y018575D01*
X042540Y018538D02*
X042686Y018538D01*
X042613Y018538D02*
X042613Y018758D01*
X042540Y018685D01*
X042465Y018721D02*
X042429Y018758D01*
X042355Y018758D01*
X042319Y018721D01*
X042319Y018575D01*
X042761Y018575D02*
X042907Y018721D01*
X042907Y018575D01*
X042871Y018538D01*
X042797Y018538D01*
X042761Y018575D01*
X042761Y018721D01*
X042797Y018758D01*
X042871Y018758D01*
X042907Y018721D01*
X042982Y018758D02*
X042982Y018648D01*
X043055Y018685D01*
X043092Y018685D01*
X043128Y018648D01*
X043128Y018575D01*
X043092Y018538D01*
X043018Y018538D01*
X042982Y018575D01*
X042982Y018758D02*
X043128Y018758D01*
X043121Y018938D02*
X043047Y018938D01*
X043011Y018975D01*
X043157Y019121D01*
X043157Y018975D01*
X043121Y018938D01*
X043232Y018938D02*
X043378Y018938D01*
X043305Y018938D02*
X043305Y019158D01*
X043232Y019085D01*
X043157Y019121D02*
X043121Y019158D01*
X043047Y019158D01*
X043011Y019121D01*
X043011Y018975D01*
X042936Y018938D02*
X042790Y018938D01*
X042863Y018938D02*
X042863Y019158D01*
X042790Y019085D01*
X042715Y019121D02*
X042679Y019158D01*
X042605Y019158D01*
X042569Y019121D01*
X042569Y018975D01*
X042605Y018938D01*
X042679Y018938D01*
X042715Y018975D01*
X043255Y018458D02*
X043219Y018421D01*
X043219Y018275D01*
X043255Y018238D01*
X043329Y018238D01*
X043365Y018275D01*
X043440Y018238D02*
X043586Y018238D01*
X043513Y018238D02*
X043513Y018458D01*
X043440Y018385D01*
X043365Y018421D02*
X043329Y018458D01*
X043255Y018458D01*
X043661Y018421D02*
X043661Y018275D01*
X043807Y018421D01*
X043807Y018275D01*
X043771Y018238D01*
X043697Y018238D01*
X043661Y018275D01*
X043661Y018421D02*
X043697Y018458D01*
X043771Y018458D01*
X043807Y018421D01*
X043882Y018421D02*
X043918Y018458D01*
X043992Y018458D01*
X044028Y018421D01*
X044028Y018385D01*
X043992Y018348D01*
X044028Y018311D01*
X044028Y018275D01*
X043992Y018238D01*
X043918Y018238D01*
X043882Y018275D01*
X043955Y018348D02*
X043992Y018348D01*
X044479Y019788D02*
X044479Y020008D01*
X044589Y020008D01*
X044626Y019971D01*
X044626Y019898D01*
X044589Y019861D01*
X044479Y019861D01*
X044553Y019861D02*
X044626Y019788D01*
X044700Y019825D02*
X044737Y019788D01*
X044810Y019788D01*
X044847Y019825D01*
X044847Y019861D01*
X044810Y019898D01*
X044700Y019898D01*
X044700Y019825D01*
X044700Y019898D02*
X044774Y019971D01*
X044847Y020008D01*
X044792Y020088D02*
X044718Y020088D01*
X044682Y020125D01*
X044828Y020271D01*
X044828Y020125D01*
X044792Y020088D01*
X044682Y020125D02*
X044682Y020271D01*
X044718Y020308D01*
X044792Y020308D01*
X044828Y020271D01*
X044607Y020271D02*
X044461Y020125D01*
X044497Y020088D01*
X044571Y020088D01*
X044607Y020125D01*
X044607Y020271D01*
X044571Y020308D01*
X044497Y020308D01*
X044461Y020271D01*
X044461Y020125D01*
X044386Y020088D02*
X044240Y020088D01*
X044313Y020088D02*
X044313Y020308D01*
X044240Y020235D01*
X044165Y020271D02*
X044129Y020308D01*
X044055Y020308D01*
X044019Y020271D01*
X044019Y020125D01*
X044055Y020088D01*
X044129Y020088D01*
X044165Y020125D01*
X044921Y019935D02*
X044995Y020008D01*
X044995Y019788D01*
X045068Y019788D02*
X044921Y019788D01*
X045229Y019788D02*
X045229Y020008D01*
X045339Y020008D01*
X045376Y019971D01*
X045376Y019898D01*
X045339Y019861D01*
X045229Y019861D01*
X045303Y019861D02*
X045376Y019788D01*
X045450Y019825D02*
X045487Y019788D01*
X045560Y019788D01*
X045597Y019825D01*
X045597Y019861D01*
X045560Y019898D01*
X045450Y019898D01*
X045450Y019825D01*
X045450Y019898D02*
X045524Y019971D01*
X045597Y020008D01*
X045671Y019971D02*
X045708Y020008D01*
X045781Y020008D01*
X045818Y019971D01*
X045671Y019825D01*
X045708Y019788D01*
X045781Y019788D01*
X045818Y019825D01*
X045818Y019971D01*
X045760Y020088D02*
X045797Y020125D01*
X045797Y020271D01*
X045760Y020308D01*
X045687Y020308D01*
X045650Y020271D01*
X045650Y020235D01*
X045687Y020198D01*
X045797Y020198D01*
X045871Y020235D02*
X045908Y020198D01*
X046018Y020198D01*
X046018Y020125D02*
X046018Y020271D01*
X045981Y020308D01*
X045908Y020308D01*
X045871Y020271D01*
X045871Y020235D01*
X045871Y020125D02*
X045908Y020088D01*
X045981Y020088D01*
X046018Y020125D01*
X046224Y020275D02*
X046224Y020421D01*
X046150Y020348D02*
X046297Y020348D01*
X046640Y020532D02*
X046750Y020532D01*
X046786Y020568D01*
X046786Y020715D01*
X046750Y020752D01*
X046640Y020752D01*
X046640Y020532D01*
X046861Y020568D02*
X046897Y020532D01*
X046971Y020532D01*
X047007Y020568D01*
X047007Y020605D01*
X046971Y020642D01*
X046934Y020642D01*
X046971Y020642D02*
X047007Y020678D01*
X047007Y020715D01*
X046971Y020752D01*
X046897Y020752D01*
X046861Y020715D01*
X046861Y021132D02*
X047007Y021278D01*
X047007Y021315D01*
X046971Y021352D01*
X046897Y021352D01*
X046861Y021315D01*
X046786Y021315D02*
X046750Y021352D01*
X046640Y021352D01*
X046640Y021132D01*
X046750Y021132D01*
X046786Y021168D01*
X046786Y021315D01*
X046861Y021132D02*
X047007Y021132D01*
X046297Y020948D02*
X046150Y020948D01*
X046224Y021021D02*
X046224Y020875D01*
X045576Y020271D02*
X045539Y020308D01*
X045466Y020308D01*
X045429Y020271D01*
X045429Y020125D01*
X045466Y020088D01*
X045539Y020088D01*
X045576Y020125D01*
X045650Y020125D02*
X045687Y020088D01*
X045760Y020088D01*
X045671Y019971D02*
X045671Y019825D01*
X043766Y020993D02*
X043727Y020993D01*
X043574Y021146D01*
X043535Y021146D01*
X043535Y020993D01*
X041968Y020108D02*
X041895Y020071D01*
X041821Y019998D01*
X041931Y019998D01*
X041968Y019961D01*
X041968Y019925D01*
X041931Y019888D01*
X041858Y019888D01*
X041821Y019925D01*
X041821Y019998D01*
X041747Y019961D02*
X041710Y019998D01*
X041600Y019998D01*
X041600Y019925D01*
X041637Y019888D01*
X041710Y019888D01*
X041747Y019925D01*
X041747Y019961D01*
X041674Y020071D02*
X041600Y019998D01*
X041526Y019998D02*
X041489Y019961D01*
X041379Y019961D01*
X041379Y019888D02*
X041379Y020108D01*
X041489Y020108D01*
X041526Y020071D01*
X041526Y019998D01*
X041453Y019961D02*
X041526Y019888D01*
X041674Y020071D02*
X041747Y020108D01*
X039918Y019698D02*
X039771Y019698D01*
X039881Y019808D01*
X039881Y019588D01*
X039697Y019625D02*
X039697Y019661D01*
X039660Y019698D01*
X039550Y019698D01*
X039550Y019625D01*
X039587Y019588D01*
X039660Y019588D01*
X039697Y019625D01*
X039624Y019771D02*
X039550Y019698D01*
X039476Y019698D02*
X039439Y019661D01*
X039329Y019661D01*
X039329Y019588D02*
X039329Y019808D01*
X039439Y019808D01*
X039476Y019771D01*
X039476Y019698D01*
X039403Y019661D02*
X039476Y019588D01*
X039624Y019771D02*
X039697Y019808D01*
X039660Y020988D02*
X039697Y021025D01*
X039697Y021061D01*
X039660Y021098D01*
X039550Y021098D01*
X039550Y021025D01*
X039587Y020988D01*
X039660Y020988D01*
X039771Y021025D02*
X039808Y020988D01*
X039881Y020988D01*
X039918Y021025D01*
X039918Y021098D01*
X039881Y021135D01*
X039845Y021135D01*
X039771Y021098D01*
X039771Y021208D01*
X039918Y021208D01*
X039697Y021208D02*
X039624Y021171D01*
X039550Y021098D01*
X039476Y021098D02*
X039439Y021061D01*
X039329Y021061D01*
X039329Y020988D02*
X039329Y021208D01*
X039439Y021208D01*
X039476Y021171D01*
X039476Y021098D01*
X039403Y021061D02*
X039476Y020988D01*
X040535Y021070D02*
X040766Y021070D01*
X040766Y021146D02*
X040766Y020993D01*
X040612Y020993D02*
X040535Y021070D01*
X039771Y022088D02*
X039771Y022125D01*
X039918Y022271D01*
X039918Y022308D01*
X039771Y022308D01*
X039697Y022308D02*
X039624Y022271D01*
X039550Y022198D01*
X039660Y022198D01*
X039697Y022161D01*
X039697Y022125D01*
X039660Y022088D01*
X039587Y022088D01*
X039550Y022125D01*
X039550Y022198D01*
X039476Y022198D02*
X039439Y022161D01*
X039329Y022161D01*
X039329Y022088D02*
X039329Y022308D01*
X039439Y022308D01*
X039476Y022271D01*
X039476Y022198D01*
X039403Y022161D02*
X039476Y022088D01*
X040574Y024543D02*
X040535Y024581D01*
X040535Y024658D01*
X040574Y024696D01*
X040612Y024696D01*
X040766Y024543D01*
X040766Y024696D01*
X043535Y024658D02*
X043574Y024696D01*
X043612Y024696D01*
X043651Y024658D01*
X043651Y024581D01*
X043612Y024543D01*
X043574Y024543D01*
X043535Y024581D01*
X043535Y024658D01*
X043651Y024658D02*
X043689Y024696D01*
X043727Y024696D01*
X043766Y024658D01*
X043766Y024581D01*
X043727Y024543D01*
X043689Y024543D01*
X043651Y024581D01*
X046640Y021952D02*
X046750Y021952D01*
X046786Y021915D01*
X046786Y021768D01*
X046750Y021732D01*
X046640Y021732D01*
X046640Y021952D01*
X046861Y021842D02*
X047007Y021842D01*
X046971Y021952D02*
X046861Y021842D01*
X046971Y021732D02*
X046971Y021952D01*
X046297Y021548D02*
X046150Y021548D01*
X046224Y021621D02*
X046224Y021475D01*
X047416Y017158D02*
X047379Y017121D01*
X047379Y016975D01*
X047416Y016938D01*
X047489Y016938D01*
X047526Y016975D01*
X047600Y016975D02*
X047637Y016938D01*
X047710Y016938D01*
X047747Y016975D01*
X047747Y017121D01*
X047710Y017158D01*
X047637Y017158D01*
X047600Y017121D01*
X047600Y017085D01*
X047637Y017048D01*
X047747Y017048D01*
X047821Y017011D02*
X047858Y017048D01*
X047931Y017048D01*
X047968Y017011D01*
X047968Y016975D01*
X047931Y016938D01*
X047858Y016938D01*
X047821Y016975D01*
X047821Y017011D01*
X047858Y017048D02*
X047821Y017085D01*
X047821Y017121D01*
X047858Y017158D01*
X047931Y017158D01*
X047968Y017121D01*
X047968Y017085D01*
X047931Y017048D01*
X047908Y016658D02*
X047981Y016658D01*
X048018Y016621D01*
X048018Y016585D01*
X047981Y016548D01*
X048018Y016511D01*
X048018Y016475D01*
X047981Y016438D01*
X047908Y016438D01*
X047871Y016475D01*
X047797Y016438D02*
X047650Y016438D01*
X047724Y016438D02*
X047724Y016658D01*
X047650Y016585D01*
X047576Y016438D02*
X047429Y016438D01*
X047429Y016658D01*
X047871Y016621D02*
X047908Y016658D01*
X047945Y016548D02*
X047981Y016548D01*
X047526Y017121D02*
X047489Y017158D01*
X047416Y017158D01*
X034078Y019988D02*
X033932Y019988D01*
X034078Y020135D01*
X034078Y020171D01*
X034042Y020208D01*
X033968Y020208D01*
X033932Y020171D01*
X033857Y020171D02*
X033711Y020025D01*
X033747Y019988D01*
X033821Y019988D01*
X033857Y020025D01*
X033857Y020171D01*
X033821Y020208D01*
X033747Y020208D01*
X033711Y020171D01*
X033711Y020025D01*
X033636Y019988D02*
X033490Y019988D01*
X033563Y019988D02*
X033563Y020208D01*
X033490Y020135D01*
X033415Y020171D02*
X033379Y020208D01*
X033305Y020208D01*
X033269Y020171D01*
X033269Y020025D01*
X033305Y019988D01*
X033379Y019988D01*
X033415Y020025D01*
X029468Y019808D02*
X029395Y019771D01*
X029321Y019698D01*
X029431Y019698D01*
X029468Y019661D01*
X029468Y019625D01*
X029431Y019588D01*
X029358Y019588D01*
X029321Y019625D01*
X029321Y019698D01*
X029247Y019698D02*
X029100Y019698D01*
X029210Y019808D01*
X029210Y019588D01*
X029026Y019625D02*
X028989Y019588D01*
X028916Y019588D01*
X028879Y019625D01*
X028879Y019771D01*
X028916Y019808D01*
X028989Y019808D01*
X029026Y019771D01*
X011118Y016998D02*
X010971Y016998D01*
X011081Y017108D01*
X011081Y016888D01*
X010897Y016998D02*
X010750Y016998D01*
X010860Y017108D01*
X010860Y016888D01*
X010676Y016925D02*
X010639Y016888D01*
X010566Y016888D01*
X010529Y016925D01*
X010529Y017071D01*
X010566Y017108D01*
X010639Y017108D01*
X010676Y017071D01*
X010168Y015958D02*
X010168Y015921D01*
X010021Y015775D01*
X010021Y015738D01*
X009910Y015738D02*
X009910Y015958D01*
X009800Y015848D01*
X009947Y015848D01*
X010021Y015958D02*
X010168Y015958D01*
X009726Y015921D02*
X009689Y015958D01*
X009616Y015958D01*
X009579Y015921D01*
X009579Y015775D01*
X009616Y015738D01*
X009689Y015738D01*
X009726Y015775D01*
X009595Y015608D02*
X009595Y015388D01*
X009668Y015388D02*
X009521Y015388D01*
X009447Y015425D02*
X009410Y015388D01*
X009337Y015388D01*
X009300Y015425D01*
X009300Y015461D01*
X009337Y015498D01*
X009410Y015498D01*
X009447Y015461D01*
X009447Y015425D01*
X009410Y015498D02*
X009447Y015535D01*
X009447Y015571D01*
X009410Y015608D01*
X009337Y015608D01*
X009300Y015571D01*
X009300Y015535D01*
X009337Y015498D01*
X009226Y015425D02*
X009189Y015388D01*
X009116Y015388D01*
X009079Y015425D01*
X009079Y015571D01*
X009116Y015608D01*
X009189Y015608D01*
X009226Y015571D01*
X009521Y015535D02*
X009595Y015608D01*
X009631Y013908D02*
X009558Y013908D01*
X009521Y013871D01*
X009447Y013871D02*
X009447Y013835D01*
X009410Y013798D01*
X009337Y013798D01*
X009300Y013835D01*
X009300Y013871D01*
X009337Y013908D01*
X009410Y013908D01*
X009447Y013871D01*
X009410Y013798D02*
X009447Y013761D01*
X009447Y013725D01*
X009410Y013688D01*
X009337Y013688D01*
X009300Y013725D01*
X009300Y013761D01*
X009337Y013798D01*
X009226Y013725D02*
X009189Y013688D01*
X009116Y013688D01*
X009079Y013725D01*
X009079Y013871D01*
X009116Y013908D01*
X009189Y013908D01*
X009226Y013871D01*
X009521Y013688D02*
X009668Y013835D01*
X009668Y013871D01*
X009631Y013908D01*
X009668Y013688D02*
X009521Y013688D01*
X010029Y013721D02*
X010029Y013575D01*
X010066Y013538D01*
X010139Y013538D01*
X010176Y013575D01*
X010250Y013575D02*
X010397Y013721D01*
X010397Y013758D01*
X010250Y013758D01*
X010176Y013721D02*
X010139Y013758D01*
X010066Y013758D01*
X010029Y013721D01*
X010250Y013575D02*
X010250Y013538D01*
X010471Y013575D02*
X010471Y013611D01*
X010508Y013648D01*
X010581Y013648D01*
X010618Y013611D01*
X010618Y013575D01*
X010581Y013538D01*
X010508Y013538D01*
X010471Y013575D01*
X010508Y013648D02*
X010471Y013685D01*
X010471Y013721D01*
X010508Y013758D01*
X010581Y013758D01*
X010618Y013721D01*
X010618Y013685D01*
X010581Y013648D01*
X010581Y012958D02*
X010508Y012958D01*
X010471Y012921D01*
X010471Y012885D01*
X010508Y012848D01*
X010618Y012848D01*
X010618Y012775D02*
X010618Y012921D01*
X010581Y012958D01*
X010397Y012958D02*
X010397Y012921D01*
X010250Y012775D01*
X010250Y012738D01*
X010176Y012775D02*
X010139Y012738D01*
X010066Y012738D01*
X010029Y012775D01*
X010029Y012921D01*
X010066Y012958D01*
X010139Y012958D01*
X010176Y012921D01*
X010250Y012958D02*
X010397Y012958D01*
X010471Y012775D02*
X010508Y012738D01*
X010581Y012738D01*
X010618Y012775D01*
X010618Y012658D02*
X010618Y012621D01*
X010471Y012475D01*
X010471Y012438D01*
X010397Y012475D02*
X010397Y012511D01*
X010360Y012548D01*
X010250Y012548D01*
X010250Y012475D01*
X010287Y012438D01*
X010360Y012438D01*
X010397Y012475D01*
X010324Y012621D02*
X010250Y012548D01*
X010324Y012621D02*
X010397Y012658D01*
X010471Y012658D02*
X010618Y012658D01*
X010176Y012621D02*
X010139Y012658D01*
X010066Y012658D01*
X010029Y012621D01*
X010029Y012475D01*
X010066Y012438D01*
X010139Y012438D01*
X010176Y012475D01*
X008018Y013325D02*
X008018Y013471D01*
X007981Y013508D01*
X007908Y013508D01*
X007871Y013471D01*
X007871Y013435D01*
X007908Y013398D01*
X008018Y013398D01*
X008018Y013325D02*
X007981Y013288D01*
X007908Y013288D01*
X007871Y013325D01*
X007797Y013325D02*
X007760Y013288D01*
X007687Y013288D01*
X007650Y013325D01*
X007576Y013288D02*
X007503Y013361D01*
X007539Y013361D02*
X007429Y013361D01*
X007429Y013288D02*
X007429Y013508D01*
X007539Y013508D01*
X007576Y013471D01*
X007576Y013398D01*
X007539Y013361D01*
X007650Y013471D02*
X007687Y013508D01*
X007760Y013508D01*
X007797Y013471D01*
X007797Y013435D01*
X007760Y013398D01*
X007797Y013361D01*
X007797Y013325D01*
X007760Y013398D02*
X007724Y013398D01*
X007118Y013058D02*
X007045Y013021D01*
X006971Y012948D01*
X007081Y012948D01*
X007118Y012911D01*
X007118Y012875D01*
X007081Y012838D01*
X007008Y012838D01*
X006971Y012875D01*
X006971Y012948D01*
X006897Y012911D02*
X006860Y012948D01*
X006787Y012948D01*
X006750Y012985D01*
X006750Y013021D01*
X006787Y013058D01*
X006860Y013058D01*
X006897Y013021D01*
X006897Y012985D01*
X006860Y012948D01*
X006897Y012911D02*
X006897Y012875D01*
X006860Y012838D01*
X006787Y012838D01*
X006750Y012875D01*
X006750Y012911D01*
X006787Y012948D01*
X006676Y012875D02*
X006639Y012838D01*
X006566Y012838D01*
X006529Y012875D01*
X006529Y013021D01*
X006566Y013058D01*
X006639Y013058D01*
X006676Y013021D01*
X006639Y012658D02*
X006566Y012658D01*
X006529Y012621D01*
X006529Y012475D01*
X006566Y012438D01*
X006639Y012438D01*
X006676Y012475D01*
X006750Y012475D02*
X006750Y012511D01*
X006787Y012548D01*
X006860Y012548D01*
X006897Y012511D01*
X006897Y012475D01*
X006860Y012438D01*
X006787Y012438D01*
X006750Y012475D01*
X006787Y012548D02*
X006750Y012585D01*
X006750Y012621D01*
X006787Y012658D01*
X006860Y012658D01*
X006897Y012621D01*
X006897Y012585D01*
X006860Y012548D01*
X006971Y012548D02*
X007045Y012585D01*
X007081Y012585D01*
X007118Y012548D01*
X007118Y012475D01*
X007081Y012438D01*
X007008Y012438D01*
X006971Y012475D01*
X006971Y012548D02*
X006971Y012658D01*
X007118Y012658D01*
X006676Y012621D02*
X006639Y012658D01*
X010379Y011121D02*
X010379Y010975D01*
X010416Y010938D01*
X010489Y010938D01*
X010526Y010975D01*
X010600Y010975D02*
X010600Y010938D01*
X010600Y010975D02*
X010747Y011121D01*
X010747Y011158D01*
X010600Y011158D01*
X010526Y011121D02*
X010489Y011158D01*
X010416Y011158D01*
X010379Y011121D01*
X010821Y011121D02*
X010821Y010975D01*
X010968Y011121D01*
X010968Y010975D01*
X010931Y010938D01*
X010858Y010938D01*
X010821Y010975D01*
X010821Y011121D02*
X010858Y011158D01*
X010931Y011158D01*
X010968Y011121D01*
X010507Y010058D02*
X010507Y010021D01*
X010361Y009875D01*
X010361Y009838D01*
X010286Y009838D02*
X010213Y009911D01*
X010250Y009911D02*
X010140Y009911D01*
X010140Y009838D02*
X010140Y010058D01*
X010250Y010058D01*
X010286Y010021D01*
X010286Y009948D01*
X010250Y009911D01*
X010361Y010058D02*
X010507Y010058D01*
X011779Y009271D02*
X011779Y009125D01*
X011816Y009088D01*
X011889Y009088D01*
X011926Y009125D01*
X012000Y009125D02*
X012000Y009088D01*
X012000Y009125D02*
X012147Y009271D01*
X012147Y009308D01*
X012000Y009308D01*
X011926Y009271D02*
X011889Y009308D01*
X011816Y009308D01*
X011779Y009271D01*
X012221Y009271D02*
X012258Y009308D01*
X012331Y009308D01*
X012368Y009271D01*
X012368Y009235D01*
X012331Y009198D01*
X012368Y009161D01*
X012368Y009125D01*
X012331Y009088D01*
X012258Y009088D01*
X012221Y009125D01*
X012295Y009198D02*
X012331Y009198D01*
X011271Y008158D02*
X011197Y008158D01*
X011161Y008121D01*
X011086Y008121D02*
X011086Y008048D01*
X011050Y008011D01*
X010940Y008011D01*
X011013Y008011D02*
X011086Y007938D01*
X011161Y007975D02*
X011197Y007938D01*
X011271Y007938D01*
X011307Y007975D01*
X011307Y008011D01*
X011271Y008048D01*
X011234Y008048D01*
X011271Y008048D02*
X011307Y008085D01*
X011307Y008121D01*
X011271Y008158D01*
X011086Y008121D02*
X011050Y008158D01*
X010940Y008158D01*
X010940Y007938D01*
X011529Y007971D02*
X011529Y007825D01*
X011566Y007788D01*
X011639Y007788D01*
X011676Y007825D01*
X011750Y007825D02*
X011750Y007788D01*
X011750Y007825D02*
X011897Y007971D01*
X011897Y008008D01*
X011750Y008008D01*
X011676Y007971D02*
X011639Y008008D01*
X011566Y008008D01*
X011529Y007971D01*
X011971Y008008D02*
X012118Y008008D01*
X012118Y007971D01*
X011971Y007825D01*
X011971Y007788D01*
X010718Y008425D02*
X010718Y008571D01*
X010571Y008425D01*
X010608Y008388D01*
X010681Y008388D01*
X010718Y008425D01*
X010718Y008571D02*
X010681Y008608D01*
X010608Y008608D01*
X010571Y008571D01*
X010571Y008425D01*
X010497Y008425D02*
X010497Y008571D01*
X010460Y008608D01*
X010387Y008608D01*
X010350Y008571D01*
X010350Y008535D01*
X010387Y008498D01*
X010497Y008498D01*
X010497Y008425D02*
X010460Y008388D01*
X010387Y008388D01*
X010350Y008425D01*
X010276Y008425D02*
X010239Y008388D01*
X010166Y008388D01*
X010129Y008425D01*
X010129Y008571D01*
X010166Y008608D01*
X010239Y008608D01*
X010276Y008571D01*
X010018Y008571D02*
X010018Y008535D01*
X009981Y008498D01*
X010018Y008461D01*
X010018Y008425D01*
X009981Y008388D01*
X009908Y008388D01*
X009871Y008425D01*
X009797Y008425D02*
X009797Y008571D01*
X009760Y008608D01*
X009687Y008608D01*
X009650Y008571D01*
X009650Y008535D01*
X009687Y008498D01*
X009797Y008498D01*
X009797Y008425D02*
X009760Y008388D01*
X009687Y008388D01*
X009650Y008425D01*
X009576Y008425D02*
X009539Y008388D01*
X009466Y008388D01*
X009429Y008425D01*
X009429Y008571D01*
X009466Y008608D01*
X009539Y008608D01*
X009576Y008571D01*
X009871Y008571D02*
X009908Y008608D01*
X009981Y008608D01*
X010018Y008571D01*
X009981Y008498D02*
X009945Y008498D01*
X007068Y007271D02*
X006921Y007125D01*
X006958Y007088D01*
X007031Y007088D01*
X007068Y007125D01*
X007068Y007271D01*
X007031Y007308D01*
X006958Y007308D01*
X006921Y007271D01*
X006921Y007125D01*
X006847Y007198D02*
X006700Y007198D01*
X006810Y007308D01*
X006810Y007088D01*
X006626Y007088D02*
X006553Y007161D01*
X006589Y007161D02*
X006479Y007161D01*
X006479Y007088D02*
X006479Y007308D01*
X006589Y007308D01*
X006626Y007271D01*
X006626Y007198D01*
X006589Y007161D01*
X009379Y004921D02*
X009379Y004775D01*
X009416Y004738D01*
X009489Y004738D01*
X009526Y004775D01*
X009600Y004775D02*
X009637Y004738D01*
X009710Y004738D01*
X009747Y004775D01*
X009747Y004921D01*
X009710Y004958D01*
X009637Y004958D01*
X009600Y004921D01*
X009600Y004885D01*
X009637Y004848D01*
X009747Y004848D01*
X009821Y004848D02*
X009895Y004885D01*
X009931Y004885D01*
X009968Y004848D01*
X009968Y004775D01*
X009931Y004738D01*
X009858Y004738D01*
X009821Y004775D01*
X009821Y004848D02*
X009821Y004958D01*
X009968Y004958D01*
X009526Y004921D02*
X009489Y004958D01*
X009416Y004958D01*
X009379Y004921D01*
X009416Y004408D02*
X009379Y004371D01*
X009379Y004225D01*
X009416Y004188D01*
X009489Y004188D01*
X009526Y004225D01*
X009600Y004225D02*
X009637Y004188D01*
X009710Y004188D01*
X009747Y004225D01*
X009747Y004371D01*
X009710Y004408D01*
X009637Y004408D01*
X009600Y004371D01*
X009600Y004335D01*
X009637Y004298D01*
X009747Y004298D01*
X009821Y004335D02*
X009895Y004408D01*
X009895Y004188D01*
X009968Y004188D02*
X009821Y004188D01*
X009526Y004371D02*
X009489Y004408D01*
X009416Y004408D01*
X010229Y005488D02*
X010229Y005708D01*
X010339Y005708D01*
X010376Y005671D01*
X010376Y005598D01*
X010339Y005561D01*
X010229Y005561D01*
X010303Y005561D02*
X010376Y005488D01*
X010450Y005598D02*
X010597Y005598D01*
X010671Y005635D02*
X010745Y005708D01*
X010745Y005488D01*
X010818Y005488D02*
X010671Y005488D01*
X010560Y005488D02*
X010560Y005708D01*
X010450Y005598D01*
X011179Y005561D02*
X011289Y005561D01*
X011326Y005598D01*
X011326Y005671D01*
X011289Y005708D01*
X011179Y005708D01*
X011179Y005488D01*
X011253Y005561D02*
X011326Y005488D01*
X011400Y005598D02*
X011547Y005598D01*
X011621Y005598D02*
X011768Y005598D01*
X011731Y005488D02*
X011731Y005708D01*
X011621Y005598D01*
X011510Y005488D02*
X011510Y005708D01*
X011400Y005598D01*
X012379Y005121D02*
X012379Y004975D01*
X012416Y004938D01*
X012489Y004938D01*
X012526Y004975D01*
X012600Y004975D02*
X012600Y005011D01*
X012637Y005048D01*
X012710Y005048D01*
X012747Y005011D01*
X012747Y004975D01*
X012710Y004938D01*
X012637Y004938D01*
X012600Y004975D01*
X012637Y005048D02*
X012600Y005085D01*
X012600Y005121D01*
X012637Y005158D01*
X012710Y005158D01*
X012747Y005121D01*
X012747Y005085D01*
X012710Y005048D01*
X012821Y005048D02*
X012968Y005048D01*
X012931Y004938D02*
X012931Y005158D01*
X012821Y005048D01*
X012526Y005121D02*
X012489Y005158D01*
X012416Y005158D01*
X012379Y005121D01*
X007586Y004608D02*
X007399Y004608D01*
X007492Y004608D02*
X007492Y004888D01*
X007399Y004795D01*
X007309Y004841D02*
X007309Y004748D01*
X007263Y004701D01*
X007123Y004701D01*
X007123Y004608D02*
X007123Y004888D01*
X007263Y004888D01*
X007309Y004841D01*
X007033Y004888D02*
X006846Y004888D01*
X006940Y004888D02*
X006940Y004608D01*
X013779Y008075D02*
X013816Y008038D01*
X013889Y008038D01*
X013926Y008075D01*
X014000Y008148D02*
X014147Y008148D01*
X014221Y008148D02*
X014295Y008185D01*
X014331Y008185D01*
X014368Y008148D01*
X014368Y008075D01*
X014331Y008038D01*
X014258Y008038D01*
X014221Y008075D01*
X014221Y008148D02*
X014221Y008258D01*
X014368Y008258D01*
X014110Y008258D02*
X014000Y008148D01*
X013926Y008221D02*
X013889Y008258D01*
X013816Y008258D01*
X013779Y008221D01*
X013779Y008075D01*
X014110Y008038D02*
X014110Y008258D01*
X015929Y008221D02*
X015929Y008075D01*
X015966Y008038D01*
X016039Y008038D01*
X016076Y008075D01*
X016150Y008148D02*
X016297Y008148D01*
X016371Y008111D02*
X016408Y008148D01*
X016481Y008148D01*
X016518Y008111D01*
X016518Y008075D01*
X016481Y008038D01*
X016408Y008038D01*
X016371Y008075D01*
X016371Y008111D01*
X016408Y008148D02*
X016371Y008185D01*
X016371Y008221D01*
X016408Y008258D01*
X016481Y008258D01*
X016518Y008221D01*
X016518Y008185D01*
X016481Y008148D01*
X016260Y008038D02*
X016260Y008258D01*
X016150Y008148D01*
X016076Y008221D02*
X016039Y008258D01*
X015966Y008258D01*
X015929Y008221D01*
X018079Y008221D02*
X018079Y008075D01*
X018116Y008038D01*
X018189Y008038D01*
X018226Y008075D01*
X018300Y008075D02*
X018337Y008038D01*
X018410Y008038D01*
X018447Y008075D01*
X018447Y008148D01*
X018410Y008185D01*
X018374Y008185D01*
X018300Y008148D01*
X018300Y008258D01*
X018447Y008258D01*
X018521Y008221D02*
X018558Y008258D01*
X018631Y008258D01*
X018668Y008221D01*
X018521Y008075D01*
X018558Y008038D01*
X018631Y008038D01*
X018668Y008075D01*
X018668Y008221D01*
X018521Y008221D02*
X018521Y008075D01*
X018226Y008221D02*
X018189Y008258D01*
X018116Y008258D01*
X018079Y008221D01*
D13*
X012821Y007648D02*
X012823Y007665D01*
X012828Y007682D01*
X012837Y007696D01*
X012849Y007709D01*
X012864Y007719D01*
X012880Y007725D01*
X012897Y007728D01*
X012914Y007727D01*
X012931Y007722D01*
X012946Y007714D01*
X012959Y007703D01*
X012970Y007689D01*
X012977Y007674D01*
X012981Y007657D01*
X012981Y007639D01*
X012977Y007622D01*
X012970Y007607D01*
X012959Y007593D01*
X012946Y007582D01*
X012931Y007574D01*
X012914Y007569D01*
X012897Y007568D01*
X012880Y007571D01*
X012864Y007577D01*
X012849Y007587D01*
X012837Y007600D01*
X012828Y007614D01*
X012823Y007631D01*
X012821Y007648D01*
X008071Y004848D02*
X008073Y004865D01*
X008078Y004882D01*
X008087Y004896D01*
X008099Y004909D01*
X008114Y004919D01*
X008130Y004925D01*
X008147Y004928D01*
X008164Y004927D01*
X008181Y004922D01*
X008196Y004914D01*
X008209Y004903D01*
X008220Y004889D01*
X008227Y004874D01*
X008231Y004857D01*
X008231Y004839D01*
X008227Y004822D01*
X008220Y004807D01*
X008209Y004793D01*
X008196Y004782D01*
X008181Y004774D01*
X008164Y004769D01*
X008147Y004768D01*
X008130Y004771D01*
X008114Y004777D01*
X008099Y004787D01*
X008087Y004800D01*
X008078Y004814D01*
X008073Y004831D01*
X008071Y004848D01*
X007321Y008398D02*
X007323Y008415D01*
X007328Y008432D01*
X007337Y008446D01*
X007349Y008459D01*
X007364Y008469D01*
X007380Y008475D01*
X007397Y008478D01*
X007414Y008477D01*
X007431Y008472D01*
X007446Y008464D01*
X007459Y008453D01*
X007470Y008439D01*
X007477Y008424D01*
X007481Y008407D01*
X007481Y008389D01*
X007477Y008372D01*
X007470Y008357D01*
X007459Y008343D01*
X007446Y008332D01*
X007431Y008324D01*
X007414Y008319D01*
X007397Y008318D01*
X007380Y008321D01*
X007364Y008327D01*
X007349Y008337D01*
X007337Y008350D01*
X007328Y008364D01*
X007323Y008381D01*
X007321Y008398D01*
X007521Y009648D02*
X007523Y009665D01*
X007528Y009682D01*
X007537Y009696D01*
X007549Y009709D01*
X007564Y009719D01*
X007580Y009725D01*
X007597Y009728D01*
X007614Y009727D01*
X007631Y009722D01*
X007646Y009714D01*
X007659Y009703D01*
X007670Y009689D01*
X007677Y009674D01*
X007681Y009657D01*
X007681Y009639D01*
X007677Y009622D01*
X007670Y009607D01*
X007659Y009593D01*
X007646Y009582D01*
X007631Y009574D01*
X007614Y009569D01*
X007597Y009568D01*
X007580Y009571D01*
X007564Y009577D01*
X007549Y009587D01*
X007537Y009600D01*
X007528Y009614D01*
X007523Y009631D01*
X007521Y009648D01*
X006571Y015448D02*
X006573Y015465D01*
X006578Y015482D01*
X006587Y015496D01*
X006599Y015509D01*
X006614Y015519D01*
X006630Y015525D01*
X006647Y015528D01*
X006664Y015527D01*
X006681Y015522D01*
X006696Y015514D01*
X006709Y015503D01*
X006720Y015489D01*
X006727Y015474D01*
X006731Y015457D01*
X006731Y015439D01*
X006727Y015422D01*
X006720Y015407D01*
X006709Y015393D01*
X006696Y015382D01*
X006681Y015374D01*
X006664Y015369D01*
X006647Y015368D01*
X006630Y015371D01*
X006614Y015377D01*
X006599Y015387D01*
X006587Y015400D01*
X006578Y015414D01*
X006573Y015431D01*
X006571Y015448D01*
X011240Y017388D02*
X011242Y017405D01*
X011247Y017422D01*
X011256Y017436D01*
X011268Y017449D01*
X011283Y017459D01*
X011299Y017465D01*
X011316Y017468D01*
X011333Y017467D01*
X011350Y017462D01*
X011365Y017454D01*
X011378Y017443D01*
X011389Y017429D01*
X011396Y017414D01*
X011400Y017397D01*
X011400Y017379D01*
X011396Y017362D01*
X011389Y017347D01*
X011378Y017333D01*
X011365Y017322D01*
X011350Y017314D01*
X011333Y017309D01*
X011316Y017308D01*
X011299Y017311D01*
X011283Y017317D01*
X011268Y017327D01*
X011256Y017340D01*
X011247Y017354D01*
X011242Y017371D01*
X011240Y017388D01*
X004564Y024248D02*
X004566Y024304D01*
X004572Y024359D01*
X004582Y024413D01*
X004595Y024467D01*
X004613Y024520D01*
X004634Y024571D01*
X004658Y024621D01*
X004686Y024669D01*
X004718Y024715D01*
X004752Y024759D01*
X004790Y024800D01*
X004830Y024838D01*
X004873Y024873D01*
X004918Y024905D01*
X004966Y024934D01*
X005015Y024960D01*
X005066Y024982D01*
X005118Y025000D01*
X005172Y025014D01*
X005227Y025025D01*
X005282Y025032D01*
X005337Y025035D01*
X005393Y025034D01*
X005448Y025029D01*
X005503Y025020D01*
X005557Y025008D01*
X005610Y024991D01*
X005662Y024971D01*
X005712Y024947D01*
X005760Y024920D01*
X005807Y024890D01*
X005851Y024856D01*
X005893Y024819D01*
X005931Y024779D01*
X005968Y024737D01*
X006001Y024692D01*
X006030Y024646D01*
X006057Y024597D01*
X006079Y024546D01*
X006099Y024494D01*
X006114Y024440D01*
X006126Y024386D01*
X006134Y024331D01*
X006138Y024276D01*
X006138Y024220D01*
X006134Y024165D01*
X006126Y024110D01*
X006114Y024056D01*
X006099Y024002D01*
X006079Y023950D01*
X006057Y023899D01*
X006030Y023850D01*
X006001Y023804D01*
X005968Y023759D01*
X005931Y023717D01*
X005893Y023677D01*
X005851Y023640D01*
X005807Y023606D01*
X005760Y023576D01*
X005712Y023549D01*
X005662Y023525D01*
X005610Y023505D01*
X005557Y023488D01*
X005503Y023476D01*
X005448Y023467D01*
X005393Y023462D01*
X005337Y023461D01*
X005282Y023464D01*
X005227Y023471D01*
X005172Y023482D01*
X005118Y023496D01*
X005066Y023514D01*
X005015Y023536D01*
X004966Y023562D01*
X004918Y023591D01*
X004873Y023623D01*
X004830Y023658D01*
X004790Y023696D01*
X004752Y023737D01*
X004718Y023781D01*
X004686Y023827D01*
X004658Y023875D01*
X004634Y023925D01*
X004613Y023976D01*
X004595Y024029D01*
X004582Y024083D01*
X004572Y024137D01*
X004566Y024192D01*
X004564Y024248D01*
X024971Y009098D02*
X024973Y009115D01*
X024978Y009132D01*
X024987Y009146D01*
X024999Y009159D01*
X025014Y009169D01*
X025030Y009175D01*
X025047Y009178D01*
X025064Y009177D01*
X025081Y009172D01*
X025096Y009164D01*
X025109Y009153D01*
X025120Y009139D01*
X025127Y009124D01*
X025131Y009107D01*
X025131Y009089D01*
X025127Y009072D01*
X025120Y009057D01*
X025109Y009043D01*
X025096Y009032D01*
X025081Y009024D01*
X025064Y009019D01*
X025047Y009018D01*
X025030Y009021D01*
X025014Y009027D01*
X024999Y009037D01*
X024987Y009050D01*
X024978Y009064D01*
X024973Y009081D01*
X024971Y009098D01*
X033932Y014161D02*
X033934Y014178D01*
X033939Y014195D01*
X033948Y014209D01*
X033960Y014222D01*
X033975Y014232D01*
X033991Y014238D01*
X034008Y014241D01*
X034025Y014240D01*
X034042Y014235D01*
X034057Y014227D01*
X034070Y014216D01*
X034081Y014202D01*
X034088Y014187D01*
X034092Y014170D01*
X034092Y014152D01*
X034088Y014135D01*
X034081Y014120D01*
X034070Y014106D01*
X034057Y014095D01*
X034042Y014087D01*
X034025Y014082D01*
X034008Y014081D01*
X033991Y014084D01*
X033975Y014090D01*
X033960Y014100D01*
X033948Y014113D01*
X033939Y014127D01*
X033934Y014144D01*
X033932Y014161D01*
X034792Y017305D02*
X034794Y017322D01*
X034799Y017339D01*
X034808Y017353D01*
X034820Y017366D01*
X034835Y017376D01*
X034851Y017382D01*
X034868Y017385D01*
X034885Y017384D01*
X034902Y017379D01*
X034917Y017371D01*
X034930Y017360D01*
X034941Y017346D01*
X034948Y017331D01*
X034952Y017314D01*
X034952Y017296D01*
X034948Y017279D01*
X034941Y017264D01*
X034930Y017250D01*
X034917Y017239D01*
X034902Y017231D01*
X034885Y017226D01*
X034868Y017225D01*
X034851Y017228D01*
X034835Y017234D01*
X034820Y017244D01*
X034808Y017257D01*
X034799Y017271D01*
X034794Y017288D01*
X034792Y017305D01*
X043612Y012527D02*
X043614Y012544D01*
X043619Y012561D01*
X043628Y012575D01*
X043640Y012588D01*
X043655Y012598D01*
X043671Y012604D01*
X043688Y012607D01*
X043705Y012606D01*
X043722Y012601D01*
X043737Y012593D01*
X043750Y012582D01*
X043761Y012568D01*
X043768Y012553D01*
X043772Y012536D01*
X043772Y012518D01*
X043768Y012501D01*
X043761Y012486D01*
X043750Y012472D01*
X043737Y012461D01*
X043722Y012453D01*
X043705Y012448D01*
X043688Y012447D01*
X043671Y012450D01*
X043655Y012456D01*
X043640Y012466D01*
X043628Y012479D01*
X043619Y012493D01*
X043614Y012510D01*
X043612Y012527D01*
X044871Y008248D02*
X044873Y008265D01*
X044878Y008282D01*
X044887Y008296D01*
X044899Y008309D01*
X044914Y008319D01*
X044930Y008325D01*
X044947Y008328D01*
X044964Y008327D01*
X044981Y008322D01*
X044996Y008314D01*
X045009Y008303D01*
X045020Y008289D01*
X045027Y008274D01*
X045031Y008257D01*
X045031Y008239D01*
X045027Y008222D01*
X045020Y008207D01*
X045009Y008193D01*
X044996Y008182D01*
X044981Y008174D01*
X044964Y008169D01*
X044947Y008168D01*
X044930Y008171D01*
X044914Y008177D01*
X044899Y008187D01*
X044887Y008200D01*
X044878Y008214D01*
X044873Y008231D01*
X044871Y008248D01*
D14*
X032988Y010268D02*
X032988Y010426D01*
X032988Y010268D02*
X032830Y010111D01*
X032673Y010111D01*
X025429Y010111D02*
X025271Y010111D01*
X025114Y010268D01*
X025114Y010426D01*
X019588Y010420D02*
X019588Y009711D01*
X018879Y009711D01*
X012422Y009711D02*
X011714Y009711D01*
X011714Y010420D01*
X011714Y016876D02*
X011714Y017112D01*
X012186Y017585D01*
X011714Y017585D01*
X011714Y017112D01*
X012186Y017585D02*
X012422Y017585D01*
X018879Y017585D02*
X019588Y017585D01*
X019588Y016876D01*
X025114Y017670D02*
X025114Y017827D01*
X025271Y017985D01*
X025429Y017985D01*
X032673Y017985D02*
X032830Y017985D01*
X032988Y017827D01*
X032988Y017670D01*
D15*
X033159Y017913D02*
X033282Y017913D01*
X033344Y017975D01*
X033344Y018283D01*
X033466Y018222D02*
X033527Y018283D01*
X033651Y018283D01*
X033713Y018222D01*
X033713Y018160D01*
X033466Y017913D01*
X033713Y017913D01*
X033159Y017913D02*
X033097Y017975D01*
X033097Y018283D01*
X034597Y016533D02*
X034597Y016472D01*
X034721Y016348D01*
X034721Y016163D01*
X034721Y016348D02*
X034844Y016472D01*
X034844Y016533D01*
X034966Y016472D02*
X035027Y016533D01*
X035151Y016533D01*
X035213Y016472D01*
X035213Y016410D01*
X034966Y016163D01*
X035213Y016163D01*
X037656Y018096D02*
X037718Y018035D01*
X037841Y018035D01*
X037903Y018096D01*
X037903Y018405D01*
X038025Y018282D02*
X038148Y018405D01*
X038148Y018035D01*
X038025Y018035D02*
X038271Y018035D01*
X038393Y018096D02*
X038455Y018035D01*
X038578Y018035D01*
X038640Y018096D01*
X038640Y018158D01*
X038578Y018220D01*
X038516Y018220D01*
X038578Y018220D02*
X038640Y018282D01*
X038640Y018343D01*
X038578Y018405D01*
X038455Y018405D01*
X038393Y018343D01*
X037656Y018405D02*
X037656Y018096D01*
X044221Y014933D02*
X044344Y014933D01*
X044282Y014933D02*
X044282Y014625D01*
X044221Y014563D01*
X044159Y014563D01*
X044097Y014625D01*
X044466Y014563D02*
X044713Y014563D01*
X044589Y014563D02*
X044589Y014933D01*
X044466Y014810D01*
X037291Y013842D02*
X037291Y013780D01*
X037230Y013719D01*
X037291Y013657D01*
X037291Y013595D01*
X037230Y013533D01*
X037106Y013533D01*
X037044Y013595D01*
X037168Y013719D02*
X037230Y013719D01*
X037291Y013842D02*
X037230Y013904D01*
X037106Y013904D01*
X037044Y013842D01*
X036923Y013842D02*
X036923Y013904D01*
X036923Y013842D02*
X036799Y013719D01*
X036799Y013533D01*
X036799Y013719D02*
X036676Y013842D01*
X036676Y013904D01*
X044497Y008933D02*
X044497Y008625D01*
X044559Y008563D01*
X044682Y008563D01*
X044744Y008625D01*
X044744Y008933D01*
X044866Y008872D02*
X044927Y008933D01*
X045051Y008933D01*
X045113Y008872D01*
X045113Y008810D01*
X045051Y008748D01*
X045113Y008686D01*
X045113Y008625D01*
X045051Y008563D01*
X044927Y008563D01*
X044866Y008625D01*
X044989Y008748D02*
X045051Y008748D01*
X046459Y006533D02*
X046397Y006472D01*
X046397Y006410D01*
X046459Y006348D01*
X046582Y006348D01*
X046644Y006286D01*
X046644Y006225D01*
X046582Y006163D01*
X046459Y006163D01*
X046397Y006225D01*
X046459Y006533D02*
X046582Y006533D01*
X046644Y006472D01*
X046766Y006410D02*
X046889Y006533D01*
X046889Y006163D01*
X046766Y006163D02*
X047013Y006163D01*
X047759Y021363D02*
X047821Y021363D01*
X047882Y021425D01*
X047882Y021733D01*
X047821Y021733D02*
X047944Y021733D01*
X048066Y021672D02*
X048127Y021733D01*
X048251Y021733D01*
X048313Y021672D01*
X048313Y021610D01*
X048066Y021363D01*
X048313Y021363D01*
X047759Y021363D02*
X047697Y021425D01*
X045113Y022725D02*
X045051Y022663D01*
X044927Y022663D01*
X044866Y022725D01*
X044744Y022663D02*
X044497Y023033D01*
X044744Y023033D02*
X044497Y022663D01*
X044866Y022972D02*
X044927Y023033D01*
X045051Y023033D01*
X045113Y022972D01*
X045113Y022910D01*
X045051Y022848D01*
X045113Y022786D01*
X045113Y022725D01*
X045051Y022848D02*
X044989Y022848D01*
X011447Y007222D02*
X011447Y006975D01*
X011385Y006913D01*
X011262Y006913D01*
X011200Y006975D01*
X011447Y007222D01*
X011385Y007283D01*
X011262Y007283D01*
X011200Y007222D01*
X011200Y006975D01*
X011078Y006913D02*
X010831Y006913D01*
X010955Y006913D02*
X010955Y007283D01*
X010831Y007160D01*
X010710Y007283D02*
X010710Y006975D01*
X010648Y006913D01*
X010525Y006913D01*
X010463Y006975D01*
X010463Y007283D01*
X007573Y006133D02*
X007573Y005763D01*
X007450Y005763D02*
X007697Y005763D01*
X007450Y006010D02*
X007573Y006133D01*
X007205Y006133D02*
X007205Y005763D01*
X007328Y005763D02*
X007081Y005763D01*
X006960Y005825D02*
X006960Y006133D01*
X007081Y006010D02*
X007205Y006133D01*
X006960Y005825D02*
X006898Y005763D01*
X006775Y005763D01*
X006713Y005825D01*
X006713Y006133D01*
X004731Y009713D02*
X004484Y009713D01*
X004731Y009960D01*
X004731Y010022D01*
X004669Y010083D01*
X004546Y010083D01*
X004484Y010022D01*
X004363Y010083D02*
X004116Y009713D01*
X004363Y009713D02*
X004116Y010083D01*
X006421Y010963D02*
X006421Y011148D01*
X006544Y011272D01*
X006544Y011333D01*
X006666Y011210D02*
X006789Y011333D01*
X006789Y010963D01*
X006666Y010963D02*
X006913Y010963D01*
X006421Y011148D02*
X006297Y011272D01*
X006297Y011333D01*
X007659Y016063D02*
X007782Y016063D01*
X007844Y016125D01*
X007844Y016433D01*
X007966Y016372D02*
X007966Y016310D01*
X008027Y016248D01*
X008151Y016248D01*
X008213Y016186D01*
X008213Y016125D01*
X008151Y016063D01*
X008027Y016063D01*
X007966Y016125D01*
X007966Y016186D01*
X008027Y016248D01*
X008151Y016248D02*
X008213Y016310D01*
X008213Y016372D01*
X008151Y016433D01*
X008027Y016433D01*
X007966Y016372D01*
X007597Y016433D02*
X007597Y016125D01*
X007659Y016063D01*
X010216Y017525D02*
X010277Y017463D01*
X010401Y017463D01*
X010463Y017525D01*
X010463Y017833D01*
X010584Y017710D02*
X010707Y017833D01*
X010707Y017463D01*
X010584Y017463D02*
X010831Y017463D01*
X010216Y017525D02*
X010216Y017833D01*
X004731Y017863D02*
X004484Y017863D01*
X004363Y017863D02*
X004116Y018233D01*
X004363Y018233D02*
X004116Y017863D01*
X004484Y018110D02*
X004607Y018233D01*
X004607Y017863D01*
D16*
X007151Y012148D02*
X007151Y010148D01*
X010151Y010148D02*
X010151Y012148D01*
X011510Y007213D02*
X011510Y006583D01*
X012691Y006583D02*
X012691Y007213D01*
X009241Y006163D02*
X009241Y005533D01*
X008060Y005533D02*
X008060Y006163D01*
X034360Y014357D02*
X034360Y015538D01*
X034893Y018387D02*
X034893Y019823D01*
X037452Y019823D02*
X037452Y018387D01*
X038108Y021372D02*
X031494Y021372D01*
X031494Y024324D01*
X038108Y024324D01*
X038108Y021372D01*
X040151Y021848D02*
X040151Y023848D01*
X044151Y023848D02*
X044151Y021848D01*
X047158Y020624D02*
X047670Y020624D01*
X047158Y020624D02*
X047158Y019935D01*
X045701Y018648D02*
X045501Y018648D01*
X045701Y018648D02*
X045701Y018448D01*
X044401Y018648D02*
X044201Y018648D01*
X044201Y018448D01*
X044201Y017348D02*
X044201Y017148D01*
X044401Y017148D01*
X045501Y017148D02*
X045701Y017148D01*
X045701Y017348D01*
X047158Y017672D02*
X047158Y018361D01*
X047158Y017672D02*
X047670Y017672D01*
X043397Y015323D02*
X043397Y012173D01*
X043338Y012173D01*
X044897Y012006D02*
X044897Y011258D01*
X046472Y011258D01*
X047456Y011258D02*
X048834Y011258D01*
X048834Y015038D01*
X047496Y015038D01*
X046472Y015038D02*
X044897Y015038D01*
X044897Y014368D01*
X043397Y015323D02*
X043338Y015323D01*
X041763Y015323D02*
X041704Y015323D01*
X041704Y012173D01*
X041763Y012173D01*
X041763Y013354D02*
X043338Y013354D01*
X045357Y008438D02*
X046144Y008438D01*
X046144Y007257D02*
X045357Y007257D01*
D17*
X008935Y013864D02*
X008935Y015832D01*
X006966Y015832D01*
X006966Y013864D01*
X008935Y013864D01*
D18*
X035541Y014357D02*
X035541Y015538D01*
D19*
X004564Y002248D02*
X004566Y002304D01*
X004572Y002359D01*
X004582Y002413D01*
X004595Y002467D01*
X004613Y002520D01*
X004634Y002571D01*
X004658Y002621D01*
X004686Y002669D01*
X004718Y002715D01*
X004752Y002759D01*
X004790Y002800D01*
X004830Y002838D01*
X004873Y002873D01*
X004918Y002905D01*
X004966Y002934D01*
X005015Y002960D01*
X005066Y002982D01*
X005118Y003000D01*
X005172Y003014D01*
X005227Y003025D01*
X005282Y003032D01*
X005337Y003035D01*
X005393Y003034D01*
X005448Y003029D01*
X005503Y003020D01*
X005557Y003008D01*
X005610Y002991D01*
X005662Y002971D01*
X005712Y002947D01*
X005760Y002920D01*
X005807Y002890D01*
X005851Y002856D01*
X005893Y002819D01*
X005931Y002779D01*
X005968Y002737D01*
X006001Y002692D01*
X006030Y002646D01*
X006057Y002597D01*
X006079Y002546D01*
X006099Y002494D01*
X006114Y002440D01*
X006126Y002386D01*
X006134Y002331D01*
X006138Y002276D01*
X006138Y002220D01*
X006134Y002165D01*
X006126Y002110D01*
X006114Y002056D01*
X006099Y002002D01*
X006079Y001950D01*
X006057Y001899D01*
X006030Y001850D01*
X006001Y001804D01*
X005968Y001759D01*
X005931Y001717D01*
X005893Y001677D01*
X005851Y001640D01*
X005807Y001606D01*
X005760Y001576D01*
X005712Y001549D01*
X005662Y001525D01*
X005610Y001505D01*
X005557Y001488D01*
X005503Y001476D01*
X005448Y001467D01*
X005393Y001462D01*
X005337Y001461D01*
X005282Y001464D01*
X005227Y001471D01*
X005172Y001482D01*
X005118Y001496D01*
X005066Y001514D01*
X005015Y001536D01*
X004966Y001562D01*
X004918Y001591D01*
X004873Y001623D01*
X004830Y001658D01*
X004790Y001696D01*
X004752Y001737D01*
X004718Y001781D01*
X004686Y001827D01*
X004658Y001875D01*
X004634Y001925D01*
X004613Y001976D01*
X004595Y002029D01*
X004582Y002083D01*
X004572Y002137D01*
X004566Y002192D01*
X004564Y002248D01*
X008191Y007058D02*
X009111Y007058D01*
X009111Y008238D02*
X008771Y008238D01*
X008531Y008238D01*
X008191Y008238D01*
X008531Y008238D02*
X008533Y008217D01*
X008538Y008197D01*
X008547Y008178D01*
X008559Y008161D01*
X008574Y008146D01*
X008591Y008134D01*
X008610Y008125D01*
X008630Y008120D01*
X008651Y008118D01*
X008672Y008120D01*
X008692Y008125D01*
X008711Y008134D01*
X008728Y008146D01*
X008743Y008161D01*
X008755Y008178D01*
X008764Y008197D01*
X008769Y008217D01*
X008771Y008238D01*
X004564Y024248D02*
X004566Y024304D01*
X004572Y024359D01*
X004582Y024413D01*
X004595Y024467D01*
X004613Y024520D01*
X004634Y024571D01*
X004658Y024621D01*
X004686Y024669D01*
X004718Y024715D01*
X004752Y024759D01*
X004790Y024800D01*
X004830Y024838D01*
X004873Y024873D01*
X004918Y024905D01*
X004966Y024934D01*
X005015Y024960D01*
X005066Y024982D01*
X005118Y025000D01*
X005172Y025014D01*
X005227Y025025D01*
X005282Y025032D01*
X005337Y025035D01*
X005393Y025034D01*
X005448Y025029D01*
X005503Y025020D01*
X005557Y025008D01*
X005610Y024991D01*
X005662Y024971D01*
X005712Y024947D01*
X005760Y024920D01*
X005807Y024890D01*
X005851Y024856D01*
X005893Y024819D01*
X005931Y024779D01*
X005968Y024737D01*
X006001Y024692D01*
X006030Y024646D01*
X006057Y024597D01*
X006079Y024546D01*
X006099Y024494D01*
X006114Y024440D01*
X006126Y024386D01*
X006134Y024331D01*
X006138Y024276D01*
X006138Y024220D01*
X006134Y024165D01*
X006126Y024110D01*
X006114Y024056D01*
X006099Y024002D01*
X006079Y023950D01*
X006057Y023899D01*
X006030Y023850D01*
X006001Y023804D01*
X005968Y023759D01*
X005931Y023717D01*
X005893Y023677D01*
X005851Y023640D01*
X005807Y023606D01*
X005760Y023576D01*
X005712Y023549D01*
X005662Y023525D01*
X005610Y023505D01*
X005557Y023488D01*
X005503Y023476D01*
X005448Y023467D01*
X005393Y023462D01*
X005337Y023461D01*
X005282Y023464D01*
X005227Y023471D01*
X005172Y023482D01*
X005118Y023496D01*
X005066Y023514D01*
X005015Y023536D01*
X004966Y023562D01*
X004918Y023591D01*
X004873Y023623D01*
X004830Y023658D01*
X004790Y023696D01*
X004752Y023737D01*
X004718Y023781D01*
X004686Y023827D01*
X004658Y023875D01*
X004634Y023925D01*
X004613Y023976D01*
X004595Y024029D01*
X004582Y024083D01*
X004572Y024137D01*
X004566Y024192D01*
X004564Y024248D01*
X046564Y024248D02*
X046566Y024304D01*
X046572Y024359D01*
X046582Y024413D01*
X046595Y024467D01*
X046613Y024520D01*
X046634Y024571D01*
X046658Y024621D01*
X046686Y024669D01*
X046718Y024715D01*
X046752Y024759D01*
X046790Y024800D01*
X046830Y024838D01*
X046873Y024873D01*
X046918Y024905D01*
X046966Y024934D01*
X047015Y024960D01*
X047066Y024982D01*
X047118Y025000D01*
X047172Y025014D01*
X047227Y025025D01*
X047282Y025032D01*
X047337Y025035D01*
X047393Y025034D01*
X047448Y025029D01*
X047503Y025020D01*
X047557Y025008D01*
X047610Y024991D01*
X047662Y024971D01*
X047712Y024947D01*
X047760Y024920D01*
X047807Y024890D01*
X047851Y024856D01*
X047893Y024819D01*
X047931Y024779D01*
X047968Y024737D01*
X048001Y024692D01*
X048030Y024646D01*
X048057Y024597D01*
X048079Y024546D01*
X048099Y024494D01*
X048114Y024440D01*
X048126Y024386D01*
X048134Y024331D01*
X048138Y024276D01*
X048138Y024220D01*
X048134Y024165D01*
X048126Y024110D01*
X048114Y024056D01*
X048099Y024002D01*
X048079Y023950D01*
X048057Y023899D01*
X048030Y023850D01*
X048001Y023804D01*
X047968Y023759D01*
X047931Y023717D01*
X047893Y023677D01*
X047851Y023640D01*
X047807Y023606D01*
X047760Y023576D01*
X047712Y023549D01*
X047662Y023525D01*
X047610Y023505D01*
X047557Y023488D01*
X047503Y023476D01*
X047448Y023467D01*
X047393Y023462D01*
X047337Y023461D01*
X047282Y023464D01*
X047227Y023471D01*
X047172Y023482D01*
X047118Y023496D01*
X047066Y023514D01*
X047015Y023536D01*
X046966Y023562D01*
X046918Y023591D01*
X046873Y023623D01*
X046830Y023658D01*
X046790Y023696D01*
X046752Y023737D01*
X046718Y023781D01*
X046686Y023827D01*
X046658Y023875D01*
X046634Y023925D01*
X046613Y023976D01*
X046595Y024029D01*
X046582Y024083D01*
X046572Y024137D01*
X046566Y024192D01*
X046564Y024248D01*
X046564Y002248D02*
X046566Y002304D01*
X046572Y002359D01*
X046582Y002413D01*
X046595Y002467D01*
X046613Y002520D01*
X046634Y002571D01*
X046658Y002621D01*
X046686Y002669D01*
X046718Y002715D01*
X046752Y002759D01*
X046790Y002800D01*
X046830Y002838D01*
X046873Y002873D01*
X046918Y002905D01*
X046966Y002934D01*
X047015Y002960D01*
X047066Y002982D01*
X047118Y003000D01*
X047172Y003014D01*
X047227Y003025D01*
X047282Y003032D01*
X047337Y003035D01*
X047393Y003034D01*
X047448Y003029D01*
X047503Y003020D01*
X047557Y003008D01*
X047610Y002991D01*
X047662Y002971D01*
X047712Y002947D01*
X047760Y002920D01*
X047807Y002890D01*
X047851Y002856D01*
X047893Y002819D01*
X047931Y002779D01*
X047968Y002737D01*
X048001Y002692D01*
X048030Y002646D01*
X048057Y002597D01*
X048079Y002546D01*
X048099Y002494D01*
X048114Y002440D01*
X048126Y002386D01*
X048134Y002331D01*
X048138Y002276D01*
X048138Y002220D01*
X048134Y002165D01*
X048126Y002110D01*
X048114Y002056D01*
X048099Y002002D01*
X048079Y001950D01*
X048057Y001899D01*
X048030Y001850D01*
X048001Y001804D01*
X047968Y001759D01*
X047931Y001717D01*
X047893Y001677D01*
X047851Y001640D01*
X047807Y001606D01*
X047760Y001576D01*
X047712Y001549D01*
X047662Y001525D01*
X047610Y001505D01*
X047557Y001488D01*
X047503Y001476D01*
X047448Y001467D01*
X047393Y001462D01*
X047337Y001461D01*
X047282Y001464D01*
X047227Y001471D01*
X047172Y001482D01*
X047118Y001496D01*
X047066Y001514D01*
X047015Y001536D01*
X046966Y001562D01*
X046918Y001591D01*
X046873Y001623D01*
X046830Y001658D01*
X046790Y001696D01*
X046752Y001737D01*
X046718Y001781D01*
X046686Y001827D01*
X046658Y001875D01*
X046634Y001925D01*
X046613Y001976D01*
X046595Y002029D01*
X046582Y002083D01*
X046572Y002137D01*
X046566Y002192D01*
X046564Y002248D01*
D20*
X047661Y006228D02*
X047661Y009068D01*
X048841Y009068D01*
X048841Y006228D01*
X047661Y006228D01*
M02*
