G75*
%MOIN*%
%OFA0B0*%
%FSLAX24Y24*%
%IPPOS*%
%LPD*%
%AMOC8*
5,1,8,0,0,1.08239X$1,22.5*
%
%ADD10C,0.0240*%
%ADD11C,0.0432*%
%ADD12C,0.0100*%
D10*
X006551Y004148D03*
X008451Y004548D03*
X009251Y004548D03*
X011001Y005548D03*
X011701Y005998D03*
X010801Y006648D03*
X010051Y006948D03*
X010251Y007248D03*
X010451Y007598D03*
X010801Y007598D03*
X010451Y008198D03*
X011001Y008648D03*
X011551Y008348D03*
X011801Y008748D03*
X012301Y008398D03*
X012701Y008398D03*
X013951Y008448D03*
X014251Y008448D03*
X016101Y008448D03*
X016401Y008448D03*
X018251Y008448D03*
X018551Y008448D03*
X013351Y010648D03*
X012751Y010248D03*
X012001Y010798D03*
X010401Y011348D03*
X010401Y011648D03*
X010401Y011948D03*
X010401Y012248D03*
X010851Y012648D03*
X012051Y012698D03*
X012051Y012998D03*
X012051Y013498D03*
X012051Y013798D03*
X012051Y014298D03*
X012051Y014598D03*
X012051Y015098D03*
X012051Y015398D03*
X012551Y015498D03*
X013851Y016148D03*
X010951Y015448D03*
X010401Y015648D03*
X010401Y015948D03*
X010401Y016448D03*
X010401Y016748D03*
X009401Y016898D03*
X009351Y018248D03*
X009751Y018248D03*
X012341Y018848D03*
X012651Y018848D03*
X013951Y018848D03*
X014251Y018848D03*
X012801Y019648D03*
X012351Y019998D03*
X012051Y019998D03*
X011751Y019998D03*
X010951Y020048D03*
X010651Y020048D03*
X010351Y020048D03*
X010331Y021048D03*
X010641Y021048D03*
X010951Y021048D03*
X011751Y021048D03*
X012051Y021048D03*
X012351Y021048D03*
X012601Y022148D03*
X011201Y024048D03*
X011451Y024448D03*
X006151Y022348D03*
X006051Y017548D03*
X006051Y017148D03*
X007651Y015148D03*
X008251Y015148D03*
X009051Y014748D03*
X009351Y014748D03*
X009651Y015098D03*
X008251Y014548D03*
X007651Y014548D03*
X006051Y014048D03*
X006051Y013648D03*
X007351Y012948D03*
X007951Y012948D03*
X005851Y011898D03*
X005451Y011898D03*
X005451Y010848D03*
X005851Y010848D03*
X006451Y010048D03*
X006851Y010048D03*
X006001Y009398D03*
X006451Y009048D03*
X006851Y009048D03*
X006001Y008998D03*
X007101Y008248D03*
X007151Y007748D03*
X007251Y007048D03*
X008301Y006798D03*
X006001Y005898D03*
X006001Y005498D03*
X011951Y004848D03*
X012251Y004548D03*
X012451Y005348D03*
X012851Y005348D03*
X010801Y009448D03*
X009851Y009748D03*
X009451Y009748D03*
X012351Y011948D03*
X012801Y012998D03*
X013101Y012998D03*
X014951Y012948D03*
X015401Y012948D03*
X015401Y013398D03*
X014951Y013398D03*
X014951Y013898D03*
X015401Y013898D03*
X015901Y013898D03*
X016351Y013898D03*
X016351Y014348D03*
X015901Y014348D03*
X015401Y014348D03*
X014951Y014348D03*
X015901Y013398D03*
X016351Y013398D03*
X016351Y012948D03*
X015901Y012948D03*
X018701Y012998D03*
X019001Y012998D03*
X020851Y012418D03*
X020851Y012118D03*
X023951Y013398D03*
X023951Y013698D03*
X025551Y013698D03*
X025601Y013998D03*
X025601Y014348D03*
X025451Y014798D03*
X025451Y015348D03*
X025451Y016698D03*
X025651Y017148D03*
X025311Y017498D03*
X025601Y017648D03*
X025951Y017648D03*
X026351Y017648D03*
X026951Y017648D03*
X027951Y017648D03*
X028551Y017648D03*
X029351Y017648D03*
X029951Y017648D03*
X030751Y017648D03*
X031501Y017648D03*
X032101Y017648D03*
X032501Y017648D03*
X032651Y016948D03*
X032651Y016398D03*
X032651Y015798D03*
X032651Y015148D03*
X032051Y014748D03*
X032351Y014248D03*
X032651Y014148D03*
X032651Y013548D03*
X032351Y013448D03*
X031851Y013248D03*
X031301Y013248D03*
X031151Y012648D03*
X031151Y012298D03*
X031551Y012248D03*
X031951Y012248D03*
X032101Y011898D03*
X032451Y011798D03*
X032451Y011198D03*
X032101Y011098D03*
X031901Y010448D03*
X031301Y010448D03*
X030901Y010548D03*
X030351Y010548D03*
X029851Y010548D03*
X029451Y010548D03*
X029101Y010548D03*
X028701Y010548D03*
X028001Y010548D03*
X025451Y010948D03*
X025451Y011948D03*
X025451Y012548D03*
X025451Y012898D03*
X020861Y014878D03*
X020861Y015178D03*
X019001Y014298D03*
X018701Y014298D03*
X013101Y014298D03*
X012801Y014298D03*
X010851Y013948D03*
X009651Y014398D03*
X016101Y018848D03*
X016401Y018848D03*
X018251Y018748D03*
X018551Y018748D03*
X026001Y018748D03*
X029001Y019348D03*
X029401Y019348D03*
X031401Y020698D03*
X031651Y021248D03*
X031951Y021648D03*
X032601Y021148D03*
X033001Y020848D03*
X033051Y020048D03*
X032851Y019748D03*
X032601Y019348D03*
X032351Y018998D03*
X033251Y019248D03*
X033851Y018848D03*
X034151Y017898D03*
X033851Y017448D03*
X035951Y018548D03*
X036301Y018598D03*
X036601Y018448D03*
X036901Y018598D03*
X037801Y018648D03*
X036551Y019548D03*
X035951Y019548D03*
X035251Y019748D03*
X034401Y019698D03*
X034401Y020298D03*
X034801Y020698D03*
X035501Y021298D03*
X036551Y021298D03*
X037151Y021298D03*
X038251Y021948D03*
X038251Y022448D03*
X038751Y022448D03*
X038751Y022948D03*
X038251Y022948D03*
X038251Y023548D03*
X038751Y023548D03*
X037551Y023648D03*
X034751Y022698D03*
X032051Y023648D03*
X037551Y020298D03*
X038851Y019798D03*
X039351Y020498D03*
X039051Y020748D03*
X039701Y020748D03*
X040151Y020498D03*
X040501Y020798D03*
X042651Y021048D03*
X042951Y020448D03*
X044551Y019598D03*
X044851Y019398D03*
X045401Y019598D03*
X045801Y018898D03*
X046051Y018548D03*
X045151Y018098D03*
X044751Y018098D03*
X044751Y017698D03*
X043851Y017148D03*
X044651Y016848D03*
X045651Y016948D03*
X046451Y017048D03*
X046451Y016548D03*
X047851Y016248D03*
X045151Y014148D03*
X045551Y013948D03*
X045951Y013948D03*
X045951Y013548D03*
X045551Y013548D03*
X044551Y014148D03*
X043651Y015348D03*
X042951Y015648D03*
X042551Y015648D03*
X042151Y015648D03*
X041751Y015348D03*
X039851Y015048D03*
X038651Y014748D03*
X038651Y014148D03*
X039351Y013948D03*
X041351Y013898D03*
X041701Y013898D03*
X041701Y013548D03*
X041351Y013548D03*
X041351Y012748D03*
X041651Y012748D03*
X041651Y012348D03*
X041351Y012348D03*
X042401Y011598D03*
X042701Y011598D03*
X043751Y011348D03*
X044151Y011348D03*
X044551Y011348D03*
X044551Y010948D03*
X044151Y010948D03*
X043751Y010948D03*
X042701Y010798D03*
X042401Y010798D03*
X041301Y010698D03*
X040051Y011148D03*
X040251Y011448D03*
X039651Y011148D03*
X039451Y011448D03*
X039851Y010448D03*
X039101Y009998D03*
X038801Y009998D03*
X038351Y010148D03*
X036851Y010448D03*
X036451Y010448D03*
X035901Y010498D03*
X035501Y010348D03*
X035501Y010048D03*
X035651Y009698D03*
X035951Y009698D03*
X036451Y009748D03*
X036851Y009748D03*
X038751Y009148D03*
X038751Y008848D03*
X039501Y008798D03*
X040601Y009298D03*
X040701Y008948D03*
X041051Y008898D03*
X041251Y009348D03*
X040851Y009748D03*
X041901Y009748D03*
X042551Y009998D03*
X042851Y009998D03*
X042951Y009148D03*
X042951Y008858D03*
X042201Y008788D03*
X042351Y008148D03*
X041251Y008048D03*
X040851Y008048D03*
X040451Y008048D03*
X040451Y007448D03*
X040851Y007448D03*
X041251Y007448D03*
X041251Y007048D03*
X040851Y007048D03*
X040451Y007048D03*
X040451Y006548D03*
X040851Y006548D03*
X041251Y006548D03*
X042101Y005998D03*
X042201Y005698D03*
X042951Y005598D03*
X042951Y005298D03*
X042001Y004998D03*
X041451Y005348D03*
X040851Y005298D03*
X040261Y005248D03*
X039501Y005098D03*
X039751Y004548D03*
X039101Y004498D03*
X038801Y004498D03*
X039501Y003948D03*
X039201Y003848D03*
X038801Y003498D03*
X038501Y003498D03*
X037751Y003548D03*
X037351Y003548D03*
X036951Y003548D03*
X035551Y003848D03*
X035151Y003848D03*
X034751Y003848D03*
X033851Y003848D03*
X033451Y003848D03*
X033051Y003848D03*
X033051Y003348D03*
X033451Y003348D03*
X033851Y003348D03*
X034751Y004248D03*
X035151Y004248D03*
X035551Y004248D03*
X035551Y005398D03*
X035551Y005798D03*
X034451Y006548D03*
X033251Y006348D03*
X033251Y005998D03*
X032851Y006348D03*
X032451Y006348D03*
X033251Y005598D03*
X033251Y005198D03*
X033251Y004848D03*
X032851Y004848D03*
X032451Y004848D03*
X036851Y006648D03*
X037151Y006648D03*
X037551Y006648D03*
X036851Y007248D03*
X036851Y007848D03*
X037151Y007848D03*
X037551Y007848D03*
X037851Y007848D03*
X038301Y007346D03*
X036351Y007848D03*
X032801Y008848D03*
X032401Y008848D03*
X032051Y008848D03*
X031651Y008848D03*
X031551Y009248D03*
X031851Y008348D03*
X031851Y007948D03*
X029401Y008898D03*
X029001Y008898D03*
X026201Y008448D03*
X025801Y008748D03*
X031551Y012648D03*
X031951Y012648D03*
X032751Y012948D03*
X034251Y013498D03*
X034251Y013798D03*
X034901Y013648D03*
X034851Y013248D03*
X034851Y012948D03*
X034301Y012698D03*
X034951Y012448D03*
X035701Y012198D03*
X036351Y011948D03*
X036851Y011448D03*
X036601Y011098D03*
X034701Y011448D03*
X034701Y010698D03*
X034701Y010348D03*
X034701Y010048D03*
X035851Y013098D03*
X035951Y013548D03*
X036201Y013848D03*
X035501Y013648D03*
X033851Y015048D03*
X034051Y015348D03*
X033801Y015698D03*
X034051Y016248D03*
X035051Y015298D03*
X035451Y015298D03*
X036051Y015348D03*
X036401Y016798D03*
X037101Y016948D03*
X036401Y017248D03*
X037851Y017148D03*
X037851Y016848D03*
X038951Y016648D03*
X039251Y016648D03*
X039551Y016648D03*
X039551Y016948D03*
X039551Y017248D03*
X040101Y017148D03*
X039551Y016348D03*
X039251Y016348D03*
X038951Y016348D03*
X041551Y018348D03*
X041951Y018348D03*
X041951Y018748D03*
X041551Y018748D03*
X041551Y019148D03*
X041951Y019148D03*
X043551Y019048D03*
X044251Y018948D03*
X043001Y018348D03*
X042951Y017548D03*
X042751Y017048D03*
X047351Y019898D03*
X046451Y020648D03*
X046451Y021248D03*
X046451Y021848D03*
X045101Y021548D03*
X043051Y023148D03*
X043251Y023648D03*
X045451Y023848D03*
X045551Y012748D03*
X045951Y012748D03*
X045951Y012348D03*
X045551Y012348D03*
X045151Y012148D03*
X044651Y012148D03*
X046051Y011698D03*
X046451Y010148D03*
X046751Y008948D03*
X046451Y008048D03*
X046651Y007648D03*
X047201Y006998D03*
X045751Y006948D03*
X045151Y007398D03*
X044851Y007848D03*
X044551Y007848D03*
X044151Y007848D03*
X043851Y007848D03*
X043401Y007150D03*
X043851Y006648D03*
X044151Y006648D03*
X044551Y006648D03*
X044851Y006648D03*
X044751Y005698D03*
X045401Y005298D03*
X045701Y005298D03*
X046751Y005148D03*
X047051Y005148D03*
X047051Y004748D03*
X046751Y004748D03*
X045701Y004498D03*
X045401Y004498D03*
X045401Y003998D03*
X045701Y003998D03*
X045701Y003198D03*
X045401Y003198D03*
X043651Y004448D03*
X042901Y004498D03*
X042601Y004498D03*
X042001Y003898D03*
X042351Y003648D03*
X041351Y003648D03*
X040951Y003898D03*
X040601Y003898D03*
X041401Y004448D03*
X041351Y003198D03*
X040951Y003198D03*
X040551Y003198D03*
X039201Y002798D03*
X038801Y002698D03*
X038501Y002698D03*
X040551Y001598D03*
X040951Y001598D03*
X041351Y001598D03*
X042651Y002198D03*
X042651Y002598D03*
X043651Y001748D03*
X043951Y001748D03*
X044251Y001748D03*
X044251Y001348D03*
X043951Y001348D03*
X043651Y001348D03*
X038751Y005348D03*
X038751Y005638D03*
X039501Y005708D03*
X045051Y008198D03*
D11*
X046951Y004148D03*
X045251Y001548D03*
X037051Y003048D03*
X032351Y008148D03*
X041651Y017648D03*
X010351Y023748D03*
X008851Y023748D03*
X008851Y021748D03*
X007351Y021748D03*
X007351Y020248D03*
X008851Y020248D03*
X005851Y020248D03*
D12*
X004001Y025598D02*
X004001Y000898D01*
X048701Y000898D01*
X048701Y025598D01*
X004001Y025598D01*
X004001Y025570D02*
X048701Y025570D01*
X048701Y025471D02*
X004001Y025471D01*
X004001Y025373D02*
X048701Y025373D01*
X048701Y025274D02*
X004001Y025274D01*
X004001Y025176D02*
X048701Y025176D01*
X048701Y025077D02*
X004001Y025077D01*
X004001Y024979D02*
X048701Y024979D01*
X048701Y024880D02*
X047501Y024880D01*
X047478Y024890D02*
X047223Y024890D01*
X046987Y024792D01*
X046806Y024612D01*
X046709Y024376D01*
X046709Y024120D01*
X046806Y023884D01*
X046987Y023704D01*
X047223Y023606D01*
X047478Y023606D01*
X047714Y023704D01*
X047895Y023884D01*
X047993Y024120D01*
X047993Y024376D01*
X047895Y024612D01*
X047714Y024792D01*
X047478Y024890D01*
X047725Y024782D02*
X048701Y024782D01*
X048701Y024683D02*
X047823Y024683D01*
X047906Y024585D02*
X048701Y024585D01*
X048701Y024486D02*
X047947Y024486D01*
X047988Y024388D02*
X048701Y024388D01*
X048701Y024289D02*
X047993Y024289D01*
X047993Y024191D02*
X048701Y024191D01*
X048701Y024092D02*
X047981Y024092D01*
X047940Y023994D02*
X048701Y023994D01*
X048701Y023895D02*
X047900Y023895D01*
X047808Y023797D02*
X048701Y023797D01*
X048701Y023698D02*
X047702Y023698D01*
X046999Y023698D02*
X010677Y023698D01*
X010677Y023683D02*
X010627Y023563D01*
X010535Y023471D01*
X010416Y023422D01*
X010286Y023422D01*
X010166Y023471D01*
X010074Y023563D01*
X010024Y023683D01*
X010024Y023813D01*
X010074Y023933D01*
X010166Y024024D01*
X010286Y024074D01*
X010416Y024074D01*
X010535Y024024D01*
X010627Y023933D01*
X010677Y023813D01*
X010677Y023683D01*
X010642Y023600D02*
X048701Y023600D01*
X048701Y023501D02*
X010566Y023501D01*
X010136Y023501D02*
X009066Y023501D01*
X009035Y023471D02*
X009127Y023563D01*
X009177Y023683D01*
X009177Y023813D01*
X009127Y023933D01*
X009035Y024024D01*
X008916Y024074D01*
X008786Y024074D01*
X008666Y024024D01*
X008574Y023933D01*
X008524Y023813D01*
X008524Y023683D01*
X008574Y023563D01*
X008666Y023471D01*
X008786Y023422D01*
X008916Y023422D01*
X009035Y023471D01*
X009142Y023600D02*
X010059Y023600D01*
X010024Y023698D02*
X009177Y023698D01*
X009177Y023797D02*
X010024Y023797D01*
X010059Y023895D02*
X009143Y023895D01*
X009066Y023994D02*
X010135Y023994D01*
X010566Y023994D02*
X010971Y023994D01*
X010971Y023953D02*
X011105Y023818D01*
X011296Y023818D01*
X011431Y023953D01*
X011431Y024143D01*
X011356Y024218D01*
X011546Y024218D01*
X011681Y024353D01*
X011681Y024543D01*
X011546Y024678D01*
X011355Y024678D01*
X011221Y024543D01*
X011221Y024353D01*
X011295Y024278D01*
X011105Y024278D01*
X010971Y024143D01*
X010971Y023953D01*
X011028Y023895D02*
X010643Y023895D01*
X010677Y023797D02*
X046893Y023797D01*
X046802Y023895D02*
X011373Y023895D01*
X011431Y023994D02*
X046761Y023994D01*
X046720Y024092D02*
X011431Y024092D01*
X011383Y024191D02*
X046709Y024191D01*
X046709Y024289D02*
X011617Y024289D01*
X011681Y024388D02*
X046714Y024388D01*
X046754Y024486D02*
X011681Y024486D01*
X011639Y024585D02*
X046795Y024585D01*
X046878Y024683D02*
X005823Y024683D01*
X005895Y024612D02*
X005714Y024792D01*
X005478Y024890D01*
X005223Y024890D01*
X004987Y024792D01*
X004806Y024612D01*
X004709Y024376D01*
X004709Y024120D01*
X004806Y023884D01*
X004987Y023704D01*
X005223Y023606D01*
X005478Y023606D01*
X005714Y023704D01*
X005895Y023884D01*
X005993Y024120D01*
X005993Y024376D01*
X005895Y024612D01*
X005906Y024585D02*
X011262Y024585D01*
X011221Y024486D02*
X005947Y024486D01*
X005988Y024388D02*
X011221Y024388D01*
X011284Y024289D02*
X005993Y024289D01*
X005993Y024191D02*
X011018Y024191D01*
X010971Y024092D02*
X005981Y024092D01*
X005940Y023994D02*
X008635Y023994D01*
X008559Y023895D02*
X005900Y023895D01*
X005808Y023797D02*
X008524Y023797D01*
X008524Y023698D02*
X005702Y023698D01*
X004999Y023698D02*
X004001Y023698D01*
X004001Y023600D02*
X008559Y023600D01*
X008636Y023501D02*
X004001Y023501D01*
X004001Y023403D02*
X048701Y023403D01*
X048701Y023304D02*
X043219Y023304D01*
X043281Y023243D02*
X043146Y023378D01*
X042955Y023378D01*
X042821Y023243D01*
X042821Y023053D01*
X042955Y022918D01*
X043146Y022918D01*
X043281Y023053D01*
X043281Y023243D01*
X043281Y023206D02*
X048701Y023206D01*
X048701Y023107D02*
X043281Y023107D01*
X043237Y023009D02*
X048701Y023009D01*
X048701Y022910D02*
X037116Y022910D01*
X037116Y022917D02*
X037063Y023044D01*
X036966Y023142D01*
X036838Y023195D01*
X036700Y023195D01*
X036573Y023142D01*
X036475Y023044D01*
X036422Y022917D01*
X036422Y022779D01*
X036475Y022651D01*
X036573Y022554D01*
X036700Y022501D01*
X036838Y022501D01*
X036966Y022554D01*
X037063Y022651D01*
X037116Y022779D01*
X037116Y022917D01*
X037078Y023009D02*
X042864Y023009D01*
X042821Y023107D02*
X037000Y023107D01*
X037116Y022812D02*
X048701Y022812D01*
X048701Y022713D02*
X037089Y022713D01*
X037027Y022615D02*
X048701Y022615D01*
X048701Y022516D02*
X036875Y022516D01*
X036663Y022516D02*
X034894Y022516D01*
X034846Y022468D02*
X034981Y022603D01*
X034981Y022793D01*
X034846Y022928D01*
X034655Y022928D01*
X034521Y022793D01*
X034521Y022603D01*
X034655Y022468D01*
X034846Y022468D01*
X034981Y022615D02*
X036512Y022615D01*
X036449Y022713D02*
X034981Y022713D01*
X034962Y022812D02*
X036422Y022812D01*
X036422Y022910D02*
X034863Y022910D01*
X034638Y022910D02*
X033179Y022910D01*
X033179Y022917D02*
X033126Y023044D01*
X033029Y023142D01*
X032901Y023195D01*
X032763Y023195D01*
X032636Y023142D01*
X032538Y023044D01*
X032485Y022917D01*
X032485Y022779D01*
X032538Y022651D01*
X032636Y022554D01*
X032763Y022501D01*
X032901Y022501D01*
X033029Y022554D01*
X033126Y022651D01*
X033179Y022779D01*
X033179Y022917D01*
X033141Y023009D02*
X036460Y023009D01*
X036538Y023107D02*
X033063Y023107D01*
X033179Y022812D02*
X034539Y022812D01*
X034521Y022713D02*
X033152Y022713D01*
X033090Y022615D02*
X034521Y022615D01*
X034607Y022516D02*
X032938Y022516D01*
X032726Y022516D02*
X004001Y022516D01*
X004001Y022418D02*
X048701Y022418D01*
X048701Y022319D02*
X012754Y022319D01*
X012696Y022378D02*
X012505Y022378D01*
X012371Y022243D01*
X012371Y022053D01*
X012505Y021918D01*
X012696Y021918D01*
X012831Y022053D01*
X012831Y022243D01*
X012696Y022378D01*
X012831Y022221D02*
X048701Y022221D01*
X048701Y022122D02*
X012831Y022122D01*
X012802Y022024D02*
X046301Y022024D01*
X046355Y022078D02*
X046221Y021943D01*
X046221Y021753D01*
X046355Y021618D01*
X046546Y021618D01*
X046681Y021753D01*
X046681Y021943D01*
X046546Y022078D01*
X046355Y022078D01*
X046221Y021925D02*
X012703Y021925D01*
X012498Y021925D02*
X007630Y021925D01*
X007627Y021933D02*
X007535Y022024D01*
X007416Y022074D01*
X007286Y022074D01*
X007166Y022024D01*
X007074Y021933D01*
X007024Y021813D01*
X007024Y021683D01*
X007074Y021563D01*
X007166Y021471D01*
X007286Y021422D01*
X007416Y021422D01*
X007535Y021471D01*
X007627Y021563D01*
X007677Y021683D01*
X007677Y021813D01*
X007627Y021933D01*
X007671Y021827D02*
X031804Y021827D01*
X031855Y021878D02*
X031721Y021743D01*
X031721Y021553D01*
X031855Y021418D01*
X032046Y021418D01*
X032181Y021553D01*
X032181Y021743D01*
X032046Y021878D01*
X031855Y021878D01*
X031721Y021728D02*
X007677Y021728D01*
X007655Y021630D02*
X031721Y021630D01*
X031742Y021531D02*
X007596Y021531D01*
X007443Y021433D02*
X031510Y021433D01*
X031555Y021478D02*
X031421Y021343D01*
X031421Y021153D01*
X031555Y021018D01*
X031746Y021018D01*
X031881Y021153D01*
X031881Y021343D01*
X031746Y021478D01*
X031555Y021478D01*
X031421Y021334D02*
X004001Y021334D01*
X004001Y021236D02*
X010193Y021236D01*
X010235Y021278D02*
X010101Y021143D01*
X010101Y020953D01*
X010235Y020818D01*
X010426Y020818D01*
X010486Y020878D01*
X010545Y020818D01*
X010736Y020818D01*
X010796Y020878D01*
X010855Y020818D01*
X011046Y020818D01*
X011181Y020953D01*
X011181Y021143D01*
X011046Y021278D01*
X010855Y021278D01*
X010796Y021218D01*
X010736Y021278D01*
X010545Y021278D01*
X010486Y021218D01*
X010426Y021278D01*
X010235Y021278D01*
X010101Y021137D02*
X004001Y021137D01*
X004001Y021039D02*
X010101Y021039D01*
X010113Y020940D02*
X004001Y020940D01*
X004001Y020842D02*
X010211Y020842D01*
X010450Y020842D02*
X010521Y020842D01*
X010760Y020842D02*
X010831Y020842D01*
X011070Y020842D02*
X011631Y020842D01*
X011655Y020818D02*
X011846Y020818D01*
X011901Y020873D01*
X011955Y020818D01*
X012146Y020818D01*
X012201Y020873D01*
X012255Y020818D01*
X012446Y020818D01*
X012581Y020953D01*
X012581Y021143D01*
X012446Y021278D01*
X012255Y021278D01*
X012201Y021223D01*
X012146Y021278D01*
X011955Y021278D01*
X011901Y021223D01*
X011846Y021278D01*
X011655Y021278D01*
X011521Y021143D01*
X011521Y020953D01*
X011655Y020818D01*
X011533Y020940D02*
X011168Y020940D01*
X011181Y021039D02*
X011521Y021039D01*
X011521Y021137D02*
X011181Y021137D01*
X011088Y021236D02*
X011613Y021236D01*
X011888Y021236D02*
X011913Y021236D01*
X012188Y021236D02*
X012213Y021236D01*
X012488Y021236D02*
X031421Y021236D01*
X031436Y021137D02*
X012581Y021137D01*
X012581Y021039D02*
X031534Y021039D01*
X031496Y020928D02*
X031305Y020928D01*
X031171Y020793D01*
X031171Y020603D01*
X031305Y020468D01*
X031496Y020468D01*
X031631Y020603D01*
X031631Y020793D01*
X031496Y020928D01*
X031582Y020842D02*
X032771Y020842D01*
X032771Y020753D02*
X032905Y020618D01*
X033096Y020618D01*
X033231Y020753D01*
X033231Y020943D01*
X033096Y021078D01*
X032905Y021078D01*
X032771Y020943D01*
X032771Y020753D01*
X032780Y020743D02*
X031631Y020743D01*
X031631Y020645D02*
X032878Y020645D01*
X033123Y020645D02*
X034571Y020645D01*
X034571Y020603D02*
X034705Y020468D01*
X034896Y020468D01*
X035031Y020603D01*
X035031Y020793D01*
X034896Y020928D01*
X034705Y020928D01*
X034571Y020793D01*
X034571Y020603D01*
X034627Y020546D02*
X031574Y020546D01*
X031227Y020546D02*
X008982Y020546D01*
X009035Y020524D02*
X008916Y020574D01*
X008786Y020574D01*
X008666Y020524D01*
X008574Y020433D01*
X008524Y020313D01*
X008524Y020183D01*
X008574Y020063D01*
X008666Y019971D01*
X008786Y019922D01*
X008916Y019922D01*
X009035Y019971D01*
X009127Y020063D01*
X009177Y020183D01*
X009177Y020313D01*
X009127Y020433D01*
X009035Y020524D01*
X009112Y020448D02*
X034225Y020448D01*
X034171Y020393D02*
X034171Y020203D01*
X034305Y020068D01*
X034496Y020068D01*
X034631Y020203D01*
X034631Y020393D01*
X034496Y020528D01*
X034305Y020528D01*
X034171Y020393D01*
X034171Y020349D02*
X009162Y020349D01*
X009177Y020251D02*
X010228Y020251D01*
X010255Y020278D02*
X010121Y020143D01*
X010121Y019953D01*
X010255Y019818D01*
X010446Y019818D01*
X010501Y019873D01*
X010555Y019818D01*
X010746Y019818D01*
X010801Y019873D01*
X010855Y019818D01*
X011046Y019818D01*
X011181Y019953D01*
X011181Y020143D01*
X011046Y020278D01*
X010855Y020278D01*
X010801Y020223D01*
X010746Y020278D01*
X010555Y020278D01*
X010501Y020223D01*
X010446Y020278D01*
X010255Y020278D01*
X010130Y020152D02*
X009164Y020152D01*
X009118Y020054D02*
X010121Y020054D01*
X010121Y019955D02*
X008997Y019955D01*
X008704Y019955D02*
X007497Y019955D01*
X007535Y019971D02*
X007627Y020063D01*
X007677Y020183D01*
X007677Y020313D01*
X007627Y020433D01*
X007535Y020524D01*
X007416Y020574D01*
X007286Y020574D01*
X007166Y020524D01*
X007074Y020433D01*
X007024Y020313D01*
X007024Y020183D01*
X007074Y020063D01*
X007166Y019971D01*
X007286Y019922D01*
X007416Y019922D01*
X007535Y019971D01*
X007618Y020054D02*
X008583Y020054D01*
X008537Y020152D02*
X007664Y020152D01*
X007677Y020251D02*
X008524Y020251D01*
X008540Y020349D02*
X007662Y020349D01*
X007612Y020448D02*
X008589Y020448D01*
X008719Y020546D02*
X007482Y020546D01*
X007219Y020546D02*
X005982Y020546D01*
X006035Y020524D02*
X005916Y020574D01*
X005786Y020574D01*
X005666Y020524D01*
X005574Y020433D01*
X005524Y020313D01*
X005524Y020183D01*
X005574Y020063D01*
X005666Y019971D01*
X005786Y019922D01*
X005916Y019922D01*
X006035Y019971D01*
X006127Y020063D01*
X006177Y020183D01*
X006177Y020313D01*
X006127Y020433D01*
X006035Y020524D01*
X006112Y020448D02*
X007089Y020448D01*
X007040Y020349D02*
X006162Y020349D01*
X006177Y020251D02*
X007024Y020251D01*
X007037Y020152D02*
X006164Y020152D01*
X006118Y020054D02*
X007083Y020054D01*
X007204Y019955D02*
X005997Y019955D01*
X005704Y019955D02*
X004001Y019955D01*
X004001Y019857D02*
X010216Y019857D01*
X010485Y019857D02*
X010516Y019857D01*
X010785Y019857D02*
X010816Y019857D01*
X011085Y019857D02*
X011566Y019857D01*
X011521Y019903D02*
X011655Y019768D01*
X011846Y019768D01*
X011901Y019823D01*
X011955Y019768D01*
X012146Y019768D01*
X012201Y019823D01*
X012255Y019768D01*
X012446Y019768D01*
X012581Y019903D01*
X012581Y020093D01*
X012446Y020228D01*
X012255Y020228D01*
X012201Y020173D01*
X012146Y020228D01*
X011955Y020228D01*
X011901Y020173D01*
X011846Y020228D01*
X011655Y020228D01*
X011521Y020093D01*
X011521Y019903D01*
X011521Y019955D02*
X011181Y019955D01*
X011181Y020054D02*
X011521Y020054D01*
X011580Y020152D02*
X011171Y020152D01*
X011073Y020251D02*
X032928Y020251D01*
X032955Y020278D02*
X032821Y020143D01*
X032821Y019978D01*
X032755Y019978D01*
X032621Y019843D01*
X032621Y019653D01*
X032695Y019578D01*
X032505Y019578D01*
X032371Y019443D01*
X032371Y019253D01*
X032395Y019228D01*
X032255Y019228D01*
X032121Y019093D01*
X032121Y018903D01*
X032255Y018768D01*
X032446Y018768D01*
X032581Y018903D01*
X032581Y019093D01*
X032556Y019118D01*
X032696Y019118D01*
X032831Y019253D01*
X032831Y019443D01*
X032756Y019518D01*
X032946Y019518D01*
X033081Y019653D01*
X033081Y019818D01*
X033146Y019818D01*
X033281Y019953D01*
X033281Y020143D01*
X033146Y020278D01*
X032955Y020278D01*
X032830Y020152D02*
X012521Y020152D01*
X012581Y020054D02*
X032821Y020054D01*
X032733Y019955D02*
X012581Y019955D01*
X012535Y019857D02*
X012684Y019857D01*
X012705Y019878D02*
X012571Y019743D01*
X012571Y019553D01*
X012705Y019418D01*
X012896Y019418D01*
X013031Y019553D01*
X013031Y019743D01*
X012896Y019878D01*
X012705Y019878D01*
X012586Y019758D02*
X004001Y019758D01*
X004001Y019660D02*
X012571Y019660D01*
X012571Y019561D02*
X004001Y019561D01*
X004001Y019463D02*
X012660Y019463D01*
X012941Y019463D02*
X029190Y019463D01*
X029171Y019443D02*
X029171Y019253D01*
X029305Y019118D01*
X029496Y019118D01*
X029631Y019253D01*
X029631Y019443D01*
X029496Y019578D01*
X029305Y019578D01*
X029171Y019443D01*
X029171Y019364D02*
X004001Y019364D01*
X004001Y019266D02*
X029171Y019266D01*
X029256Y019167D02*
X004001Y019167D01*
X004001Y019069D02*
X012546Y019069D01*
X012555Y019078D02*
X012421Y018943D01*
X012421Y018753D01*
X012555Y018618D01*
X012746Y018618D01*
X012881Y018753D01*
X012881Y018943D01*
X012746Y019078D01*
X012555Y019078D01*
X012448Y018970D02*
X004001Y018970D01*
X004001Y018872D02*
X012421Y018872D01*
X012421Y018773D02*
X004001Y018773D01*
X004001Y018675D02*
X012498Y018675D01*
X012803Y018675D02*
X013798Y018675D01*
X013855Y018618D02*
X013721Y018753D01*
X013721Y018943D01*
X013855Y019078D01*
X014046Y019078D01*
X014181Y018943D01*
X014181Y018753D01*
X014046Y018618D01*
X013855Y018618D01*
X013721Y018773D02*
X012881Y018773D01*
X012881Y018872D02*
X013721Y018872D01*
X013748Y018970D02*
X012853Y018970D01*
X012755Y019069D02*
X013846Y019069D01*
X014055Y019069D02*
X015996Y019069D01*
X016005Y019078D02*
X015871Y018943D01*
X015871Y018753D01*
X016005Y018618D01*
X016196Y018618D01*
X016331Y018753D01*
X016331Y018943D01*
X016196Y019078D01*
X016005Y019078D01*
X015898Y018970D02*
X014153Y018970D01*
X014181Y018872D02*
X015871Y018872D01*
X015871Y018773D02*
X014181Y018773D01*
X014103Y018675D02*
X015948Y018675D01*
X016253Y018675D02*
X018021Y018675D01*
X018021Y018653D02*
X018155Y018518D01*
X018346Y018518D01*
X018481Y018653D01*
X018481Y018843D01*
X018346Y018978D01*
X018155Y018978D01*
X018021Y018843D01*
X018021Y018653D01*
X018097Y018576D02*
X004001Y018576D01*
X004001Y018478D02*
X035721Y018478D01*
X035721Y018453D02*
X035855Y018318D01*
X036046Y018318D01*
X036151Y018423D01*
X036205Y018368D01*
X036371Y018368D01*
X036371Y018353D01*
X036505Y018218D01*
X036696Y018218D01*
X036831Y018353D01*
X036831Y018368D01*
X036996Y018368D01*
X037131Y018503D01*
X037131Y018693D01*
X036996Y018828D01*
X036805Y018828D01*
X036671Y018693D01*
X036671Y018678D01*
X036531Y018678D01*
X036531Y018693D01*
X036396Y018828D01*
X036205Y018828D01*
X036101Y018723D01*
X036046Y018778D01*
X035855Y018778D01*
X035721Y018643D01*
X035721Y018453D01*
X035794Y018379D02*
X009944Y018379D01*
X009981Y018343D02*
X009846Y018478D01*
X009655Y018478D01*
X009521Y018343D01*
X009521Y018153D01*
X009655Y018018D01*
X009846Y018018D01*
X009981Y018153D01*
X009981Y018343D01*
X009981Y018281D02*
X036442Y018281D01*
X036194Y018379D02*
X036107Y018379D01*
X036151Y018773D02*
X036050Y018773D01*
X035851Y018773D02*
X034081Y018773D01*
X034081Y018753D02*
X033946Y018618D01*
X033755Y018618D01*
X033621Y018753D01*
X033621Y018943D01*
X033755Y019078D01*
X033946Y019078D01*
X034081Y018943D01*
X034081Y018753D01*
X034003Y018675D02*
X035752Y018675D01*
X035721Y018576D02*
X026154Y018576D01*
X026096Y018518D02*
X026231Y018653D01*
X026231Y018843D01*
X026096Y018978D01*
X025905Y018978D01*
X025771Y018843D01*
X025771Y018653D01*
X025905Y018518D01*
X026096Y018518D01*
X026231Y018675D02*
X033698Y018675D01*
X033621Y018773D02*
X032451Y018773D01*
X032550Y018872D02*
X033621Y018872D01*
X033648Y018970D02*
X032581Y018970D01*
X032581Y019069D02*
X033104Y019069D01*
X033155Y019018D02*
X033346Y019018D01*
X033481Y019153D01*
X033481Y019343D01*
X033346Y019478D01*
X033155Y019478D01*
X033021Y019343D01*
X033021Y019153D01*
X033155Y019018D01*
X033021Y019167D02*
X032745Y019167D01*
X032831Y019266D02*
X033021Y019266D01*
X033042Y019364D02*
X032831Y019364D01*
X032811Y019463D02*
X033140Y019463D01*
X032989Y019561D02*
X035112Y019561D01*
X035155Y019518D02*
X035346Y019518D01*
X035481Y019653D01*
X035481Y019843D01*
X035346Y019978D01*
X035155Y019978D01*
X035021Y019843D01*
X035021Y019653D01*
X035155Y019518D01*
X035021Y019660D02*
X033081Y019660D01*
X033081Y019758D02*
X035021Y019758D01*
X035034Y019857D02*
X033185Y019857D01*
X033281Y019955D02*
X035133Y019955D01*
X035368Y019955D02*
X038683Y019955D01*
X038621Y019893D02*
X038755Y020028D01*
X038946Y020028D01*
X039081Y019893D01*
X039081Y019703D01*
X038946Y019568D01*
X038755Y019568D01*
X038621Y019703D01*
X038621Y019893D01*
X038621Y019857D02*
X035467Y019857D01*
X035481Y019758D02*
X035836Y019758D01*
X035855Y019778D02*
X035721Y019643D01*
X035721Y019453D01*
X035855Y019318D01*
X036046Y019318D01*
X036181Y019453D01*
X036181Y019643D01*
X036046Y019778D01*
X035855Y019778D01*
X035737Y019660D02*
X035481Y019660D01*
X035389Y019561D02*
X035721Y019561D01*
X035721Y019463D02*
X033361Y019463D01*
X033459Y019364D02*
X035809Y019364D01*
X036092Y019364D02*
X036409Y019364D01*
X036455Y019318D02*
X036646Y019318D01*
X036781Y019453D01*
X036781Y019643D01*
X036646Y019778D01*
X036455Y019778D01*
X036321Y019643D01*
X036321Y019453D01*
X036455Y019318D01*
X036321Y019463D02*
X036181Y019463D01*
X036181Y019561D02*
X036321Y019561D01*
X036337Y019660D02*
X036164Y019660D01*
X036065Y019758D02*
X036436Y019758D01*
X036665Y019758D02*
X038621Y019758D01*
X038663Y019660D02*
X036764Y019660D01*
X036781Y019561D02*
X044689Y019561D01*
X044755Y019628D02*
X044621Y019493D01*
X044621Y019303D01*
X044755Y019168D01*
X044946Y019168D01*
X045081Y019303D01*
X045081Y019493D01*
X044946Y019628D01*
X044755Y019628D01*
X044621Y019463D02*
X036781Y019463D01*
X036692Y019364D02*
X041442Y019364D01*
X041455Y019378D02*
X041321Y019243D01*
X041321Y019053D01*
X041425Y018948D01*
X041321Y018843D01*
X041321Y018653D01*
X041425Y018548D01*
X041321Y018443D01*
X041321Y018253D01*
X041455Y018118D01*
X041646Y018118D01*
X041751Y018223D01*
X041855Y018118D01*
X042046Y018118D01*
X042181Y018253D01*
X042181Y018443D01*
X042076Y018548D01*
X042181Y018653D01*
X042181Y018843D01*
X042076Y018948D01*
X042181Y019053D01*
X042181Y019243D01*
X042046Y019378D01*
X041855Y019378D01*
X041751Y019273D01*
X041646Y019378D01*
X041455Y019378D01*
X041343Y019266D02*
X033481Y019266D01*
X033481Y019167D02*
X041321Y019167D01*
X041321Y019069D02*
X033955Y019069D01*
X034053Y018970D02*
X041403Y018970D01*
X041349Y018872D02*
X034081Y018872D01*
X033746Y019069D02*
X033397Y019069D01*
X032489Y019561D02*
X029512Y019561D01*
X029611Y019463D02*
X032390Y019463D01*
X032371Y019364D02*
X029631Y019364D01*
X029631Y019266D02*
X032371Y019266D01*
X032195Y019167D02*
X029545Y019167D01*
X029289Y019561D02*
X013031Y019561D01*
X013031Y019660D02*
X032621Y019660D01*
X032621Y019758D02*
X013015Y019758D01*
X012917Y019857D02*
X032634Y019857D01*
X033173Y020251D02*
X034171Y020251D01*
X034221Y020152D02*
X033271Y020152D01*
X033281Y020054D02*
X048701Y020054D01*
X048701Y020152D02*
X034580Y020152D01*
X034631Y020251D02*
X042822Y020251D01*
X042855Y020218D02*
X043046Y020218D01*
X043181Y020353D01*
X043181Y020543D01*
X043046Y020678D01*
X042855Y020678D01*
X042721Y020543D01*
X042721Y020353D01*
X042855Y020218D01*
X042724Y020349D02*
X034631Y020349D01*
X034576Y020448D02*
X042721Y020448D01*
X042724Y020546D02*
X034974Y020546D01*
X035031Y020645D02*
X042822Y020645D01*
X042746Y020818D02*
X042881Y020953D01*
X042881Y021143D01*
X042746Y021278D01*
X042555Y021278D01*
X042421Y021143D01*
X042421Y020953D01*
X042555Y020818D01*
X042746Y020818D01*
X042770Y020842D02*
X046319Y020842D01*
X046355Y020878D02*
X046221Y020743D01*
X046221Y020553D01*
X046355Y020418D01*
X046546Y020418D01*
X046681Y020553D01*
X046681Y020743D01*
X046546Y020878D01*
X046355Y020878D01*
X046355Y021018D02*
X046546Y021018D01*
X046681Y021153D01*
X046681Y021343D01*
X046546Y021478D01*
X046355Y021478D01*
X046221Y021343D01*
X046221Y021153D01*
X046355Y021018D01*
X046334Y021039D02*
X042881Y021039D01*
X042881Y021137D02*
X046236Y021137D01*
X046221Y021236D02*
X042788Y021236D01*
X042513Y021236D02*
X037381Y021236D01*
X037381Y021203D02*
X037246Y021068D01*
X037055Y021068D01*
X036921Y021203D01*
X036921Y021393D01*
X037055Y021528D01*
X037246Y021528D01*
X037381Y021393D01*
X037381Y021203D01*
X037315Y021137D02*
X042421Y021137D01*
X042421Y021039D02*
X033135Y021039D01*
X033231Y020940D02*
X042433Y020940D01*
X042531Y020842D02*
X034982Y020842D01*
X035031Y020743D02*
X046221Y020743D01*
X046221Y020645D02*
X043079Y020645D01*
X043177Y020546D02*
X046227Y020546D01*
X046325Y020448D02*
X043181Y020448D01*
X043177Y020349D02*
X048701Y020349D01*
X048701Y020251D02*
X043079Y020251D01*
X042868Y020940D02*
X048701Y020940D01*
X048701Y020842D02*
X046582Y020842D01*
X046680Y020743D02*
X048701Y020743D01*
X048701Y020645D02*
X046681Y020645D01*
X046674Y020546D02*
X048701Y020546D01*
X048701Y020448D02*
X046576Y020448D01*
X046567Y021039D02*
X048701Y021039D01*
X048701Y021137D02*
X046665Y021137D01*
X046681Y021236D02*
X048701Y021236D01*
X048701Y021334D02*
X046681Y021334D01*
X046591Y021433D02*
X048701Y021433D01*
X048701Y021531D02*
X045331Y021531D01*
X045331Y021453D02*
X045331Y021643D01*
X045196Y021778D01*
X045005Y021778D01*
X044871Y021643D01*
X044871Y021453D01*
X045005Y021318D01*
X045196Y021318D01*
X045331Y021453D01*
X045311Y021433D02*
X046310Y021433D01*
X046221Y021334D02*
X045212Y021334D01*
X044989Y021334D02*
X037381Y021334D01*
X037341Y021433D02*
X044890Y021433D01*
X044871Y021531D02*
X032159Y021531D01*
X032181Y021630D02*
X044871Y021630D01*
X044956Y021728D02*
X032181Y021728D01*
X032097Y021827D02*
X046221Y021827D01*
X046245Y021728D02*
X045245Y021728D01*
X045331Y021630D02*
X046343Y021630D01*
X046558Y021630D02*
X048701Y021630D01*
X048701Y021728D02*
X046656Y021728D01*
X046681Y021827D02*
X048701Y021827D01*
X048701Y021925D02*
X046681Y021925D01*
X046600Y022024D02*
X048701Y022024D01*
X048701Y019955D02*
X039018Y019955D01*
X039081Y019857D02*
X048701Y019857D01*
X048701Y019758D02*
X039081Y019758D01*
X039038Y019660D02*
X048701Y019660D01*
X048701Y019561D02*
X045012Y019561D01*
X045081Y019463D02*
X048701Y019463D01*
X048701Y019364D02*
X045081Y019364D01*
X045044Y019266D02*
X048701Y019266D01*
X048701Y019167D02*
X044356Y019167D01*
X044346Y019178D02*
X044155Y019178D01*
X044021Y019043D01*
X044021Y018853D01*
X044155Y018718D01*
X044346Y018718D01*
X044481Y018853D01*
X044481Y019043D01*
X044346Y019178D01*
X044455Y019069D02*
X045646Y019069D01*
X045705Y019128D02*
X045571Y018993D01*
X045571Y018803D01*
X045705Y018668D01*
X045845Y018668D01*
X045821Y018643D01*
X045821Y018453D01*
X045955Y018318D01*
X046146Y018318D01*
X046281Y018453D01*
X046281Y018643D01*
X046146Y018778D01*
X046006Y018778D01*
X046031Y018803D01*
X046031Y018993D01*
X045896Y019128D01*
X045705Y019128D01*
X045571Y018970D02*
X044481Y018970D01*
X044481Y018872D02*
X045571Y018872D01*
X045600Y018773D02*
X044401Y018773D01*
X044100Y018773D02*
X042181Y018773D01*
X042181Y018675D02*
X045698Y018675D01*
X045821Y018576D02*
X043097Y018576D01*
X043096Y018578D02*
X042905Y018578D01*
X042771Y018443D01*
X042771Y018253D01*
X042905Y018118D01*
X043096Y018118D01*
X043231Y018253D01*
X043231Y018443D01*
X043096Y018578D01*
X043196Y018478D02*
X045821Y018478D01*
X045894Y018379D02*
X043231Y018379D01*
X043231Y018281D02*
X048701Y018281D01*
X048701Y018379D02*
X046207Y018379D01*
X046281Y018478D02*
X048701Y018478D01*
X048701Y018576D02*
X046281Y018576D01*
X046249Y018675D02*
X048701Y018675D01*
X048701Y018773D02*
X046150Y018773D01*
X046031Y018872D02*
X048701Y018872D01*
X048701Y018970D02*
X046031Y018970D01*
X045955Y019069D02*
X048701Y019069D01*
X048701Y018182D02*
X043160Y018182D01*
X042841Y018182D02*
X042110Y018182D01*
X042181Y018281D02*
X042771Y018281D01*
X042771Y018379D02*
X042181Y018379D01*
X042146Y018478D02*
X042805Y018478D01*
X042904Y018576D02*
X042104Y018576D01*
X041791Y018182D02*
X041710Y018182D01*
X041716Y017974D02*
X041586Y017974D01*
X041466Y017924D01*
X041374Y017833D01*
X041324Y017713D01*
X041324Y017583D01*
X041374Y017463D01*
X041466Y017371D01*
X041586Y017322D01*
X041716Y017322D01*
X041835Y017371D01*
X041927Y017463D01*
X041977Y017583D01*
X041977Y017713D01*
X041927Y017833D01*
X041835Y017924D01*
X041716Y017974D01*
X041873Y017887D02*
X048701Y017887D01*
X048701Y017985D02*
X034381Y017985D01*
X034381Y017993D02*
X034246Y018128D01*
X034055Y018128D01*
X033921Y017993D01*
X033921Y017803D01*
X034055Y017668D01*
X034246Y017668D01*
X034381Y017803D01*
X034381Y017993D01*
X034381Y017887D02*
X041428Y017887D01*
X041356Y017788D02*
X034366Y017788D01*
X034268Y017690D02*
X041324Y017690D01*
X041324Y017591D02*
X034032Y017591D01*
X034081Y017543D02*
X033946Y017678D01*
X033755Y017678D01*
X033621Y017543D01*
X033621Y017353D01*
X033755Y017218D01*
X033946Y017218D01*
X034081Y017353D01*
X034081Y017543D01*
X034081Y017493D02*
X041362Y017493D01*
X041443Y017394D02*
X039729Y017394D01*
X039781Y017343D02*
X039646Y017478D01*
X039455Y017478D01*
X039321Y017343D01*
X039321Y017153D01*
X039375Y017098D01*
X039321Y017043D01*
X039321Y016878D01*
X039155Y016878D01*
X039101Y016823D01*
X039046Y016878D01*
X038855Y016878D01*
X038721Y016743D01*
X038721Y016553D01*
X038775Y016498D01*
X038721Y016443D01*
X038721Y016253D01*
X038855Y016118D01*
X039046Y016118D01*
X039101Y016173D01*
X039155Y016118D01*
X039346Y016118D01*
X039401Y016173D01*
X039455Y016118D01*
X039646Y016118D01*
X039781Y016253D01*
X039781Y016443D01*
X039726Y016498D01*
X039781Y016553D01*
X039781Y016743D01*
X039726Y016798D01*
X039781Y016853D01*
X039781Y017043D01*
X039726Y017098D01*
X039781Y017153D01*
X039781Y017343D01*
X039781Y017296D02*
X043673Y017296D01*
X043621Y017243D02*
X043621Y017053D01*
X043755Y016918D01*
X043946Y016918D01*
X044081Y017053D01*
X044081Y017243D01*
X043946Y017378D01*
X043755Y017378D01*
X043621Y017243D01*
X043621Y017197D02*
X042926Y017197D01*
X042981Y017143D02*
X042846Y017278D01*
X042655Y017278D01*
X042521Y017143D01*
X042521Y016953D01*
X042655Y016818D01*
X042846Y016818D01*
X042981Y016953D01*
X042981Y017143D01*
X042981Y017099D02*
X043621Y017099D01*
X043673Y017000D02*
X042981Y017000D01*
X042930Y016902D02*
X044421Y016902D01*
X044421Y016943D02*
X044421Y016753D01*
X044555Y016618D01*
X044746Y016618D01*
X044881Y016753D01*
X044881Y016943D01*
X044746Y017078D01*
X044555Y017078D01*
X044421Y016943D01*
X044478Y017000D02*
X044028Y017000D01*
X044081Y017099D02*
X045476Y017099D01*
X045421Y017043D02*
X045421Y016853D01*
X045555Y016718D01*
X045746Y016718D01*
X045881Y016853D01*
X045881Y017043D01*
X045746Y017178D01*
X045555Y017178D01*
X045421Y017043D01*
X045421Y017000D02*
X044823Y017000D01*
X044881Y016902D02*
X045421Y016902D01*
X045470Y016803D02*
X044881Y016803D01*
X044833Y016705D02*
X046282Y016705D01*
X046221Y016643D02*
X046221Y016453D01*
X046355Y016318D01*
X046546Y016318D01*
X046681Y016453D01*
X046681Y016643D01*
X046546Y016778D01*
X046355Y016778D01*
X046221Y016643D01*
X046221Y016606D02*
X039781Y016606D01*
X039781Y016705D02*
X044468Y016705D01*
X044421Y016803D02*
X039731Y016803D01*
X039781Y016902D02*
X042571Y016902D01*
X042521Y017000D02*
X039781Y017000D01*
X039727Y017099D02*
X042521Y017099D01*
X042575Y017197D02*
X039781Y017197D01*
X039374Y017099D02*
X037275Y017099D01*
X037331Y017043D02*
X037196Y017178D01*
X037005Y017178D01*
X036871Y017043D01*
X036871Y016853D01*
X037005Y016718D01*
X037196Y016718D01*
X037331Y016853D01*
X037331Y017043D01*
X037331Y017000D02*
X039321Y017000D01*
X039321Y016902D02*
X037331Y016902D01*
X037281Y016803D02*
X038781Y016803D01*
X038721Y016705D02*
X004001Y016705D01*
X004001Y016803D02*
X032470Y016803D01*
X032421Y016853D02*
X032555Y016718D01*
X032746Y016718D01*
X032881Y016853D01*
X032881Y017043D01*
X032746Y017178D01*
X032555Y017178D01*
X032421Y017043D01*
X032421Y016853D01*
X032421Y016902D02*
X004001Y016902D01*
X004001Y017000D02*
X025473Y017000D01*
X025421Y017053D02*
X025555Y016918D01*
X025746Y016918D01*
X025881Y017053D01*
X025881Y017243D01*
X025746Y017378D01*
X025555Y017378D01*
X025421Y017243D01*
X025421Y017053D01*
X025421Y017099D02*
X004001Y017099D01*
X004001Y017197D02*
X025421Y017197D01*
X025406Y017268D02*
X025541Y017403D01*
X025541Y017593D01*
X025406Y017728D01*
X025215Y017728D01*
X025081Y017593D01*
X025081Y017403D01*
X025215Y017268D01*
X025406Y017268D01*
X025434Y017296D02*
X025473Y017296D01*
X025532Y017394D02*
X033621Y017394D01*
X033621Y017493D02*
X032271Y017493D01*
X032331Y017553D02*
X032196Y017418D01*
X032005Y017418D01*
X031871Y017553D01*
X031871Y017743D01*
X032005Y017878D01*
X032196Y017878D01*
X032331Y017743D01*
X032331Y017553D01*
X032331Y017591D02*
X033669Y017591D01*
X033935Y017788D02*
X032285Y017788D01*
X032331Y017690D02*
X034033Y017690D01*
X033921Y017887D02*
X004001Y017887D01*
X004001Y017985D02*
X033921Y017985D01*
X034011Y018084D02*
X009912Y018084D01*
X009981Y018182D02*
X041391Y018182D01*
X041321Y018281D02*
X036759Y018281D01*
X037007Y018379D02*
X041321Y018379D01*
X041355Y018478D02*
X037106Y018478D01*
X037131Y018576D02*
X041397Y018576D01*
X041321Y018675D02*
X037131Y018675D01*
X037050Y018773D02*
X041321Y018773D01*
X041659Y019364D02*
X041842Y019364D01*
X042059Y019364D02*
X044621Y019364D01*
X044657Y019266D02*
X042158Y019266D01*
X042181Y019167D02*
X044145Y019167D01*
X044046Y019069D02*
X042181Y019069D01*
X042098Y018970D02*
X044021Y018970D01*
X044021Y018872D02*
X042152Y018872D01*
X041946Y017788D02*
X048701Y017788D01*
X048701Y017690D02*
X041977Y017690D01*
X041977Y017591D02*
X048701Y017591D01*
X048701Y017493D02*
X041940Y017493D01*
X041859Y017394D02*
X048701Y017394D01*
X048701Y017296D02*
X044028Y017296D01*
X044081Y017197D02*
X048701Y017197D01*
X048701Y017099D02*
X045825Y017099D01*
X045881Y017000D02*
X048701Y017000D01*
X048701Y016902D02*
X045881Y016902D01*
X045831Y016803D02*
X048701Y016803D01*
X048701Y016705D02*
X046619Y016705D01*
X046681Y016606D02*
X048701Y016606D01*
X048701Y016508D02*
X046681Y016508D01*
X046637Y016409D02*
X047687Y016409D01*
X047621Y016343D02*
X047621Y016153D01*
X047755Y016018D01*
X047946Y016018D01*
X048081Y016153D01*
X048081Y016343D01*
X047946Y016478D01*
X047755Y016478D01*
X047621Y016343D01*
X047621Y016311D02*
X039781Y016311D01*
X039781Y016409D02*
X046264Y016409D01*
X046221Y016508D02*
X039736Y016508D01*
X039740Y016212D02*
X047621Y016212D01*
X047659Y016114D02*
X034242Y016114D01*
X034281Y016153D02*
X034146Y016018D01*
X033955Y016018D01*
X033821Y016153D01*
X033821Y016343D01*
X033955Y016478D01*
X034146Y016478D01*
X034281Y016343D01*
X034281Y016153D01*
X034281Y016212D02*
X038761Y016212D01*
X038721Y016311D02*
X034281Y016311D01*
X034214Y016409D02*
X038721Y016409D01*
X038765Y016508D02*
X010631Y016508D01*
X010631Y016543D02*
X010631Y016353D01*
X010496Y016218D01*
X010305Y016218D01*
X010171Y016353D01*
X010171Y016543D01*
X010305Y016678D01*
X010496Y016678D01*
X010631Y016543D01*
X010567Y016606D02*
X038721Y016606D01*
X039321Y017197D02*
X036631Y017197D01*
X036631Y017153D02*
X036496Y017018D01*
X036305Y017018D01*
X036171Y017153D01*
X036171Y017343D01*
X036305Y017478D01*
X036496Y017478D01*
X036631Y017343D01*
X036631Y017153D01*
X036577Y017099D02*
X036926Y017099D01*
X036871Y017000D02*
X032881Y017000D01*
X032881Y016902D02*
X036871Y016902D01*
X036920Y016803D02*
X032831Y016803D01*
X032825Y017099D02*
X036224Y017099D01*
X036171Y017197D02*
X025881Y017197D01*
X025881Y017099D02*
X032476Y017099D01*
X032421Y017000D02*
X025828Y017000D01*
X025828Y017296D02*
X033677Y017296D01*
X034024Y017296D02*
X036171Y017296D01*
X036222Y017394D02*
X034081Y017394D01*
X034290Y018084D02*
X048701Y018084D01*
X048701Y016409D02*
X048014Y016409D01*
X048081Y016311D02*
X048701Y016311D01*
X048701Y016212D02*
X048081Y016212D01*
X048042Y016114D02*
X048701Y016114D01*
X048701Y016015D02*
X032758Y016015D01*
X032746Y016028D02*
X032881Y015893D01*
X032881Y015703D01*
X032746Y015568D01*
X032555Y015568D01*
X032421Y015703D01*
X032421Y015893D01*
X032555Y016028D01*
X032746Y016028D01*
X032857Y015917D02*
X033694Y015917D01*
X033705Y015928D02*
X033571Y015793D01*
X033571Y015603D01*
X033705Y015468D01*
X033845Y015468D01*
X033821Y015443D01*
X033821Y015278D01*
X033755Y015278D01*
X033621Y015143D01*
X033621Y014953D01*
X033755Y014818D01*
X033946Y014818D01*
X034081Y014953D01*
X034081Y015118D01*
X034146Y015118D01*
X034281Y015253D01*
X034281Y015443D01*
X034146Y015578D01*
X034006Y015578D01*
X034031Y015603D01*
X034031Y015793D01*
X033896Y015928D01*
X033705Y015928D01*
X033596Y015818D02*
X032881Y015818D01*
X032881Y015720D02*
X033571Y015720D01*
X033571Y015621D02*
X032799Y015621D01*
X032502Y015621D02*
X012752Y015621D01*
X012781Y015593D02*
X012646Y015728D01*
X012455Y015728D01*
X012321Y015593D01*
X012321Y015403D01*
X012455Y015268D01*
X012646Y015268D01*
X012781Y015403D01*
X012781Y015593D01*
X012781Y015523D02*
X033650Y015523D01*
X033821Y015424D02*
X012781Y015424D01*
X012704Y015326D02*
X020683Y015326D01*
X020631Y015273D02*
X020631Y015083D01*
X020765Y014948D01*
X020956Y014948D01*
X021091Y015083D01*
X021091Y015273D01*
X020956Y015408D01*
X020765Y015408D01*
X020631Y015273D01*
X020631Y015227D02*
X012205Y015227D01*
X012146Y015168D02*
X012281Y015303D01*
X012281Y015493D01*
X012146Y015628D01*
X011955Y015628D01*
X011821Y015493D01*
X011821Y015303D01*
X011955Y015168D01*
X012146Y015168D01*
X012281Y015326D02*
X012397Y015326D01*
X012321Y015424D02*
X012281Y015424D01*
X012251Y015523D02*
X012321Y015523D01*
X012349Y015621D02*
X012152Y015621D01*
X011949Y015621D02*
X011102Y015621D01*
X011046Y015678D02*
X010855Y015678D01*
X010721Y015543D01*
X010721Y015353D01*
X010855Y015218D01*
X011046Y015218D01*
X011181Y015353D01*
X011181Y015543D01*
X011046Y015678D01*
X011181Y015523D02*
X011850Y015523D01*
X011821Y015424D02*
X011181Y015424D01*
X011154Y015326D02*
X011821Y015326D01*
X011896Y015227D02*
X011055Y015227D01*
X010846Y015227D02*
X009846Y015227D01*
X009881Y015193D02*
X009746Y015328D01*
X009555Y015328D01*
X009421Y015193D01*
X009421Y015003D01*
X009555Y014868D01*
X009746Y014868D01*
X009881Y015003D01*
X009881Y015193D01*
X009881Y015129D02*
X020631Y015129D01*
X020683Y015030D02*
X009881Y015030D01*
X009810Y014932D02*
X025259Y014932D01*
X025221Y014893D02*
X025221Y014703D01*
X025355Y014568D01*
X025495Y014568D01*
X025371Y014443D01*
X025371Y014253D01*
X025505Y014118D01*
X025696Y014118D01*
X025831Y014253D01*
X025831Y014443D01*
X025696Y014578D01*
X025556Y014578D01*
X025681Y014703D01*
X025681Y014893D01*
X025546Y015028D01*
X025355Y015028D01*
X025221Y014893D01*
X025221Y014833D02*
X009281Y014833D01*
X009281Y014843D02*
X009146Y014978D01*
X008955Y014978D01*
X008821Y014843D01*
X008821Y014653D01*
X008955Y014518D01*
X009146Y014518D01*
X009281Y014653D01*
X009281Y014843D01*
X009281Y014735D02*
X025221Y014735D01*
X025287Y014636D02*
X009264Y014636D01*
X009166Y014538D02*
X009465Y014538D01*
X009421Y014493D02*
X009421Y014303D01*
X009555Y014168D01*
X009746Y014168D01*
X009881Y014303D01*
X009881Y014493D01*
X009746Y014628D01*
X009555Y014628D01*
X009421Y014493D01*
X009421Y014439D02*
X004001Y014439D01*
X004001Y014341D02*
X009421Y014341D01*
X009481Y014242D02*
X004001Y014242D01*
X004001Y014144D02*
X010721Y014144D01*
X010755Y014178D02*
X010621Y014043D01*
X010621Y013853D01*
X010755Y013718D01*
X010946Y013718D01*
X011081Y013853D01*
X011081Y014043D01*
X010946Y014178D01*
X010755Y014178D01*
X010623Y014045D02*
X004001Y014045D01*
X004001Y013947D02*
X010621Y013947D01*
X010625Y013848D02*
X004001Y013848D01*
X004001Y013750D02*
X010723Y013750D01*
X010978Y013750D02*
X023721Y013750D01*
X023721Y013793D02*
X023721Y013603D01*
X023855Y013468D01*
X024046Y013468D01*
X024181Y013603D01*
X024181Y013793D01*
X024046Y013928D01*
X023855Y013928D01*
X023721Y013793D01*
X023776Y013848D02*
X011076Y013848D01*
X011081Y013947D02*
X035974Y013947D01*
X035971Y013943D02*
X035971Y013778D01*
X035855Y013778D01*
X035721Y013643D01*
X035721Y013453D01*
X035855Y013318D01*
X036046Y013318D01*
X036181Y013453D01*
X036181Y013618D01*
X036296Y013618D01*
X036431Y013753D01*
X036431Y013943D01*
X036296Y014078D01*
X036105Y014078D01*
X035971Y013943D01*
X035971Y013848D02*
X035025Y013848D01*
X034996Y013878D02*
X034805Y013878D01*
X034671Y013743D01*
X034671Y013553D01*
X034481Y013553D01*
X034481Y013593D02*
X034346Y013728D01*
X034155Y013728D01*
X034021Y013593D01*
X034021Y013403D01*
X034155Y013268D01*
X034346Y013268D01*
X034481Y013403D01*
X034481Y013593D01*
X034422Y013651D02*
X034671Y013651D01*
X034671Y013553D02*
X034750Y013473D01*
X034621Y013343D01*
X034621Y013153D01*
X034675Y013098D01*
X034621Y013043D01*
X034621Y012853D01*
X034755Y012718D01*
X034946Y012718D01*
X035081Y012853D01*
X035081Y013043D01*
X035026Y013098D01*
X035081Y013153D01*
X035081Y013343D01*
X035001Y013423D01*
X035131Y013553D01*
X035721Y013553D01*
X035721Y013454D02*
X035032Y013454D01*
X035068Y013356D02*
X035817Y013356D01*
X036084Y013356D02*
X045417Y013356D01*
X045455Y013318D02*
X045646Y013318D01*
X045751Y013423D01*
X045855Y013318D01*
X046046Y013318D01*
X046181Y013453D01*
X046181Y013643D01*
X046076Y013748D01*
X046181Y013853D01*
X046181Y014043D01*
X046046Y014178D01*
X045855Y014178D01*
X045751Y014073D01*
X045646Y014178D01*
X045455Y014178D01*
X045381Y014103D01*
X045381Y014243D01*
X045246Y014378D01*
X045055Y014378D01*
X044921Y014243D01*
X044921Y014053D01*
X045055Y013918D01*
X045246Y013918D01*
X045321Y013993D01*
X045321Y013853D01*
X045425Y013748D01*
X045321Y013643D01*
X045321Y013453D01*
X045455Y013318D01*
X045321Y013454D02*
X036181Y013454D01*
X036181Y013553D02*
X045321Y013553D01*
X045329Y013651D02*
X036329Y013651D01*
X036428Y013750D02*
X039223Y013750D01*
X039255Y013718D02*
X039446Y013718D01*
X039581Y013853D01*
X039581Y014043D01*
X039446Y014178D01*
X039255Y014178D01*
X039121Y014043D01*
X039121Y013853D01*
X039255Y013718D01*
X039125Y013848D02*
X036431Y013848D01*
X036427Y013947D02*
X038526Y013947D01*
X038555Y013918D02*
X038746Y013918D01*
X038881Y014053D01*
X038881Y014243D01*
X038746Y014378D01*
X038555Y014378D01*
X038421Y014243D01*
X038421Y014053D01*
X038555Y013918D01*
X038428Y014045D02*
X036328Y014045D01*
X036073Y014045D02*
X011078Y014045D01*
X010980Y014144D02*
X011879Y014144D01*
X011821Y014203D02*
X011955Y014068D01*
X012146Y014068D01*
X012281Y014203D01*
X012281Y014393D01*
X012146Y014528D01*
X011955Y014528D01*
X011821Y014393D01*
X011821Y014203D01*
X011821Y014242D02*
X009820Y014242D01*
X009881Y014341D02*
X011821Y014341D01*
X011867Y014439D02*
X009881Y014439D01*
X009836Y014538D02*
X025465Y014538D01*
X025371Y014439D02*
X012234Y014439D01*
X012281Y014341D02*
X025371Y014341D01*
X025381Y014242D02*
X012281Y014242D01*
X012222Y014144D02*
X025479Y014144D01*
X025455Y013928D02*
X025321Y013793D01*
X025321Y013603D01*
X025455Y013468D01*
X025646Y013468D01*
X025781Y013603D01*
X025781Y013793D01*
X025646Y013928D01*
X025455Y013928D01*
X025376Y013848D02*
X024125Y013848D01*
X024181Y013750D02*
X025321Y013750D01*
X025321Y013651D02*
X024181Y013651D01*
X024131Y013553D02*
X025370Y013553D01*
X025731Y013553D02*
X032130Y013553D01*
X032121Y013543D02*
X032121Y013353D01*
X032255Y013218D01*
X032446Y013218D01*
X032551Y013323D01*
X032555Y013318D01*
X032746Y013318D01*
X032881Y013453D01*
X032881Y013643D01*
X032746Y013778D01*
X032555Y013778D01*
X032451Y013673D01*
X032446Y013678D01*
X032255Y013678D01*
X032121Y013543D01*
X032121Y013454D02*
X031969Y013454D01*
X031946Y013478D02*
X031755Y013478D01*
X031621Y013343D01*
X031621Y013153D01*
X031755Y013018D01*
X031946Y013018D01*
X032081Y013153D01*
X032081Y013343D01*
X031946Y013478D01*
X032068Y013356D02*
X032121Y013356D01*
X032081Y013257D02*
X032216Y013257D01*
X032081Y013159D02*
X034621Y013159D01*
X034621Y013257D02*
X032485Y013257D01*
X032784Y013356D02*
X034067Y013356D01*
X034021Y013454D02*
X032881Y013454D01*
X032881Y013553D02*
X034021Y013553D01*
X034079Y013651D02*
X032872Y013651D01*
X032774Y013750D02*
X034677Y013750D01*
X034776Y013848D02*
X025725Y013848D01*
X025781Y013750D02*
X032527Y013750D01*
X032229Y013651D02*
X025781Y013651D01*
X025722Y014144D02*
X038421Y014144D01*
X038421Y014242D02*
X025820Y014242D01*
X025831Y014341D02*
X038518Y014341D01*
X038783Y014341D02*
X044418Y014341D01*
X044455Y014378D02*
X044321Y014243D01*
X044321Y014053D01*
X044455Y013918D01*
X044646Y013918D01*
X044781Y014053D01*
X044781Y014243D01*
X044646Y014378D01*
X044455Y014378D01*
X044321Y014242D02*
X038881Y014242D01*
X038881Y014144D02*
X039221Y014144D01*
X039123Y014045D02*
X038873Y014045D01*
X038775Y013947D02*
X039121Y013947D01*
X039478Y013750D02*
X045423Y013750D01*
X045325Y013848D02*
X039576Y013848D01*
X039581Y013947D02*
X044426Y013947D01*
X044328Y014045D02*
X039578Y014045D01*
X039480Y014144D02*
X044321Y014144D01*
X044675Y013947D02*
X045026Y013947D01*
X044928Y014045D02*
X044773Y014045D01*
X044781Y014144D02*
X044921Y014144D01*
X044921Y014242D02*
X044781Y014242D01*
X044683Y014341D02*
X045018Y014341D01*
X045283Y014341D02*
X048701Y014341D01*
X048701Y014439D02*
X025831Y014439D01*
X025736Y014538D02*
X031935Y014538D01*
X031955Y014518D02*
X032146Y014518D01*
X032281Y014653D01*
X032281Y014843D01*
X032146Y014978D01*
X031955Y014978D01*
X031821Y014843D01*
X031821Y014653D01*
X031955Y014518D01*
X031837Y014636D02*
X025614Y014636D01*
X025681Y014735D02*
X031821Y014735D01*
X031821Y014833D02*
X025681Y014833D01*
X025642Y014932D02*
X031909Y014932D01*
X032192Y014932D02*
X033641Y014932D01*
X033621Y015030D02*
X021038Y015030D01*
X021091Y015129D02*
X033621Y015129D01*
X033705Y015227D02*
X021091Y015227D01*
X021038Y015326D02*
X033821Y015326D01*
X034031Y015621D02*
X048701Y015621D01*
X048701Y015523D02*
X043801Y015523D01*
X043746Y015578D02*
X043555Y015578D01*
X043421Y015443D01*
X043421Y015253D01*
X043555Y015118D01*
X043746Y015118D01*
X043881Y015253D01*
X043881Y015443D01*
X043746Y015578D01*
X043881Y015424D02*
X048701Y015424D01*
X048701Y015326D02*
X043881Y015326D01*
X043855Y015227D02*
X048701Y015227D01*
X048701Y015129D02*
X043757Y015129D01*
X043544Y015129D02*
X041857Y015129D01*
X041846Y015118D02*
X041981Y015253D01*
X041981Y015443D01*
X041846Y015578D01*
X041655Y015578D01*
X041521Y015443D01*
X041521Y015253D01*
X041655Y015118D01*
X041846Y015118D01*
X041955Y015227D02*
X043446Y015227D01*
X043421Y015326D02*
X041981Y015326D01*
X041981Y015424D02*
X043421Y015424D01*
X043500Y015523D02*
X041901Y015523D01*
X041600Y015523D02*
X035151Y015523D01*
X035146Y015528D02*
X034955Y015528D01*
X034821Y015393D01*
X034821Y015203D01*
X034955Y015068D01*
X035146Y015068D01*
X035281Y015203D01*
X035281Y015393D01*
X035146Y015528D01*
X035249Y015424D02*
X041521Y015424D01*
X041521Y015326D02*
X035281Y015326D01*
X035281Y015227D02*
X039705Y015227D01*
X039755Y015278D02*
X039621Y015143D01*
X039621Y014953D01*
X039755Y014818D01*
X039946Y014818D01*
X040081Y014953D01*
X040081Y015143D01*
X039946Y015278D01*
X039755Y015278D01*
X039621Y015129D02*
X035207Y015129D01*
X034894Y015129D02*
X034157Y015129D01*
X034081Y015030D02*
X039621Y015030D01*
X039641Y014932D02*
X034060Y014932D01*
X033961Y014833D02*
X039740Y014833D01*
X039961Y014833D02*
X048701Y014833D01*
X048701Y014735D02*
X032281Y014735D01*
X032281Y014833D02*
X033740Y014833D01*
X034255Y015227D02*
X034821Y015227D01*
X034821Y015326D02*
X034281Y015326D01*
X034281Y015424D02*
X034852Y015424D01*
X034950Y015523D02*
X034201Y015523D01*
X034031Y015720D02*
X048701Y015720D01*
X048701Y015818D02*
X034005Y015818D01*
X033907Y015917D02*
X048701Y015917D01*
X048701Y015030D02*
X040081Y015030D01*
X040081Y015129D02*
X041644Y015129D01*
X041546Y015227D02*
X039996Y015227D01*
X040060Y014932D02*
X048701Y014932D01*
X048701Y014636D02*
X032264Y014636D01*
X032166Y014538D02*
X048701Y014538D01*
X048701Y014242D02*
X045381Y014242D01*
X045381Y014144D02*
X045421Y014144D01*
X045321Y013947D02*
X045275Y013947D01*
X045680Y014144D02*
X045821Y014144D01*
X046080Y014144D02*
X048701Y014144D01*
X048701Y014045D02*
X046178Y014045D01*
X046181Y013947D02*
X048701Y013947D01*
X048701Y013848D02*
X046176Y013848D01*
X046078Y013750D02*
X048701Y013750D01*
X048701Y013651D02*
X046172Y013651D01*
X046181Y013553D02*
X048701Y013553D01*
X048701Y013454D02*
X046181Y013454D01*
X046084Y013356D02*
X048701Y013356D01*
X048701Y013257D02*
X035081Y013257D01*
X035081Y013159D02*
X048701Y013159D01*
X048701Y013060D02*
X035063Y013060D01*
X035081Y012962D02*
X041239Y012962D01*
X041255Y012978D02*
X041121Y012843D01*
X041121Y012653D01*
X041225Y012548D01*
X041121Y012443D01*
X041121Y012253D01*
X041255Y012118D01*
X041446Y012118D01*
X041501Y012173D01*
X041555Y012118D01*
X041746Y012118D01*
X041881Y012253D01*
X041881Y012443D01*
X041776Y012548D01*
X041881Y012653D01*
X041881Y012843D01*
X041746Y012978D01*
X041555Y012978D01*
X041501Y012923D01*
X041446Y012978D01*
X041255Y012978D01*
X041141Y012863D02*
X035081Y012863D01*
X034993Y012765D02*
X041121Y012765D01*
X041121Y012666D02*
X035057Y012666D01*
X035046Y012678D02*
X034855Y012678D01*
X034721Y012543D01*
X034721Y012353D01*
X034855Y012218D01*
X035046Y012218D01*
X035181Y012353D01*
X035181Y012543D01*
X035046Y012678D01*
X035156Y012568D02*
X041205Y012568D01*
X041147Y012469D02*
X035181Y012469D01*
X035181Y012371D02*
X035548Y012371D01*
X035605Y012428D02*
X035471Y012293D01*
X035471Y012103D01*
X035605Y011968D01*
X035796Y011968D01*
X035931Y012103D01*
X035931Y012293D01*
X035796Y012428D01*
X035605Y012428D01*
X035471Y012272D02*
X035100Y012272D01*
X034801Y012272D02*
X032181Y012272D01*
X032181Y012343D02*
X032076Y012448D01*
X032181Y012553D01*
X032181Y012743D01*
X032046Y012878D01*
X031855Y012878D01*
X031751Y012773D01*
X031646Y012878D01*
X031455Y012878D01*
X031351Y012773D01*
X031246Y012878D01*
X031055Y012878D01*
X030921Y012743D01*
X030921Y012553D01*
X031000Y012473D01*
X030921Y012393D01*
X030921Y012203D01*
X031055Y012068D01*
X031246Y012068D01*
X031326Y012148D01*
X031455Y012018D01*
X031646Y012018D01*
X031751Y012123D01*
X031855Y012018D01*
X031895Y012018D01*
X031871Y011993D01*
X031871Y011803D01*
X032005Y011668D01*
X032196Y011668D01*
X032226Y011698D01*
X032355Y011568D01*
X032546Y011568D01*
X032681Y011703D01*
X032681Y011893D01*
X032546Y012028D01*
X032355Y012028D01*
X032326Y011998D01*
X032196Y012128D01*
X032156Y012128D01*
X032181Y012153D01*
X032181Y012343D01*
X032153Y012371D02*
X034721Y012371D01*
X034721Y012469D02*
X034397Y012469D01*
X034396Y012468D02*
X034531Y012603D01*
X034531Y012793D01*
X034396Y012928D01*
X034205Y012928D01*
X034071Y012793D01*
X034071Y012603D01*
X034205Y012468D01*
X034396Y012468D01*
X034496Y012568D02*
X034745Y012568D01*
X034844Y012666D02*
X034531Y012666D01*
X034531Y012765D02*
X034708Y012765D01*
X034621Y012863D02*
X034460Y012863D01*
X034621Y012962D02*
X019231Y012962D01*
X019231Y012903D02*
X019231Y013093D01*
X019096Y013228D01*
X018905Y013228D01*
X018851Y013173D01*
X018796Y013228D01*
X018605Y013228D01*
X018471Y013093D01*
X018471Y012903D01*
X018605Y012768D01*
X018796Y012768D01*
X018851Y012823D01*
X018905Y012768D01*
X019096Y012768D01*
X019231Y012903D01*
X019191Y012863D02*
X031041Y012863D01*
X030942Y012765D02*
X025559Y012765D01*
X025546Y012778D02*
X025355Y012778D01*
X025221Y012643D01*
X025221Y012453D01*
X025355Y012318D01*
X025546Y012318D01*
X025681Y012453D01*
X025681Y012643D01*
X025546Y012778D01*
X025657Y012666D02*
X030921Y012666D01*
X030921Y012568D02*
X025681Y012568D01*
X025681Y012469D02*
X030997Y012469D01*
X030921Y012371D02*
X025599Y012371D01*
X025302Y012371D02*
X004001Y012371D01*
X004001Y012469D02*
X010704Y012469D01*
X010755Y012418D02*
X010621Y012553D01*
X010621Y012743D01*
X010755Y012878D01*
X010946Y012878D01*
X011081Y012743D01*
X011081Y012553D01*
X010946Y012418D01*
X010755Y012418D01*
X010621Y012568D02*
X004001Y012568D01*
X004001Y012666D02*
X010621Y012666D01*
X010642Y012765D02*
X007493Y012765D01*
X007446Y012718D02*
X007581Y012853D01*
X007581Y013043D01*
X007446Y013178D01*
X007255Y013178D01*
X007121Y013043D01*
X007121Y012853D01*
X007255Y012718D01*
X007446Y012718D01*
X007581Y012863D02*
X010741Y012863D01*
X010960Y012863D02*
X011860Y012863D01*
X011821Y012903D02*
X011955Y012768D01*
X012146Y012768D01*
X012281Y012903D01*
X012281Y013093D01*
X012146Y013228D01*
X011955Y013228D01*
X011821Y013093D01*
X011821Y012903D01*
X011821Y012962D02*
X007581Y012962D01*
X007563Y013060D02*
X011821Y013060D01*
X011886Y013159D02*
X007465Y013159D01*
X007236Y013159D02*
X004001Y013159D01*
X004001Y013257D02*
X031071Y013257D01*
X031071Y013343D02*
X031071Y013153D01*
X031205Y013018D01*
X031396Y013018D01*
X031531Y013153D01*
X031531Y013343D01*
X031396Y013478D01*
X031205Y013478D01*
X031071Y013343D01*
X031083Y013356D02*
X012234Y013356D01*
X012281Y013403D02*
X012146Y013268D01*
X011955Y013268D01*
X011821Y013403D01*
X011821Y013593D01*
X011955Y013728D01*
X012146Y013728D01*
X012281Y013593D01*
X012281Y013403D01*
X012281Y013454D02*
X031182Y013454D01*
X031419Y013454D02*
X031732Y013454D01*
X031633Y013356D02*
X031518Y013356D01*
X031531Y013257D02*
X031621Y013257D01*
X031621Y013159D02*
X031531Y013159D01*
X031438Y013060D02*
X031713Y013060D01*
X031660Y012863D02*
X031841Y012863D01*
X032060Y012863D02*
X034141Y012863D01*
X034071Y012765D02*
X032159Y012765D01*
X032181Y012666D02*
X034071Y012666D01*
X034105Y012568D02*
X032181Y012568D01*
X032097Y012469D02*
X034204Y012469D01*
X034638Y013060D02*
X031988Y013060D01*
X031441Y012863D02*
X031260Y012863D01*
X031163Y013060D02*
X019231Y013060D01*
X019165Y013159D02*
X031071Y013159D01*
X030921Y012272D02*
X021021Y012272D01*
X021081Y012213D02*
X020946Y012348D01*
X020755Y012348D01*
X020621Y012213D01*
X020621Y012023D01*
X020755Y011888D01*
X020946Y011888D01*
X021081Y012023D01*
X021081Y012213D01*
X021081Y012174D02*
X030949Y012174D01*
X031048Y012075D02*
X021081Y012075D01*
X021035Y011977D02*
X031871Y011977D01*
X031871Y011878D02*
X012581Y011878D01*
X012581Y011853D02*
X012446Y011718D01*
X012255Y011718D01*
X012121Y011853D01*
X012121Y012043D01*
X012255Y012178D01*
X012446Y012178D01*
X012581Y012043D01*
X012581Y011853D01*
X012508Y011780D02*
X031893Y011780D01*
X031992Y011681D02*
X005959Y011681D01*
X005946Y011668D02*
X006081Y011803D01*
X006081Y011993D01*
X005946Y012128D01*
X005755Y012128D01*
X005651Y012023D01*
X005546Y012128D01*
X005355Y012128D01*
X005221Y011993D01*
X005221Y011803D01*
X005355Y011668D01*
X005546Y011668D01*
X005651Y011773D01*
X005755Y011668D01*
X005946Y011668D01*
X006058Y011780D02*
X010243Y011780D01*
X010305Y011718D02*
X010496Y011718D01*
X010631Y011853D01*
X010631Y012043D01*
X010496Y012178D01*
X010305Y012178D01*
X010171Y012043D01*
X010171Y011853D01*
X010305Y011718D01*
X010305Y011578D02*
X010171Y011443D01*
X010171Y011253D01*
X010305Y011118D01*
X010496Y011118D01*
X010631Y011253D01*
X010631Y011443D01*
X010496Y011578D01*
X010305Y011578D01*
X010212Y011484D02*
X004001Y011484D01*
X004001Y011386D02*
X010171Y011386D01*
X010171Y011287D02*
X004001Y011287D01*
X004001Y011189D02*
X010234Y011189D01*
X010567Y011189D02*
X036371Y011189D01*
X036371Y011193D02*
X036371Y011003D01*
X036505Y010868D01*
X036696Y010868D01*
X036831Y011003D01*
X036831Y011193D01*
X036806Y011218D01*
X036946Y011218D01*
X037081Y011353D01*
X037081Y011543D01*
X036946Y011678D01*
X036755Y011678D01*
X036621Y011543D01*
X036621Y011353D01*
X036645Y011328D01*
X036505Y011328D01*
X036371Y011193D01*
X036371Y011090D02*
X025633Y011090D01*
X025681Y011043D02*
X025546Y011178D01*
X025355Y011178D01*
X025221Y011043D01*
X025221Y010853D01*
X025355Y010718D01*
X025546Y010718D01*
X025681Y010853D01*
X025681Y011043D01*
X025681Y010992D02*
X036381Y010992D01*
X036480Y010893D02*
X034830Y010893D01*
X034796Y010928D02*
X034605Y010928D01*
X034471Y010793D01*
X034471Y010603D01*
X034605Y010468D01*
X034796Y010468D01*
X034931Y010603D01*
X034931Y010793D01*
X034796Y010928D01*
X034929Y010795D02*
X041072Y010795D01*
X041071Y010793D02*
X041071Y010603D01*
X041205Y010468D01*
X041396Y010468D01*
X041531Y010603D01*
X041531Y010793D01*
X041396Y010928D01*
X041205Y010928D01*
X041071Y010793D01*
X041071Y010696D02*
X034931Y010696D01*
X034926Y010598D02*
X036275Y010598D01*
X036221Y010543D02*
X036221Y010353D01*
X036355Y010218D01*
X036546Y010218D01*
X036651Y010323D01*
X036755Y010218D01*
X036946Y010218D01*
X037081Y010353D01*
X037081Y010543D01*
X036946Y010678D01*
X036755Y010678D01*
X036651Y010573D01*
X036546Y010678D01*
X036355Y010678D01*
X036221Y010543D01*
X036221Y010499D02*
X034827Y010499D01*
X034574Y010499D02*
X031531Y010499D01*
X031531Y010543D02*
X031396Y010678D01*
X031205Y010678D01*
X031131Y010603D01*
X031131Y010643D01*
X030996Y010778D01*
X030805Y010778D01*
X030671Y010643D01*
X030671Y010453D01*
X030805Y010318D01*
X030996Y010318D01*
X031071Y010393D01*
X031071Y010353D01*
X031205Y010218D01*
X031396Y010218D01*
X031531Y010353D01*
X031531Y010543D01*
X031476Y010598D02*
X034475Y010598D01*
X034471Y010696D02*
X031077Y010696D01*
X030724Y010696D02*
X029627Y010696D01*
X029681Y010643D02*
X029546Y010778D01*
X029355Y010778D01*
X029276Y010698D01*
X029196Y010778D01*
X029005Y010778D01*
X028871Y010643D01*
X028871Y010453D01*
X029005Y010318D01*
X029196Y010318D01*
X029276Y010398D01*
X029355Y010318D01*
X029546Y010318D01*
X029681Y010453D01*
X029681Y010643D01*
X029681Y010598D02*
X030671Y010598D01*
X030671Y010499D02*
X029681Y010499D01*
X029629Y010401D02*
X030722Y010401D01*
X031121Y010302D02*
X012981Y010302D01*
X012981Y010343D02*
X012981Y010153D01*
X012846Y010018D01*
X012655Y010018D01*
X012521Y010153D01*
X012521Y010343D01*
X012655Y010478D01*
X012846Y010478D01*
X012981Y010343D01*
X012923Y010401D02*
X028922Y010401D01*
X028871Y010499D02*
X013527Y010499D01*
X013581Y010553D02*
X013446Y010418D01*
X013255Y010418D01*
X013121Y010553D01*
X013121Y010743D01*
X013255Y010878D01*
X013446Y010878D01*
X013581Y010743D01*
X013581Y010553D01*
X013581Y010598D02*
X028871Y010598D01*
X028924Y010696D02*
X013581Y010696D01*
X013529Y010795D02*
X025278Y010795D01*
X025221Y010893D02*
X012230Y010893D01*
X012231Y010893D02*
X012096Y011028D01*
X011905Y011028D01*
X011771Y010893D01*
X011771Y010703D01*
X011905Y010568D01*
X012096Y010568D01*
X012231Y010703D01*
X012231Y010893D01*
X012231Y010795D02*
X013172Y010795D01*
X013121Y010696D02*
X012224Y010696D01*
X012126Y010598D02*
X013121Y010598D01*
X013174Y010499D02*
X004001Y010499D01*
X004001Y010401D02*
X012578Y010401D01*
X012521Y010302D02*
X004001Y010302D01*
X004001Y010204D02*
X006281Y010204D01*
X006221Y010143D02*
X006221Y009953D01*
X006355Y009818D01*
X006546Y009818D01*
X006651Y009923D01*
X006755Y009818D01*
X006946Y009818D01*
X007081Y009953D01*
X007081Y010143D01*
X006946Y010278D01*
X006755Y010278D01*
X006651Y010173D01*
X006546Y010278D01*
X006355Y010278D01*
X006221Y010143D01*
X006221Y010105D02*
X004001Y010105D01*
X004001Y010007D02*
X006221Y010007D01*
X006265Y009908D02*
X004001Y009908D01*
X004001Y009810D02*
X036221Y009810D01*
X036221Y009843D02*
X036221Y009653D01*
X036355Y009518D01*
X036546Y009518D01*
X036651Y009623D01*
X036755Y009518D01*
X036946Y009518D01*
X037081Y009653D01*
X037081Y009843D01*
X036946Y009978D01*
X036755Y009978D01*
X036651Y009873D01*
X036546Y009978D01*
X036355Y009978D01*
X036221Y009843D01*
X036286Y009908D02*
X007036Y009908D01*
X007081Y010007D02*
X038166Y010007D01*
X038121Y010053D02*
X038255Y009918D01*
X038446Y009918D01*
X038581Y010053D01*
X038581Y010243D01*
X038446Y010378D01*
X038255Y010378D01*
X038121Y010243D01*
X038121Y010053D01*
X038121Y010105D02*
X012933Y010105D01*
X012981Y010204D02*
X038121Y010204D01*
X038180Y010302D02*
X037030Y010302D01*
X037081Y010401D02*
X048701Y010401D01*
X048701Y010499D02*
X041427Y010499D01*
X041526Y010598D02*
X048701Y010598D01*
X048701Y010696D02*
X041531Y010696D01*
X041529Y010795D02*
X043578Y010795D01*
X043521Y010853D02*
X043655Y010718D01*
X043846Y010718D01*
X043951Y010823D01*
X044055Y010718D01*
X044246Y010718D01*
X044351Y010823D01*
X044455Y010718D01*
X044646Y010718D01*
X044781Y010853D01*
X044781Y011043D01*
X044676Y011148D01*
X044781Y011253D01*
X044781Y011443D01*
X044646Y011578D01*
X044455Y011578D01*
X044351Y011473D01*
X044246Y011578D01*
X044055Y011578D01*
X043951Y011473D01*
X043846Y011578D01*
X043655Y011578D01*
X043521Y011443D01*
X043521Y011253D01*
X043625Y011148D01*
X043521Y011043D01*
X043521Y010853D01*
X043521Y010893D02*
X041430Y010893D01*
X041171Y010893D02*
X036721Y010893D01*
X036820Y010992D02*
X039481Y010992D01*
X039421Y011053D02*
X039555Y010918D01*
X039746Y010918D01*
X039851Y011023D01*
X039955Y010918D01*
X040146Y010918D01*
X040281Y011053D01*
X040281Y011218D01*
X040346Y011218D01*
X040481Y011353D01*
X040481Y011543D01*
X040346Y011678D01*
X040155Y011678D01*
X040021Y011543D01*
X040021Y011378D01*
X039955Y011378D01*
X039851Y011273D01*
X039746Y011378D01*
X039681Y011378D01*
X039681Y011543D01*
X039546Y011678D01*
X039355Y011678D01*
X039221Y011543D01*
X039221Y011353D01*
X039355Y011218D01*
X039421Y011218D01*
X039421Y011053D01*
X039421Y011090D02*
X036831Y011090D01*
X036831Y011189D02*
X039421Y011189D01*
X039286Y011287D02*
X037015Y011287D01*
X037081Y011386D02*
X039221Y011386D01*
X039221Y011484D02*
X037081Y011484D01*
X037041Y011583D02*
X039260Y011583D01*
X039641Y011583D02*
X040060Y011583D01*
X040021Y011484D02*
X039681Y011484D01*
X039681Y011386D02*
X040021Y011386D01*
X039865Y011287D02*
X039836Y011287D01*
X039820Y010992D02*
X039881Y010992D01*
X040220Y010992D02*
X043521Y010992D01*
X043568Y011090D02*
X040281Y011090D01*
X040281Y011189D02*
X043584Y011189D01*
X043521Y011287D02*
X040415Y011287D01*
X040481Y011386D02*
X043521Y011386D01*
X043562Y011484D02*
X040481Y011484D01*
X040441Y011583D02*
X045840Y011583D01*
X045821Y011603D02*
X045955Y011468D01*
X046146Y011468D01*
X046281Y011603D01*
X046281Y011793D01*
X046146Y011928D01*
X045955Y011928D01*
X045821Y011793D01*
X045821Y011603D01*
X045821Y011681D02*
X032659Y011681D01*
X032681Y011780D02*
X036193Y011780D01*
X036255Y011718D02*
X036446Y011718D01*
X036581Y011853D01*
X036581Y012043D01*
X036446Y012178D01*
X036255Y012178D01*
X036121Y012043D01*
X036121Y011853D01*
X036255Y011718D01*
X036121Y011878D02*
X032681Y011878D01*
X032597Y011977D02*
X035596Y011977D01*
X035498Y012075D02*
X032248Y012075D01*
X032181Y012174D02*
X035471Y012174D01*
X035805Y011977D02*
X036121Y011977D01*
X036153Y012075D02*
X035903Y012075D01*
X035931Y012174D02*
X036251Y012174D01*
X036450Y012174D02*
X041199Y012174D01*
X041121Y012272D02*
X035931Y012272D01*
X035853Y012371D02*
X041121Y012371D01*
X041796Y012568D02*
X045405Y012568D01*
X045425Y012548D02*
X045321Y012443D01*
X045321Y012303D01*
X045246Y012378D01*
X045055Y012378D01*
X044921Y012243D01*
X044921Y012053D01*
X045055Y011918D01*
X045246Y011918D01*
X045381Y012053D01*
X045381Y012193D01*
X045455Y012118D01*
X045646Y012118D01*
X045751Y012223D01*
X045855Y012118D01*
X046046Y012118D01*
X046181Y012253D01*
X046181Y012443D01*
X046076Y012548D01*
X046181Y012653D01*
X046181Y012843D01*
X046046Y012978D01*
X045855Y012978D01*
X045751Y012873D01*
X045646Y012978D01*
X045455Y012978D01*
X045321Y012843D01*
X045321Y012653D01*
X045425Y012548D01*
X045347Y012469D02*
X041854Y012469D01*
X041881Y012371D02*
X044548Y012371D01*
X044555Y012378D02*
X044421Y012243D01*
X044421Y012053D01*
X044555Y011918D01*
X044746Y011918D01*
X044881Y012053D01*
X044881Y012243D01*
X044746Y012378D01*
X044555Y012378D01*
X044450Y012272D02*
X041881Y012272D01*
X041802Y012174D02*
X044421Y012174D01*
X044421Y012075D02*
X036548Y012075D01*
X036581Y011977D02*
X044496Y011977D01*
X044805Y011977D02*
X044996Y011977D01*
X044921Y012075D02*
X044881Y012075D01*
X044881Y012174D02*
X044921Y012174D01*
X044950Y012272D02*
X044851Y012272D01*
X044753Y012371D02*
X045048Y012371D01*
X045253Y012371D02*
X045321Y012371D01*
X045381Y012174D02*
X045399Y012174D01*
X045381Y012075D02*
X048701Y012075D01*
X048701Y011977D02*
X045305Y011977D01*
X045702Y012174D02*
X045799Y012174D01*
X046102Y012174D02*
X048701Y012174D01*
X048701Y012272D02*
X046181Y012272D01*
X046181Y012371D02*
X048701Y012371D01*
X048701Y012469D02*
X046154Y012469D01*
X046096Y012568D02*
X048701Y012568D01*
X048701Y012666D02*
X046181Y012666D01*
X046181Y012765D02*
X048701Y012765D01*
X048701Y012863D02*
X046160Y012863D01*
X046062Y012962D02*
X048701Y012962D01*
X048701Y011878D02*
X046195Y011878D01*
X046281Y011780D02*
X048701Y011780D01*
X048701Y011681D02*
X046281Y011681D01*
X046261Y011583D02*
X048701Y011583D01*
X048701Y011484D02*
X046162Y011484D01*
X045939Y011484D02*
X044739Y011484D01*
X044781Y011386D02*
X048701Y011386D01*
X048701Y011287D02*
X044781Y011287D01*
X044717Y011189D02*
X048701Y011189D01*
X048701Y011090D02*
X044733Y011090D01*
X044781Y010992D02*
X048701Y010992D01*
X048701Y010893D02*
X044781Y010893D01*
X044723Y010795D02*
X048701Y010795D01*
X048701Y010302D02*
X046621Y010302D01*
X046681Y010243D02*
X046546Y010378D01*
X046355Y010378D01*
X046221Y010243D01*
X046221Y010053D01*
X046355Y009918D01*
X046546Y009918D01*
X046681Y010053D01*
X046681Y010243D01*
X046681Y010204D02*
X048701Y010204D01*
X048701Y010105D02*
X046681Y010105D01*
X046635Y010007D02*
X048701Y010007D01*
X048701Y009908D02*
X042065Y009908D01*
X042131Y009843D02*
X041996Y009978D01*
X041805Y009978D01*
X041671Y009843D01*
X041671Y009653D01*
X041805Y009518D01*
X041996Y009518D01*
X042131Y009653D01*
X042131Y009843D01*
X042131Y009810D02*
X048701Y009810D01*
X048701Y009711D02*
X042131Y009711D01*
X042091Y009613D02*
X048701Y009613D01*
X048701Y009514D02*
X041409Y009514D01*
X041346Y009578D02*
X041155Y009578D01*
X041021Y009443D01*
X041021Y009253D01*
X041145Y009128D01*
X040955Y009128D01*
X040901Y009073D01*
X040801Y009173D01*
X040831Y009203D01*
X040831Y009393D01*
X040696Y009528D01*
X040505Y009528D01*
X040371Y009393D01*
X040371Y009203D01*
X040500Y009073D01*
X040471Y009043D01*
X040471Y008853D01*
X040605Y008718D01*
X040796Y008718D01*
X040851Y008773D01*
X040955Y008668D01*
X041146Y008668D01*
X041281Y008803D01*
X041281Y008993D01*
X041156Y009118D01*
X041346Y009118D01*
X041481Y009253D01*
X041481Y009443D01*
X041346Y009578D01*
X041481Y009416D02*
X048701Y009416D01*
X048701Y009317D02*
X043106Y009317D01*
X043046Y009378D02*
X042855Y009378D01*
X042721Y009243D01*
X042721Y009053D01*
X042770Y009003D01*
X042721Y008953D01*
X042721Y008763D01*
X042855Y008628D01*
X042366Y008628D01*
X042431Y008693D02*
X042296Y008558D01*
X042105Y008558D01*
X041971Y008693D01*
X041971Y008883D01*
X042105Y009018D01*
X042296Y009018D01*
X042431Y008883D01*
X042431Y008693D01*
X042431Y008726D02*
X042757Y008726D01*
X042721Y008825D02*
X042431Y008825D01*
X042390Y008923D02*
X042721Y008923D01*
X042751Y009022D02*
X041252Y009022D01*
X041281Y008923D02*
X042011Y008923D01*
X041971Y008825D02*
X041281Y008825D01*
X041204Y008726D02*
X041971Y008726D01*
X042035Y008628D02*
X039656Y008628D01*
X039596Y008568D02*
X039731Y008703D01*
X039731Y008893D01*
X039596Y009028D01*
X039405Y009028D01*
X039271Y008893D01*
X039271Y008703D01*
X039405Y008568D01*
X039596Y008568D01*
X039731Y008726D02*
X040597Y008726D01*
X040498Y008825D02*
X039731Y008825D01*
X039700Y008923D02*
X040471Y008923D01*
X040471Y009022D02*
X039602Y009022D01*
X039399Y009022D02*
X038950Y009022D01*
X038926Y008998D02*
X038981Y009053D01*
X038981Y009243D01*
X038846Y009378D01*
X038655Y009378D01*
X038521Y009243D01*
X038521Y009053D01*
X038575Y008998D01*
X038521Y008943D01*
X038521Y008753D01*
X038655Y008618D01*
X038846Y008618D01*
X038981Y008753D01*
X038981Y008943D01*
X038926Y008998D01*
X038981Y008923D02*
X039301Y008923D01*
X039271Y008825D02*
X038981Y008825D01*
X038954Y008726D02*
X039271Y008726D01*
X039345Y008628D02*
X038856Y008628D01*
X038645Y008628D02*
X032506Y008628D01*
X032496Y008618D02*
X032631Y008753D01*
X032631Y008943D01*
X032496Y009078D01*
X032305Y009078D01*
X032226Y008998D01*
X032146Y009078D01*
X031955Y009078D01*
X031851Y008973D01*
X031746Y009078D01*
X031706Y009078D01*
X031781Y009153D01*
X031781Y009343D01*
X031646Y009478D01*
X031455Y009478D01*
X031321Y009343D01*
X031321Y009153D01*
X031455Y009018D01*
X031495Y009018D01*
X031421Y008943D01*
X031421Y008753D01*
X031555Y008618D01*
X031746Y008618D01*
X031851Y008723D01*
X031955Y008618D01*
X032146Y008618D01*
X032226Y008698D01*
X032305Y008618D01*
X032496Y008618D01*
X032604Y008726D02*
X038547Y008726D01*
X038521Y008825D02*
X032631Y008825D01*
X032631Y008923D02*
X038521Y008923D01*
X038551Y009022D02*
X032552Y009022D01*
X032249Y009022D02*
X032202Y009022D01*
X031899Y009022D02*
X031802Y009022D01*
X031748Y009120D02*
X038521Y009120D01*
X038521Y009219D02*
X031781Y009219D01*
X031781Y009317D02*
X038595Y009317D01*
X038906Y009317D02*
X040371Y009317D01*
X040371Y009219D02*
X038981Y009219D01*
X038981Y009120D02*
X040453Y009120D01*
X040393Y009416D02*
X031708Y009416D01*
X031393Y009416D02*
X004001Y009416D01*
X004001Y009514D02*
X040492Y009514D01*
X040621Y009653D02*
X040755Y009518D01*
X040946Y009518D01*
X041081Y009653D01*
X041081Y009843D01*
X040946Y009978D01*
X040755Y009978D01*
X040621Y009843D01*
X040621Y009653D01*
X040660Y009613D02*
X037041Y009613D01*
X037081Y009711D02*
X040621Y009711D01*
X040621Y009810D02*
X037081Y009810D01*
X037015Y009908D02*
X040686Y009908D01*
X041015Y009908D02*
X041736Y009908D01*
X041671Y009810D02*
X041081Y009810D01*
X041081Y009711D02*
X041671Y009711D01*
X041710Y009613D02*
X041041Y009613D01*
X041092Y009514D02*
X040709Y009514D01*
X040808Y009416D02*
X041021Y009416D01*
X041021Y009317D02*
X040831Y009317D01*
X040831Y009219D02*
X041054Y009219D01*
X040948Y009120D02*
X040853Y009120D01*
X041348Y009120D02*
X042721Y009120D01*
X042721Y009219D02*
X041447Y009219D01*
X041481Y009317D02*
X042795Y009317D01*
X043046Y009378D02*
X043181Y009243D01*
X043181Y009053D01*
X043131Y009003D01*
X043181Y008953D01*
X043181Y008763D01*
X043046Y008628D01*
X048701Y008628D01*
X048701Y008726D02*
X043144Y008726D01*
X043181Y008825D02*
X048701Y008825D01*
X048701Y008923D02*
X043181Y008923D01*
X043150Y009022D02*
X048701Y009022D01*
X048701Y009120D02*
X043181Y009120D01*
X043181Y009219D02*
X048701Y009219D01*
X048432Y008509D02*
X048314Y008558D01*
X048187Y008558D01*
X048069Y008509D01*
X047979Y008419D01*
X047931Y008302D01*
X047931Y008174D01*
X047979Y008057D01*
X048069Y007967D01*
X048187Y007918D01*
X048314Y007918D01*
X048432Y007967D01*
X048522Y008057D01*
X048571Y008174D01*
X048571Y008302D01*
X048522Y008419D01*
X048432Y008509D01*
X048383Y008529D02*
X048701Y008529D01*
X048701Y008431D02*
X048510Y008431D01*
X048558Y008332D02*
X048701Y008332D01*
X048701Y008234D02*
X048571Y008234D01*
X048555Y008135D02*
X048701Y008135D01*
X048701Y008037D02*
X048502Y008037D01*
X048364Y007938D02*
X048701Y007938D01*
X048701Y007840D02*
X046784Y007840D01*
X046746Y007878D02*
X046606Y007878D01*
X046681Y007953D01*
X046681Y008143D01*
X046546Y008278D01*
X046355Y008278D01*
X046221Y008143D01*
X046221Y007953D01*
X046355Y007818D01*
X046495Y007818D01*
X046421Y007743D01*
X046421Y007553D01*
X046555Y007418D01*
X046746Y007418D01*
X046881Y007553D01*
X046881Y007743D01*
X046746Y007878D01*
X046666Y007938D02*
X048137Y007938D01*
X047999Y008037D02*
X046681Y008037D01*
X046681Y008135D02*
X047947Y008135D01*
X047931Y008234D02*
X046590Y008234D01*
X046311Y008234D02*
X045281Y008234D01*
X045281Y008293D02*
X045281Y008103D01*
X045146Y007968D01*
X044955Y007968D01*
X044821Y008103D01*
X044821Y008293D01*
X044955Y008428D01*
X045146Y008428D01*
X045281Y008293D01*
X045241Y008332D02*
X047943Y008332D01*
X047991Y008431D02*
X032520Y008431D01*
X032535Y008424D02*
X032416Y008474D01*
X032286Y008474D01*
X032166Y008424D01*
X032081Y008339D01*
X032081Y008443D01*
X031946Y008578D01*
X031755Y008578D01*
X031621Y008443D01*
X031621Y008253D01*
X031725Y008148D01*
X031621Y008043D01*
X031621Y007853D01*
X031755Y007718D01*
X031946Y007718D01*
X032081Y007853D01*
X032081Y007957D01*
X032166Y007871D01*
X032286Y007822D01*
X032416Y007822D01*
X032535Y007871D01*
X032627Y007963D01*
X032677Y008083D01*
X032677Y008213D01*
X032627Y008333D01*
X032535Y008424D01*
X032627Y008332D02*
X042210Y008332D01*
X042255Y008378D02*
X042121Y008243D01*
X042121Y008053D01*
X042255Y007918D01*
X042446Y007918D01*
X042581Y008053D01*
X042581Y008243D01*
X042446Y008378D01*
X042255Y008378D01*
X042121Y008234D02*
X032668Y008234D01*
X032677Y008135D02*
X042121Y008135D01*
X042136Y008037D02*
X037987Y008037D01*
X037946Y008078D02*
X037755Y008078D01*
X037701Y008023D01*
X037646Y008078D01*
X037455Y008078D01*
X037321Y007943D01*
X037321Y007753D01*
X037455Y007618D01*
X037646Y007618D01*
X037701Y007673D01*
X037755Y007618D01*
X037946Y007618D01*
X038081Y007753D01*
X038081Y007943D01*
X037946Y008078D01*
X038081Y007938D02*
X042235Y007938D01*
X042466Y007938D02*
X043621Y007938D01*
X043621Y007943D02*
X043621Y007753D01*
X043755Y007618D01*
X043946Y007618D01*
X044001Y007673D01*
X044055Y007618D01*
X044246Y007618D01*
X044381Y007753D01*
X044381Y007943D01*
X044246Y008078D01*
X044055Y008078D01*
X044001Y008023D01*
X043946Y008078D01*
X043755Y008078D01*
X043621Y007943D01*
X043621Y007840D02*
X038081Y007840D01*
X038069Y007741D02*
X043632Y007741D01*
X043730Y007643D02*
X037971Y007643D01*
X038075Y007446D02*
X010974Y007446D01*
X011031Y007503D02*
X010896Y007368D01*
X010705Y007368D01*
X010626Y007448D01*
X010546Y007368D01*
X010456Y007368D01*
X010481Y007343D01*
X010481Y007153D01*
X010346Y007018D01*
X010281Y007018D01*
X010281Y006853D01*
X010146Y006718D01*
X009955Y006718D01*
X009821Y006853D01*
X009821Y007043D01*
X009955Y007178D01*
X010021Y007178D01*
X010021Y007343D01*
X010155Y007478D01*
X010245Y007478D01*
X010221Y007503D01*
X010221Y007693D01*
X010355Y007828D01*
X010546Y007828D01*
X010626Y007748D01*
X010705Y007828D01*
X010896Y007828D01*
X011031Y007693D01*
X011031Y007503D01*
X011031Y007544D02*
X038173Y007544D01*
X038205Y007576D02*
X038071Y007442D01*
X038071Y007251D01*
X038205Y007116D01*
X038396Y007116D01*
X038531Y007251D01*
X038531Y007442D01*
X038396Y007576D01*
X038205Y007576D01*
X038428Y007544D02*
X044972Y007544D01*
X044921Y007493D02*
X044921Y007303D01*
X045055Y007168D01*
X045246Y007168D01*
X045381Y007303D01*
X045381Y007493D01*
X045246Y007628D01*
X045055Y007628D01*
X044921Y007493D01*
X044921Y007446D02*
X038526Y007446D01*
X038531Y007347D02*
X043273Y007347D01*
X043305Y007380D02*
X043171Y007245D01*
X043171Y007054D01*
X043305Y006920D01*
X043496Y006920D01*
X043631Y007054D01*
X043631Y007245D01*
X043496Y007380D01*
X043305Y007380D01*
X043175Y007249D02*
X038529Y007249D01*
X038430Y007150D02*
X043171Y007150D01*
X043173Y007052D02*
X010380Y007052D01*
X010478Y007150D02*
X038171Y007150D01*
X038073Y007249D02*
X010481Y007249D01*
X010476Y007347D02*
X038071Y007347D01*
X037730Y007643D02*
X037671Y007643D01*
X037430Y007643D02*
X036471Y007643D01*
X036446Y007618D02*
X036581Y007753D01*
X036581Y007943D01*
X036446Y008078D01*
X036255Y008078D01*
X036121Y007943D01*
X036121Y007753D01*
X036255Y007618D01*
X036446Y007618D01*
X036569Y007741D02*
X037332Y007741D01*
X037321Y007840D02*
X036581Y007840D01*
X036581Y007938D02*
X037321Y007938D01*
X037414Y008037D02*
X036487Y008037D01*
X036214Y008037D02*
X032658Y008037D01*
X032603Y007938D02*
X036121Y007938D01*
X036121Y007840D02*
X032460Y007840D01*
X032242Y007840D02*
X032068Y007840D01*
X032081Y007938D02*
X032099Y007938D01*
X031969Y007741D02*
X036132Y007741D01*
X036230Y007643D02*
X011031Y007643D01*
X010982Y007741D02*
X031732Y007741D01*
X031633Y007840D02*
X007381Y007840D01*
X007381Y007843D02*
X007246Y007978D01*
X007055Y007978D01*
X006921Y007843D01*
X006921Y007653D01*
X007055Y007518D01*
X007246Y007518D01*
X007381Y007653D01*
X007381Y007843D01*
X007381Y007741D02*
X010269Y007741D01*
X010221Y007643D02*
X007371Y007643D01*
X007272Y007544D02*
X010221Y007544D01*
X010123Y007446D02*
X004001Y007446D01*
X004001Y007544D02*
X007029Y007544D01*
X006930Y007643D02*
X004001Y007643D01*
X004001Y007741D02*
X006921Y007741D01*
X006921Y007840D02*
X004001Y007840D01*
X004001Y007938D02*
X007016Y007938D01*
X007005Y008018D02*
X007196Y008018D01*
X007331Y008153D01*
X007331Y008343D01*
X007196Y008478D01*
X007005Y008478D01*
X006871Y008343D01*
X006871Y008153D01*
X007005Y008018D01*
X006986Y008037D02*
X004001Y008037D01*
X004001Y008135D02*
X006888Y008135D01*
X006871Y008234D02*
X004001Y008234D01*
X004001Y008332D02*
X006871Y008332D01*
X006958Y008431D02*
X004001Y008431D01*
X004001Y008529D02*
X010794Y008529D01*
X010771Y008553D02*
X010905Y008418D01*
X011096Y008418D01*
X011231Y008553D01*
X011231Y008743D01*
X011096Y008878D01*
X010905Y008878D01*
X010771Y008743D01*
X010771Y008553D01*
X010771Y008628D02*
X004001Y008628D01*
X004001Y008726D02*
X010771Y008726D01*
X010852Y008825D02*
X006953Y008825D01*
X006946Y008818D02*
X007081Y008953D01*
X007081Y009143D01*
X006946Y009278D01*
X006755Y009278D01*
X006651Y009173D01*
X006546Y009278D01*
X006355Y009278D01*
X006221Y009143D01*
X006221Y008953D01*
X006355Y008818D01*
X006546Y008818D01*
X006651Y008923D01*
X006755Y008818D01*
X006946Y008818D01*
X007051Y008923D02*
X011651Y008923D01*
X011705Y008978D02*
X011571Y008843D01*
X011571Y008653D01*
X011645Y008578D01*
X011455Y008578D01*
X011321Y008443D01*
X011321Y008253D01*
X011455Y008118D01*
X011646Y008118D01*
X011781Y008253D01*
X011781Y008443D01*
X011706Y008518D01*
X011896Y008518D01*
X012031Y008653D01*
X012031Y008843D01*
X011896Y008978D01*
X011705Y008978D01*
X011571Y008825D02*
X011149Y008825D01*
X011231Y008726D02*
X011571Y008726D01*
X011595Y008628D02*
X011231Y008628D01*
X011207Y008529D02*
X011407Y008529D01*
X011321Y008431D02*
X011109Y008431D01*
X010892Y008431D02*
X007243Y008431D01*
X007331Y008332D02*
X011321Y008332D01*
X011339Y008234D02*
X007331Y008234D01*
X007313Y008135D02*
X011438Y008135D01*
X011663Y008135D02*
X031713Y008135D01*
X031639Y008234D02*
X026312Y008234D01*
X026296Y008218D02*
X026431Y008353D01*
X026431Y008543D01*
X026296Y008678D01*
X026105Y008678D01*
X025971Y008543D01*
X025971Y008353D01*
X026105Y008218D01*
X026296Y008218D01*
X026410Y008332D02*
X031621Y008332D01*
X031621Y008431D02*
X026431Y008431D01*
X026431Y008529D02*
X031707Y008529D01*
X031756Y008628D02*
X031945Y008628D01*
X031994Y008529D02*
X048118Y008529D01*
X048701Y007741D02*
X046881Y007741D01*
X046881Y007643D02*
X048701Y007643D01*
X048701Y007544D02*
X046872Y007544D01*
X046774Y007446D02*
X048701Y007446D01*
X048701Y007347D02*
X048388Y007347D01*
X048432Y007329D02*
X048314Y007378D01*
X048187Y007378D01*
X048069Y007329D01*
X047979Y007239D01*
X047931Y007122D01*
X047931Y006994D01*
X047979Y006877D01*
X048069Y006787D01*
X048187Y006738D01*
X048314Y006738D01*
X048432Y006787D01*
X048522Y006877D01*
X048571Y006994D01*
X048571Y007122D01*
X048522Y007239D01*
X048432Y007329D01*
X048512Y007249D02*
X048701Y007249D01*
X048701Y007150D02*
X048559Y007150D01*
X048571Y007052D02*
X048701Y007052D01*
X048701Y006953D02*
X048554Y006953D01*
X048500Y006855D02*
X048701Y006855D01*
X048701Y006756D02*
X048359Y006756D01*
X048142Y006756D02*
X044367Y006756D01*
X044381Y006743D02*
X044246Y006878D01*
X044055Y006878D01*
X044001Y006823D01*
X043946Y006878D01*
X043755Y006878D01*
X043621Y006743D01*
X043621Y006553D01*
X043755Y006418D01*
X043946Y006418D01*
X044001Y006473D01*
X044055Y006418D01*
X044246Y006418D01*
X044381Y006553D01*
X044381Y006743D01*
X044381Y006658D02*
X048701Y006658D01*
X048701Y006559D02*
X044381Y006559D01*
X044289Y006461D02*
X048701Y006461D01*
X048701Y006362D02*
X034590Y006362D01*
X034546Y006318D02*
X034681Y006453D01*
X034681Y006643D01*
X034546Y006778D01*
X034355Y006778D01*
X034221Y006643D01*
X034221Y006453D01*
X034355Y006318D01*
X034546Y006318D01*
X034681Y006461D02*
X037412Y006461D01*
X037455Y006418D02*
X037646Y006418D01*
X037781Y006553D01*
X037781Y006743D01*
X037646Y006878D01*
X037455Y006878D01*
X037321Y006743D01*
X037321Y006553D01*
X037455Y006418D01*
X037321Y006559D02*
X034681Y006559D01*
X034666Y006658D02*
X037321Y006658D01*
X037334Y006756D02*
X034567Y006756D01*
X034334Y006756D02*
X011017Y006756D01*
X011031Y006743D02*
X010896Y006878D01*
X010705Y006878D01*
X010571Y006743D01*
X010571Y006553D01*
X010705Y006418D01*
X010896Y006418D01*
X011031Y006553D01*
X011031Y006743D01*
X011031Y006658D02*
X034235Y006658D01*
X034221Y006559D02*
X011031Y006559D01*
X010939Y006461D02*
X034221Y006461D01*
X034311Y006362D02*
X004001Y006362D01*
X004001Y006264D02*
X048701Y006264D01*
X048701Y006165D02*
X004001Y006165D01*
X004001Y006067D02*
X048701Y006067D01*
X048701Y005968D02*
X004001Y005968D01*
X004001Y005870D02*
X039337Y005870D01*
X039271Y005803D02*
X039271Y005613D01*
X039405Y005478D01*
X039596Y005478D01*
X039731Y005613D01*
X039731Y005803D01*
X039596Y005938D01*
X039405Y005938D01*
X039271Y005803D01*
X039271Y005771D02*
X038942Y005771D01*
X038981Y005733D02*
X038846Y005868D01*
X038655Y005868D01*
X038521Y005733D01*
X038521Y005543D01*
X038570Y005493D01*
X038521Y005443D01*
X038521Y005253D01*
X038655Y005118D01*
X038846Y005118D01*
X038981Y005253D01*
X038981Y005443D01*
X038931Y005493D01*
X038981Y005543D01*
X038981Y005733D01*
X038981Y005673D02*
X039271Y005673D01*
X039309Y005574D02*
X038981Y005574D01*
X038948Y005476D02*
X040163Y005476D01*
X040165Y005478D02*
X040031Y005343D01*
X040031Y005153D01*
X040165Y005018D01*
X040356Y005018D01*
X040491Y005153D01*
X040491Y005343D01*
X040356Y005478D01*
X040165Y005478D01*
X040065Y005377D02*
X038981Y005377D01*
X038981Y005279D02*
X039356Y005279D01*
X039405Y005328D02*
X039271Y005193D01*
X039271Y005003D01*
X039405Y004868D01*
X039596Y004868D01*
X039731Y005003D01*
X039731Y005193D01*
X039596Y005328D01*
X039405Y005328D01*
X039271Y005180D02*
X038908Y005180D01*
X038593Y005180D02*
X012608Y005180D01*
X012546Y005118D02*
X012681Y005253D01*
X012681Y005443D01*
X012546Y005578D01*
X012355Y005578D01*
X012221Y005443D01*
X012221Y005253D01*
X012355Y005118D01*
X012546Y005118D01*
X012681Y005279D02*
X038521Y005279D01*
X038521Y005377D02*
X012681Y005377D01*
X012648Y005476D02*
X038553Y005476D01*
X038521Y005574D02*
X012549Y005574D01*
X012352Y005574D02*
X011231Y005574D01*
X011231Y005643D02*
X011096Y005778D01*
X010905Y005778D01*
X010771Y005643D01*
X010771Y005453D01*
X010905Y005318D01*
X011096Y005318D01*
X011231Y005453D01*
X011231Y005643D01*
X011201Y005673D02*
X038521Y005673D01*
X038559Y005771D02*
X011102Y005771D01*
X010899Y005771D02*
X004001Y005771D01*
X004001Y005673D02*
X010800Y005673D01*
X010771Y005574D02*
X004001Y005574D01*
X004001Y005476D02*
X010771Y005476D01*
X010846Y005377D02*
X004001Y005377D01*
X004001Y005279D02*
X012221Y005279D01*
X012221Y005377D02*
X011155Y005377D01*
X011231Y005476D02*
X012253Y005476D01*
X012293Y005180D02*
X004001Y005180D01*
X004001Y005082D02*
X039271Y005082D01*
X039290Y004983D02*
X012140Y004983D01*
X012181Y004943D02*
X012046Y005078D01*
X011855Y005078D01*
X011721Y004943D01*
X011721Y004753D01*
X011855Y004618D01*
X012021Y004618D01*
X012021Y004453D01*
X012155Y004318D01*
X012346Y004318D01*
X012481Y004453D01*
X012481Y004643D01*
X012346Y004778D01*
X012181Y004778D01*
X012181Y004943D01*
X012181Y004885D02*
X039388Y004885D01*
X039613Y004885D02*
X041788Y004885D01*
X041771Y004903D02*
X041905Y004768D01*
X042096Y004768D01*
X042231Y004903D01*
X042231Y005093D01*
X042096Y005228D01*
X041905Y005228D01*
X041771Y005093D01*
X041771Y004903D01*
X041771Y004983D02*
X039711Y004983D01*
X039731Y005082D02*
X040101Y005082D01*
X040031Y005180D02*
X039731Y005180D01*
X039645Y005279D02*
X040031Y005279D01*
X040358Y005476D02*
X040703Y005476D01*
X040755Y005528D02*
X040621Y005393D01*
X040621Y005203D01*
X040755Y005068D01*
X040946Y005068D01*
X041081Y005203D01*
X041081Y005393D01*
X040946Y005528D01*
X040755Y005528D01*
X040621Y005377D02*
X040456Y005377D01*
X040491Y005279D02*
X040621Y005279D01*
X040643Y005180D02*
X040491Y005180D01*
X040420Y005082D02*
X040741Y005082D01*
X040960Y005082D02*
X041771Y005082D01*
X041858Y005180D02*
X041608Y005180D01*
X041546Y005118D02*
X041681Y005253D01*
X041681Y005443D01*
X041546Y005578D01*
X041355Y005578D01*
X041221Y005443D01*
X041221Y005253D01*
X041355Y005118D01*
X041546Y005118D01*
X041681Y005279D02*
X042721Y005279D01*
X042721Y005203D02*
X042855Y005068D01*
X043046Y005068D01*
X043181Y005203D01*
X043181Y005393D01*
X043126Y005448D01*
X043181Y005503D01*
X043181Y005693D01*
X043046Y005828D01*
X042855Y005828D01*
X042721Y005693D01*
X042721Y005503D01*
X042775Y005448D01*
X042721Y005393D01*
X042721Y005203D01*
X042743Y005180D02*
X042143Y005180D01*
X042231Y005082D02*
X042841Y005082D01*
X043060Y005082D02*
X046521Y005082D01*
X046521Y005053D02*
X046625Y004948D01*
X046521Y004843D01*
X046521Y004653D01*
X046655Y004518D01*
X046846Y004518D01*
X046901Y004573D01*
X046955Y004518D01*
X047146Y004518D01*
X047281Y004653D01*
X047281Y004843D01*
X047176Y004948D01*
X047281Y005053D01*
X047281Y005243D01*
X047146Y005378D01*
X046955Y005378D01*
X046901Y005323D01*
X046846Y005378D01*
X046655Y005378D01*
X046521Y005243D01*
X046521Y005053D01*
X046590Y004983D02*
X042231Y004983D01*
X042213Y004885D02*
X046562Y004885D01*
X046521Y004786D02*
X042114Y004786D01*
X041887Y004786D02*
X012181Y004786D01*
X012021Y004589D02*
X008681Y004589D01*
X008681Y004643D02*
X008546Y004778D01*
X008355Y004778D01*
X008221Y004643D01*
X008221Y004453D01*
X008355Y004318D01*
X008546Y004318D01*
X008681Y004453D01*
X008681Y004643D01*
X008636Y004688D02*
X011785Y004688D01*
X011721Y004786D02*
X004001Y004786D01*
X004001Y004688D02*
X008265Y004688D01*
X008221Y004589D02*
X004001Y004589D01*
X004001Y004491D02*
X008221Y004491D01*
X008281Y004392D02*
X004001Y004392D01*
X004001Y004294D02*
X034521Y004294D01*
X034521Y004343D02*
X034521Y004153D01*
X034625Y004048D01*
X034521Y003943D01*
X034521Y003753D01*
X034655Y003618D01*
X034846Y003618D01*
X034951Y003723D01*
X035055Y003618D01*
X035246Y003618D01*
X035351Y003723D01*
X035455Y003618D01*
X035646Y003618D01*
X035781Y003753D01*
X035781Y003943D01*
X035676Y004048D01*
X035781Y004153D01*
X035781Y004343D01*
X035646Y004478D01*
X035455Y004478D01*
X035351Y004373D01*
X035246Y004478D01*
X035055Y004478D01*
X034951Y004373D01*
X034846Y004478D01*
X034655Y004478D01*
X034521Y004343D01*
X034570Y004392D02*
X012420Y004392D01*
X012481Y004491D02*
X039521Y004491D01*
X039521Y004453D02*
X039655Y004318D01*
X039846Y004318D01*
X039981Y004453D01*
X039981Y004643D01*
X039846Y004778D01*
X039655Y004778D01*
X039521Y004643D01*
X039521Y004453D01*
X039581Y004392D02*
X035731Y004392D01*
X035781Y004294D02*
X041229Y004294D01*
X041171Y004353D02*
X041305Y004218D01*
X041496Y004218D01*
X041631Y004353D01*
X041631Y004543D01*
X041496Y004678D01*
X041305Y004678D01*
X041171Y004543D01*
X041171Y004353D01*
X041171Y004392D02*
X039920Y004392D01*
X039981Y004491D02*
X041171Y004491D01*
X041217Y004589D02*
X039981Y004589D01*
X039936Y004688D02*
X046521Y004688D01*
X046584Y004589D02*
X043834Y004589D01*
X043881Y004543D02*
X043746Y004678D01*
X043555Y004678D01*
X043421Y004543D01*
X043421Y004353D01*
X043555Y004218D01*
X043746Y004218D01*
X043881Y004353D01*
X043881Y004543D01*
X043881Y004491D02*
X048701Y004491D01*
X048701Y004589D02*
X047217Y004589D01*
X047281Y004688D02*
X048701Y004688D01*
X048701Y004786D02*
X047281Y004786D01*
X047239Y004885D02*
X048701Y004885D01*
X048701Y004983D02*
X047211Y004983D01*
X047281Y005082D02*
X048701Y005082D01*
X048701Y005180D02*
X047281Y005180D01*
X047245Y005279D02*
X048701Y005279D01*
X048701Y005377D02*
X047146Y005377D01*
X046955Y005377D02*
X046846Y005377D01*
X046655Y005377D02*
X043181Y005377D01*
X043181Y005279D02*
X046556Y005279D01*
X046521Y005180D02*
X043158Y005180D01*
X043154Y005476D02*
X044647Y005476D01*
X044655Y005468D02*
X044846Y005468D01*
X044981Y005603D01*
X044981Y005793D01*
X044846Y005928D01*
X044655Y005928D01*
X044521Y005793D01*
X044521Y005603D01*
X044655Y005468D01*
X044549Y005574D02*
X043181Y005574D01*
X043181Y005673D02*
X044521Y005673D01*
X044521Y005771D02*
X043102Y005771D01*
X042799Y005771D02*
X042431Y005771D01*
X042431Y005793D02*
X042296Y005928D01*
X042105Y005928D01*
X041971Y005793D01*
X041971Y005603D01*
X042105Y005468D01*
X042296Y005468D01*
X042431Y005603D01*
X042431Y005793D01*
X042354Y005870D02*
X044597Y005870D01*
X044904Y005870D02*
X048701Y005870D01*
X048701Y005771D02*
X044981Y005771D01*
X044981Y005673D02*
X048701Y005673D01*
X048701Y005574D02*
X044952Y005574D01*
X044854Y005476D02*
X048701Y005476D01*
X048701Y004392D02*
X043881Y004392D01*
X043822Y004294D02*
X048701Y004294D01*
X048701Y004195D02*
X035781Y004195D01*
X035725Y004097D02*
X039324Y004097D01*
X039301Y004073D02*
X039296Y004078D01*
X039105Y004078D01*
X038971Y003943D01*
X038971Y003753D01*
X039105Y003618D01*
X039296Y003618D01*
X039401Y003723D01*
X039405Y003718D01*
X039596Y003718D01*
X039731Y003853D01*
X039731Y004043D01*
X039596Y004178D01*
X039405Y004178D01*
X039301Y004073D01*
X039026Y003998D02*
X035725Y003998D01*
X035781Y003900D02*
X038971Y003900D01*
X038971Y003801D02*
X035781Y003801D01*
X035731Y003703D02*
X036780Y003703D01*
X036721Y003643D02*
X036721Y003453D01*
X036855Y003318D01*
X036859Y003318D01*
X036774Y003233D01*
X036724Y003113D01*
X036724Y002983D01*
X036774Y002863D01*
X036866Y002771D01*
X036986Y002722D01*
X037116Y002722D01*
X037235Y002771D01*
X037327Y002863D01*
X037377Y002983D01*
X037377Y003113D01*
X037327Y003233D01*
X037235Y003324D01*
X037116Y003374D01*
X037102Y003374D01*
X037151Y003423D01*
X037255Y003318D01*
X037446Y003318D01*
X037551Y003423D01*
X037655Y003318D01*
X037846Y003318D01*
X037981Y003453D01*
X037981Y003643D01*
X037846Y003778D01*
X037655Y003778D01*
X037551Y003673D01*
X037446Y003778D01*
X037255Y003778D01*
X037151Y003673D01*
X037046Y003778D01*
X036855Y003778D01*
X036721Y003643D01*
X036721Y003604D02*
X004001Y003604D01*
X004001Y003506D02*
X032883Y003506D01*
X032821Y003443D02*
X032821Y003253D01*
X032955Y003118D01*
X033146Y003118D01*
X033251Y003223D01*
X033355Y003118D01*
X033546Y003118D01*
X033651Y003223D01*
X033755Y003118D01*
X033946Y003118D01*
X034081Y003253D01*
X034081Y003443D01*
X033946Y003578D01*
X033755Y003578D01*
X033651Y003473D01*
X033546Y003578D01*
X033355Y003578D01*
X033251Y003473D01*
X033146Y003578D01*
X032955Y003578D01*
X032821Y003443D01*
X032821Y003407D02*
X004001Y003407D01*
X004001Y003309D02*
X032821Y003309D01*
X032863Y003210D02*
X004001Y003210D01*
X004001Y003112D02*
X036724Y003112D01*
X036724Y003013D02*
X004001Y003013D01*
X004001Y002915D02*
X036753Y002915D01*
X036821Y002816D02*
X005656Y002816D01*
X005714Y002792D02*
X005478Y002890D01*
X005223Y002890D01*
X004987Y002792D01*
X004806Y002612D01*
X004709Y002376D01*
X004709Y002120D01*
X004806Y001884D01*
X004987Y001704D01*
X005223Y001606D01*
X005478Y001606D01*
X005714Y001704D01*
X005895Y001884D01*
X005993Y002120D01*
X005993Y002376D01*
X005895Y002612D01*
X005714Y002792D01*
X005789Y002718D02*
X038971Y002718D01*
X038971Y002703D02*
X039105Y002568D01*
X039296Y002568D01*
X039431Y002703D01*
X039431Y002893D01*
X039296Y003028D01*
X039105Y003028D01*
X038971Y002893D01*
X038971Y002703D01*
X038971Y002816D02*
X037281Y002816D01*
X037349Y002915D02*
X038992Y002915D01*
X039091Y003013D02*
X037377Y003013D01*
X037377Y003112D02*
X048701Y003112D01*
X048701Y003210D02*
X037336Y003210D01*
X037251Y003309D02*
X048701Y003309D01*
X048701Y003407D02*
X037935Y003407D01*
X037981Y003506D02*
X041167Y003506D01*
X041121Y003553D02*
X041255Y003418D01*
X041446Y003418D01*
X041581Y003553D01*
X041581Y003743D01*
X041446Y003878D01*
X041255Y003878D01*
X041121Y003743D01*
X041121Y003553D01*
X041121Y003604D02*
X037981Y003604D01*
X037921Y003703D02*
X039020Y003703D01*
X039381Y003703D02*
X041121Y003703D01*
X041179Y003801D02*
X039679Y003801D01*
X039731Y003900D02*
X041771Y003900D01*
X041771Y003993D02*
X041771Y003803D01*
X041905Y003668D01*
X042096Y003668D01*
X042121Y003693D01*
X042121Y003553D01*
X042255Y003418D01*
X042446Y003418D01*
X042581Y003553D01*
X042581Y003743D01*
X042446Y003878D01*
X042255Y003878D01*
X042231Y003853D01*
X042231Y003993D01*
X042096Y004128D01*
X041905Y004128D01*
X041771Y003993D01*
X041776Y003998D02*
X039731Y003998D01*
X039677Y004097D02*
X041874Y004097D01*
X042127Y004097D02*
X048701Y004097D01*
X048701Y003998D02*
X042225Y003998D01*
X042231Y003900D02*
X048701Y003900D01*
X048701Y003801D02*
X042522Y003801D01*
X042581Y003703D02*
X048701Y003703D01*
X048701Y003604D02*
X042581Y003604D01*
X042534Y003506D02*
X048701Y003506D01*
X048701Y003013D02*
X039310Y003013D01*
X039409Y002915D02*
X048701Y002915D01*
X048701Y002816D02*
X047656Y002816D01*
X047714Y002792D02*
X047478Y002890D01*
X047223Y002890D01*
X046987Y002792D01*
X046806Y002612D01*
X046709Y002376D01*
X046709Y002120D01*
X046806Y001884D01*
X046987Y001704D01*
X047223Y001606D01*
X047478Y001606D01*
X047714Y001704D01*
X047895Y001884D01*
X047993Y002120D01*
X047993Y002376D01*
X047895Y002612D01*
X047714Y002792D01*
X047789Y002718D02*
X048701Y002718D01*
X048701Y002619D02*
X047887Y002619D01*
X047933Y002521D02*
X048701Y002521D01*
X048701Y002422D02*
X047973Y002422D01*
X047993Y002324D02*
X048701Y002324D01*
X048701Y002225D02*
X047993Y002225D01*
X047993Y002127D02*
X048701Y002127D01*
X048701Y002028D02*
X047955Y002028D01*
X047914Y001930D02*
X048701Y001930D01*
X048701Y001831D02*
X047842Y001831D01*
X047744Y001733D02*
X048701Y001733D01*
X048701Y001634D02*
X047547Y001634D01*
X047154Y001634D02*
X045568Y001634D01*
X045577Y001613D02*
X045527Y001733D01*
X046958Y001733D01*
X046859Y001831D02*
X045419Y001831D01*
X045435Y001824D02*
X045316Y001874D01*
X045186Y001874D01*
X045066Y001824D01*
X044974Y001733D01*
X044481Y001733D01*
X044481Y001653D02*
X044481Y001843D01*
X044346Y001978D01*
X044155Y001978D01*
X044101Y001923D01*
X044046Y001978D01*
X043855Y001978D01*
X043801Y001923D01*
X043746Y001978D01*
X043555Y001978D01*
X043421Y001843D01*
X043421Y001653D01*
X043525Y001548D01*
X043421Y001443D01*
X043421Y001253D01*
X043555Y001118D01*
X043746Y001118D01*
X043801Y001173D01*
X043855Y001118D01*
X044046Y001118D01*
X044101Y001173D01*
X044155Y001118D01*
X044346Y001118D01*
X044481Y001253D01*
X044481Y001443D01*
X044376Y001548D01*
X044481Y001653D01*
X044462Y001634D02*
X044933Y001634D01*
X044924Y001613D02*
X044924Y001483D01*
X044974Y001363D01*
X045066Y001271D01*
X045186Y001222D01*
X045316Y001222D01*
X045435Y001271D01*
X045527Y001363D01*
X045577Y001483D01*
X045577Y001613D01*
X045577Y001536D02*
X048701Y001536D01*
X048701Y001437D02*
X045558Y001437D01*
X045503Y001339D02*
X048701Y001339D01*
X048701Y001240D02*
X045361Y001240D01*
X045140Y001240D02*
X044468Y001240D01*
X044481Y001339D02*
X044998Y001339D01*
X044943Y001437D02*
X044481Y001437D01*
X044388Y001536D02*
X044924Y001536D01*
X044924Y001613D02*
X044974Y001733D01*
X045083Y001831D02*
X044481Y001831D01*
X044394Y001930D02*
X046787Y001930D01*
X046747Y002028D02*
X005955Y002028D01*
X005993Y002127D02*
X046709Y002127D01*
X046709Y002225D02*
X005993Y002225D01*
X005993Y002324D02*
X046709Y002324D01*
X046728Y002422D02*
X005973Y002422D01*
X005933Y002521D02*
X046769Y002521D01*
X046814Y002619D02*
X039347Y002619D01*
X039431Y002718D02*
X046913Y002718D01*
X047045Y002816D02*
X039431Y002816D01*
X039054Y002619D02*
X005887Y002619D01*
X005045Y002816D02*
X004001Y002816D01*
X004001Y002718D02*
X004913Y002718D01*
X004814Y002619D02*
X004001Y002619D01*
X004001Y002521D02*
X004769Y002521D01*
X004728Y002422D02*
X004001Y002422D01*
X004001Y002324D02*
X004709Y002324D01*
X004709Y002225D02*
X004001Y002225D01*
X004001Y002127D02*
X004709Y002127D01*
X004747Y002028D02*
X004001Y002028D01*
X004001Y001930D02*
X004787Y001930D01*
X004859Y001831D02*
X004001Y001831D01*
X004001Y001733D02*
X004958Y001733D01*
X005154Y001634D02*
X004001Y001634D01*
X004001Y001536D02*
X043513Y001536D01*
X043439Y001634D02*
X005547Y001634D01*
X005744Y001733D02*
X043421Y001733D01*
X043421Y001831D02*
X005842Y001831D01*
X005914Y001930D02*
X043507Y001930D01*
X043794Y001930D02*
X043807Y001930D01*
X044094Y001930D02*
X044107Y001930D01*
X043421Y001437D02*
X004001Y001437D01*
X004001Y001339D02*
X043421Y001339D01*
X043433Y001240D02*
X004001Y001240D01*
X004001Y001142D02*
X043531Y001142D01*
X043770Y001142D02*
X043831Y001142D01*
X044070Y001142D02*
X044131Y001142D01*
X044370Y001142D02*
X048701Y001142D01*
X048701Y001043D02*
X004001Y001043D01*
X004001Y000945D02*
X048701Y000945D01*
X045527Y001733D02*
X045435Y001824D01*
X042167Y003506D02*
X041534Y003506D01*
X041581Y003604D02*
X042121Y003604D01*
X041870Y003703D02*
X041581Y003703D01*
X041522Y003801D02*
X041772Y003801D01*
X041572Y004294D02*
X043479Y004294D01*
X043421Y004392D02*
X041631Y004392D01*
X041631Y004491D02*
X043421Y004491D01*
X043467Y004589D02*
X041584Y004589D01*
X041293Y005180D02*
X041058Y005180D01*
X041081Y005279D02*
X041221Y005279D01*
X041221Y005377D02*
X041081Y005377D01*
X040998Y005476D02*
X041253Y005476D01*
X041352Y005574D02*
X039692Y005574D01*
X039731Y005673D02*
X041971Y005673D01*
X041971Y005771D02*
X039731Y005771D01*
X039664Y005870D02*
X042047Y005870D01*
X041999Y005574D02*
X041549Y005574D01*
X041648Y005476D02*
X042097Y005476D01*
X042304Y005476D02*
X042747Y005476D01*
X042721Y005574D02*
X042402Y005574D01*
X042431Y005673D02*
X042721Y005673D01*
X042721Y005377D02*
X041681Y005377D01*
X039565Y004688D02*
X012436Y004688D01*
X012481Y004589D02*
X039521Y004589D01*
X037580Y003703D02*
X037521Y003703D01*
X037535Y003407D02*
X037566Y003407D01*
X037166Y003407D02*
X037135Y003407D01*
X037121Y003703D02*
X037180Y003703D01*
X036721Y003506D02*
X034018Y003506D01*
X034081Y003407D02*
X036766Y003407D01*
X036850Y003309D02*
X034081Y003309D01*
X034038Y003210D02*
X036765Y003210D01*
X035370Y003703D02*
X035331Y003703D01*
X034970Y003703D02*
X034931Y003703D01*
X034570Y003703D02*
X034031Y003703D01*
X034081Y003753D02*
X034081Y003943D01*
X033946Y004078D01*
X033755Y004078D01*
X033651Y003973D01*
X033546Y004078D01*
X033355Y004078D01*
X033251Y003973D01*
X033146Y004078D01*
X032955Y004078D01*
X032821Y003943D01*
X032821Y003753D01*
X032955Y003618D01*
X033146Y003618D01*
X033251Y003723D01*
X033355Y003618D01*
X033546Y003618D01*
X033651Y003723D01*
X033755Y003618D01*
X033946Y003618D01*
X034081Y003753D01*
X034081Y003801D02*
X034521Y003801D01*
X034521Y003900D02*
X034081Y003900D01*
X034025Y003998D02*
X034576Y003998D01*
X034576Y004097D02*
X004001Y004097D01*
X004001Y004195D02*
X034521Y004195D01*
X034931Y004392D02*
X034970Y004392D01*
X035331Y004392D02*
X035370Y004392D01*
X033676Y003998D02*
X033625Y003998D01*
X033631Y003703D02*
X033670Y003703D01*
X033683Y003506D02*
X033618Y003506D01*
X033638Y003210D02*
X033663Y003210D01*
X033263Y003210D02*
X033238Y003210D01*
X033218Y003506D02*
X033283Y003506D01*
X033270Y003703D02*
X033231Y003703D01*
X033225Y003998D02*
X033276Y003998D01*
X032876Y003998D02*
X004001Y003998D01*
X004001Y003900D02*
X032821Y003900D01*
X032821Y003801D02*
X004001Y003801D01*
X004001Y003703D02*
X032870Y003703D01*
X037689Y006461D02*
X043712Y006461D01*
X043621Y006559D02*
X037781Y006559D01*
X037781Y006658D02*
X043621Y006658D01*
X043634Y006756D02*
X037767Y006756D01*
X037669Y006855D02*
X043732Y006855D01*
X043628Y007052D02*
X047931Y007052D01*
X047943Y007150D02*
X043631Y007150D01*
X043626Y007249D02*
X044974Y007249D01*
X044921Y007347D02*
X043528Y007347D01*
X043971Y007643D02*
X044030Y007643D01*
X044271Y007643D02*
X046421Y007643D01*
X046421Y007741D02*
X044369Y007741D01*
X044381Y007840D02*
X046333Y007840D01*
X046235Y007938D02*
X044381Y007938D01*
X044287Y008037D02*
X044886Y008037D01*
X044821Y008135D02*
X042581Y008135D01*
X042581Y008234D02*
X044821Y008234D01*
X044860Y008332D02*
X042491Y008332D01*
X042565Y008037D02*
X043714Y008037D01*
X043987Y008037D02*
X044014Y008037D01*
X043046Y008628D02*
X042855Y008628D01*
X040897Y008726D02*
X040804Y008726D01*
X038535Y010007D02*
X046266Y010007D01*
X046221Y010105D02*
X038581Y010105D01*
X038581Y010204D02*
X046221Y010204D01*
X046280Y010302D02*
X038521Y010302D01*
X037081Y010499D02*
X041174Y010499D01*
X041075Y010598D02*
X037026Y010598D01*
X036675Y010598D02*
X036626Y010598D01*
X036221Y010401D02*
X031531Y010401D01*
X031480Y010302D02*
X036271Y010302D01*
X036630Y010302D02*
X036671Y010302D01*
X036686Y009908D02*
X036615Y009908D01*
X036641Y009613D02*
X036660Y009613D01*
X036260Y009613D02*
X004001Y009613D01*
X004001Y009711D02*
X036221Y009711D01*
X034472Y010795D02*
X025623Y010795D01*
X025681Y010893D02*
X034571Y010893D01*
X034605Y011218D02*
X034796Y011218D01*
X034931Y011353D01*
X034931Y011543D01*
X034796Y011678D01*
X034605Y011678D01*
X034471Y011543D01*
X034471Y011353D01*
X034605Y011218D01*
X034536Y011287D02*
X010631Y011287D01*
X010631Y011386D02*
X034471Y011386D01*
X034471Y011484D02*
X010589Y011484D01*
X010558Y011780D02*
X012193Y011780D01*
X012121Y011878D02*
X010631Y011878D01*
X010631Y011977D02*
X012121Y011977D01*
X012153Y012075D02*
X010598Y012075D01*
X010500Y012174D02*
X012251Y012174D01*
X012450Y012174D02*
X020621Y012174D01*
X020621Y012075D02*
X012548Y012075D01*
X012581Y011977D02*
X020666Y011977D01*
X020680Y012272D02*
X004001Y012272D01*
X004001Y012174D02*
X010301Y012174D01*
X010203Y012075D02*
X005998Y012075D01*
X006081Y011977D02*
X010171Y011977D01*
X010171Y011878D02*
X006081Y011878D01*
X005742Y011681D02*
X005559Y011681D01*
X005342Y011681D02*
X004001Y011681D01*
X004001Y011583D02*
X032340Y011583D01*
X032242Y011681D02*
X032209Y011681D01*
X032561Y011583D02*
X034510Y011583D01*
X034891Y011583D02*
X036660Y011583D01*
X036621Y011484D02*
X034931Y011484D01*
X034931Y011386D02*
X036621Y011386D01*
X036465Y011287D02*
X034865Y011287D01*
X036508Y011780D02*
X045821Y011780D01*
X045906Y011878D02*
X036581Y011878D01*
X034633Y013356D02*
X034434Y013356D01*
X034481Y013454D02*
X034732Y013454D01*
X035131Y013553D02*
X035131Y013743D01*
X034996Y013878D01*
X035124Y013750D02*
X035827Y013750D01*
X035729Y013651D02*
X035131Y013651D01*
X031798Y012075D02*
X031703Y012075D01*
X031398Y012075D02*
X031253Y012075D01*
X031321Y009317D02*
X004001Y009317D01*
X004001Y009219D02*
X006296Y009219D01*
X006221Y009120D02*
X004001Y009120D01*
X004001Y009022D02*
X006221Y009022D01*
X006250Y008923D02*
X004001Y008923D01*
X004001Y008825D02*
X006348Y008825D01*
X006553Y008825D02*
X006748Y008825D01*
X007081Y009022D02*
X028799Y009022D01*
X028771Y008993D02*
X028771Y008803D01*
X028905Y008668D01*
X029096Y008668D01*
X029231Y008803D01*
X029231Y008993D01*
X029096Y009128D01*
X028905Y009128D01*
X028771Y008993D01*
X028771Y008923D02*
X011950Y008923D01*
X012031Y008825D02*
X028771Y008825D01*
X028847Y008726D02*
X012031Y008726D01*
X012006Y008628D02*
X013805Y008628D01*
X013855Y008678D02*
X013721Y008543D01*
X013721Y008353D01*
X013855Y008218D01*
X014046Y008218D01*
X014181Y008353D01*
X014181Y008543D01*
X014046Y008678D01*
X013855Y008678D01*
X013721Y008529D02*
X012894Y008529D01*
X012931Y008493D02*
X012796Y008628D01*
X012605Y008628D01*
X012471Y008493D01*
X012471Y008303D01*
X012605Y008168D01*
X012796Y008168D01*
X012931Y008303D01*
X012931Y008493D01*
X012931Y008431D02*
X013721Y008431D01*
X013741Y008332D02*
X012931Y008332D01*
X012862Y008234D02*
X013839Y008234D01*
X014062Y008234D02*
X015989Y008234D01*
X016005Y008218D02*
X016196Y008218D01*
X016331Y008353D01*
X016331Y008543D01*
X016196Y008678D01*
X016005Y008678D01*
X015871Y008543D01*
X015871Y008353D01*
X016005Y008218D01*
X015891Y008332D02*
X014160Y008332D01*
X014181Y008431D02*
X015871Y008431D01*
X015871Y008529D02*
X014181Y008529D01*
X014096Y008628D02*
X015955Y008628D01*
X016246Y008628D02*
X018105Y008628D01*
X018155Y008678D02*
X018021Y008543D01*
X018021Y008353D01*
X018155Y008218D01*
X018346Y008218D01*
X018481Y008353D01*
X018481Y008543D01*
X018346Y008678D01*
X018155Y008678D01*
X018021Y008529D02*
X016331Y008529D01*
X016331Y008431D02*
X018021Y008431D01*
X018041Y008332D02*
X016310Y008332D01*
X016212Y008234D02*
X018139Y008234D01*
X018362Y008234D02*
X026089Y008234D01*
X025991Y008332D02*
X018460Y008332D01*
X018481Y008431D02*
X025971Y008431D01*
X025971Y008529D02*
X018481Y008529D01*
X018396Y008628D02*
X026055Y008628D01*
X026346Y008628D02*
X031545Y008628D01*
X031447Y008726D02*
X029154Y008726D01*
X029231Y008825D02*
X031421Y008825D01*
X031421Y008923D02*
X029231Y008923D01*
X029202Y009022D02*
X031451Y009022D01*
X031353Y009120D02*
X029103Y009120D01*
X028898Y009120D02*
X007081Y009120D01*
X007005Y009219D02*
X031321Y009219D01*
X032156Y008628D02*
X032295Y008628D01*
X032181Y008431D02*
X032081Y008431D01*
X031621Y008037D02*
X007215Y008037D01*
X007285Y007938D02*
X031621Y007938D01*
X037432Y006855D02*
X010919Y006855D01*
X010682Y006855D02*
X010281Y006855D01*
X010281Y006953D02*
X043271Y006953D01*
X043530Y006953D02*
X047948Y006953D01*
X048001Y006855D02*
X044269Y006855D01*
X044032Y006855D02*
X043969Y006855D01*
X043989Y006461D02*
X044012Y006461D01*
X045327Y007249D02*
X047989Y007249D01*
X048113Y007347D02*
X045381Y007347D01*
X045381Y007446D02*
X046527Y007446D01*
X046429Y007544D02*
X045329Y007544D01*
X045215Y008037D02*
X046221Y008037D01*
X046221Y008135D02*
X045281Y008135D01*
X044378Y010795D02*
X044323Y010795D01*
X043978Y010795D02*
X043923Y010795D01*
X043939Y011484D02*
X043962Y011484D01*
X044339Y011484D02*
X044362Y011484D01*
X045321Y012666D02*
X041881Y012666D01*
X041881Y012765D02*
X045321Y012765D01*
X045341Y012863D02*
X041860Y012863D01*
X041762Y012962D02*
X045439Y012962D01*
X045662Y012962D02*
X045839Y012962D01*
X045817Y013356D02*
X045684Y013356D01*
X041539Y012962D02*
X041462Y012962D01*
X033859Y016114D02*
X014081Y016114D01*
X014081Y016053D02*
X013946Y015918D01*
X013755Y015918D01*
X013621Y016053D01*
X013621Y016243D01*
X013755Y016378D01*
X013946Y016378D01*
X014081Y016243D01*
X014081Y016053D01*
X014043Y016015D02*
X032543Y016015D01*
X032444Y015917D02*
X010631Y015917D01*
X010631Y015853D02*
X010496Y015718D01*
X010305Y015718D01*
X010171Y015853D01*
X010171Y016043D01*
X010305Y016178D01*
X010496Y016178D01*
X010631Y016043D01*
X010631Y015853D01*
X010596Y015818D02*
X032421Y015818D01*
X032421Y015720D02*
X012654Y015720D01*
X012447Y015720D02*
X010498Y015720D01*
X010303Y015720D02*
X004001Y015720D01*
X004001Y015818D02*
X010205Y015818D01*
X010171Y015917D02*
X004001Y015917D01*
X004001Y016015D02*
X010171Y016015D01*
X010241Y016114D02*
X004001Y016114D01*
X004001Y016212D02*
X013621Y016212D01*
X013621Y016114D02*
X010560Y016114D01*
X010631Y016015D02*
X013658Y016015D01*
X014081Y016212D02*
X033821Y016212D01*
X033821Y016311D02*
X014013Y016311D01*
X013688Y016311D02*
X010589Y016311D01*
X010631Y016409D02*
X033887Y016409D01*
X031930Y017493D02*
X030121Y017493D01*
X030181Y017553D02*
X030046Y017418D01*
X029855Y017418D01*
X029721Y017553D01*
X029721Y017743D01*
X029855Y017878D01*
X030046Y017878D01*
X030181Y017743D01*
X030181Y017553D01*
X030181Y017591D02*
X031871Y017591D01*
X031871Y017690D02*
X030181Y017690D01*
X030135Y017788D02*
X031916Y017788D01*
X032250Y018773D02*
X026231Y018773D01*
X026202Y018872D02*
X032151Y018872D01*
X032121Y018970D02*
X026103Y018970D01*
X025898Y018970D02*
X018353Y018970D01*
X018452Y018872D02*
X025799Y018872D01*
X025771Y018773D02*
X018481Y018773D01*
X018481Y018675D02*
X025771Y018675D01*
X025847Y018576D02*
X018404Y018576D01*
X018021Y018773D02*
X016331Y018773D01*
X016331Y018872D02*
X018049Y018872D01*
X018148Y018970D02*
X016303Y018970D01*
X016205Y019069D02*
X032121Y019069D01*
X029766Y017788D02*
X029535Y017788D01*
X029581Y017743D02*
X029446Y017878D01*
X029255Y017878D01*
X029121Y017743D01*
X029121Y017553D01*
X029255Y017418D01*
X029446Y017418D01*
X029581Y017553D01*
X029581Y017743D01*
X029581Y017690D02*
X029721Y017690D01*
X029721Y017591D02*
X029581Y017591D01*
X029521Y017493D02*
X029780Y017493D01*
X029180Y017493D02*
X026521Y017493D01*
X026581Y017553D02*
X026581Y017743D01*
X026446Y017878D01*
X026255Y017878D01*
X026151Y017773D01*
X026046Y017878D01*
X025855Y017878D01*
X025721Y017743D01*
X025721Y017553D01*
X025855Y017418D01*
X026046Y017418D01*
X026151Y017523D01*
X026255Y017418D01*
X026446Y017418D01*
X026581Y017553D01*
X026581Y017591D02*
X029121Y017591D01*
X029121Y017690D02*
X026581Y017690D01*
X026535Y017788D02*
X029166Y017788D01*
X026166Y017788D02*
X026135Y017788D01*
X026121Y017493D02*
X026180Y017493D01*
X025780Y017493D02*
X025541Y017493D01*
X025541Y017591D02*
X025721Y017591D01*
X025721Y017690D02*
X025444Y017690D01*
X025177Y017690D02*
X004001Y017690D01*
X004001Y017788D02*
X025766Y017788D01*
X025081Y017591D02*
X004001Y017591D01*
X004001Y017493D02*
X025081Y017493D01*
X025089Y017394D02*
X004001Y017394D01*
X004001Y017296D02*
X025187Y017296D01*
X031171Y020645D02*
X004001Y020645D01*
X004001Y020743D02*
X031171Y020743D01*
X031219Y020842D02*
X012470Y020842D01*
X012568Y020940D02*
X032483Y020940D01*
X032505Y020918D02*
X032371Y021053D01*
X032371Y021243D01*
X032505Y021378D01*
X032696Y021378D01*
X032831Y021243D01*
X032831Y021053D01*
X032696Y020918D01*
X032505Y020918D01*
X032384Y021039D02*
X031767Y021039D01*
X031865Y021137D02*
X032371Y021137D01*
X032371Y021236D02*
X031881Y021236D01*
X031881Y021334D02*
X032462Y021334D01*
X032739Y021334D02*
X035271Y021334D01*
X035271Y021393D02*
X035271Y021203D01*
X035405Y021068D01*
X035596Y021068D01*
X035731Y021203D01*
X035731Y021393D01*
X035596Y021528D01*
X035405Y021528D01*
X035271Y021393D01*
X035310Y021433D02*
X032061Y021433D01*
X031840Y021433D02*
X031791Y021433D01*
X032718Y020940D02*
X032771Y020940D01*
X032817Y021039D02*
X032866Y021039D01*
X032831Y021137D02*
X035336Y021137D01*
X035271Y021236D02*
X032831Y021236D01*
X033231Y020842D02*
X034619Y020842D01*
X034571Y020743D02*
X033221Y020743D01*
X035665Y021137D02*
X036386Y021137D01*
X036321Y021203D02*
X036455Y021068D01*
X036646Y021068D01*
X036781Y021203D01*
X036781Y021393D01*
X036646Y021528D01*
X036455Y021528D01*
X036321Y021393D01*
X036321Y021203D01*
X036321Y021236D02*
X035731Y021236D01*
X035731Y021334D02*
X036321Y021334D01*
X036360Y021433D02*
X035691Y021433D01*
X036741Y021433D02*
X036960Y021433D01*
X036921Y021334D02*
X036781Y021334D01*
X036781Y021236D02*
X036921Y021236D01*
X036986Y021137D02*
X036715Y021137D01*
X032575Y022615D02*
X004001Y022615D01*
X004001Y022713D02*
X032512Y022713D01*
X032485Y022812D02*
X004001Y022812D01*
X004001Y022910D02*
X032485Y022910D01*
X032523Y023009D02*
X004001Y023009D01*
X004001Y023107D02*
X032601Y023107D01*
X036450Y018773D02*
X036751Y018773D01*
X036579Y017394D02*
X039372Y017394D01*
X039321Y017296D02*
X036631Y017296D01*
X025342Y012765D02*
X011059Y012765D01*
X011081Y012666D02*
X025244Y012666D01*
X025221Y012568D02*
X011081Y012568D01*
X010997Y012469D02*
X025221Y012469D01*
X023770Y013553D02*
X012281Y013553D01*
X012222Y013651D02*
X023721Y013651D01*
X025268Y011090D02*
X004001Y011090D01*
X004001Y010992D02*
X005269Y010992D01*
X005221Y010943D02*
X005221Y010753D01*
X005355Y010618D01*
X005546Y010618D01*
X005651Y010723D01*
X005755Y010618D01*
X005946Y010618D01*
X006081Y010753D01*
X006081Y010943D01*
X005946Y011078D01*
X005755Y011078D01*
X005651Y010973D01*
X005546Y011078D01*
X005355Y011078D01*
X005221Y010943D01*
X005221Y010893D02*
X004001Y010893D01*
X004001Y010795D02*
X005221Y010795D01*
X005277Y010696D02*
X004001Y010696D01*
X004001Y010598D02*
X011875Y010598D01*
X011777Y010696D02*
X006024Y010696D01*
X006081Y010795D02*
X011771Y010795D01*
X011771Y010893D02*
X006081Y010893D01*
X006032Y010992D02*
X011869Y010992D01*
X012132Y010992D02*
X025221Y010992D01*
X018510Y012863D02*
X013291Y012863D01*
X013331Y012903D02*
X013196Y012768D01*
X013005Y012768D01*
X012951Y012823D01*
X012896Y012768D01*
X012705Y012768D01*
X012571Y012903D01*
X012571Y013093D01*
X012705Y013228D01*
X012896Y013228D01*
X012951Y013173D01*
X013005Y013228D01*
X013196Y013228D01*
X013331Y013093D01*
X013331Y012903D01*
X013331Y012962D02*
X018471Y012962D01*
X018471Y013060D02*
X013331Y013060D01*
X013265Y013159D02*
X018536Y013159D01*
X012636Y013159D02*
X012215Y013159D01*
X012281Y013060D02*
X012571Y013060D01*
X012571Y012962D02*
X012281Y012962D01*
X012241Y012863D02*
X012610Y012863D01*
X011867Y013356D02*
X004001Y013356D01*
X004001Y013454D02*
X011821Y013454D01*
X011821Y013553D02*
X004001Y013553D01*
X004001Y013651D02*
X011879Y013651D01*
X009491Y014932D02*
X009192Y014932D01*
X009421Y015030D02*
X004001Y015030D01*
X004001Y014932D02*
X008909Y014932D01*
X008821Y014833D02*
X004001Y014833D01*
X004001Y014735D02*
X008821Y014735D01*
X008837Y014636D02*
X004001Y014636D01*
X004001Y014538D02*
X008935Y014538D01*
X009421Y015129D02*
X004001Y015129D01*
X004001Y015227D02*
X009455Y015227D01*
X009553Y015326D02*
X004001Y015326D01*
X004001Y015424D02*
X010721Y015424D01*
X010721Y015523D02*
X004001Y015523D01*
X004001Y015621D02*
X010799Y015621D01*
X010747Y015326D02*
X009748Y015326D01*
X010212Y016311D02*
X004001Y016311D01*
X004001Y016409D02*
X010171Y016409D01*
X010171Y016508D02*
X004001Y016508D01*
X004001Y016606D02*
X010234Y016606D01*
X009589Y018084D02*
X004001Y018084D01*
X004001Y018182D02*
X009521Y018182D01*
X009521Y018281D02*
X004001Y018281D01*
X004001Y018379D02*
X009557Y018379D01*
X010473Y020251D02*
X010528Y020251D01*
X010773Y020251D02*
X010828Y020251D01*
X011870Y020842D02*
X011931Y020842D01*
X012170Y020842D02*
X012231Y020842D01*
X010813Y021236D02*
X010778Y021236D01*
X010503Y021236D02*
X010468Y021236D01*
X012399Y022024D02*
X007536Y022024D01*
X007165Y022024D02*
X004001Y022024D01*
X004001Y022122D02*
X012371Y022122D01*
X012371Y022221D02*
X004001Y022221D01*
X004001Y022319D02*
X012447Y022319D01*
X007258Y021433D02*
X004001Y021433D01*
X004001Y021531D02*
X007106Y021531D01*
X007046Y021630D02*
X004001Y021630D01*
X004001Y021728D02*
X007024Y021728D01*
X007030Y021827D02*
X004001Y021827D01*
X004001Y021925D02*
X007071Y021925D01*
X005719Y020546D02*
X004001Y020546D01*
X004001Y020448D02*
X005589Y020448D01*
X005540Y020349D02*
X004001Y020349D01*
X004001Y020251D02*
X005524Y020251D01*
X005537Y020152D02*
X004001Y020152D01*
X004001Y020054D02*
X005583Y020054D01*
X004001Y023206D02*
X042821Y023206D01*
X042882Y023304D02*
X004001Y023304D01*
X004001Y023797D02*
X004893Y023797D01*
X004802Y023895D02*
X004001Y023895D01*
X004001Y023994D02*
X004761Y023994D01*
X004720Y024092D02*
X004001Y024092D01*
X004001Y024191D02*
X004709Y024191D01*
X004709Y024289D02*
X004001Y024289D01*
X004001Y024388D02*
X004714Y024388D01*
X004754Y024486D02*
X004001Y024486D01*
X004001Y024585D02*
X004795Y024585D01*
X004878Y024683D02*
X004001Y024683D01*
X004001Y024782D02*
X004977Y024782D01*
X005200Y024880D02*
X004001Y024880D01*
X005501Y024880D02*
X047200Y024880D01*
X046977Y024782D02*
X005725Y024782D01*
X007138Y013060D02*
X004001Y013060D01*
X004001Y012962D02*
X007121Y012962D01*
X007121Y012863D02*
X004001Y012863D01*
X004001Y012765D02*
X007208Y012765D01*
X005703Y012075D02*
X005598Y012075D01*
X005303Y012075D02*
X004001Y012075D01*
X004001Y011977D02*
X005221Y011977D01*
X005221Y011878D02*
X004001Y011878D01*
X004001Y011780D02*
X005243Y011780D01*
X005632Y010992D02*
X005669Y010992D01*
X005677Y010696D02*
X005624Y010696D01*
X006620Y010204D02*
X006681Y010204D01*
X006665Y009908D02*
X006636Y009908D01*
X007020Y010204D02*
X012521Y010204D01*
X012568Y010105D02*
X007081Y010105D01*
X006696Y009219D02*
X006605Y009219D01*
X004001Y007347D02*
X010025Y007347D01*
X010021Y007249D02*
X004001Y007249D01*
X004001Y007150D02*
X009928Y007150D01*
X009829Y007052D02*
X004001Y007052D01*
X004001Y006953D02*
X009821Y006953D01*
X009821Y006855D02*
X004001Y006855D01*
X004001Y006756D02*
X009917Y006756D01*
X010184Y006756D02*
X010584Y006756D01*
X010571Y006658D02*
X004001Y006658D01*
X004001Y006559D02*
X010571Y006559D01*
X010662Y006461D02*
X004001Y006461D01*
X004001Y004983D02*
X011761Y004983D01*
X011721Y004885D02*
X004001Y004885D01*
X008620Y004392D02*
X012081Y004392D01*
X012021Y004491D02*
X008681Y004491D01*
X010624Y007446D02*
X010627Y007446D01*
X011762Y008234D02*
X012539Y008234D01*
X012471Y008332D02*
X011781Y008332D01*
X011781Y008431D02*
X012471Y008431D01*
X012507Y008529D02*
X011907Y008529D01*
X037687Y008037D02*
X037714Y008037D01*
M02*
