G75*
%MOIN*%
%OFA0B0*%
%FSLAX24Y24*%
%IPPOS*%
%LPD*%
%AMOC8*
5,1,8,0,0,1.08239X$1,22.5*
%
%ADD10R,0.0552X0.0395*%
%ADD11C,0.0019*%
%ADD12R,0.0237X0.0434*%
%ADD13R,0.0395X0.0552*%
%ADD14R,0.0277X0.0277*%
%ADD15C,0.0474*%
%ADD16R,0.0513X0.0474*%
%ADD17R,0.0474X0.0513*%
%ADD18R,0.0249X0.0190*%
%ADD19R,0.0356X0.0178*%
%ADD20R,0.0178X0.0356*%
%ADD21R,0.1320X0.2108*%
%ADD22R,0.0671X0.0552*%
%ADD23R,0.0552X0.0671*%
%ADD24R,0.1178X0.0834*%
%ADD25R,0.3426X0.3860*%
%ADD26R,0.0474X0.1419*%
%ADD27R,0.0670X0.0470*%
%ADD28R,0.0670X0.1370*%
%ADD29R,0.0190X0.0249*%
%ADD30R,0.1980X0.0980*%
%ADD31R,0.1064X0.0671*%
%ADD32R,0.0356X0.0336*%
%ADD33C,0.1064*%
%ADD34C,0.0420*%
%ADD35C,0.0320*%
%ADD36C,0.0740*%
D10*
X012951Y013294D03*
X012951Y014002D03*
X018851Y014002D03*
X018851Y013294D03*
X035101Y010102D03*
X035101Y009394D03*
D11*
X031749Y010120D02*
X031609Y010120D01*
X031609Y010576D01*
X031749Y010576D01*
X031749Y010120D01*
X031749Y010138D02*
X031609Y010138D01*
X031609Y010156D02*
X031749Y010156D01*
X031749Y010174D02*
X031609Y010174D01*
X031609Y010192D02*
X031749Y010192D01*
X031749Y010210D02*
X031609Y010210D01*
X031609Y010228D02*
X031749Y010228D01*
X031749Y010246D02*
X031609Y010246D01*
X031609Y010264D02*
X031749Y010264D01*
X031749Y010282D02*
X031609Y010282D01*
X031609Y010300D02*
X031749Y010300D01*
X031749Y010318D02*
X031609Y010318D01*
X031609Y010336D02*
X031749Y010336D01*
X031749Y010354D02*
X031609Y010354D01*
X031609Y010372D02*
X031749Y010372D01*
X031749Y010390D02*
X031609Y010390D01*
X031609Y010408D02*
X031749Y010408D01*
X031749Y010426D02*
X031609Y010426D01*
X031609Y010444D02*
X031749Y010444D01*
X031749Y010462D02*
X031609Y010462D01*
X031609Y010480D02*
X031749Y010480D01*
X031749Y010498D02*
X031609Y010498D01*
X031609Y010516D02*
X031749Y010516D01*
X031749Y010534D02*
X031609Y010534D01*
X031609Y010552D02*
X031749Y010552D01*
X031749Y010570D02*
X031609Y010570D01*
X031592Y010120D02*
X031452Y010120D01*
X031452Y010576D01*
X031592Y010576D01*
X031592Y010120D01*
X031592Y010138D02*
X031452Y010138D01*
X031452Y010156D02*
X031592Y010156D01*
X031592Y010174D02*
X031452Y010174D01*
X031452Y010192D02*
X031592Y010192D01*
X031592Y010210D02*
X031452Y010210D01*
X031452Y010228D02*
X031592Y010228D01*
X031592Y010246D02*
X031452Y010246D01*
X031452Y010264D02*
X031592Y010264D01*
X031592Y010282D02*
X031452Y010282D01*
X031452Y010300D02*
X031592Y010300D01*
X031592Y010318D02*
X031452Y010318D01*
X031452Y010336D02*
X031592Y010336D01*
X031592Y010354D02*
X031452Y010354D01*
X031452Y010372D02*
X031592Y010372D01*
X031592Y010390D02*
X031452Y010390D01*
X031452Y010408D02*
X031592Y010408D01*
X031592Y010426D02*
X031452Y010426D01*
X031452Y010444D02*
X031592Y010444D01*
X031592Y010462D02*
X031452Y010462D01*
X031452Y010480D02*
X031592Y010480D01*
X031592Y010498D02*
X031452Y010498D01*
X031452Y010516D02*
X031592Y010516D01*
X031592Y010534D02*
X031452Y010534D01*
X031452Y010552D02*
X031592Y010552D01*
X031592Y010570D02*
X031452Y010570D01*
X032323Y011349D02*
X032323Y011489D01*
X032779Y011489D01*
X032779Y011349D01*
X032323Y011349D01*
X032323Y011367D02*
X032779Y011367D01*
X032779Y011385D02*
X032323Y011385D01*
X032323Y011403D02*
X032779Y011403D01*
X032779Y011421D02*
X032323Y011421D01*
X032323Y011439D02*
X032779Y011439D01*
X032779Y011457D02*
X032323Y011457D01*
X032323Y011475D02*
X032779Y011475D01*
X032323Y011507D02*
X032323Y011647D01*
X032779Y011647D01*
X032779Y011507D01*
X032323Y011507D01*
X032323Y011525D02*
X032779Y011525D01*
X032779Y011543D02*
X032323Y011543D01*
X032323Y011561D02*
X032779Y011561D01*
X032779Y011579D02*
X032323Y011579D01*
X032323Y011597D02*
X032779Y011597D01*
X032779Y011615D02*
X032323Y011615D01*
X032323Y011633D02*
X032779Y011633D01*
X032979Y013699D02*
X032979Y013839D01*
X032979Y013699D02*
X032523Y013699D01*
X032523Y013839D01*
X032979Y013839D01*
X032979Y013717D02*
X032523Y013717D01*
X032523Y013735D02*
X032979Y013735D01*
X032979Y013753D02*
X032523Y013753D01*
X032523Y013771D02*
X032979Y013771D01*
X032979Y013789D02*
X032523Y013789D01*
X032523Y013807D02*
X032979Y013807D01*
X032979Y013825D02*
X032523Y013825D01*
X032979Y013857D02*
X032979Y013997D01*
X032979Y013857D02*
X032523Y013857D01*
X032523Y013997D01*
X032979Y013997D01*
X032979Y013875D02*
X032523Y013875D01*
X032523Y013893D02*
X032979Y013893D01*
X032979Y013911D02*
X032523Y013911D01*
X032523Y013929D02*
X032979Y013929D01*
X032979Y013947D02*
X032523Y013947D01*
X032523Y013965D02*
X032979Y013965D01*
X032979Y013983D02*
X032523Y013983D01*
X035052Y013570D02*
X035192Y013570D01*
X035052Y013570D02*
X035052Y014026D01*
X035192Y014026D01*
X035192Y013570D01*
X035192Y013588D02*
X035052Y013588D01*
X035052Y013606D02*
X035192Y013606D01*
X035192Y013624D02*
X035052Y013624D01*
X035052Y013642D02*
X035192Y013642D01*
X035192Y013660D02*
X035052Y013660D01*
X035052Y013678D02*
X035192Y013678D01*
X035192Y013696D02*
X035052Y013696D01*
X035052Y013714D02*
X035192Y013714D01*
X035192Y013732D02*
X035052Y013732D01*
X035052Y013750D02*
X035192Y013750D01*
X035192Y013768D02*
X035052Y013768D01*
X035052Y013786D02*
X035192Y013786D01*
X035192Y013804D02*
X035052Y013804D01*
X035052Y013822D02*
X035192Y013822D01*
X035192Y013840D02*
X035052Y013840D01*
X035052Y013858D02*
X035192Y013858D01*
X035192Y013876D02*
X035052Y013876D01*
X035052Y013894D02*
X035192Y013894D01*
X035192Y013912D02*
X035052Y013912D01*
X035052Y013930D02*
X035192Y013930D01*
X035192Y013948D02*
X035052Y013948D01*
X035052Y013966D02*
X035192Y013966D01*
X035192Y013984D02*
X035052Y013984D01*
X035052Y014002D02*
X035192Y014002D01*
X035192Y014020D02*
X035052Y014020D01*
X035209Y013570D02*
X035349Y013570D01*
X035209Y013570D02*
X035209Y014026D01*
X035349Y014026D01*
X035349Y013570D01*
X035349Y013588D02*
X035209Y013588D01*
X035209Y013606D02*
X035349Y013606D01*
X035349Y013624D02*
X035209Y013624D01*
X035209Y013642D02*
X035349Y013642D01*
X035349Y013660D02*
X035209Y013660D01*
X035209Y013678D02*
X035349Y013678D01*
X035349Y013696D02*
X035209Y013696D01*
X035209Y013714D02*
X035349Y013714D01*
X035349Y013732D02*
X035209Y013732D01*
X035209Y013750D02*
X035349Y013750D01*
X035349Y013768D02*
X035209Y013768D01*
X035209Y013786D02*
X035349Y013786D01*
X035349Y013804D02*
X035209Y013804D01*
X035209Y013822D02*
X035349Y013822D01*
X035349Y013840D02*
X035209Y013840D01*
X035209Y013858D02*
X035349Y013858D01*
X035349Y013876D02*
X035209Y013876D01*
X035209Y013894D02*
X035349Y013894D01*
X035349Y013912D02*
X035209Y013912D01*
X035209Y013930D02*
X035349Y013930D01*
X035349Y013948D02*
X035209Y013948D01*
X035209Y013966D02*
X035349Y013966D01*
X035349Y013984D02*
X035209Y013984D01*
X035209Y014002D02*
X035349Y014002D01*
X035349Y014020D02*
X035209Y014020D01*
X032979Y015949D02*
X032979Y016089D01*
X032979Y015949D02*
X032523Y015949D01*
X032523Y016089D01*
X032979Y016089D01*
X032979Y015967D02*
X032523Y015967D01*
X032523Y015985D02*
X032979Y015985D01*
X032979Y016003D02*
X032523Y016003D01*
X032523Y016021D02*
X032979Y016021D01*
X032979Y016039D02*
X032523Y016039D01*
X032523Y016057D02*
X032979Y016057D01*
X032979Y016075D02*
X032523Y016075D01*
X032979Y016107D02*
X032979Y016247D01*
X032979Y016107D02*
X032523Y016107D01*
X032523Y016247D01*
X032979Y016247D01*
X032979Y016125D02*
X032523Y016125D01*
X032523Y016143D02*
X032979Y016143D01*
X032979Y016161D02*
X032523Y016161D01*
X032523Y016179D02*
X032979Y016179D01*
X032979Y016197D02*
X032523Y016197D01*
X032523Y016215D02*
X032979Y016215D01*
X032979Y016233D02*
X032523Y016233D01*
X031949Y017976D02*
X031809Y017976D01*
X031949Y017976D02*
X031949Y017520D01*
X031809Y017520D01*
X031809Y017976D01*
X031809Y017538D02*
X031949Y017538D01*
X031949Y017556D02*
X031809Y017556D01*
X031809Y017574D02*
X031949Y017574D01*
X031949Y017592D02*
X031809Y017592D01*
X031809Y017610D02*
X031949Y017610D01*
X031949Y017628D02*
X031809Y017628D01*
X031809Y017646D02*
X031949Y017646D01*
X031949Y017664D02*
X031809Y017664D01*
X031809Y017682D02*
X031949Y017682D01*
X031949Y017700D02*
X031809Y017700D01*
X031809Y017718D02*
X031949Y017718D01*
X031949Y017736D02*
X031809Y017736D01*
X031809Y017754D02*
X031949Y017754D01*
X031949Y017772D02*
X031809Y017772D01*
X031809Y017790D02*
X031949Y017790D01*
X031949Y017808D02*
X031809Y017808D01*
X031809Y017826D02*
X031949Y017826D01*
X031949Y017844D02*
X031809Y017844D01*
X031809Y017862D02*
X031949Y017862D01*
X031949Y017880D02*
X031809Y017880D01*
X031809Y017898D02*
X031949Y017898D01*
X031949Y017916D02*
X031809Y017916D01*
X031809Y017934D02*
X031949Y017934D01*
X031949Y017952D02*
X031809Y017952D01*
X031809Y017970D02*
X031949Y017970D01*
X031792Y017976D02*
X031652Y017976D01*
X031792Y017976D02*
X031792Y017520D01*
X031652Y017520D01*
X031652Y017976D01*
X031652Y017538D02*
X031792Y017538D01*
X031792Y017556D02*
X031652Y017556D01*
X031652Y017574D02*
X031792Y017574D01*
X031792Y017592D02*
X031652Y017592D01*
X031652Y017610D02*
X031792Y017610D01*
X031792Y017628D02*
X031652Y017628D01*
X031652Y017646D02*
X031792Y017646D01*
X031792Y017664D02*
X031652Y017664D01*
X031652Y017682D02*
X031792Y017682D01*
X031792Y017700D02*
X031652Y017700D01*
X031652Y017718D02*
X031792Y017718D01*
X031792Y017736D02*
X031652Y017736D01*
X031652Y017754D02*
X031792Y017754D01*
X031792Y017772D02*
X031652Y017772D01*
X031652Y017790D02*
X031792Y017790D01*
X031792Y017808D02*
X031652Y017808D01*
X031652Y017826D02*
X031792Y017826D01*
X031792Y017844D02*
X031652Y017844D01*
X031652Y017862D02*
X031792Y017862D01*
X031792Y017880D02*
X031652Y017880D01*
X031652Y017898D02*
X031792Y017898D01*
X031792Y017916D02*
X031652Y017916D01*
X031652Y017934D02*
X031792Y017934D01*
X031792Y017952D02*
X031652Y017952D01*
X031652Y017970D02*
X031792Y017970D01*
X034173Y019849D02*
X034173Y019989D01*
X034629Y019989D01*
X034629Y019849D01*
X034173Y019849D01*
X034173Y019867D02*
X034629Y019867D01*
X034629Y019885D02*
X034173Y019885D01*
X034173Y019903D02*
X034629Y019903D01*
X034629Y019921D02*
X034173Y019921D01*
X034173Y019939D02*
X034629Y019939D01*
X034629Y019957D02*
X034173Y019957D01*
X034173Y019975D02*
X034629Y019975D01*
X034173Y020007D02*
X034173Y020147D01*
X034629Y020147D01*
X034629Y020007D01*
X034173Y020007D01*
X034173Y020025D02*
X034629Y020025D01*
X034629Y020043D02*
X034173Y020043D01*
X034173Y020061D02*
X034629Y020061D01*
X034629Y020079D02*
X034173Y020079D01*
X034173Y020097D02*
X034629Y020097D01*
X034629Y020115D02*
X034173Y020115D01*
X034173Y020133D02*
X034629Y020133D01*
X026799Y017520D02*
X026659Y017520D01*
X026659Y017976D01*
X026799Y017976D01*
X026799Y017520D01*
X026799Y017538D02*
X026659Y017538D01*
X026659Y017556D02*
X026799Y017556D01*
X026799Y017574D02*
X026659Y017574D01*
X026659Y017592D02*
X026799Y017592D01*
X026799Y017610D02*
X026659Y017610D01*
X026659Y017628D02*
X026799Y017628D01*
X026799Y017646D02*
X026659Y017646D01*
X026659Y017664D02*
X026799Y017664D01*
X026799Y017682D02*
X026659Y017682D01*
X026659Y017700D02*
X026799Y017700D01*
X026799Y017718D02*
X026659Y017718D01*
X026659Y017736D02*
X026799Y017736D01*
X026799Y017754D02*
X026659Y017754D01*
X026659Y017772D02*
X026799Y017772D01*
X026799Y017790D02*
X026659Y017790D01*
X026659Y017808D02*
X026799Y017808D01*
X026799Y017826D02*
X026659Y017826D01*
X026659Y017844D02*
X026799Y017844D01*
X026799Y017862D02*
X026659Y017862D01*
X026659Y017880D02*
X026799Y017880D01*
X026799Y017898D02*
X026659Y017898D01*
X026659Y017916D02*
X026799Y017916D01*
X026799Y017934D02*
X026659Y017934D01*
X026659Y017952D02*
X026799Y017952D01*
X026799Y017970D02*
X026659Y017970D01*
X026642Y017520D02*
X026502Y017520D01*
X026502Y017976D01*
X026642Y017976D01*
X026642Y017520D01*
X026642Y017538D02*
X026502Y017538D01*
X026502Y017556D02*
X026642Y017556D01*
X026642Y017574D02*
X026502Y017574D01*
X026502Y017592D02*
X026642Y017592D01*
X026642Y017610D02*
X026502Y017610D01*
X026502Y017628D02*
X026642Y017628D01*
X026642Y017646D02*
X026502Y017646D01*
X026502Y017664D02*
X026642Y017664D01*
X026642Y017682D02*
X026502Y017682D01*
X026502Y017700D02*
X026642Y017700D01*
X026642Y017718D02*
X026502Y017718D01*
X026502Y017736D02*
X026642Y017736D01*
X026642Y017754D02*
X026502Y017754D01*
X026502Y017772D02*
X026642Y017772D01*
X026642Y017790D02*
X026502Y017790D01*
X026502Y017808D02*
X026642Y017808D01*
X026642Y017826D02*
X026502Y017826D01*
X026502Y017844D02*
X026642Y017844D01*
X026642Y017862D02*
X026502Y017862D01*
X026502Y017880D02*
X026642Y017880D01*
X026642Y017898D02*
X026502Y017898D01*
X026502Y017916D02*
X026642Y017916D01*
X026642Y017934D02*
X026502Y017934D01*
X026502Y017952D02*
X026642Y017952D01*
X026642Y017970D02*
X026502Y017970D01*
X025579Y015197D02*
X025579Y015057D01*
X025123Y015057D01*
X025123Y015197D01*
X025579Y015197D01*
X025579Y015075D02*
X025123Y015075D01*
X025123Y015093D02*
X025579Y015093D01*
X025579Y015111D02*
X025123Y015111D01*
X025123Y015129D02*
X025579Y015129D01*
X025579Y015147D02*
X025123Y015147D01*
X025123Y015165D02*
X025579Y015165D01*
X025579Y015183D02*
X025123Y015183D01*
X025579Y015039D02*
X025579Y014899D01*
X025123Y014899D01*
X025123Y015039D01*
X025579Y015039D01*
X025579Y014917D02*
X025123Y014917D01*
X025123Y014935D02*
X025579Y014935D01*
X025579Y014953D02*
X025123Y014953D01*
X025123Y014971D02*
X025579Y014971D01*
X025579Y014989D02*
X025123Y014989D01*
X025123Y015007D02*
X025579Y015007D01*
X025579Y015025D02*
X025123Y015025D01*
X025123Y012397D02*
X025123Y012257D01*
X025123Y012397D02*
X025579Y012397D01*
X025579Y012257D01*
X025123Y012257D01*
X025123Y012275D02*
X025579Y012275D01*
X025579Y012293D02*
X025123Y012293D01*
X025123Y012311D02*
X025579Y012311D01*
X025579Y012329D02*
X025123Y012329D01*
X025123Y012347D02*
X025579Y012347D01*
X025579Y012365D02*
X025123Y012365D01*
X025123Y012383D02*
X025579Y012383D01*
X025123Y012239D02*
X025123Y012099D01*
X025123Y012239D02*
X025579Y012239D01*
X025579Y012099D01*
X025123Y012099D01*
X025123Y012117D02*
X025579Y012117D01*
X025579Y012135D02*
X025123Y012135D01*
X025123Y012153D02*
X025579Y012153D01*
X025579Y012171D02*
X025123Y012171D01*
X025123Y012189D02*
X025579Y012189D01*
X025579Y012207D02*
X025123Y012207D01*
X025123Y012225D02*
X025579Y012225D01*
X011879Y012699D02*
X011879Y012839D01*
X011879Y012699D02*
X011423Y012699D01*
X011423Y012839D01*
X011879Y012839D01*
X011879Y012717D02*
X011423Y012717D01*
X011423Y012735D02*
X011879Y012735D01*
X011879Y012753D02*
X011423Y012753D01*
X011423Y012771D02*
X011879Y012771D01*
X011879Y012789D02*
X011423Y012789D01*
X011423Y012807D02*
X011879Y012807D01*
X011879Y012825D02*
X011423Y012825D01*
X011879Y012857D02*
X011879Y012997D01*
X011879Y012857D02*
X011423Y012857D01*
X011423Y012997D01*
X011879Y012997D01*
X011879Y012875D02*
X011423Y012875D01*
X011423Y012893D02*
X011879Y012893D01*
X011879Y012911D02*
X011423Y012911D01*
X011423Y012929D02*
X011879Y012929D01*
X011879Y012947D02*
X011423Y012947D01*
X011423Y012965D02*
X011879Y012965D01*
X011879Y012983D02*
X011423Y012983D01*
X011879Y013499D02*
X011879Y013639D01*
X011879Y013499D02*
X011423Y013499D01*
X011423Y013639D01*
X011879Y013639D01*
X011879Y013517D02*
X011423Y013517D01*
X011423Y013535D02*
X011879Y013535D01*
X011879Y013553D02*
X011423Y013553D01*
X011423Y013571D02*
X011879Y013571D01*
X011879Y013589D02*
X011423Y013589D01*
X011423Y013607D02*
X011879Y013607D01*
X011879Y013625D02*
X011423Y013625D01*
X011879Y013657D02*
X011879Y013797D01*
X011879Y013657D02*
X011423Y013657D01*
X011423Y013797D01*
X011879Y013797D01*
X011879Y013675D02*
X011423Y013675D01*
X011423Y013693D02*
X011879Y013693D01*
X011879Y013711D02*
X011423Y013711D01*
X011423Y013729D02*
X011879Y013729D01*
X011879Y013747D02*
X011423Y013747D01*
X011423Y013765D02*
X011879Y013765D01*
X011879Y013783D02*
X011423Y013783D01*
X011879Y014299D02*
X011879Y014439D01*
X011879Y014299D02*
X011423Y014299D01*
X011423Y014439D01*
X011879Y014439D01*
X011879Y014317D02*
X011423Y014317D01*
X011423Y014335D02*
X011879Y014335D01*
X011879Y014353D02*
X011423Y014353D01*
X011423Y014371D02*
X011879Y014371D01*
X011879Y014389D02*
X011423Y014389D01*
X011423Y014407D02*
X011879Y014407D01*
X011879Y014425D02*
X011423Y014425D01*
X011879Y014457D02*
X011879Y014597D01*
X011879Y014457D02*
X011423Y014457D01*
X011423Y014597D01*
X011879Y014597D01*
X011879Y014475D02*
X011423Y014475D01*
X011423Y014493D02*
X011879Y014493D01*
X011879Y014511D02*
X011423Y014511D01*
X011423Y014529D02*
X011879Y014529D01*
X011879Y014547D02*
X011423Y014547D01*
X011423Y014565D02*
X011879Y014565D01*
X011879Y014583D02*
X011423Y014583D01*
X011879Y015049D02*
X011879Y015189D01*
X011879Y015049D02*
X011423Y015049D01*
X011423Y015189D01*
X011879Y015189D01*
X011879Y015067D02*
X011423Y015067D01*
X011423Y015085D02*
X011879Y015085D01*
X011879Y015103D02*
X011423Y015103D01*
X011423Y015121D02*
X011879Y015121D01*
X011879Y015139D02*
X011423Y015139D01*
X011423Y015157D02*
X011879Y015157D01*
X011879Y015175D02*
X011423Y015175D01*
X011879Y015207D02*
X011879Y015347D01*
X011879Y015207D02*
X011423Y015207D01*
X011423Y015347D01*
X011879Y015347D01*
X011879Y015225D02*
X011423Y015225D01*
X011423Y015243D02*
X011879Y015243D01*
X011879Y015261D02*
X011423Y015261D01*
X011423Y015279D02*
X011879Y015279D01*
X011879Y015297D02*
X011423Y015297D01*
X011423Y015315D02*
X011879Y015315D01*
X011879Y015333D02*
X011423Y015333D01*
X007799Y012720D02*
X007659Y012720D01*
X007659Y013176D01*
X007799Y013176D01*
X007799Y012720D01*
X007799Y012738D02*
X007659Y012738D01*
X007659Y012756D02*
X007799Y012756D01*
X007799Y012774D02*
X007659Y012774D01*
X007659Y012792D02*
X007799Y012792D01*
X007799Y012810D02*
X007659Y012810D01*
X007659Y012828D02*
X007799Y012828D01*
X007799Y012846D02*
X007659Y012846D01*
X007659Y012864D02*
X007799Y012864D01*
X007799Y012882D02*
X007659Y012882D01*
X007659Y012900D02*
X007799Y012900D01*
X007799Y012918D02*
X007659Y012918D01*
X007659Y012936D02*
X007799Y012936D01*
X007799Y012954D02*
X007659Y012954D01*
X007659Y012972D02*
X007799Y012972D01*
X007799Y012990D02*
X007659Y012990D01*
X007659Y013008D02*
X007799Y013008D01*
X007799Y013026D02*
X007659Y013026D01*
X007659Y013044D02*
X007799Y013044D01*
X007799Y013062D02*
X007659Y013062D01*
X007659Y013080D02*
X007799Y013080D01*
X007799Y013098D02*
X007659Y013098D01*
X007659Y013116D02*
X007799Y013116D01*
X007799Y013134D02*
X007659Y013134D01*
X007659Y013152D02*
X007799Y013152D01*
X007799Y013170D02*
X007659Y013170D01*
X007642Y012720D02*
X007502Y012720D01*
X007502Y013176D01*
X007642Y013176D01*
X007642Y012720D01*
X007642Y012738D02*
X007502Y012738D01*
X007502Y012756D02*
X007642Y012756D01*
X007642Y012774D02*
X007502Y012774D01*
X007502Y012792D02*
X007642Y012792D01*
X007642Y012810D02*
X007502Y012810D01*
X007502Y012828D02*
X007642Y012828D01*
X007642Y012846D02*
X007502Y012846D01*
X007502Y012864D02*
X007642Y012864D01*
X007642Y012882D02*
X007502Y012882D01*
X007502Y012900D02*
X007642Y012900D01*
X007642Y012918D02*
X007502Y012918D01*
X007502Y012936D02*
X007642Y012936D01*
X007642Y012954D02*
X007502Y012954D01*
X007502Y012972D02*
X007642Y012972D01*
X007642Y012990D02*
X007502Y012990D01*
X007502Y013008D02*
X007642Y013008D01*
X007642Y013026D02*
X007502Y013026D01*
X007502Y013044D02*
X007642Y013044D01*
X007642Y013062D02*
X007502Y013062D01*
X007502Y013080D02*
X007642Y013080D01*
X007642Y013098D02*
X007502Y013098D01*
X007502Y013116D02*
X007642Y013116D01*
X007642Y013134D02*
X007502Y013134D01*
X007502Y013152D02*
X007642Y013152D01*
X007642Y013170D02*
X007502Y013170D01*
X009402Y018076D02*
X009542Y018076D01*
X009542Y017620D01*
X009402Y017620D01*
X009402Y018076D01*
X009402Y017638D02*
X009542Y017638D01*
X009542Y017656D02*
X009402Y017656D01*
X009402Y017674D02*
X009542Y017674D01*
X009542Y017692D02*
X009402Y017692D01*
X009402Y017710D02*
X009542Y017710D01*
X009542Y017728D02*
X009402Y017728D01*
X009402Y017746D02*
X009542Y017746D01*
X009542Y017764D02*
X009402Y017764D01*
X009402Y017782D02*
X009542Y017782D01*
X009542Y017800D02*
X009402Y017800D01*
X009402Y017818D02*
X009542Y017818D01*
X009542Y017836D02*
X009402Y017836D01*
X009402Y017854D02*
X009542Y017854D01*
X009542Y017872D02*
X009402Y017872D01*
X009402Y017890D02*
X009542Y017890D01*
X009542Y017908D02*
X009402Y017908D01*
X009402Y017926D02*
X009542Y017926D01*
X009542Y017944D02*
X009402Y017944D01*
X009402Y017962D02*
X009542Y017962D01*
X009542Y017980D02*
X009402Y017980D01*
X009402Y017998D02*
X009542Y017998D01*
X009542Y018016D02*
X009402Y018016D01*
X009402Y018034D02*
X009542Y018034D01*
X009542Y018052D02*
X009402Y018052D01*
X009402Y018070D02*
X009542Y018070D01*
X009559Y018076D02*
X009699Y018076D01*
X009699Y017620D01*
X009559Y017620D01*
X009559Y018076D01*
X009559Y017638D02*
X009699Y017638D01*
X009699Y017656D02*
X009559Y017656D01*
X009559Y017674D02*
X009699Y017674D01*
X009699Y017692D02*
X009559Y017692D01*
X009559Y017710D02*
X009699Y017710D01*
X009699Y017728D02*
X009559Y017728D01*
X009559Y017746D02*
X009699Y017746D01*
X009699Y017764D02*
X009559Y017764D01*
X009559Y017782D02*
X009699Y017782D01*
X009699Y017800D02*
X009559Y017800D01*
X009559Y017818D02*
X009699Y017818D01*
X009699Y017836D02*
X009559Y017836D01*
X009559Y017854D02*
X009699Y017854D01*
X009699Y017872D02*
X009559Y017872D01*
X009559Y017890D02*
X009699Y017890D01*
X009699Y017908D02*
X009559Y017908D01*
X009559Y017926D02*
X009699Y017926D01*
X009699Y017944D02*
X009559Y017944D01*
X009559Y017962D02*
X009699Y017962D01*
X009699Y017980D02*
X009559Y017980D01*
X009559Y017998D02*
X009699Y017998D01*
X009699Y018016D02*
X009559Y018016D01*
X009559Y018034D02*
X009699Y018034D01*
X009699Y018052D02*
X009559Y018052D01*
X009559Y018070D02*
X009699Y018070D01*
D12*
X009607Y017381D03*
X009095Y017381D03*
X009095Y016515D03*
X009351Y016515D03*
X009607Y016515D03*
D13*
X009355Y014248D03*
X008646Y014248D03*
X008496Y004048D03*
X009205Y004048D03*
X035846Y010098D03*
X036555Y010098D03*
X042746Y011198D03*
X043455Y011198D03*
X045746Y004898D03*
X046455Y004898D03*
X045355Y003598D03*
X044646Y003598D03*
X038455Y003098D03*
X037746Y003098D03*
D14*
X029847Y010298D03*
X029454Y010298D03*
X029097Y010298D03*
X028704Y010298D03*
X032051Y011301D03*
X032051Y011695D03*
X032251Y013651D03*
X032251Y014045D03*
X030547Y017648D03*
X030154Y017648D03*
X029147Y017648D03*
X028754Y017648D03*
X028754Y018048D03*
X029147Y018048D03*
X025351Y014345D03*
X025351Y013951D03*
X025451Y013495D03*
X025051Y013495D03*
X025051Y013101D03*
X025451Y013101D03*
X009047Y004748D03*
X008654Y004748D03*
D15*
X032832Y022848D03*
X036769Y022848D03*
D16*
X037801Y018312D03*
X037801Y017643D03*
X040116Y017498D03*
X040785Y017498D03*
X037735Y007548D03*
X037066Y007548D03*
X037066Y006948D03*
X037735Y006948D03*
X035785Y007148D03*
X035116Y007148D03*
X043966Y006948D03*
X044635Y006948D03*
X044635Y007548D03*
X043966Y007548D03*
X012451Y010813D03*
X012451Y011483D03*
D17*
X010485Y009048D03*
X009816Y009048D03*
X010440Y006256D03*
X011110Y006256D03*
X012816Y014848D03*
X013485Y014848D03*
X013485Y015498D03*
X012816Y015498D03*
X012816Y016148D03*
X013485Y016148D03*
X038466Y017048D03*
X039135Y017048D03*
X039135Y017598D03*
X038466Y017598D03*
X039051Y009683D03*
X039051Y009013D03*
X042651Y009013D03*
X042651Y009683D03*
X047151Y008533D03*
X047151Y007863D03*
X042651Y005483D03*
X042651Y004813D03*
X043951Y003283D03*
X043951Y002613D03*
X039051Y004813D03*
X039051Y005483D03*
D18*
X039851Y002948D03*
X039851Y002748D03*
X013351Y010248D03*
X013351Y010448D03*
X009401Y008248D03*
X009401Y008048D03*
X009451Y006898D03*
X009451Y006698D03*
D19*
X039906Y006756D03*
X039906Y006953D03*
X039906Y007149D03*
X039906Y007346D03*
X039906Y007543D03*
X039906Y007740D03*
X039906Y007937D03*
X039906Y008134D03*
X039906Y008331D03*
X041796Y008331D03*
X041796Y008134D03*
X041796Y007937D03*
X041796Y007740D03*
X041796Y007543D03*
X041796Y007346D03*
X041796Y007149D03*
X041796Y006953D03*
X041796Y006756D03*
X041796Y006559D03*
X041796Y006362D03*
X041796Y006165D03*
X039906Y006165D03*
X039906Y006362D03*
X039906Y006559D03*
D20*
X040260Y005909D03*
X040457Y005909D03*
X040654Y005909D03*
X040851Y005909D03*
X041047Y005909D03*
X041244Y005909D03*
X041441Y005909D03*
X041441Y008586D03*
X041244Y008586D03*
X041047Y008586D03*
X040851Y008586D03*
X040654Y008586D03*
X040457Y008586D03*
X040260Y008586D03*
D21*
X040851Y007248D03*
D22*
X036132Y008348D03*
X035069Y008348D03*
X045569Y006148D03*
X046632Y006148D03*
D23*
X044151Y005479D03*
X044151Y004416D03*
X037551Y009016D03*
X037551Y010079D03*
D24*
X044351Y010350D03*
X044351Y008746D03*
X037351Y005750D03*
X037351Y004146D03*
D25*
X039801Y021976D03*
D26*
X039801Y018748D03*
X039131Y018748D03*
X038462Y018748D03*
X040470Y018748D03*
X041139Y018748D03*
D27*
X035091Y006503D03*
X035091Y005598D03*
X035091Y004693D03*
X043191Y003303D03*
X043191Y002398D03*
X043191Y001493D03*
D28*
X040711Y002398D03*
X032611Y005598D03*
D29*
X044950Y020648D03*
X045151Y020648D03*
X045151Y021248D03*
X044950Y021248D03*
X044950Y021848D03*
X045151Y021848D03*
X012151Y021748D03*
X011950Y021748D03*
D30*
X004911Y017338D03*
X004911Y013858D03*
X004911Y009188D03*
X004911Y005708D03*
D31*
X042324Y012569D03*
X042324Y013750D03*
X044883Y013750D03*
X044883Y012569D03*
D32*
X012051Y020282D03*
X012051Y020814D03*
X010651Y020814D03*
X010651Y020282D03*
X005651Y011614D03*
X005651Y011082D03*
X006651Y009814D03*
X006651Y009282D03*
D33*
X005351Y002248D03*
X047351Y002248D03*
X047351Y024248D03*
X005351Y024248D03*
D34*
X048251Y008238D03*
X048251Y007058D03*
D35*
X047201Y006998D03*
X046651Y007648D03*
X046451Y008048D03*
X045051Y008198D03*
X044851Y007848D03*
X044551Y007848D03*
X044151Y007848D03*
X043851Y007848D03*
X043401Y007150D03*
X043851Y006648D03*
X044151Y006648D03*
X044551Y006648D03*
X044851Y006648D03*
X045751Y006948D03*
X045151Y007398D03*
X044751Y005698D03*
X045401Y005298D03*
X045701Y005298D03*
X046751Y005148D03*
X047051Y005148D03*
X047051Y004748D03*
X046751Y004748D03*
X045701Y004498D03*
X045401Y004498D03*
X045401Y003998D03*
X045701Y003998D03*
X045701Y003198D03*
X045401Y003198D03*
X043651Y004448D03*
X042901Y004498D03*
X042601Y004498D03*
X042001Y004998D03*
X041451Y005348D03*
X040851Y005298D03*
X040261Y005248D03*
X039501Y005098D03*
X039751Y004548D03*
X039101Y004498D03*
X038801Y004498D03*
X039501Y003948D03*
X039201Y003848D03*
X038801Y003498D03*
X038501Y003498D03*
X037751Y003548D03*
X037351Y003548D03*
X036951Y003548D03*
X035551Y003848D03*
X035151Y003848D03*
X034751Y003848D03*
X033851Y003848D03*
X033451Y003848D03*
X033051Y003848D03*
X033051Y003348D03*
X033451Y003348D03*
X033851Y003348D03*
X034751Y004248D03*
X035151Y004248D03*
X035551Y004248D03*
X035551Y005398D03*
X035551Y005798D03*
X034451Y006548D03*
X033251Y006348D03*
X033251Y005998D03*
X032851Y006348D03*
X032451Y006348D03*
X033251Y005598D03*
X033251Y005198D03*
X033251Y004848D03*
X032851Y004848D03*
X032451Y004848D03*
X036851Y006648D03*
X037151Y006648D03*
X037551Y006648D03*
X036851Y007248D03*
X036851Y007848D03*
X037151Y007848D03*
X037551Y007848D03*
X037851Y007848D03*
X038301Y007346D03*
X036351Y007848D03*
X038751Y008848D03*
X038751Y009148D03*
X039501Y008798D03*
X040601Y009298D03*
X040701Y008948D03*
X041051Y008898D03*
X041251Y009348D03*
X040851Y009748D03*
X041901Y009748D03*
X042551Y009998D03*
X042851Y009998D03*
X042701Y010798D03*
X042401Y010798D03*
X041301Y010698D03*
X040051Y011148D03*
X040251Y011448D03*
X039651Y011148D03*
X039451Y011448D03*
X041351Y012348D03*
X041651Y012348D03*
X041651Y012748D03*
X041351Y012748D03*
X041351Y013548D03*
X041701Y013548D03*
X041701Y013898D03*
X041351Y013898D03*
X039351Y013948D03*
X038651Y014148D03*
X038651Y014748D03*
X039851Y015048D03*
X041751Y015348D03*
X042151Y015648D03*
X042551Y015648D03*
X042951Y015648D03*
X043651Y015348D03*
X044551Y014148D03*
X045151Y014148D03*
X045551Y013948D03*
X045951Y013948D03*
X045951Y013548D03*
X045551Y013548D03*
X045551Y012748D03*
X045951Y012748D03*
X045951Y012348D03*
X045551Y012348D03*
X045151Y012148D03*
X044651Y012148D03*
X044551Y011348D03*
X044551Y010948D03*
X044151Y010948D03*
X044151Y011348D03*
X043751Y011348D03*
X043751Y010948D03*
X042701Y011598D03*
X042401Y011598D03*
X039851Y010448D03*
X039101Y009998D03*
X038801Y009998D03*
X038351Y010148D03*
X036851Y010448D03*
X036451Y010448D03*
X035901Y010498D03*
X035501Y010348D03*
X035501Y010048D03*
X035651Y009698D03*
X035951Y009698D03*
X036451Y009748D03*
X036851Y009748D03*
X036601Y011098D03*
X036851Y011448D03*
X036351Y011948D03*
X035701Y012198D03*
X034951Y012448D03*
X034301Y012698D03*
X034851Y012948D03*
X034851Y013248D03*
X034901Y013648D03*
X035501Y013648D03*
X035951Y013548D03*
X036201Y013848D03*
X035851Y013098D03*
X034251Y013498D03*
X034251Y013798D03*
X032651Y013548D03*
X032351Y013448D03*
X031851Y013248D03*
X031301Y013248D03*
X031151Y012648D03*
X031151Y012298D03*
X031551Y012248D03*
X031951Y012248D03*
X032101Y011898D03*
X032451Y011798D03*
X032451Y011198D03*
X032101Y011098D03*
X031901Y010448D03*
X031301Y010448D03*
X030901Y010548D03*
X030351Y010548D03*
X029851Y010548D03*
X029451Y010548D03*
X029101Y010548D03*
X028701Y010548D03*
X028001Y010548D03*
X025451Y010948D03*
X025451Y011948D03*
X025451Y012548D03*
X025451Y012898D03*
X025551Y013698D03*
X025601Y013998D03*
X025601Y014348D03*
X025451Y014798D03*
X025451Y015348D03*
X025451Y016698D03*
X025651Y017148D03*
X025311Y017498D03*
X025601Y017648D03*
X025951Y017648D03*
X026351Y017648D03*
X026951Y017648D03*
X027951Y017648D03*
X028551Y017648D03*
X029351Y017648D03*
X029951Y017648D03*
X030751Y017648D03*
X031501Y017648D03*
X032101Y017648D03*
X032501Y017648D03*
X032651Y016948D03*
X032651Y016398D03*
X032651Y015798D03*
X032651Y015148D03*
X032051Y014748D03*
X032351Y014248D03*
X032651Y014148D03*
X032751Y012948D03*
X031951Y012648D03*
X031551Y012648D03*
X034701Y011448D03*
X034701Y010698D03*
X034701Y010348D03*
X034701Y010048D03*
X032801Y008848D03*
X032401Y008848D03*
X032051Y008848D03*
X031651Y008848D03*
X031551Y009248D03*
X031851Y008348D03*
X031851Y007948D03*
X029401Y008898D03*
X029001Y008898D03*
X026201Y008448D03*
X025801Y008748D03*
X020851Y012118D03*
X020851Y012418D03*
X019001Y012998D03*
X018701Y012998D03*
X018701Y014298D03*
X019001Y014298D03*
X020861Y014878D03*
X020861Y015178D03*
X023951Y013698D03*
X023951Y013398D03*
X016351Y013398D03*
X016351Y012948D03*
X015901Y012948D03*
X015901Y013398D03*
X015401Y013398D03*
X015401Y012948D03*
X014951Y012948D03*
X014951Y013398D03*
X014951Y013898D03*
X015401Y013898D03*
X015901Y013898D03*
X016351Y013898D03*
X016351Y014348D03*
X015901Y014348D03*
X015401Y014348D03*
X014951Y014348D03*
X013101Y014298D03*
X012801Y014298D03*
X012051Y014298D03*
X012051Y014598D03*
X012051Y015098D03*
X012051Y015398D03*
X012551Y015498D03*
X013851Y016148D03*
X010951Y015448D03*
X010401Y015648D03*
X010401Y015948D03*
X010401Y016448D03*
X010401Y016748D03*
X009401Y016898D03*
X009351Y018248D03*
X009751Y018248D03*
X012341Y018848D03*
X012651Y018848D03*
X013951Y018848D03*
X014251Y018848D03*
X012801Y019648D03*
X012351Y019998D03*
X012051Y019998D03*
X011751Y019998D03*
X010951Y020048D03*
X010651Y020048D03*
X010351Y020048D03*
X010331Y021048D03*
X010641Y021048D03*
X010951Y021048D03*
X011751Y021048D03*
X012051Y021048D03*
X012351Y021048D03*
X012601Y022148D03*
X011201Y024048D03*
X011451Y024448D03*
X006151Y022348D03*
X006051Y017548D03*
X006051Y017148D03*
X007651Y015148D03*
X008251Y015148D03*
X009051Y014748D03*
X009351Y014748D03*
X009651Y015098D03*
X008251Y014548D03*
X007651Y014548D03*
X006051Y014048D03*
X006051Y013648D03*
X007351Y012948D03*
X007951Y012948D03*
X005851Y011898D03*
X005451Y011898D03*
X005451Y010848D03*
X005851Y010848D03*
X006451Y010048D03*
X006851Y010048D03*
X006001Y009398D03*
X006451Y009048D03*
X006851Y009048D03*
X006001Y008998D03*
X007101Y008248D03*
X007151Y007748D03*
X007251Y007048D03*
X008301Y006798D03*
X010051Y006948D03*
X010251Y007248D03*
X010451Y007598D03*
X010801Y007598D03*
X010451Y008198D03*
X011001Y008648D03*
X011551Y008348D03*
X011801Y008748D03*
X012301Y008398D03*
X012701Y008398D03*
X013951Y008448D03*
X014251Y008448D03*
X016101Y008448D03*
X016401Y008448D03*
X018251Y008448D03*
X018551Y008448D03*
X013351Y010648D03*
X012751Y010248D03*
X012001Y010798D03*
X010401Y011348D03*
X010401Y011648D03*
X010401Y011948D03*
X010401Y012248D03*
X010851Y012648D03*
X012051Y012698D03*
X012051Y012998D03*
X012051Y013498D03*
X012051Y013798D03*
X010851Y013948D03*
X009651Y014398D03*
X012801Y012998D03*
X013101Y012998D03*
X012351Y011948D03*
X009851Y009748D03*
X009451Y009748D03*
X010801Y009448D03*
X010801Y006648D03*
X011701Y005998D03*
X011001Y005548D03*
X011951Y004848D03*
X012251Y004548D03*
X012451Y005348D03*
X012851Y005348D03*
X009251Y004548D03*
X008451Y004548D03*
X006551Y004148D03*
X006001Y005498D03*
X006001Y005898D03*
X016101Y018848D03*
X016401Y018848D03*
X018251Y018748D03*
X018551Y018748D03*
X026001Y018748D03*
X029001Y019348D03*
X029401Y019348D03*
X031401Y020698D03*
X031651Y021248D03*
X031951Y021648D03*
X032601Y021148D03*
X033001Y020848D03*
X033051Y020048D03*
X032851Y019748D03*
X032601Y019348D03*
X032351Y018998D03*
X033251Y019248D03*
X033851Y018848D03*
X034151Y017898D03*
X033851Y017448D03*
X035951Y018548D03*
X036301Y018598D03*
X036601Y018448D03*
X036901Y018598D03*
X037801Y018648D03*
X036551Y019548D03*
X035951Y019548D03*
X035251Y019748D03*
X034401Y019698D03*
X034401Y020298D03*
X034801Y020698D03*
X035501Y021298D03*
X036551Y021298D03*
X037151Y021298D03*
X038251Y021948D03*
X038251Y022448D03*
X038751Y022448D03*
X038751Y022948D03*
X038251Y022948D03*
X038251Y023548D03*
X038751Y023548D03*
X037551Y023648D03*
X034751Y022698D03*
X032051Y023648D03*
X037551Y020298D03*
X038851Y019798D03*
X039351Y020498D03*
X039051Y020748D03*
X039701Y020748D03*
X040151Y020498D03*
X040501Y020798D03*
X042651Y021048D03*
X042951Y020448D03*
X044551Y019598D03*
X044851Y019398D03*
X045401Y019598D03*
X045801Y018898D03*
X046051Y018548D03*
X045151Y018098D03*
X044751Y018098D03*
X044751Y017698D03*
X043851Y017148D03*
X044651Y016848D03*
X045651Y016948D03*
X046451Y017048D03*
X046451Y016548D03*
X047851Y016248D03*
X043001Y018348D03*
X041951Y018348D03*
X041551Y018348D03*
X041551Y018748D03*
X041951Y018748D03*
X041951Y019148D03*
X041551Y019148D03*
X043551Y019048D03*
X044251Y018948D03*
X042951Y017548D03*
X042751Y017048D03*
X040101Y017148D03*
X039551Y017248D03*
X039551Y016948D03*
X039551Y016648D03*
X039551Y016348D03*
X039251Y016348D03*
X039251Y016648D03*
X038951Y016648D03*
X038951Y016348D03*
X037851Y016848D03*
X037851Y017148D03*
X037101Y016948D03*
X036401Y016798D03*
X036401Y017248D03*
X034051Y016248D03*
X033801Y015698D03*
X034051Y015348D03*
X033851Y015048D03*
X035051Y015298D03*
X035451Y015298D03*
X036051Y015348D03*
X046051Y011698D03*
X046451Y010148D03*
X046751Y008948D03*
X042951Y008858D03*
X042951Y009148D03*
X042201Y008788D03*
X042351Y008148D03*
X041251Y008048D03*
X040851Y008048D03*
X040451Y008048D03*
X040451Y007448D03*
X040851Y007448D03*
X041251Y007448D03*
X041251Y007048D03*
X040851Y007048D03*
X040451Y007048D03*
X040451Y006548D03*
X040851Y006548D03*
X041251Y006548D03*
X042101Y005998D03*
X042201Y005698D03*
X042951Y005598D03*
X042951Y005298D03*
X041401Y004448D03*
X040951Y003898D03*
X040601Y003898D03*
X041351Y003648D03*
X041351Y003198D03*
X040951Y003198D03*
X040551Y003198D03*
X039201Y002798D03*
X038801Y002698D03*
X038501Y002698D03*
X040551Y001598D03*
X040951Y001598D03*
X041351Y001598D03*
X042651Y002198D03*
X042651Y002598D03*
X042351Y003648D03*
X042001Y003898D03*
X039501Y005708D03*
X038751Y005638D03*
X038751Y005348D03*
X043651Y001748D03*
X043951Y001748D03*
X044251Y001748D03*
X044251Y001348D03*
X043951Y001348D03*
X043651Y001348D03*
X047351Y019898D03*
X046451Y020648D03*
X046451Y021248D03*
X046451Y021848D03*
X045101Y021548D03*
X043051Y023148D03*
X043251Y023648D03*
X045451Y023848D03*
D36*
X041651Y017648D03*
X032351Y008148D03*
X037051Y003048D03*
X045251Y001548D03*
X046951Y004148D03*
X008851Y020248D03*
X007351Y020248D03*
X005851Y020248D03*
X007351Y021748D03*
X008851Y021748D03*
X008851Y023748D03*
X010351Y023748D03*
M02*
