G75*
%MOIN*%
%OFA0B0*%
%FSLAX24Y24*%
%IPPOS*%
%LPD*%
%AMOC8*
5,1,8,0,0,1.08239X$1,22.5*
%
%ADD10R,0.0710X0.0198*%
%ADD11R,0.0198X0.0710*%
%ADD12R,0.0474X0.0474*%
%ADD13R,0.0690X0.0848*%
%ADD14C,0.0019*%
%ADD15C,0.0021*%
%ADD16R,0.0316X0.0178*%
%ADD17R,0.0178X0.0316*%
%ADD18R,0.1104X0.1104*%
%ADD19R,0.0277X0.0277*%
%ADD20R,0.0257X0.0671*%
%ADD21R,0.0190X0.0249*%
%ADD22R,0.0356X0.0434*%
%ADD23R,0.0474X0.1163*%
%ADD24C,0.0474*%
%ADD25R,0.0513X0.0474*%
%ADD26C,0.0100*%
%ADD27R,0.0335X0.0157*%
%ADD28R,0.0157X0.0335*%
%ADD29R,0.0631X0.0237*%
%ADD30R,0.0828X0.0986*%
%ADD31R,0.0828X0.0789*%
%ADD32R,0.0249X0.0190*%
%ADD33R,0.0749X0.0631*%
%ADD34R,0.0237X0.0611*%
%ADD35R,0.0257X0.0513*%
%ADD36R,0.0316X0.0513*%
%ADD37R,0.0474X0.0513*%
%ADD38R,0.0592X0.0671*%
%ADD39R,0.0671X0.0592*%
%ADD40R,0.1980X0.0980*%
%ADD41R,0.0670X0.0250*%
%ADD42R,0.1230X0.0580*%
%ADD43R,0.0730X0.1430*%
%ADD44R,0.0356X0.0336*%
%ADD45R,0.1182X0.1025*%
%ADD46R,0.0336X0.0356*%
%ADD47C,0.1064*%
%ADD48R,0.0395X0.0395*%
%ADD49R,0.0550X0.0470*%
%ADD50C,0.0420*%
%ADD51R,0.0356X0.0178*%
%ADD52R,0.0332X0.1021*%
%ADD53R,0.0580X0.1530*%
%ADD54C,0.0380*%
%ADD55R,0.1330X0.1330*%
%ADD56C,0.0320*%
%ADD57C,0.0740*%
D10*
X011477Y010597D03*
X011477Y010794D03*
X011477Y010990D03*
X011477Y011187D03*
X011477Y011384D03*
X011477Y011581D03*
X011477Y011778D03*
X011477Y011975D03*
X011477Y012172D03*
X011477Y012368D03*
X011477Y012565D03*
X011477Y012762D03*
X011477Y012959D03*
X011477Y013156D03*
X011477Y013353D03*
X011477Y013549D03*
X011477Y013746D03*
X011477Y013943D03*
X011477Y014140D03*
X011477Y014337D03*
X011477Y014534D03*
X011477Y014731D03*
X011477Y014927D03*
X011477Y015124D03*
X011477Y015321D03*
X011477Y015518D03*
X011477Y015715D03*
X011477Y015912D03*
X011477Y016109D03*
X011477Y016305D03*
X011477Y016502D03*
X011477Y016699D03*
X019824Y016699D03*
X019824Y016502D03*
X019824Y016305D03*
X019824Y016109D03*
X019824Y015912D03*
X019824Y015715D03*
X019824Y015518D03*
X019824Y015321D03*
X019824Y015124D03*
X019824Y014927D03*
X019824Y014731D03*
X019824Y014534D03*
X019824Y014337D03*
X019824Y014140D03*
X019824Y013943D03*
X019824Y013746D03*
X019824Y013549D03*
X019824Y013353D03*
X019824Y013156D03*
X019824Y012959D03*
X019824Y012762D03*
X019824Y012565D03*
X019824Y012368D03*
X019824Y012172D03*
X019824Y011975D03*
X019824Y011778D03*
X019824Y011581D03*
X019824Y011384D03*
X019824Y011187D03*
X019824Y010990D03*
X019824Y010794D03*
X019824Y010597D03*
X024838Y010603D03*
X024838Y010800D03*
X024838Y010997D03*
X024838Y011194D03*
X024838Y011390D03*
X024838Y011587D03*
X024838Y011784D03*
X024838Y011981D03*
X024838Y012178D03*
X024838Y012375D03*
X024838Y012572D03*
X024838Y012768D03*
X024838Y012965D03*
X024838Y013162D03*
X024838Y013359D03*
X024838Y013556D03*
X024838Y013753D03*
X024838Y013949D03*
X024838Y014146D03*
X024838Y014343D03*
X024838Y014540D03*
X024838Y014737D03*
X024838Y014934D03*
X024838Y015131D03*
X024838Y015327D03*
X024838Y015524D03*
X024838Y015721D03*
X024838Y015918D03*
X024838Y016115D03*
X024838Y016312D03*
X024838Y016509D03*
X024838Y016705D03*
X024838Y016902D03*
X024838Y017099D03*
X024838Y017296D03*
X024838Y017493D03*
X033263Y017493D03*
X033263Y017296D03*
X033263Y017099D03*
X033263Y016902D03*
X033263Y016705D03*
X033263Y016509D03*
X033263Y016312D03*
X033263Y016115D03*
X033263Y015918D03*
X033263Y015721D03*
X033263Y015524D03*
X033263Y015327D03*
X033263Y015131D03*
X033263Y014934D03*
X033263Y014737D03*
X033263Y014540D03*
X033263Y014343D03*
X033263Y014146D03*
X033263Y013949D03*
X033263Y013753D03*
X033263Y013556D03*
X033263Y013359D03*
X033263Y013162D03*
X033263Y012965D03*
X033263Y012768D03*
X033263Y012572D03*
X033263Y012375D03*
X033263Y012178D03*
X033263Y011981D03*
X033263Y011784D03*
X033263Y011587D03*
X033263Y011390D03*
X033263Y011194D03*
X033263Y010997D03*
X033263Y010800D03*
X033263Y010603D03*
D11*
X032496Y009835D03*
X032299Y009835D03*
X032102Y009835D03*
X031905Y009835D03*
X031708Y009835D03*
X031511Y009835D03*
X031314Y009835D03*
X031118Y009835D03*
X030921Y009835D03*
X030724Y009835D03*
X030527Y009835D03*
X030330Y009835D03*
X030133Y009835D03*
X029936Y009835D03*
X029740Y009835D03*
X029543Y009835D03*
X029346Y009835D03*
X029149Y009835D03*
X028952Y009835D03*
X028755Y009835D03*
X028559Y009835D03*
X028362Y009835D03*
X028165Y009835D03*
X027968Y009835D03*
X027771Y009835D03*
X027574Y009835D03*
X027377Y009835D03*
X027181Y009835D03*
X026984Y009835D03*
X026787Y009835D03*
X026590Y009835D03*
X026393Y009835D03*
X026196Y009835D03*
X025999Y009835D03*
X025803Y009835D03*
X025606Y009835D03*
X018702Y009475D03*
X018505Y009475D03*
X018308Y009475D03*
X018111Y009475D03*
X017914Y009475D03*
X017718Y009475D03*
X017521Y009475D03*
X017324Y009475D03*
X017127Y009475D03*
X016930Y009475D03*
X016733Y009475D03*
X016536Y009475D03*
X016340Y009475D03*
X016143Y009475D03*
X015946Y009475D03*
X015749Y009475D03*
X015552Y009475D03*
X015355Y009475D03*
X015159Y009475D03*
X014962Y009475D03*
X014765Y009475D03*
X014568Y009475D03*
X014371Y009475D03*
X014174Y009475D03*
X013977Y009475D03*
X013781Y009475D03*
X013584Y009475D03*
X013387Y009475D03*
X013190Y009475D03*
X012993Y009475D03*
X012796Y009475D03*
X012599Y009475D03*
X012599Y017821D03*
X012796Y017821D03*
X012993Y017821D03*
X013190Y017821D03*
X013387Y017821D03*
X013584Y017821D03*
X013781Y017821D03*
X013977Y017821D03*
X014174Y017821D03*
X014371Y017821D03*
X014568Y017821D03*
X014765Y017821D03*
X014962Y017821D03*
X015159Y017821D03*
X015355Y017821D03*
X015552Y017821D03*
X015749Y017821D03*
X015946Y017821D03*
X016143Y017821D03*
X016340Y017821D03*
X016536Y017821D03*
X016733Y017821D03*
X016930Y017821D03*
X017127Y017821D03*
X017324Y017821D03*
X017521Y017821D03*
X017718Y017821D03*
X017914Y017821D03*
X018111Y017821D03*
X018308Y017821D03*
X018505Y017821D03*
X018702Y017821D03*
X025606Y018261D03*
X025803Y018261D03*
X025999Y018261D03*
X026196Y018261D03*
X026393Y018261D03*
X026590Y018261D03*
X026787Y018261D03*
X026984Y018261D03*
X027181Y018261D03*
X027377Y018261D03*
X027574Y018261D03*
X027771Y018261D03*
X027968Y018261D03*
X028165Y018261D03*
X028362Y018261D03*
X028559Y018261D03*
X028755Y018261D03*
X028952Y018261D03*
X029149Y018261D03*
X029346Y018261D03*
X029543Y018261D03*
X029740Y018261D03*
X029936Y018261D03*
X030133Y018261D03*
X030330Y018261D03*
X030527Y018261D03*
X030724Y018261D03*
X030921Y018261D03*
X031118Y018261D03*
X031314Y018261D03*
X031511Y018261D03*
X031708Y018261D03*
X031905Y018261D03*
X032102Y018261D03*
X032299Y018261D03*
X032496Y018261D03*
D12*
X016359Y014357D03*
X015887Y014357D03*
X015414Y014357D03*
X014942Y014357D03*
X014942Y013884D03*
X015414Y013884D03*
X015887Y013884D03*
X016359Y013884D03*
X016359Y013412D03*
X015887Y013412D03*
X015414Y013412D03*
X014942Y013412D03*
X014942Y012939D03*
X015414Y012939D03*
X015887Y012939D03*
X016359Y012939D03*
D13*
X009651Y011975D03*
X008651Y011975D03*
X007651Y011975D03*
X007651Y010321D03*
X008651Y010321D03*
X009651Y010321D03*
D14*
X011029Y011349D02*
X011029Y011489D01*
X011029Y011349D02*
X010573Y011349D01*
X010573Y011489D01*
X011029Y011489D01*
X011029Y011367D02*
X010573Y011367D01*
X010573Y011385D02*
X011029Y011385D01*
X011029Y011403D02*
X010573Y011403D01*
X010573Y011421D02*
X011029Y011421D01*
X011029Y011439D02*
X010573Y011439D01*
X010573Y011457D02*
X011029Y011457D01*
X011029Y011475D02*
X010573Y011475D01*
X011029Y011507D02*
X011029Y011647D01*
X011029Y011507D02*
X010573Y011507D01*
X010573Y011647D01*
X011029Y011647D01*
X011029Y011525D02*
X010573Y011525D01*
X010573Y011543D02*
X011029Y011543D01*
X011029Y011561D02*
X010573Y011561D01*
X010573Y011579D02*
X011029Y011579D01*
X011029Y011597D02*
X010573Y011597D01*
X010573Y011615D02*
X011029Y011615D01*
X011029Y011633D02*
X010573Y011633D01*
X011029Y011949D02*
X011029Y012089D01*
X011029Y011949D02*
X010573Y011949D01*
X010573Y012089D01*
X011029Y012089D01*
X011029Y011967D02*
X010573Y011967D01*
X010573Y011985D02*
X011029Y011985D01*
X011029Y012003D02*
X010573Y012003D01*
X010573Y012021D02*
X011029Y012021D01*
X011029Y012039D02*
X010573Y012039D01*
X010573Y012057D02*
X011029Y012057D01*
X011029Y012075D02*
X010573Y012075D01*
X011029Y012107D02*
X011029Y012247D01*
X011029Y012107D02*
X010573Y012107D01*
X010573Y012247D01*
X011029Y012247D01*
X011029Y012125D02*
X010573Y012125D01*
X010573Y012143D02*
X011029Y012143D01*
X011029Y012161D02*
X010573Y012161D01*
X010573Y012179D02*
X011029Y012179D01*
X011029Y012197D02*
X010573Y012197D01*
X010573Y012215D02*
X011029Y012215D01*
X011029Y012233D02*
X010573Y012233D01*
X007799Y012720D02*
X007659Y012720D01*
X007659Y013176D01*
X007799Y013176D01*
X007799Y012720D01*
X007799Y012738D02*
X007659Y012738D01*
X007659Y012756D02*
X007799Y012756D01*
X007799Y012774D02*
X007659Y012774D01*
X007659Y012792D02*
X007799Y012792D01*
X007799Y012810D02*
X007659Y012810D01*
X007659Y012828D02*
X007799Y012828D01*
X007799Y012846D02*
X007659Y012846D01*
X007659Y012864D02*
X007799Y012864D01*
X007799Y012882D02*
X007659Y012882D01*
X007659Y012900D02*
X007799Y012900D01*
X007799Y012918D02*
X007659Y012918D01*
X007659Y012936D02*
X007799Y012936D01*
X007799Y012954D02*
X007659Y012954D01*
X007659Y012972D02*
X007799Y012972D01*
X007799Y012990D02*
X007659Y012990D01*
X007659Y013008D02*
X007799Y013008D01*
X007799Y013026D02*
X007659Y013026D01*
X007659Y013044D02*
X007799Y013044D01*
X007799Y013062D02*
X007659Y013062D01*
X007659Y013080D02*
X007799Y013080D01*
X007799Y013098D02*
X007659Y013098D01*
X007659Y013116D02*
X007799Y013116D01*
X007799Y013134D02*
X007659Y013134D01*
X007659Y013152D02*
X007799Y013152D01*
X007799Y013170D02*
X007659Y013170D01*
X007642Y012720D02*
X007502Y012720D01*
X007502Y013176D01*
X007642Y013176D01*
X007642Y012720D01*
X007642Y012738D02*
X007502Y012738D01*
X007502Y012756D02*
X007642Y012756D01*
X007642Y012774D02*
X007502Y012774D01*
X007502Y012792D02*
X007642Y012792D01*
X007642Y012810D02*
X007502Y012810D01*
X007502Y012828D02*
X007642Y012828D01*
X007642Y012846D02*
X007502Y012846D01*
X007502Y012864D02*
X007642Y012864D01*
X007642Y012882D02*
X007502Y012882D01*
X007502Y012900D02*
X007642Y012900D01*
X007642Y012918D02*
X007502Y012918D01*
X007502Y012936D02*
X007642Y012936D01*
X007642Y012954D02*
X007502Y012954D01*
X007502Y012972D02*
X007642Y012972D01*
X007642Y012990D02*
X007502Y012990D01*
X007502Y013008D02*
X007642Y013008D01*
X007642Y013026D02*
X007502Y013026D01*
X007502Y013044D02*
X007642Y013044D01*
X007642Y013062D02*
X007502Y013062D01*
X007502Y013080D02*
X007642Y013080D01*
X007642Y013098D02*
X007502Y013098D01*
X007502Y013116D02*
X007642Y013116D01*
X007642Y013134D02*
X007502Y013134D01*
X007502Y013152D02*
X007642Y013152D01*
X007642Y013170D02*
X007502Y013170D01*
X009479Y014249D02*
X009479Y014389D01*
X009479Y014249D02*
X009023Y014249D01*
X009023Y014389D01*
X009479Y014389D01*
X009479Y014267D02*
X009023Y014267D01*
X009023Y014285D02*
X009479Y014285D01*
X009479Y014303D02*
X009023Y014303D01*
X009023Y014321D02*
X009479Y014321D01*
X009479Y014339D02*
X009023Y014339D01*
X009023Y014357D02*
X009479Y014357D01*
X009479Y014375D02*
X009023Y014375D01*
X009479Y014407D02*
X009479Y014547D01*
X009479Y014407D02*
X009023Y014407D01*
X009023Y014547D01*
X009479Y014547D01*
X009479Y014425D02*
X009023Y014425D01*
X009023Y014443D02*
X009479Y014443D01*
X009479Y014461D02*
X009023Y014461D01*
X009023Y014479D02*
X009479Y014479D01*
X009479Y014497D02*
X009023Y014497D01*
X009023Y014515D02*
X009479Y014515D01*
X009479Y014533D02*
X009023Y014533D01*
X009023Y014949D02*
X009023Y015089D01*
X009479Y015089D01*
X009479Y014949D01*
X009023Y014949D01*
X009023Y014967D02*
X009479Y014967D01*
X009479Y014985D02*
X009023Y014985D01*
X009023Y015003D02*
X009479Y015003D01*
X009479Y015021D02*
X009023Y015021D01*
X009023Y015039D02*
X009479Y015039D01*
X009479Y015057D02*
X009023Y015057D01*
X009023Y015075D02*
X009479Y015075D01*
X009023Y015107D02*
X009023Y015247D01*
X009479Y015247D01*
X009479Y015107D01*
X009023Y015107D01*
X009023Y015125D02*
X009479Y015125D01*
X009479Y015143D02*
X009023Y015143D01*
X009023Y015161D02*
X009479Y015161D01*
X009479Y015179D02*
X009023Y015179D01*
X009023Y015197D02*
X009479Y015197D01*
X009479Y015215D02*
X009023Y015215D01*
X009023Y015233D02*
X009479Y015233D01*
X011029Y015649D02*
X011029Y015789D01*
X011029Y015649D02*
X010573Y015649D01*
X010573Y015789D01*
X011029Y015789D01*
X011029Y015667D02*
X010573Y015667D01*
X010573Y015685D02*
X011029Y015685D01*
X011029Y015703D02*
X010573Y015703D01*
X010573Y015721D02*
X011029Y015721D01*
X011029Y015739D02*
X010573Y015739D01*
X010573Y015757D02*
X011029Y015757D01*
X011029Y015775D02*
X010573Y015775D01*
X011029Y015807D02*
X011029Y015947D01*
X011029Y015807D02*
X010573Y015807D01*
X010573Y015947D01*
X011029Y015947D01*
X011029Y015825D02*
X010573Y015825D01*
X010573Y015843D02*
X011029Y015843D01*
X011029Y015861D02*
X010573Y015861D01*
X010573Y015879D02*
X011029Y015879D01*
X011029Y015897D02*
X010573Y015897D01*
X010573Y015915D02*
X011029Y015915D01*
X011029Y015933D02*
X010573Y015933D01*
X011029Y016449D02*
X011029Y016589D01*
X011029Y016449D02*
X010573Y016449D01*
X010573Y016589D01*
X011029Y016589D01*
X011029Y016467D02*
X010573Y016467D01*
X010573Y016485D02*
X011029Y016485D01*
X011029Y016503D02*
X010573Y016503D01*
X010573Y016521D02*
X011029Y016521D01*
X011029Y016539D02*
X010573Y016539D01*
X010573Y016557D02*
X011029Y016557D01*
X011029Y016575D02*
X010573Y016575D01*
X011029Y016607D02*
X011029Y016747D01*
X011029Y016607D02*
X010573Y016607D01*
X010573Y016747D01*
X011029Y016747D01*
X011029Y016625D02*
X010573Y016625D01*
X010573Y016643D02*
X011029Y016643D01*
X011029Y016661D02*
X010573Y016661D01*
X010573Y016679D02*
X011029Y016679D01*
X011029Y016697D02*
X010573Y016697D01*
X010573Y016715D02*
X011029Y016715D01*
X011029Y016733D02*
X010573Y016733D01*
X012352Y018726D02*
X012492Y018726D01*
X012492Y018270D01*
X012352Y018270D01*
X012352Y018726D01*
X012352Y018288D02*
X012492Y018288D01*
X012492Y018306D02*
X012352Y018306D01*
X012352Y018324D02*
X012492Y018324D01*
X012492Y018342D02*
X012352Y018342D01*
X012352Y018360D02*
X012492Y018360D01*
X012492Y018378D02*
X012352Y018378D01*
X012352Y018396D02*
X012492Y018396D01*
X012492Y018414D02*
X012352Y018414D01*
X012352Y018432D02*
X012492Y018432D01*
X012492Y018450D02*
X012352Y018450D01*
X012352Y018468D02*
X012492Y018468D01*
X012492Y018486D02*
X012352Y018486D01*
X012352Y018504D02*
X012492Y018504D01*
X012492Y018522D02*
X012352Y018522D01*
X012352Y018540D02*
X012492Y018540D01*
X012492Y018558D02*
X012352Y018558D01*
X012352Y018576D02*
X012492Y018576D01*
X012492Y018594D02*
X012352Y018594D01*
X012352Y018612D02*
X012492Y018612D01*
X012492Y018630D02*
X012352Y018630D01*
X012352Y018648D02*
X012492Y018648D01*
X012492Y018666D02*
X012352Y018666D01*
X012352Y018684D02*
X012492Y018684D01*
X012492Y018702D02*
X012352Y018702D01*
X012352Y018720D02*
X012492Y018720D01*
X012509Y018726D02*
X012649Y018726D01*
X012649Y018270D01*
X012509Y018270D01*
X012509Y018726D01*
X012509Y018288D02*
X012649Y018288D01*
X012649Y018306D02*
X012509Y018306D01*
X012509Y018324D02*
X012649Y018324D01*
X012649Y018342D02*
X012509Y018342D01*
X012509Y018360D02*
X012649Y018360D01*
X012649Y018378D02*
X012509Y018378D01*
X012509Y018396D02*
X012649Y018396D01*
X012649Y018414D02*
X012509Y018414D01*
X012509Y018432D02*
X012649Y018432D01*
X012649Y018450D02*
X012509Y018450D01*
X012509Y018468D02*
X012649Y018468D01*
X012649Y018486D02*
X012509Y018486D01*
X012509Y018504D02*
X012649Y018504D01*
X012649Y018522D02*
X012509Y018522D01*
X012509Y018540D02*
X012649Y018540D01*
X012649Y018558D02*
X012509Y018558D01*
X012509Y018576D02*
X012649Y018576D01*
X012649Y018594D02*
X012509Y018594D01*
X012509Y018612D02*
X012649Y018612D01*
X012649Y018630D02*
X012509Y018630D01*
X012509Y018648D02*
X012649Y018648D01*
X012649Y018666D02*
X012509Y018666D01*
X012509Y018684D02*
X012649Y018684D01*
X012649Y018702D02*
X012509Y018702D01*
X012509Y018720D02*
X012649Y018720D01*
X013952Y018270D02*
X014092Y018270D01*
X013952Y018270D02*
X013952Y018726D01*
X014092Y018726D01*
X014092Y018270D01*
X014092Y018288D02*
X013952Y018288D01*
X013952Y018306D02*
X014092Y018306D01*
X014092Y018324D02*
X013952Y018324D01*
X013952Y018342D02*
X014092Y018342D01*
X014092Y018360D02*
X013952Y018360D01*
X013952Y018378D02*
X014092Y018378D01*
X014092Y018396D02*
X013952Y018396D01*
X013952Y018414D02*
X014092Y018414D01*
X014092Y018432D02*
X013952Y018432D01*
X013952Y018450D02*
X014092Y018450D01*
X014092Y018468D02*
X013952Y018468D01*
X013952Y018486D02*
X014092Y018486D01*
X014092Y018504D02*
X013952Y018504D01*
X013952Y018522D02*
X014092Y018522D01*
X014092Y018540D02*
X013952Y018540D01*
X013952Y018558D02*
X014092Y018558D01*
X014092Y018576D02*
X013952Y018576D01*
X013952Y018594D02*
X014092Y018594D01*
X014092Y018612D02*
X013952Y018612D01*
X013952Y018630D02*
X014092Y018630D01*
X014092Y018648D02*
X013952Y018648D01*
X013952Y018666D02*
X014092Y018666D01*
X014092Y018684D02*
X013952Y018684D01*
X013952Y018702D02*
X014092Y018702D01*
X014092Y018720D02*
X013952Y018720D01*
X014109Y018270D02*
X014249Y018270D01*
X014109Y018270D02*
X014109Y018726D01*
X014249Y018726D01*
X014249Y018270D01*
X014249Y018288D02*
X014109Y018288D01*
X014109Y018306D02*
X014249Y018306D01*
X014249Y018324D02*
X014109Y018324D01*
X014109Y018342D02*
X014249Y018342D01*
X014249Y018360D02*
X014109Y018360D01*
X014109Y018378D02*
X014249Y018378D01*
X014249Y018396D02*
X014109Y018396D01*
X014109Y018414D02*
X014249Y018414D01*
X014249Y018432D02*
X014109Y018432D01*
X014109Y018450D02*
X014249Y018450D01*
X014249Y018468D02*
X014109Y018468D01*
X014109Y018486D02*
X014249Y018486D01*
X014249Y018504D02*
X014109Y018504D01*
X014109Y018522D02*
X014249Y018522D01*
X014249Y018540D02*
X014109Y018540D01*
X014109Y018558D02*
X014249Y018558D01*
X014249Y018576D02*
X014109Y018576D01*
X014109Y018594D02*
X014249Y018594D01*
X014249Y018612D02*
X014109Y018612D01*
X014109Y018630D02*
X014249Y018630D01*
X014249Y018648D02*
X014109Y018648D01*
X014109Y018666D02*
X014249Y018666D01*
X014249Y018684D02*
X014109Y018684D01*
X014109Y018702D02*
X014249Y018702D01*
X014249Y018720D02*
X014109Y018720D01*
X016102Y018270D02*
X016242Y018270D01*
X016102Y018270D02*
X016102Y018726D01*
X016242Y018726D01*
X016242Y018270D01*
X016242Y018288D02*
X016102Y018288D01*
X016102Y018306D02*
X016242Y018306D01*
X016242Y018324D02*
X016102Y018324D01*
X016102Y018342D02*
X016242Y018342D01*
X016242Y018360D02*
X016102Y018360D01*
X016102Y018378D02*
X016242Y018378D01*
X016242Y018396D02*
X016102Y018396D01*
X016102Y018414D02*
X016242Y018414D01*
X016242Y018432D02*
X016102Y018432D01*
X016102Y018450D02*
X016242Y018450D01*
X016242Y018468D02*
X016102Y018468D01*
X016102Y018486D02*
X016242Y018486D01*
X016242Y018504D02*
X016102Y018504D01*
X016102Y018522D02*
X016242Y018522D01*
X016242Y018540D02*
X016102Y018540D01*
X016102Y018558D02*
X016242Y018558D01*
X016242Y018576D02*
X016102Y018576D01*
X016102Y018594D02*
X016242Y018594D01*
X016242Y018612D02*
X016102Y018612D01*
X016102Y018630D02*
X016242Y018630D01*
X016242Y018648D02*
X016102Y018648D01*
X016102Y018666D02*
X016242Y018666D01*
X016242Y018684D02*
X016102Y018684D01*
X016102Y018702D02*
X016242Y018702D01*
X016242Y018720D02*
X016102Y018720D01*
X016259Y018270D02*
X016399Y018270D01*
X016259Y018270D02*
X016259Y018726D01*
X016399Y018726D01*
X016399Y018270D01*
X016399Y018288D02*
X016259Y018288D01*
X016259Y018306D02*
X016399Y018306D01*
X016399Y018324D02*
X016259Y018324D01*
X016259Y018342D02*
X016399Y018342D01*
X016399Y018360D02*
X016259Y018360D01*
X016259Y018378D02*
X016399Y018378D01*
X016399Y018396D02*
X016259Y018396D01*
X016259Y018414D02*
X016399Y018414D01*
X016399Y018432D02*
X016259Y018432D01*
X016259Y018450D02*
X016399Y018450D01*
X016399Y018468D02*
X016259Y018468D01*
X016259Y018486D02*
X016399Y018486D01*
X016399Y018504D02*
X016259Y018504D01*
X016259Y018522D02*
X016399Y018522D01*
X016399Y018540D02*
X016259Y018540D01*
X016259Y018558D02*
X016399Y018558D01*
X016399Y018576D02*
X016259Y018576D01*
X016259Y018594D02*
X016399Y018594D01*
X016399Y018612D02*
X016259Y018612D01*
X016259Y018630D02*
X016399Y018630D01*
X016399Y018648D02*
X016259Y018648D01*
X016259Y018666D02*
X016399Y018666D01*
X016399Y018684D02*
X016259Y018684D01*
X016259Y018702D02*
X016399Y018702D01*
X016399Y018720D02*
X016259Y018720D01*
X018252Y018170D02*
X018392Y018170D01*
X018252Y018170D02*
X018252Y018626D01*
X018392Y018626D01*
X018392Y018170D01*
X018392Y018188D02*
X018252Y018188D01*
X018252Y018206D02*
X018392Y018206D01*
X018392Y018224D02*
X018252Y018224D01*
X018252Y018242D02*
X018392Y018242D01*
X018392Y018260D02*
X018252Y018260D01*
X018252Y018278D02*
X018392Y018278D01*
X018392Y018296D02*
X018252Y018296D01*
X018252Y018314D02*
X018392Y018314D01*
X018392Y018332D02*
X018252Y018332D01*
X018252Y018350D02*
X018392Y018350D01*
X018392Y018368D02*
X018252Y018368D01*
X018252Y018386D02*
X018392Y018386D01*
X018392Y018404D02*
X018252Y018404D01*
X018252Y018422D02*
X018392Y018422D01*
X018392Y018440D02*
X018252Y018440D01*
X018252Y018458D02*
X018392Y018458D01*
X018392Y018476D02*
X018252Y018476D01*
X018252Y018494D02*
X018392Y018494D01*
X018392Y018512D02*
X018252Y018512D01*
X018252Y018530D02*
X018392Y018530D01*
X018392Y018548D02*
X018252Y018548D01*
X018252Y018566D02*
X018392Y018566D01*
X018392Y018584D02*
X018252Y018584D01*
X018252Y018602D02*
X018392Y018602D01*
X018392Y018620D02*
X018252Y018620D01*
X018409Y018170D02*
X018549Y018170D01*
X018409Y018170D02*
X018409Y018626D01*
X018549Y018626D01*
X018549Y018170D01*
X018549Y018188D02*
X018409Y018188D01*
X018409Y018206D02*
X018549Y018206D01*
X018549Y018224D02*
X018409Y018224D01*
X018409Y018242D02*
X018549Y018242D01*
X018549Y018260D02*
X018409Y018260D01*
X018409Y018278D02*
X018549Y018278D01*
X018549Y018296D02*
X018409Y018296D01*
X018409Y018314D02*
X018549Y018314D01*
X018549Y018332D02*
X018409Y018332D01*
X018409Y018350D02*
X018549Y018350D01*
X018549Y018368D02*
X018409Y018368D01*
X018409Y018386D02*
X018549Y018386D01*
X018549Y018404D02*
X018409Y018404D01*
X018409Y018422D02*
X018549Y018422D01*
X018549Y018440D02*
X018409Y018440D01*
X018409Y018458D02*
X018549Y018458D01*
X018549Y018476D02*
X018409Y018476D01*
X018409Y018494D02*
X018549Y018494D01*
X018549Y018512D02*
X018409Y018512D01*
X018409Y018530D02*
X018549Y018530D01*
X018549Y018548D02*
X018409Y018548D01*
X018409Y018566D02*
X018549Y018566D01*
X018549Y018584D02*
X018409Y018584D01*
X018409Y018602D02*
X018549Y018602D01*
X018549Y018620D02*
X018409Y018620D01*
X020283Y015177D02*
X020283Y015037D01*
X020283Y015177D02*
X020739Y015177D01*
X020739Y015037D01*
X020283Y015037D01*
X020283Y015055D02*
X020739Y015055D01*
X020739Y015073D02*
X020283Y015073D01*
X020283Y015091D02*
X020739Y015091D01*
X020739Y015109D02*
X020283Y015109D01*
X020283Y015127D02*
X020739Y015127D01*
X020739Y015145D02*
X020283Y015145D01*
X020283Y015163D02*
X020739Y015163D01*
X020283Y015019D02*
X020283Y014879D01*
X020283Y015019D02*
X020739Y015019D01*
X020739Y014879D01*
X020283Y014879D01*
X020283Y014897D02*
X020739Y014897D01*
X020739Y014915D02*
X020283Y014915D01*
X020283Y014933D02*
X020739Y014933D01*
X020739Y014951D02*
X020283Y014951D01*
X020283Y014969D02*
X020739Y014969D01*
X020739Y014987D02*
X020283Y014987D01*
X020283Y015005D02*
X020739Y015005D01*
X020679Y012397D02*
X020679Y012257D01*
X020223Y012257D01*
X020223Y012397D01*
X020679Y012397D01*
X020679Y012275D02*
X020223Y012275D01*
X020223Y012293D02*
X020679Y012293D01*
X020679Y012311D02*
X020223Y012311D01*
X020223Y012329D02*
X020679Y012329D01*
X020679Y012347D02*
X020223Y012347D01*
X020223Y012365D02*
X020679Y012365D01*
X020679Y012383D02*
X020223Y012383D01*
X020679Y012239D02*
X020679Y012099D01*
X020223Y012099D01*
X020223Y012239D01*
X020679Y012239D01*
X020679Y012117D02*
X020223Y012117D01*
X020223Y012135D02*
X020679Y012135D01*
X020679Y012153D02*
X020223Y012153D01*
X020223Y012171D02*
X020679Y012171D01*
X020679Y012189D02*
X020223Y012189D01*
X020223Y012207D02*
X020679Y012207D01*
X020679Y012225D02*
X020223Y012225D01*
X018549Y008570D02*
X018409Y008570D01*
X018409Y009026D01*
X018549Y009026D01*
X018549Y008570D01*
X018549Y008588D02*
X018409Y008588D01*
X018409Y008606D02*
X018549Y008606D01*
X018549Y008624D02*
X018409Y008624D01*
X018409Y008642D02*
X018549Y008642D01*
X018549Y008660D02*
X018409Y008660D01*
X018409Y008678D02*
X018549Y008678D01*
X018549Y008696D02*
X018409Y008696D01*
X018409Y008714D02*
X018549Y008714D01*
X018549Y008732D02*
X018409Y008732D01*
X018409Y008750D02*
X018549Y008750D01*
X018549Y008768D02*
X018409Y008768D01*
X018409Y008786D02*
X018549Y008786D01*
X018549Y008804D02*
X018409Y008804D01*
X018409Y008822D02*
X018549Y008822D01*
X018549Y008840D02*
X018409Y008840D01*
X018409Y008858D02*
X018549Y008858D01*
X018549Y008876D02*
X018409Y008876D01*
X018409Y008894D02*
X018549Y008894D01*
X018549Y008912D02*
X018409Y008912D01*
X018409Y008930D02*
X018549Y008930D01*
X018549Y008948D02*
X018409Y008948D01*
X018409Y008966D02*
X018549Y008966D01*
X018549Y008984D02*
X018409Y008984D01*
X018409Y009002D02*
X018549Y009002D01*
X018549Y009020D02*
X018409Y009020D01*
X018392Y008570D02*
X018252Y008570D01*
X018252Y009026D01*
X018392Y009026D01*
X018392Y008570D01*
X018392Y008588D02*
X018252Y008588D01*
X018252Y008606D02*
X018392Y008606D01*
X018392Y008624D02*
X018252Y008624D01*
X018252Y008642D02*
X018392Y008642D01*
X018392Y008660D02*
X018252Y008660D01*
X018252Y008678D02*
X018392Y008678D01*
X018392Y008696D02*
X018252Y008696D01*
X018252Y008714D02*
X018392Y008714D01*
X018392Y008732D02*
X018252Y008732D01*
X018252Y008750D02*
X018392Y008750D01*
X018392Y008768D02*
X018252Y008768D01*
X018252Y008786D02*
X018392Y008786D01*
X018392Y008804D02*
X018252Y008804D01*
X018252Y008822D02*
X018392Y008822D01*
X018392Y008840D02*
X018252Y008840D01*
X018252Y008858D02*
X018392Y008858D01*
X018392Y008876D02*
X018252Y008876D01*
X018252Y008894D02*
X018392Y008894D01*
X018392Y008912D02*
X018252Y008912D01*
X018252Y008930D02*
X018392Y008930D01*
X018392Y008948D02*
X018252Y008948D01*
X018252Y008966D02*
X018392Y008966D01*
X018392Y008984D02*
X018252Y008984D01*
X018252Y009002D02*
X018392Y009002D01*
X018392Y009020D02*
X018252Y009020D01*
X016399Y008570D02*
X016259Y008570D01*
X016259Y009026D01*
X016399Y009026D01*
X016399Y008570D01*
X016399Y008588D02*
X016259Y008588D01*
X016259Y008606D02*
X016399Y008606D01*
X016399Y008624D02*
X016259Y008624D01*
X016259Y008642D02*
X016399Y008642D01*
X016399Y008660D02*
X016259Y008660D01*
X016259Y008678D02*
X016399Y008678D01*
X016399Y008696D02*
X016259Y008696D01*
X016259Y008714D02*
X016399Y008714D01*
X016399Y008732D02*
X016259Y008732D01*
X016259Y008750D02*
X016399Y008750D01*
X016399Y008768D02*
X016259Y008768D01*
X016259Y008786D02*
X016399Y008786D01*
X016399Y008804D02*
X016259Y008804D01*
X016259Y008822D02*
X016399Y008822D01*
X016399Y008840D02*
X016259Y008840D01*
X016259Y008858D02*
X016399Y008858D01*
X016399Y008876D02*
X016259Y008876D01*
X016259Y008894D02*
X016399Y008894D01*
X016399Y008912D02*
X016259Y008912D01*
X016259Y008930D02*
X016399Y008930D01*
X016399Y008948D02*
X016259Y008948D01*
X016259Y008966D02*
X016399Y008966D01*
X016399Y008984D02*
X016259Y008984D01*
X016259Y009002D02*
X016399Y009002D01*
X016399Y009020D02*
X016259Y009020D01*
X016242Y008570D02*
X016102Y008570D01*
X016102Y009026D01*
X016242Y009026D01*
X016242Y008570D01*
X016242Y008588D02*
X016102Y008588D01*
X016102Y008606D02*
X016242Y008606D01*
X016242Y008624D02*
X016102Y008624D01*
X016102Y008642D02*
X016242Y008642D01*
X016242Y008660D02*
X016102Y008660D01*
X016102Y008678D02*
X016242Y008678D01*
X016242Y008696D02*
X016102Y008696D01*
X016102Y008714D02*
X016242Y008714D01*
X016242Y008732D02*
X016102Y008732D01*
X016102Y008750D02*
X016242Y008750D01*
X016242Y008768D02*
X016102Y008768D01*
X016102Y008786D02*
X016242Y008786D01*
X016242Y008804D02*
X016102Y008804D01*
X016102Y008822D02*
X016242Y008822D01*
X016242Y008840D02*
X016102Y008840D01*
X016102Y008858D02*
X016242Y008858D01*
X016242Y008876D02*
X016102Y008876D01*
X016102Y008894D02*
X016242Y008894D01*
X016242Y008912D02*
X016102Y008912D01*
X016102Y008930D02*
X016242Y008930D01*
X016242Y008948D02*
X016102Y008948D01*
X016102Y008966D02*
X016242Y008966D01*
X016242Y008984D02*
X016102Y008984D01*
X016102Y009002D02*
X016242Y009002D01*
X016242Y009020D02*
X016102Y009020D01*
X014249Y008570D02*
X014109Y008570D01*
X014109Y009026D01*
X014249Y009026D01*
X014249Y008570D01*
X014249Y008588D02*
X014109Y008588D01*
X014109Y008606D02*
X014249Y008606D01*
X014249Y008624D02*
X014109Y008624D01*
X014109Y008642D02*
X014249Y008642D01*
X014249Y008660D02*
X014109Y008660D01*
X014109Y008678D02*
X014249Y008678D01*
X014249Y008696D02*
X014109Y008696D01*
X014109Y008714D02*
X014249Y008714D01*
X014249Y008732D02*
X014109Y008732D01*
X014109Y008750D02*
X014249Y008750D01*
X014249Y008768D02*
X014109Y008768D01*
X014109Y008786D02*
X014249Y008786D01*
X014249Y008804D02*
X014109Y008804D01*
X014109Y008822D02*
X014249Y008822D01*
X014249Y008840D02*
X014109Y008840D01*
X014109Y008858D02*
X014249Y008858D01*
X014249Y008876D02*
X014109Y008876D01*
X014109Y008894D02*
X014249Y008894D01*
X014249Y008912D02*
X014109Y008912D01*
X014109Y008930D02*
X014249Y008930D01*
X014249Y008948D02*
X014109Y008948D01*
X014109Y008966D02*
X014249Y008966D01*
X014249Y008984D02*
X014109Y008984D01*
X014109Y009002D02*
X014249Y009002D01*
X014249Y009020D02*
X014109Y009020D01*
X014092Y008570D02*
X013952Y008570D01*
X013952Y009026D01*
X014092Y009026D01*
X014092Y008570D01*
X014092Y008588D02*
X013952Y008588D01*
X013952Y008606D02*
X014092Y008606D01*
X014092Y008624D02*
X013952Y008624D01*
X013952Y008642D02*
X014092Y008642D01*
X014092Y008660D02*
X013952Y008660D01*
X013952Y008678D02*
X014092Y008678D01*
X014092Y008696D02*
X013952Y008696D01*
X013952Y008714D02*
X014092Y008714D01*
X014092Y008732D02*
X013952Y008732D01*
X013952Y008750D02*
X014092Y008750D01*
X014092Y008768D02*
X013952Y008768D01*
X013952Y008786D02*
X014092Y008786D01*
X014092Y008804D02*
X013952Y008804D01*
X013952Y008822D02*
X014092Y008822D01*
X014092Y008840D02*
X013952Y008840D01*
X013952Y008858D02*
X014092Y008858D01*
X014092Y008876D02*
X013952Y008876D01*
X013952Y008894D02*
X014092Y008894D01*
X014092Y008912D02*
X013952Y008912D01*
X013952Y008930D02*
X014092Y008930D01*
X014092Y008948D02*
X013952Y008948D01*
X013952Y008966D02*
X014092Y008966D01*
X014092Y008984D02*
X013952Y008984D01*
X013952Y009002D02*
X014092Y009002D01*
X014092Y009020D02*
X013952Y009020D01*
X012649Y008570D02*
X012509Y008570D01*
X012509Y009026D01*
X012649Y009026D01*
X012649Y008570D01*
X012649Y008588D02*
X012509Y008588D01*
X012509Y008606D02*
X012649Y008606D01*
X012649Y008624D02*
X012509Y008624D01*
X012509Y008642D02*
X012649Y008642D01*
X012649Y008660D02*
X012509Y008660D01*
X012509Y008678D02*
X012649Y008678D01*
X012649Y008696D02*
X012509Y008696D01*
X012509Y008714D02*
X012649Y008714D01*
X012649Y008732D02*
X012509Y008732D01*
X012509Y008750D02*
X012649Y008750D01*
X012649Y008768D02*
X012509Y008768D01*
X012509Y008786D02*
X012649Y008786D01*
X012649Y008804D02*
X012509Y008804D01*
X012509Y008822D02*
X012649Y008822D01*
X012649Y008840D02*
X012509Y008840D01*
X012509Y008858D02*
X012649Y008858D01*
X012649Y008876D02*
X012509Y008876D01*
X012509Y008894D02*
X012649Y008894D01*
X012649Y008912D02*
X012509Y008912D01*
X012509Y008930D02*
X012649Y008930D01*
X012649Y008948D02*
X012509Y008948D01*
X012509Y008966D02*
X012649Y008966D01*
X012649Y008984D02*
X012509Y008984D01*
X012509Y009002D02*
X012649Y009002D01*
X012649Y009020D02*
X012509Y009020D01*
X012492Y008570D02*
X012352Y008570D01*
X012352Y009026D01*
X012492Y009026D01*
X012492Y008570D01*
X012492Y008588D02*
X012352Y008588D01*
X012352Y008606D02*
X012492Y008606D01*
X012492Y008624D02*
X012352Y008624D01*
X012352Y008642D02*
X012492Y008642D01*
X012492Y008660D02*
X012352Y008660D01*
X012352Y008678D02*
X012492Y008678D01*
X012492Y008696D02*
X012352Y008696D01*
X012352Y008714D02*
X012492Y008714D01*
X012492Y008732D02*
X012352Y008732D01*
X012352Y008750D02*
X012492Y008750D01*
X012492Y008768D02*
X012352Y008768D01*
X012352Y008786D02*
X012492Y008786D01*
X012492Y008804D02*
X012352Y008804D01*
X012352Y008822D02*
X012492Y008822D01*
X012492Y008840D02*
X012352Y008840D01*
X012352Y008858D02*
X012492Y008858D01*
X012492Y008876D02*
X012352Y008876D01*
X012352Y008894D02*
X012492Y008894D01*
X012492Y008912D02*
X012352Y008912D01*
X012352Y008930D02*
X012492Y008930D01*
X012492Y008948D02*
X012352Y008948D01*
X012352Y008966D02*
X012492Y008966D01*
X012492Y008984D02*
X012352Y008984D01*
X012352Y009002D02*
X012492Y009002D01*
X012492Y009020D02*
X012352Y009020D01*
X010629Y008047D02*
X010629Y007907D01*
X010173Y007907D01*
X010173Y008047D01*
X010629Y008047D01*
X010629Y007925D02*
X010173Y007925D01*
X010173Y007943D02*
X010629Y007943D01*
X010629Y007961D02*
X010173Y007961D01*
X010173Y007979D02*
X010629Y007979D01*
X010629Y007997D02*
X010173Y007997D01*
X010173Y008015D02*
X010629Y008015D01*
X010629Y008033D02*
X010173Y008033D01*
X010629Y007889D02*
X010629Y007749D01*
X010173Y007749D01*
X010173Y007889D01*
X010629Y007889D01*
X010629Y007767D02*
X010173Y007767D01*
X010173Y007785D02*
X010629Y007785D01*
X010629Y007803D02*
X010173Y007803D01*
X010173Y007821D02*
X010629Y007821D01*
X010629Y007839D02*
X010173Y007839D01*
X010173Y007857D02*
X010629Y007857D01*
X010629Y007875D02*
X010173Y007875D01*
X012452Y005570D02*
X012592Y005570D01*
X012452Y005570D02*
X012452Y006026D01*
X012592Y006026D01*
X012592Y005570D01*
X012592Y005588D02*
X012452Y005588D01*
X012452Y005606D02*
X012592Y005606D01*
X012592Y005624D02*
X012452Y005624D01*
X012452Y005642D02*
X012592Y005642D01*
X012592Y005660D02*
X012452Y005660D01*
X012452Y005678D02*
X012592Y005678D01*
X012592Y005696D02*
X012452Y005696D01*
X012452Y005714D02*
X012592Y005714D01*
X012592Y005732D02*
X012452Y005732D01*
X012452Y005750D02*
X012592Y005750D01*
X012592Y005768D02*
X012452Y005768D01*
X012452Y005786D02*
X012592Y005786D01*
X012592Y005804D02*
X012452Y005804D01*
X012452Y005822D02*
X012592Y005822D01*
X012592Y005840D02*
X012452Y005840D01*
X012452Y005858D02*
X012592Y005858D01*
X012592Y005876D02*
X012452Y005876D01*
X012452Y005894D02*
X012592Y005894D01*
X012592Y005912D02*
X012452Y005912D01*
X012452Y005930D02*
X012592Y005930D01*
X012592Y005948D02*
X012452Y005948D01*
X012452Y005966D02*
X012592Y005966D01*
X012592Y005984D02*
X012452Y005984D01*
X012452Y006002D02*
X012592Y006002D01*
X012592Y006020D02*
X012452Y006020D01*
X012609Y005570D02*
X012749Y005570D01*
X012609Y005570D02*
X012609Y006026D01*
X012749Y006026D01*
X012749Y005570D01*
X012749Y005588D02*
X012609Y005588D01*
X012609Y005606D02*
X012749Y005606D01*
X012749Y005624D02*
X012609Y005624D01*
X012609Y005642D02*
X012749Y005642D01*
X012749Y005660D02*
X012609Y005660D01*
X012609Y005678D02*
X012749Y005678D01*
X012749Y005696D02*
X012609Y005696D01*
X012609Y005714D02*
X012749Y005714D01*
X012749Y005732D02*
X012609Y005732D01*
X012609Y005750D02*
X012749Y005750D01*
X012749Y005768D02*
X012609Y005768D01*
X012609Y005786D02*
X012749Y005786D01*
X012749Y005804D02*
X012609Y005804D01*
X012609Y005822D02*
X012749Y005822D01*
X012749Y005840D02*
X012609Y005840D01*
X012609Y005858D02*
X012749Y005858D01*
X012749Y005876D02*
X012609Y005876D01*
X012609Y005894D02*
X012749Y005894D01*
X012749Y005912D02*
X012609Y005912D01*
X012609Y005930D02*
X012749Y005930D01*
X012749Y005948D02*
X012609Y005948D01*
X012609Y005966D02*
X012749Y005966D01*
X012749Y005984D02*
X012609Y005984D01*
X012609Y006002D02*
X012749Y006002D01*
X012749Y006020D02*
X012609Y006020D01*
X008999Y004220D02*
X008859Y004220D01*
X008859Y004676D01*
X008999Y004676D01*
X008999Y004220D01*
X008999Y004238D02*
X008859Y004238D01*
X008859Y004256D02*
X008999Y004256D01*
X008999Y004274D02*
X008859Y004274D01*
X008859Y004292D02*
X008999Y004292D01*
X008999Y004310D02*
X008859Y004310D01*
X008859Y004328D02*
X008999Y004328D01*
X008999Y004346D02*
X008859Y004346D01*
X008859Y004364D02*
X008999Y004364D01*
X008999Y004382D02*
X008859Y004382D01*
X008859Y004400D02*
X008999Y004400D01*
X008999Y004418D02*
X008859Y004418D01*
X008859Y004436D02*
X008999Y004436D01*
X008999Y004454D02*
X008859Y004454D01*
X008859Y004472D02*
X008999Y004472D01*
X008999Y004490D02*
X008859Y004490D01*
X008859Y004508D02*
X008999Y004508D01*
X008999Y004526D02*
X008859Y004526D01*
X008859Y004544D02*
X008999Y004544D01*
X008999Y004562D02*
X008859Y004562D01*
X008859Y004580D02*
X008999Y004580D01*
X008999Y004598D02*
X008859Y004598D01*
X008859Y004616D02*
X008999Y004616D01*
X008999Y004634D02*
X008859Y004634D01*
X008859Y004652D02*
X008999Y004652D01*
X008999Y004670D02*
X008859Y004670D01*
X008842Y004220D02*
X008702Y004220D01*
X008702Y004676D01*
X008842Y004676D01*
X008842Y004220D01*
X008842Y004238D02*
X008702Y004238D01*
X008702Y004256D02*
X008842Y004256D01*
X008842Y004274D02*
X008702Y004274D01*
X008702Y004292D02*
X008842Y004292D01*
X008842Y004310D02*
X008702Y004310D01*
X008702Y004328D02*
X008842Y004328D01*
X008842Y004346D02*
X008702Y004346D01*
X008702Y004364D02*
X008842Y004364D01*
X008842Y004382D02*
X008702Y004382D01*
X008702Y004400D02*
X008842Y004400D01*
X008842Y004418D02*
X008702Y004418D01*
X008702Y004436D02*
X008842Y004436D01*
X008842Y004454D02*
X008702Y004454D01*
X008702Y004472D02*
X008842Y004472D01*
X008842Y004490D02*
X008702Y004490D01*
X008702Y004508D02*
X008842Y004508D01*
X008842Y004526D02*
X008702Y004526D01*
X008702Y004544D02*
X008842Y004544D01*
X008842Y004562D02*
X008702Y004562D01*
X008702Y004580D02*
X008842Y004580D01*
X008842Y004598D02*
X008702Y004598D01*
X008702Y004616D02*
X008842Y004616D01*
X008842Y004634D02*
X008702Y004634D01*
X008702Y004652D02*
X008842Y004652D01*
X008842Y004670D02*
X008702Y004670D01*
X025952Y009126D02*
X026092Y009126D01*
X026092Y008670D01*
X025952Y008670D01*
X025952Y009126D01*
X025952Y008688D02*
X026092Y008688D01*
X026092Y008706D02*
X025952Y008706D01*
X025952Y008724D02*
X026092Y008724D01*
X026092Y008742D02*
X025952Y008742D01*
X025952Y008760D02*
X026092Y008760D01*
X026092Y008778D02*
X025952Y008778D01*
X025952Y008796D02*
X026092Y008796D01*
X026092Y008814D02*
X025952Y008814D01*
X025952Y008832D02*
X026092Y008832D01*
X026092Y008850D02*
X025952Y008850D01*
X025952Y008868D02*
X026092Y008868D01*
X026092Y008886D02*
X025952Y008886D01*
X025952Y008904D02*
X026092Y008904D01*
X026092Y008922D02*
X025952Y008922D01*
X025952Y008940D02*
X026092Y008940D01*
X026092Y008958D02*
X025952Y008958D01*
X025952Y008976D02*
X026092Y008976D01*
X026092Y008994D02*
X025952Y008994D01*
X025952Y009012D02*
X026092Y009012D01*
X026092Y009030D02*
X025952Y009030D01*
X025952Y009048D02*
X026092Y009048D01*
X026092Y009066D02*
X025952Y009066D01*
X025952Y009084D02*
X026092Y009084D01*
X026092Y009102D02*
X025952Y009102D01*
X025952Y009120D02*
X026092Y009120D01*
X026109Y009126D02*
X026249Y009126D01*
X026249Y008670D01*
X026109Y008670D01*
X026109Y009126D01*
X026109Y008688D02*
X026249Y008688D01*
X026249Y008706D02*
X026109Y008706D01*
X026109Y008724D02*
X026249Y008724D01*
X026249Y008742D02*
X026109Y008742D01*
X026109Y008760D02*
X026249Y008760D01*
X026249Y008778D02*
X026109Y008778D01*
X026109Y008796D02*
X026249Y008796D01*
X026249Y008814D02*
X026109Y008814D01*
X026109Y008832D02*
X026249Y008832D01*
X026249Y008850D02*
X026109Y008850D01*
X026109Y008868D02*
X026249Y008868D01*
X026249Y008886D02*
X026109Y008886D01*
X026109Y008904D02*
X026249Y008904D01*
X026249Y008922D02*
X026109Y008922D01*
X026109Y008940D02*
X026249Y008940D01*
X026249Y008958D02*
X026109Y008958D01*
X026109Y008976D02*
X026249Y008976D01*
X026249Y008994D02*
X026109Y008994D01*
X026109Y009012D02*
X026249Y009012D01*
X026249Y009030D02*
X026109Y009030D01*
X026109Y009048D02*
X026249Y009048D01*
X026249Y009066D02*
X026109Y009066D01*
X026109Y009084D02*
X026249Y009084D01*
X026249Y009102D02*
X026109Y009102D01*
X026109Y009120D02*
X026249Y009120D01*
X038879Y014299D02*
X038879Y014439D01*
X038879Y014299D02*
X038423Y014299D01*
X038423Y014439D01*
X038879Y014439D01*
X038879Y014317D02*
X038423Y014317D01*
X038423Y014335D02*
X038879Y014335D01*
X038879Y014353D02*
X038423Y014353D01*
X038423Y014371D02*
X038879Y014371D01*
X038879Y014389D02*
X038423Y014389D01*
X038423Y014407D02*
X038879Y014407D01*
X038879Y014425D02*
X038423Y014425D01*
X038879Y014457D02*
X038879Y014597D01*
X038879Y014457D02*
X038423Y014457D01*
X038423Y014597D01*
X038879Y014597D01*
X038879Y014475D02*
X038423Y014475D01*
X038423Y014493D02*
X038879Y014493D01*
X038879Y014511D02*
X038423Y014511D01*
X038423Y014529D02*
X038879Y014529D01*
X038879Y014547D02*
X038423Y014547D01*
X038423Y014565D02*
X038879Y014565D01*
X038879Y014583D02*
X038423Y014583D01*
X043879Y017799D02*
X043879Y017939D01*
X043879Y017799D02*
X043423Y017799D01*
X043423Y017939D01*
X043879Y017939D01*
X043879Y017817D02*
X043423Y017817D01*
X043423Y017835D02*
X043879Y017835D01*
X043879Y017853D02*
X043423Y017853D01*
X043423Y017871D02*
X043879Y017871D01*
X043879Y017889D02*
X043423Y017889D01*
X043423Y017907D02*
X043879Y017907D01*
X043879Y017925D02*
X043423Y017925D01*
X043879Y017957D02*
X043879Y018097D01*
X043879Y017957D02*
X043423Y017957D01*
X043423Y018097D01*
X043879Y018097D01*
X043879Y017975D02*
X043423Y017975D01*
X043423Y017993D02*
X043879Y017993D01*
X043879Y018011D02*
X043423Y018011D01*
X043423Y018029D02*
X043879Y018029D01*
X043879Y018047D02*
X043423Y018047D01*
X043423Y018065D02*
X043879Y018065D01*
X043879Y018083D02*
X043423Y018083D01*
X043702Y018820D02*
X043842Y018820D01*
X043702Y018820D02*
X043702Y019276D01*
X043842Y019276D01*
X043842Y018820D01*
X043842Y018838D02*
X043702Y018838D01*
X043702Y018856D02*
X043842Y018856D01*
X043842Y018874D02*
X043702Y018874D01*
X043702Y018892D02*
X043842Y018892D01*
X043842Y018910D02*
X043702Y018910D01*
X043702Y018928D02*
X043842Y018928D01*
X043842Y018946D02*
X043702Y018946D01*
X043702Y018964D02*
X043842Y018964D01*
X043842Y018982D02*
X043702Y018982D01*
X043702Y019000D02*
X043842Y019000D01*
X043842Y019018D02*
X043702Y019018D01*
X043702Y019036D02*
X043842Y019036D01*
X043842Y019054D02*
X043702Y019054D01*
X043702Y019072D02*
X043842Y019072D01*
X043842Y019090D02*
X043702Y019090D01*
X043702Y019108D02*
X043842Y019108D01*
X043842Y019126D02*
X043702Y019126D01*
X043702Y019144D02*
X043842Y019144D01*
X043842Y019162D02*
X043702Y019162D01*
X043702Y019180D02*
X043842Y019180D01*
X043842Y019198D02*
X043702Y019198D01*
X043702Y019216D02*
X043842Y019216D01*
X043842Y019234D02*
X043702Y019234D01*
X043702Y019252D02*
X043842Y019252D01*
X043842Y019270D02*
X043702Y019270D01*
X043859Y018820D02*
X043999Y018820D01*
X043859Y018820D02*
X043859Y019276D01*
X043999Y019276D01*
X043999Y018820D01*
X043999Y018838D02*
X043859Y018838D01*
X043859Y018856D02*
X043999Y018856D01*
X043999Y018874D02*
X043859Y018874D01*
X043859Y018892D02*
X043999Y018892D01*
X043999Y018910D02*
X043859Y018910D01*
X043859Y018928D02*
X043999Y018928D01*
X043999Y018946D02*
X043859Y018946D01*
X043859Y018964D02*
X043999Y018964D01*
X043999Y018982D02*
X043859Y018982D01*
X043859Y019000D02*
X043999Y019000D01*
X043999Y019018D02*
X043859Y019018D01*
X043859Y019036D02*
X043999Y019036D01*
X043999Y019054D02*
X043859Y019054D01*
X043859Y019072D02*
X043999Y019072D01*
X043999Y019090D02*
X043859Y019090D01*
X043859Y019108D02*
X043999Y019108D01*
X043999Y019126D02*
X043859Y019126D01*
X043859Y019144D02*
X043999Y019144D01*
X043999Y019162D02*
X043859Y019162D01*
X043859Y019180D02*
X043999Y019180D01*
X043999Y019198D02*
X043859Y019198D01*
X043859Y019216D02*
X043999Y019216D01*
X043999Y019234D02*
X043859Y019234D01*
X043859Y019252D02*
X043999Y019252D01*
X043999Y019270D02*
X043859Y019270D01*
X034173Y019849D02*
X034173Y019989D01*
X034629Y019989D01*
X034629Y019849D01*
X034173Y019849D01*
X034173Y019867D02*
X034629Y019867D01*
X034629Y019885D02*
X034173Y019885D01*
X034173Y019903D02*
X034629Y019903D01*
X034629Y019921D02*
X034173Y019921D01*
X034173Y019939D02*
X034629Y019939D01*
X034629Y019957D02*
X034173Y019957D01*
X034173Y019975D02*
X034629Y019975D01*
X034173Y020007D02*
X034173Y020147D01*
X034629Y020147D01*
X034629Y020007D01*
X034173Y020007D01*
X034173Y020025D02*
X034629Y020025D01*
X034629Y020043D02*
X034173Y020043D01*
X034173Y020061D02*
X034629Y020061D01*
X034629Y020079D02*
X034173Y020079D01*
X034173Y020097D02*
X034629Y020097D01*
X034629Y020115D02*
X034173Y020115D01*
X034173Y020133D02*
X034629Y020133D01*
X029349Y019176D02*
X029209Y019176D01*
X029349Y019176D02*
X029349Y018720D01*
X029209Y018720D01*
X029209Y019176D01*
X029209Y018738D02*
X029349Y018738D01*
X029349Y018756D02*
X029209Y018756D01*
X029209Y018774D02*
X029349Y018774D01*
X029349Y018792D02*
X029209Y018792D01*
X029209Y018810D02*
X029349Y018810D01*
X029349Y018828D02*
X029209Y018828D01*
X029209Y018846D02*
X029349Y018846D01*
X029349Y018864D02*
X029209Y018864D01*
X029209Y018882D02*
X029349Y018882D01*
X029349Y018900D02*
X029209Y018900D01*
X029209Y018918D02*
X029349Y018918D01*
X029349Y018936D02*
X029209Y018936D01*
X029209Y018954D02*
X029349Y018954D01*
X029349Y018972D02*
X029209Y018972D01*
X029209Y018990D02*
X029349Y018990D01*
X029349Y019008D02*
X029209Y019008D01*
X029209Y019026D02*
X029349Y019026D01*
X029349Y019044D02*
X029209Y019044D01*
X029209Y019062D02*
X029349Y019062D01*
X029349Y019080D02*
X029209Y019080D01*
X029209Y019098D02*
X029349Y019098D01*
X029349Y019116D02*
X029209Y019116D01*
X029209Y019134D02*
X029349Y019134D01*
X029349Y019152D02*
X029209Y019152D01*
X029209Y019170D02*
X029349Y019170D01*
X029192Y019176D02*
X029052Y019176D01*
X029192Y019176D02*
X029192Y018720D01*
X029052Y018720D01*
X029052Y019176D01*
X029052Y018738D02*
X029192Y018738D01*
X029192Y018756D02*
X029052Y018756D01*
X029052Y018774D02*
X029192Y018774D01*
X029192Y018792D02*
X029052Y018792D01*
X029052Y018810D02*
X029192Y018810D01*
X029192Y018828D02*
X029052Y018828D01*
X029052Y018846D02*
X029192Y018846D01*
X029192Y018864D02*
X029052Y018864D01*
X029052Y018882D02*
X029192Y018882D01*
X029192Y018900D02*
X029052Y018900D01*
X029052Y018918D02*
X029192Y018918D01*
X029192Y018936D02*
X029052Y018936D01*
X029052Y018954D02*
X029192Y018954D01*
X029192Y018972D02*
X029052Y018972D01*
X029052Y018990D02*
X029192Y018990D01*
X029192Y019008D02*
X029052Y019008D01*
X029052Y019026D02*
X029192Y019026D01*
X029192Y019044D02*
X029052Y019044D01*
X029052Y019062D02*
X029192Y019062D01*
X029192Y019080D02*
X029052Y019080D01*
X029052Y019098D02*
X029192Y019098D01*
X029192Y019116D02*
X029052Y019116D01*
X029052Y019134D02*
X029192Y019134D01*
X029192Y019152D02*
X029052Y019152D01*
X029052Y019170D02*
X029192Y019170D01*
X045302Y006720D02*
X045442Y006720D01*
X045302Y006720D02*
X045302Y007176D01*
X045442Y007176D01*
X045442Y006720D01*
X045442Y006738D02*
X045302Y006738D01*
X045302Y006756D02*
X045442Y006756D01*
X045442Y006774D02*
X045302Y006774D01*
X045302Y006792D02*
X045442Y006792D01*
X045442Y006810D02*
X045302Y006810D01*
X045302Y006828D02*
X045442Y006828D01*
X045442Y006846D02*
X045302Y006846D01*
X045302Y006864D02*
X045442Y006864D01*
X045442Y006882D02*
X045302Y006882D01*
X045302Y006900D02*
X045442Y006900D01*
X045442Y006918D02*
X045302Y006918D01*
X045302Y006936D02*
X045442Y006936D01*
X045442Y006954D02*
X045302Y006954D01*
X045302Y006972D02*
X045442Y006972D01*
X045442Y006990D02*
X045302Y006990D01*
X045302Y007008D02*
X045442Y007008D01*
X045442Y007026D02*
X045302Y007026D01*
X045302Y007044D02*
X045442Y007044D01*
X045442Y007062D02*
X045302Y007062D01*
X045302Y007080D02*
X045442Y007080D01*
X045442Y007098D02*
X045302Y007098D01*
X045302Y007116D02*
X045442Y007116D01*
X045442Y007134D02*
X045302Y007134D01*
X045302Y007152D02*
X045442Y007152D01*
X045442Y007170D02*
X045302Y007170D01*
X045459Y006720D02*
X045599Y006720D01*
X045459Y006720D02*
X045459Y007176D01*
X045599Y007176D01*
X045599Y006720D01*
X045599Y006738D02*
X045459Y006738D01*
X045459Y006756D02*
X045599Y006756D01*
X045599Y006774D02*
X045459Y006774D01*
X045459Y006792D02*
X045599Y006792D01*
X045599Y006810D02*
X045459Y006810D01*
X045459Y006828D02*
X045599Y006828D01*
X045599Y006846D02*
X045459Y006846D01*
X045459Y006864D02*
X045599Y006864D01*
X045599Y006882D02*
X045459Y006882D01*
X045459Y006900D02*
X045599Y006900D01*
X045599Y006918D02*
X045459Y006918D01*
X045459Y006936D02*
X045599Y006936D01*
X045599Y006954D02*
X045459Y006954D01*
X045459Y006972D02*
X045599Y006972D01*
X045599Y006990D02*
X045459Y006990D01*
X045459Y007008D02*
X045599Y007008D01*
X045599Y007026D02*
X045459Y007026D01*
X045459Y007044D02*
X045599Y007044D01*
X045599Y007062D02*
X045459Y007062D01*
X045459Y007080D02*
X045599Y007080D01*
X045599Y007098D02*
X045459Y007098D01*
X045459Y007116D02*
X045599Y007116D01*
X045599Y007134D02*
X045459Y007134D01*
X045459Y007152D02*
X045599Y007152D01*
X045599Y007170D02*
X045459Y007170D01*
D15*
X043678Y005997D02*
X043520Y005997D01*
X043678Y005997D02*
X043678Y005799D01*
X043520Y005799D01*
X043520Y005997D01*
X043520Y005819D02*
X043678Y005819D01*
X043678Y005839D02*
X043520Y005839D01*
X043520Y005859D02*
X043678Y005859D01*
X043678Y005879D02*
X043520Y005879D01*
X043520Y005899D02*
X043678Y005899D01*
X043678Y005919D02*
X043520Y005919D01*
X043520Y005939D02*
X043678Y005939D01*
X043678Y005959D02*
X043520Y005959D01*
X043520Y005979D02*
X043678Y005979D01*
X043481Y005997D02*
X043323Y005997D01*
X043481Y005997D02*
X043481Y005799D01*
X043323Y005799D01*
X043323Y005997D01*
X043323Y005819D02*
X043481Y005819D01*
X043481Y005839D02*
X043323Y005839D01*
X043323Y005859D02*
X043481Y005859D01*
X043481Y005879D02*
X043323Y005879D01*
X043323Y005899D02*
X043481Y005899D01*
X043481Y005919D02*
X043323Y005919D01*
X043323Y005939D02*
X043481Y005939D01*
X043481Y005959D02*
X043323Y005959D01*
X043323Y005979D02*
X043481Y005979D01*
X042000Y005575D02*
X042000Y005417D01*
X041802Y005417D01*
X041802Y005575D01*
X042000Y005575D01*
X042000Y005437D02*
X041802Y005437D01*
X041802Y005457D02*
X042000Y005457D01*
X042000Y005477D02*
X041802Y005477D01*
X041802Y005497D02*
X042000Y005497D01*
X042000Y005517D02*
X041802Y005517D01*
X041802Y005537D02*
X042000Y005537D01*
X042000Y005557D02*
X041802Y005557D01*
X042000Y005378D02*
X042000Y005220D01*
X041802Y005220D01*
X041802Y005378D01*
X042000Y005378D01*
X042000Y005240D02*
X041802Y005240D01*
X041802Y005260D02*
X042000Y005260D01*
X042000Y005280D02*
X041802Y005280D01*
X041802Y005300D02*
X042000Y005300D01*
X042000Y005320D02*
X041802Y005320D01*
X041802Y005340D02*
X042000Y005340D01*
X042000Y005360D02*
X041802Y005360D01*
X040000Y005378D02*
X040000Y005220D01*
X039802Y005220D01*
X039802Y005378D01*
X040000Y005378D01*
X040000Y005240D02*
X039802Y005240D01*
X039802Y005260D02*
X040000Y005260D01*
X040000Y005280D02*
X039802Y005280D01*
X039802Y005300D02*
X040000Y005300D01*
X040000Y005320D02*
X039802Y005320D01*
X039802Y005340D02*
X040000Y005340D01*
X040000Y005360D02*
X039802Y005360D01*
X040000Y005417D02*
X040000Y005575D01*
X040000Y005417D02*
X039802Y005417D01*
X039802Y005575D01*
X040000Y005575D01*
X040000Y005437D02*
X039802Y005437D01*
X039802Y005457D02*
X040000Y005457D01*
X040000Y005477D02*
X039802Y005477D01*
X039802Y005497D02*
X040000Y005497D01*
X040000Y005517D02*
X039802Y005517D01*
X039802Y005537D02*
X040000Y005537D01*
X040000Y005557D02*
X039802Y005557D01*
X038378Y008499D02*
X038220Y008499D01*
X038220Y008697D01*
X038378Y008697D01*
X038378Y008499D01*
X038378Y008519D02*
X038220Y008519D01*
X038220Y008539D02*
X038378Y008539D01*
X038378Y008559D02*
X038220Y008559D01*
X038220Y008579D02*
X038378Y008579D01*
X038378Y008599D02*
X038220Y008599D01*
X038220Y008619D02*
X038378Y008619D01*
X038378Y008639D02*
X038220Y008639D01*
X038220Y008659D02*
X038378Y008659D01*
X038378Y008679D02*
X038220Y008679D01*
X038181Y008499D02*
X038023Y008499D01*
X038023Y008697D01*
X038181Y008697D01*
X038181Y008499D01*
X038181Y008519D02*
X038023Y008519D01*
X038023Y008539D02*
X038181Y008539D01*
X038181Y008559D02*
X038023Y008559D01*
X038023Y008579D02*
X038181Y008579D01*
X038181Y008599D02*
X038023Y008599D01*
X038023Y008619D02*
X038181Y008619D01*
X038181Y008639D02*
X038023Y008639D01*
X038023Y008659D02*
X038181Y008659D01*
X038181Y008679D02*
X038023Y008679D01*
X039702Y009020D02*
X039702Y009178D01*
X039900Y009178D01*
X039900Y009020D01*
X039702Y009020D01*
X039702Y009040D02*
X039900Y009040D01*
X039900Y009060D02*
X039702Y009060D01*
X039702Y009080D02*
X039900Y009080D01*
X039900Y009100D02*
X039702Y009100D01*
X039702Y009120D02*
X039900Y009120D01*
X039900Y009140D02*
X039702Y009140D01*
X039702Y009160D02*
X039900Y009160D01*
X039702Y009217D02*
X039702Y009375D01*
X039900Y009375D01*
X039900Y009217D01*
X039702Y009217D01*
X039702Y009237D02*
X039900Y009237D01*
X039900Y009257D02*
X039702Y009257D01*
X039702Y009277D02*
X039900Y009277D01*
X039900Y009297D02*
X039702Y009297D01*
X039702Y009317D02*
X039900Y009317D01*
X039900Y009337D02*
X039702Y009337D01*
X039702Y009357D02*
X039900Y009357D01*
X041802Y009378D02*
X041802Y009220D01*
X041802Y009378D02*
X042000Y009378D01*
X042000Y009220D01*
X041802Y009220D01*
X041802Y009240D02*
X042000Y009240D01*
X042000Y009260D02*
X041802Y009260D01*
X041802Y009280D02*
X042000Y009280D01*
X042000Y009300D02*
X041802Y009300D01*
X041802Y009320D02*
X042000Y009320D01*
X042000Y009340D02*
X041802Y009340D01*
X041802Y009360D02*
X042000Y009360D01*
X041802Y009417D02*
X041802Y009575D01*
X042000Y009575D01*
X042000Y009417D01*
X041802Y009417D01*
X041802Y009437D02*
X042000Y009437D01*
X042000Y009457D02*
X041802Y009457D01*
X041802Y009477D02*
X042000Y009477D01*
X042000Y009497D02*
X041802Y009497D01*
X041802Y009517D02*
X042000Y009517D01*
X042000Y009537D02*
X041802Y009537D01*
X041802Y009557D02*
X042000Y009557D01*
X035378Y013549D02*
X035220Y013549D01*
X035220Y013747D01*
X035378Y013747D01*
X035378Y013549D01*
X035378Y013569D02*
X035220Y013569D01*
X035220Y013589D02*
X035378Y013589D01*
X035378Y013609D02*
X035220Y013609D01*
X035220Y013629D02*
X035378Y013629D01*
X035378Y013649D02*
X035220Y013649D01*
X035220Y013669D02*
X035378Y013669D01*
X035378Y013689D02*
X035220Y013689D01*
X035220Y013709D02*
X035378Y013709D01*
X035378Y013729D02*
X035220Y013729D01*
X035181Y013549D02*
X035023Y013549D01*
X035023Y013747D01*
X035181Y013747D01*
X035181Y013549D01*
X035181Y013569D02*
X035023Y013569D01*
X035023Y013589D02*
X035181Y013589D01*
X035181Y013609D02*
X035023Y013609D01*
X035023Y013629D02*
X035181Y013629D01*
X035181Y013649D02*
X035023Y013649D01*
X035023Y013669D02*
X035181Y013669D01*
X035181Y013689D02*
X035023Y013689D01*
X035023Y013709D02*
X035181Y013709D01*
X035181Y013729D02*
X035023Y013729D01*
X038350Y014270D02*
X038350Y014428D01*
X038350Y014270D02*
X038152Y014270D01*
X038152Y014428D01*
X038350Y014428D01*
X038350Y014290D02*
X038152Y014290D01*
X038152Y014310D02*
X038350Y014310D01*
X038350Y014330D02*
X038152Y014330D01*
X038152Y014350D02*
X038350Y014350D01*
X038350Y014370D02*
X038152Y014370D01*
X038152Y014390D02*
X038350Y014390D01*
X038350Y014410D02*
X038152Y014410D01*
X038350Y014467D02*
X038350Y014625D01*
X038350Y014467D02*
X038152Y014467D01*
X038152Y014625D01*
X038350Y014625D01*
X038350Y014487D02*
X038152Y014487D01*
X038152Y014507D02*
X038350Y014507D01*
X038350Y014527D02*
X038152Y014527D01*
X038152Y014547D02*
X038350Y014547D01*
X038350Y014567D02*
X038152Y014567D01*
X038152Y014587D02*
X038350Y014587D01*
X038350Y014607D02*
X038152Y014607D01*
X046623Y017147D02*
X046781Y017147D01*
X046781Y016949D01*
X046623Y016949D01*
X046623Y017147D01*
X046623Y016969D02*
X046781Y016969D01*
X046781Y016989D02*
X046623Y016989D01*
X046623Y017009D02*
X046781Y017009D01*
X046781Y017029D02*
X046623Y017029D01*
X046623Y017049D02*
X046781Y017049D01*
X046781Y017069D02*
X046623Y017069D01*
X046623Y017089D02*
X046781Y017089D01*
X046781Y017109D02*
X046623Y017109D01*
X046623Y017129D02*
X046781Y017129D01*
X046820Y017147D02*
X046978Y017147D01*
X046978Y016949D01*
X046820Y016949D01*
X046820Y017147D01*
X046820Y016969D02*
X046978Y016969D01*
X046978Y016989D02*
X046820Y016989D01*
X046820Y017009D02*
X046978Y017009D01*
X046978Y017029D02*
X046820Y017029D01*
X046820Y017049D02*
X046978Y017049D01*
X046978Y017069D02*
X046820Y017069D01*
X046820Y017089D02*
X046978Y017089D01*
X046978Y017109D02*
X046820Y017109D01*
X046820Y017129D02*
X046978Y017129D01*
X045302Y019120D02*
X045302Y019278D01*
X045500Y019278D01*
X045500Y019120D01*
X045302Y019120D01*
X045302Y019140D02*
X045500Y019140D01*
X045500Y019160D02*
X045302Y019160D01*
X045302Y019180D02*
X045500Y019180D01*
X045500Y019200D02*
X045302Y019200D01*
X045302Y019220D02*
X045500Y019220D01*
X045500Y019240D02*
X045302Y019240D01*
X045302Y019260D02*
X045500Y019260D01*
X045302Y019317D02*
X045302Y019475D01*
X045500Y019475D01*
X045500Y019317D01*
X045302Y019317D01*
X045302Y019337D02*
X045500Y019337D01*
X045500Y019357D02*
X045302Y019357D01*
X045302Y019377D02*
X045500Y019377D01*
X045500Y019397D02*
X045302Y019397D01*
X045302Y019417D02*
X045500Y019417D01*
X045500Y019437D02*
X045302Y019437D01*
X045302Y019457D02*
X045500Y019457D01*
X044452Y019475D02*
X044452Y019317D01*
X044452Y019475D02*
X044650Y019475D01*
X044650Y019317D01*
X044452Y019317D01*
X044452Y019337D02*
X044650Y019337D01*
X044650Y019357D02*
X044452Y019357D01*
X044452Y019377D02*
X044650Y019377D01*
X044650Y019397D02*
X044452Y019397D01*
X044452Y019417D02*
X044650Y019417D01*
X044650Y019437D02*
X044452Y019437D01*
X044452Y019457D02*
X044650Y019457D01*
X044452Y019278D02*
X044452Y019120D01*
X044452Y019278D02*
X044650Y019278D01*
X044650Y019120D01*
X044452Y019120D01*
X044452Y019140D02*
X044650Y019140D01*
X044650Y019160D02*
X044452Y019160D01*
X044452Y019180D02*
X044650Y019180D01*
X044650Y019200D02*
X044452Y019200D01*
X044452Y019220D02*
X044650Y019220D01*
X044650Y019240D02*
X044452Y019240D01*
X044452Y019260D02*
X044650Y019260D01*
X012528Y007997D02*
X012370Y007997D01*
X012528Y007997D02*
X012528Y007799D01*
X012370Y007799D01*
X012370Y007997D01*
X012370Y007819D02*
X012528Y007819D01*
X012528Y007839D02*
X012370Y007839D01*
X012370Y007859D02*
X012528Y007859D01*
X012528Y007879D02*
X012370Y007879D01*
X012370Y007899D02*
X012528Y007899D01*
X012528Y007919D02*
X012370Y007919D01*
X012370Y007939D02*
X012528Y007939D01*
X012528Y007959D02*
X012370Y007959D01*
X012370Y007979D02*
X012528Y007979D01*
X012331Y007997D02*
X012173Y007997D01*
X012331Y007997D02*
X012331Y007799D01*
X012173Y007799D01*
X012173Y007997D01*
X012173Y007819D02*
X012331Y007819D01*
X012331Y007839D02*
X012173Y007839D01*
X012173Y007859D02*
X012331Y007859D01*
X012331Y007879D02*
X012173Y007879D01*
X012173Y007899D02*
X012331Y007899D01*
X012331Y007919D02*
X012173Y007919D01*
X012173Y007939D02*
X012331Y007939D01*
X012331Y007959D02*
X012173Y007959D01*
X012173Y007979D02*
X012331Y007979D01*
X010050Y007917D02*
X010050Y008075D01*
X010050Y007917D02*
X009852Y007917D01*
X009852Y008075D01*
X010050Y008075D01*
X010050Y007937D02*
X009852Y007937D01*
X009852Y007957D02*
X010050Y007957D01*
X010050Y007977D02*
X009852Y007977D01*
X009852Y007997D02*
X010050Y007997D01*
X010050Y008017D02*
X009852Y008017D01*
X009852Y008037D02*
X010050Y008037D01*
X010050Y008057D02*
X009852Y008057D01*
X010050Y007878D02*
X010050Y007720D01*
X009852Y007720D01*
X009852Y007878D01*
X010050Y007878D01*
X010050Y007740D02*
X009852Y007740D01*
X009852Y007760D02*
X010050Y007760D01*
X010050Y007780D02*
X009852Y007780D01*
X009852Y007800D02*
X010050Y007800D01*
X010050Y007820D02*
X009852Y007820D01*
X009852Y007840D02*
X010050Y007840D01*
X010050Y007860D02*
X009852Y007860D01*
X009028Y004749D02*
X008870Y004749D01*
X008870Y004947D01*
X009028Y004947D01*
X009028Y004749D01*
X009028Y004769D02*
X008870Y004769D01*
X008870Y004789D02*
X009028Y004789D01*
X009028Y004809D02*
X008870Y004809D01*
X008870Y004829D02*
X009028Y004829D01*
X009028Y004849D02*
X008870Y004849D01*
X008870Y004869D02*
X009028Y004869D01*
X009028Y004889D02*
X008870Y004889D01*
X008870Y004909D02*
X009028Y004909D01*
X009028Y004929D02*
X008870Y004929D01*
X008831Y004749D02*
X008673Y004749D01*
X008673Y004947D01*
X008831Y004947D01*
X008831Y004749D01*
X008831Y004769D02*
X008673Y004769D01*
X008673Y004789D02*
X008831Y004789D01*
X008831Y004809D02*
X008673Y004809D01*
X008673Y004829D02*
X008831Y004829D01*
X008831Y004849D02*
X008673Y004849D01*
X008673Y004869D02*
X008831Y004869D01*
X008831Y004889D02*
X008673Y004889D01*
X008673Y004909D02*
X008831Y004909D01*
X008831Y004929D02*
X008673Y004929D01*
X007828Y012449D02*
X007670Y012449D01*
X007670Y012647D01*
X007828Y012647D01*
X007828Y012449D01*
X007828Y012469D02*
X007670Y012469D01*
X007670Y012489D02*
X007828Y012489D01*
X007828Y012509D02*
X007670Y012509D01*
X007670Y012529D02*
X007828Y012529D01*
X007828Y012549D02*
X007670Y012549D01*
X007670Y012569D02*
X007828Y012569D01*
X007828Y012589D02*
X007670Y012589D01*
X007670Y012609D02*
X007828Y012609D01*
X007828Y012629D02*
X007670Y012629D01*
X007631Y012449D02*
X007473Y012449D01*
X007473Y012647D01*
X007631Y012647D01*
X007631Y012449D01*
X007631Y012469D02*
X007473Y012469D01*
X007473Y012489D02*
X007631Y012489D01*
X007631Y012509D02*
X007473Y012509D01*
X007473Y012529D02*
X007631Y012529D01*
X007631Y012549D02*
X007473Y012549D01*
X007473Y012569D02*
X007631Y012569D01*
X007631Y012589D02*
X007473Y012589D01*
X007473Y012609D02*
X007631Y012609D01*
X007631Y012629D02*
X007473Y012629D01*
X010173Y012999D02*
X010331Y012999D01*
X010173Y012999D02*
X010173Y013197D01*
X010331Y013197D01*
X010331Y012999D01*
X010331Y013019D02*
X010173Y013019D01*
X010173Y013039D02*
X010331Y013039D01*
X010331Y013059D02*
X010173Y013059D01*
X010173Y013079D02*
X010331Y013079D01*
X010331Y013099D02*
X010173Y013099D01*
X010173Y013119D02*
X010331Y013119D01*
X010331Y013139D02*
X010173Y013139D01*
X010173Y013159D02*
X010331Y013159D01*
X010331Y013179D02*
X010173Y013179D01*
X010173Y013299D02*
X010331Y013299D01*
X010173Y013299D02*
X010173Y013497D01*
X010331Y013497D01*
X010331Y013299D01*
X010331Y013319D02*
X010173Y013319D01*
X010173Y013339D02*
X010331Y013339D01*
X010331Y013359D02*
X010173Y013359D01*
X010173Y013379D02*
X010331Y013379D01*
X010331Y013399D02*
X010173Y013399D01*
X010173Y013419D02*
X010331Y013419D01*
X010331Y013439D02*
X010173Y013439D01*
X010173Y013459D02*
X010331Y013459D01*
X010331Y013479D02*
X010173Y013479D01*
X010370Y013299D02*
X010528Y013299D01*
X010370Y013299D02*
X010370Y013497D01*
X010528Y013497D01*
X010528Y013299D01*
X010528Y013319D02*
X010370Y013319D01*
X010370Y013339D02*
X010528Y013339D01*
X010528Y013359D02*
X010370Y013359D01*
X010370Y013379D02*
X010528Y013379D01*
X010528Y013399D02*
X010370Y013399D01*
X010370Y013419D02*
X010528Y013419D01*
X010528Y013439D02*
X010370Y013439D01*
X010370Y013459D02*
X010528Y013459D01*
X010528Y013479D02*
X010370Y013479D01*
X010370Y012999D02*
X010528Y012999D01*
X010370Y012999D02*
X010370Y013197D01*
X010528Y013197D01*
X010528Y012999D01*
X010528Y013019D02*
X010370Y013019D01*
X010370Y013039D02*
X010528Y013039D01*
X010528Y013059D02*
X010370Y013059D01*
X010370Y013079D02*
X010528Y013079D01*
X010528Y013099D02*
X010370Y013099D01*
X010370Y013119D02*
X010528Y013119D01*
X010528Y013139D02*
X010370Y013139D01*
X010370Y013159D02*
X010528Y013159D01*
X010528Y013179D02*
X010370Y013179D01*
D16*
X008699Y014553D03*
X008699Y014749D03*
X008699Y014946D03*
X008699Y015143D03*
X007203Y015143D03*
X007203Y014946D03*
X007203Y014749D03*
X007203Y014553D03*
D17*
X007655Y014100D03*
X007852Y014100D03*
X008049Y014100D03*
X008246Y014100D03*
X008246Y015596D03*
X008049Y015596D03*
X007852Y015596D03*
X007655Y015596D03*
D18*
X007951Y014848D03*
D19*
X024151Y013745D03*
X024151Y013351D03*
X029004Y009148D03*
X029397Y009148D03*
X032404Y009098D03*
X032797Y009098D03*
X034001Y013451D03*
X034001Y013845D03*
X043001Y017751D03*
X043001Y018145D03*
D20*
X037324Y017963D03*
X037068Y017963D03*
X036812Y017963D03*
X036556Y017963D03*
X036300Y017963D03*
X036044Y017963D03*
X035789Y017963D03*
X035533Y017963D03*
X035277Y017963D03*
X035021Y017963D03*
X035021Y020247D03*
X035277Y020247D03*
X035533Y020247D03*
X035789Y020247D03*
X036044Y020247D03*
X036300Y020247D03*
X036556Y020247D03*
X036812Y020247D03*
X037068Y020247D03*
X037324Y020247D03*
D21*
X039250Y019948D03*
X039451Y019948D03*
X039451Y021348D03*
X039250Y021348D03*
X039250Y022448D03*
X039451Y022448D03*
X037351Y017198D03*
X037150Y017198D03*
X036951Y017198D03*
X036750Y017198D03*
X042400Y017048D03*
X042601Y017048D03*
X044450Y016548D03*
X044651Y016548D03*
X035651Y013098D03*
X035450Y013098D03*
X035251Y013248D03*
X035050Y013248D03*
X035050Y012948D03*
X035251Y012948D03*
X038100Y008198D03*
X038301Y008198D03*
X038900Y008198D03*
X039101Y008198D03*
X042900Y006298D03*
X043101Y006298D03*
X043400Y006298D03*
X043601Y006298D03*
X043101Y005898D03*
X042900Y005898D03*
X046550Y008348D03*
X046751Y008348D03*
X046751Y008698D03*
X046550Y008698D03*
X046401Y009648D03*
X046200Y009648D03*
X011251Y008348D03*
X011050Y008348D03*
X007851Y013648D03*
X007650Y013648D03*
D22*
X035745Y016798D03*
X036257Y016798D03*
X036257Y017248D03*
X035745Y017248D03*
D23*
X035588Y022001D03*
X034801Y022001D03*
X034013Y022001D03*
X033226Y022001D03*
X032438Y022001D03*
X032438Y023694D03*
X033226Y023694D03*
X034013Y023694D03*
X034801Y023694D03*
X035588Y023694D03*
X036375Y023694D03*
X037163Y023694D03*
X037163Y022001D03*
X036375Y022001D03*
D24*
X036769Y022848D03*
X032832Y022848D03*
D25*
X040216Y010348D03*
X040885Y010348D03*
X037751Y006233D03*
X037751Y005563D03*
X010801Y009763D03*
X010801Y010433D03*
D26*
X044576Y017523D02*
X044576Y018273D01*
X045326Y018273D01*
X045326Y017648D01*
X045201Y017523D01*
X044576Y017523D01*
X044576Y017591D02*
X045269Y017591D01*
X045326Y017690D02*
X044576Y017690D01*
X044576Y017788D02*
X045326Y017788D01*
X045326Y017887D02*
X044576Y017887D01*
X044576Y017985D02*
X045326Y017985D01*
X045326Y018084D02*
X044576Y018084D01*
X044576Y018182D02*
X045326Y018182D01*
D27*
X045630Y018282D03*
X045630Y018026D03*
X045630Y017770D03*
X045630Y017514D03*
X044271Y017514D03*
X044271Y017770D03*
X044271Y018026D03*
X044271Y018282D03*
D28*
X044567Y018577D03*
X044823Y018577D03*
X045079Y018577D03*
X045334Y018577D03*
X045334Y017219D03*
X045079Y017219D03*
X044823Y017219D03*
X044567Y017219D03*
D29*
X047158Y018636D03*
X047158Y018892D03*
X047158Y019148D03*
X047158Y019404D03*
X047158Y019660D03*
D30*
X048280Y020624D03*
X048280Y017672D03*
D31*
X048280Y018695D03*
X048280Y019601D03*
D32*
X045151Y019198D03*
X045151Y018998D03*
X044801Y018998D03*
X044801Y019198D03*
X041651Y020198D03*
X041651Y020398D03*
X045051Y016748D03*
X045051Y016548D03*
X045951Y016548D03*
X045951Y016748D03*
X039551Y013748D03*
X039551Y013548D03*
X039151Y013548D03*
X039151Y013748D03*
X034951Y010998D03*
X034951Y010798D03*
X034714Y009743D03*
X034714Y009542D03*
X039501Y009298D03*
X039501Y009098D03*
X040301Y009548D03*
X040301Y009748D03*
X040601Y009748D03*
X040601Y009548D03*
X039901Y008648D03*
X039901Y008448D03*
X041801Y008448D03*
X041801Y008648D03*
X042201Y009298D03*
X042201Y009498D03*
X041901Y010648D03*
X041901Y010848D03*
X041801Y006048D03*
X041801Y005848D03*
X042201Y005498D03*
X042201Y005298D03*
X042601Y005898D03*
X042601Y006098D03*
X039901Y006048D03*
X039901Y005848D03*
X039501Y005498D03*
X039501Y005298D03*
X041751Y004248D03*
X041751Y004048D03*
X011201Y005148D03*
X011201Y005348D03*
X010751Y005348D03*
X010751Y005148D03*
X007251Y007298D03*
X007251Y007498D03*
D33*
X036459Y014346D03*
X037600Y014346D03*
X037600Y015291D03*
X036459Y015291D03*
D34*
X035334Y015794D03*
X035079Y015794D03*
X034823Y015794D03*
X034567Y015794D03*
X034567Y014101D03*
X034823Y014101D03*
X035079Y014101D03*
X035334Y014101D03*
D35*
X012484Y007410D03*
X012229Y007410D03*
X011973Y007410D03*
X011717Y007410D03*
X011717Y006386D03*
X011973Y006386D03*
X012229Y006386D03*
X012484Y006386D03*
D36*
X009025Y006379D03*
X008651Y006379D03*
X008277Y006379D03*
X008277Y005316D03*
X008651Y005316D03*
X009025Y005316D03*
D37*
X035566Y011098D03*
X036235Y011098D03*
X040151Y004883D03*
X040151Y004213D03*
X040951Y004213D03*
X040951Y004883D03*
D38*
X039075Y017148D03*
X038327Y017148D03*
D39*
X035051Y005522D03*
X035051Y004774D03*
X043201Y002322D03*
X043201Y001574D03*
D40*
X004911Y005708D03*
X004911Y007448D03*
X004911Y009188D03*
X004911Y013858D03*
X004911Y015598D03*
X004911Y017338D03*
D41*
X007841Y008032D03*
X007841Y007776D03*
X007841Y007520D03*
X007841Y007264D03*
X009461Y007264D03*
X009461Y007520D03*
X009461Y007776D03*
X009461Y008032D03*
D42*
X044856Y012557D03*
X044856Y013738D03*
D43*
X047009Y015268D03*
X047009Y011028D03*
D44*
X039851Y011382D03*
X039851Y011914D03*
D45*
X042551Y012488D03*
X042551Y015008D03*
D46*
X046635Y016548D03*
X047166Y016548D03*
D47*
X005351Y002248D03*
X047351Y002248D03*
X047351Y024248D03*
X005351Y024248D03*
D48*
X042455Y016548D03*
X043046Y016548D03*
X043505Y016548D03*
X044096Y016548D03*
X045555Y020648D03*
X046146Y020648D03*
X046146Y021248D03*
X045555Y021248D03*
X045555Y021848D03*
X046146Y021848D03*
X046855Y009648D03*
X047446Y009648D03*
D49*
X047221Y008628D03*
X047221Y007648D03*
X047221Y006668D03*
D50*
X048251Y007058D03*
X048251Y008238D03*
D51*
X046115Y008242D03*
X046115Y008045D03*
X046115Y007848D03*
X046115Y007651D03*
X046115Y007454D03*
X045386Y007454D03*
X045386Y007651D03*
X045386Y007848D03*
X045386Y008045D03*
X045386Y008242D03*
D52*
X045751Y007848D03*
D53*
X043651Y021973D03*
X042651Y021973D03*
X041651Y021973D03*
X040651Y021973D03*
X040651Y023723D03*
X041651Y023723D03*
X042651Y023723D03*
X043651Y023723D03*
D54*
X043051Y007848D03*
X007251Y005248D03*
D55*
X005351Y004148D03*
X005351Y022348D03*
X045451Y024648D03*
X047951Y004148D03*
D56*
X047051Y004748D03*
X046751Y004748D03*
X046751Y005148D03*
X047051Y005148D03*
X045701Y005298D03*
X045401Y005298D03*
X044751Y005698D03*
X044851Y006648D03*
X044551Y006648D03*
X044151Y006648D03*
X043851Y006648D03*
X043401Y007150D03*
X043851Y007848D03*
X044151Y007848D03*
X044551Y007848D03*
X044851Y007848D03*
X045051Y008198D03*
X046451Y008048D03*
X046651Y007648D03*
X047201Y006998D03*
X045751Y006948D03*
X045151Y007398D03*
X046751Y008948D03*
X046451Y010148D03*
X044551Y010948D03*
X044551Y011348D03*
X044151Y011348D03*
X044151Y010948D03*
X043751Y010948D03*
X043751Y011348D03*
X042701Y011598D03*
X042401Y011598D03*
X042401Y010798D03*
X042701Y010798D03*
X042851Y009998D03*
X042551Y009998D03*
X041901Y009748D03*
X041251Y009348D03*
X040851Y009748D03*
X040601Y009298D03*
X040701Y008948D03*
X041051Y008898D03*
X042201Y008788D03*
X042951Y008858D03*
X042951Y009148D03*
X042351Y008148D03*
X041251Y008048D03*
X040851Y008048D03*
X040451Y008048D03*
X040451Y007448D03*
X040851Y007448D03*
X041251Y007448D03*
X041251Y007048D03*
X040851Y007048D03*
X040451Y007048D03*
X040451Y006548D03*
X040851Y006548D03*
X041251Y006548D03*
X042101Y005998D03*
X042201Y005698D03*
X042951Y005598D03*
X042951Y005298D03*
X042001Y004998D03*
X041451Y005348D03*
X040851Y005298D03*
X040261Y005248D03*
X039501Y005098D03*
X039751Y004548D03*
X039101Y004498D03*
X038801Y004498D03*
X039501Y003948D03*
X039201Y003848D03*
X038801Y003498D03*
X038501Y003498D03*
X037751Y003548D03*
X037351Y003548D03*
X036951Y003548D03*
X035551Y003848D03*
X035151Y003848D03*
X034751Y003848D03*
X033851Y003848D03*
X033451Y003848D03*
X033051Y003848D03*
X033051Y003348D03*
X033451Y003348D03*
X033851Y003348D03*
X034751Y004248D03*
X035151Y004248D03*
X035551Y004248D03*
X035551Y005398D03*
X035551Y005798D03*
X034451Y006548D03*
X033251Y006348D03*
X033251Y005998D03*
X032851Y006348D03*
X032451Y006348D03*
X033251Y005598D03*
X033251Y005198D03*
X033251Y004848D03*
X032851Y004848D03*
X032451Y004848D03*
X036851Y006648D03*
X037151Y006648D03*
X037551Y006648D03*
X036851Y007248D03*
X036851Y007848D03*
X037151Y007848D03*
X037551Y007848D03*
X037851Y007848D03*
X038301Y007346D03*
X036351Y007848D03*
X038751Y008848D03*
X038751Y009148D03*
X039501Y008798D03*
X039101Y009998D03*
X038801Y009998D03*
X038351Y010148D03*
X036851Y010448D03*
X036451Y010448D03*
X035901Y010498D03*
X035501Y010348D03*
X035501Y010048D03*
X035651Y009698D03*
X035951Y009698D03*
X036451Y009748D03*
X036851Y009748D03*
X036601Y011098D03*
X036851Y011448D03*
X036351Y011948D03*
X035701Y012198D03*
X034951Y012448D03*
X034301Y012698D03*
X034851Y012948D03*
X034851Y013248D03*
X034901Y013648D03*
X035501Y013648D03*
X035951Y013548D03*
X036201Y013848D03*
X035851Y013098D03*
X034251Y013498D03*
X034251Y013798D03*
X032651Y013548D03*
X032351Y013448D03*
X031851Y013248D03*
X031301Y013248D03*
X031151Y012648D03*
X031151Y012298D03*
X031551Y012248D03*
X031951Y012248D03*
X032101Y011898D03*
X032451Y011798D03*
X032451Y011198D03*
X032101Y011098D03*
X031901Y010448D03*
X031301Y010448D03*
X030901Y010548D03*
X030351Y010548D03*
X029851Y010548D03*
X029451Y010548D03*
X029101Y010548D03*
X028701Y010548D03*
X028001Y010548D03*
X025451Y010948D03*
X025451Y011948D03*
X025451Y012548D03*
X025451Y012898D03*
X025551Y013698D03*
X025601Y013998D03*
X025601Y014348D03*
X025451Y014798D03*
X025451Y015348D03*
X025451Y016698D03*
X025651Y017148D03*
X025311Y017498D03*
X025601Y017648D03*
X025951Y017648D03*
X026351Y017648D03*
X026951Y017648D03*
X027951Y017648D03*
X028551Y017648D03*
X029351Y017648D03*
X029951Y017648D03*
X030751Y017648D03*
X031501Y017648D03*
X032101Y017648D03*
X032501Y017648D03*
X032651Y016948D03*
X032651Y016398D03*
X032651Y015798D03*
X032651Y015148D03*
X032051Y014748D03*
X032351Y014248D03*
X032651Y014148D03*
X032751Y012948D03*
X031951Y012648D03*
X031551Y012648D03*
X034701Y011448D03*
X034701Y010698D03*
X034701Y010348D03*
X034701Y010048D03*
X032801Y008848D03*
X032401Y008848D03*
X032051Y008848D03*
X031651Y008848D03*
X031551Y009248D03*
X031851Y008348D03*
X031851Y007948D03*
X029401Y008898D03*
X029001Y008898D03*
X026201Y008448D03*
X025801Y008748D03*
X020851Y012118D03*
X020851Y012418D03*
X019001Y012998D03*
X018701Y012998D03*
X018701Y014298D03*
X019001Y014298D03*
X020861Y014878D03*
X020861Y015178D03*
X023951Y013698D03*
X023951Y013398D03*
X016351Y013398D03*
X016351Y012948D03*
X015901Y012948D03*
X015901Y013398D03*
X015401Y013398D03*
X015401Y012948D03*
X014951Y012948D03*
X014951Y013398D03*
X014951Y013898D03*
X015401Y013898D03*
X015901Y013898D03*
X016351Y013898D03*
X016351Y014348D03*
X015901Y014348D03*
X015401Y014348D03*
X014951Y014348D03*
X013101Y014298D03*
X012801Y014298D03*
X012051Y014298D03*
X012051Y014598D03*
X012051Y015098D03*
X012051Y015398D03*
X012551Y015498D03*
X013851Y016148D03*
X010951Y015448D03*
X010401Y015648D03*
X010401Y015948D03*
X010401Y016448D03*
X010401Y016748D03*
X009401Y016898D03*
X009351Y018248D03*
X009751Y018248D03*
X012341Y018848D03*
X012651Y018848D03*
X013951Y018848D03*
X014251Y018848D03*
X012801Y019648D03*
X012351Y019998D03*
X012051Y019998D03*
X011751Y019998D03*
X010951Y020048D03*
X010651Y020048D03*
X010351Y020048D03*
X010331Y021048D03*
X010641Y021048D03*
X010951Y021048D03*
X011751Y021048D03*
X012051Y021048D03*
X012351Y021048D03*
X012601Y022148D03*
X011201Y024048D03*
X011451Y024448D03*
X006151Y022348D03*
X006051Y017548D03*
X006051Y017148D03*
X007651Y015148D03*
X008251Y015148D03*
X009051Y014748D03*
X009351Y014748D03*
X009651Y015098D03*
X008251Y014548D03*
X007651Y014548D03*
X006051Y014048D03*
X006051Y013648D03*
X007351Y012948D03*
X007951Y012948D03*
X005851Y011898D03*
X005451Y011898D03*
X005451Y010848D03*
X005851Y010848D03*
X006451Y010048D03*
X006851Y010048D03*
X006001Y009398D03*
X006451Y009048D03*
X006851Y009048D03*
X006001Y008998D03*
X007101Y008248D03*
X007151Y007748D03*
X007251Y007048D03*
X008301Y006798D03*
X010051Y006948D03*
X010251Y007248D03*
X010451Y007598D03*
X010801Y007598D03*
X010451Y008198D03*
X011001Y008648D03*
X011551Y008348D03*
X011801Y008748D03*
X012301Y008398D03*
X012701Y008398D03*
X013951Y008448D03*
X014251Y008448D03*
X016101Y008448D03*
X016401Y008448D03*
X018251Y008448D03*
X018551Y008448D03*
X013351Y010648D03*
X012751Y010248D03*
X012001Y010798D03*
X010401Y011348D03*
X010401Y011648D03*
X010401Y011948D03*
X010401Y012248D03*
X010851Y012648D03*
X012051Y012698D03*
X012051Y012998D03*
X012051Y013498D03*
X012051Y013798D03*
X010851Y013948D03*
X009651Y014398D03*
X012801Y012998D03*
X013101Y012998D03*
X012351Y011948D03*
X009851Y009748D03*
X009451Y009748D03*
X010801Y009448D03*
X010801Y006648D03*
X011701Y005998D03*
X011001Y005548D03*
X011951Y004848D03*
X012251Y004548D03*
X012451Y005348D03*
X012851Y005348D03*
X009251Y004548D03*
X008451Y004548D03*
X006551Y004148D03*
X006001Y005498D03*
X006001Y005898D03*
X016101Y018848D03*
X016401Y018848D03*
X018251Y018748D03*
X018551Y018748D03*
X026001Y018748D03*
X029001Y019348D03*
X029401Y019348D03*
X031401Y020698D03*
X031651Y021248D03*
X031951Y021648D03*
X032601Y021148D03*
X033001Y020848D03*
X033051Y020048D03*
X032851Y019748D03*
X032601Y019348D03*
X032351Y018998D03*
X033251Y019248D03*
X033851Y018848D03*
X034151Y017898D03*
X033851Y017448D03*
X035951Y018548D03*
X036301Y018598D03*
X036601Y018448D03*
X036901Y018598D03*
X037801Y018648D03*
X036551Y019548D03*
X035951Y019548D03*
X035251Y019748D03*
X034401Y019698D03*
X034401Y020298D03*
X034801Y020698D03*
X035501Y021298D03*
X036551Y021298D03*
X037151Y021298D03*
X038251Y021948D03*
X038251Y022448D03*
X038751Y022448D03*
X038751Y022948D03*
X038251Y022948D03*
X038251Y023548D03*
X038751Y023548D03*
X037551Y023648D03*
X034751Y022698D03*
X032051Y023648D03*
X037551Y020298D03*
X038851Y019798D03*
X039351Y020498D03*
X039051Y020748D03*
X039701Y020748D03*
X040151Y020498D03*
X040501Y020798D03*
X042651Y021048D03*
X042951Y020448D03*
X044551Y019598D03*
X044851Y019398D03*
X045401Y019598D03*
X045801Y018898D03*
X046051Y018548D03*
X045151Y018098D03*
X044751Y018098D03*
X044751Y017698D03*
X043851Y017148D03*
X044651Y016848D03*
X045651Y016948D03*
X046451Y017048D03*
X046451Y016548D03*
X047851Y016248D03*
X045151Y014148D03*
X045551Y013948D03*
X045951Y013948D03*
X045951Y013548D03*
X045551Y013548D03*
X044551Y014148D03*
X043651Y015348D03*
X042951Y015648D03*
X042551Y015648D03*
X042151Y015648D03*
X041751Y015348D03*
X039851Y015048D03*
X038651Y014748D03*
X038651Y014148D03*
X039351Y013948D03*
X041351Y013898D03*
X041701Y013898D03*
X041701Y013548D03*
X041351Y013548D03*
X041351Y012748D03*
X041651Y012748D03*
X041651Y012348D03*
X041351Y012348D03*
X040251Y011448D03*
X040051Y011148D03*
X039651Y011148D03*
X039451Y011448D03*
X041301Y010698D03*
X039851Y010448D03*
X044651Y012148D03*
X045151Y012148D03*
X045551Y012348D03*
X045951Y012348D03*
X045951Y012748D03*
X045551Y012748D03*
X046051Y011698D03*
X039551Y016348D03*
X039551Y016648D03*
X039551Y016948D03*
X039551Y017248D03*
X040101Y017148D03*
X039251Y016648D03*
X039251Y016348D03*
X038951Y016348D03*
X038951Y016648D03*
X037851Y016848D03*
X037851Y017148D03*
X037101Y016948D03*
X036401Y016798D03*
X036401Y017248D03*
X034051Y016248D03*
X033801Y015698D03*
X034051Y015348D03*
X033851Y015048D03*
X035051Y015298D03*
X035451Y015298D03*
X036051Y015348D03*
X041551Y018348D03*
X041951Y018348D03*
X041951Y018748D03*
X041551Y018748D03*
X041551Y019148D03*
X041951Y019148D03*
X043551Y019048D03*
X044251Y018948D03*
X043001Y018348D03*
X042951Y017548D03*
X042751Y017048D03*
X047351Y019898D03*
X046451Y020648D03*
X046451Y021248D03*
X046451Y021848D03*
X045101Y021548D03*
X043051Y023148D03*
X043251Y023648D03*
X045451Y023848D03*
X039501Y005708D03*
X038751Y005638D03*
X038751Y005348D03*
X040601Y003898D03*
X040951Y003898D03*
X041351Y003648D03*
X041351Y003198D03*
X040951Y003198D03*
X040551Y003198D03*
X039201Y002798D03*
X038801Y002698D03*
X038501Y002698D03*
X040551Y001598D03*
X040951Y001598D03*
X041351Y001598D03*
X042651Y002198D03*
X042651Y002598D03*
X042351Y003648D03*
X042001Y003898D03*
X041401Y004448D03*
X042601Y004498D03*
X042901Y004498D03*
X043651Y004448D03*
X045401Y004498D03*
X045701Y004498D03*
X045701Y003998D03*
X045401Y003998D03*
X045401Y003198D03*
X045701Y003198D03*
X044251Y001748D03*
X043951Y001748D03*
X043651Y001748D03*
X043651Y001348D03*
X043951Y001348D03*
X044251Y001348D03*
D57*
X045251Y001548D03*
X046951Y004148D03*
X037051Y003048D03*
X032351Y008148D03*
X041651Y017648D03*
X010351Y023748D03*
X008851Y023748D03*
X008851Y021748D03*
X007351Y021748D03*
X007351Y020248D03*
X008851Y020248D03*
X005851Y020248D03*
M02*
