G75*
%MOIN*%
%OFA0B0*%
%FSLAX24Y24*%
%IPPOS*%
%LPD*%
%AMOC8*
5,1,8,0,0,1.08239X$1,22.5*
%
%ADD10R,0.0472X0.0315*%
%ADD11C,0.0009*%
%ADD12R,0.0157X0.0354*%
%ADD13R,0.0315X0.0472*%
%ADD14R,0.0197X0.0197*%
%ADD15R,0.0433X0.0394*%
%ADD16R,0.0394X0.0433*%
%ADD17R,0.0169X0.0110*%
%ADD18R,0.0276X0.0098*%
%ADD19R,0.0098X0.0276*%
%ADD20R,0.1240X0.2028*%
%ADD21R,0.0591X0.0472*%
%ADD22R,0.0472X0.0591*%
%ADD23R,0.1098X0.0754*%
%ADD24R,0.3346X0.3780*%
%ADD25R,0.0394X0.1339*%
%ADD26R,0.0590X0.0390*%
%ADD27R,0.0590X0.1290*%
%ADD28R,0.0110X0.0169*%
%ADD29R,0.1900X0.0900*%
%ADD30R,0.0984X0.0591*%
%ADD31R,0.0276X0.0256*%
%ADD32C,0.0240*%
%ADD33C,0.0080*%
%ADD34C,0.0100*%
%ADD35C,0.0660*%
%ADD36C,0.0240*%
%ADD37C,0.0300*%
%ADD38C,0.0120*%
%ADD39C,0.0200*%
%ADD40C,0.0250*%
%ADD41C,0.0350*%
%ADD42C,0.0060*%
%ADD43C,0.0150*%
D10*
X012951Y013294D03*
X012951Y014002D03*
X018851Y014002D03*
X018851Y013294D03*
X035101Y010102D03*
X035101Y009394D03*
D11*
X031714Y010155D02*
X031644Y010155D01*
X031644Y010541D01*
X031714Y010541D01*
X031714Y010155D01*
X031714Y010163D02*
X031644Y010163D01*
X031644Y010171D02*
X031714Y010171D01*
X031714Y010179D02*
X031644Y010179D01*
X031644Y010187D02*
X031714Y010187D01*
X031714Y010195D02*
X031644Y010195D01*
X031644Y010203D02*
X031714Y010203D01*
X031714Y010211D02*
X031644Y010211D01*
X031644Y010219D02*
X031714Y010219D01*
X031714Y010227D02*
X031644Y010227D01*
X031644Y010235D02*
X031714Y010235D01*
X031714Y010243D02*
X031644Y010243D01*
X031644Y010251D02*
X031714Y010251D01*
X031714Y010259D02*
X031644Y010259D01*
X031644Y010267D02*
X031714Y010267D01*
X031714Y010275D02*
X031644Y010275D01*
X031644Y010283D02*
X031714Y010283D01*
X031714Y010291D02*
X031644Y010291D01*
X031644Y010299D02*
X031714Y010299D01*
X031714Y010307D02*
X031644Y010307D01*
X031644Y010315D02*
X031714Y010315D01*
X031714Y010323D02*
X031644Y010323D01*
X031644Y010331D02*
X031714Y010331D01*
X031714Y010339D02*
X031644Y010339D01*
X031644Y010347D02*
X031714Y010347D01*
X031714Y010355D02*
X031644Y010355D01*
X031644Y010363D02*
X031714Y010363D01*
X031714Y010371D02*
X031644Y010371D01*
X031644Y010379D02*
X031714Y010379D01*
X031714Y010387D02*
X031644Y010387D01*
X031644Y010395D02*
X031714Y010395D01*
X031714Y010403D02*
X031644Y010403D01*
X031644Y010411D02*
X031714Y010411D01*
X031714Y010419D02*
X031644Y010419D01*
X031644Y010427D02*
X031714Y010427D01*
X031714Y010435D02*
X031644Y010435D01*
X031644Y010443D02*
X031714Y010443D01*
X031714Y010451D02*
X031644Y010451D01*
X031644Y010459D02*
X031714Y010459D01*
X031714Y010467D02*
X031644Y010467D01*
X031644Y010475D02*
X031714Y010475D01*
X031714Y010483D02*
X031644Y010483D01*
X031644Y010491D02*
X031714Y010491D01*
X031714Y010499D02*
X031644Y010499D01*
X031644Y010507D02*
X031714Y010507D01*
X031714Y010515D02*
X031644Y010515D01*
X031644Y010523D02*
X031714Y010523D01*
X031714Y010531D02*
X031644Y010531D01*
X031644Y010539D02*
X031714Y010539D01*
X031557Y010155D02*
X031487Y010155D01*
X031487Y010541D01*
X031557Y010541D01*
X031557Y010155D01*
X031557Y010163D02*
X031487Y010163D01*
X031487Y010171D02*
X031557Y010171D01*
X031557Y010179D02*
X031487Y010179D01*
X031487Y010187D02*
X031557Y010187D01*
X031557Y010195D02*
X031487Y010195D01*
X031487Y010203D02*
X031557Y010203D01*
X031557Y010211D02*
X031487Y010211D01*
X031487Y010219D02*
X031557Y010219D01*
X031557Y010227D02*
X031487Y010227D01*
X031487Y010235D02*
X031557Y010235D01*
X031557Y010243D02*
X031487Y010243D01*
X031487Y010251D02*
X031557Y010251D01*
X031557Y010259D02*
X031487Y010259D01*
X031487Y010267D02*
X031557Y010267D01*
X031557Y010275D02*
X031487Y010275D01*
X031487Y010283D02*
X031557Y010283D01*
X031557Y010291D02*
X031487Y010291D01*
X031487Y010299D02*
X031557Y010299D01*
X031557Y010307D02*
X031487Y010307D01*
X031487Y010315D02*
X031557Y010315D01*
X031557Y010323D02*
X031487Y010323D01*
X031487Y010331D02*
X031557Y010331D01*
X031557Y010339D02*
X031487Y010339D01*
X031487Y010347D02*
X031557Y010347D01*
X031557Y010355D02*
X031487Y010355D01*
X031487Y010363D02*
X031557Y010363D01*
X031557Y010371D02*
X031487Y010371D01*
X031487Y010379D02*
X031557Y010379D01*
X031557Y010387D02*
X031487Y010387D01*
X031487Y010395D02*
X031557Y010395D01*
X031557Y010403D02*
X031487Y010403D01*
X031487Y010411D02*
X031557Y010411D01*
X031557Y010419D02*
X031487Y010419D01*
X031487Y010427D02*
X031557Y010427D01*
X031557Y010435D02*
X031487Y010435D01*
X031487Y010443D02*
X031557Y010443D01*
X031557Y010451D02*
X031487Y010451D01*
X031487Y010459D02*
X031557Y010459D01*
X031557Y010467D02*
X031487Y010467D01*
X031487Y010475D02*
X031557Y010475D01*
X031557Y010483D02*
X031487Y010483D01*
X031487Y010491D02*
X031557Y010491D01*
X031557Y010499D02*
X031487Y010499D01*
X031487Y010507D02*
X031557Y010507D01*
X031557Y010515D02*
X031487Y010515D01*
X031487Y010523D02*
X031557Y010523D01*
X031557Y010531D02*
X031487Y010531D01*
X031487Y010539D02*
X031557Y010539D01*
X032358Y011384D02*
X032358Y011454D01*
X032744Y011454D01*
X032744Y011384D01*
X032358Y011384D01*
X032358Y011392D02*
X032744Y011392D01*
X032744Y011400D02*
X032358Y011400D01*
X032358Y011408D02*
X032744Y011408D01*
X032744Y011416D02*
X032358Y011416D01*
X032358Y011424D02*
X032744Y011424D01*
X032744Y011432D02*
X032358Y011432D01*
X032358Y011440D02*
X032744Y011440D01*
X032744Y011448D02*
X032358Y011448D01*
X032358Y011542D02*
X032358Y011612D01*
X032744Y011612D01*
X032744Y011542D01*
X032358Y011542D01*
X032358Y011550D02*
X032744Y011550D01*
X032744Y011558D02*
X032358Y011558D01*
X032358Y011566D02*
X032744Y011566D01*
X032744Y011574D02*
X032358Y011574D01*
X032358Y011582D02*
X032744Y011582D01*
X032744Y011590D02*
X032358Y011590D01*
X032358Y011598D02*
X032744Y011598D01*
X032744Y011606D02*
X032358Y011606D01*
X032944Y013734D02*
X032944Y013804D01*
X032944Y013734D02*
X032558Y013734D01*
X032558Y013804D01*
X032944Y013804D01*
X032944Y013742D02*
X032558Y013742D01*
X032558Y013750D02*
X032944Y013750D01*
X032944Y013758D02*
X032558Y013758D01*
X032558Y013766D02*
X032944Y013766D01*
X032944Y013774D02*
X032558Y013774D01*
X032558Y013782D02*
X032944Y013782D01*
X032944Y013790D02*
X032558Y013790D01*
X032558Y013798D02*
X032944Y013798D01*
X032944Y013892D02*
X032944Y013962D01*
X032944Y013892D02*
X032558Y013892D01*
X032558Y013962D01*
X032944Y013962D01*
X032944Y013900D02*
X032558Y013900D01*
X032558Y013908D02*
X032944Y013908D01*
X032944Y013916D02*
X032558Y013916D01*
X032558Y013924D02*
X032944Y013924D01*
X032944Y013932D02*
X032558Y013932D01*
X032558Y013940D02*
X032944Y013940D01*
X032944Y013948D02*
X032558Y013948D01*
X032558Y013956D02*
X032944Y013956D01*
X035087Y013605D02*
X035157Y013605D01*
X035087Y013605D02*
X035087Y013991D01*
X035157Y013991D01*
X035157Y013605D01*
X035157Y013613D02*
X035087Y013613D01*
X035087Y013621D02*
X035157Y013621D01*
X035157Y013629D02*
X035087Y013629D01*
X035087Y013637D02*
X035157Y013637D01*
X035157Y013645D02*
X035087Y013645D01*
X035087Y013653D02*
X035157Y013653D01*
X035157Y013661D02*
X035087Y013661D01*
X035087Y013669D02*
X035157Y013669D01*
X035157Y013677D02*
X035087Y013677D01*
X035087Y013685D02*
X035157Y013685D01*
X035157Y013693D02*
X035087Y013693D01*
X035087Y013701D02*
X035157Y013701D01*
X035157Y013709D02*
X035087Y013709D01*
X035087Y013717D02*
X035157Y013717D01*
X035157Y013725D02*
X035087Y013725D01*
X035087Y013733D02*
X035157Y013733D01*
X035157Y013741D02*
X035087Y013741D01*
X035087Y013749D02*
X035157Y013749D01*
X035157Y013757D02*
X035087Y013757D01*
X035087Y013765D02*
X035157Y013765D01*
X035157Y013773D02*
X035087Y013773D01*
X035087Y013781D02*
X035157Y013781D01*
X035157Y013789D02*
X035087Y013789D01*
X035087Y013797D02*
X035157Y013797D01*
X035157Y013805D02*
X035087Y013805D01*
X035087Y013813D02*
X035157Y013813D01*
X035157Y013821D02*
X035087Y013821D01*
X035087Y013829D02*
X035157Y013829D01*
X035157Y013837D02*
X035087Y013837D01*
X035087Y013845D02*
X035157Y013845D01*
X035157Y013853D02*
X035087Y013853D01*
X035087Y013861D02*
X035157Y013861D01*
X035157Y013869D02*
X035087Y013869D01*
X035087Y013877D02*
X035157Y013877D01*
X035157Y013885D02*
X035087Y013885D01*
X035087Y013893D02*
X035157Y013893D01*
X035157Y013901D02*
X035087Y013901D01*
X035087Y013909D02*
X035157Y013909D01*
X035157Y013917D02*
X035087Y013917D01*
X035087Y013925D02*
X035157Y013925D01*
X035157Y013933D02*
X035087Y013933D01*
X035087Y013941D02*
X035157Y013941D01*
X035157Y013949D02*
X035087Y013949D01*
X035087Y013957D02*
X035157Y013957D01*
X035157Y013965D02*
X035087Y013965D01*
X035087Y013973D02*
X035157Y013973D01*
X035157Y013981D02*
X035087Y013981D01*
X035087Y013989D02*
X035157Y013989D01*
X035244Y013605D02*
X035314Y013605D01*
X035244Y013605D02*
X035244Y013991D01*
X035314Y013991D01*
X035314Y013605D01*
X035314Y013613D02*
X035244Y013613D01*
X035244Y013621D02*
X035314Y013621D01*
X035314Y013629D02*
X035244Y013629D01*
X035244Y013637D02*
X035314Y013637D01*
X035314Y013645D02*
X035244Y013645D01*
X035244Y013653D02*
X035314Y013653D01*
X035314Y013661D02*
X035244Y013661D01*
X035244Y013669D02*
X035314Y013669D01*
X035314Y013677D02*
X035244Y013677D01*
X035244Y013685D02*
X035314Y013685D01*
X035314Y013693D02*
X035244Y013693D01*
X035244Y013701D02*
X035314Y013701D01*
X035314Y013709D02*
X035244Y013709D01*
X035244Y013717D02*
X035314Y013717D01*
X035314Y013725D02*
X035244Y013725D01*
X035244Y013733D02*
X035314Y013733D01*
X035314Y013741D02*
X035244Y013741D01*
X035244Y013749D02*
X035314Y013749D01*
X035314Y013757D02*
X035244Y013757D01*
X035244Y013765D02*
X035314Y013765D01*
X035314Y013773D02*
X035244Y013773D01*
X035244Y013781D02*
X035314Y013781D01*
X035314Y013789D02*
X035244Y013789D01*
X035244Y013797D02*
X035314Y013797D01*
X035314Y013805D02*
X035244Y013805D01*
X035244Y013813D02*
X035314Y013813D01*
X035314Y013821D02*
X035244Y013821D01*
X035244Y013829D02*
X035314Y013829D01*
X035314Y013837D02*
X035244Y013837D01*
X035244Y013845D02*
X035314Y013845D01*
X035314Y013853D02*
X035244Y013853D01*
X035244Y013861D02*
X035314Y013861D01*
X035314Y013869D02*
X035244Y013869D01*
X035244Y013877D02*
X035314Y013877D01*
X035314Y013885D02*
X035244Y013885D01*
X035244Y013893D02*
X035314Y013893D01*
X035314Y013901D02*
X035244Y013901D01*
X035244Y013909D02*
X035314Y013909D01*
X035314Y013917D02*
X035244Y013917D01*
X035244Y013925D02*
X035314Y013925D01*
X035314Y013933D02*
X035244Y013933D01*
X035244Y013941D02*
X035314Y013941D01*
X035314Y013949D02*
X035244Y013949D01*
X035244Y013957D02*
X035314Y013957D01*
X035314Y013965D02*
X035244Y013965D01*
X035244Y013973D02*
X035314Y013973D01*
X035314Y013981D02*
X035244Y013981D01*
X035244Y013989D02*
X035314Y013989D01*
X032944Y015984D02*
X032944Y016054D01*
X032944Y015984D02*
X032558Y015984D01*
X032558Y016054D01*
X032944Y016054D01*
X032944Y015992D02*
X032558Y015992D01*
X032558Y016000D02*
X032944Y016000D01*
X032944Y016008D02*
X032558Y016008D01*
X032558Y016016D02*
X032944Y016016D01*
X032944Y016024D02*
X032558Y016024D01*
X032558Y016032D02*
X032944Y016032D01*
X032944Y016040D02*
X032558Y016040D01*
X032558Y016048D02*
X032944Y016048D01*
X032944Y016142D02*
X032944Y016212D01*
X032944Y016142D02*
X032558Y016142D01*
X032558Y016212D01*
X032944Y016212D01*
X032944Y016150D02*
X032558Y016150D01*
X032558Y016158D02*
X032944Y016158D01*
X032944Y016166D02*
X032558Y016166D01*
X032558Y016174D02*
X032944Y016174D01*
X032944Y016182D02*
X032558Y016182D01*
X032558Y016190D02*
X032944Y016190D01*
X032944Y016198D02*
X032558Y016198D01*
X032558Y016206D02*
X032944Y016206D01*
X031914Y017941D02*
X031844Y017941D01*
X031914Y017941D02*
X031914Y017555D01*
X031844Y017555D01*
X031844Y017941D01*
X031844Y017563D02*
X031914Y017563D01*
X031914Y017571D02*
X031844Y017571D01*
X031844Y017579D02*
X031914Y017579D01*
X031914Y017587D02*
X031844Y017587D01*
X031844Y017595D02*
X031914Y017595D01*
X031914Y017603D02*
X031844Y017603D01*
X031844Y017611D02*
X031914Y017611D01*
X031914Y017619D02*
X031844Y017619D01*
X031844Y017627D02*
X031914Y017627D01*
X031914Y017635D02*
X031844Y017635D01*
X031844Y017643D02*
X031914Y017643D01*
X031914Y017651D02*
X031844Y017651D01*
X031844Y017659D02*
X031914Y017659D01*
X031914Y017667D02*
X031844Y017667D01*
X031844Y017675D02*
X031914Y017675D01*
X031914Y017683D02*
X031844Y017683D01*
X031844Y017691D02*
X031914Y017691D01*
X031914Y017699D02*
X031844Y017699D01*
X031844Y017707D02*
X031914Y017707D01*
X031914Y017715D02*
X031844Y017715D01*
X031844Y017723D02*
X031914Y017723D01*
X031914Y017731D02*
X031844Y017731D01*
X031844Y017739D02*
X031914Y017739D01*
X031914Y017747D02*
X031844Y017747D01*
X031844Y017755D02*
X031914Y017755D01*
X031914Y017763D02*
X031844Y017763D01*
X031844Y017771D02*
X031914Y017771D01*
X031914Y017779D02*
X031844Y017779D01*
X031844Y017787D02*
X031914Y017787D01*
X031914Y017795D02*
X031844Y017795D01*
X031844Y017803D02*
X031914Y017803D01*
X031914Y017811D02*
X031844Y017811D01*
X031844Y017819D02*
X031914Y017819D01*
X031914Y017827D02*
X031844Y017827D01*
X031844Y017835D02*
X031914Y017835D01*
X031914Y017843D02*
X031844Y017843D01*
X031844Y017851D02*
X031914Y017851D01*
X031914Y017859D02*
X031844Y017859D01*
X031844Y017867D02*
X031914Y017867D01*
X031914Y017875D02*
X031844Y017875D01*
X031844Y017883D02*
X031914Y017883D01*
X031914Y017891D02*
X031844Y017891D01*
X031844Y017899D02*
X031914Y017899D01*
X031914Y017907D02*
X031844Y017907D01*
X031844Y017915D02*
X031914Y017915D01*
X031914Y017923D02*
X031844Y017923D01*
X031844Y017931D02*
X031914Y017931D01*
X031914Y017939D02*
X031844Y017939D01*
X031757Y017941D02*
X031687Y017941D01*
X031757Y017941D02*
X031757Y017555D01*
X031687Y017555D01*
X031687Y017941D01*
X031687Y017563D02*
X031757Y017563D01*
X031757Y017571D02*
X031687Y017571D01*
X031687Y017579D02*
X031757Y017579D01*
X031757Y017587D02*
X031687Y017587D01*
X031687Y017595D02*
X031757Y017595D01*
X031757Y017603D02*
X031687Y017603D01*
X031687Y017611D02*
X031757Y017611D01*
X031757Y017619D02*
X031687Y017619D01*
X031687Y017627D02*
X031757Y017627D01*
X031757Y017635D02*
X031687Y017635D01*
X031687Y017643D02*
X031757Y017643D01*
X031757Y017651D02*
X031687Y017651D01*
X031687Y017659D02*
X031757Y017659D01*
X031757Y017667D02*
X031687Y017667D01*
X031687Y017675D02*
X031757Y017675D01*
X031757Y017683D02*
X031687Y017683D01*
X031687Y017691D02*
X031757Y017691D01*
X031757Y017699D02*
X031687Y017699D01*
X031687Y017707D02*
X031757Y017707D01*
X031757Y017715D02*
X031687Y017715D01*
X031687Y017723D02*
X031757Y017723D01*
X031757Y017731D02*
X031687Y017731D01*
X031687Y017739D02*
X031757Y017739D01*
X031757Y017747D02*
X031687Y017747D01*
X031687Y017755D02*
X031757Y017755D01*
X031757Y017763D02*
X031687Y017763D01*
X031687Y017771D02*
X031757Y017771D01*
X031757Y017779D02*
X031687Y017779D01*
X031687Y017787D02*
X031757Y017787D01*
X031757Y017795D02*
X031687Y017795D01*
X031687Y017803D02*
X031757Y017803D01*
X031757Y017811D02*
X031687Y017811D01*
X031687Y017819D02*
X031757Y017819D01*
X031757Y017827D02*
X031687Y017827D01*
X031687Y017835D02*
X031757Y017835D01*
X031757Y017843D02*
X031687Y017843D01*
X031687Y017851D02*
X031757Y017851D01*
X031757Y017859D02*
X031687Y017859D01*
X031687Y017867D02*
X031757Y017867D01*
X031757Y017875D02*
X031687Y017875D01*
X031687Y017883D02*
X031757Y017883D01*
X031757Y017891D02*
X031687Y017891D01*
X031687Y017899D02*
X031757Y017899D01*
X031757Y017907D02*
X031687Y017907D01*
X031687Y017915D02*
X031757Y017915D01*
X031757Y017923D02*
X031687Y017923D01*
X031687Y017931D02*
X031757Y017931D01*
X031757Y017939D02*
X031687Y017939D01*
X034208Y019884D02*
X034208Y019954D01*
X034594Y019954D01*
X034594Y019884D01*
X034208Y019884D01*
X034208Y019892D02*
X034594Y019892D01*
X034594Y019900D02*
X034208Y019900D01*
X034208Y019908D02*
X034594Y019908D01*
X034594Y019916D02*
X034208Y019916D01*
X034208Y019924D02*
X034594Y019924D01*
X034594Y019932D02*
X034208Y019932D01*
X034208Y019940D02*
X034594Y019940D01*
X034594Y019948D02*
X034208Y019948D01*
X034208Y020042D02*
X034208Y020112D01*
X034594Y020112D01*
X034594Y020042D01*
X034208Y020042D01*
X034208Y020050D02*
X034594Y020050D01*
X034594Y020058D02*
X034208Y020058D01*
X034208Y020066D02*
X034594Y020066D01*
X034594Y020074D02*
X034208Y020074D01*
X034208Y020082D02*
X034594Y020082D01*
X034594Y020090D02*
X034208Y020090D01*
X034208Y020098D02*
X034594Y020098D01*
X034594Y020106D02*
X034208Y020106D01*
X026764Y017555D02*
X026694Y017555D01*
X026694Y017941D01*
X026764Y017941D01*
X026764Y017555D01*
X026764Y017563D02*
X026694Y017563D01*
X026694Y017571D02*
X026764Y017571D01*
X026764Y017579D02*
X026694Y017579D01*
X026694Y017587D02*
X026764Y017587D01*
X026764Y017595D02*
X026694Y017595D01*
X026694Y017603D02*
X026764Y017603D01*
X026764Y017611D02*
X026694Y017611D01*
X026694Y017619D02*
X026764Y017619D01*
X026764Y017627D02*
X026694Y017627D01*
X026694Y017635D02*
X026764Y017635D01*
X026764Y017643D02*
X026694Y017643D01*
X026694Y017651D02*
X026764Y017651D01*
X026764Y017659D02*
X026694Y017659D01*
X026694Y017667D02*
X026764Y017667D01*
X026764Y017675D02*
X026694Y017675D01*
X026694Y017683D02*
X026764Y017683D01*
X026764Y017691D02*
X026694Y017691D01*
X026694Y017699D02*
X026764Y017699D01*
X026764Y017707D02*
X026694Y017707D01*
X026694Y017715D02*
X026764Y017715D01*
X026764Y017723D02*
X026694Y017723D01*
X026694Y017731D02*
X026764Y017731D01*
X026764Y017739D02*
X026694Y017739D01*
X026694Y017747D02*
X026764Y017747D01*
X026764Y017755D02*
X026694Y017755D01*
X026694Y017763D02*
X026764Y017763D01*
X026764Y017771D02*
X026694Y017771D01*
X026694Y017779D02*
X026764Y017779D01*
X026764Y017787D02*
X026694Y017787D01*
X026694Y017795D02*
X026764Y017795D01*
X026764Y017803D02*
X026694Y017803D01*
X026694Y017811D02*
X026764Y017811D01*
X026764Y017819D02*
X026694Y017819D01*
X026694Y017827D02*
X026764Y017827D01*
X026764Y017835D02*
X026694Y017835D01*
X026694Y017843D02*
X026764Y017843D01*
X026764Y017851D02*
X026694Y017851D01*
X026694Y017859D02*
X026764Y017859D01*
X026764Y017867D02*
X026694Y017867D01*
X026694Y017875D02*
X026764Y017875D01*
X026764Y017883D02*
X026694Y017883D01*
X026694Y017891D02*
X026764Y017891D01*
X026764Y017899D02*
X026694Y017899D01*
X026694Y017907D02*
X026764Y017907D01*
X026764Y017915D02*
X026694Y017915D01*
X026694Y017923D02*
X026764Y017923D01*
X026764Y017931D02*
X026694Y017931D01*
X026694Y017939D02*
X026764Y017939D01*
X026607Y017555D02*
X026537Y017555D01*
X026537Y017941D01*
X026607Y017941D01*
X026607Y017555D01*
X026607Y017563D02*
X026537Y017563D01*
X026537Y017571D02*
X026607Y017571D01*
X026607Y017579D02*
X026537Y017579D01*
X026537Y017587D02*
X026607Y017587D01*
X026607Y017595D02*
X026537Y017595D01*
X026537Y017603D02*
X026607Y017603D01*
X026607Y017611D02*
X026537Y017611D01*
X026537Y017619D02*
X026607Y017619D01*
X026607Y017627D02*
X026537Y017627D01*
X026537Y017635D02*
X026607Y017635D01*
X026607Y017643D02*
X026537Y017643D01*
X026537Y017651D02*
X026607Y017651D01*
X026607Y017659D02*
X026537Y017659D01*
X026537Y017667D02*
X026607Y017667D01*
X026607Y017675D02*
X026537Y017675D01*
X026537Y017683D02*
X026607Y017683D01*
X026607Y017691D02*
X026537Y017691D01*
X026537Y017699D02*
X026607Y017699D01*
X026607Y017707D02*
X026537Y017707D01*
X026537Y017715D02*
X026607Y017715D01*
X026607Y017723D02*
X026537Y017723D01*
X026537Y017731D02*
X026607Y017731D01*
X026607Y017739D02*
X026537Y017739D01*
X026537Y017747D02*
X026607Y017747D01*
X026607Y017755D02*
X026537Y017755D01*
X026537Y017763D02*
X026607Y017763D01*
X026607Y017771D02*
X026537Y017771D01*
X026537Y017779D02*
X026607Y017779D01*
X026607Y017787D02*
X026537Y017787D01*
X026537Y017795D02*
X026607Y017795D01*
X026607Y017803D02*
X026537Y017803D01*
X026537Y017811D02*
X026607Y017811D01*
X026607Y017819D02*
X026537Y017819D01*
X026537Y017827D02*
X026607Y017827D01*
X026607Y017835D02*
X026537Y017835D01*
X026537Y017843D02*
X026607Y017843D01*
X026607Y017851D02*
X026537Y017851D01*
X026537Y017859D02*
X026607Y017859D01*
X026607Y017867D02*
X026537Y017867D01*
X026537Y017875D02*
X026607Y017875D01*
X026607Y017883D02*
X026537Y017883D01*
X026537Y017891D02*
X026607Y017891D01*
X026607Y017899D02*
X026537Y017899D01*
X026537Y017907D02*
X026607Y017907D01*
X026607Y017915D02*
X026537Y017915D01*
X026537Y017923D02*
X026607Y017923D01*
X026607Y017931D02*
X026537Y017931D01*
X026537Y017939D02*
X026607Y017939D01*
X025544Y015162D02*
X025544Y015092D01*
X025158Y015092D01*
X025158Y015162D01*
X025544Y015162D01*
X025544Y015100D02*
X025158Y015100D01*
X025158Y015108D02*
X025544Y015108D01*
X025544Y015116D02*
X025158Y015116D01*
X025158Y015124D02*
X025544Y015124D01*
X025544Y015132D02*
X025158Y015132D01*
X025158Y015140D02*
X025544Y015140D01*
X025544Y015148D02*
X025158Y015148D01*
X025158Y015156D02*
X025544Y015156D01*
X025544Y015004D02*
X025544Y014934D01*
X025158Y014934D01*
X025158Y015004D01*
X025544Y015004D01*
X025544Y014942D02*
X025158Y014942D01*
X025158Y014950D02*
X025544Y014950D01*
X025544Y014958D02*
X025158Y014958D01*
X025158Y014966D02*
X025544Y014966D01*
X025544Y014974D02*
X025158Y014974D01*
X025158Y014982D02*
X025544Y014982D01*
X025544Y014990D02*
X025158Y014990D01*
X025158Y014998D02*
X025544Y014998D01*
X025158Y012362D02*
X025158Y012292D01*
X025158Y012362D02*
X025544Y012362D01*
X025544Y012292D01*
X025158Y012292D01*
X025158Y012300D02*
X025544Y012300D01*
X025544Y012308D02*
X025158Y012308D01*
X025158Y012316D02*
X025544Y012316D01*
X025544Y012324D02*
X025158Y012324D01*
X025158Y012332D02*
X025544Y012332D01*
X025544Y012340D02*
X025158Y012340D01*
X025158Y012348D02*
X025544Y012348D01*
X025544Y012356D02*
X025158Y012356D01*
X025158Y012204D02*
X025158Y012134D01*
X025158Y012204D02*
X025544Y012204D01*
X025544Y012134D01*
X025158Y012134D01*
X025158Y012142D02*
X025544Y012142D01*
X025544Y012150D02*
X025158Y012150D01*
X025158Y012158D02*
X025544Y012158D01*
X025544Y012166D02*
X025158Y012166D01*
X025158Y012174D02*
X025544Y012174D01*
X025544Y012182D02*
X025158Y012182D01*
X025158Y012190D02*
X025544Y012190D01*
X025544Y012198D02*
X025158Y012198D01*
X011844Y012734D02*
X011844Y012804D01*
X011844Y012734D02*
X011458Y012734D01*
X011458Y012804D01*
X011844Y012804D01*
X011844Y012742D02*
X011458Y012742D01*
X011458Y012750D02*
X011844Y012750D01*
X011844Y012758D02*
X011458Y012758D01*
X011458Y012766D02*
X011844Y012766D01*
X011844Y012774D02*
X011458Y012774D01*
X011458Y012782D02*
X011844Y012782D01*
X011844Y012790D02*
X011458Y012790D01*
X011458Y012798D02*
X011844Y012798D01*
X011844Y012892D02*
X011844Y012962D01*
X011844Y012892D02*
X011458Y012892D01*
X011458Y012962D01*
X011844Y012962D01*
X011844Y012900D02*
X011458Y012900D01*
X011458Y012908D02*
X011844Y012908D01*
X011844Y012916D02*
X011458Y012916D01*
X011458Y012924D02*
X011844Y012924D01*
X011844Y012932D02*
X011458Y012932D01*
X011458Y012940D02*
X011844Y012940D01*
X011844Y012948D02*
X011458Y012948D01*
X011458Y012956D02*
X011844Y012956D01*
X011844Y013534D02*
X011844Y013604D01*
X011844Y013534D02*
X011458Y013534D01*
X011458Y013604D01*
X011844Y013604D01*
X011844Y013542D02*
X011458Y013542D01*
X011458Y013550D02*
X011844Y013550D01*
X011844Y013558D02*
X011458Y013558D01*
X011458Y013566D02*
X011844Y013566D01*
X011844Y013574D02*
X011458Y013574D01*
X011458Y013582D02*
X011844Y013582D01*
X011844Y013590D02*
X011458Y013590D01*
X011458Y013598D02*
X011844Y013598D01*
X011844Y013692D02*
X011844Y013762D01*
X011844Y013692D02*
X011458Y013692D01*
X011458Y013762D01*
X011844Y013762D01*
X011844Y013700D02*
X011458Y013700D01*
X011458Y013708D02*
X011844Y013708D01*
X011844Y013716D02*
X011458Y013716D01*
X011458Y013724D02*
X011844Y013724D01*
X011844Y013732D02*
X011458Y013732D01*
X011458Y013740D02*
X011844Y013740D01*
X011844Y013748D02*
X011458Y013748D01*
X011458Y013756D02*
X011844Y013756D01*
X011844Y014334D02*
X011844Y014404D01*
X011844Y014334D02*
X011458Y014334D01*
X011458Y014404D01*
X011844Y014404D01*
X011844Y014342D02*
X011458Y014342D01*
X011458Y014350D02*
X011844Y014350D01*
X011844Y014358D02*
X011458Y014358D01*
X011458Y014366D02*
X011844Y014366D01*
X011844Y014374D02*
X011458Y014374D01*
X011458Y014382D02*
X011844Y014382D01*
X011844Y014390D02*
X011458Y014390D01*
X011458Y014398D02*
X011844Y014398D01*
X011844Y014492D02*
X011844Y014562D01*
X011844Y014492D02*
X011458Y014492D01*
X011458Y014562D01*
X011844Y014562D01*
X011844Y014500D02*
X011458Y014500D01*
X011458Y014508D02*
X011844Y014508D01*
X011844Y014516D02*
X011458Y014516D01*
X011458Y014524D02*
X011844Y014524D01*
X011844Y014532D02*
X011458Y014532D01*
X011458Y014540D02*
X011844Y014540D01*
X011844Y014548D02*
X011458Y014548D01*
X011458Y014556D02*
X011844Y014556D01*
X011844Y015084D02*
X011844Y015154D01*
X011844Y015084D02*
X011458Y015084D01*
X011458Y015154D01*
X011844Y015154D01*
X011844Y015092D02*
X011458Y015092D01*
X011458Y015100D02*
X011844Y015100D01*
X011844Y015108D02*
X011458Y015108D01*
X011458Y015116D02*
X011844Y015116D01*
X011844Y015124D02*
X011458Y015124D01*
X011458Y015132D02*
X011844Y015132D01*
X011844Y015140D02*
X011458Y015140D01*
X011458Y015148D02*
X011844Y015148D01*
X011844Y015242D02*
X011844Y015312D01*
X011844Y015242D02*
X011458Y015242D01*
X011458Y015312D01*
X011844Y015312D01*
X011844Y015250D02*
X011458Y015250D01*
X011458Y015258D02*
X011844Y015258D01*
X011844Y015266D02*
X011458Y015266D01*
X011458Y015274D02*
X011844Y015274D01*
X011844Y015282D02*
X011458Y015282D01*
X011458Y015290D02*
X011844Y015290D01*
X011844Y015298D02*
X011458Y015298D01*
X011458Y015306D02*
X011844Y015306D01*
X007764Y012755D02*
X007694Y012755D01*
X007694Y013141D01*
X007764Y013141D01*
X007764Y012755D01*
X007764Y012763D02*
X007694Y012763D01*
X007694Y012771D02*
X007764Y012771D01*
X007764Y012779D02*
X007694Y012779D01*
X007694Y012787D02*
X007764Y012787D01*
X007764Y012795D02*
X007694Y012795D01*
X007694Y012803D02*
X007764Y012803D01*
X007764Y012811D02*
X007694Y012811D01*
X007694Y012819D02*
X007764Y012819D01*
X007764Y012827D02*
X007694Y012827D01*
X007694Y012835D02*
X007764Y012835D01*
X007764Y012843D02*
X007694Y012843D01*
X007694Y012851D02*
X007764Y012851D01*
X007764Y012859D02*
X007694Y012859D01*
X007694Y012867D02*
X007764Y012867D01*
X007764Y012875D02*
X007694Y012875D01*
X007694Y012883D02*
X007764Y012883D01*
X007764Y012891D02*
X007694Y012891D01*
X007694Y012899D02*
X007764Y012899D01*
X007764Y012907D02*
X007694Y012907D01*
X007694Y012915D02*
X007764Y012915D01*
X007764Y012923D02*
X007694Y012923D01*
X007694Y012931D02*
X007764Y012931D01*
X007764Y012939D02*
X007694Y012939D01*
X007694Y012947D02*
X007764Y012947D01*
X007764Y012955D02*
X007694Y012955D01*
X007694Y012963D02*
X007764Y012963D01*
X007764Y012971D02*
X007694Y012971D01*
X007694Y012979D02*
X007764Y012979D01*
X007764Y012987D02*
X007694Y012987D01*
X007694Y012995D02*
X007764Y012995D01*
X007764Y013003D02*
X007694Y013003D01*
X007694Y013011D02*
X007764Y013011D01*
X007764Y013019D02*
X007694Y013019D01*
X007694Y013027D02*
X007764Y013027D01*
X007764Y013035D02*
X007694Y013035D01*
X007694Y013043D02*
X007764Y013043D01*
X007764Y013051D02*
X007694Y013051D01*
X007694Y013059D02*
X007764Y013059D01*
X007764Y013067D02*
X007694Y013067D01*
X007694Y013075D02*
X007764Y013075D01*
X007764Y013083D02*
X007694Y013083D01*
X007694Y013091D02*
X007764Y013091D01*
X007764Y013099D02*
X007694Y013099D01*
X007694Y013107D02*
X007764Y013107D01*
X007764Y013115D02*
X007694Y013115D01*
X007694Y013123D02*
X007764Y013123D01*
X007764Y013131D02*
X007694Y013131D01*
X007694Y013139D02*
X007764Y013139D01*
X007607Y012755D02*
X007537Y012755D01*
X007537Y013141D01*
X007607Y013141D01*
X007607Y012755D01*
X007607Y012763D02*
X007537Y012763D01*
X007537Y012771D02*
X007607Y012771D01*
X007607Y012779D02*
X007537Y012779D01*
X007537Y012787D02*
X007607Y012787D01*
X007607Y012795D02*
X007537Y012795D01*
X007537Y012803D02*
X007607Y012803D01*
X007607Y012811D02*
X007537Y012811D01*
X007537Y012819D02*
X007607Y012819D01*
X007607Y012827D02*
X007537Y012827D01*
X007537Y012835D02*
X007607Y012835D01*
X007607Y012843D02*
X007537Y012843D01*
X007537Y012851D02*
X007607Y012851D01*
X007607Y012859D02*
X007537Y012859D01*
X007537Y012867D02*
X007607Y012867D01*
X007607Y012875D02*
X007537Y012875D01*
X007537Y012883D02*
X007607Y012883D01*
X007607Y012891D02*
X007537Y012891D01*
X007537Y012899D02*
X007607Y012899D01*
X007607Y012907D02*
X007537Y012907D01*
X007537Y012915D02*
X007607Y012915D01*
X007607Y012923D02*
X007537Y012923D01*
X007537Y012931D02*
X007607Y012931D01*
X007607Y012939D02*
X007537Y012939D01*
X007537Y012947D02*
X007607Y012947D01*
X007607Y012955D02*
X007537Y012955D01*
X007537Y012963D02*
X007607Y012963D01*
X007607Y012971D02*
X007537Y012971D01*
X007537Y012979D02*
X007607Y012979D01*
X007607Y012987D02*
X007537Y012987D01*
X007537Y012995D02*
X007607Y012995D01*
X007607Y013003D02*
X007537Y013003D01*
X007537Y013011D02*
X007607Y013011D01*
X007607Y013019D02*
X007537Y013019D01*
X007537Y013027D02*
X007607Y013027D01*
X007607Y013035D02*
X007537Y013035D01*
X007537Y013043D02*
X007607Y013043D01*
X007607Y013051D02*
X007537Y013051D01*
X007537Y013059D02*
X007607Y013059D01*
X007607Y013067D02*
X007537Y013067D01*
X007537Y013075D02*
X007607Y013075D01*
X007607Y013083D02*
X007537Y013083D01*
X007537Y013091D02*
X007607Y013091D01*
X007607Y013099D02*
X007537Y013099D01*
X007537Y013107D02*
X007607Y013107D01*
X007607Y013115D02*
X007537Y013115D01*
X007537Y013123D02*
X007607Y013123D01*
X007607Y013131D02*
X007537Y013131D01*
X007537Y013139D02*
X007607Y013139D01*
X009437Y018041D02*
X009507Y018041D01*
X009507Y017655D01*
X009437Y017655D01*
X009437Y018041D01*
X009437Y017663D02*
X009507Y017663D01*
X009507Y017671D02*
X009437Y017671D01*
X009437Y017679D02*
X009507Y017679D01*
X009507Y017687D02*
X009437Y017687D01*
X009437Y017695D02*
X009507Y017695D01*
X009507Y017703D02*
X009437Y017703D01*
X009437Y017711D02*
X009507Y017711D01*
X009507Y017719D02*
X009437Y017719D01*
X009437Y017727D02*
X009507Y017727D01*
X009507Y017735D02*
X009437Y017735D01*
X009437Y017743D02*
X009507Y017743D01*
X009507Y017751D02*
X009437Y017751D01*
X009437Y017759D02*
X009507Y017759D01*
X009507Y017767D02*
X009437Y017767D01*
X009437Y017775D02*
X009507Y017775D01*
X009507Y017783D02*
X009437Y017783D01*
X009437Y017791D02*
X009507Y017791D01*
X009507Y017799D02*
X009437Y017799D01*
X009437Y017807D02*
X009507Y017807D01*
X009507Y017815D02*
X009437Y017815D01*
X009437Y017823D02*
X009507Y017823D01*
X009507Y017831D02*
X009437Y017831D01*
X009437Y017839D02*
X009507Y017839D01*
X009507Y017847D02*
X009437Y017847D01*
X009437Y017855D02*
X009507Y017855D01*
X009507Y017863D02*
X009437Y017863D01*
X009437Y017871D02*
X009507Y017871D01*
X009507Y017879D02*
X009437Y017879D01*
X009437Y017887D02*
X009507Y017887D01*
X009507Y017895D02*
X009437Y017895D01*
X009437Y017903D02*
X009507Y017903D01*
X009507Y017911D02*
X009437Y017911D01*
X009437Y017919D02*
X009507Y017919D01*
X009507Y017927D02*
X009437Y017927D01*
X009437Y017935D02*
X009507Y017935D01*
X009507Y017943D02*
X009437Y017943D01*
X009437Y017951D02*
X009507Y017951D01*
X009507Y017959D02*
X009437Y017959D01*
X009437Y017967D02*
X009507Y017967D01*
X009507Y017975D02*
X009437Y017975D01*
X009437Y017983D02*
X009507Y017983D01*
X009507Y017991D02*
X009437Y017991D01*
X009437Y017999D02*
X009507Y017999D01*
X009507Y018007D02*
X009437Y018007D01*
X009437Y018015D02*
X009507Y018015D01*
X009507Y018023D02*
X009437Y018023D01*
X009437Y018031D02*
X009507Y018031D01*
X009507Y018039D02*
X009437Y018039D01*
X009594Y018041D02*
X009664Y018041D01*
X009664Y017655D01*
X009594Y017655D01*
X009594Y018041D01*
X009594Y017663D02*
X009664Y017663D01*
X009664Y017671D02*
X009594Y017671D01*
X009594Y017679D02*
X009664Y017679D01*
X009664Y017687D02*
X009594Y017687D01*
X009594Y017695D02*
X009664Y017695D01*
X009664Y017703D02*
X009594Y017703D01*
X009594Y017711D02*
X009664Y017711D01*
X009664Y017719D02*
X009594Y017719D01*
X009594Y017727D02*
X009664Y017727D01*
X009664Y017735D02*
X009594Y017735D01*
X009594Y017743D02*
X009664Y017743D01*
X009664Y017751D02*
X009594Y017751D01*
X009594Y017759D02*
X009664Y017759D01*
X009664Y017767D02*
X009594Y017767D01*
X009594Y017775D02*
X009664Y017775D01*
X009664Y017783D02*
X009594Y017783D01*
X009594Y017791D02*
X009664Y017791D01*
X009664Y017799D02*
X009594Y017799D01*
X009594Y017807D02*
X009664Y017807D01*
X009664Y017815D02*
X009594Y017815D01*
X009594Y017823D02*
X009664Y017823D01*
X009664Y017831D02*
X009594Y017831D01*
X009594Y017839D02*
X009664Y017839D01*
X009664Y017847D02*
X009594Y017847D01*
X009594Y017855D02*
X009664Y017855D01*
X009664Y017863D02*
X009594Y017863D01*
X009594Y017871D02*
X009664Y017871D01*
X009664Y017879D02*
X009594Y017879D01*
X009594Y017887D02*
X009664Y017887D01*
X009664Y017895D02*
X009594Y017895D01*
X009594Y017903D02*
X009664Y017903D01*
X009664Y017911D02*
X009594Y017911D01*
X009594Y017919D02*
X009664Y017919D01*
X009664Y017927D02*
X009594Y017927D01*
X009594Y017935D02*
X009664Y017935D01*
X009664Y017943D02*
X009594Y017943D01*
X009594Y017951D02*
X009664Y017951D01*
X009664Y017959D02*
X009594Y017959D01*
X009594Y017967D02*
X009664Y017967D01*
X009664Y017975D02*
X009594Y017975D01*
X009594Y017983D02*
X009664Y017983D01*
X009664Y017991D02*
X009594Y017991D01*
X009594Y017999D02*
X009664Y017999D01*
X009664Y018007D02*
X009594Y018007D01*
X009594Y018015D02*
X009664Y018015D01*
X009664Y018023D02*
X009594Y018023D01*
X009594Y018031D02*
X009664Y018031D01*
X009664Y018039D02*
X009594Y018039D01*
D12*
X009607Y017381D03*
X009095Y017381D03*
X009095Y016515D03*
X009351Y016515D03*
X009607Y016515D03*
D13*
X009355Y014248D03*
X008646Y014248D03*
X008496Y004048D03*
X009205Y004048D03*
X035846Y010098D03*
X036555Y010098D03*
X042746Y011198D03*
X043455Y011198D03*
X045746Y004898D03*
X046455Y004898D03*
X045355Y003598D03*
X044646Y003598D03*
X038455Y003098D03*
X037746Y003098D03*
D14*
X029847Y010298D03*
X029454Y010298D03*
X029097Y010298D03*
X028704Y010298D03*
X032051Y011301D03*
X032051Y011695D03*
X032251Y013651D03*
X032251Y014045D03*
X030547Y017648D03*
X030154Y017648D03*
X029147Y017648D03*
X028754Y017648D03*
X028754Y018048D03*
X029147Y018048D03*
X025351Y014345D03*
X025351Y013951D03*
X025451Y013495D03*
X025051Y013495D03*
X025051Y013101D03*
X025451Y013101D03*
X009047Y004748D03*
X008654Y004748D03*
D15*
X012451Y010813D03*
X012451Y011483D03*
X035116Y007148D03*
X035785Y007148D03*
X037066Y006948D03*
X037735Y006948D03*
X037735Y007548D03*
X037066Y007548D03*
X043966Y007548D03*
X044635Y007548D03*
X044635Y006948D03*
X043966Y006948D03*
X040785Y017498D03*
X040116Y017498D03*
X037801Y017643D03*
X037801Y018312D03*
D16*
X038466Y017598D03*
X039135Y017598D03*
X039135Y017048D03*
X038466Y017048D03*
X039051Y009683D03*
X039051Y009013D03*
X042651Y009013D03*
X042651Y009683D03*
X047151Y008533D03*
X047151Y007863D03*
X042651Y005483D03*
X042651Y004813D03*
X043951Y003283D03*
X043951Y002613D03*
X039051Y004813D03*
X039051Y005483D03*
X013485Y014848D03*
X012816Y014848D03*
X012816Y015498D03*
X013485Y015498D03*
X013485Y016148D03*
X012816Y016148D03*
X010485Y009048D03*
X009816Y009048D03*
X010440Y006256D03*
X011110Y006256D03*
D17*
X009451Y006698D03*
X009451Y006898D03*
X009401Y008048D03*
X009401Y008248D03*
X013351Y010248D03*
X013351Y010448D03*
X039851Y002948D03*
X039851Y002748D03*
D18*
X039906Y006165D03*
X039906Y006362D03*
X039906Y006559D03*
X039906Y006756D03*
X039906Y006953D03*
X039906Y007149D03*
X039906Y007346D03*
X039906Y007543D03*
X039906Y007740D03*
X039906Y007937D03*
X039906Y008134D03*
X039906Y008331D03*
X041796Y008331D03*
X041796Y008134D03*
X041796Y007937D03*
X041796Y007740D03*
X041796Y007543D03*
X041796Y007346D03*
X041796Y007149D03*
X041796Y006953D03*
X041796Y006756D03*
X041796Y006559D03*
X041796Y006362D03*
X041796Y006165D03*
D19*
X041441Y005909D03*
X041244Y005909D03*
X041047Y005909D03*
X040851Y005909D03*
X040654Y005909D03*
X040457Y005909D03*
X040260Y005909D03*
X040260Y008586D03*
X040457Y008586D03*
X040654Y008586D03*
X040851Y008586D03*
X041047Y008586D03*
X041244Y008586D03*
X041441Y008586D03*
D20*
X040851Y007248D03*
D21*
X036132Y008348D03*
X035069Y008348D03*
X045569Y006148D03*
X046632Y006148D03*
D22*
X044151Y005479D03*
X044151Y004416D03*
X037551Y009016D03*
X037551Y010079D03*
D23*
X044351Y010350D03*
X044351Y008746D03*
X037351Y005750D03*
X037351Y004146D03*
D24*
X039801Y021976D03*
D25*
X039801Y018748D03*
X039131Y018748D03*
X038462Y018748D03*
X040470Y018748D03*
X041139Y018748D03*
D26*
X035091Y006503D03*
X035091Y005598D03*
X035091Y004693D03*
X043191Y003303D03*
X043191Y002398D03*
X043191Y001493D03*
D27*
X040711Y002398D03*
X032611Y005598D03*
D28*
X044950Y020648D03*
X045151Y020648D03*
X045151Y021248D03*
X044950Y021248D03*
X044950Y021848D03*
X045151Y021848D03*
X012151Y021748D03*
X011950Y021748D03*
D29*
X004911Y017338D03*
X004911Y013858D03*
X004911Y009188D03*
X004911Y005708D03*
D30*
X042324Y012569D03*
X042324Y013750D03*
X044883Y013750D03*
X044883Y012569D03*
D31*
X012051Y020282D03*
X012051Y020814D03*
X010651Y020814D03*
X010651Y020282D03*
X005651Y011614D03*
X005651Y011082D03*
X006651Y009814D03*
X006651Y009282D03*
D32*
X006551Y004148D03*
X008451Y004548D03*
X009251Y004548D03*
X011001Y005548D03*
X011701Y005998D03*
X010801Y006648D03*
X010051Y006948D03*
X010251Y007248D03*
X010451Y007598D03*
X010801Y007598D03*
X010451Y008198D03*
X011001Y008648D03*
X011551Y008348D03*
X011801Y008748D03*
X012301Y008398D03*
X012701Y008398D03*
X013951Y008448D03*
X014251Y008448D03*
X016101Y008448D03*
X016401Y008448D03*
X018251Y008448D03*
X018551Y008448D03*
X013351Y010648D03*
X012751Y010248D03*
X012001Y010798D03*
X010401Y011348D03*
X010401Y011648D03*
X010401Y011948D03*
X010401Y012248D03*
X010851Y012648D03*
X012051Y012698D03*
X012051Y012998D03*
X012051Y013498D03*
X012051Y013798D03*
X012051Y014298D03*
X012051Y014598D03*
X012051Y015098D03*
X012051Y015398D03*
X012551Y015498D03*
X013851Y016148D03*
X010951Y015448D03*
X010401Y015648D03*
X010401Y015948D03*
X010401Y016448D03*
X010401Y016748D03*
X009401Y016898D03*
X009351Y018248D03*
X009751Y018248D03*
X012341Y018848D03*
X012651Y018848D03*
X013951Y018848D03*
X014251Y018848D03*
X012801Y019648D03*
X012351Y019998D03*
X012051Y019998D03*
X011751Y019998D03*
X010951Y020048D03*
X010651Y020048D03*
X010351Y020048D03*
X010331Y021048D03*
X010641Y021048D03*
X010951Y021048D03*
X011751Y021048D03*
X012051Y021048D03*
X012351Y021048D03*
X012601Y022148D03*
X011201Y024048D03*
X011451Y024448D03*
X006151Y022348D03*
X006051Y017548D03*
X006051Y017148D03*
X007651Y015148D03*
X008251Y015148D03*
X009051Y014748D03*
X009351Y014748D03*
X009651Y015098D03*
X008251Y014548D03*
X007651Y014548D03*
X006051Y014048D03*
X006051Y013648D03*
X007351Y012948D03*
X007951Y012948D03*
X005851Y011898D03*
X005451Y011898D03*
X005451Y010848D03*
X005851Y010848D03*
X006451Y010048D03*
X006851Y010048D03*
X006001Y009398D03*
X006451Y009048D03*
X006851Y009048D03*
X006001Y008998D03*
X007101Y008248D03*
X007151Y007748D03*
X007251Y007048D03*
X008301Y006798D03*
X006001Y005898D03*
X006001Y005498D03*
X011951Y004848D03*
X012251Y004548D03*
X012451Y005348D03*
X012851Y005348D03*
X010801Y009448D03*
X009851Y009748D03*
X009451Y009748D03*
X012351Y011948D03*
X012801Y012998D03*
X013101Y012998D03*
X014951Y012948D03*
X015401Y012948D03*
X015401Y013398D03*
X014951Y013398D03*
X014951Y013898D03*
X015401Y013898D03*
X015901Y013898D03*
X016351Y013898D03*
X016351Y014348D03*
X015901Y014348D03*
X015401Y014348D03*
X014951Y014348D03*
X015901Y013398D03*
X016351Y013398D03*
X016351Y012948D03*
X015901Y012948D03*
X018701Y012998D03*
X019001Y012998D03*
X020851Y012418D03*
X020851Y012118D03*
X023951Y013398D03*
X023951Y013698D03*
X025551Y013698D03*
X025601Y013998D03*
X025601Y014348D03*
X025451Y014798D03*
X025451Y015348D03*
X025451Y016698D03*
X025651Y017148D03*
X025311Y017498D03*
X025601Y017648D03*
X025951Y017648D03*
X026351Y017648D03*
X026951Y017648D03*
X027951Y017648D03*
X028551Y017648D03*
X029351Y017648D03*
X029951Y017648D03*
X030751Y017648D03*
X031501Y017648D03*
X032101Y017648D03*
X032501Y017648D03*
X032651Y016948D03*
X032651Y016398D03*
X032651Y015798D03*
X032651Y015148D03*
X032051Y014748D03*
X032351Y014248D03*
X032651Y014148D03*
X032651Y013548D03*
X032351Y013448D03*
X031851Y013248D03*
X031301Y013248D03*
X031151Y012648D03*
X031151Y012298D03*
X031551Y012248D03*
X031951Y012248D03*
X032101Y011898D03*
X032451Y011798D03*
X032451Y011198D03*
X032101Y011098D03*
X031901Y010448D03*
X031301Y010448D03*
X030901Y010548D03*
X030351Y010548D03*
X029851Y010548D03*
X029451Y010548D03*
X029101Y010548D03*
X028701Y010548D03*
X028001Y010548D03*
X025451Y010948D03*
X025451Y011948D03*
X025451Y012548D03*
X025451Y012898D03*
X020861Y014878D03*
X020861Y015178D03*
X019001Y014298D03*
X018701Y014298D03*
X013101Y014298D03*
X012801Y014298D03*
X010851Y013948D03*
X009651Y014398D03*
X016101Y018848D03*
X016401Y018848D03*
X018251Y018748D03*
X018551Y018748D03*
X026001Y018748D03*
X029001Y019348D03*
X029401Y019348D03*
X031401Y020698D03*
X031651Y021248D03*
X031951Y021648D03*
X032601Y021148D03*
X033001Y020848D03*
X033051Y020048D03*
X032851Y019748D03*
X032601Y019348D03*
X032351Y018998D03*
X033251Y019248D03*
X033851Y018848D03*
X034151Y017898D03*
X033851Y017448D03*
X035951Y018548D03*
X036301Y018598D03*
X036601Y018448D03*
X036901Y018598D03*
X037801Y018648D03*
X036551Y019548D03*
X035951Y019548D03*
X035251Y019748D03*
X034401Y019698D03*
X034401Y020298D03*
X034801Y020698D03*
X035501Y021298D03*
X036551Y021298D03*
X037151Y021298D03*
X038251Y021948D03*
X038251Y022448D03*
X038751Y022448D03*
X038751Y022948D03*
X038251Y022948D03*
X038251Y023548D03*
X038751Y023548D03*
X037551Y023648D03*
X034751Y022698D03*
X032051Y023648D03*
X037551Y020298D03*
X038851Y019798D03*
X039351Y020498D03*
X039051Y020748D03*
X039701Y020748D03*
X040151Y020498D03*
X040501Y020798D03*
X042651Y021048D03*
X042951Y020448D03*
X044551Y019598D03*
X044851Y019398D03*
X045401Y019598D03*
X045801Y018898D03*
X046051Y018548D03*
X045151Y018098D03*
X044751Y018098D03*
X044751Y017698D03*
X043851Y017148D03*
X044651Y016848D03*
X045651Y016948D03*
X046451Y017048D03*
X046451Y016548D03*
X047851Y016248D03*
X045151Y014148D03*
X045551Y013948D03*
X045951Y013948D03*
X045951Y013548D03*
X045551Y013548D03*
X044551Y014148D03*
X043651Y015348D03*
X042951Y015648D03*
X042551Y015648D03*
X042151Y015648D03*
X041751Y015348D03*
X039851Y015048D03*
X038651Y014748D03*
X038651Y014148D03*
X039351Y013948D03*
X041351Y013898D03*
X041701Y013898D03*
X041701Y013548D03*
X041351Y013548D03*
X041351Y012748D03*
X041651Y012748D03*
X041651Y012348D03*
X041351Y012348D03*
X042401Y011598D03*
X042701Y011598D03*
X043751Y011348D03*
X044151Y011348D03*
X044551Y011348D03*
X044551Y010948D03*
X044151Y010948D03*
X043751Y010948D03*
X042701Y010798D03*
X042401Y010798D03*
X041301Y010698D03*
X040051Y011148D03*
X040251Y011448D03*
X039651Y011148D03*
X039451Y011448D03*
X039851Y010448D03*
X039101Y009998D03*
X038801Y009998D03*
X038351Y010148D03*
X036851Y010448D03*
X036451Y010448D03*
X035901Y010498D03*
X035501Y010348D03*
X035501Y010048D03*
X035651Y009698D03*
X035951Y009698D03*
X036451Y009748D03*
X036851Y009748D03*
X038751Y009148D03*
X038751Y008848D03*
X039501Y008798D03*
X040601Y009298D03*
X040701Y008948D03*
X041051Y008898D03*
X041251Y009348D03*
X040851Y009748D03*
X041901Y009748D03*
X042551Y009998D03*
X042851Y009998D03*
X042951Y009148D03*
X042951Y008858D03*
X042201Y008788D03*
X042351Y008148D03*
X041251Y008048D03*
X040851Y008048D03*
X040451Y008048D03*
X040451Y007448D03*
X040851Y007448D03*
X041251Y007448D03*
X041251Y007048D03*
X040851Y007048D03*
X040451Y007048D03*
X040451Y006548D03*
X040851Y006548D03*
X041251Y006548D03*
X042101Y005998D03*
X042201Y005698D03*
X042951Y005598D03*
X042951Y005298D03*
X042001Y004998D03*
X041451Y005348D03*
X040851Y005298D03*
X040261Y005248D03*
X039501Y005098D03*
X039751Y004548D03*
X039101Y004498D03*
X038801Y004498D03*
X039501Y003948D03*
X039201Y003848D03*
X038801Y003498D03*
X038501Y003498D03*
X037751Y003548D03*
X037351Y003548D03*
X036951Y003548D03*
X035551Y003848D03*
X035151Y003848D03*
X034751Y003848D03*
X033851Y003848D03*
X033451Y003848D03*
X033051Y003848D03*
X033051Y003348D03*
X033451Y003348D03*
X033851Y003348D03*
X034751Y004248D03*
X035151Y004248D03*
X035551Y004248D03*
X035551Y005398D03*
X035551Y005798D03*
X034451Y006548D03*
X033251Y006348D03*
X033251Y005998D03*
X032851Y006348D03*
X032451Y006348D03*
X033251Y005598D03*
X033251Y005198D03*
X033251Y004848D03*
X032851Y004848D03*
X032451Y004848D03*
X036851Y006648D03*
X037151Y006648D03*
X037551Y006648D03*
X036851Y007248D03*
X036851Y007848D03*
X037151Y007848D03*
X037551Y007848D03*
X037851Y007848D03*
X038301Y007346D03*
X036351Y007848D03*
X032801Y008848D03*
X032401Y008848D03*
X032051Y008848D03*
X031651Y008848D03*
X031551Y009248D03*
X031851Y008348D03*
X031851Y007948D03*
X029401Y008898D03*
X029001Y008898D03*
X026201Y008448D03*
X025801Y008748D03*
X031551Y012648D03*
X031951Y012648D03*
X032751Y012948D03*
X034251Y013498D03*
X034251Y013798D03*
X034901Y013648D03*
X034851Y013248D03*
X034851Y012948D03*
X034301Y012698D03*
X034951Y012448D03*
X035701Y012198D03*
X036351Y011948D03*
X036851Y011448D03*
X036601Y011098D03*
X034701Y011448D03*
X034701Y010698D03*
X034701Y010348D03*
X034701Y010048D03*
X035851Y013098D03*
X035951Y013548D03*
X036201Y013848D03*
X035501Y013648D03*
X033851Y015048D03*
X034051Y015348D03*
X033801Y015698D03*
X034051Y016248D03*
X035051Y015298D03*
X035451Y015298D03*
X036051Y015348D03*
X036401Y016798D03*
X037101Y016948D03*
X036401Y017248D03*
X037851Y017148D03*
X037851Y016848D03*
X038951Y016648D03*
X039251Y016648D03*
X039551Y016648D03*
X039551Y016948D03*
X039551Y017248D03*
X040101Y017148D03*
X039551Y016348D03*
X039251Y016348D03*
X038951Y016348D03*
X041551Y018348D03*
X041951Y018348D03*
X041951Y018748D03*
X041551Y018748D03*
X041551Y019148D03*
X041951Y019148D03*
X043551Y019048D03*
X044251Y018948D03*
X043001Y018348D03*
X042951Y017548D03*
X042751Y017048D03*
X047351Y019898D03*
X046451Y020648D03*
X046451Y021248D03*
X046451Y021848D03*
X045101Y021548D03*
X043051Y023148D03*
X043251Y023648D03*
X045451Y023848D03*
X045551Y012748D03*
X045951Y012748D03*
X045951Y012348D03*
X045551Y012348D03*
X045151Y012148D03*
X044651Y012148D03*
X046051Y011698D03*
X046451Y010148D03*
X046751Y008948D03*
X046451Y008048D03*
X046651Y007648D03*
X047201Y006998D03*
X045751Y006948D03*
X045151Y007398D03*
X044851Y007848D03*
X044551Y007848D03*
X044151Y007848D03*
X043851Y007848D03*
X043401Y007150D03*
X043851Y006648D03*
X044151Y006648D03*
X044551Y006648D03*
X044851Y006648D03*
X044751Y005698D03*
X045401Y005298D03*
X045701Y005298D03*
X046751Y005148D03*
X047051Y005148D03*
X047051Y004748D03*
X046751Y004748D03*
X045701Y004498D03*
X045401Y004498D03*
X045401Y003998D03*
X045701Y003998D03*
X045701Y003198D03*
X045401Y003198D03*
X043651Y004448D03*
X042901Y004498D03*
X042601Y004498D03*
X042001Y003898D03*
X042351Y003648D03*
X041351Y003648D03*
X040951Y003898D03*
X040601Y003898D03*
X041401Y004448D03*
X041351Y003198D03*
X040951Y003198D03*
X040551Y003198D03*
X039201Y002798D03*
X038801Y002698D03*
X038501Y002698D03*
X040551Y001598D03*
X040951Y001598D03*
X041351Y001598D03*
X042651Y002198D03*
X042651Y002598D03*
X043651Y001748D03*
X043951Y001748D03*
X044251Y001748D03*
X044251Y001348D03*
X043951Y001348D03*
X043651Y001348D03*
X038751Y005348D03*
X038751Y005638D03*
X039501Y005708D03*
X045051Y008198D03*
D33*
X045051Y009248D01*
X044651Y009648D01*
X043651Y009648D01*
X043001Y010298D01*
X042151Y010298D01*
X041851Y009998D01*
X040551Y009998D01*
X040260Y009707D01*
X040260Y008586D01*
X040654Y008586D02*
X040654Y008901D01*
X040701Y008948D01*
X040851Y008586D02*
X040851Y008048D01*
X041244Y008054D02*
X041251Y008048D01*
X041244Y008054D02*
X041244Y008586D01*
X041441Y008586D02*
X041441Y009007D01*
X041901Y009748D01*
X041301Y010698D02*
X038901Y010698D01*
X038351Y010148D01*
X036601Y011098D02*
X036601Y016548D01*
X036651Y016598D01*
X036651Y018448D01*
X036601Y018448D01*
X036851Y018548D02*
X036851Y011448D01*
X036351Y011948D02*
X034451Y011948D01*
X034251Y011748D01*
X034251Y006848D01*
X033951Y006548D01*
X033951Y004648D01*
X033501Y004198D01*
X029401Y004198D01*
X028601Y003398D01*
X013401Y003398D01*
X012251Y004548D01*
X011951Y004848D02*
X012551Y004848D01*
X013651Y003748D01*
X028351Y003748D01*
X029151Y004548D01*
X033451Y004548D01*
X033651Y004748D01*
X033651Y006848D01*
X034051Y007248D01*
X034051Y011848D01*
X034401Y012198D01*
X035701Y012198D01*
X034951Y012448D02*
X034351Y012448D01*
X033851Y011948D01*
X033851Y007648D01*
X033051Y006848D01*
X030851Y006848D01*
X028101Y004098D01*
X013951Y004098D01*
X013301Y004748D01*
X013301Y005898D01*
X012943Y006256D01*
X011110Y006256D01*
X010801Y006648D02*
X013201Y006648D01*
X013651Y006198D01*
X013651Y004748D01*
X014051Y004348D01*
X027851Y004348D01*
X030551Y007048D01*
X032951Y007048D01*
X033651Y007748D01*
X033651Y012198D01*
X034151Y012698D01*
X034301Y012698D01*
X034801Y013548D02*
X034801Y013998D01*
X035101Y013998D01*
X035101Y013548D01*
X034801Y013548D01*
X034801Y013622D02*
X035101Y013622D01*
X035101Y013700D02*
X034801Y013700D01*
X034801Y013779D02*
X035101Y013779D01*
X035101Y013857D02*
X034801Y013857D01*
X034801Y013936D02*
X035101Y013936D01*
X035301Y013936D02*
X035601Y013936D01*
X035601Y014014D02*
X035301Y014014D01*
X035301Y014048D02*
X035601Y014048D01*
X035601Y013548D01*
X035301Y013548D01*
X035301Y014048D01*
X035301Y013857D02*
X035601Y013857D01*
X035601Y013779D02*
X035301Y013779D01*
X035301Y013700D02*
X035601Y013700D01*
X035601Y013622D02*
X035301Y013622D01*
X035951Y013548D02*
X035951Y014448D01*
X035751Y014648D01*
X034751Y014648D01*
X034351Y015048D01*
X033851Y015048D01*
X034051Y015348D02*
X034401Y015348D01*
X034901Y014848D01*
X035851Y014848D01*
X036151Y014548D01*
X036151Y013898D01*
X036201Y013848D01*
X032751Y013927D02*
X032751Y014048D01*
X032651Y014148D01*
X032751Y014366D02*
X032698Y014388D01*
X032603Y014388D01*
X032560Y014370D01*
X032554Y014384D01*
X032487Y014451D01*
X032398Y014488D01*
X032303Y014488D01*
X032215Y014451D01*
X032147Y014384D01*
X032111Y014296D01*
X032111Y014263D01*
X032102Y014263D01*
X032032Y014193D01*
X032032Y013897D01*
X032081Y013848D01*
X032032Y013799D01*
X032032Y013503D01*
X032102Y013433D01*
X032111Y013433D01*
X032111Y013400D01*
X032147Y013312D01*
X032215Y013244D01*
X032303Y013208D01*
X032398Y013208D01*
X032487Y013244D01*
X032554Y013312D01*
X032560Y013326D01*
X032603Y013308D01*
X032698Y013308D01*
X032751Y013330D01*
X032751Y013188D01*
X032703Y013188D01*
X032615Y013151D01*
X032547Y013084D01*
X032511Y012996D01*
X032511Y012900D01*
X032547Y012812D01*
X032615Y012744D01*
X032703Y012708D01*
X032751Y012708D01*
X032751Y011736D01*
X032711Y011736D01*
X032711Y011764D01*
X032691Y011784D01*
X032691Y011846D01*
X032654Y011934D01*
X032587Y012001D01*
X032498Y012038D01*
X032403Y012038D01*
X032317Y012002D01*
X032304Y012034D01*
X032237Y012101D01*
X032148Y012138D01*
X032053Y012138D01*
X031965Y012101D01*
X031897Y012034D01*
X031861Y011946D01*
X031861Y011871D01*
X031832Y011843D01*
X031832Y011547D01*
X031881Y011498D01*
X031832Y011449D01*
X031832Y011153D01*
X031861Y011125D01*
X031861Y011050D01*
X031897Y010962D01*
X031965Y010894D01*
X032053Y010858D01*
X032148Y010858D01*
X032237Y010894D01*
X032304Y010962D01*
X032317Y010993D01*
X032403Y010958D01*
X032498Y010958D01*
X032587Y010994D01*
X032654Y011062D01*
X032691Y011150D01*
X032691Y011212D01*
X032711Y011232D01*
X032711Y011260D01*
X032751Y011260D01*
X032751Y010348D01*
X032119Y010348D01*
X032141Y010400D01*
X032141Y010496D01*
X032104Y010584D01*
X032037Y010651D01*
X031948Y010688D01*
X031853Y010688D01*
X031775Y010656D01*
X031766Y010665D01*
X031436Y010665D01*
X031426Y010656D01*
X031348Y010688D01*
X031253Y010688D01*
X031165Y010651D01*
X031097Y010584D01*
X031061Y010496D01*
X031061Y010400D01*
X031082Y010348D01*
X030490Y010348D01*
X030554Y010412D01*
X030591Y010500D01*
X030591Y010596D01*
X030554Y010684D01*
X030487Y010751D01*
X030398Y010788D01*
X030303Y010788D01*
X030215Y010751D01*
X030147Y010684D01*
X030111Y010596D01*
X030111Y010500D01*
X030147Y010412D01*
X030211Y010348D01*
X030066Y010348D01*
X030066Y010440D01*
X030091Y010500D01*
X030091Y010596D01*
X030054Y010684D01*
X029987Y010751D01*
X029898Y010788D01*
X029803Y010788D01*
X029715Y010751D01*
X029651Y010687D01*
X029587Y010751D01*
X029498Y010788D01*
X029403Y010788D01*
X029315Y010751D01*
X029247Y010684D01*
X029211Y010596D01*
X029211Y010500D01*
X029235Y010440D01*
X029235Y010348D01*
X028922Y010348D01*
X028922Y010446D01*
X028919Y010449D01*
X028941Y010500D01*
X028941Y010596D01*
X028904Y010684D01*
X028837Y010751D01*
X028748Y010788D01*
X028653Y010788D01*
X028565Y010751D01*
X028497Y010684D01*
X028461Y010596D01*
X028461Y010500D01*
X028485Y010440D01*
X028485Y010348D01*
X028140Y010348D01*
X028204Y010412D01*
X028241Y010500D01*
X028241Y010596D01*
X028204Y010684D01*
X028137Y010751D01*
X028048Y010788D01*
X027953Y010788D01*
X027865Y010751D01*
X027797Y010684D01*
X027761Y010596D01*
X027761Y010500D01*
X027797Y010412D01*
X027861Y010348D01*
X026011Y010348D01*
X026011Y011114D01*
X025711Y011414D01*
X025617Y011508D01*
X023917Y011508D01*
X023751Y011674D01*
X023751Y013259D01*
X023815Y013194D01*
X023903Y013158D01*
X023998Y013158D01*
X024087Y013194D01*
X024154Y013262D01*
X024191Y013350D01*
X024191Y013446D01*
X024154Y013534D01*
X024087Y013601D01*
X023998Y013638D01*
X023903Y013638D01*
X023815Y013601D01*
X023751Y013537D01*
X023751Y016548D01*
X025261Y016548D01*
X025315Y016494D01*
X025403Y016458D01*
X025498Y016458D01*
X025587Y016494D01*
X025640Y016548D01*
X026251Y016548D01*
X026251Y017430D01*
X026303Y017408D01*
X026398Y017408D01*
X026476Y017440D01*
X026486Y017431D01*
X026816Y017431D01*
X026825Y017440D01*
X026903Y017408D01*
X026998Y017408D01*
X027087Y017444D01*
X027154Y017512D01*
X027191Y017600D01*
X027191Y017696D01*
X027154Y017784D01*
X027087Y017851D01*
X026998Y017888D01*
X026903Y017888D01*
X026889Y017882D01*
X026889Y017992D01*
X026816Y018065D01*
X026486Y018065D01*
X026413Y017992D01*
X026413Y017882D01*
X026398Y017888D01*
X026303Y017888D01*
X026251Y017866D01*
X026251Y019422D01*
X026377Y019548D01*
X028861Y019548D01*
X028797Y019484D01*
X028761Y019396D01*
X028761Y019300D01*
X028797Y019212D01*
X028865Y019144D01*
X028953Y019108D01*
X029048Y019108D01*
X029137Y019144D01*
X029204Y019212D01*
X029241Y019300D01*
X029241Y019396D01*
X029204Y019484D01*
X029140Y019548D01*
X031051Y019548D01*
X031051Y018224D01*
X030891Y018064D01*
X030891Y017847D01*
X030887Y017851D01*
X030798Y017888D01*
X030703Y017888D01*
X030651Y017866D01*
X030399Y017866D01*
X030351Y017818D01*
X030302Y017866D01*
X030050Y017866D01*
X029998Y017888D01*
X029903Y017888D01*
X029815Y017851D01*
X029747Y017784D01*
X029711Y017696D01*
X029711Y017600D01*
X029747Y017512D01*
X029815Y017444D01*
X029903Y017408D01*
X029998Y017408D01*
X030050Y017429D01*
X030302Y017429D01*
X030351Y017478D01*
X030399Y017429D01*
X030651Y017429D01*
X030703Y017408D01*
X030798Y017408D01*
X030887Y017444D01*
X030891Y017449D01*
X030891Y017082D01*
X030984Y016988D01*
X031051Y016922D01*
X031051Y015548D01*
X031141Y015548D01*
X031141Y013427D01*
X031097Y013384D01*
X031061Y013296D01*
X031061Y013200D01*
X031097Y013112D01*
X031165Y013044D01*
X031253Y013008D01*
X031348Y013008D01*
X031437Y013044D01*
X031504Y013112D01*
X031541Y013200D01*
X031541Y013296D01*
X031515Y013357D01*
X031534Y013338D01*
X031534Y013338D01*
X031611Y013262D01*
X031611Y013200D01*
X031647Y013112D01*
X031715Y013044D01*
X031803Y013008D01*
X031898Y013008D01*
X031987Y013044D01*
X032054Y013112D01*
X032091Y013200D01*
X032091Y013296D01*
X032054Y013384D01*
X031987Y013451D01*
X031898Y013488D01*
X031837Y013488D01*
X031761Y013564D01*
X031761Y015548D01*
X031891Y015548D01*
X031891Y014927D01*
X031847Y014884D01*
X031811Y014796D01*
X031811Y014700D01*
X031847Y014612D01*
X031915Y014544D01*
X032003Y014508D01*
X032098Y014508D01*
X032187Y014544D01*
X032254Y014612D01*
X032291Y014700D01*
X032291Y014796D01*
X032254Y014884D01*
X032211Y014927D01*
X032211Y015548D01*
X032751Y015548D01*
X032751Y015366D01*
X032698Y015388D01*
X032603Y015388D01*
X032515Y015351D01*
X032447Y015284D01*
X032411Y015196D01*
X032411Y015100D01*
X032447Y015012D01*
X032515Y014944D01*
X032603Y014908D01*
X032698Y014908D01*
X032751Y014930D01*
X032751Y014366D01*
X032751Y014407D02*
X032531Y014407D01*
X032404Y014485D02*
X032751Y014485D01*
X032751Y014564D02*
X032206Y014564D01*
X032267Y014642D02*
X032751Y014642D01*
X032751Y014721D02*
X032291Y014721D01*
X032289Y014799D02*
X032751Y014799D01*
X032751Y014878D02*
X032257Y014878D01*
X032211Y014956D02*
X032503Y014956D01*
X032438Y015035D02*
X032211Y015035D01*
X032211Y015113D02*
X032411Y015113D01*
X032411Y015192D02*
X032211Y015192D01*
X032211Y015270D02*
X032442Y015270D01*
X032512Y015349D02*
X032211Y015349D01*
X032211Y015427D02*
X032751Y015427D01*
X032751Y015506D02*
X032211Y015506D01*
X031891Y015506D02*
X031761Y015506D01*
X031761Y015427D02*
X031891Y015427D01*
X031891Y015349D02*
X031761Y015349D01*
X031761Y015270D02*
X031891Y015270D01*
X031891Y015192D02*
X031761Y015192D01*
X031761Y015113D02*
X031891Y015113D01*
X031891Y015035D02*
X031761Y015035D01*
X031761Y014956D02*
X031891Y014956D01*
X031845Y014878D02*
X031761Y014878D01*
X031761Y014799D02*
X031812Y014799D01*
X031811Y014721D02*
X031761Y014721D01*
X031761Y014642D02*
X031835Y014642D01*
X031895Y014564D02*
X031761Y014564D01*
X031761Y014485D02*
X032297Y014485D01*
X032170Y014407D02*
X031761Y014407D01*
X031761Y014328D02*
X032124Y014328D01*
X032089Y014250D02*
X031761Y014250D01*
X031761Y014171D02*
X032032Y014171D01*
X032032Y014093D02*
X031761Y014093D01*
X031761Y014014D02*
X032032Y014014D01*
X032032Y013936D02*
X031761Y013936D01*
X031761Y013857D02*
X032071Y013857D01*
X032032Y013779D02*
X031761Y013779D01*
X031761Y013700D02*
X032032Y013700D01*
X032032Y013622D02*
X031761Y013622D01*
X031781Y013543D02*
X032032Y013543D01*
X032070Y013465D02*
X031954Y013465D01*
X032051Y013386D02*
X032116Y013386D01*
X032086Y013308D02*
X032151Y013308D01*
X032091Y013229D02*
X032251Y013229D01*
X032070Y013151D02*
X032614Y013151D01*
X032542Y013072D02*
X032015Y013072D01*
X031851Y013248D02*
X031601Y013498D01*
X031601Y016998D01*
X031251Y017348D01*
X031251Y017848D01*
X031651Y018248D01*
X032201Y018248D01*
X032601Y018648D01*
X032601Y019348D01*
X032851Y019248D02*
X033151Y019548D01*
X033551Y019548D01*
X033651Y019448D01*
X034951Y019448D01*
X035251Y019748D01*
X034401Y019698D02*
X034401Y019919D01*
X034401Y020077D02*
X034401Y020298D01*
X034801Y020698D02*
X034801Y022648D01*
X034751Y022698D01*
X035501Y021298D02*
X036301Y020498D01*
X036301Y018598D01*
X035951Y018548D02*
X035951Y019548D01*
X036551Y019548D02*
X036551Y021298D01*
X038751Y022448D02*
X039223Y021976D01*
X039801Y021976D01*
X042651Y021048D02*
X044251Y021048D01*
X044451Y021248D01*
X044451Y021848D01*
X044851Y022248D01*
X046651Y022248D01*
X046951Y021948D01*
X046951Y011848D01*
X045651Y010548D01*
X045651Y007898D01*
X045151Y007398D01*
X046451Y008048D02*
X046451Y010148D01*
X046751Y008948D02*
X046751Y008933D01*
X047151Y008533D01*
X047151Y007863D02*
X046935Y007648D01*
X046651Y007648D01*
X046151Y005698D02*
X044751Y005698D01*
X046151Y005698D02*
X046701Y005148D01*
X046751Y005148D01*
X044151Y004416D02*
X043682Y004416D01*
X043651Y004448D01*
X042351Y003648D02*
X041351Y003648D01*
X042001Y003898D02*
X042001Y004998D01*
X041451Y005348D02*
X041351Y005448D01*
X041351Y005548D01*
X041244Y005654D01*
X041244Y005909D01*
X041047Y005909D02*
X041047Y005551D01*
X041151Y005448D01*
X041151Y005148D01*
X039726Y003723D01*
X039501Y003948D01*
X039201Y003848D02*
X039201Y002798D01*
X039851Y002948D02*
X039851Y003598D01*
X039726Y003723D01*
X039751Y004548D02*
X039951Y004548D01*
X040551Y005148D01*
X040551Y005548D01*
X040654Y005651D01*
X040654Y005909D01*
X040261Y005909D02*
X040260Y005909D01*
X040261Y005909D02*
X040261Y005900D01*
X041796Y008134D02*
X042336Y008134D01*
X042351Y008148D01*
X042651Y008448D01*
X034451Y006548D02*
X034451Y011198D01*
X034701Y011448D01*
X032751Y011188D02*
X032691Y011188D01*
X032674Y011110D02*
X032751Y011110D01*
X032751Y011031D02*
X032624Y011031D01*
X032751Y010953D02*
X032295Y010953D01*
X032188Y010874D02*
X032751Y010874D01*
X032751Y010796D02*
X026011Y010796D01*
X026011Y010874D02*
X032013Y010874D01*
X031906Y010953D02*
X026011Y010953D01*
X026011Y011031D02*
X031868Y011031D01*
X031861Y011110D02*
X026011Y011110D01*
X025936Y011188D02*
X031832Y011188D01*
X031832Y011267D02*
X025858Y011267D01*
X025779Y011345D02*
X031832Y011345D01*
X031832Y011424D02*
X025701Y011424D01*
X025622Y011502D02*
X031876Y011502D01*
X031832Y011581D02*
X023844Y011581D01*
X023765Y011659D02*
X031832Y011659D01*
X031832Y011738D02*
X025571Y011738D01*
X025587Y011744D02*
X025654Y011812D01*
X025691Y011900D01*
X025691Y011996D01*
X025658Y012074D01*
X025667Y012083D01*
X025667Y012255D01*
X025667Y012413D01*
X025658Y012422D01*
X025691Y012500D01*
X025691Y012596D01*
X025654Y012684D01*
X025615Y012723D01*
X025654Y012762D01*
X025691Y012850D01*
X025691Y012946D01*
X025669Y012998D01*
X025669Y013249D01*
X025620Y013298D01*
X025669Y013347D01*
X025669Y013487D01*
X025687Y013494D01*
X025754Y013562D01*
X025791Y013650D01*
X025791Y013746D01*
X025761Y013818D01*
X025804Y013862D01*
X025841Y013950D01*
X025841Y014046D01*
X025804Y014134D01*
X025765Y014173D01*
X025804Y014212D01*
X025841Y014300D01*
X025841Y014396D01*
X025804Y014484D01*
X025737Y014551D01*
X025648Y014588D01*
X025571Y014588D01*
X025587Y014594D01*
X025654Y014662D01*
X025691Y014750D01*
X025691Y014846D01*
X025667Y014902D01*
X025667Y015213D01*
X025658Y015222D01*
X025691Y015300D01*
X025691Y015396D01*
X025654Y015484D01*
X025587Y015551D01*
X025498Y015588D01*
X025403Y015588D01*
X025315Y015551D01*
X025247Y015484D01*
X025211Y015396D01*
X025211Y015300D01*
X025216Y015286D01*
X025107Y015286D01*
X025034Y015213D01*
X025034Y014883D01*
X025107Y014810D01*
X025211Y014810D01*
X025211Y014750D01*
X025247Y014662D01*
X025315Y014594D01*
X025390Y014563D01*
X025202Y014563D01*
X025132Y014493D01*
X025132Y014197D01*
X025181Y014148D01*
X025132Y014099D01*
X025132Y013803D01*
X025202Y013733D01*
X025311Y013733D01*
X025311Y013713D01*
X025302Y013713D01*
X025254Y013665D01*
X025247Y013665D01*
X025199Y013713D01*
X024902Y013713D01*
X024832Y013643D01*
X024832Y013347D01*
X024881Y013298D01*
X024832Y013249D01*
X024832Y012953D01*
X024902Y012883D01*
X025199Y012883D01*
X025211Y012895D01*
X025211Y012850D01*
X025247Y012762D01*
X025286Y012723D01*
X025247Y012684D01*
X025211Y012596D01*
X025211Y012534D01*
X025191Y012514D01*
X025191Y012486D01*
X025107Y012486D01*
X025034Y012413D01*
X025034Y012083D01*
X025107Y012010D01*
X025191Y012010D01*
X025191Y011982D01*
X025211Y011962D01*
X025211Y011900D01*
X025247Y011812D01*
X025315Y011744D01*
X025403Y011708D01*
X025498Y011708D01*
X025587Y011744D01*
X025656Y011816D02*
X031832Y011816D01*
X031861Y011895D02*
X025688Y011895D01*
X025691Y011973D02*
X031872Y011973D01*
X031915Y012052D02*
X025667Y012052D01*
X025667Y012130D02*
X032035Y012130D01*
X032166Y012130D02*
X032751Y012130D01*
X032751Y012052D02*
X032286Y012052D01*
X032451Y011798D02*
X032551Y011698D01*
X032551Y011577D01*
X032551Y011419D02*
X032551Y011298D01*
X032451Y011198D01*
X032751Y010717D02*
X030521Y010717D01*
X030573Y010639D02*
X031152Y010639D01*
X031087Y010560D02*
X030591Y010560D01*
X030583Y010482D02*
X031061Y010482D01*
X031061Y010403D02*
X030546Y010403D01*
X030156Y010403D02*
X030066Y010403D01*
X030083Y010482D02*
X030118Y010482D01*
X030111Y010560D02*
X030091Y010560D01*
X030073Y010639D02*
X030129Y010639D01*
X030181Y010717D02*
X030021Y010717D01*
X029681Y010717D02*
X029621Y010717D01*
X029281Y010717D02*
X028871Y010717D01*
X028923Y010639D02*
X029229Y010639D01*
X029211Y010560D02*
X028941Y010560D01*
X028933Y010482D02*
X029218Y010482D01*
X029235Y010403D02*
X028922Y010403D01*
X028485Y010403D02*
X028196Y010403D01*
X028233Y010482D02*
X028468Y010482D01*
X028461Y010560D02*
X028241Y010560D01*
X028223Y010639D02*
X028479Y010639D01*
X028531Y010717D02*
X028171Y010717D01*
X027831Y010717D02*
X026011Y010717D01*
X026011Y010639D02*
X027779Y010639D01*
X027761Y010560D02*
X026011Y010560D01*
X026011Y010482D02*
X027768Y010482D01*
X027806Y010403D02*
X026011Y010403D01*
X025851Y009848D02*
X025851Y011048D01*
X025551Y011348D01*
X023851Y011348D01*
X023551Y011648D01*
X023551Y023048D01*
X023251Y023348D01*
X013801Y023348D01*
X012601Y022148D01*
X012351Y021948D02*
X012151Y021748D01*
X012151Y021748D01*
X011950Y021748D02*
X011501Y021298D01*
X011451Y021348D01*
X010051Y021348D01*
X009451Y020748D01*
X007851Y020748D01*
X007351Y020248D01*
X008851Y020248D02*
X009051Y020048D01*
X010351Y020048D01*
X011501Y020448D02*
X011501Y021298D01*
X012351Y021948D02*
X012351Y022548D01*
X013451Y023648D01*
X030551Y023648D01*
X030851Y023348D01*
X030851Y021248D01*
X031401Y020698D01*
X031401Y020748D01*
X032501Y020448D02*
X032601Y020548D01*
X032601Y021148D01*
X033001Y020848D02*
X033001Y020398D01*
X032851Y020248D01*
X026051Y020248D01*
X025251Y019448D01*
X025251Y017548D01*
X025311Y017498D01*
X025251Y017148D02*
X024251Y017748D01*
X024251Y019948D01*
X024751Y020448D01*
X032501Y020448D01*
X033051Y020048D02*
X026151Y020048D01*
X025651Y019548D01*
X025651Y018048D01*
X025951Y017748D01*
X025951Y017648D01*
X026251Y017390D02*
X030891Y017390D01*
X030891Y017311D02*
X026251Y017311D01*
X026251Y017233D02*
X030891Y017233D01*
X030891Y017154D02*
X026251Y017154D01*
X026251Y017076D02*
X030896Y017076D01*
X030975Y016997D02*
X026251Y016997D01*
X026251Y016919D02*
X031051Y016919D01*
X031051Y016840D02*
X026251Y016840D01*
X026251Y016762D02*
X031051Y016762D01*
X031051Y016683D02*
X026251Y016683D01*
X026251Y016605D02*
X031051Y016605D01*
X031051Y016526D02*
X025619Y016526D01*
X025283Y016526D02*
X023751Y016526D01*
X023751Y016448D02*
X031051Y016448D01*
X031051Y016369D02*
X023751Y016369D01*
X023751Y016291D02*
X031051Y016291D01*
X031051Y016212D02*
X023751Y016212D01*
X023751Y016134D02*
X031051Y016134D01*
X031051Y016055D02*
X023751Y016055D01*
X023751Y015977D02*
X031051Y015977D01*
X031051Y015898D02*
X023751Y015898D01*
X023751Y015820D02*
X031051Y015820D01*
X031051Y015741D02*
X023751Y015741D01*
X023751Y015663D02*
X031051Y015663D01*
X031051Y015584D02*
X025507Y015584D01*
X025395Y015584D02*
X023751Y015584D01*
X023751Y015506D02*
X025269Y015506D01*
X025224Y015427D02*
X023751Y015427D01*
X023751Y015349D02*
X025211Y015349D01*
X025091Y015270D02*
X023751Y015270D01*
X023751Y015192D02*
X025034Y015192D01*
X025034Y015113D02*
X023751Y015113D01*
X023751Y015035D02*
X025034Y015035D01*
X025034Y014956D02*
X023751Y014956D01*
X023751Y014878D02*
X025039Y014878D01*
X025211Y014799D02*
X023751Y014799D01*
X023751Y014721D02*
X025223Y014721D01*
X025267Y014642D02*
X023751Y014642D01*
X023751Y014564D02*
X025388Y014564D01*
X025451Y014798D02*
X025451Y014869D01*
X025351Y014969D01*
X025351Y015127D02*
X025451Y015227D01*
X025451Y015348D01*
X025691Y015349D02*
X031141Y015349D01*
X031141Y015427D02*
X025677Y015427D01*
X025632Y015506D02*
X031141Y015506D01*
X031141Y015270D02*
X025678Y015270D01*
X025667Y015192D02*
X031141Y015192D01*
X031141Y015113D02*
X025667Y015113D01*
X025667Y015035D02*
X031141Y015035D01*
X031141Y014956D02*
X025667Y014956D01*
X025677Y014878D02*
X031141Y014878D01*
X031141Y014799D02*
X025691Y014799D01*
X025679Y014721D02*
X031141Y014721D01*
X031141Y014642D02*
X025635Y014642D01*
X025706Y014564D02*
X031141Y014564D01*
X031141Y014485D02*
X025802Y014485D01*
X025836Y014407D02*
X031141Y014407D01*
X031141Y014328D02*
X025841Y014328D01*
X025820Y014250D02*
X031141Y014250D01*
X031141Y014171D02*
X025766Y014171D01*
X025821Y014093D02*
X031141Y014093D01*
X031141Y014014D02*
X025841Y014014D01*
X025835Y013936D02*
X031141Y013936D01*
X031141Y013857D02*
X025800Y013857D01*
X025777Y013779D02*
X031141Y013779D01*
X031141Y013700D02*
X025791Y013700D01*
X025779Y013622D02*
X031141Y013622D01*
X031141Y013543D02*
X025736Y013543D01*
X025669Y013465D02*
X031141Y013465D01*
X031100Y013386D02*
X025669Y013386D01*
X025630Y013308D02*
X031066Y013308D01*
X031061Y013229D02*
X025669Y013229D01*
X025669Y013151D02*
X031081Y013151D01*
X031137Y013072D02*
X025669Y013072D01*
X025671Y012994D02*
X032511Y012994D01*
X032511Y012915D02*
X025691Y012915D01*
X025685Y012837D02*
X032537Y012837D01*
X032601Y012758D02*
X025651Y012758D01*
X025656Y012680D02*
X032751Y012680D01*
X032751Y012601D02*
X025688Y012601D01*
X025691Y012523D02*
X032751Y012523D01*
X032751Y012444D02*
X025668Y012444D01*
X025667Y012366D02*
X032751Y012366D01*
X032751Y012287D02*
X025667Y012287D01*
X025667Y012209D02*
X032751Y012209D01*
X032751Y011973D02*
X032615Y011973D01*
X032670Y011895D02*
X032751Y011895D01*
X032751Y011816D02*
X032691Y011816D01*
X032711Y011738D02*
X032751Y011738D01*
X032751Y010639D02*
X032049Y010639D01*
X032114Y010560D02*
X032751Y010560D01*
X032751Y010482D02*
X032141Y010482D01*
X032141Y010403D02*
X032751Y010403D01*
X031901Y010448D02*
X031801Y010348D01*
X031679Y010348D01*
X031522Y010348D02*
X031401Y010348D01*
X031301Y010448D01*
X031751Y009548D02*
X026151Y009548D01*
X025851Y009848D01*
X025451Y010948D02*
X025451Y006248D01*
X024751Y005548D01*
X015251Y005548D01*
X014951Y005848D01*
X014951Y006498D01*
X013601Y007848D01*
X012051Y007848D01*
X011851Y008048D01*
X011851Y008648D01*
X011801Y008698D01*
X011801Y008748D01*
X011551Y008348D02*
X011551Y007848D01*
X011801Y007598D01*
X013501Y007598D01*
X014651Y006448D01*
X014651Y005448D01*
X014801Y005298D01*
X027301Y005298D01*
X031201Y009198D01*
X031501Y009198D01*
X031551Y009248D01*
X031751Y009548D02*
X032051Y009248D01*
X032051Y008848D01*
X031651Y008848D02*
X031351Y008848D01*
X027551Y005048D01*
X014551Y005048D01*
X014351Y005248D01*
X014351Y006448D01*
X013451Y007348D01*
X011751Y007348D01*
X011301Y007798D01*
X011301Y009998D01*
X011551Y010248D01*
X012751Y010248D01*
X012751Y010248D01*
X013351Y010248D01*
X013351Y010448D02*
X013351Y010648D01*
X012451Y010813D02*
X012016Y010813D01*
X012001Y010798D01*
X012451Y011483D02*
X012351Y011583D01*
X012351Y011948D01*
X012051Y012698D02*
X011979Y012769D01*
X011651Y012769D01*
X011651Y012927D02*
X011979Y012927D01*
X012051Y012998D01*
X012051Y013498D02*
X011979Y013569D01*
X011651Y013569D01*
X011651Y013727D02*
X011979Y013727D01*
X012051Y013798D01*
X012051Y014298D02*
X011979Y014369D01*
X011651Y014369D01*
X011651Y014527D02*
X011979Y014527D01*
X012051Y014598D01*
X012816Y014848D02*
X011111Y014848D01*
X010851Y014588D01*
X010851Y013948D01*
X010151Y013348D02*
X010151Y015148D01*
X009851Y015448D01*
X009101Y015448D01*
X009973Y016198D02*
X009607Y016515D01*
X009973Y016198D02*
X010801Y016198D01*
X010951Y016048D01*
X010951Y015448D01*
X011651Y015277D02*
X011672Y015298D01*
X011851Y015298D01*
X011951Y015398D01*
X012051Y015398D01*
X012551Y015498D02*
X012816Y015498D01*
X013485Y015498D02*
X013485Y014848D01*
X013451Y014828D01*
X013451Y014548D01*
X013201Y014298D01*
X013101Y014298D01*
X010851Y012648D02*
X010151Y013348D01*
X009501Y014248D02*
X009651Y014398D01*
X009501Y014248D02*
X009355Y014248D01*
X007951Y012948D02*
X007729Y012948D01*
X007572Y012948D02*
X007351Y012948D01*
X012820Y016117D02*
X012816Y016148D01*
X009607Y017381D02*
X009607Y017554D01*
X009651Y017598D01*
X009651Y017827D01*
X009629Y017848D01*
X009651Y017869D01*
X009651Y018048D01*
X009751Y018148D01*
X009751Y018248D01*
X009451Y018098D02*
X009451Y017869D01*
X009472Y017848D01*
X009451Y018098D02*
X009351Y018198D01*
X009351Y018248D01*
X012801Y019648D02*
X012801Y021498D01*
X012351Y021948D01*
X011501Y020448D02*
X011666Y020282D01*
X012051Y020282D01*
X023751Y014485D02*
X025132Y014485D01*
X025132Y014407D02*
X023751Y014407D01*
X023751Y014328D02*
X025132Y014328D01*
X025132Y014250D02*
X023751Y014250D01*
X023751Y014171D02*
X025157Y014171D01*
X025132Y014093D02*
X023751Y014093D01*
X023751Y014014D02*
X025132Y014014D01*
X025132Y013936D02*
X023751Y013936D01*
X023751Y013857D02*
X025132Y013857D01*
X025156Y013779D02*
X023751Y013779D01*
X023751Y013700D02*
X024890Y013700D01*
X024832Y013622D02*
X024037Y013622D01*
X024144Y013543D02*
X024832Y013543D01*
X024832Y013465D02*
X024183Y013465D01*
X024191Y013386D02*
X024832Y013386D01*
X024871Y013308D02*
X024173Y013308D01*
X024122Y013229D02*
X024832Y013229D01*
X024832Y013151D02*
X023751Y013151D01*
X023751Y013229D02*
X023780Y013229D01*
X023751Y013072D02*
X024832Y013072D01*
X024832Y012994D02*
X023751Y012994D01*
X023751Y012915D02*
X024870Y012915D01*
X025216Y012837D02*
X023751Y012837D01*
X023751Y012758D02*
X025251Y012758D01*
X025246Y012680D02*
X023751Y012680D01*
X023751Y012601D02*
X025213Y012601D01*
X025199Y012523D02*
X023751Y012523D01*
X023751Y012444D02*
X025065Y012444D01*
X025034Y012366D02*
X023751Y012366D01*
X023751Y012287D02*
X025034Y012287D01*
X025034Y012209D02*
X023751Y012209D01*
X023751Y012130D02*
X025034Y012130D01*
X025065Y012052D02*
X023751Y012052D01*
X023751Y011973D02*
X025199Y011973D01*
X025213Y011895D02*
X023751Y011895D01*
X023751Y011816D02*
X025245Y011816D01*
X025330Y011738D02*
X023751Y011738D01*
X025351Y012048D02*
X025451Y011948D01*
X025351Y012048D02*
X025351Y012169D01*
X025351Y012327D02*
X025351Y012448D01*
X025451Y012548D01*
X023864Y013622D02*
X023751Y013622D01*
X023751Y013543D02*
X023757Y013543D01*
X025211Y013700D02*
X025290Y013700D01*
X031301Y013248D02*
X031301Y016898D01*
X031051Y017148D01*
X031051Y017998D01*
X032051Y018998D01*
X032351Y018998D01*
X032851Y019248D02*
X032851Y017448D01*
X032651Y017248D01*
X032251Y017248D01*
X032051Y017048D01*
X032051Y014748D01*
X032751Y013769D02*
X032751Y013648D01*
X032651Y013548D01*
X032698Y013308D02*
X032751Y013308D01*
X032751Y013229D02*
X032450Y013229D01*
X032550Y013308D02*
X032603Y013308D01*
X031687Y013072D02*
X031465Y013072D01*
X031520Y013151D02*
X031631Y013151D01*
X031611Y013229D02*
X031541Y013229D01*
X031536Y013308D02*
X031564Y013308D01*
X033801Y015698D02*
X033251Y016248D01*
X033251Y019248D01*
X032851Y019748D02*
X026351Y019748D01*
X026001Y019398D01*
X026001Y018748D01*
X026251Y018724D02*
X031051Y018724D01*
X031051Y018646D02*
X026251Y018646D01*
X026251Y018567D02*
X031051Y018567D01*
X031051Y018489D02*
X026251Y018489D01*
X026251Y018410D02*
X031051Y018410D01*
X031051Y018332D02*
X026251Y018332D01*
X026251Y018253D02*
X028593Y018253D01*
X028606Y018266D02*
X028535Y018196D01*
X028535Y017900D01*
X028547Y017888D01*
X028503Y017888D01*
X028415Y017851D01*
X028347Y017784D01*
X028311Y017696D01*
X028311Y017600D01*
X028347Y017512D01*
X028415Y017444D01*
X028503Y017408D01*
X028598Y017408D01*
X028650Y017429D01*
X028902Y017429D01*
X028951Y017478D01*
X028999Y017429D01*
X029251Y017429D01*
X029303Y017408D01*
X029398Y017408D01*
X029487Y017444D01*
X029554Y017512D01*
X029591Y017600D01*
X029591Y017696D01*
X029554Y017784D01*
X029487Y017851D01*
X029398Y017888D01*
X029354Y017888D01*
X029366Y017900D01*
X029366Y018196D01*
X029296Y018266D01*
X028999Y018266D01*
X028951Y018218D01*
X028902Y018266D01*
X028606Y018266D01*
X028535Y018175D02*
X026251Y018175D01*
X026251Y018096D02*
X028535Y018096D01*
X028535Y018018D02*
X026862Y018018D01*
X026889Y017939D02*
X028535Y017939D01*
X028438Y017861D02*
X028063Y017861D01*
X028087Y017851D02*
X027998Y017888D01*
X027903Y017888D01*
X027815Y017851D01*
X027747Y017784D01*
X027711Y017696D01*
X027711Y017600D01*
X027747Y017512D01*
X027815Y017444D01*
X027903Y017408D01*
X027998Y017408D01*
X028087Y017444D01*
X028154Y017512D01*
X028191Y017600D01*
X028191Y017696D01*
X028154Y017784D01*
X028087Y017851D01*
X028155Y017782D02*
X028347Y017782D01*
X028314Y017704D02*
X028187Y017704D01*
X028191Y017625D02*
X028311Y017625D01*
X028333Y017547D02*
X028169Y017547D01*
X028111Y017468D02*
X028391Y017468D01*
X028941Y017468D02*
X028960Y017468D01*
X029511Y017468D02*
X029791Y017468D01*
X029733Y017547D02*
X029569Y017547D01*
X029591Y017625D02*
X029711Y017625D01*
X029714Y017704D02*
X029587Y017704D01*
X029555Y017782D02*
X029747Y017782D01*
X029838Y017861D02*
X029463Y017861D01*
X029366Y017939D02*
X030891Y017939D01*
X030891Y017861D02*
X030863Y017861D01*
X030891Y018018D02*
X029366Y018018D01*
X029366Y018096D02*
X030923Y018096D01*
X031001Y018175D02*
X029366Y018175D01*
X029308Y018253D02*
X031051Y018253D01*
X030394Y017861D02*
X030307Y017861D01*
X030154Y017648D02*
X029951Y017648D01*
X030341Y017468D02*
X030360Y017468D01*
X031701Y017648D02*
X031722Y017669D01*
X031722Y017748D01*
X031879Y017748D02*
X031879Y017669D01*
X031901Y017648D01*
X031051Y018803D02*
X026251Y018803D01*
X026251Y018881D02*
X031051Y018881D01*
X031051Y018960D02*
X026251Y018960D01*
X026251Y019038D02*
X031051Y019038D01*
X031051Y019117D02*
X029070Y019117D01*
X028931Y019117D02*
X026251Y019117D01*
X026251Y019195D02*
X028814Y019195D01*
X028771Y019274D02*
X026251Y019274D01*
X026251Y019352D02*
X028761Y019352D01*
X028775Y019431D02*
X026260Y019431D01*
X026338Y019509D02*
X028823Y019509D01*
X029178Y019509D02*
X031051Y019509D01*
X031051Y019431D02*
X029226Y019431D01*
X029241Y019352D02*
X031051Y019352D01*
X031051Y019274D02*
X029230Y019274D01*
X029188Y019195D02*
X031051Y019195D01*
X028986Y018253D02*
X028915Y018253D01*
X027838Y017861D02*
X027063Y017861D01*
X027155Y017782D02*
X027747Y017782D01*
X027714Y017704D02*
X027187Y017704D01*
X027191Y017625D02*
X027711Y017625D01*
X027733Y017547D02*
X027169Y017547D01*
X027111Y017468D02*
X027791Y017468D01*
X026951Y017648D02*
X026829Y017648D01*
X026729Y017748D01*
X026572Y017748D02*
X026472Y017648D01*
X026351Y017648D01*
X026413Y017939D02*
X026251Y017939D01*
X026251Y018018D02*
X026439Y018018D01*
X025651Y017148D02*
X025251Y017148D01*
X032751Y016298D02*
X032751Y016177D01*
X032751Y016019D02*
X032751Y015898D01*
X034051Y016248D02*
X034151Y016348D01*
X034151Y017898D01*
X033851Y017448D02*
X033851Y018848D01*
X036851Y018548D02*
X036901Y018598D01*
X038851Y019798D02*
X042301Y019798D01*
X042951Y020448D01*
X044901Y020598D02*
X044950Y020648D01*
X044950Y020648D01*
X045151Y020648D02*
X046451Y020648D01*
X046451Y021248D02*
X045151Y021248D01*
X044950Y021248D02*
X044901Y021248D01*
X044901Y021448D02*
X045001Y021548D01*
X045101Y021548D01*
X045151Y021848D02*
X046451Y021848D01*
X046751Y022448D02*
X047851Y021348D01*
X047851Y016248D01*
X043651Y015348D02*
X041751Y015348D01*
X041251Y013998D02*
X042701Y013998D01*
X042701Y013498D01*
X041251Y013498D01*
X041251Y013998D01*
X041251Y013936D02*
X042701Y013936D01*
X042701Y013857D02*
X041251Y013857D01*
X041251Y013779D02*
X042701Y013779D01*
X042701Y013700D02*
X041251Y013700D01*
X041251Y013622D02*
X042701Y013622D01*
X042701Y013543D02*
X041251Y013543D01*
X043751Y022448D02*
X043051Y023148D01*
X043751Y022448D02*
X046751Y022448D01*
X010751Y008783D02*
X010751Y007648D01*
X010801Y007598D01*
X010251Y007248D02*
X009451Y008048D01*
X009401Y008048D01*
X009400Y008248D02*
X009401Y008248D01*
X009551Y008248D01*
X009701Y008398D01*
X009701Y008933D01*
X009816Y009048D01*
X010485Y009048D02*
X010751Y008783D01*
X009400Y008248D02*
X007101Y008248D01*
X007151Y007748D02*
X008151Y007748D01*
X009201Y006698D01*
X009450Y006698D01*
X009998Y006698D01*
X010440Y006256D01*
X009451Y006698D02*
X009450Y006698D01*
X009247Y004551D02*
X009047Y004551D01*
X009247Y004551D02*
X009251Y004548D01*
X008551Y004448D02*
X008451Y004548D01*
D34*
X008551Y004448D02*
X008551Y004102D01*
X008496Y004048D01*
X009151Y004102D02*
X009205Y004048D01*
X009151Y004102D02*
X009151Y004448D01*
X009047Y004551D01*
X009047Y004748D01*
X008654Y004748D02*
X008654Y004551D01*
X008551Y004448D01*
X010451Y005548D02*
X010451Y005889D01*
X010699Y005889D01*
X010775Y005965D01*
X010851Y005889D01*
X011369Y005889D01*
X011457Y005977D01*
X011457Y006066D01*
X012864Y006066D01*
X013111Y005819D01*
X013111Y005548D01*
X012632Y005548D01*
X012604Y005577D01*
X012504Y005618D01*
X012397Y005618D01*
X012298Y005577D01*
X012269Y005548D01*
X011271Y005548D01*
X011271Y005602D01*
X011230Y005701D01*
X011154Y005777D01*
X011054Y005818D01*
X010947Y005818D01*
X010848Y005777D01*
X010772Y005701D01*
X010731Y005602D01*
X010731Y005548D01*
X010451Y005548D01*
X010451Y005574D02*
X010731Y005574D01*
X010760Y005673D02*
X010451Y005673D01*
X010451Y005771D02*
X010842Y005771D01*
X011159Y005771D02*
X013111Y005771D01*
X013111Y005673D02*
X011241Y005673D01*
X011271Y005574D02*
X012295Y005574D01*
X012606Y005574D02*
X013111Y005574D01*
X013060Y005870D02*
X010451Y005870D01*
X011448Y005968D02*
X012961Y005968D01*
X014764Y006953D02*
X023451Y006953D01*
X023451Y006855D02*
X014862Y006855D01*
X014961Y006756D02*
X023451Y006756D01*
X023451Y006658D02*
X015059Y006658D01*
X015029Y006688D02*
X013679Y008038D01*
X012129Y008038D01*
X012041Y008127D01*
X012041Y008622D01*
X012071Y008694D01*
X012071Y008802D01*
X012030Y008901D01*
X011954Y008977D01*
X011854Y009018D01*
X011747Y009018D01*
X011648Y008977D01*
X011572Y008901D01*
X011531Y008802D01*
X011531Y008694D01*
X011562Y008618D01*
X011497Y008618D01*
X011491Y008615D01*
X011491Y009919D01*
X011629Y010058D01*
X012559Y010058D01*
X012598Y010019D01*
X012697Y009978D01*
X012804Y009978D01*
X012904Y010019D01*
X012942Y010058D01*
X013189Y010058D01*
X013204Y010042D01*
X013497Y010042D01*
X013585Y010130D01*
X013585Y010509D01*
X013621Y010594D01*
X013621Y010702D01*
X013580Y010801D01*
X013504Y010877D01*
X013404Y010918D01*
X013297Y010918D01*
X013198Y010877D01*
X013122Y010801D01*
X013081Y010702D01*
X013081Y010594D01*
X013116Y010509D01*
X013116Y010438D01*
X012943Y010438D01*
X012904Y010477D01*
X012804Y010518D01*
X012781Y010518D01*
X012817Y010554D01*
X012817Y011072D01*
X012742Y011148D01*
X012817Y011224D01*
X012817Y011742D01*
X012729Y011829D01*
X012594Y011829D01*
X012621Y011894D01*
X012621Y012002D01*
X012580Y012101D01*
X012504Y012177D01*
X012404Y012218D01*
X012297Y012218D01*
X012198Y012177D01*
X012122Y012101D01*
X012081Y012002D01*
X012081Y011894D01*
X012122Y011795D01*
X012130Y011787D01*
X012084Y011742D01*
X012084Y011224D01*
X012160Y011148D01*
X012084Y011072D01*
X012084Y011056D01*
X012054Y011068D01*
X011947Y011068D01*
X011848Y011027D01*
X011772Y010951D01*
X011731Y010852D01*
X011731Y010744D01*
X011772Y010645D01*
X011848Y010569D01*
X011947Y010528D01*
X012054Y010528D01*
X012094Y010544D01*
X012172Y010466D01*
X012587Y010466D01*
X012559Y010438D01*
X011472Y010438D01*
X011222Y010188D01*
X011111Y010077D01*
X011111Y008895D01*
X011054Y008918D01*
X010947Y008918D01*
X010902Y008899D01*
X010832Y008970D01*
X010832Y009327D01*
X010744Y009414D01*
X010451Y009414D01*
X010451Y011078D01*
X010454Y011078D01*
X010554Y011119D01*
X010630Y011195D01*
X010671Y011294D01*
X010671Y011402D01*
X010630Y011501D01*
X010554Y011577D01*
X010454Y011618D01*
X010451Y011618D01*
X010451Y011678D01*
X010454Y011678D01*
X010554Y011719D01*
X010630Y011795D01*
X010671Y011894D01*
X010671Y012002D01*
X010630Y012101D01*
X010554Y012177D01*
X010454Y012218D01*
X010451Y012218D01*
X010451Y012779D01*
X010581Y012649D01*
X010581Y012594D01*
X010622Y012495D01*
X010698Y012419D01*
X010797Y012378D01*
X010904Y012378D01*
X011004Y012419D01*
X011080Y012495D01*
X011121Y012594D01*
X011121Y012702D01*
X011080Y012801D01*
X011004Y012877D01*
X010904Y012918D01*
X010849Y012918D01*
X010451Y013317D01*
X010451Y015678D01*
X010454Y015678D01*
X010554Y015719D01*
X010630Y015795D01*
X010671Y015894D01*
X010671Y016002D01*
X010668Y016008D01*
X010722Y016008D01*
X010761Y015969D01*
X010761Y015640D01*
X010722Y015601D01*
X010681Y015502D01*
X010681Y015394D01*
X010722Y015295D01*
X010798Y015219D01*
X010897Y015178D01*
X011004Y015178D01*
X011104Y015219D01*
X011180Y015295D01*
X011221Y015394D01*
X011221Y015502D01*
X011180Y015601D01*
X011141Y015640D01*
X011141Y016127D01*
X010991Y016277D01*
X010879Y016388D01*
X010668Y016388D01*
X010671Y016394D01*
X010671Y016502D01*
X010630Y016601D01*
X010554Y016677D01*
X010454Y016718D01*
X010451Y016718D01*
X010451Y019648D01*
X012531Y019648D01*
X012531Y019594D01*
X012572Y019495D01*
X012648Y019419D01*
X012747Y019378D01*
X012854Y019378D01*
X012954Y019419D01*
X013030Y019495D01*
X013071Y019594D01*
X013071Y019702D01*
X013051Y019750D01*
X013051Y022329D01*
X013769Y023048D01*
X023282Y023048D01*
X023361Y022969D01*
X023361Y011569D01*
X023451Y011479D01*
X023451Y005738D01*
X015329Y005738D01*
X015141Y005927D01*
X015141Y006577D01*
X015029Y006688D01*
X015141Y006559D02*
X023451Y006559D01*
X023451Y006461D02*
X015141Y006461D01*
X015141Y006362D02*
X023451Y006362D01*
X023451Y006264D02*
X015141Y006264D01*
X015141Y006165D02*
X023451Y006165D01*
X023451Y006067D02*
X015141Y006067D01*
X015141Y005968D02*
X023451Y005968D01*
X023451Y005870D02*
X015197Y005870D01*
X015296Y005771D02*
X023451Y005771D01*
X023451Y007052D02*
X014665Y007052D01*
X014567Y007150D02*
X023451Y007150D01*
X023451Y007249D02*
X014468Y007249D01*
X014370Y007347D02*
X023451Y007347D01*
X023451Y007446D02*
X014271Y007446D01*
X014173Y007544D02*
X023451Y007544D01*
X023451Y007643D02*
X014074Y007643D01*
X013976Y007741D02*
X023451Y007741D01*
X023451Y007840D02*
X013877Y007840D01*
X013779Y007938D02*
X023451Y007938D01*
X023451Y008037D02*
X013680Y008037D01*
X013798Y008219D02*
X013897Y008178D01*
X014004Y008178D01*
X014104Y008219D01*
X014180Y008295D01*
X014221Y008394D01*
X014221Y008502D01*
X014180Y008601D01*
X014104Y008677D01*
X014004Y008718D01*
X013897Y008718D01*
X013798Y008677D01*
X013722Y008601D01*
X013681Y008502D01*
X013681Y008394D01*
X013722Y008295D01*
X013798Y008219D01*
X013783Y008234D02*
X012918Y008234D01*
X012930Y008245D02*
X012971Y008344D01*
X012971Y008452D01*
X012930Y008551D01*
X012854Y008627D01*
X012754Y008668D01*
X012647Y008668D01*
X012548Y008627D01*
X012472Y008551D01*
X012431Y008452D01*
X012431Y008344D01*
X012472Y008245D01*
X012548Y008169D01*
X012647Y008128D01*
X012754Y008128D01*
X012854Y008169D01*
X012930Y008245D01*
X012966Y008332D02*
X013706Y008332D01*
X013681Y008431D02*
X012971Y008431D01*
X012938Y008529D02*
X013692Y008529D01*
X013749Y008628D02*
X012851Y008628D01*
X012550Y008628D02*
X012043Y008628D01*
X012041Y008529D02*
X012463Y008529D01*
X012431Y008431D02*
X012041Y008431D01*
X012041Y008332D02*
X012436Y008332D01*
X012483Y008234D02*
X012041Y008234D01*
X012041Y008135D02*
X012629Y008135D01*
X012772Y008135D02*
X023451Y008135D01*
X023451Y008234D02*
X018418Y008234D01*
X018404Y008219D02*
X018480Y008295D01*
X018521Y008394D01*
X018521Y008502D01*
X018480Y008601D01*
X018404Y008677D01*
X018304Y008718D01*
X018197Y008718D01*
X018098Y008677D01*
X018022Y008601D01*
X017981Y008502D01*
X017981Y008394D01*
X018022Y008295D01*
X018098Y008219D01*
X018197Y008178D01*
X018304Y008178D01*
X018404Y008219D01*
X018495Y008332D02*
X023451Y008332D01*
X023451Y008431D02*
X018521Y008431D01*
X018509Y008529D02*
X023451Y008529D01*
X023451Y008628D02*
X018452Y008628D01*
X018049Y008628D02*
X016302Y008628D01*
X016330Y008601D02*
X016254Y008677D01*
X016154Y008718D01*
X016047Y008718D01*
X015948Y008677D01*
X015872Y008601D01*
X015831Y008502D01*
X015831Y008394D01*
X015872Y008295D01*
X015948Y008219D01*
X016047Y008178D01*
X016154Y008178D01*
X016254Y008219D01*
X016330Y008295D01*
X016371Y008394D01*
X016371Y008502D01*
X016330Y008601D01*
X016359Y008529D02*
X017992Y008529D01*
X017981Y008431D02*
X016371Y008431D01*
X016345Y008332D02*
X018006Y008332D01*
X018083Y008234D02*
X016268Y008234D01*
X015933Y008234D02*
X014118Y008234D01*
X014195Y008332D02*
X015856Y008332D01*
X015831Y008431D02*
X014221Y008431D01*
X014209Y008529D02*
X015842Y008529D01*
X015899Y008628D02*
X014152Y008628D01*
X012071Y008726D02*
X023451Y008726D01*
X023451Y008825D02*
X012061Y008825D01*
X012007Y008923D02*
X023451Y008923D01*
X023451Y009022D02*
X011491Y009022D01*
X011491Y009120D02*
X023451Y009120D01*
X023451Y009219D02*
X011491Y009219D01*
X011491Y009317D02*
X023451Y009317D01*
X023451Y009416D02*
X011491Y009416D01*
X011491Y009514D02*
X023451Y009514D01*
X023451Y009613D02*
X011491Y009613D01*
X011491Y009711D02*
X023451Y009711D01*
X023451Y009810D02*
X011491Y009810D01*
X011491Y009908D02*
X023451Y009908D01*
X023451Y010007D02*
X012874Y010007D01*
X012627Y010007D02*
X011578Y010007D01*
X011336Y010302D02*
X010451Y010302D01*
X010451Y010204D02*
X011238Y010204D01*
X011139Y010105D02*
X010451Y010105D01*
X010451Y010007D02*
X011111Y010007D01*
X011111Y009908D02*
X010451Y009908D01*
X010451Y009810D02*
X011111Y009810D01*
X011111Y009711D02*
X010451Y009711D01*
X010451Y009613D02*
X011111Y009613D01*
X011111Y009514D02*
X010451Y009514D01*
X010451Y009416D02*
X011111Y009416D01*
X011111Y009317D02*
X010832Y009317D01*
X010832Y009219D02*
X011111Y009219D01*
X011111Y009120D02*
X010832Y009120D01*
X010832Y009022D02*
X011111Y009022D01*
X011111Y008923D02*
X010878Y008923D01*
X010561Y008681D02*
X010561Y007845D01*
X010504Y007868D01*
X010451Y007868D01*
X010451Y008681D01*
X010561Y008681D01*
X010561Y008628D02*
X010451Y008628D01*
X010451Y008529D02*
X010561Y008529D01*
X010561Y008431D02*
X010451Y008431D01*
X010451Y008332D02*
X010561Y008332D01*
X010561Y008234D02*
X010451Y008234D01*
X010451Y008135D02*
X010561Y008135D01*
X010561Y008037D02*
X010451Y008037D01*
X010451Y007938D02*
X010561Y007938D01*
X011491Y008628D02*
X011558Y008628D01*
X011531Y008726D02*
X011491Y008726D01*
X011491Y008825D02*
X011540Y008825D01*
X011491Y008923D02*
X011594Y008923D01*
X013560Y010105D02*
X023451Y010105D01*
X023451Y010204D02*
X013585Y010204D01*
X013585Y010302D02*
X023451Y010302D01*
X023451Y010401D02*
X013585Y010401D01*
X013585Y010499D02*
X023451Y010499D01*
X023451Y010598D02*
X013621Y010598D01*
X013621Y010696D02*
X023451Y010696D01*
X023451Y010795D02*
X013582Y010795D01*
X013463Y010893D02*
X023451Y010893D01*
X023451Y010992D02*
X012817Y010992D01*
X012817Y010893D02*
X013238Y010893D01*
X013119Y010795D02*
X012817Y010795D01*
X012817Y010696D02*
X013081Y010696D01*
X013081Y010598D02*
X012817Y010598D01*
X012849Y010499D02*
X013116Y010499D01*
X012799Y011090D02*
X023451Y011090D01*
X023451Y011189D02*
X012783Y011189D01*
X012817Y011287D02*
X023451Y011287D01*
X023451Y011386D02*
X012817Y011386D01*
X012817Y011484D02*
X023445Y011484D01*
X023361Y011583D02*
X012817Y011583D01*
X012817Y011681D02*
X023361Y011681D01*
X023361Y011780D02*
X012779Y011780D01*
X012614Y011878D02*
X020723Y011878D01*
X020698Y011889D02*
X020797Y011848D01*
X020904Y011848D01*
X021004Y011889D01*
X021080Y011965D01*
X021121Y012064D01*
X021121Y012172D01*
X021080Y012271D01*
X021004Y012347D01*
X020904Y012388D01*
X020797Y012388D01*
X020698Y012347D01*
X020622Y012271D01*
X020581Y012172D01*
X020581Y012064D01*
X020622Y011965D01*
X020698Y011889D01*
X020617Y011977D02*
X012621Y011977D01*
X012590Y012075D02*
X020581Y012075D01*
X020582Y012174D02*
X012506Y012174D01*
X012195Y012174D02*
X010556Y012174D01*
X010640Y012075D02*
X012111Y012075D01*
X012081Y011977D02*
X010671Y011977D01*
X010664Y011878D02*
X012087Y011878D01*
X012122Y011780D02*
X010614Y011780D01*
X010463Y011681D02*
X012084Y011681D01*
X012084Y011583D02*
X010539Y011583D01*
X010636Y011484D02*
X012084Y011484D01*
X012084Y011386D02*
X010671Y011386D01*
X010668Y011287D02*
X012084Y011287D01*
X012119Y011189D02*
X010623Y011189D01*
X010485Y011090D02*
X012102Y011090D01*
X011813Y010992D02*
X010451Y010992D01*
X010451Y010893D02*
X011748Y010893D01*
X011731Y010795D02*
X010451Y010795D01*
X010451Y010696D02*
X011750Y010696D01*
X011819Y010598D02*
X010451Y010598D01*
X010451Y010499D02*
X012139Y010499D01*
X011435Y010401D02*
X010451Y010401D01*
X010451Y012272D02*
X020623Y012272D01*
X020756Y012371D02*
X010451Y012371D01*
X010451Y012469D02*
X010647Y012469D01*
X010592Y012568D02*
X010451Y012568D01*
X010451Y012666D02*
X010563Y012666D01*
X010465Y012765D02*
X010451Y012765D01*
X010707Y013060D02*
X011339Y013060D01*
X011304Y013025D02*
X011304Y012828D01*
X011394Y012737D01*
X011571Y012737D01*
X011572Y012737D01*
X011976Y012737D01*
X011997Y012728D01*
X012104Y012728D01*
X012204Y012769D01*
X012280Y012845D01*
X012321Y012944D01*
X012321Y013052D01*
X012280Y013151D01*
X012204Y013227D01*
X012153Y013248D01*
X012204Y013269D01*
X012280Y013345D01*
X012321Y013444D01*
X012321Y013552D01*
X012280Y013651D01*
X012204Y013727D01*
X012104Y013768D01*
X011997Y013768D01*
X011976Y013759D01*
X011572Y013759D01*
X011571Y013759D01*
X011394Y013759D01*
X011304Y013668D01*
X011304Y013470D01*
X011394Y013380D01*
X011571Y013380D01*
X011572Y013379D01*
X011808Y013379D01*
X011822Y013345D01*
X011898Y013269D01*
X011949Y013248D01*
X011898Y013227D01*
X011822Y013151D01*
X011808Y013117D01*
X011572Y013117D01*
X011571Y013116D01*
X011394Y013116D01*
X011304Y013025D01*
X011304Y012962D02*
X010805Y012962D01*
X011017Y012863D02*
X011304Y012863D01*
X011367Y012765D02*
X011094Y012765D01*
X011121Y012666D02*
X023361Y012666D01*
X023361Y012568D02*
X011110Y012568D01*
X011054Y012469D02*
X023361Y012469D01*
X023361Y012371D02*
X020945Y012371D01*
X021078Y012272D02*
X023361Y012272D01*
X023361Y012174D02*
X021120Y012174D01*
X021121Y012075D02*
X023361Y012075D01*
X023361Y011977D02*
X021084Y011977D01*
X020978Y011878D02*
X023361Y011878D01*
X023361Y012765D02*
X019144Y012765D01*
X019154Y012769D02*
X019230Y012845D01*
X019271Y012944D01*
X019271Y013202D01*
X019237Y013283D01*
X019237Y013513D01*
X019149Y013601D01*
X018552Y013601D01*
X018464Y013513D01*
X018464Y013283D01*
X018431Y013202D01*
X018431Y012944D01*
X018472Y012845D01*
X018548Y012769D01*
X018647Y012728D01*
X019054Y012728D01*
X019154Y012769D01*
X019237Y012863D02*
X023361Y012863D01*
X023361Y012962D02*
X019271Y012962D01*
X019271Y013060D02*
X023361Y013060D01*
X023361Y013159D02*
X019271Y013159D01*
X019248Y013257D02*
X023361Y013257D01*
X023361Y013356D02*
X019237Y013356D01*
X019237Y013454D02*
X023361Y013454D01*
X023361Y013553D02*
X019197Y013553D01*
X018504Y013553D02*
X013297Y013553D01*
X013337Y013513D02*
X013249Y013601D01*
X012652Y013601D01*
X012564Y013513D01*
X012564Y013279D01*
X012531Y013197D01*
X012531Y012944D01*
X012572Y012845D01*
X012648Y012769D01*
X012747Y012728D01*
X013154Y012728D01*
X013254Y012769D01*
X013330Y012845D01*
X013371Y012944D01*
X013371Y013202D01*
X013337Y013283D01*
X013337Y013513D01*
X013337Y013454D02*
X018464Y013454D01*
X018464Y013356D02*
X013337Y013356D01*
X013348Y013257D02*
X018454Y013257D01*
X018431Y013159D02*
X013371Y013159D01*
X013371Y013060D02*
X018431Y013060D01*
X018431Y012962D02*
X013371Y012962D01*
X013337Y012863D02*
X018464Y012863D01*
X018558Y012765D02*
X013244Y012765D01*
X012658Y012765D02*
X012194Y012765D01*
X012287Y012863D02*
X012564Y012863D01*
X012531Y012962D02*
X012321Y012962D01*
X012317Y013060D02*
X012531Y013060D01*
X012531Y013159D02*
X012271Y013159D01*
X012176Y013257D02*
X012556Y013257D01*
X012564Y013356D02*
X012284Y013356D01*
X012321Y013454D02*
X012564Y013454D01*
X012604Y013553D02*
X012320Y013553D01*
X012279Y013651D02*
X023361Y013651D01*
X023361Y013750D02*
X012148Y013750D01*
X012104Y014028D02*
X012204Y014069D01*
X012280Y014145D01*
X012321Y014244D01*
X012321Y014352D01*
X012280Y014451D01*
X012204Y014527D01*
X012104Y014568D01*
X011997Y014568D01*
X011976Y014559D01*
X011572Y014559D01*
X011571Y014559D01*
X011394Y014559D01*
X011304Y014468D01*
X011304Y014270D01*
X011394Y014180D01*
X011571Y014180D01*
X011572Y014179D01*
X011808Y014179D01*
X011822Y014145D01*
X011898Y014069D01*
X011997Y014028D01*
X012104Y014028D01*
X012147Y014045D02*
X023361Y014045D01*
X023361Y013947D02*
X011121Y013947D01*
X011121Y013894D02*
X011121Y014002D01*
X011080Y014101D01*
X011041Y014140D01*
X011041Y014509D01*
X011189Y014658D01*
X012469Y014658D01*
X012469Y014569D01*
X012557Y014481D01*
X013075Y014481D01*
X013163Y014569D01*
X013163Y015127D01*
X013117Y015173D01*
X013163Y015219D01*
X013163Y015777D01*
X013117Y015823D01*
X013151Y015857D01*
X013226Y015781D01*
X013744Y015781D01*
X013832Y015869D01*
X013832Y015878D01*
X013904Y015878D01*
X014004Y015919D01*
X014080Y015995D01*
X014121Y016094D01*
X014121Y016202D01*
X014080Y016301D01*
X014004Y016377D01*
X013904Y016418D01*
X013832Y016418D01*
X013832Y016427D01*
X013744Y016514D01*
X013226Y016514D01*
X013151Y016439D01*
X013075Y016514D01*
X012557Y016514D01*
X012469Y016427D01*
X012469Y015869D01*
X012515Y015823D01*
X012469Y015777D01*
X012469Y015756D01*
X012398Y015727D01*
X012322Y015651D01*
X012281Y015552D01*
X012281Y015548D01*
X012280Y015551D01*
X012204Y015627D01*
X012104Y015668D01*
X011997Y015668D01*
X011898Y015627D01*
X011822Y015551D01*
X011812Y015528D01*
X011772Y015488D01*
X011593Y015488D01*
X011571Y015466D01*
X011394Y015466D01*
X011304Y015375D01*
X011304Y015178D01*
X011394Y015087D01*
X011571Y015087D01*
X011572Y015087D01*
X011729Y015087D01*
X011730Y015087D01*
X011907Y015087D01*
X011927Y015108D01*
X011929Y015108D01*
X011963Y015142D01*
X011997Y015128D01*
X012104Y015128D01*
X012204Y015169D01*
X012280Y015245D01*
X012321Y015344D01*
X012321Y015348D01*
X012322Y015345D01*
X012398Y015269D01*
X012469Y015239D01*
X012469Y015219D01*
X012515Y015173D01*
X012469Y015127D01*
X012469Y015038D01*
X011032Y015038D01*
X010921Y014927D01*
X010661Y014667D01*
X010661Y014140D01*
X010622Y014101D01*
X010581Y014002D01*
X010581Y013894D01*
X010622Y013795D01*
X010698Y013719D01*
X010797Y013678D01*
X010904Y013678D01*
X011004Y013719D01*
X011080Y013795D01*
X011121Y013894D01*
X011102Y013848D02*
X023361Y013848D01*
X023361Y014144D02*
X012279Y014144D01*
X012320Y014242D02*
X023361Y014242D01*
X023361Y014341D02*
X012321Y014341D01*
X012284Y014439D02*
X023361Y014439D01*
X023361Y014538D02*
X013132Y014538D01*
X013163Y014636D02*
X023361Y014636D01*
X023361Y014735D02*
X013163Y014735D01*
X013163Y014833D02*
X023361Y014833D01*
X023361Y014932D02*
X020972Y014932D01*
X021014Y014949D02*
X021090Y015025D01*
X021131Y015124D01*
X021131Y015232D01*
X021090Y015331D01*
X021014Y015407D01*
X020914Y015448D01*
X020807Y015448D01*
X020708Y015407D01*
X020632Y015331D01*
X020591Y015232D01*
X020591Y015124D01*
X020632Y015025D01*
X020708Y014949D01*
X020807Y014908D01*
X020914Y014908D01*
X021014Y014949D01*
X021092Y015030D02*
X023361Y015030D01*
X023361Y015129D02*
X021131Y015129D01*
X021131Y015227D02*
X023361Y015227D01*
X023361Y015326D02*
X021092Y015326D01*
X020971Y015424D02*
X023361Y015424D01*
X023361Y015523D02*
X013163Y015523D01*
X013163Y015621D02*
X023361Y015621D01*
X023361Y015720D02*
X013163Y015720D01*
X013189Y015818D02*
X013121Y015818D01*
X012511Y015818D02*
X011141Y015818D01*
X011141Y015720D02*
X012391Y015720D01*
X012310Y015621D02*
X012209Y015621D01*
X012313Y015326D02*
X012341Y015326D01*
X012262Y015227D02*
X012469Y015227D01*
X012472Y015129D02*
X012107Y015129D01*
X011994Y015129D02*
X011950Y015129D01*
X011353Y015129D02*
X010451Y015129D01*
X010451Y015227D02*
X010789Y015227D01*
X010709Y015326D02*
X010451Y015326D01*
X010451Y015424D02*
X010681Y015424D01*
X010689Y015523D02*
X010451Y015523D01*
X010451Y015621D02*
X010742Y015621D01*
X010761Y015720D02*
X010555Y015720D01*
X010639Y015818D02*
X010761Y015818D01*
X010761Y015917D02*
X010671Y015917D01*
X011141Y015917D02*
X012469Y015917D01*
X012469Y016015D02*
X011141Y016015D01*
X011141Y016114D02*
X012469Y016114D01*
X012469Y016212D02*
X011055Y016212D01*
X010956Y016311D02*
X012469Y016311D01*
X012469Y016409D02*
X010671Y016409D01*
X010668Y016508D02*
X012551Y016508D01*
X013081Y016508D02*
X013220Y016508D01*
X013751Y016508D02*
X023361Y016508D01*
X023361Y016606D02*
X010624Y016606D01*
X010486Y016705D02*
X023361Y016705D01*
X023361Y016803D02*
X010451Y016803D01*
X010451Y016902D02*
X023361Y016902D01*
X023361Y017000D02*
X010451Y017000D01*
X010451Y017099D02*
X023361Y017099D01*
X023361Y017197D02*
X010451Y017197D01*
X010451Y017296D02*
X023361Y017296D01*
X023361Y017394D02*
X010451Y017394D01*
X010451Y017493D02*
X023361Y017493D01*
X023361Y017591D02*
X010451Y017591D01*
X010451Y017690D02*
X023361Y017690D01*
X023361Y017788D02*
X010451Y017788D01*
X010451Y017887D02*
X023361Y017887D01*
X023361Y017985D02*
X010451Y017985D01*
X010451Y018084D02*
X023361Y018084D01*
X023361Y018182D02*
X010451Y018182D01*
X010451Y018281D02*
X023361Y018281D01*
X023361Y018379D02*
X010451Y018379D01*
X010451Y018478D02*
X018197Y018478D01*
X018304Y018478D01*
X018404Y018519D01*
X018480Y018595D01*
X018521Y018694D01*
X018521Y018802D01*
X018480Y018901D01*
X018404Y018977D01*
X018304Y019018D01*
X018197Y019018D01*
X018098Y018977D01*
X018022Y018901D01*
X017981Y018802D01*
X017981Y018694D01*
X018022Y018595D01*
X018098Y018519D01*
X018197Y018478D01*
X018304Y018478D02*
X023361Y018478D01*
X023361Y018576D02*
X018461Y018576D01*
X018513Y018675D02*
X023361Y018675D01*
X023361Y018773D02*
X018521Y018773D01*
X018491Y018872D02*
X023361Y018872D01*
X023361Y018970D02*
X018410Y018970D01*
X018091Y018970D02*
X016342Y018970D01*
X016330Y019001D02*
X016254Y019077D01*
X016154Y019118D01*
X016047Y019118D01*
X015948Y019077D01*
X015872Y019001D01*
X015831Y018902D01*
X015831Y018794D01*
X015872Y018695D01*
X015948Y018619D01*
X016047Y018578D01*
X016154Y018578D01*
X016254Y018619D01*
X016330Y018695D01*
X016371Y018794D01*
X016371Y018902D01*
X016330Y019001D01*
X016261Y019069D02*
X023361Y019069D01*
X023361Y019167D02*
X010451Y019167D01*
X010451Y019069D02*
X012490Y019069D01*
X012498Y019077D02*
X012422Y019001D01*
X012381Y018902D01*
X012381Y018794D01*
X012422Y018695D01*
X012498Y018619D01*
X012597Y018578D01*
X012704Y018578D01*
X012804Y018619D01*
X012880Y018695D01*
X012921Y018794D01*
X012921Y018902D01*
X012880Y019001D01*
X012804Y019077D01*
X012704Y019118D01*
X012597Y019118D01*
X012498Y019077D01*
X012409Y018970D02*
X010451Y018970D01*
X010451Y018872D02*
X012381Y018872D01*
X012389Y018773D02*
X010451Y018773D01*
X010451Y018675D02*
X012442Y018675D01*
X012860Y018675D02*
X013742Y018675D01*
X013722Y018695D02*
X013798Y018619D01*
X013897Y018578D01*
X014004Y018578D01*
X014104Y018619D01*
X014180Y018695D01*
X014221Y018794D01*
X014221Y018902D01*
X014180Y019001D01*
X014104Y019077D01*
X014004Y019118D01*
X013897Y019118D01*
X013798Y019077D01*
X013722Y019001D01*
X013681Y018902D01*
X013681Y018794D01*
X013722Y018695D01*
X013689Y018773D02*
X012912Y018773D01*
X012921Y018872D02*
X013681Y018872D01*
X013709Y018970D02*
X012892Y018970D01*
X012811Y019069D02*
X013790Y019069D01*
X014111Y019069D02*
X015940Y019069D01*
X015859Y018970D02*
X014192Y018970D01*
X014221Y018872D02*
X015831Y018872D01*
X015839Y018773D02*
X014212Y018773D01*
X014160Y018675D02*
X015892Y018675D01*
X016310Y018675D02*
X017989Y018675D01*
X017981Y018773D02*
X016362Y018773D01*
X016371Y018872D02*
X018010Y018872D01*
X018040Y018576D02*
X010451Y018576D01*
X010451Y019266D02*
X023361Y019266D01*
X023361Y019364D02*
X010451Y019364D01*
X010451Y019463D02*
X012604Y019463D01*
X012544Y019561D02*
X010451Y019561D01*
X010251Y019998D02*
X011001Y019998D01*
X011001Y020348D01*
X010251Y020348D01*
X010251Y019998D01*
X010251Y020054D02*
X011001Y020054D01*
X011001Y020152D02*
X010251Y020152D01*
X010251Y020251D02*
X011001Y020251D01*
X011701Y020251D02*
X012401Y020251D01*
X012351Y020198D02*
X012351Y019998D01*
X012401Y019955D02*
X011701Y019955D01*
X011701Y019948D02*
X011701Y020348D01*
X012401Y020348D01*
X012401Y019948D01*
X011701Y019948D01*
X011701Y020054D02*
X012401Y020054D01*
X012401Y020152D02*
X011701Y020152D01*
X011701Y020698D02*
X011701Y021098D01*
X012401Y021098D01*
X012401Y020698D01*
X011701Y020698D01*
X011701Y020743D02*
X012401Y020743D01*
X012401Y020842D02*
X011701Y020842D01*
X011701Y020940D02*
X012401Y020940D01*
X012401Y021039D02*
X011701Y021039D01*
X011001Y021039D02*
X010301Y021039D01*
X010301Y021098D02*
X010301Y020698D01*
X011001Y020698D01*
X011001Y021098D01*
X010301Y021098D01*
X010301Y020940D02*
X011001Y020940D01*
X011001Y020842D02*
X010301Y020842D01*
X010301Y020743D02*
X011001Y020743D01*
X013051Y020743D02*
X023361Y020743D01*
X023361Y020645D02*
X013051Y020645D01*
X013051Y020546D02*
X023361Y020546D01*
X023361Y020448D02*
X013051Y020448D01*
X013051Y020349D02*
X023361Y020349D01*
X023361Y020251D02*
X013051Y020251D01*
X013051Y020152D02*
X023361Y020152D01*
X023361Y020054D02*
X013051Y020054D01*
X013051Y019955D02*
X023361Y019955D01*
X023361Y019857D02*
X013051Y019857D01*
X013051Y019758D02*
X023361Y019758D01*
X023361Y019660D02*
X013071Y019660D01*
X013057Y019561D02*
X023361Y019561D01*
X023361Y019463D02*
X012998Y019463D01*
X013051Y020842D02*
X023361Y020842D01*
X023361Y020940D02*
X013051Y020940D01*
X013051Y021039D02*
X023361Y021039D01*
X023361Y021137D02*
X013051Y021137D01*
X013051Y021236D02*
X023361Y021236D01*
X023361Y021334D02*
X013051Y021334D01*
X013051Y021433D02*
X023361Y021433D01*
X023361Y021531D02*
X013051Y021531D01*
X013051Y021630D02*
X023361Y021630D01*
X023361Y021728D02*
X013051Y021728D01*
X013051Y021827D02*
X023361Y021827D01*
X023361Y021925D02*
X013051Y021925D01*
X013051Y022024D02*
X023361Y022024D01*
X023361Y022122D02*
X013051Y022122D01*
X013051Y022221D02*
X023361Y022221D01*
X023361Y022319D02*
X013051Y022319D01*
X013139Y022418D02*
X023361Y022418D01*
X023361Y022516D02*
X013238Y022516D01*
X013336Y022615D02*
X023361Y022615D01*
X023361Y022713D02*
X013435Y022713D01*
X013533Y022812D02*
X023361Y022812D01*
X023361Y022910D02*
X013632Y022910D01*
X013730Y023009D02*
X023321Y023009D01*
X030851Y024048D02*
X011201Y024048D01*
X011451Y024448D02*
X031251Y024448D01*
X031651Y024048D01*
X031651Y021948D01*
X031951Y021648D01*
X031651Y021248D02*
X031251Y021648D01*
X031251Y023648D01*
X030851Y024048D01*
X040351Y019248D02*
X042051Y019248D01*
X042051Y017298D01*
X040601Y017298D01*
X040601Y018048D01*
X040351Y018048D01*
X040351Y019248D01*
X040351Y019167D02*
X042051Y019167D01*
X042051Y019069D02*
X040351Y019069D01*
X040351Y018970D02*
X042051Y018970D01*
X042051Y018872D02*
X040351Y018872D01*
X040351Y018773D02*
X042051Y018773D01*
X042051Y018675D02*
X040351Y018675D01*
X040351Y018576D02*
X042051Y018576D01*
X042051Y018478D02*
X040351Y018478D01*
X040351Y018379D02*
X042051Y018379D01*
X042051Y018281D02*
X040351Y018281D01*
X040351Y018182D02*
X042051Y018182D01*
X042051Y018084D02*
X040351Y018084D01*
X040601Y017985D02*
X042051Y017985D01*
X042051Y017887D02*
X040601Y017887D01*
X040601Y017788D02*
X042051Y017788D01*
X042051Y017690D02*
X040601Y017690D01*
X040601Y017591D02*
X042051Y017591D01*
X042051Y017493D02*
X040601Y017493D01*
X040601Y017394D02*
X042051Y017394D01*
X043851Y017148D02*
X043851Y018148D01*
X044251Y018548D01*
X046051Y018548D01*
X039601Y017798D02*
X039601Y016248D01*
X038851Y016248D01*
X038851Y016798D01*
X039001Y016798D01*
X039001Y017798D01*
X039601Y017798D01*
X039601Y017788D02*
X039001Y017788D01*
X039001Y017690D02*
X039601Y017690D01*
X039601Y017591D02*
X039001Y017591D01*
X039001Y017493D02*
X039601Y017493D01*
X039601Y017394D02*
X039001Y017394D01*
X039001Y017296D02*
X039601Y017296D01*
X039601Y017197D02*
X039001Y017197D01*
X039001Y017099D02*
X039601Y017099D01*
X039601Y017000D02*
X039001Y017000D01*
X039001Y016902D02*
X039601Y016902D01*
X039601Y016803D02*
X039001Y016803D01*
X038851Y016705D02*
X039601Y016705D01*
X039601Y016606D02*
X038851Y016606D01*
X038851Y016508D02*
X039601Y016508D01*
X039601Y016409D02*
X038851Y016409D01*
X038851Y016311D02*
X039601Y016311D01*
X038601Y016798D02*
X037751Y016798D01*
X037751Y017198D01*
X038601Y017198D01*
X038601Y016798D01*
X038601Y016803D02*
X037751Y016803D01*
X037751Y016902D02*
X038601Y016902D01*
X038601Y017000D02*
X037751Y017000D01*
X037751Y017099D02*
X038601Y017099D01*
X038601Y017197D02*
X037751Y017197D01*
X032101Y017648D02*
X031901Y017648D01*
X031701Y017648D02*
X031501Y017648D01*
X030751Y017648D02*
X030547Y017648D01*
X029351Y017648D02*
X029147Y017648D01*
X029147Y018048D01*
X028754Y018048D02*
X028754Y017648D01*
X028551Y017648D01*
X023361Y016409D02*
X013925Y016409D01*
X014069Y016311D02*
X023361Y016311D01*
X023361Y016212D02*
X014116Y016212D01*
X014121Y016114D02*
X023361Y016114D01*
X023361Y016015D02*
X014088Y016015D01*
X013999Y015917D02*
X023361Y015917D01*
X023361Y015818D02*
X013781Y015818D01*
X013163Y015424D02*
X020750Y015424D01*
X020630Y015326D02*
X013163Y015326D01*
X013163Y015227D02*
X020591Y015227D01*
X020591Y015129D02*
X013160Y015129D01*
X013163Y015030D02*
X020629Y015030D01*
X020749Y014932D02*
X013163Y014932D01*
X012469Y014636D02*
X011168Y014636D01*
X011069Y014538D02*
X011374Y014538D01*
X011304Y014439D02*
X011041Y014439D01*
X011041Y014341D02*
X011304Y014341D01*
X011332Y014242D02*
X011041Y014242D01*
X011041Y014144D02*
X011823Y014144D01*
X011955Y014045D02*
X011102Y014045D01*
X011034Y013750D02*
X011386Y013750D01*
X011304Y013651D02*
X010451Y013651D01*
X010451Y013553D02*
X011304Y013553D01*
X011320Y013454D02*
X010451Y013454D01*
X010451Y013356D02*
X011817Y013356D01*
X011926Y013257D02*
X010510Y013257D01*
X010608Y013159D02*
X011830Y013159D01*
X010667Y013750D02*
X010451Y013750D01*
X010451Y013848D02*
X010600Y013848D01*
X010581Y013947D02*
X010451Y013947D01*
X010451Y014045D02*
X010599Y014045D01*
X010661Y014144D02*
X010451Y014144D01*
X010451Y014242D02*
X010661Y014242D01*
X010661Y014341D02*
X010451Y014341D01*
X010451Y014439D02*
X010661Y014439D01*
X010661Y014538D02*
X010451Y014538D01*
X010451Y014636D02*
X010661Y014636D01*
X010729Y014735D02*
X010451Y014735D01*
X010451Y014833D02*
X010827Y014833D01*
X010921Y014927D02*
X010921Y014927D01*
X010926Y014932D02*
X010451Y014932D01*
X010451Y015030D02*
X011024Y015030D01*
X011112Y015227D02*
X011304Y015227D01*
X011304Y015326D02*
X011192Y015326D01*
X011221Y015424D02*
X011353Y015424D01*
X011212Y015523D02*
X011807Y015523D01*
X011892Y015621D02*
X011159Y015621D01*
X009351Y016515D02*
X009351Y016848D01*
X009401Y016898D01*
X009095Y016515D02*
X009101Y016509D01*
X009101Y015448D01*
X009101Y014748D01*
X009051Y014748D01*
X006151Y014248D02*
X006151Y013448D01*
X005751Y013448D01*
X005751Y014248D01*
X006151Y014248D01*
X006151Y014242D02*
X005751Y014242D01*
X005751Y014144D02*
X006151Y014144D01*
X006151Y014045D02*
X005751Y014045D01*
X005751Y013947D02*
X006151Y013947D01*
X006151Y013848D02*
X005751Y013848D01*
X005751Y013750D02*
X006151Y013750D01*
X006151Y013651D02*
X005751Y013651D01*
X005751Y013553D02*
X006151Y013553D01*
X006151Y013454D02*
X005751Y013454D01*
X005951Y011998D02*
X005351Y011998D01*
X005351Y011548D01*
X005951Y011548D01*
X005951Y011998D01*
X005951Y011977D02*
X005351Y011977D01*
X005351Y011878D02*
X005951Y011878D01*
X005951Y011780D02*
X005351Y011780D01*
X005351Y011681D02*
X005951Y011681D01*
X005951Y011583D02*
X005351Y011583D01*
X005351Y011148D02*
X005351Y010748D01*
X005951Y010748D01*
X005951Y011148D01*
X005351Y011148D01*
X005351Y011090D02*
X005951Y011090D01*
X005951Y010992D02*
X005351Y010992D01*
X005351Y010893D02*
X005951Y010893D01*
X005951Y010795D02*
X005351Y010795D01*
X005451Y010848D02*
X005651Y011048D01*
X005851Y010848D01*
X005651Y011048D02*
X005651Y011082D01*
X006351Y010148D02*
X006351Y009698D01*
X006951Y009698D01*
X006951Y010148D01*
X006351Y010148D01*
X006351Y010105D02*
X006951Y010105D01*
X006951Y010007D02*
X006351Y010007D01*
X006351Y009908D02*
X006951Y009908D01*
X006951Y009810D02*
X006351Y009810D01*
X006351Y009711D02*
X006951Y009711D01*
X006651Y009814D02*
X006651Y009848D01*
X006851Y010048D01*
X006651Y009848D02*
X006451Y010048D01*
X006101Y009598D02*
X005701Y009598D01*
X005701Y008798D01*
X006101Y008798D01*
X006101Y009598D01*
X006101Y009514D02*
X005701Y009514D01*
X005701Y009416D02*
X006101Y009416D01*
X006101Y009317D02*
X005701Y009317D01*
X005701Y009219D02*
X006101Y009219D01*
X006101Y009120D02*
X005701Y009120D01*
X005701Y009022D02*
X006101Y009022D01*
X006101Y008923D02*
X005701Y008923D01*
X005701Y008825D02*
X006101Y008825D01*
X006351Y008948D02*
X006951Y008948D01*
X006951Y009348D01*
X006351Y009348D01*
X006351Y008948D01*
X006351Y009022D02*
X006951Y009022D01*
X006951Y009120D02*
X006351Y009120D01*
X006351Y009219D02*
X006951Y009219D01*
X006951Y009317D02*
X006351Y009317D01*
X006451Y009048D02*
X006851Y009048D01*
X006651Y009248D01*
X006451Y009048D01*
X006651Y009248D02*
X006651Y009282D01*
X006101Y006098D02*
X005701Y006098D01*
X005701Y005298D01*
X006101Y005298D01*
X006101Y006098D01*
X006101Y006067D02*
X005701Y006067D01*
X005701Y005968D02*
X006101Y005968D01*
X006101Y005870D02*
X005701Y005870D01*
X005701Y005771D02*
X006101Y005771D01*
X006101Y005673D02*
X005701Y005673D01*
X005701Y005574D02*
X006101Y005574D01*
X006101Y005476D02*
X005701Y005476D01*
X005701Y005377D02*
X006101Y005377D01*
X012177Y014538D02*
X012500Y014538D01*
X009095Y016515D02*
X009095Y017381D01*
X006151Y017394D02*
X005751Y017394D01*
X005751Y017296D02*
X006151Y017296D01*
X006151Y017197D02*
X005751Y017197D01*
X005751Y017099D02*
X006151Y017099D01*
X006151Y017000D02*
X005751Y017000D01*
X005751Y016948D02*
X005751Y017748D01*
X006151Y017748D01*
X006151Y016948D01*
X005751Y016948D01*
X005751Y017493D02*
X006151Y017493D01*
X006151Y017591D02*
X005751Y017591D01*
X005751Y017690D02*
X006151Y017690D01*
X025051Y013495D02*
X025451Y013495D01*
X025451Y013598D01*
X025551Y013698D01*
X025554Y013951D02*
X025601Y013998D01*
X025554Y013951D02*
X025351Y013951D01*
X025351Y014345D02*
X025597Y014345D01*
X025601Y014348D01*
X025451Y013101D02*
X025051Y013101D01*
X025451Y013101D02*
X025451Y012898D01*
X028701Y010548D02*
X028704Y010545D01*
X028704Y010298D01*
X029454Y010298D02*
X029454Y010545D01*
X029451Y010548D01*
X029847Y010545D02*
X029847Y010298D01*
X029847Y010545D02*
X029851Y010548D01*
X032051Y011148D02*
X032101Y011098D01*
X032151Y011148D02*
X032201Y011198D01*
X032451Y011198D01*
X032051Y011148D02*
X032051Y011301D01*
X032051Y011695D02*
X032051Y011848D01*
X032101Y011798D01*
X032451Y011798D01*
X032101Y011898D02*
X032051Y011848D01*
X034651Y010468D02*
X034796Y010468D01*
X034926Y010598D01*
X036001Y010598D01*
X036001Y009598D01*
X035551Y009598D01*
X035551Y009948D01*
X034651Y009948D01*
X034651Y010468D01*
X034651Y010401D02*
X036001Y010401D01*
X036001Y010499D02*
X034827Y010499D01*
X034651Y010302D02*
X036001Y010302D01*
X036001Y010204D02*
X034651Y010204D01*
X034651Y010105D02*
X036001Y010105D01*
X036001Y010007D02*
X034651Y010007D01*
X034851Y009448D02*
X034851Y006248D01*
X035351Y006248D01*
X035351Y009448D01*
X034851Y009448D01*
X034851Y009416D02*
X035351Y009416D01*
X035351Y009317D02*
X034851Y009317D01*
X034851Y009219D02*
X035351Y009219D01*
X035351Y009120D02*
X034851Y009120D01*
X034851Y009022D02*
X035351Y009022D01*
X035351Y008923D02*
X034851Y008923D01*
X034851Y008825D02*
X035351Y008825D01*
X035351Y008726D02*
X034851Y008726D01*
X034851Y008628D02*
X035351Y008628D01*
X035351Y008529D02*
X034851Y008529D01*
X034851Y008431D02*
X035351Y008431D01*
X035351Y008332D02*
X034851Y008332D01*
X034851Y008234D02*
X035351Y008234D01*
X035351Y008135D02*
X034851Y008135D01*
X034851Y008037D02*
X035351Y008037D01*
X035351Y007938D02*
X034851Y007938D01*
X034851Y007840D02*
X035351Y007840D01*
X035351Y007848D02*
X036351Y007848D01*
X036701Y007840D02*
X037201Y007840D01*
X037201Y007938D02*
X036701Y007938D01*
X036701Y008037D02*
X037201Y008037D01*
X037201Y008048D02*
X037201Y006498D01*
X036701Y006498D01*
X036701Y008048D01*
X037201Y008048D01*
X037501Y008048D02*
X037501Y007348D01*
X038001Y007348D01*
X038001Y008048D01*
X037501Y008048D01*
X037501Y008037D02*
X038001Y008037D01*
X038001Y007938D02*
X037501Y007938D01*
X037501Y007840D02*
X038001Y007840D01*
X038001Y007741D02*
X037501Y007741D01*
X037501Y007643D02*
X038001Y007643D01*
X038001Y007544D02*
X037501Y007544D01*
X037501Y007446D02*
X038001Y007446D01*
X038001Y007148D02*
X037501Y007148D01*
X037501Y006498D01*
X038001Y006498D01*
X038001Y007148D01*
X038001Y007052D02*
X037501Y007052D01*
X037501Y006953D02*
X038001Y006953D01*
X038001Y006855D02*
X037501Y006855D01*
X037501Y006756D02*
X038001Y006756D01*
X038001Y006658D02*
X037501Y006658D01*
X037501Y006559D02*
X038001Y006559D01*
X037201Y006559D02*
X036701Y006559D01*
X036701Y006658D02*
X037201Y006658D01*
X037201Y006756D02*
X036701Y006756D01*
X036701Y006855D02*
X037201Y006855D01*
X037201Y006953D02*
X036701Y006953D01*
X036701Y007052D02*
X037201Y007052D01*
X037201Y007150D02*
X036701Y007150D01*
X036701Y007249D02*
X037201Y007249D01*
X037201Y007347D02*
X036701Y007347D01*
X036701Y007446D02*
X037201Y007446D01*
X037201Y007544D02*
X036701Y007544D01*
X036701Y007643D02*
X037201Y007643D01*
X037201Y007741D02*
X036701Y007741D01*
X035351Y007741D02*
X034851Y007741D01*
X034851Y007643D02*
X035351Y007643D01*
X035351Y007544D02*
X034851Y007544D01*
X034851Y007446D02*
X035351Y007446D01*
X035351Y007347D02*
X034851Y007347D01*
X034851Y007249D02*
X035351Y007249D01*
X035351Y007150D02*
X034851Y007150D01*
X034851Y007052D02*
X035351Y007052D01*
X035351Y006953D02*
X034851Y006953D01*
X034851Y006855D02*
X035351Y006855D01*
X035351Y006756D02*
X034851Y006756D01*
X034851Y006658D02*
X035351Y006658D01*
X035351Y006559D02*
X034851Y006559D01*
X034851Y006461D02*
X035351Y006461D01*
X035351Y006362D02*
X034851Y006362D01*
X034851Y006264D02*
X035351Y006264D01*
X035570Y006067D02*
X035801Y006067D01*
X035801Y006165D02*
X035668Y006165D01*
X035751Y006248D02*
X035251Y005748D01*
X034801Y005748D01*
X034801Y005298D01*
X035801Y005298D01*
X035801Y006248D01*
X035751Y006248D01*
X035801Y005968D02*
X035471Y005968D01*
X035373Y005870D02*
X035801Y005870D01*
X035801Y005771D02*
X035274Y005771D01*
X034801Y005673D02*
X035801Y005673D01*
X035801Y005574D02*
X034801Y005574D01*
X034801Y005476D02*
X035801Y005476D01*
X035801Y005377D02*
X034801Y005377D01*
X034551Y004998D02*
X034551Y003748D01*
X035651Y003748D01*
X035651Y004998D01*
X034551Y004998D01*
X034551Y004983D02*
X035651Y004983D01*
X035651Y004885D02*
X034551Y004885D01*
X034551Y004786D02*
X035651Y004786D01*
X035651Y004688D02*
X034551Y004688D01*
X034551Y004589D02*
X035651Y004589D01*
X035651Y004491D02*
X034551Y004491D01*
X034551Y004392D02*
X035651Y004392D01*
X035651Y004294D02*
X034551Y004294D01*
X034551Y004195D02*
X035651Y004195D01*
X035651Y004097D02*
X034551Y004097D01*
X034551Y003998D02*
X035651Y003998D01*
X035651Y003900D02*
X034551Y003900D01*
X034551Y003801D02*
X035651Y003801D01*
X036351Y003801D02*
X037951Y003801D01*
X037951Y003848D02*
X037951Y002648D01*
X036651Y002648D01*
X036651Y003648D01*
X036351Y003648D01*
X036351Y004648D01*
X038351Y004648D01*
X038351Y003848D01*
X037951Y003848D01*
X037951Y003703D02*
X036351Y003703D01*
X036351Y003900D02*
X038351Y003900D01*
X038351Y003998D02*
X036351Y003998D01*
X036351Y004097D02*
X038351Y004097D01*
X038351Y004195D02*
X036351Y004195D01*
X036351Y004294D02*
X038351Y004294D01*
X038351Y004392D02*
X036351Y004392D01*
X036351Y004491D02*
X038351Y004491D01*
X038351Y004589D02*
X036351Y004589D01*
X037351Y004146D02*
X039298Y004146D01*
X039501Y004348D01*
X039501Y005098D01*
X039251Y005248D02*
X039251Y006248D01*
X038651Y005648D01*
X038651Y005248D01*
X039251Y005248D01*
X039251Y005279D02*
X038651Y005279D01*
X038651Y005377D02*
X039251Y005377D01*
X039251Y005476D02*
X038651Y005476D01*
X038651Y005574D02*
X039251Y005574D01*
X039251Y005673D02*
X038676Y005673D01*
X038774Y005771D02*
X039251Y005771D01*
X039251Y005870D02*
X038873Y005870D01*
X038971Y005968D02*
X039251Y005968D01*
X039251Y006067D02*
X039070Y006067D01*
X039051Y006062D02*
X039051Y005463D01*
X039501Y005708D02*
X039761Y005708D01*
X039860Y005808D01*
X039860Y006150D01*
X039890Y006150D01*
X039906Y006165D01*
X039906Y006362D02*
X039906Y006362D01*
X039351Y006362D01*
X039051Y006062D01*
X039168Y006165D02*
X039251Y006165D01*
X039551Y006559D02*
X039551Y006657D01*
X039551Y006756D01*
X039906Y006756D01*
X039906Y006756D01*
X039906Y006953D02*
X039860Y006953D01*
X039860Y006953D01*
X039860Y007149D02*
X039860Y007150D01*
X039651Y007150D01*
X039454Y006953D01*
X039551Y006559D02*
X039906Y006559D01*
X039906Y006559D01*
X040451Y006548D02*
X040457Y006542D01*
X040457Y005909D01*
X040261Y005900D02*
X040261Y005248D01*
X039201Y004998D02*
X039201Y004398D01*
X038651Y004398D01*
X038651Y004998D01*
X039201Y004998D01*
X039201Y004983D02*
X038651Y004983D01*
X038651Y004885D02*
X039201Y004885D01*
X039201Y004786D02*
X038651Y004786D01*
X038651Y004688D02*
X039201Y004688D01*
X039201Y004589D02*
X038651Y004589D01*
X038651Y004491D02*
X039201Y004491D01*
X038901Y003598D02*
X038351Y003598D01*
X038351Y002598D01*
X038901Y002598D01*
X038901Y003598D01*
X038901Y003506D02*
X038351Y003506D01*
X038351Y003407D02*
X038901Y003407D01*
X038901Y003309D02*
X038351Y003309D01*
X038351Y003210D02*
X038901Y003210D01*
X038901Y003112D02*
X038351Y003112D01*
X038351Y003013D02*
X038901Y003013D01*
X038901Y002915D02*
X038351Y002915D01*
X038351Y002816D02*
X038901Y002816D01*
X038901Y002718D02*
X038351Y002718D01*
X038351Y002619D02*
X038901Y002619D01*
X039851Y002748D02*
X040450Y002748D01*
X040551Y002848D01*
X040551Y003198D01*
X040351Y003210D02*
X042251Y003210D01*
X042251Y003112D02*
X040351Y003112D01*
X040351Y003013D02*
X042251Y003013D01*
X042251Y002915D02*
X040351Y002915D01*
X040351Y002816D02*
X042251Y002816D01*
X042251Y002748D02*
X045851Y002748D01*
X045851Y002048D01*
X042351Y002048D01*
X042351Y001448D01*
X040351Y001448D01*
X040351Y003348D01*
X042251Y003348D01*
X042251Y002748D01*
X042901Y003048D02*
X042901Y003648D01*
X043551Y003648D01*
X043551Y004748D01*
X044751Y004748D01*
X044751Y003048D01*
X042901Y003048D01*
X042901Y003112D02*
X044751Y003112D01*
X044751Y003210D02*
X042901Y003210D01*
X042901Y003309D02*
X044751Y003309D01*
X044751Y003407D02*
X042901Y003407D01*
X042901Y003506D02*
X044751Y003506D01*
X044751Y003604D02*
X042901Y003604D01*
X042251Y003309D02*
X040351Y003309D01*
X040351Y002718D02*
X045851Y002718D01*
X045851Y002748D02*
X045851Y005398D01*
X045251Y005398D01*
X045251Y002748D01*
X045851Y002748D01*
X045851Y002816D02*
X045251Y002816D01*
X045251Y002915D02*
X045851Y002915D01*
X045851Y003013D02*
X045251Y003013D01*
X045251Y003112D02*
X045851Y003112D01*
X045851Y003210D02*
X045251Y003210D01*
X045251Y003309D02*
X045851Y003309D01*
X045851Y003407D02*
X045251Y003407D01*
X045251Y003506D02*
X045851Y003506D01*
X045851Y003604D02*
X045251Y003604D01*
X045251Y003703D02*
X045851Y003703D01*
X045851Y003801D02*
X045251Y003801D01*
X045251Y003900D02*
X045851Y003900D01*
X045851Y003998D02*
X045251Y003998D01*
X045251Y004097D02*
X045851Y004097D01*
X045851Y004195D02*
X045251Y004195D01*
X045251Y004294D02*
X045851Y004294D01*
X045851Y004392D02*
X045251Y004392D01*
X045251Y004491D02*
X045851Y004491D01*
X045851Y004589D02*
X045251Y004589D01*
X045251Y004688D02*
X045851Y004688D01*
X045851Y004786D02*
X045251Y004786D01*
X045251Y004885D02*
X045851Y004885D01*
X045851Y004983D02*
X045251Y004983D01*
X045251Y005082D02*
X045851Y005082D01*
X045851Y005180D02*
X045251Y005180D01*
X045251Y005279D02*
X045851Y005279D01*
X045851Y005377D02*
X045251Y005377D01*
X044751Y004688D02*
X043551Y004688D01*
X043551Y004589D02*
X044751Y004589D01*
X044751Y004491D02*
X043551Y004491D01*
X043551Y004392D02*
X044751Y004392D01*
X044751Y004294D02*
X043551Y004294D01*
X043551Y004195D02*
X044751Y004195D01*
X044751Y004097D02*
X043551Y004097D01*
X043551Y003998D02*
X044751Y003998D01*
X044751Y003900D02*
X043551Y003900D01*
X043551Y003801D02*
X044751Y003801D01*
X044751Y003703D02*
X043551Y003703D01*
X043001Y004398D02*
X042501Y004398D01*
X042501Y004998D01*
X043001Y004998D01*
X043001Y004398D01*
X043001Y004491D02*
X042501Y004491D01*
X042501Y004589D02*
X043001Y004589D01*
X043001Y004688D02*
X042501Y004688D01*
X042501Y004786D02*
X043001Y004786D01*
X043001Y004885D02*
X042501Y004885D01*
X042501Y004983D02*
X043001Y004983D01*
X043051Y005248D02*
X042451Y005248D01*
X042451Y006248D01*
X042501Y006198D01*
X043051Y005698D01*
X043051Y005248D01*
X043051Y005279D02*
X042451Y005279D01*
X042451Y005377D02*
X043051Y005377D01*
X043051Y005476D02*
X042451Y005476D01*
X042451Y005574D02*
X043051Y005574D01*
X043051Y005673D02*
X042451Y005673D01*
X042451Y005771D02*
X042970Y005771D01*
X042861Y005870D02*
X042451Y005870D01*
X042451Y005968D02*
X042753Y005968D01*
X042645Y006067D02*
X042451Y006067D01*
X042451Y006165D02*
X042536Y006165D01*
X042551Y006158D02*
X042551Y005448D01*
X042201Y005698D02*
X041941Y005698D01*
X041841Y005798D01*
X041841Y006149D01*
X041811Y006149D01*
X041796Y006165D01*
X041796Y006362D02*
X041796Y006362D01*
X042346Y006362D01*
X042551Y006158D01*
X041841Y006559D02*
X041796Y006559D01*
X041796Y006559D01*
X041796Y006756D02*
X041796Y006756D01*
X041841Y006756D01*
X041841Y006953D02*
X041796Y006953D01*
X041796Y006953D01*
X041796Y007149D02*
X041841Y007149D01*
X041841Y007150D01*
X043401Y007150D01*
X043751Y007098D02*
X044201Y007098D01*
X044201Y006548D01*
X043751Y006548D01*
X043751Y007098D01*
X043751Y007052D02*
X044201Y007052D01*
X044201Y006953D02*
X043751Y006953D01*
X043751Y006855D02*
X044201Y006855D01*
X044201Y006756D02*
X043751Y006756D01*
X043751Y006658D02*
X044201Y006658D01*
X044201Y006559D02*
X043751Y006559D01*
X044451Y006559D02*
X044901Y006559D01*
X044901Y006548D02*
X044901Y007948D01*
X044451Y007948D01*
X044451Y006548D01*
X044901Y006548D01*
X044901Y006658D02*
X044451Y006658D01*
X044451Y006756D02*
X044901Y006756D01*
X044901Y006855D02*
X044451Y006855D01*
X044451Y006953D02*
X044901Y006953D01*
X044901Y007052D02*
X044451Y007052D01*
X044451Y007150D02*
X044901Y007150D01*
X044901Y007249D02*
X044451Y007249D01*
X044451Y007347D02*
X044901Y007347D01*
X044901Y007446D02*
X044451Y007446D01*
X044451Y007544D02*
X044901Y007544D01*
X044901Y007643D02*
X044451Y007643D01*
X044451Y007741D02*
X044901Y007741D01*
X044901Y007840D02*
X044451Y007840D01*
X044451Y007938D02*
X044901Y007938D01*
X044201Y007938D02*
X043751Y007938D01*
X043751Y007948D02*
X043751Y007398D01*
X044201Y007398D01*
X044201Y007948D01*
X043751Y007948D01*
X043751Y007840D02*
X044201Y007840D01*
X044201Y007741D02*
X043751Y007741D01*
X043751Y007643D02*
X044201Y007643D01*
X044201Y007544D02*
X043751Y007544D01*
X043751Y007446D02*
X044201Y007446D01*
X042741Y007888D02*
X042701Y007848D01*
X042701Y007838D01*
X042451Y008248D02*
X042451Y009248D01*
X043101Y009248D01*
X043101Y008798D01*
X042451Y008248D01*
X042451Y008332D02*
X042551Y008332D01*
X042451Y008431D02*
X042667Y008431D01*
X042651Y008434D02*
X042651Y008448D01*
X042651Y009033D01*
X042451Y009022D02*
X043101Y009022D01*
X043101Y009120D02*
X042451Y009120D01*
X042451Y009219D02*
X043101Y009219D01*
X043101Y008923D02*
X042451Y008923D01*
X042451Y008825D02*
X043101Y008825D01*
X043016Y008726D02*
X042451Y008726D01*
X042451Y008628D02*
X042900Y008628D01*
X042783Y008529D02*
X042451Y008529D01*
X042201Y008788D02*
X041941Y008788D01*
X041841Y008688D01*
X041841Y008346D01*
X041811Y008346D01*
X041796Y008331D01*
X041796Y008134D02*
X041796Y008134D01*
X041796Y007937D02*
X041841Y007937D01*
X041841Y007937D01*
X042151Y007937D01*
X042151Y007838D01*
X042151Y007740D01*
X041841Y007740D01*
X041841Y007740D01*
X041796Y007740D01*
X041796Y007543D02*
X041841Y007543D01*
X041841Y007543D01*
X041841Y007346D02*
X041841Y007346D01*
X042051Y007346D01*
X042248Y007543D01*
X041841Y007346D02*
X041796Y007346D01*
X040851Y007248D02*
X040851Y007448D01*
X039906Y007543D02*
X039906Y007543D01*
X039860Y007543D01*
X039860Y007740D02*
X039906Y007740D01*
X039906Y007740D01*
X039906Y007937D02*
X039906Y007937D01*
X039860Y007937D01*
X039906Y008134D02*
X039355Y008134D01*
X039151Y008338D01*
X039151Y009048D01*
X039201Y009022D02*
X038651Y009022D01*
X038651Y009120D02*
X039201Y009120D01*
X039201Y009219D02*
X038651Y009219D01*
X038651Y009248D02*
X039201Y009248D01*
X039201Y008348D01*
X039101Y008348D01*
X038651Y008798D01*
X038651Y009248D01*
X038751Y009498D02*
X039251Y009498D01*
X039251Y010098D01*
X038751Y010098D01*
X038751Y009498D01*
X038751Y009514D02*
X039251Y009514D01*
X039251Y009613D02*
X038751Y009613D01*
X038751Y009711D02*
X039251Y009711D01*
X039251Y009810D02*
X038751Y009810D01*
X038751Y009908D02*
X039251Y009908D01*
X039251Y010007D02*
X038751Y010007D01*
X037851Y010007D02*
X036351Y010007D01*
X036351Y010105D02*
X037851Y010105D01*
X037851Y010204D02*
X036351Y010204D01*
X036351Y010302D02*
X037851Y010302D01*
X037851Y010401D02*
X036351Y010401D01*
X036351Y010499D02*
X037851Y010499D01*
X037851Y010548D02*
X037851Y009648D01*
X036351Y009648D01*
X036351Y010548D01*
X037851Y010548D01*
X037851Y009908D02*
X036351Y009908D01*
X036351Y009810D02*
X037851Y009810D01*
X037851Y009711D02*
X036351Y009711D01*
X036001Y009711D02*
X035551Y009711D01*
X035551Y009613D02*
X036001Y009613D01*
X036001Y009810D02*
X035551Y009810D01*
X035551Y009908D02*
X036001Y009908D01*
X037551Y009016D02*
X037551Y009007D01*
X037571Y008987D01*
X038651Y008923D02*
X039201Y008923D01*
X039201Y008825D02*
X038651Y008825D01*
X038722Y008726D02*
X039201Y008726D01*
X039201Y008628D02*
X038821Y008628D01*
X038919Y008529D02*
X039201Y008529D01*
X039201Y008431D02*
X039018Y008431D01*
X039761Y008798D02*
X039861Y008698D01*
X039861Y008347D01*
X039890Y008347D01*
X039906Y008331D01*
X039906Y008134D02*
X039906Y008134D01*
X040457Y008586D02*
X040457Y009154D01*
X040601Y009298D01*
X040851Y009748D02*
X041251Y009348D01*
X041051Y008898D02*
X041047Y008895D01*
X041047Y008586D01*
X039761Y008798D02*
X039501Y008798D01*
X039906Y007346D02*
X039906Y007346D01*
X038301Y007346D01*
X039001Y006657D02*
X038961Y006617D01*
X038961Y006608D01*
X039860Y007149D02*
X039906Y007149D01*
X041441Y005909D02*
X041441Y005807D01*
X041751Y005498D01*
X041751Y004798D01*
X041401Y004448D01*
X044131Y005509D02*
X044151Y005489D01*
X044151Y005479D01*
X046301Y005476D02*
X047251Y005476D01*
X047251Y005574D02*
X046301Y005574D01*
X046301Y005673D02*
X047251Y005673D01*
X047251Y005771D02*
X046301Y005771D01*
X046301Y005870D02*
X047251Y005870D01*
X047251Y005968D02*
X046301Y005968D01*
X046301Y006067D02*
X047251Y006067D01*
X047251Y006165D02*
X046301Y006165D01*
X046301Y006264D02*
X047251Y006264D01*
X047251Y006348D02*
X047251Y004648D01*
X046301Y004648D01*
X046301Y006348D01*
X047251Y006348D01*
X047251Y005377D02*
X046301Y005377D01*
X046301Y005279D02*
X047251Y005279D01*
X047251Y005180D02*
X046301Y005180D01*
X046301Y005082D02*
X047251Y005082D01*
X047251Y004983D02*
X046301Y004983D01*
X046301Y004885D02*
X047251Y004885D01*
X047251Y004786D02*
X046301Y004786D01*
X046301Y004688D02*
X047251Y004688D01*
X045851Y002619D02*
X040351Y002619D01*
X040351Y002521D02*
X045851Y002521D01*
X045851Y002422D02*
X040351Y002422D01*
X040351Y002324D02*
X045851Y002324D01*
X045851Y002225D02*
X040351Y002225D01*
X040351Y002127D02*
X045851Y002127D01*
X044351Y001798D02*
X042951Y001798D01*
X042951Y001248D01*
X044351Y001248D01*
X044351Y001798D01*
X044351Y001733D02*
X042951Y001733D01*
X042951Y001634D02*
X044351Y001634D01*
X044351Y001536D02*
X042951Y001536D01*
X042951Y001437D02*
X044351Y001437D01*
X044351Y001339D02*
X042951Y001339D01*
X043191Y001493D02*
X043191Y001564D01*
X043201Y001574D01*
X043477Y001574D01*
X043651Y001748D01*
X042351Y001733D02*
X040351Y001733D01*
X040351Y001831D02*
X042351Y001831D01*
X042351Y001930D02*
X040351Y001930D01*
X040351Y002028D02*
X042351Y002028D01*
X042351Y001634D02*
X040351Y001634D01*
X040351Y001536D02*
X042351Y001536D01*
X037951Y002718D02*
X036651Y002718D01*
X036651Y002816D02*
X037951Y002816D01*
X037951Y002915D02*
X036651Y002915D01*
X036651Y003013D02*
X037951Y003013D01*
X037951Y003112D02*
X036651Y003112D01*
X036651Y003210D02*
X037951Y003210D01*
X037951Y003309D02*
X036651Y003309D01*
X036651Y003407D02*
X037951Y003407D01*
X037951Y003506D02*
X036651Y003506D01*
X036651Y003604D02*
X037951Y003604D01*
X037703Y005750D02*
X037801Y005848D01*
X037703Y005750D02*
X037351Y005750D01*
X035351Y007848D02*
X035069Y008129D01*
X035069Y008348D01*
X033351Y006448D02*
X032351Y006448D01*
X032351Y004748D01*
X033351Y004748D01*
X033351Y006448D01*
X033351Y006362D02*
X032351Y006362D01*
X032351Y006264D02*
X033351Y006264D01*
X033351Y006165D02*
X032351Y006165D01*
X032351Y006067D02*
X033351Y006067D01*
X033351Y005968D02*
X032351Y005968D01*
X032351Y005870D02*
X033351Y005870D01*
X033351Y005771D02*
X032351Y005771D01*
X032351Y005673D02*
X033351Y005673D01*
X033351Y005574D02*
X032351Y005574D01*
X032351Y005476D02*
X033351Y005476D01*
X033351Y005377D02*
X032351Y005377D01*
X032351Y005279D02*
X033351Y005279D01*
X033351Y005180D02*
X032351Y005180D01*
X032351Y005082D02*
X033351Y005082D01*
X033351Y004983D02*
X032351Y004983D01*
X032351Y004885D02*
X033351Y004885D01*
X033351Y004786D02*
X032351Y004786D01*
X042501Y009498D02*
X042501Y010048D01*
X042951Y010048D01*
X042951Y009498D01*
X042501Y009498D01*
X042501Y009514D02*
X042951Y009514D01*
X042951Y009613D02*
X042501Y009613D01*
X042501Y009711D02*
X042951Y009711D01*
X042951Y009810D02*
X042501Y009810D01*
X042501Y009908D02*
X042951Y009908D01*
X042951Y010007D02*
X042501Y010007D01*
X043351Y010548D02*
X043751Y010548D01*
X043751Y009898D01*
X044851Y009898D01*
X044851Y011448D01*
X043351Y011448D01*
X043351Y010548D01*
X043351Y010598D02*
X044851Y010598D01*
X044851Y010696D02*
X043351Y010696D01*
X043351Y010795D02*
X044851Y010795D01*
X044851Y010893D02*
X043351Y010893D01*
X043351Y010992D02*
X044851Y010992D01*
X044851Y011090D02*
X043351Y011090D01*
X043351Y011189D02*
X044851Y011189D01*
X044851Y011287D02*
X043351Y011287D01*
X043351Y011386D02*
X044851Y011386D01*
X044251Y012048D02*
X046051Y012048D01*
X046051Y012848D01*
X044251Y012848D01*
X044251Y012048D01*
X044251Y012075D02*
X046051Y012075D01*
X046051Y012174D02*
X044251Y012174D01*
X044251Y012272D02*
X046051Y012272D01*
X046051Y012371D02*
X044251Y012371D01*
X044251Y012469D02*
X046051Y012469D01*
X046051Y012568D02*
X044251Y012568D01*
X044251Y012666D02*
X046051Y012666D01*
X046051Y012765D02*
X044251Y012765D01*
X044251Y013448D02*
X044251Y014248D01*
X046051Y014248D01*
X046051Y013448D01*
X044251Y013448D01*
X044251Y013454D02*
X046051Y013454D01*
X046051Y013553D02*
X044251Y013553D01*
X044251Y013651D02*
X046051Y013651D01*
X046051Y013750D02*
X044251Y013750D01*
X044251Y013848D02*
X046051Y013848D01*
X046051Y013947D02*
X044251Y013947D01*
X044251Y014045D02*
X046051Y014045D01*
X046051Y014144D02*
X044251Y014144D01*
X044251Y014242D02*
X046051Y014242D01*
X042851Y012848D02*
X041251Y012848D01*
X041251Y012248D01*
X042851Y012248D01*
X042851Y012848D01*
X042851Y012765D02*
X041251Y012765D01*
X041251Y012666D02*
X042851Y012666D01*
X042851Y012568D02*
X041251Y012568D01*
X041251Y012469D02*
X042851Y012469D01*
X042851Y012371D02*
X041251Y012371D01*
X041251Y012272D02*
X042851Y012272D01*
X042851Y011748D02*
X042251Y011748D01*
X042251Y010648D01*
X042851Y010648D01*
X042851Y011748D01*
X042851Y011681D02*
X042251Y011681D01*
X042251Y011583D02*
X042851Y011583D01*
X042851Y011484D02*
X042251Y011484D01*
X042251Y011386D02*
X042851Y011386D01*
X042851Y011287D02*
X042251Y011287D01*
X042251Y011189D02*
X042851Y011189D01*
X042851Y011090D02*
X042251Y011090D01*
X042251Y010992D02*
X042851Y010992D01*
X042851Y010893D02*
X042251Y010893D01*
X042251Y010795D02*
X042851Y010795D01*
X042851Y010696D02*
X042251Y010696D01*
X043751Y010499D02*
X044851Y010499D01*
X044851Y010401D02*
X043751Y010401D01*
X043751Y010302D02*
X044851Y010302D01*
X044851Y010204D02*
X043751Y010204D01*
X043751Y010105D02*
X044851Y010105D01*
X044851Y010007D02*
X043751Y010007D01*
X043751Y009908D02*
X044851Y009908D01*
X044351Y008746D02*
X043998Y008746D01*
X043901Y008648D01*
X032651Y013748D02*
X032551Y013748D01*
X032451Y013648D01*
X032251Y013648D01*
X032251Y013651D01*
X032351Y013551D01*
X032351Y013448D01*
X032551Y013948D02*
X032451Y014048D01*
X032251Y014048D01*
X032251Y014148D01*
X032351Y014248D01*
X032251Y014048D02*
X032251Y014045D01*
X032551Y013948D02*
X032651Y013948D01*
D35*
X041651Y017648D03*
X032351Y008148D03*
X037051Y003048D03*
X045251Y001548D03*
X046951Y004148D03*
X008851Y020248D03*
X007351Y020248D03*
X005851Y020248D03*
X007351Y021748D03*
X008851Y021748D03*
X008851Y023748D03*
X010351Y023748D03*
D36*
X012816Y016148D02*
X012816Y015498D01*
X013485Y016148D02*
X013851Y016148D01*
X013101Y014298D02*
X012951Y014148D01*
X012951Y014002D02*
X012801Y014152D01*
X012801Y014298D01*
X013101Y014298D01*
X013101Y014148D01*
X012951Y013998D01*
X012951Y013294D02*
X012801Y013144D01*
X012801Y012998D01*
X013101Y012998D01*
X013051Y012998D01*
X012951Y013098D01*
X013101Y013148D02*
X013001Y013248D01*
X013101Y013148D02*
X013101Y012998D01*
X018701Y012998D02*
X018751Y012998D01*
X018851Y013098D01*
X019001Y013148D02*
X018851Y013298D01*
X018846Y013294D01*
X018851Y013294D01*
X018846Y013294D02*
X018701Y013148D01*
X018701Y012998D01*
X019001Y012998D01*
X019001Y013148D01*
X018851Y013998D02*
X018851Y014002D01*
X018851Y013998D02*
X019001Y014148D01*
X019001Y014298D01*
X018851Y014148D01*
X018701Y014148D02*
X018851Y013998D01*
X018701Y014148D02*
X018701Y014298D01*
X019001Y014298D01*
D37*
X036097Y008348D02*
X036132Y008348D01*
X037973Y008348D01*
X043729Y006148D02*
X045569Y006148D01*
X045605Y006148D01*
X039135Y017048D02*
X039135Y017598D01*
X039135Y018744D01*
X039131Y018748D01*
X038466Y018744D02*
X038462Y018748D01*
X038466Y018744D02*
X038466Y017598D01*
X037805Y017598D01*
X037801Y017643D01*
D38*
X041351Y016248D02*
X041351Y015048D01*
X045951Y015048D01*
X046551Y014448D01*
X046551Y011948D01*
X046301Y011698D01*
X046051Y011698D01*
X041351Y015048D02*
X039851Y015048D01*
X041351Y016248D02*
X042451Y017348D01*
X042451Y019548D01*
X042851Y019948D01*
X044501Y019948D01*
X044901Y020348D01*
X044901Y020598D01*
X044901Y021248D01*
X044901Y021448D01*
X044901Y021798D01*
X044950Y021848D01*
X044851Y019398D02*
X045351Y018898D01*
X045801Y018898D01*
X032751Y016298D02*
X032651Y016398D01*
X032751Y015898D02*
X032651Y015798D01*
X039011Y008042D02*
X039116Y007937D01*
X039860Y007937D01*
X039860Y007740D02*
X038791Y007740D01*
X038737Y007794D01*
X038601Y007543D02*
X038456Y007688D01*
X037911Y007688D01*
X038601Y007543D02*
X039860Y007543D01*
X039860Y006953D02*
X039454Y006953D01*
X038585Y006953D01*
X038441Y006808D01*
X037911Y006808D01*
X040851Y005909D02*
X040851Y005298D01*
X042585Y006559D02*
X042691Y006453D01*
X042585Y006559D02*
X041841Y006559D01*
X041841Y006756D02*
X042911Y006756D01*
X042965Y006702D01*
X043101Y006953D02*
X043245Y006808D01*
X043791Y006808D01*
X043101Y006953D02*
X041841Y006953D01*
X041841Y007543D02*
X042248Y007543D01*
X043116Y007543D01*
X043261Y007688D01*
X043791Y007688D01*
X008646Y014248D02*
X008551Y014248D01*
X008251Y014548D01*
D39*
X043001Y018348D02*
X043251Y018048D01*
X043251Y016898D01*
X043701Y016548D01*
X046451Y016548D01*
D40*
X040116Y017498D02*
X040116Y017733D01*
X039801Y018048D01*
X039801Y018748D01*
X038071Y008987D02*
X037571Y008987D01*
X038071Y008987D02*
X039011Y008042D01*
X038737Y007794D02*
X038183Y008348D01*
X037973Y008348D01*
X039001Y006657D02*
X039551Y006657D01*
X042151Y007838D02*
X042701Y007838D01*
X042965Y006702D02*
X043519Y006148D01*
X043729Y006148D01*
X043631Y005509D02*
X044131Y005509D01*
X043631Y005509D02*
X042691Y006453D01*
D41*
X042741Y007888D02*
X043501Y008648D01*
X043901Y008648D01*
X038961Y006608D02*
X038201Y005848D01*
X037801Y005848D01*
D42*
X033311Y008123D02*
X033311Y012173D01*
X034175Y013038D01*
X034761Y013038D01*
X034851Y012948D01*
X034761Y013158D02*
X034851Y013248D01*
X034761Y013158D02*
X034126Y013158D01*
X033191Y012223D01*
X033191Y008173D01*
X032626Y007608D01*
X030526Y007608D01*
X027676Y004758D01*
X014375Y004758D01*
X014061Y005073D01*
X014061Y006323D01*
X013275Y007108D01*
X010451Y007108D01*
X010311Y007248D01*
X010251Y007248D01*
X010451Y006988D02*
X013226Y006988D01*
X013941Y006273D01*
X013941Y005023D01*
X014326Y004638D01*
X027725Y004638D01*
X030575Y007488D01*
X032675Y007488D01*
X033311Y008123D01*
X010451Y006988D02*
X010411Y006948D01*
X010051Y006948D01*
X009500Y006948D01*
X009451Y006898D01*
D43*
X035091Y005598D02*
X035785Y006243D01*
X035785Y007148D01*
X040101Y017148D02*
X040116Y017163D01*
X040116Y017498D01*
X037801Y018312D02*
X037801Y018648D01*
M02*
